<svg xmlns="http://www.w3.org/2000/svg" width="31.506" height="25.024" viewBox="0 0 31.506 25.024">
  <path id="Trazado_8466" data-name="Trazado 8466" d="M331.835,809.339a1.894,1.894,0,0,0-1.489-.634H305.309l-.628-3.63a.715.715,0,0,0-.7-.594H301.6a.716.716,0,0,0,0,1.432h1.77l2.9,16.788.545,3.163a.717.717,0,0,0,.706.594h3.887a1.638,1.638,0,0,0-.77,1.37,1.673,1.673,0,1,0,3.346,0,1.638,1.638,0,0,0-.77-1.37h9.2a1.644,1.644,0,0,0-.765,1.37,1.677,1.677,0,1,0,3.353,0,1.645,1.645,0,0,0-.766-1.37h4.03a.716.716,0,1,0,0-1.431H308.128l-.3-1.732H328.8c1.533,0,2.148-1.51,2.257-2.307l1.308-9.477A2.972,2.972,0,0,0,331.835,809.339Zm-14.187,3.848h-4.08v-3.05h4.08Zm1.431-3.05h4.08v3.05h-4.08Zm-1.431,4.481v3.031h-4.08v-3.031Zm-5.512,3.031h-5.284l-.523-3.031h5.807Zm-5.036,1.431h5.036v2.783h-4.556Zm6.468,0h4.08v2.783h-4.08Zm5.512,0h4.08v2.783h-4.08Zm0-1.431v-3.031h4.08v3.031Zm5.512-3.031h5.9l-.419,3.031h-5.485Zm6.164-4.339a1.61,1.61,0,0,1,.2,1.035l-.259,1.873h-6.1v-3.05h5.755A.479.479,0,0,1,330.756,810.278Zm-18.619-.142v3.05h-5.886a.641.641,0,0,0-.162.033l-.532-3.083ZM328.8,821.862h-4.212v-2.783h5.288l-.236,1.711C329.642,820.8,329.476,821.862,328.8,821.862Z" transform="translate(-300.889 -804.48)" fill="#FFFFFF"/>
</svg>
