<?xml version="1.0" encoding="UTF-8"?>
<svg width="23px" height="29px" viewBox="0 0 23 29" version="1.1" xmlns="http://www.w3.org/2000/svg" xmlns:xlink="http://www.w3.org/1999/xlink">
    <title>img_tu_producto</title>
    <g id="Page-1" stroke="none" stroke-width="1" fill="none" fill-rule="evenodd">
        <g id="img_tu_producto" transform="translate(-0.003000, -0.000026)" fill="#FFFFFF" fill-rule="nonzero">
            <path d="M21.474,0.739025695 L18.602,0.739025695 L18.602,0.616025695 C18.6009425,0.4515904 18.534605,0.294310406 18.4175815,0.17878726 C18.3005581,0.0632641136 18.1424353,-0.00103860001 17.978,1.26907359e-05 L12.985,1.26907359e-05 C12.8205647,-0.00103860001 12.6624419,0.0632641136 12.5454185,0.17878726 C12.428395,0.294310406 12.3620575,0.4515904 12.361,0.616025695 L12.361,0.739025695 L4.061,0.739025695 C1.83418669,0.726826673 0.0176093426,2.5192486 0,4.74602569 L0,24.9670257 C0,25.0146992 0.00477628635,25.0622529 0.014,25.1090257 C0.005,25.2020257 0,25.2970257 0,25.3920257 C0.00581183941,26.1864398 0.327114256,26.9459751 0.893162148,27.5033954 C1.45921004,28.0608156 2.22359032,28.3704152 3.018,28.3641227 L21.478,28.3641227 C21.6753224,28.3653562 21.8650911,28.288244 22.0055568,28.1496536 C22.1460225,28.0110633 22.2256784,27.8223482 22.227,27.6250257 L22.227,1.48302569 C22.227,1.28413533 22.1473948,1.09351921 22.0059151,0.953730526 C21.8644355,0.813941839 21.6728758,0.736619763 21.474,0.739025695 L21.474,0.739025695 Z M13.609,1.23202569 L17.354,1.23202569 L17.354,10.6180257 L15.961,8.96802569 C15.8413028,8.82756954 15.6660409,8.74665725 15.4815,8.74665725 C15.2969591,8.74665725 15.1216972,8.82756954 15.002,8.96802569 L13.609,10.6180257 L13.609,1.23202569 Z M4.063,2.21800531 L12.363,2.21800531 L12.363,12.3180257 C12.3640961,12.5784171 12.5285474,12.8100894 12.774,12.8970257 C12.8423881,12.9213483 12.9144156,12.9338601 12.987,12.9340257 C13.1716858,12.9343999 13.3472039,12.8535884 13.467,12.7130257 L15.484,10.3240257 L17.501,12.7130257 C17.6710796,12.9120758 17.946281,12.9856484 18.193,12.8980257 C18.4384526,12.8110894 18.6029039,12.5794171 18.604,12.3190257 L18.604,2.21902569 L20.727,2.21902569 L20.727,22.4190257 L3.018,22.4190257 C2.48663754,22.4191797 1.96472797,22.5595744 1.505,22.8260257 L1.505,4.74602569 C1.51655196,3.34255187 2.66048962,2.21247199 4.064,2.21800531 L4.063,2.21800531 Z M3.018,26.8830257 C2.19343887,26.8830257 1.525,26.2145868 1.525,25.3900257 C1.525,24.5654646 2.19343887,23.8970257 3.018,23.8970257 L20.73,23.8970257 L20.73,24.8410257 L3.831,24.8410257 C3.49079259,24.8410257 3.215,25.1168183 3.215,25.4570257 C3.215,25.7972331 3.49079259,26.0730257 3.831,26.0730257 L20.725,26.0730257 L20.725,26.8830257 L3.018,26.8830257 Z" id="Trazado_1410"></path>
            <path d="M4.663,20.819039 C4.82743525,20.82009 4.98555809,20.7557873 5.10258153,20.6402641 C5.21960498,20.524741 5.28594255,20.367461 5.287,20.2030257 L5.287,4.68102569 C5.287,4.33640001 5.00762568,4.05702569 4.663,4.05702569 C4.31837432,4.05702569 4.039,4.33640001 4.039,4.68102569 L4.039,20.2040257 C4.04175119,20.5460536 4.3209682,20.8212435 4.663,20.819039 L4.663,20.819039 Z" id="Trazado_1411"></path>
        </g>
    </g>
</svg>