<svg xmlns="http://www.w3.org/2000/svg" width="26.894" height="40" viewBox="0 0 26.894 40">
  <g id="Grupo_505" data-name="Grupo 505" transform="translate(-267.83 -651)">
    <g id="Grupo_504" data-name="Grupo 504" transform="translate(268 652)">
      <line id="Línea_53" data-name="Línea 53" y2="8" transform="translate(20.277 27)" fill="none" stroke="#303053" stroke-linejoin="round" stroke-width="2"/>
      <path id="Trazado_1512" data-name="Trazado 1512" d="M163.638,249,157,253.149v1.66" transform="translate(-141.234 -215.809)" fill="none" stroke="#303053" stroke-linejoin="round" stroke-width="2"/>
      <line id="Línea_54" data-name="Línea 54" y2="8" transform="translate(6.277 27)" fill="none" stroke="#303053" stroke-linejoin="round" stroke-width="2"/>
      <path id="Trazado_1513" data-name="Trazado 1513" d="M167.319,251.468v-3.319a2.19,2.19,0,0,0-.83-1.66L164,244" transform="translate(-142.426 -214.957)" fill="none" stroke="#303053" stroke-linejoin="round" stroke-width="2"/>
      <path id="Trazado_1514" data-name="Trazado 1514" d="M140,251.468v-3.319a2.19,2.19,0,0,1,.83-1.66L143.319,244" transform="translate(-138.34 -214.957)" fill="none" stroke="#303053" stroke-linejoin="round" stroke-width="2"/>
      <path id="Trazado_1515" data-name="Trazado 1515" d="M143,249l6.638,4.149v1.66" transform="translate(-138.851 -215.809)" fill="none" stroke="#303053" stroke-linejoin="round" stroke-width="2"/>
      <path id="Trazado_1516" data-name="Trazado 1516" d="M161.255,228v4.979a9.988,9.988,0,0,1-.83,4.149,35.585,35.585,0,0,1-3.319,3.319,5.976,5.976,0,0,1-4.149,1.66H151.3a5.976,5.976,0,0,1-4.149-1.66,35.482,35.482,0,0,1-3.319-3.319,9.975,9.975,0,0,1-.83-4.149V228" transform="translate(-138.851 -212.234)" fill="none" stroke="#303053" stroke-linejoin="round" stroke-width="2"/>
      <path id="Trazado_1517" data-name="Trazado 1517" d="M151,216.468V209h4.979v7.468" transform="translate(-140.213 -209)" fill="none" stroke="#303053" stroke-linejoin="round" stroke-width="2"/>
      <line id="Línea_55" data-name="Línea 55" x1="9" transform="translate(0.277 15)" fill="none" stroke="#303053" stroke-linejoin="round" stroke-width="2"/>
      <line id="Línea_56" data-name="Línea 56" x1="9" transform="translate(17.277 15)" fill="none" stroke="#303053" stroke-linejoin="round" stroke-width="2"/>
      <path id="Trazado_1518" data-name="Trazado 1518" d="M160,214.149V210c3.238,1.8,5.809,4.114,5.809,8.3v1.66l1.66.83v1.66" transform="translate(-141.745 -209.17)" fill="none" stroke="#303053" stroke-linejoin="round" stroke-width="2"/>
      <path id="Trazado_1519" data-name="Trazado 1519" d="M146.468,214.149V210c-3.319,1.8-5.809,4.114-5.809,8.3v1.66l-1.66.83v1.66" transform="translate(-138.17 -209.17)" fill="none" stroke="#303053" stroke-linejoin="round" stroke-width="2"/>
      <ellipse id="Elipse_13" data-name="Elipse 13" cx="3" cy="3.5" rx="3" ry="3.5" transform="translate(10.277 9)" fill="none" stroke="#303053" stroke-linejoin="round" stroke-width="2"/>
    </g>
  </g>
</svg>
