<svg id="Grupo_289" data-name="Grupo 289" xmlns="http://www.w3.org/2000/svg" width="22.22" height="28.364" viewBox="0 0 22.22 28.364">
  <path id="Trazado_1410" data-name="Trazado 1410" d="M317.456,63.156h-2.872v-.123a.62.62,0,0,0-.624-.616h-4.993a.62.62,0,0,0-.624.616v.123h-8.3a4.039,4.039,0,0,0-4.061,4.007V87.384a.741.741,0,0,0,.014.142c-.009.093-.014.188-.014.283A2.994,2.994,0,0,0,299,90.781h18.46a.744.744,0,0,0,.749-.739V63.9A.744.744,0,0,0,317.456,63.156Zm-7.865.493h3.745v9.386l-1.393-1.65a.63.63,0,0,0-.959,0l-1.393,1.65Zm-9.546.986h8.3v10.1a.617.617,0,0,0,.411.579.64.64,0,0,0,.213.037.629.629,0,0,0,.48-.221l2.017-2.389,2.017,2.389a.632.632,0,0,0,.692.185.617.617,0,0,0,.411-.579v-10.1h2.123v20.2H299a3.019,3.019,0,0,0-1.513.407V67.163A2.549,2.549,0,0,1,300.046,64.635ZM299,89.3a1.493,1.493,0,1,1,0-2.986h17.712v.944H299.813a.616.616,0,1,0,0,1.232h16.894v.81Z" transform="translate(-295.985 -62.417)" fill="#303053"/>
  <path id="Trazado_1411" data-name="Trazado 1411" d="M305.529,88.274a.62.62,0,0,0,.624-.616V72.136a.624.624,0,0,0-1.248,0V87.659A.62.62,0,0,0,305.529,88.274Z" transform="translate(-300.869 -67.455)" fill="#303053"/>
</svg>
