<svg xmlns="http://www.w3.org/2000/svg" width="31.178" height="27" viewBox="0 0 31.178 27">
  <path id="Trazado_1520" data-name="Trazado 1520" d="M425.829,416.351a.849.849,0,0,0,.1-.158c.005-.01.011-.019.016-.03a.83.83,0,0,0,.061-.2c0-.016,0-.032.005-.048a.822.822,0,0,0,0-.18c0-.013,0-.026,0-.039a.818.818,0,0,0-.06-.208.185.185,0,0,0-.02-.04.784.784,0,0,0-.045-.086l-5.57-8.579a.836.836,0,0,0-.335-.294.845.845,0,0,0-.369-.089H401.259a.862.862,0,0,0-.172.02.751.751,0,0,0-.111.035c-.017.006-.033.011-.049.018a.8.8,0,0,0-.114.062l-.03.02a.829.829,0,0,0-.112.092,1.053,1.053,0,0,0-.087.092.657.657,0,0,0-.038.066l-5.57,8.557a.922.922,0,0,0-.046.089c0,.009-.011.016-.016.025a.933.933,0,0,0-.064.222c0,.013,0,.026,0,.038a.826.826,0,0,0,0,.181c0,.016,0,.032.005.047a.834.834,0,0,0,.061.2c0,.01.011.02.017.03a.817.817,0,0,0,.1.158c.006.008.009.017.016.025l14.646,16.6a.8.8,0,0,0,.56.394.849.849,0,0,0,.084.011c.027,0,.053.011.079.011a.857.857,0,0,0,.768-.44l14.625-16.582C425.819,416.368,425.823,416.359,425.829,416.351Zm-24.858-7.114,1.7,5.739h-5.434Zm14.846,7.424-5.385,13.578-5.386-13.578Zm-10.3-1.686,4.916-6.353,4.915,6.353Zm14.379-5.751,3.734,5.751h-5.436ZM416.724,414l-4.576-5.914h6.326Zm-8.011-5.914L404.137,414l-1.75-5.914Zm-5.492,8.579,4.635,11.686-10.308-11.686Zm9.785,11.686,4.635-11.686h5.673Z" transform="translate(-394.842 -406.397)" fill="#303053"/>
</svg>
