<?xml version="1.0" encoding="UTF-8"?>
<svg width="30px" height="31px" viewBox="0 0 30 31" version="1.1" xmlns="http://www.w3.org/2000/svg" xmlns:xlink="http://www.w3.org/1999/xlink">
    <title>img_pagar_credito</title>
    <g id="Page-1" stroke="none" stroke-width="1" fill="none" fill-rule="evenodd">
        <g id="img_pagar_credito" transform="translate(-0.001040, 0.003995)" fill="#FFFFFF" fill-rule="nonzero">
            <path d="M28.8710404,4.68100454 C26.2919782,2.74888059 22.9119326,2.24903851 19.8840404,3.35200454 C16.9151442,4.41543785 14.6836691,6.90567825 13.9510404,9.97300454 L12.9230404,10.3470045 L12.9230404,4.80900454 C12.9230404,4.42654735 12.6129976,4.11650454 12.2305404,4.11650454 C11.8480832,4.11650454 11.5380404,4.42654735 11.5380404,4.80900454 L11.5380404,7.74500454 L10.5930404,7.12700454 C10.5859155,4.72732049 9.36712124,2.49361667 7.35304044,1.18900454 C6.16629184,0.412143148 4.77844961,-0.00111616033 3.36004044,2.26413388e-06 C2.34608195,0.00124749453 1.34312839,0.210210334 0.413040436,0.614004537 C0.167383994,0.720409302 0.0063834003,0.960347081 0.00104043594,1.22800454 C-0.0408596591,3.67962435 1.18518262,5.9793515 3.24404044,7.31100454 C4.43065448,8.0882721 5.81852115,8.50188626 7.23704044,8.50100454 C8.20030394,8.49752543 9.15368705,8.30664503 10.0440404,7.93900454 L11.5390404,8.91600454 L11.5390404,12.9020045 C7.32904044,13.0180045 3.28104044,14.1910045 3.28104044,16.3340045 C3.28165386,16.4184149 3.28867403,16.5026569 3.30204044,16.5860045 C3.28859754,16.6386326 3.28154669,16.6926891 3.28104044,16.7470045 L3.28104044,20.0060045 C3.28098421,20.075875 3.28532613,20.1456796 3.29404044,20.2150045 C3.28568919,20.2571671 3.28133655,20.3000239 3.28104044,20.3430045 L3.28104044,23.6010045 C3.28098686,23.6708749 3.28532876,23.7406794 3.29404044,23.8100045 C3.28568329,23.8521662 3.28133059,23.8950235 3.28104044,23.9380045 L3.28104044,27.1960045 C3.28104044,29.4560045 7.78104044,30.6380045 12.2310404,30.6380045 C16.6810404,30.6380045 21.1810404,29.4560045 21.1810404,27.1960045 L21.1810404,23.9380045 C21.1807804,23.8950219 21.1764274,23.8521618 21.1680404,23.8100045 C21.1767839,23.7406824 21.1811259,23.6708759 21.1810404,23.6010045 L21.1810404,20.3390045 C21.1807743,20.2960223 21.1764214,20.2531627 21.1680404,20.2110045 C21.1767839,20.1416824 21.1811259,20.0718759 21.1810404,20.0020045 L21.1810404,16.7430045 C21.1805342,16.6886891 21.1734833,16.6346326 21.1600404,16.5820045 C21.1734068,16.4986569 21.180427,16.4144149 21.1810404,16.3300045 C21.1810404,14.1870045 17.1340404,13.0140045 12.9230404,12.8980045 L12.9230404,11.3860045 L14.2940404,10.8860045 C16.8577106,12.7504464 20.1809876,13.2171672 23.1590404,12.1310045 C26.1777603,11.0513888 28.431382,8.49836656 29.1280404,5.36900454 C29.185021,5.10909373 29.0844667,4.83990582 28.8710404,4.68100454 L28.8710404,4.68100454 Z M6.58904044,2.32500454 C7.93211542,3.19584318 8.85148417,4.58703618 9.12604044,6.16400454 L2.02604044,1.52000454 C2.46440659,1.41768274 2.91289537,1.36501801 3.36304044,1.3630039 C4.50899542,1.36247024 5.63018414,1.69646354 6.58904044,2.32400454 L6.58904044,2.32500454 Z M7.23704044,7.13100565 C6.08997959,7.13170968 4.96769083,6.79735174 4.00804044,6.16900454 C2.66496545,5.2981659 1.7455967,3.9069729 1.47104044,2.33000454 L8.57104044,6.97400454 C8.13362371,7.07582477 7.68614769,7.1281533 7.23704044,7.13000454 L7.23704044,7.13100565 Z M19.7970404,23.5980045 C19.7970404,24.2980045 17.1270404,25.6740045 12.2310404,25.6740045 C7.33504044,25.6740045 4.66504044,24.3030045 4.66504044,23.5980045 L4.66504044,21.9310045 C6.33804044,22.9310045 9.29604044,23.4460045 12.2310404,23.4460045 C15.1660404,23.4460045 18.1230404,22.9310045 19.7970404,21.9310045 L19.7970404,23.5980045 Z M19.7970404,19.9980045 C19.7970404,20.6980045 17.1270404,22.0740045 12.2310404,22.0740045 C7.33504044,22.0740045 4.66504044,20.7030045 4.66504044,19.9980045 L4.66504044,18.2540045 C6.33804044,19.2540045 9.29604044,19.7690045 12.2310404,19.7690045 C15.1660404,19.7690045 18.1230404,19.2540045 19.7970404,18.2540045 L19.7970404,19.9980045 Z M12.2310404,29.2640045 C7.33104044,29.2640045 4.66504044,27.8930045 4.66504044,27.1880045 L4.66504044,25.5210045 C6.33804044,26.5210045 9.29604044,27.0360045 12.2310404,27.0360045 C15.1660404,27.0360045 18.1230404,26.5210045 19.7970404,25.5210045 L19.7970404,27.1880045 C19.7970404,27.8970045 17.1270404,29.2680045 12.2310404,29.2680045 L12.2310404,29.2640045 Z M19.7970404,16.3260045 C19.7970404,17.0260045 17.1270404,18.4020045 12.2310404,18.4020045 C7.33504044,18.4020045 4.66504044,17.0310045 4.66504044,16.3260045 C4.66504044,15.6550045 7.08704044,14.3840045 11.5380404,14.2620045 L11.5380404,15.7620045 C11.5380404,16.1444617 11.8480832,16.4545045 12.2305404,16.4545045 C12.6129976,16.4545045 12.9230404,16.1444617 12.9230404,15.7620045 L12.9230404,14.2620045 C17.3770404,14.3880045 19.7970404,15.6600045 19.7970404,16.3300045 L19.7970404,16.3260045 Z M20.3630404,4.62600454 C22.5933532,3.83256195 25.0568304,4.03354325 27.1290404,5.17800454 L21.3530404,7.27800454 L19.9070404,7.80300454 L20.8290404,5.83300454 C20.8837455,5.71509863 20.8889417,5.58019271 20.8434679,5.45842824 C20.7979941,5.33666377 20.7056402,5.23818857 20.5870404,5.18500454 C20.3397449,5.07353798 20.0486756,5.17958304 19.9310404,5.42400454 L18.5950404,8.27900454 L15.5720404,9.37900454 C16.3891723,7.16692771 18.1431833,5.42975751 20.3630404,4.63400454 L20.3630404,4.62600454 Z M22.6820404,10.8430045 C20.4516935,11.6361855 17.9883266,11.4352132 15.9160404,10.2910045 L21.5010404,8.26200454 L24.0770404,9.43600454 C24.3240701,9.5476097 24.6150405,9.44204424 24.7330404,9.19800454 C24.7877455,9.08009863 24.7929417,8.94519271 24.7474679,8.82342824 C24.7019941,8.70166377 24.6096402,8.60318857 24.4910404,8.55000454 L22.8130404,7.78500454 L27.4730404,6.09200454 C26.6581629,8.31039415 24.9016744,10.0533318 22.6770404,10.8510045 L22.6820404,10.8430045 Z" id="Trazado_1420"></path>
        </g>
    </g>
</svg>