<svg xmlns="http://www.w3.org/2000/svg" width="36.336" height="24.24" viewBox="0 0 36.336 24.24">
  <path id="path13846-5" d="M2342.517,1020.46a14.965,14.965,0,0,0-11.5,5.509,18.3,18.3,0,0,0-4.294,11.176l-2.046,1.578a.84.84,0,0,0-.275.954,3.632,3.632,0,0,0,.681.99,8.4,8.4,0,0,0,2.532,1.719c2.533,1.194,6.982,2.314,14.9,2.314s12.371-1.12,14.9-2.314a8.372,8.372,0,0,0,2.53-1.719,3.671,3.671,0,0,0,.684-.99.84.84,0,0,0-.277-.954l-2.048-1.578a18.3,18.3,0,0,0-4.29-11.176A14.968,14.968,0,0,0,2342.517,1020.46Zm-1.349,1.749.625,13.217c.015.316.036.578.065.783a1.913,1.913,0,0,0,.059.286.69.69,0,0,0,.077.184.575.575,0,0,0,.134.161.6.6,0,0,0,.777,0,.58.58,0,0,0,.134-.161.707.707,0,0,0,.077-.184,1.944,1.944,0,0,0,.059-.286c.029-.206.051-.468.066-.783l.625-13.217a12.661,12.661,0,0,1,4.6,1.379l-.136,1.138-.99,8.1a3.887,3.887,0,0,0-.036.484.976.976,0,0,0,.007.189.488.488,0,0,0,.036.123.362.362,0,0,0,.281.227.349.349,0,0,0,.343-.118.42.42,0,0,0,.079-.1.837.837,0,0,0,.066-.172,4.28,4.28,0,0,0,.134-.47l1.846-7.951.088-.381a14.853,14.853,0,0,1,2.557,2.4,16.69,16.69,0,0,1,3.911,10.521.839.839,0,0,0,.329.667l1.708,1.315a6.841,6.841,0,0,1-1.985,1.308c-2.211,1.042-6.424,2.157-14.185,2.157s-11.974-1.115-14.184-2.157a6.817,6.817,0,0,1-1.983-1.308l1.708-1.315a.841.841,0,0,0,.325-.667,16.693,16.693,0,0,1,3.913-10.521,14.848,14.848,0,0,1,2.562-2.4l.091.386,1.839,7.951a4.28,4.28,0,0,0,.134.47.83.83,0,0,0,.068.172.41.41,0,0,0,.08.1.374.374,0,0,0,.625-.109.506.506,0,0,0,.036-.123.975.975,0,0,0,0-.189,3.928,3.928,0,0,0-.036-.484l-.99-8.1-.136-1.14a12.665,12.665,0,0,1,4.6-1.376Z" transform="translate(-2324.35 -1020.46)" fill="#FFFFFF"/>
</svg>
