<svg xmlns="http://www.w3.org/2000/svg" width="20.613" height="32.758" viewBox="0 0 20.613 32.758">
  <g id="Grupo_506" data-name="Grupo 506" transform="translate(0.335 0.345)">
    <g id="Grupo_286" data-name="Grupo 286" transform="translate(0.179 0.109)">
      <path id="Trazado_1402" data-name="Trazado 1402" d="M234,166.023v-2.006s2.032-1.5,2.032-3.343V158" transform="translate(-222.781 -138.315)" fill="none" stroke="#303053" stroke-miterlimit="10" stroke-width="1.5"/>
      <path id="Trazado_1403" data-name="Trazado 1403" d="M223.742,146l-3.387,2.674A3.035,3.035,0,0,0,219,151.348v10.7" transform="translate(-217.943 -134.338)" fill="none" stroke="#303053" stroke-miterlimit="10" stroke-width="1.5"/>
      <rect id="Rectángulo_301" data-name="Rectángulo 301" width="12" height="4" transform="translate(0.235 27.555)" fill="none" stroke="#303053" stroke-miterlimit="10" stroke-width="1.5"/>
      <path id="Trazado_1404" data-name="Trazado 1404" d="M223,154.208l5.42-5.348c1.248-1.231,3.187,1.836,1.7,3.67l-1.7,1.678v2.006a2.511,2.511,0,0,1-2.71,2.674" transform="translate(-219.233 -135.192)" fill="none" stroke="#303053" stroke-miterlimit="10" stroke-width="1.5"/>
      <path id="Trazado_1405" data-name="Trazado 1405" d="M226,145.045V130.337A1.346,1.346,0,0,1,227.355,129h10.839a1.346,1.346,0,0,1,1.355,1.337v16.714a1.346,1.346,0,0,1-1.355,1.337h-8.807" transform="translate(-220.201 -128.704)" fill="none" stroke="#303053" stroke-miterlimit="10" stroke-width="1.5"/>
      <line id="Línea_1" data-name="Línea 1" y2="20" transform="translate(15.235 -0.445)" fill="none" stroke="#303053" stroke-miterlimit="10" stroke-width="1.5"/>
    </g>
  </g>
</svg>
