<svg xmlns="http://www.w3.org/2000/svg" width="29.144" height="30.639" viewBox="0 0 29.144 30.639">
  <path id="Trazado_1420" data-name="Trazado 1420" d="M316.494,170.272a9.542,9.542,0,0,0-8.987-1.329,9.337,9.337,0,0,0-5.933,6.621l-1.028.374V170.4a.692.692,0,0,0-1.385,0v2.936l-.945-.618a7.1,7.1,0,0,0-3.24-5.938,7.28,7.28,0,0,0-3.993-1.189,7.423,7.423,0,0,0-2.947.614.684.684,0,0,0-.412.614,7.1,7.1,0,0,0,3.243,6.083,7.279,7.279,0,0,0,3.993,1.19,7.425,7.425,0,0,0,2.807-.562l1.495.977v3.986c-4.21.116-8.258,1.289-8.258,3.432a1.668,1.668,0,0,0,.021.252.676.676,0,0,0-.021.161v3.259a1.665,1.665,0,0,0,.013.209.683.683,0,0,0-.013.128v3.258a1.666,1.666,0,0,0,.013.209.682.682,0,0,0-.013.128v3.258c0,2.26,4.5,3.442,8.95,3.442s8.95-1.182,8.95-3.442v-3.258a.677.677,0,0,0-.013-.128,1.654,1.654,0,0,0,.013-.209V185.93a.678.678,0,0,0-.013-.128,1.654,1.654,0,0,0,.013-.209v-3.259a.676.676,0,0,0-.021-.161,1.668,1.668,0,0,0,.021-.252c0-2.143-4.047-3.316-8.258-3.432v-1.512l1.371-.5a9.524,9.524,0,0,0,8.865,1.245,9.336,9.336,0,0,0,5.969-6.762A.677.677,0,0,0,316.494,170.272Zm-22.282-2.356a5.751,5.751,0,0,1,2.537,3.839l-7.1-4.644a6,6,0,0,1,1.337-.157A5.886,5.886,0,0,1,294.212,167.915Zm.648,4.806a5.888,5.888,0,0,1-3.229-.962,5.751,5.751,0,0,1-2.537-3.839l7.1,4.644A5.993,5.993,0,0,1,294.86,172.721Zm12.56,16.467c0,.7-2.67,2.076-7.566,2.076s-7.566-1.371-7.566-2.076v-1.667c1.673,1,4.631,1.515,7.566,1.515s5.892-.515,7.566-1.515Zm0-3.6c0,.7-2.67,2.076-7.566,2.076s-7.566-1.371-7.566-2.076v-1.744c1.673,1,4.631,1.515,7.566,1.515s5.892-.515,7.566-1.515Zm-7.566,9.266c-4.9,0-7.566-1.371-7.566-2.076v-1.667c1.673,1,4.631,1.515,7.566,1.515s5.892-.515,7.566-1.515v1.667C307.42,193.488,304.75,194.859,299.854,194.859Zm7.566-12.938c0,.7-2.67,2.076-7.566,2.076s-7.566-1.371-7.566-2.076c0-.671,2.422-1.942,6.873-2.064v1.5a.692.692,0,0,0,1.385,0v-1.5C305,179.979,307.42,181.251,307.42,181.921Zm.566-11.7a8.265,8.265,0,0,1,6.766.552l-5.776,2.1-1.446.525.922-1.97a.486.486,0,0,0-.242-.648.5.5,0,0,0-.656.239l-1.336,2.855-3.023,1.1A7.977,7.977,0,0,1,307.986,170.225Zm2.319,6.217a8.267,8.267,0,0,1-6.766-.552l5.585-2.029,2.576,1.174a.5.5,0,0,0,.656-.238.486.486,0,0,0-.242-.648l-1.678-.765,4.66-1.693A7.978,7.978,0,0,1,310.3,176.442Z" transform="translate(-287.624 -165.587)" fill="#303053"/>
</svg>
