<svg xmlns="http://www.w3.org/2000/svg" xmlns:xlink="http://www.w3.org/1999/xlink" width="327.925" height="319.479" viewBox="0 0 327.925 319.479">
  <defs>
    <linearGradient id="linear-gradient" y1="0.5" x2="1" y2="0.5" gradientUnits="objectBoundingBox">
      <stop offset="0" stop-color="#fc7318"/>
      <stop offset="1" stop-color="#feb423"/>
    </linearGradient>
    <linearGradient id="linear-gradient-3" y1="0.5" x2="1" y2="0.5" gradientUnits="objectBoundingBox">
      <stop offset="0" stop-color="#6c98e3"/>
      <stop offset="0.171" stop-color="#5479cc"/>
      <stop offset="0.355" stop-color="#4061b9"/>
      <stop offset="0.549" stop-color="#324fac"/>
      <stop offset="0.756" stop-color="#2a45a4"/>
      <stop offset="1" stop-color="#2842a2"/>
    </linearGradient>
    <linearGradient id="linear-gradient-4" y1="0.5" x2="1" y2="0.5" gradientUnits="objectBoundingBox">
      <stop offset="0" stop-color="#111c3a"/>
      <stop offset="0.258" stop-color="#1c2e61"/>
      <stop offset="0.591" stop-color="#29448d"/>
      <stop offset="0.85" stop-color="#3152a9"/>
      <stop offset="1" stop-color="#3457b4"/>
    </linearGradient>
    <linearGradient id="linear-gradient-6" y1="0.5" x2="1" y2="0.5" gradientUnits="objectBoundingBox">
      <stop offset="0" stop-color="#e3edfe"/>
      <stop offset="1" stop-color="#b3cdfa"/>
    </linearGradient>
    <clipPath id="clip-path">
      <path id="Trazado_8206" data-name="Trazado 8206" d="M655.336,1817.079a2.771,2.771,0,0,0,2.211,1.295c.911.083,1.8.306,2.7.479,2.913.56,5.687,1.727,8.6,2.225a29.641,29.641,0,0,0,7.988.182,18.589,18.589,0,0,0,2.487-.3,3.051,3.051,0,0,0,2.378-3.867c-.477-1.7-2.583-2.436-4.039-2.821-1.586-.42-3.233-.445-4.816-.87a15.22,15.22,0,0,1-3.945-1.715c-1.29-.782-2.564-1.594-3.849-2.385a4.73,4.73,0,0,0-2.609-1.049c-.77.038-1.545.16-2.311.24l-3.173.329c-.506.053-1.14.065-1.7.108C654.689,1811.346,654.176,1814.763,655.336,1817.079Z" transform="translate(-654.639 -1808.247)" fill="#fff"/>
    </clipPath>
    <clipPath id="clip-path-2">
      <path id="Trazado_8212" data-name="Trazado 8212" d="M273.688,1752.581a2.951,2.951,0,0,0,.918,2.456c.653.664,1.208,1.424,1.8,2.149,1.91,2.349,3.343,5.078,5.292,7.381a31.093,31.093,0,0,0,6.065,5.4,19.194,19.194,0,0,0,2.108,1.4,2.894,2.894,0,0,0,4.2-1.425c.669-1.628-.509-3.583-1.4-4.84-.97-1.369-2.228-2.472-3.193-3.843a16.331,16.331,0,0,1-2-3.922c-.52-1.454-1.009-2.92-1.519-4.377a5.064,5.064,0,0,0-1.377-2.528c-.619-.477-1.292-.893-1.934-1.336l-2.654-1.834c-.424-.292-.921-.7-1.383-1.037C276.691,1747.722,274.207,1750.027,273.688,1752.581Z" transform="translate(-273.674 -1746.227)" fill="#fff"/>
    </clipPath>
    <linearGradient id="linear-gradient-16" y1="0.5" x2="1" y2="0.5" gradientUnits="objectBoundingBox">
      <stop offset="0" stop-color="#6c98e3"/>
      <stop offset="0.247" stop-color="#5e87d6"/>
      <stop offset="0.732" stop-color="#3c5cb6"/>
      <stop offset="1" stop-color="#2842a2"/>
    </linearGradient>
    <clipPath id="clip-path-3">
      <path id="Trazado_8219" data-name="Trazado 8219" d="M263.488,748.74c-.984-1.4-1.5-3.819,1.452-6.023a17.572,17.572,0,0,1,4.146-2.58s2.747-3.172,6.477,4.2,13.834,24.891,17.773,20.428,13.988.3,21.348-.985,24.667.92,31.093-1.982,40.941,1.1,51.106-2.057,12.443-3.738,12.831.905-1.868,6.467-8.53,9.29-12.238,6.681-16.933,8.628-4.257.837-11.578.9-5.3,1.978-12.294,3.575-6.782.222-9.062.545c-1.038,5.216-8.35,29.147-7.937,37.483s3.106,14.521-.781,15.112-15.288.373-19.9-1.51a70.705,70.705,0,0,0-15.57-3.936c-5.52-.856-10.34-.05-9.3-4.353s6.224-26.727,7.52-29.362,3.707-16.776-12.012-14.47c-3.532.518-16.121-9.435-18.608-14.652S263.488,748.74,263.488,748.74Z" transform="translate(-262.716 -739.457)" fill="#c0d5ed"/>
    </clipPath>
    <clipPath id="clip-path-4">
      <path id="Trazado_8222" data-name="Trazado 8222" d="M626.509,822.3h0a5.189,5.189,0,0,0,6.306-3.925l3.473-14.4-10.088-2.62-3.473,14.405A5.413,5.413,0,0,0,626.509,822.3Z" transform="translate(-622.571 -801.347)" fill="#ffcebd"/>
    </clipPath>
    <clipPath id="clip-path-5">
      <path id="Trazado_8233" data-name="Trazado 8233" d="M1816.142,1427.389a2.859,2.859,0,0,1,2.246,1.333c.538.771,1.188,1.458,1.8,2.174,1.974,2.321,4.4,4.22,6.322,6.573a31.624,31.624,0,0,1,4.25,7.035,19.794,19.794,0,0,1,1.015,2.368,3.024,3.024,0,0,1-2.1,4.031c-1.705.414-3.418-1.1-4.5-2.209-1.174-1.208-2.04-2.663-3.217-3.866a15.969,15.969,0,0,0-3.5-2.671c-1.334-.765-2.684-1.5-4.023-2.255a4.971,4.971,0,0,1-2.239-1.809c-.361-.706-.654-1.457-.979-2.18l-1.344-2.993c-.214-.478-.528-1.049-.78-1.572C1810.882,1429.644,1813.557,1427.5,1816.142,1427.389Z" transform="translate(-1809.096 -1427.389)" fill="url(#linear-gradient)"/>
    </clipPath>
    <clipPath id="clip-path-6">
      <path id="Trazado_8239" data-name="Trazado 8239" d="M1260.145,1803.385a2.858,2.858,0,0,1-2.193,1.417c-.93.138-1.835.414-2.747.641-2.958.733-5.738,2.059-8.7,2.732a31.625,31.625,0,0,1-8.192.672,19.794,19.794,0,0,1-2.572-.146,3.024,3.024,0,0,1-2.671-3.68c.389-1.711,2.508-2.57,3.98-3.04,1.6-.513,3.294-.64,4.894-1.158a15.972,15.972,0,0,0,3.949-1.94c1.279-.854,2.539-1.735,3.811-2.6a4.968,4.968,0,0,1,2.617-1.2c.793-.009,1.6.063,2.388.095l3.278.13c.523.021,1.174-.006,1.755,0C1260.469,1797.672,1261.2,1801.022,1260.145,1803.385Z" transform="translate(-1232.983 -1795.086)" fill="url(#linear-gradient)"/>
    </clipPath>
    <clipPath id="clip-path-7">
      <path id="Trazado_8243" data-name="Trazado 8243" d="M1290.851,754.91s-6.4,35.032-.712,34.984c9.142-.077,31.113-.275,36.263-.608,6.613-.427,3.434-14.255,3-21.5s-.671-11.19-.671-11.19.162-4.634,7.658-8.167c5.912-2.786,10.51-8.338,14.222-12.524s11.48-17.865,13.7-21.3-.294-8.57-2.361-9.988-4.858-3.892-8.338.5-16.4,16.618-19.611,18.133-9.283,6.282-13.071,7.611-11.415,2.667-14.465-.453-19.369-25.923-20.649-28.709-3.351-7.947-6.949-5.529-9.869,4.336-7.2,12.1,5.534,7.816,5.784,11.984-.105,9.255,3.954,14.517S1293.158,747.285,1290.851,754.91Z" transform="translate(-1271.017 -695.547)" fill="url(#linear-gradient-3)"/>
    </clipPath>
    <linearGradient id="linear-gradient-23" x1="0.115" y1="0.5" x2="0.885" y2="0.5" xlink:href="#linear-gradient"/>
    <clipPath id="clip-path-8">
      <path id="Trazado_8246" data-name="Trazado 8246" d="M1498.47,815.293l4.057-20.257-13.077,9.834-1.659,8.284a4.488,4.488,0,0,0,3.519,5.283l1.877.376a4.488,4.488,0,0,0,5.282-3.52Z" transform="translate(-1487.703 -795.036)" fill="#ffcebd"/>
    </clipPath>
    <clipPath id="clip-path-9">
      <path id="Trazado_8256" data-name="Trazado 8256" d="M924.279,1720.409c-.776-1.272-.95-3.957-.529-6.406.379-2.2,1.1-8.323,1.639-11.006.208-1.036-2.6-1.474-4.553-1.253a29.891,29.891,0,0,1-3.068.027,1.429,1.429,0,0,0-1.475,1.367s0,9.6-.451,12.763a58.715,58.715,0,0,1-1.259,6.2c-.981,2.989-1.693,7.316-1.269,9.491.724,3.709,5.406,2.7,7.513.947C924.623,1729.384,925.4,1722.246,924.279,1720.409Z" transform="translate(-913.189 -1701.688)" fill="url(#linear-gradient-4)"/>
    </clipPath>
    <clipPath id="clip-path-10">
      <path id="Trazado_8262" data-name="Trazado 8262" d="M1120.418,1720.409c.776-1.272.95-3.957.528-6.406-.379-2.2-1.1-8.323-1.639-11.006-.208-1.036,2.6-1.474,4.553-1.253a29.892,29.892,0,0,0,3.068.027,1.429,1.429,0,0,1,1.475,1.367s-.005,9.6.451,12.763a58.715,58.715,0,0,0,1.259,6.2c.981,2.989,1.693,7.316,1.269,9.491-.724,3.709-5.406,2.7-7.513.947C1120.074,1729.384,1119.3,1722.246,1120.418,1720.409Z" transform="translate(-1119.297 -1701.688)" fill="url(#linear-gradient-4)"/>
    </clipPath>
    <clipPath id="clip-path-11">
      <path id="Trazado_8265" data-name="Trazado 8265" d="M940.345,1282.913c2.891-18.5,4.425-65.826,4.11-73.33-.693-16.506-3.436-29.814-5.366-34.662a382.486,382.486,0,0,1-40.124-.352c-1.417,2.953-9.724,51.7-8.925,68.106.671,13.785,4.655,30.411,6.014,40.419.913.686,7.832,1.038,8.417-.411,1.106-2.742,1.587-16.105,5.9-39.366,1.677-9.032,6.5-29.947,8.859-29.5s2.242,22.262,3.919,31.294c4.317,23.261,8.77,38.432,10.2,38.432C938.426,1283.546,940.334,1282.982,940.345,1282.913Z" transform="translate(-889.985 -1174.569)" fill="url(#linear-gradient-6)"/>
    </clipPath>
    <clipPath id="clip-path-12">
      <path id="Trazado_8285" data-name="Trazado 8285" d="M907.044,565.973c-2.374-.439-4.688-1.317-6.235.773-1.833,2.477-2.935,5.83-4.174,8.6-3.5,7.806-5.077,16.358-8.893,23.991-2.682,5.363-10.154,12.9-16.877,14.644-6.146,1.6-12.667-4.958-16.82-8.1-3.039-2.3-4.934-6.6-6.485-9.921-1.042-2.23-4.169-13.942-5.454-17.483-1.376-3.792-2.522-7.752-4.155-11.45a4.506,4.506,0,0,0-6.223-2.4c-2,.89-1.744,2.688-1.874,4.436-.512,6.854,1.148,13.346,1.931,20.058,1.081,9.255,2.453,17.628,6.877,25.972,4.335,8.178,2.82,12.188,3.8,21.252.911,8.41,6.517,9.5,5.568,17.95-.422,3.759-1.951,6.76-1.586,10.536.216,2.239-4.583,6.915-2.252,8.234,1.995,1.129,9.087.955,11.315,1.061,4.987.237,9.979.421,14.973.513,5.189.1,10.421.169,15.6-.234,1.493-.116,6.891,1.157,8.873-1.38,1.542-1.973-4.17-6.4-3.906-8.487.656-5.173,2.367-5.249,2.478-10.438.161-7.516-1.989-5.824-.793-13.268.741-4.613,3-9.36,1.189-13.679-2.888-6.9,1.848-8.086,4.319-12.524,3.565-6.4,3.574-13.015,5.623-19.9,1.7-5.725,5.038-11.157,5.409-17.193C909.42,575.085,910.734,566.655,907.044,565.973Z" transform="translate(-829.757 -564.158)" fill="url(#linear-gradient-3)"/>
    </clipPath>
    <clipPath id="clip-path-13">
      <path id="Trazado_8291" data-name="Trazado 8291" d="M1011.9,783.629l1.481-13.3h10.651l1.994,13.3a5.776,5.776,0,0,1-5.822,5.73h-2.483a5.776,5.776,0,0,1-5.822-5.73Z" transform="translate(-1011.895 -770.334)" fill="#ffcebd"/>
    </clipPath>
  </defs>
  <g id="Grupo_3136" data-name="Grupo 3136" transform="translate(-112.942 -89.02)">
    <g id="Capa_2" data-name="Capa 2" transform="translate(112.942 89.02)">
      <g id="Grupo_3049" data-name="Grupo 3049" transform="translate(305.444 197.997)">
        <path id="Trazado_8162" data-name="Trazado 8162" d="M1837.11,1209.21c1.175,0,1.8-1.173,2.1-2.154.35-1.144-.878-1.761-1.853-1.758a2.683,2.683,0,0,0-2.249,1.968.935.935,0,0,0,.36,1.3A3.871,3.871,0,0,0,1837.11,1209.21Z" transform="translate(-1834.987 -1205.298)" fill="#82dfe8"/>
        <path id="Trazado_8163" data-name="Trazado 8163" d="M1850.4,1251.5a2.115,2.115,0,0,0-1.354.412,5.965,5.965,0,0,0-.877,1.264,1.366,1.366,0,0,0-.178,1.331c.189.451.817.408,1.212.47a2.223,2.223,0,0,0,1.588-.255,2.751,2.751,0,0,0,.89-1.18,1.716,1.716,0,0,0,.067-1.405A1.413,1.413,0,0,0,1850.4,1251.5Z" transform="translate(-1845.595 -1243.286)" fill="#82dfe8"/>
        <path id="Trazado_8164" data-name="Trazado 8164" d="M1944.219,1259.376c-.06-.575-.088-.858-.655-1.106a2.926,2.926,0,0,0-1.5-.189,1.875,1.875,0,0,0-1.271.64,1.18,1.18,0,0,0-.263,1.265,2.569,2.569,0,0,0,2.229,1.354A1.743,1.743,0,0,0,1944.219,1259.376Z" transform="translate(-1921.739 -1248.697)" fill="#82dfe8"/>
        <path id="Trazado_8165" data-name="Trazado 8165" d="M1882,1208.954c-.123,1.115.876,1.561,1.854,1.344.763-.17,2.155-.4,1.8-1.548-.142-.465-.622-.772-.921-1.128a1.216,1.216,0,0,0-1.066-.553,1.93,1.93,0,0,0-1.247.594A1.994,1.994,0,0,0,1882,1208.954Z" transform="translate(-1873.652 -1206.752)" fill="#82dfe8"/>
        <path id="Trazado_8166" data-name="Trazado 8166" d="M1890.766,1277.368a1.809,1.809,0,0,0-1.177.724,1.208,1.208,0,0,0-.318,1.245,1.6,1.6,0,0,0,2.011.974,1.484,1.484,0,0,0,1.356-1.607c-.046-.44-.439-.707-.765-.961A1.71,1.71,0,0,0,1890.766,1277.368Z" transform="translate(-1879.591 -1264.585)" fill="#82dfe8"/>
        <path id="Trazado_8167" data-name="Trazado 8167" d="M1923.94,1208.475a1.491,1.491,0,0,0-1.493,1.181c-.184.814.644,1.391,1.348,1.566a1.2,1.2,0,0,0,1.457-1.2A1.355,1.355,0,0,0,1923.94,1208.475Z" transform="translate(-1906.913 -1207.911)" fill="#82dfe8"/>
        <path id="Trazado_8168" data-name="Trazado 8168" d="M1888.184,1246.879c.119-.623.417-1.038-.149-1.6a1.071,1.071,0,0,0-1.586-.058,1.243,1.243,0,0,0-.127,1.584.967.967,0,0,0,.739.413C1887.351,1247.264,1888.122,1247.208,1888.184,1246.879Z" transform="translate(-1877.033 -1237.877)" fill="#82dfe8"/>
        <path id="Trazado_8169" data-name="Trazado 8169" d="M1908.9,1241.413a1.729,1.729,0,0,0-.3,1.067,1.16,1.16,0,0,0,.458.673,1.511,1.511,0,0,0,1.6-.08c.263-.18.473-.361.381-.748a1.445,1.445,0,0,0-.453-.729C1910.077,1241.142,1909.338,1240.86,1908.9,1241.413Z" transform="translate(-1895.536 -1234.756)" fill="#82dfe8"/>
      </g>
      <g id="Grupo_3050" data-name="Grupo 3050" transform="translate(8.681 159.3)">
        <path id="Trazado_8170" data-name="Trazado 8170" d="M164.008,991.039c1.174,0,1.8-1.173,2.1-2.154.35-1.144-.878-1.761-1.853-1.758A2.683,2.683,0,0,0,162,989.1a.935.935,0,0,0,.36,1.3A3.871,3.871,0,0,0,164.008,991.039Z" transform="translate(-161.885 -987.127)" fill="#82dfe8"/>
        <path id="Trazado_8171" data-name="Trazado 8171" d="M177.293,1033.325a2.114,2.114,0,0,0-1.353.412,5.972,5.972,0,0,0-.877,1.264,1.365,1.365,0,0,0-.178,1.331c.189.451.817.408,1.212.47a2.223,2.223,0,0,0,1.587-.255,2.753,2.753,0,0,0,.891-1.18,1.717,1.717,0,0,0,.067-1.4A1.413,1.413,0,0,0,177.293,1033.325Z" transform="translate(-172.492 -1025.115)" fill="#82dfe8"/>
        <path id="Trazado_8172" data-name="Trazado 8172" d="M271.117,1041.206c-.06-.575-.088-.858-.655-1.106a2.928,2.928,0,0,0-1.5-.189,1.874,1.874,0,0,0-1.271.64,1.18,1.18,0,0,0-.262,1.265,2.568,2.568,0,0,0,2.229,1.354A1.743,1.743,0,0,0,271.117,1041.206Z" transform="translate(-248.637 -1030.526)" fill="#82dfe8"/>
        <path id="Trazado_8173" data-name="Trazado 8173" d="M208.9,990.783c-.123,1.115.876,1.561,1.854,1.344.764-.17,2.155-.4,1.8-1.548-.142-.465-.622-.772-.921-1.128a1.216,1.216,0,0,0-1.066-.553,1.931,1.931,0,0,0-1.247.594A1.994,1.994,0,0,0,208.9,990.783Z" transform="translate(-200.55 -988.581)" fill="#82dfe8"/>
        <path id="Trazado_8174" data-name="Trazado 8174" d="M217.664,1059.2a1.809,1.809,0,0,0-1.177.724,1.208,1.208,0,0,0-.318,1.245,1.6,1.6,0,0,0,2.01.974,1.484,1.484,0,0,0,1.357-1.607c-.046-.44-.439-.707-.765-.961A1.709,1.709,0,0,0,217.664,1059.2Z" transform="translate(-206.489 -1046.414)" fill="#82dfe8"/>
        <path id="Trazado_8175" data-name="Trazado 8175" d="M250.837,990.3a1.491,1.491,0,0,0-1.493,1.181c-.183.814.644,1.391,1.348,1.566a1.2,1.2,0,0,0,1.457-1.2A1.355,1.355,0,0,0,250.837,990.3Z" transform="translate(-233.81 -989.741)" fill="#82dfe8"/>
        <path id="Trazado_8176" data-name="Trazado 8176" d="M215.082,1028.708c.119-.623.418-1.038-.149-1.6a1.071,1.071,0,0,0-1.586-.058,1.243,1.243,0,0,0-.127,1.584.968.968,0,0,0,.739.413C214.248,1029.093,215.019,1029.037,215.082,1028.708Z" transform="translate(-203.931 -1019.706)" fill="#82dfe8"/>
        <path id="Trazado_8177" data-name="Trazado 8177" d="M235.8,1023.242a1.73,1.73,0,0,0-.3,1.066,1.16,1.16,0,0,0,.458.673,1.51,1.51,0,0,0,1.595-.08c.263-.18.473-.361.381-.748a1.446,1.446,0,0,0-.452-.729C236.975,1022.971,236.236,1022.689,235.8,1023.242Z" transform="translate(-222.434 -1016.585)" fill="#82dfe8"/>
      </g>
      <path id="Trazado_8178" data-name="Trazado 8178" d="M1691.89,1137.745l1.746-.859a.675.675,0,0,0,.308-.9l-.859-1.746a.675.675,0,0,1,.308-.9h0a.676.676,0,0,1,.9.308l.859,1.746a.675.675,0,0,0,.9.308l1.746-.859a.675.675,0,0,1,.9.308h0a.675.675,0,0,1-.308.9l-1.746.859a.675.675,0,0,0-.308.9l.858,1.746a.675.675,0,0,1-.308.9h0a.676.676,0,0,1-.9-.308l-.859-1.746a.675.675,0,0,0-.9-.308l-1.746.859a.676.676,0,0,1-.9-.308h0A.675.675,0,0,1,1691.89,1137.745Z" transform="translate(-1411.517 -948.042)" fill="#82dfe8"/>
      <path id="Trazado_8179" data-name="Trazado 8179" d="M1835.743,1683.655l-1.034-2.32a.882.882,0,0,0-1.164-.446l-2.32,1.034a.882.882,0,0,1-1.164-.446h0a.882.882,0,0,1,.446-1.165l2.32-1.034a.882.882,0,0,0,.446-1.165l-1.034-2.32a.882.882,0,0,1,.446-1.165h0a.882.882,0,0,1,1.164.447l1.034,2.32a.882.882,0,0,0,1.164.446l2.32-1.034a.882.882,0,0,1,1.165.446h0a.882.882,0,0,1-.446,1.165l-2.32,1.034a.882.882,0,0,0-.446,1.164l1.035,2.32a.882.882,0,0,1-.447,1.165h0A.882.882,0,0,1,1835.743,1683.655Z" transform="translate(-1525.427 -1393.322)" fill="#fd5266"/>
      <path id="Trazado_8180" data-name="Trazado 8180" d="M1395.227,432.072l-2.537.129a.882.882,0,0,0-.836.926l.129,2.537a.882.882,0,0,1-.836.926h0a.882.882,0,0,1-.926-.836l-.129-2.537a.882.882,0,0,0-.926-.836l-2.537.129a.882.882,0,0,1-.925-.836h0a.882.882,0,0,1,.836-.926l2.537-.129a.882.882,0,0,0,.836-.926l-.129-2.537a.882.882,0,0,1,.836-.925h0a.882.882,0,0,1,.926.836l.129,2.537a.882.882,0,0,0,.926.836l2.537-.129a.882.882,0,0,1,.926.836h0A.882.882,0,0,1,1395.227,432.072Z" transform="translate(-1159.95 -366.418)" fill="#82dfe8"/>
      <path id="Trazado_8181" data-name="Trazado 8181" d="M334.311,327.1l-1.783-1.809a.882.882,0,0,0-1.247-.009l-1.809,1.783a.882.882,0,0,1-1.247-.009h0a.882.882,0,0,1,.009-1.247l1.809-1.783a.882.882,0,0,0,.009-1.247l-1.783-1.809a.882.882,0,0,1,.009-1.247h0a.882.882,0,0,1,1.247.009l1.784,1.809a.882.882,0,0,0,1.247.009l1.809-1.783a.882.882,0,0,1,1.247.009h0a.882.882,0,0,1-.009,1.247l-1.809,1.783a.882.882,0,0,0-.009,1.247l1.784,1.809a.882.882,0,0,1-.009,1.247h0A.882.882,0,0,1,334.311,327.1Z" transform="translate(-289.83 -278.591)" fill="#fd5266"/>
      <path id="Trazado_8182" data-name="Trazado 8182" d="M1898.9,128.817l-.97-2.348a.882.882,0,0,0-1.152-.478l-2.348.97a.882.882,0,0,1-1.152-.478h0a.882.882,0,0,1,.478-1.152l2.348-.971a.882.882,0,0,0,.478-1.152l-.971-2.348a.882.882,0,0,1,.478-1.152h0a.882.882,0,0,1,1.152.478l.97,2.348a.882.882,0,0,0,1.152.478l2.348-.97a.882.882,0,0,1,1.152.478h0a.882.882,0,0,1-.478,1.152l-2.348.97a.882.882,0,0,0-.478,1.152l.97,2.348a.882.882,0,0,1-.478,1.152h0A.882.882,0,0,1,1898.9,128.817Z" transform="translate(-1577.441 -114.211)" fill="#fd5266"/>
      <path id="Trazado_8183" data-name="Trazado 8183" d="M245.174,1306.87l-2.022-1.538a.882.882,0,0,0-1.236.168l-1.538,2.022a.882.882,0,0,1-1.236.168h0a.882.882,0,0,1-.168-1.236l1.538-2.022a.882.882,0,0,0-.168-1.236l-2.022-1.538a.882.882,0,0,1-.168-1.236h0a.882.882,0,0,1,1.236-.168l2.022,1.538a.882.882,0,0,0,1.236-.168l1.538-2.022a.882.882,0,0,1,1.236-.168h0a.882.882,0,0,1,.168,1.236l-1.538,2.022a.882.882,0,0,0,.168,1.236l2.022,1.538a.882.882,0,0,1,.168,1.236h0A.882.882,0,0,1,245.174,1306.87Z" transform="translate(-215.798 -1084.592)" fill="#fd5266"/>
      <path id="Trazado_8184" data-name="Trazado 8184" d="M867.558,273.432l.429-2.259-2.259-.429-2.4-.456.886-4.661-2.259-.429h0l-2.4-.456.456-2.4.429-2.259-2.259-.429h0l-2.4-.456,1.342-7.063,2.4.456-.886,4.661,2.259.429,2.4.456-.886,4.661,2.259.429h0l2.4.456-.886,4.661,2.259.429,2.4.456-.886,4.661-.456,2.4-2.4-.456Z" transform="translate(-724.017 -223.2)" fill="#fd5266"/>
      <path id="Trazado_8185" data-name="Trazado 8185" d="M808.31,1172.468l.912-1.1-1.1-.912-1.17-.97,1.882-2.269-1.1-.912h0l-1.169-.97.97-1.169.912-1.1-1.1-.912h0l-1.17-.97,2.853-3.439,1.17.97-1.883,2.269,1.1.912,1.17.97-1.883,2.269,1.1.912h0l1.169.97-1.882,2.269,1.1.912,1.169.97-1.882,2.269-.97,1.17-1.169-.97Z" transform="translate(-683.218 -968.181)" fill="#fd5266"/>
      <path id="Trazado_8186" data-name="Trazado 8186" d="M1799.78,967.986l-2.265-.393-.393,2.265-.418,2.409-4.674-.811-.393,2.265h0l-.418,2.409-2.409-.418-2.265-.393-.393,2.265h0l-.418,2.409-7.084-1.23.418-2.409,4.675.812.393-2.265.418-2.409,4.674.811.393-2.265h0l.418-2.409,4.674.811.393-2.265.418-2.409,4.674.811,2.409.418-.418,2.409Z" transform="translate(-1483.197 -809.432)" fill="#fd5266"/>
      <g id="Grupo_3057" data-name="Grupo 3057" transform="translate(176.243 0)">
        <g id="Grupo_3051" data-name="Grupo 3051" transform="translate(8.997 13.713)">
          <path id="Trazado_8187" data-name="Trazado 8187" d="M1158.712,166.692l2.567,4.047c.493.777-.814,1.377-1.3.6l-2.567-4.047c-.493-.777.814-1.377,1.3-.6Z" transform="translate(-1157.299 -166.332)" fill="#82dfe8"/>
        </g>
        <g id="Grupo_3052" data-name="Grupo 3052">
          <path id="Trazado_8188" data-name="Trazado 8188" d="M1107.988,89.38l2.567,4.047c.493.777-.814,1.377-1.3.6l-2.567-4.047c-.493-.777.814-1.377,1.3-.6Z" transform="translate(-1106.575 -89.02)" fill="#82dfe8"/>
        </g>
        <g id="Grupo_3053" data-name="Grupo 3053" transform="translate(6.197 6.018)">
          <path id="Trazado_8189" data-name="Trazado 8189" d="M1142.893,123.274l2.78,4.029c.525.761-.73,1.46-1.252.7l-2.78-4.029c-.525-.761.73-1.46,1.252-.7Z" transform="translate(-1141.515 -122.949)" fill="#82dfe8"/>
        </g>
        <g id="Grupo_3054" data-name="Grupo 3054" transform="translate(3.21 8.914)">
          <path id="Trazado_8190" data-name="Trazado 8190" d="M1125.967,139.6l1.969,3.244c.478.787-.7,1.605-1.184.813l-1.969-3.244c-.478-.787.7-1.605,1.185-.813Z" transform="translate(-1124.671 -139.275)" fill="#82dfe8"/>
        </g>
        <g id="Grupo_3055" data-name="Grupo 3055" transform="translate(12.445 9.38)">
          <path id="Trazado_8191" data-name="Trazado 8191" d="M1178.036,142.223l1.969,3.244c.478.787-.7,1.605-1.184.813l-1.969-3.244c-.478-.787.7-1.605,1.184-.813Z" transform="translate(-1176.74 -141.9)" fill="#82dfe8"/>
        </g>
        <g id="Grupo_3056" data-name="Grupo 3056" transform="translate(6.468 0.492)">
          <path id="Trazado_8192" data-name="Trazado 8192" d="M1144.337,92.118l1.969,3.244c.478.787-.7,1.605-1.184.813l-1.969-3.244c-.478-.787.7-1.605,1.184-.813Z" transform="translate(-1143.041 -91.795)" fill="#82dfe8"/>
        </g>
      </g>
      <g id="Grupo_3064" data-name="Grupo 3064" transform="translate(304.6 66.094)">
        <g id="Grupo_3058" data-name="Grupo 3058" transform="translate(0 13.71)">
          <path id="Trazado_8193" data-name="Trazado 8193" d="M1834.133,540.177l-2.692,3.965c-.517.762-1.587-.2-1.073-.956l2.692-3.965c.517-.762,1.587.2,1.074.956Z" transform="translate(-1830.231 -538.943)" fill="#82dfe8"/>
        </g>
        <g id="Grupo_3059" data-name="Grupo 3059" transform="translate(9.002)">
          <path id="Trazado_8194" data-name="Trazado 8194" d="M1884.885,462.884l-2.692,3.965c-.517.762-1.587-.2-1.073-.956l2.692-3.965c.517-.762,1.587.2,1.073.956Z" transform="translate(-1880.984 -461.65)" fill="#82dfe8"/>
        </g>
        <g id="Grupo_3060" data-name="Grupo 3060" transform="translate(6.012 8.093)">
          <path id="Trazado_8195" data-name="Trazado 8195" d="M1867.979,508.45l-2.59,4.153c-.489.784-1.631-.089-1.145-.868l2.591-4.153c.489-.784,1.63.089,1.144.868Z" transform="translate(-1864.126 -507.274)" fill="#82dfe8"/>
        </g>
        <g id="Grupo_3061" data-name="Grupo 3061" transform="translate(2.446 6.53)">
          <path id="Trazado_8196" data-name="Trazado 8196" d="M1847.564,499.541l-2.193,3.1c-.532.752-1.753-.007-1.217-.763l2.193-3.1c.532-.752,1.753.007,1.217.763Z" transform="translate(-1844.021 -498.467)" fill="#82dfe8"/>
        </g>
        <g id="Grupo_3062" data-name="Grupo 3062" transform="translate(5.693 15.189)">
          <path id="Trazado_8197" data-name="Trazado 8197" d="M1865.869,548.357l-2.193,3.1c-.532.752-1.753-.007-1.217-.763l2.193-3.1c.532-.751,1.753.007,1.217.763Z" transform="translate(-1862.326 -547.284)" fill="#82dfe8"/>
        </g>
        <g id="Grupo_3063" data-name="Grupo 3063" transform="translate(11.469 6.17)">
          <path id="Trazado_8198" data-name="Trazado 8198" d="M1898.434,497.506l-2.193,3.1c-.532.752-1.753-.007-1.217-.763l2.193-3.1c.532-.752,1.753.007,1.217.763Z" transform="translate(-1894.891 -496.433)" fill="#82dfe8"/>
        </g>
      </g>
      <circle id="Elipse_587" data-name="Elipse 587" cx="2.646" cy="2.646" r="2.646" transform="translate(89.308 71.518) rotate(-45)" fill="#82dfe8"/>
      <circle id="Elipse_588" data-name="Elipse 588" cx="2.646" cy="2.646" r="2.646" transform="translate(0 66.29)" fill="#fd5266"/>
      <circle id="Elipse_589" data-name="Elipse 589" cx="2.646" cy="2.646" r="2.646" transform="translate(280.983 47.777)" fill="#fd5266"/>
      <circle id="Elipse_590" data-name="Elipse 590" cx="2.646" cy="2.646" r="2.646" transform="translate(3.932 278.134) rotate(-13.043)" fill="#82dfe8"/>
      <circle id="Elipse_591" data-name="Elipse 591" cx="2.646" cy="2.646" r="2.646" transform="translate(67.37 281.533) rotate(-67.282)" fill="#82dfe8"/>
      <circle id="Elipse_592" data-name="Elipse 592" cx="2.646" cy="2.646" r="2.646" transform="translate(270.464 291.642) rotate(-13.282)" fill="#82dfe8"/>
      <g id="Grupo_3065" data-name="Grupo 3065" transform="translate(234.837 10.291)">
        <circle id="Elipse_593" data-name="Elipse 593" cx="3.13" cy="3.13" r="3.13" transform="matrix(0.771, -0.637, 0.637, 0.771, 0, 14.163)" fill="#82dfe8"/>
        <path id="Trazado_8199" data-name="Trazado 8199" d="M1472.139,149.962a1.612,1.612,0,1,0-2.25-.369A1.612,1.612,0,0,0,1472.139,149.962Z" transform="translate(-1463.793 -147.041)" fill="#82dfe8"/>
        <circle id="Elipse_594" data-name="Elipse 594" cx="3.223" cy="3.223" r="3.223" transform="matrix(0.804, -0.595, 0.595, 0.804, 9.66, 7.59)" fill="#82dfe8"/>
      </g>
      <g id="Grupo_3066" data-name="Grupo 3066" transform="translate(120.553 250.04)">
        <circle id="Elipse_595" data-name="Elipse 595" cx="1.323" cy="1.323" r="1.323" transform="translate(2.801 5.288) rotate(-13.326)" fill="#fd5266"/>
        <circle id="Elipse_596" data-name="Elipse 596" cx="0.681" cy="0.681" r="0.681" transform="translate(0 1.362)" fill="#fd5266"/>
        <circle id="Elipse_597" data-name="Elipse 597" cx="1.362" cy="1.362" r="1.362" transform="translate(3.27)" fill="#fd5266"/>
      </g>
      <g id="Grupo_3067" data-name="Grupo 3067" transform="translate(204.281 169.779)">
        <circle id="Elipse_598" data-name="Elipse 598" cx="1.323" cy="1.323" r="1.323" transform="translate(3.071 4.948)" fill="#82dfe8"/>
        <circle id="Elipse_599" data-name="Elipse 599" cx="0.681" cy="0.681" r="0.681" transform="translate(0 1.362)" fill="#82dfe8"/>
        <circle id="Elipse_600" data-name="Elipse 600" cx="1.362" cy="1.362" r="1.362" transform="translate(3.27 0)" fill="#82dfe8"/>
      </g>
      <g id="Grupo_3068" data-name="Grupo 3068" transform="translate(75.021 1.894)">
        <circle id="Elipse_601" data-name="Elipse 601" cx="2.775" cy="2.775" r="2.775" transform="translate(9.414 5.504) rotate(-82.636)" fill="#82dfe8"/>
        <path id="Trazado_8200" data-name="Trazado 8200" d="M576.641,171.945a1.429,1.429,0,1,0,1.942.56A1.429,1.429,0,0,0,576.641,171.945Z" transform="translate(-568.807 -158.984)" fill="#82dfe8"/>
        <circle id="Elipse_602" data-name="Elipse 602" cx="2.858" cy="2.858" r="2.858" transform="translate(0 10.026) rotate(-81.055)" fill="#82dfe8"/>
      </g>
    </g>
    <g id="Capa_3" data-name="Capa 3" transform="translate(132.863 154.012)">
      <g id="Grupo_3083" data-name="Grupo 3083" transform="translate(0 36.533)">
        <g id="Grupo_3073" data-name="Grupo 3073" transform="translate(76.161 203.419)">
          <path id="Trazado_8201" data-name="Trazado 8201" d="M655.336,1817.079a2.771,2.771,0,0,0,2.211,1.295c.911.083,1.8.306,2.7.479,2.913.56,5.687,1.727,8.6,2.225a29.641,29.641,0,0,0,7.988.182,18.589,18.589,0,0,0,2.487-.3,3.051,3.051,0,0,0,2.378-3.867c-.477-1.7-2.583-2.436-4.039-2.821-1.586-.42-3.233-.445-4.816-.87a15.22,15.22,0,0,1-3.945-1.715c-1.29-.782-2.564-1.594-3.849-2.385a4.73,4.73,0,0,0-2.609-1.049c-.77.038-1.545.16-2.311.24l-3.173.329c-.506.053-1.14.065-1.7.108C654.689,1811.346,654.176,1814.763,655.336,1817.079Z" transform="translate(-654.639 -1808.247)" fill="#fff"/>
          <g id="Grupo_3072" data-name="Grupo 3072" clip-path="url(#clip-path)">
            <path id="Trazado_8202" data-name="Trazado 8202" d="M675.533,1835.547a7.5,7.5,0,0,0-2.418.886,2.71,2.71,0,0,0-1.307,2.173c0,.858.5,1.867-.281,2.422a1.229,1.229,0,0,1-.788.213c-6.472-.384-10.063-.868-19.088-2.822a.483.483,0,0,0-.524.683c1.595,3.52,4.847,7.514,8.13,8.893a28.651,28.651,0,0,0,11.309,1.828,61.586,61.586,0,0,0,11.779-1.207,5.637,5.637,0,0,0,3.673-1.832,4.854,4.854,0,0,0,.552-3.667,9.708,9.708,0,0,0-4.064-6.275,9.048,9.048,0,0,0-7.184-1.252Z" transform="translate(-651.712 -1830.521)" fill="url(#linear-gradient)"/>
            <g id="Grupo_3069" data-name="Grupo 3069" transform="translate(16.632 4.849)">
              <path id="Trazado_8203" data-name="Trazado 8203" d="M750.821,1835.656q-1.117,1.3-2.349,2.483c-.2.2.106.5.308.308q1.232-1.188,2.349-2.484c.182-.211-.125-.52-.308-.308Z" transform="translate(-748.406 -1835.584)" fill="url(#linear-gradient)"/>
            </g>
            <g id="Grupo_3070" data-name="Grupo 3070" transform="translate(15.106 4.146)">
              <path id="Trazado_8204" data-name="Trazado 8204" d="M742.325,1831.674a23.087,23.087,0,0,0-2.465,2.4c-.185.209.122.518.308.308a23.127,23.127,0,0,1,2.465-2.4c.215-.18-.094-.487-.308-.308Z" transform="translate(-739.802 -1831.62)" fill="url(#linear-gradient)"/>
            </g>
            <g id="Grupo_3071" data-name="Grupo 3071" transform="translate(12.742 3.302)">
              <path id="Trazado_8205" data-name="Trazado 8205" d="M729.567,1826.933q-1.553,1.756-3.036,3.572c-.176.215.13.525.308.308q1.482-1.816,3.036-3.572c.185-.209-.122-.518-.308-.308Z" transform="translate(-726.478 -1826.863)" fill="url(#linear-gradient)"/>
            </g>
          </g>
        </g>
        <g id="Grupo_3078" data-name="Grupo 3078" transform="translate(8.588 192.418)">
          <path id="Trazado_8207" data-name="Trazado 8207" d="M273.688,1752.581a2.951,2.951,0,0,0,.918,2.456c.653.664,1.208,1.424,1.8,2.149,1.91,2.349,3.343,5.078,5.292,7.381a31.093,31.093,0,0,0,6.065,5.4,19.194,19.194,0,0,0,2.108,1.4,2.894,2.894,0,0,0,4.2-1.425c.669-1.628-.509-3.583-1.4-4.84-.97-1.369-2.228-2.472-3.193-3.843a16.331,16.331,0,0,1-2-3.922c-.52-1.454-1.009-2.92-1.519-4.377a5.064,5.064,0,0,0-1.377-2.528c-.619-.477-1.292-.893-1.934-1.336l-2.654-1.834c-.424-.292-.921-.7-1.383-1.037C276.691,1747.722,274.207,1750.027,273.688,1752.581Z" transform="translate(-273.674 -1746.227)" fill="#fff"/>
          <g id="Grupo_3077" data-name="Grupo 3077" clip-path="url(#clip-path-2)">
            <path id="Trazado_8208" data-name="Trazado 8208" d="M287.356,1787.812a7.49,7.49,0,0,0-2.411-.906,2.544,2.544,0,0,0-2.338.82c-.521.666-.756,1.771-1.7,1.688a1.242,1.242,0,0,1-.739-.354,110.528,110.528,0,0,1-13.035-14.744.464.464,0,0,0-.822.183c-.917,3.771-.844,9,.852,12.227a30.412,30.412,0,0,0,7.628,8.856,63.726,63.726,0,0,0,9.846,6.818c1.224.687,2.61,1.351,3.96,1a4.593,4.593,0,0,0,2.668-2.472,10.016,10.016,0,0,0,.692-7.526,9.585,9.585,0,0,0-4.79-5.7Z" transform="translate(-267.137 -1769.183)" fill="url(#linear-gradient)"/>
            <g id="Grupo_3074" data-name="Grupo 3074" transform="translate(13.074 15.412)">
              <path id="Trazado_8209" data-name="Trazado 8209" d="M350.871,1833.122q-1.63.261-3.276.367c-.278.018-.28.453,0,.435q1.705-.111,3.392-.382c.276-.044.159-.464-.116-.42Z" transform="translate(-347.386 -1833.119)" fill="url(#linear-gradient)"/>
            </g>
            <g id="Grupo_3075" data-name="Grupo 3075" transform="translate(12.374 13.917)">
              <path id="Trazado_8210" data-name="Trazado 8210" d="M347.024,1824.687a22.863,22.863,0,0,0-3.429.24c-.276.04-.159.459.116.42a22.113,22.113,0,0,1,3.314-.224.218.218,0,0,0,0-.435Z" transform="translate(-343.437 -1824.686)" fill="url(#linear-gradient)"/>
            </g>
            <g id="Grupo_3076" data-name="Grupo 3076" transform="translate(10.332 12.099)">
              <path id="Trazado_8211" data-name="Trazado 8211" d="M336.612,1814.443q-2.273.336-4.53.764c-.275.052-.158.472.116.42q2.257-.429,4.53-.764c.276-.041.159-.46-.116-.42Z" transform="translate(-331.925 -1814.44)" fill="url(#linear-gradient)"/>
            </g>
          </g>
        </g>
        <path id="Trazado_8213" data-name="Trazado 8213" d="M291.6,1319.253c-2.778,5.1-4.7,9.535-1.923,11.752s8.333,7.761,10.042,3.1,1.068-11.531,6.41-14.857,5.342-12.2,7.478-16.409,7.906-11.087,9.615-14.635,3.2-13.526,6.837-16.631,5.769-5.987,6.2-7.761,4.487-2.218,4.487,2.217a43.214,43.214,0,0,0,2.991,13.97c1.282,2.883-.427,7.761,0,10.2s3.205,8.648,5.128,12.861-.641,7.1,0,12.639,3.205,16.48,3.846,20.214-3.846,7.726,0,7.5,15.811,0,14.53-5.765-4.273-14.413-2.778-19.07,1.5-11.309.641-17.074-2.778-15.522-1.5-19.07,5.533-9.535,3.728-15.078-6.719-14.477-5.651-17.66,4.06-8.727,2.564-11.61H319.586s-4.116,9.511-4.06,15.522c.027,2.883-2.328,12.929-3.855,15.211a54.78,54.78,0,0,0-7.256,16.942c-1.068,4.435-1.671,13.284-6.609,17.472C291.911,1308.243,291.6,1319.253,291.6,1319.253Z" transform="translate(-277.133 -1135.805)" fill="url(#linear-gradient-16)"/>
        <path id="Trazado_8214" data-name="Trazado 8214" d="M370.742,743.439c-.293-3.017-6.918-5.147-10.359-5.117-7.946.07-9.468-2.855-7.149-10.848,2.611-9-11.259-18.773,5.136-23.126,14.724-3.909,22.426-.439,25.32-6.957s11.072-15.987,24.084-12.708c-.7,7.869-3.715,34.5-3.715,34.5s-6.664,21.586-23.841,26.878C379.8,746.113,371.229,748.454,370.742,743.439Z" transform="translate(-328.057 -680.003)" fill="#d35b68"/>
        <path id="Trazado_8215" data-name="Trazado 8215" d="M1050.067,822.364s12.4-1.151,15.745-2.037,6.505-3.17,6.951-4.3-2.647.474-4.495.792-.752-1,1.394-3.321,5.139-4.363,2.233-4.435a9.822,9.822,0,0,0-8.036,3.532c-2.18,2.62-12.824,4.659-15.128,4.471A51.926,51.926,0,0,0,1050.067,822.364Z" transform="translate(-902.67 -782.865)" fill="#ffcebd"/>
        <path id="Trazado_8216" data-name="Trazado 8216" d="M243.11,682.354s-3.892-11.941-5.5-15.036-4.527-5.712-5.725-5.906,1.052,2.5,1.774,4.247-.8.953-3.529-.656-5.376-4.112-4.8-1.24a10.029,10.029,0,0,0,5.22,7.138c3.026,1.579,7.384,11.6,7.718,13.905A50.636,50.636,0,0,0,243.11,682.354Z" transform="translate(-225.256 -661.402)" fill="#ffcebd"/>
        <g id="Grupo_3080" data-name="Grupo 3080" transform="translate(6.644 13.845)">
          <path id="Trazado_8217" data-name="Trazado 8217" d="M263.488,748.74c-.984-1.4-1.5-3.819,1.452-6.023a17.572,17.572,0,0,1,4.146-2.58s2.747-3.172,6.477,4.2,13.834,24.891,17.773,20.428,13.988.3,21.348-.985,24.667.92,31.093-1.982,40.941,1.1,51.106-2.057,12.443-3.738,12.831.905-1.868,6.467-8.53,9.29-12.238,6.681-16.933,8.628-4.257.837-11.578.9-5.3,1.978-12.294,3.575-6.782.222-9.062.545c-1.038,5.216-8.35,29.147-7.937,37.483s3.106,14.521-.781,15.112-15.288.373-19.9-1.51a70.705,70.705,0,0,0-15.57-3.936c-5.52-.856-10.34-.05-9.3-4.353s6.224-26.727,7.52-29.362,3.707-16.776-12.012-14.47c-3.532.518-16.121-9.435-18.608-14.652S263.488,748.74,263.488,748.74Z" transform="translate(-262.716 -739.457)" fill="#c0d5ed"/>
          <g id="Grupo_3079" data-name="Grupo 3079" clip-path="url(#clip-path-3)">
            <path id="Trazado_8218" data-name="Trazado 8218" d="M511.15,1045.538s-24.187,8.146-48.267,6.146c-2.127,9.734-3.613,12.917-4.345,16.191,13.617,4.187,43.466,5.169,48.753-1.23C505.893,1058.739,511.15,1045.538,511.15,1045.538Z" transform="translate(-423.805 -991.248)" fill="#c0d5ed"/>
          </g>
        </g>
        <g id="Grupo_3082" data-name="Grupo 3082" transform="translate(70.473 24.822)">
          <path id="Trazado_8220" data-name="Trazado 8220" d="M626.509,822.3h0a5.189,5.189,0,0,0,6.306-3.925l3.473-14.4-10.088-2.62-3.473,14.405A5.413,5.413,0,0,0,626.509,822.3Z" transform="translate(-622.571 -801.347)" fill="#ffcebd"/>
          <g id="Grupo_3081" data-name="Grupo 3081" clip-path="url(#clip-path-4)">
            <path id="Trazado_8221" data-name="Trazado 8221" d="M622.9,766.127c1.3,4.73,8.021,9.321,11.055,10.4a2.735,2.735,0,0,0,3.071-.911c2.027-2.578,4.845-10,3.543-14.728-1.773-6.437-7.165-10.483-12.044-9.035S621.132,759.689,622.9,766.127Z" transform="translate(-622.379 -760.388)" fill="#ffcebd" style="mix-blend-mode: multiply;isolation: isolate"/>
          </g>
        </g>
        <path id="Trazado_8223" data-name="Trazado 8223" d="M622.407,741.947c1.3,4.73,8.022,9.321,11.055,10.4a2.735,2.735,0,0,0,3.071-.911c2.027-2.578,4.845-10,3.543-14.728-1.773-6.437-7.165-10.483-12.044-9.035S620.634,735.509,622.407,741.947Z" transform="translate(-551.496 -715.675)" fill="#ffcebd"/>
        <path id="Trazado_8224" data-name="Trazado 8224" d="M608.354,695.19s2.325.432,4.328,5.913c.728-1.724.25-7.035-3.146-11.626-1.669-2.255-6.723-7.41-13.342-4.524-5.115,2.23-8.529,12.529-7.459,16.617C591.292,702.539,606.141,705.588,608.354,695.19Z" transform="translate(-524.102 -680.072)" fill="#d35b68"/>
        <path id="Trazado_8225" data-name="Trazado 8225" d="M612.35,786.211a2.332,2.332,0,0,0,1.629,2.819,2.235,2.235,0,0,0,2.716-1.691,2.332,2.332,0,0,0-1.629-2.819A2.235,2.235,0,0,0,612.35,786.211Z" transform="translate(-543.634 -762.625)" fill="#ffcebd"/>
      </g>
      <g id="Grupo_3099" data-name="Grupo 3099" transform="translate(178.552 27.673)">
        <path id="Trazado_8226" data-name="Trazado 8226" d="M1244.153,636.784s-8.271-9.594-10.088-12.581-2.5-6.821-2.011-7.927,1.6,2.207,2.729,3.738,1.268-.164,1.36-3.3-.639-6.684,1.544-4.674a9.8,9.8,0,0,1,3.36,8.158c-.28,3.372,6.064,12.338,7.889,13.84A52.352,52.352,0,0,1,1244.153,636.784Z" transform="translate(-1231.902 -611.45)" fill="#ffcebd"/>
        <path id="Trazado_8227" data-name="Trazado 8227" d="M1758.179,692.449s7.46-10.237,9.956-12.686,6.073-3.984,7.261-3.762-1.785,2.062-3.019,3.508.448,1.2,3.526.573,6.363-2.143,4.9.44a9.8,9.8,0,0,1-7.179,5.129c-3.347.495-10.635,8.713-11.682,10.831A52.262,52.262,0,0,1,1758.179,692.449Z" transform="translate(-1664.832 -664.534)" fill="#ffcebd"/>
        <g id="Grupo_3088" data-name="Grupo 3088" transform="translate(102.379 144.725)">
          <path id="Trazado_8228" data-name="Trazado 8228" d="M1816.142,1427.389a2.859,2.859,0,0,1,2.246,1.333c.538.771,1.188,1.458,1.8,2.174,1.974,2.321,4.4,4.22,6.322,6.573a31.624,31.624,0,0,1,4.25,7.035,19.794,19.794,0,0,1,1.015,2.368,3.024,3.024,0,0,1-2.1,4.031c-1.705.414-3.418-1.1-4.5-2.209-1.174-1.208-2.04-2.663-3.217-3.866a15.969,15.969,0,0,0-3.5-2.671c-1.334-.765-2.684-1.5-4.023-2.255a4.971,4.971,0,0,1-2.239-1.809c-.361-.706-.654-1.457-.979-2.18l-1.344-2.993c-.214-.478-.528-1.049-.78-1.572C1810.882,1429.644,1813.557,1427.5,1816.142,1427.389Z" transform="translate(-1809.096 -1427.389)" fill="url(#linear-gradient)"/>
          <g id="Grupo_3087" data-name="Grupo 3087" clip-path="url(#clip-path-5)">
            <path id="Trazado_8229" data-name="Trazado 8229" d="M1856.972,1442.294a7.9,7.9,0,0,1-.478-2.594,2.674,2.674,0,0,1,1.2-2.239c.671-.381,1.654-.465,1.89-1.2a1.774,1.774,0,0,0-.421-1.433l-10.863-16.556a14.839,14.839,0,0,1,11.03,3.356,30.485,30.485,0,0,1,7.369,9.184,65.643,65.643,0,0,1,5,11.1c.464,1.354.879,2.868.308,4.181a4.662,4.662,0,0,1-2.869,2.3,9.481,9.481,0,0,1-12.234-6.314Z" transform="translate(-1841.344 -1419.79)" fill="url(#linear-gradient-4)"/>
            <g id="Grupo_3084" data-name="Grupo 3084" transform="translate(13.077 14.823)">
              <path id="Trazado_8230" data-name="Trazado 8230" d="M1883.256,1514.553q.541-1.64.931-3.322c.064-.275-.36-.393-.424-.117q-.39,1.683-.93,3.322c-.089.269.336.385.424.117Z" transform="translate(-1882.82 -1510.957)" fill="#fff"/>
            </g>
            <g id="Grupo_3085" data-name="Grupo 3085" transform="translate(11.739 13.856)">
              <path id="Trazado_8231" data-name="Trazado 8231" d="M1875.707,1509.16a23.885,23.885,0,0,1,.8-3.383c.085-.271-.339-.386-.424-.117a23.846,23.846,0,0,0-.8,3.383c-.044.277.379.4.424.117Z" transform="translate(-1875.28 -1505.507)" fill="#fff"/>
            </g>
            <g id="Grupo_3086" data-name="Grupo 3086" transform="translate(10.099 11.576)">
              <path id="Trazado_8232" data-name="Trazado 8232" d="M1866.465,1497.392q.713-2.251,1.514-4.472c.1-.267-.328-.381-.424-.117q-.8,2.221-1.514,4.472c-.086.27.339.386.424.117Z" transform="translate(-1866.03 -1492.653)" fill="#fff"/>
            </g>
          </g>
        </g>
        <g id="Grupo_3093" data-name="Grupo 3093" transform="translate(0.192 209.945)">
          <path id="Trazado_8234" data-name="Trazado 8234" d="M1260.145,1803.385a2.858,2.858,0,0,1-2.193,1.417c-.93.138-1.835.414-2.747.641-2.958.733-5.738,2.059-8.7,2.732a31.625,31.625,0,0,1-8.192.672,19.794,19.794,0,0,1-2.572-.146,3.024,3.024,0,0,1-2.671-3.68c.389-1.711,2.508-2.57,3.98-3.04,1.6-.513,3.294-.64,4.894-1.158a15.972,15.972,0,0,0,3.949-1.94c1.279-.854,2.539-1.735,3.811-2.6a4.968,4.968,0,0,1,2.617-1.2c.793-.009,1.6.063,2.388.095l3.278.13c.523.021,1.174-.006,1.755,0C1260.469,1797.672,1261.2,1801.022,1260.145,1803.385Z" transform="translate(-1232.983 -1795.086)" fill="url(#linear-gradient)"/>
          <g id="Grupo_3092" data-name="Grupo 3092" clip-path="url(#clip-path-6)">
            <path id="Trazado_8235" data-name="Trazado 8235" d="M1200.218,1828.127a7.893,7.893,0,0,1,2.536.728,2.674,2.674,0,0,1,1.471,2.07c.047.849-.4,1.878.432,2.379a1.3,1.3,0,0,0,.822.162,111,111,0,0,0,19.434-3.968.484.484,0,0,1,.579.643c-1.429,3.581-4.531,7.734-7.821,9.3a30.485,30.485,0,0,1-11.505,2.506,65.638,65.638,0,0,1-12.167-.469c-1.419-.188-2.96-.491-3.88-1.587a4.662,4.662,0,0,1-.785-3.594,9.481,9.481,0,0,1,11.1-8.141Z" transform="translate(-1197.028 -1822.168)" fill="url(#linear-gradient-4)"/>
            <g id="Grupo_3089" data-name="Grupo 3089" transform="translate(7.717 5.501)">
              <path id="Trazado_8236" data-name="Trazado 8236" d="M1276.554,1826.476q1.226,1.216,2.559,2.313c.217.178.53-.131.311-.311q-1.333-1.1-2.56-2.313a.22.22,0,0,0-.311.311Z" transform="translate(-1276.489 -1826.101)" fill="#fff"/>
            </g>
            <g id="Grupo_3090" data-name="Grupo 3090" transform="translate(9.144 4.691)">
              <path id="Trazado_8237" data-name="Trazado 8237" d="M1284.631,1821.951a23.075,23.075,0,0,1,2.629,2.187c.2.2.515-.114.311-.311a23.841,23.841,0,0,0-2.718-2.256c-.231-.164-.451.217-.222.38Z" transform="translate(-1284.535 -1821.531)" fill="#fff"/>
            </g>
            <g id="Grupo_3091" data-name="Grupo 3091" transform="translate(10.926 3.773)">
              <path id="Trazado_8238" data-name="Trazado 8238" d="M1294.648,1816.73q1.7,1.64,3.329,3.348c.2.2.506-.106.311-.311q-1.631-1.707-3.329-3.347c-.2-.2-.515.114-.311.311Z" transform="translate(-1294.582 -1816.357)" fill="#fff"/>
            </g>
          </g>
        </g>
        <path id="Trazado_8240" data-name="Trazado 8240" d="M1367.277,1209.836c-2.59-3.742-5.756-4.6-8.059-2.59s-13.527,9.786-16.117,11.513-5.469-4.317-9.21-19.6c-3.437-14.037-11.974-37.477-13.341-41.2a.866.866,0,0,0-.725-.564,45,45,0,0,0-10.215-.032.875.875,0,0,0-.659.539l0,.012a.87.87,0,0,1-1.068.512c-4.181-1.32-9.456-3.127-11.986-4.564a.865.865,0,0,0-1.225.424c-2.031,4.9-17.328,27.558-25.324,54.469-6.337,21.325,5.743,55.095,6.053,56.444.752,3.27,1.163,4.271,6.2,4.156s8.06.834,8.129-5.522-.982-41.087,2.4-50.357c1.984-5.439,7.5-12.467,13.053-25.913.348-.843,1.8-.641,1.667.261-3.092,20.561,12.654,30.07,17.546,41.295s12.376,13.24,20.454,7.771a271.4,271.4,0,0,0,22.431-17.847C1370.155,1216.452,1369.867,1213.578,1367.277,1209.836Z" transform="translate(-1261.192 -1057.56)" fill="#aac0e5"/>
        <g id="Grupo_3095" data-name="Grupo 3095" transform="translate(6.938 14.917)">
          <path id="Trazado_8241" data-name="Trazado 8241" d="M1290.851,754.91s-6.4,35.032-.712,34.984c9.142-.077,31.113-.275,36.263-.608,6.613-.427,3.434-14.255,3-21.5s-.671-11.19-.671-11.19.162-4.634,7.658-8.167c5.912-2.786,10.51-8.338,14.222-12.524s11.48-17.865,13.7-21.3-.294-8.57-2.361-9.988-4.858-3.892-8.338.5-16.4,16.618-19.611,18.133-9.283,6.282-13.071,7.611-11.415,2.667-14.465-.453-19.369-25.923-20.649-28.709-3.351-7.947-6.949-5.529-9.869,4.336-7.2,12.1,5.534,7.816,5.784,11.984-.105,9.255,3.954,14.517S1293.158,747.285,1290.851,754.91Z" transform="translate(-1271.017 -695.547)" fill="url(#linear-gradient-3)"/>
          <g id="Grupo_3094" data-name="Grupo 3094" clip-path="url(#clip-path-7)">
            <path id="Trazado_8242" data-name="Trazado 8242" d="M1555.131,875.227c-3.376-.62-6.858-.008-10.278-.3s-7.147-1.872-8.276-5.113a11.674,11.674,0,0,1-.061-5.58l3.9-25.64a16.956,16.956,0,0,1,1.49-5.514c2.077-3.888,6.681-5.5,10.709-7.289,10.636-4.729,19.849-13.189,24.165-24,.853-2.136,1.562-4.428,3.173-6.071s4.5-2.327,6.182-.757c1.539,1.438,1.339,3.894.973,5.968a138.065,138.065,0,0,1-17.532,46.916c-5.339,8.9-11.749,17.323-15.043,27.162Z" transform="translate(-1489.166 -776.606)" fill="url(#linear-gradient-3)"/>
          </g>
        </g>
        <g id="Grupo_3098" data-name="Grupo 3098" transform="translate(38.097 15.973)">
          <ellipse id="Elipse_603" data-name="Elipse 603" cx="12.439" cy="9.431" rx="12.439" ry="9.431" transform="translate(8.379 29.638) rotate(-78.675)" fill="url(#linear-gradient-23)"/>
          <g id="Grupo_3097" data-name="Grupo 3097" transform="translate(7.275 16.59)">
            <path id="Trazado_8244" data-name="Trazado 8244" d="M1498.47,815.293l4.057-20.257-13.077,9.834-1.659,8.284a4.488,4.488,0,0,0,3.519,5.283l1.877.376a4.488,4.488,0,0,0,5.282-3.52Z" transform="translate(-1487.703 -795.036)" fill="#ffcebd"/>
            <g id="Grupo_3096" data-name="Grupo 3096" clip-path="url(#clip-path-8)">
              <path id="Trazado_8245" data-name="Trazado 8245" d="M1485.638,759.225a3.106,3.106,0,0,1-3.65,2.434c-.1-.02-.2-.046-.3-.076-1.97,5.551-8.41,9.322-13.484,8.306-9.077-1.818-7.312-7.422-6.049-13.75,2.652-13.284,6.758-10.562,12.263-9.459,4.136.828,7.1,4.436,7.785,8.862a3.1,3.1,0,0,1,3.432,3.684Z" transform="translate(-1465.838 -754.435)" fill="#ffcebd" style="mix-blend-mode: multiply;isolation: isolate"/>
            </g>
          </g>
          <path id="Trazado_8247" data-name="Trazado 8247" d="M1471.249,752.482a3.106,3.106,0,0,1-3.7,2.733c-.1-.02-.2-.046-.3-.076-1.97,5.551-8.41,9.322-13.484,8.306-9.077-1.818-7.312-7.422-6.049-13.75,2.651-13.284,6.758-10.562,12.263-9.459,4.135.828,7.1,4.436,7.785,8.862a3.1,3.1,0,0,1,3.478,3.385Z" transform="translate(-1446.688 -732.544)" fill="#ffcebd"/>
          <path id="Trazado_8248" data-name="Trazado 8248" d="M1479.1,718.236c-1.074,5.363-4.5,9.2-7.66,8.563h0a11.858,11.858,0,0,0,.612-3.058h0a3.1,3.1,0,0,0-.811-5.586c-1.077-.31-2.4.649-3.165,1.318a.263.263,0,0,1-.428-.26c.211-.885.482-1.821.8-2.762a.543.543,0,0,0-.679-.69,16.836,16.836,0,0,1-7.9.1c-3.937-.788-7.771-3.492-9.92-5.336-1.279-1.1-.075-3.542.392-4.4,1.5-2.739,8.545-4.7,12.824-4.625,5.672.1,10.285,2.795,10.725,6.132h0a2.146,2.146,0,0,1,1.439-.257C1478.49,708.016,1480.178,712.875,1479.1,718.236Z" transform="translate(-1448.904 -701.505)" fill="url(#linear-gradient)"/>
        </g>
      </g>
      <g id="Grupo_3135" data-name="Grupo 3135" transform="translate(104.451 0)">
        <path id="Trazado_8249" data-name="Trazado 8249" d="M818.955,481.178s-4.091-11.537-4.671-14.869.668-6.752,1.024-7.874c.629-1.981,5.4-4.474,6.672-1.9a9.377,9.377,0,0,1,.125,8.547c-1.472,2.958,1.085,13.264,2.209,15.253A52.3,52.3,0,0,1,818.955,481.178Z" transform="translate(-814.132 -455.435)" fill="#ffcebd"/>
        <path id="Trazado_8250" data-name="Trazado 8250" d="M1247.815,483.355s4.288-11.463,4.926-14.784-.552-6.763-.888-7.891c-.595-1.992-5.326-4.569-6.638-2.021a9.377,9.377,0,0,0-.272,8.544c1.421,2.984-1.313,13.243-2.47,15.211A52.281,52.281,0,0,0,1247.815,483.355Z" transform="translate(-1166.496 -457.212)" fill="#ffcebd"/>
        <g id="Grupo_3104" data-name="Grupo 3104" transform="translate(17.57 221.051)">
          <path id="Trazado_8251" data-name="Trazado 8251" d="M924.279,1720.409c-.776-1.272-.95-3.957-.529-6.406.379-2.2,1.1-8.323,1.639-11.006.208-1.036-2.6-1.474-4.553-1.253a29.891,29.891,0,0,1-3.068.027,1.429,1.429,0,0,0-1.475,1.367s0,9.6-.451,12.763a58.715,58.715,0,0,1-1.259,6.2c-.981,2.989-1.693,7.316-1.269,9.491.724,3.709,5.406,2.7,7.513.947C924.623,1729.384,925.4,1722.246,924.279,1720.409Z" transform="translate(-913.189 -1701.688)" fill="url(#linear-gradient-4)"/>
          <g id="Grupo_3103" data-name="Grupo 3103" clip-path="url(#clip-path-9)">
            <path id="Trazado_8252" data-name="Trazado 8252" d="M903.283,1831.107c.262-.543-.476,5.3.731,4.972.719-.2,2.059-1.871,3.667-1.854,1.742.018,2.508,2.093,3.791,2.707.672.322,2.332-5.252,2.836-4.547.479.423-1.234,6.238-1.993,7.734-4.831,9.511-11.4-3.089-11.4-3.089Z" transform="translate(-903.094 -1808.122)" fill="#fff"/>
            <g id="Grupo_3100" data-name="Grupo 3100" transform="translate(2.258 21.51)">
              <path id="Trazado_8253" data-name="Trazado 8253" d="M926.307,1824.244a3.427,3.427,0,0,1,4.886.372c.189.213.5-.1.315-.311a3.885,3.885,0,0,0-5.517-.372c-.218.185.1.494.315.311Z" transform="translate(-925.918 -1822.959)" fill="#fff"/>
            </g>
            <g id="Grupo_3101" data-name="Grupo 3101" transform="translate(2.377 19.69)">
              <path id="Trazado_8254" data-name="Trazado 8254" d="M926.979,1813.985a3.427,3.427,0,0,1,4.886.372c.189.213.5-.1.315-.311a3.885,3.885,0,0,0-5.517-.372c-.218.184.1.494.315.31Z" transform="translate(-926.59 -1812.7)" fill="#fff"/>
            </g>
            <g id="Grupo_3102" data-name="Grupo 3102" transform="translate(2.496 17.871)">
              <path id="Trazado_8255" data-name="Trazado 8255" d="M927.651,1803.726a3.427,3.427,0,0,1,4.886.372c.189.214.5-.1.315-.31a3.885,3.885,0,0,0-5.517-.372c-.218.184.1.494.315.31Z" transform="translate(-927.262 -1802.441)" fill="#fff"/>
            </g>
          </g>
        </g>
        <g id="Grupo_3109" data-name="Grupo 3109" transform="translate(54.128 221.051)">
          <path id="Trazado_8257" data-name="Trazado 8257" d="M1120.418,1720.409c.776-1.272.95-3.957.528-6.406-.379-2.2-1.1-8.323-1.639-11.006-.208-1.036,2.6-1.474,4.553-1.253a29.892,29.892,0,0,0,3.068.027,1.429,1.429,0,0,1,1.475,1.367s-.005,9.6.451,12.763a58.715,58.715,0,0,0,1.259,6.2c.981,2.989,1.693,7.316,1.269,9.491-.724,3.709-5.406,2.7-7.513.947C1120.074,1729.384,1119.3,1722.246,1120.418,1720.409Z" transform="translate(-1119.297 -1701.688)" fill="url(#linear-gradient-4)"/>
          <g id="Grupo_3108" data-name="Grupo 3108" clip-path="url(#clip-path-10)">
            <path id="Trazado_8258" data-name="Trazado 8258" d="M1135.56,1831.107c-.263-.543.476,5.3-.731,4.972-.719-.2-2.059-1.871-3.667-1.854-1.742.018-2.508,2.093-3.791,2.707-.672.322-2.332-5.252-2.836-4.547-.479.423,1.234,6.238,1.993,7.734,4.831,9.511,11.4-3.089,11.4-3.089Z" transform="translate(-1123.537 -1808.122)" fill="#fff"/>
            <g id="Grupo_3105" data-name="Grupo 3105" transform="translate(4.306 21.51)">
              <path id="Trazado_8259" data-name="Trazado 8259" d="M1148.833,1824.244a3.427,3.427,0,0,0-4.886.372c-.189.213-.5-.1-.315-.311a3.885,3.885,0,0,1,5.517-.372c.218.185-.1.494-.315.311Z" transform="translate(-1143.574 -1822.959)" fill="#fff"/>
            </g>
            <g id="Grupo_3106" data-name="Grupo 3106" transform="translate(4.187 19.69)">
              <path id="Trazado_8260" data-name="Trazado 8260" d="M1148.161,1813.985a3.427,3.427,0,0,0-4.886.372c-.189.213-.5-.1-.315-.311a3.885,3.885,0,0,1,5.516-.372c.218.184-.1.494-.315.31Z" transform="translate(-1142.902 -1812.7)" fill="#fff"/>
            </g>
            <g id="Grupo_3107" data-name="Grupo 3107" transform="translate(4.068 17.871)">
              <path id="Trazado_8261" data-name="Trazado 8261" d="M1147.489,1803.726a3.427,3.427,0,0,0-4.886.372c-.189.214-.5-.1-.315-.31a3.885,3.885,0,0,1,5.516-.372c.218.184-.1.494-.315.31Z" transform="translate(-1142.23 -1802.441)" fill="#fff"/>
            </g>
          </g>
        </g>
        <g id="Grupo_3112" data-name="Grupo 3112" transform="translate(13.454 127.555)">
          <path id="Trazado_8263" data-name="Trazado 8263" d="M940.345,1282.913c2.891-18.5,4.425-65.826,4.11-73.33-.693-16.506-3.436-29.814-5.366-34.662a382.486,382.486,0,0,1-40.124-.352c-1.417,2.953-9.724,51.7-8.925,68.106.671,13.785,4.655,30.411,6.014,40.419.913.686,7.832,1.038,8.417-.411,1.106-2.742,1.587-16.105,5.9-39.366,1.677-9.032,6.5-29.947,8.859-29.5s2.242,22.262,3.919,31.294c4.317,23.261,8.77,38.432,10.2,38.432C938.426,1283.546,940.334,1282.982,940.345,1282.913Z" transform="translate(-889.985 -1174.569)" fill="url(#linear-gradient-6)"/>
          <g id="Grupo_3111" data-name="Grupo 3111" clip-path="url(#clip-path-11)">
            <g id="Grupo_3110" data-name="Grupo 3110" transform="translate(3.461 -6.032)">
              <path id="Trazado_8264" data-name="Trazado 8264" d="M937.4,1140.757c-9.458-.9-28.281,1.434-27.9,4.707.228,1.94.681,4.645,3.134,5.788,2.1.978,5.842.64,8.187.732,5.25.2,10.5.365,15.76.445,5.462.083,10.969.146,16.417-.2a55.1,55.1,0,0,0,6.648-.45c2.55-.618-1.177-6.464-.9-8.269C959.443,1139.026,946.434,1141.619,937.4,1140.757Z" transform="translate(-909.499 -1140.563)" fill="#aac0e5" style="mix-blend-mode: multiply;isolation: isolate"/>
            </g>
          </g>
        </g>
        <g id="Grupo_3132" data-name="Grupo 3132" transform="translate(2.771 19.284)">
          <path id="Trazado_8266" data-name="Trazado 8266" d="M907.044,565.973c-2.374-.439-4.688-1.317-6.235.773-1.833,2.477-2.935,5.83-4.174,8.6-3.5,7.806-5.077,16.358-8.893,23.991-2.682,5.363-10.154,12.9-16.877,14.644-6.146,1.6-12.667-4.958-16.82-8.1-3.039-2.3-4.934-6.6-6.485-9.921-1.042-2.23-4.169-13.942-5.454-17.483-1.376-3.792-2.522-7.752-4.155-11.45a4.506,4.506,0,0,0-6.223-2.4c-2,.89-1.744,2.688-1.874,4.436-.512,6.854,1.148,13.346,1.931,20.058,1.081,9.255,2.453,17.628,6.877,25.972,4.335,8.178,2.82,12.188,3.8,21.252.911,8.41,6.517,9.5,5.568,17.95-.422,3.759-1.951,6.76-1.586,10.536.216,2.239-4.583,6.915-2.252,8.234,1.995,1.129,9.087.955,11.315,1.061,4.987.237,9.979.421,14.973.513,5.189.1,10.421.169,15.6-.234,1.493-.116,6.891,1.157,8.873-1.38,1.542-1.973-4.17-6.4-3.906-8.487.656-5.173,2.367-5.249,2.478-10.438.161-7.516-1.989-5.824-.793-13.268.741-4.613,3-9.36,1.189-13.679-2.888-6.9,1.848-8.086,4.319-12.524,3.565-6.4,3.574-13.015,5.623-19.9,1.7-5.725,5.038-11.157,5.409-17.193C909.42,575.085,910.734,566.655,907.044,565.973Z" transform="translate(-829.757 -564.158)" fill="url(#linear-gradient-3)"/>
          <g id="Grupo_3131" data-name="Grupo 3131" clip-path="url(#clip-path-12)">
            <g id="Grupo_3113" data-name="Grupo 3113" transform="translate(-1.776 7.483)">
              <path id="Trazado_8267" data-name="Trazado 8267" d="M820.321,613.476a15.359,15.359,0,0,1,13.826-6.469c.388.034.386-.571,0-.6a15.966,15.966,0,0,0-14.348,6.769c-.222.321.3.624.522.305Z" transform="translate(-819.745 -606.345)" fill="#fff"/>
            </g>
            <g id="Grupo_3114" data-name="Grupo 3114" transform="translate(-1.151 15.534)">
              <path id="Trazado_8268" data-name="Trazado 8268" d="M840.072,651.779A18.9,18.9,0,0,0,823.319,660c-.218.324.306.627.522.305a18.294,18.294,0,0,1,16.231-7.922c.389.026.387-.579,0-.6Z" transform="translate(-823.267 -651.738)" fill="#fff"/>
            </g>
            <g id="Grupo_3115" data-name="Grupo 3115" transform="translate(2.065 21.659)">
              <path id="Trazado_8269" data-name="Trazado 8269" d="M841.975,696.568a23.55,23.55,0,0,1,13.462-9.7.3.3,0,0,0-.161-.583,24.191,24.191,0,0,0-13.824,9.982c-.216.326.308.629.522.305Z" transform="translate(-841.401 -686.269)" fill="#fff"/>
            </g>
            <g id="Grupo_3116" data-name="Grupo 3116" transform="translate(2.679 31.448)">
              <path id="Trazado_8270" data-name="Trazado 8270" d="M859.681,741.5a42.271,42.271,0,0,0-14.786,16.279c-.177.346.345.652.522.305a41.665,41.665,0,0,1,14.569-16.062c.327-.209.024-.733-.305-.522Z" transform="translate(-844.858 -741.455)" fill="#fff"/>
            </g>
            <g id="Grupo_3117" data-name="Grupo 3117" transform="translate(9.556 39.12)">
              <path id="Trazado_8271" data-name="Trazado 8271" d="M898.671,784.728c-3.729,1.167-6.859,4.012-9.354,6.922a25.322,25.322,0,0,0-5.677,10.025c-.093.378.49.539.583.161a24.679,24.679,0,0,1,5.521-9.758c2.427-2.829,5.458-5.63,9.087-6.766.37-.116.212-.7-.161-.583Z" transform="translate(-883.63 -784.713)" fill="#fff"/>
            </g>
            <g id="Grupo_3118" data-name="Grupo 3118" transform="translate(52.675 37.812)">
              <path id="Trazado_8272" data-name="Trazado 8272" d="M1126.829,777.782a47.5,47.5,0,0,1,7.424,7.5,69.719,69.719,0,0,1,7.867,11.176c.145.263.549.028.4-.236a70.323,70.323,0,0,0-7.941-11.271,47.938,47.938,0,0,0-7.519-7.572c-.24-.181-.474.225-.236.4Z" transform="translate(-1126.729 -777.333)" fill="#fff"/>
            </g>
            <g id="Grupo_3119" data-name="Grupo 3119" transform="translate(50.806 42.064)">
              <path id="Trazado_8273" data-name="Trazado 8273" d="M1116.244,801.717c1.795,2.3,2.694,5.281,3.9,7.9a26.157,26.157,0,0,0,6.012,8.793,18.4,18.4,0,0,0,5.835,3.486c.282.106.4-.346.124-.451a18.711,18.711,0,0,1-9.176-7.595,66.354,66.354,0,0,1-4.279-8.763,17.9,17.9,0,0,0-2.085-3.706c-.185-.237-.513.1-.33.33Z" transform="translate(-1116.191 -801.306)" fill="#fff"/>
            </g>
            <g id="Grupo_3120" data-name="Grupo 3120" transform="translate(11.583 42.45)">
              <path id="Trazado_8274" data-name="Trazado 8274" d="M910.7,803.648c-1.362,4.257-4.082,8.067-6.909,11.473a53.408,53.408,0,0,1-8.627,8.511c-.236.18,0,.585.236.4a54.052,54.052,0,0,0,8.892-8.791c2.814-3.419,5.5-7.216,6.858-11.472.092-.287-.359-.41-.451-.124Z" transform="translate(-895.062 -803.485)" fill="#fff"/>
            </g>
            <g id="Grupo_3121" data-name="Grupo 3121" transform="translate(57.444 29.458)">
              <path id="Trazado_8275" data-name="Trazado 8275" d="M1153.757,730.81a47.437,47.437,0,0,1,9.235,7.836c2.256,2.483,4.828,5.651,5.133,9.134.034.385.639.388.605,0-.306-3.5-2.707-6.623-4.95-9.161a47.652,47.652,0,0,0-9.717-8.332c-.328-.213-.631.311-.305.522Z" transform="translate(-1153.617 -730.238)" fill="#fff"/>
            </g>
            <g id="Grupo_3122" data-name="Grupo 3122" transform="translate(61.317 22.019)">
              <path id="Trazado_8276" data-name="Trazado 8276" d="M1175.609,688.849a27.883,27.883,0,0,1,7.125,5.038,83.338,83.338,0,0,1,6.122,6.327c.258.292.685-.137.427-.428a81.815,81.815,0,0,0-6.338-6.524,27.952,27.952,0,0,0-7.031-4.936c-.352-.159-.66.362-.305.522Z" transform="translate(-1175.452 -688.296)" fill="#fff"/>
            </g>
            <g id="Grupo_3123" data-name="Grupo 3123" transform="translate(63.735 12.646)">
              <path id="Trazado_8277" data-name="Trazado 8277" d="M1189.243,636a32.145,32.145,0,0,1,7.759,4.937,26.885,26.885,0,0,1,6.517,7.455c.188.341.711.036.522-.305a27.328,27.328,0,0,0-6.612-7.578,32.673,32.673,0,0,0-7.881-5.032c-.354-.152-.663.369-.306.522Z" transform="translate(-1189.084 -635.451)" fill="#fff"/>
            </g>
            <g id="Grupo_3124" data-name="Grupo 3124" transform="translate(69.335 1.469)">
              <path id="Trazado_8278" data-name="Trazado 8278" d="M1220.692,572.9a19.376,19.376,0,0,0,11.351,9.514c.372.117.531-.467.161-.583a18.764,18.764,0,0,1-10.99-9.236c-.18-.346-.7-.04-.522.305Z" transform="translate(-1220.655 -572.442)" fill="#fff"/>
            </g>
            <g id="Grupo_3125" data-name="Grupo 3125" transform="translate(13.851 102.858)">
              <path id="Trazado_8279" data-name="Trazado 8279" d="M908.141,1144.764c13.745-.267,27.49.093,41.236.1q5.947,0,11.893-.1a.3.3,0,0,0,0-.6c-13.745.267-27.49-.093-41.236-.1q-5.947,0-11.893.1a.3.3,0,0,0,0,.6Z" transform="translate(-907.848 -1144.056)" fill="#fff"/>
            </g>
            <g id="Grupo_3126" data-name="Grupo 3126" transform="translate(15.375 95.488)">
              <path id="Trazado_8280" data-name="Trazado 8280" d="M916.728,1103.118c12.919-.083,25.835.364,38.754.347,3.276,0,6.553-.037,9.827-.147.388-.013.39-.618,0-.605-12.739.431-25.5-.023-38.246-.161-3.445-.037-6.89-.061-10.336-.039a.3.3,0,0,0,0,.6Z" transform="translate(-916.436 -1102.505)" fill="#fff"/>
            </g>
            <g id="Grupo_3127" data-name="Grupo 3127" transform="translate(14.053 86.756)">
              <path id="Trazado_8281" data-name="Trazado 8281" d="M909.277,1053.879l40.033.008,11.987,0a.3.3,0,0,0,0-.6l-40.033-.008-11.987,0a.3.3,0,0,0,0,.6Z" transform="translate(-908.985 -1053.274)" fill="#fff"/>
            </g>
            <g id="Grupo_3128" data-name="Grupo 3128" transform="translate(11.634 75.919)">
              <path id="Trazado_8282" data-name="Trazado 8282" d="M895.639,993.714c14-.65,28.027-1.326,42.038-.658,3.955.189,7.9.489,11.838.924.386.043.383-.563,0-.605-13.941-1.541-28-1.344-41.991-.792-3.963.156-7.924.342-11.885.526-.388.018-.39.623,0,.6Z" transform="translate(-895.347 -992.177)" fill="#fff"/>
            </g>
            <g id="Grupo_3129" data-name="Grupo 3129" transform="translate(10.793 64.652)">
              <path id="Trazado_8283" data-name="Trazado 8283" d="M890.9,929.292c14.753.3,29.517-.309,44.266.283,3.779.152,7.556.388,11.316.793.386.042.384-.564,0-.6-14.432-1.554-29.049-1.034-43.538-1-4.015.01-8.03,0-12.045-.08a.3.3,0,0,0,0,.6Z" transform="translate(-890.608 -928.653)" fill="#fff"/>
            </g>
            <g id="Grupo_3130" data-name="Grupo 3130" transform="translate(27.686 45.243)">
              <path id="Trazado_8284" data-name="Trazado 8284" d="M988.47,820.607a8.98,8.98,0,0,0-1.96,9.775,10.192,10.192,0,0,0,8.258,6.017,12.631,12.631,0,0,0,9.365-3.446,11.948,11.948,0,0,0,3.509-6.653,16.338,16.338,0,0,0-.235-6.854.3.3,0,0,0-.583.161c.961,3.794.551,8.228-1.8,11.444a12.661,12.661,0,0,1-7.6,4.621,9.556,9.556,0,0,1-9.4-3.8,8.423,8.423,0,0,1,.878-10.835c.284-.268-.145-.695-.428-.428Z" transform="translate(-985.846 -819.23)" fill="#fff"/>
            </g>
          </g>
        </g>
        <path id="Trazado_8286" data-name="Trazado 8286" d="M977.892,701.4c.314,1.7-.187,3.222-1.121,3.389s-1.945-1.08-2.26-2.784.187-3.222,1.121-3.389S977.578,699.7,977.892,701.4Z" transform="translate(-945.988 -655.47)" fill="#b2b2b2"/>
        <path id="Trazado_8287" data-name="Trazado 8287" d="M995.942,631.537c0,3.029-.045,8.139-1.59,12.3-.927,2.494-3,3.37-4.262,5.609-2.719,4.837-3.062,8.59-7.879,9.174-3.5.425-11.466-1.542-13.624-5.946-.972-1.984-.088-4.245-1.76-6-1.548-1.622-1.548-4.677-1.548-6.6,0-8.771,8.575-17.182,15.331-17.182S995.942,622.766,995.942,631.537Z" transform="translate(-938.47 -593.185)" fill="url(#linear-gradient-4)"/>
        <g id="Grupo_3134" data-name="Grupo 3134" transform="translate(35.078 55.854)">
          <path id="Trazado_8288" data-name="Trazado 8288" d="M1011.9,783.629l1.481-13.3h10.651l1.994,13.3a5.776,5.776,0,0,1-5.822,5.73h-2.483a5.776,5.776,0,0,1-5.822-5.73Z" transform="translate(-1011.895 -770.334)" fill="#ffcebd"/>
          <g id="Grupo_3133" data-name="Grupo 3133" clip-path="url(#clip-path-13)">
            <path id="Trazado_8289" data-name="Trazado 8289" d="M982.927,668.538c2.779,6.656,7.151,9.355,10.62,9.355,5.907,0,13.18-7.458,13.186-15.7.012-17.295-5.9-14.916-13.186-14.916-5.471,0-10.163,3.772-12.159,9.142C981.808,659.6,980.89,663.66,982.927,668.538Z" transform="translate(-986.799 -669.016)" fill="#ffcebd" style="mix-blend-mode: multiply;isolation: isolate"/>
            <path id="Trazado_8290" data-name="Trazado 8290" d="M998.364,1988.97a5.03,5.03,0,0,0,1.158,5.077,6.078,6.078,0,0,0,5.071,1.71,7.248,7.248,0,0,0,4.681-2.695,1.031,1.031,0,0,1,.594-.462.657.657,0,0,1,.654.461,1.867,1.867,0,0,1,.034.849,18.677,18.677,0,0,1-1.263,5.679,6.464,6.464,0,0,1-4.234,3.784,8.418,8.418,0,0,1-4.714-.67,7.135,7.135,0,0,1-3.227-2.044,6.254,6.254,0,0,1-1.021-4.167A15.582,15.582,0,0,1,998.364,1988.97Z" transform="translate(-998.889 -1772.817)" fill="#ffcebd"/>
          </g>
        </g>
        <path id="Trazado_8292" data-name="Trazado 8292" d="M985.871,650.85c2.52,6.656,6.483,9.355,9.628,9.355,5.355,0,11.949-7.458,11.954-15.7.01-17.295-5.353-14.916-11.954-14.916-4.96,0-9.214,3.772-11.023,9.142C984.857,641.912,984.025,645.972,985.871,650.85Z" transform="translate(-954.262 -598.611)" fill="#ffcebd"/>
        <path id="Trazado_8293" data-name="Trazado 8293" d="M967.208,610.819c1.454-.91,5.039-.5,7.154-1.926s4.078-3.732,6.193-2.041,3.5,1.561,4.559,1.3a2.011,2.011,0,0,1,2.676,1.723c.264,1.691,1.351,1.464,1.52.488.219-1.268.249-6.674-2.526-8.1s-3.964-2.211-5.021-3.642a5.963,5.963,0,0,0-6.268-1.691c-2.189.91-4.171,3.512-5.492,3.512s-4.991-1.9-6.671.829-.491,6.5-1.945,7.674-.689,2.317-.161,4.659-.048,4.73,2.086,5.2C965.82,619.323,965.754,611.73,967.208,610.819Z" transform="translate(-934.575 -571.565)" fill="url(#linear-gradient-4)"/>
        <path id="Trazado_8294" data-name="Trazado 8294" d="M1107.228,702.2c-.4,1.687-1.478,2.881-2.4,2.667s-1.346-1.754-.944-3.441,1.478-2.881,2.4-2.667S1107.631,700.509,1107.228,702.2Z" transform="translate(-1052.364 -655.577)" fill="#ffcebd"/>
      </g>
    </g>
  </g>
</svg>
