<svg xmlns="http://www.w3.org/2000/svg" xmlns:xlink="http://www.w3.org/1999/xlink" width="166.206" height="161.442" viewBox="0 0 166.206 161.442">
  <defs>
    <linearGradient id="linear-gradient" x1="0.633" y1="1.003" x2="0.337" y2="0.006" gradientUnits="objectBoundingBox">
      <stop offset="0.11" stop-color="#fff"/>
      <stop offset="1" stop-color="#e1ebf7"/>
    </linearGradient>
    <linearGradient id="linear-gradient-2" x1="2.233" y1="0.823" x2="1.238" y2="0.092" gradientUnits="objectBoundingBox">
      <stop offset="0.038" stop-color="#a5cbef"/>
      <stop offset="0.223" stop-color="#b9d6f2"/>
      <stop offset="0.525" stop-color="#d3e6f7"/>
      <stop offset="0.794" stop-color="#e4eff9"/>
      <stop offset="1" stop-color="#eaf3fb"/>
    </linearGradient>
    <linearGradient id="linear-gradient-3" x1="4.242" y1="0.5" x2="5.242" y2="0.5" gradientUnits="objectBoundingBox">
      <stop offset="0" stop-color="#3c5185"/>
      <stop offset="1" stop-color="#4a65a3"/>
    </linearGradient>
    <linearGradient id="linear-gradient-4" x1="8.242" y1="0.5" x2="9.242" y2="0.5" xlink:href="#linear-gradient-3"/>
    <linearGradient id="linear-gradient-5" x1="12.242" y1="0.5" x2="13.242" y2="0.5" xlink:href="#linear-gradient-3"/>
    <linearGradient id="linear-gradient-6" x1="2.682" y1="0.5" x2="3.682" y2="0.5" xlink:href="#linear-gradient-3"/>
    <linearGradient id="linear-gradient-7" x1="4.757" y1="0.5" x2="5.757" y2="0.5" xlink:href="#linear-gradient-3"/>
    <linearGradient id="linear-gradient-8" x1="6.832" y1="0.5" x2="7.832" y2="0.5" xlink:href="#linear-gradient-3"/>
    <linearGradient id="linear-gradient-9" x1="16.242" y1="0.5" x2="17.242" y2="0.5" xlink:href="#linear-gradient-3"/>
    <linearGradient id="linear-gradient-10" x1="8.907" y1="0.5" x2="9.907" y2="0.5" xlink:href="#linear-gradient-3"/>
    <linearGradient id="linear-gradient-11" x1="-0.042" y1="1.152" x2="0.921" y2="-0.006" gradientUnits="objectBoundingBox">
      <stop offset="0" stop-color="#4a65a3"/>
      <stop offset="1" stop-color="#3c5185"/>
    </linearGradient>
    <linearGradient id="linear-gradient-12" x1="-0.058" y1="1.162" x2="0.933" y2="-0.013" xlink:href="#linear-gradient-3"/>
    <linearGradient id="linear-gradient-13" x1="21.116" y1="0.951" x2="20.695" y2="0.077" gradientUnits="objectBoundingBox">
      <stop offset="0" stop-color="#ffc107"/>
      <stop offset="0.85" stop-color="#ff9800"/>
    </linearGradient>
    <linearGradient id="linear-gradient-14" y1="0.5" x2="1" y2="0.5" gradientUnits="objectBoundingBox">
      <stop offset="0.15" stop-color="#ff9800"/>
      <stop offset="1" stop-color="#ffc107"/>
    </linearGradient>
    <radialGradient id="radial-gradient" cx="0.5" cy="0.5" r="0.875" gradientTransform="translate(0.211 199.876) scale(0.577 0.517)" gradientUnits="objectBoundingBox">
      <stop offset="0" stop-color="#3c5185"/>
      <stop offset="0.005" stop-color="#3e5286"/>
      <stop offset="0.143" stop-color="#7080a6"/>
      <stop offset="0.284" stop-color="#9ca7c1"/>
      <stop offset="0.425" stop-color="#c0c6d7"/>
      <stop offset="0.567" stop-color="#dbdfe8"/>
      <stop offset="0.71" stop-color="#eff1f5"/>
      <stop offset="0.853" stop-color="#fbfbfc"/>
      <stop offset="1" stop-color="#fff"/>
    </radialGradient>
    <linearGradient id="linear-gradient-15" x1="5.411" y1="0.252" x2="6.396" y2="0.762" gradientUnits="objectBoundingBox">
      <stop offset="0.021" stop-color="#ffc107"/>
      <stop offset="0.319" stop-color="#ffaf03"/>
      <stop offset="0.71" stop-color="#ff9e01"/>
      <stop offset="1" stop-color="#ff9800"/>
    </linearGradient>
    <linearGradient id="linear-gradient-16" x1="7.821" y1="0.5" x2="8.821" y2="0.5" xlink:href="#linear-gradient-15"/>
    <linearGradient id="linear-gradient-17" y1="0.5" x2="1" y2="0.5" gradientUnits="objectBoundingBox">
      <stop offset="0" stop-color="#4a65a3"/>
      <stop offset="0.4" stop-color="#435b95"/>
      <stop offset="1" stop-color="#3c5185"/>
    </linearGradient>
    <linearGradient id="linear-gradient-20" x1="7.858" y1="0.233" x2="8.982" y2="0.805" xlink:href="#linear-gradient-15"/>
    <linearGradient id="linear-gradient-21" x1="12.832" y1="0.5" x2="13.832" y2="0.5" xlink:href="#linear-gradient-15"/>
    <linearGradient id="linear-gradient-22" x1="7.585" y1="0.5" x2="8.585" y2="0.5" xlink:href="#linear-gradient-15"/>
    <linearGradient id="linear-gradient-23" y1="0.5" x2="1" y2="0.5" gradientUnits="objectBoundingBox">
      <stop offset="0" stop-color="#a8d9fb"/>
      <stop offset="0.093" stop-color="#b2ddfb"/>
      <stop offset="0.494" stop-color="#dceffd"/>
      <stop offset="0.81" stop-color="#f5fafe"/>
      <stop offset="1" stop-color="#fff"/>
    </linearGradient>
    <linearGradient id="linear-gradient-25" x1="5.001" y1="0.5" x2="6.001" y2="0.5" xlink:href="#linear-gradient-15"/>
    <linearGradient id="linear-gradient-26" x1="-4.798" y1="0.5" x2="-3.798" y2="0.5" gradientUnits="objectBoundingBox">
      <stop offset="0.004" stop-color="#a5cbef"/>
      <stop offset="0.277" stop-color="#c1dbf4"/>
      <stop offset="0.757" stop-color="#edf5fb"/>
      <stop offset="1" stop-color="#fff"/>
    </linearGradient>
    <linearGradient id="linear-gradient-27" x1="201.801" y1="0.5" x2="202.801" y2="0.5" xlink:href="#linear-gradient-14"/>
    <linearGradient id="linear-gradient-28" x1="204.338" y1="0.5" x2="205.338" y2="0.5" xlink:href="#linear-gradient-14"/>
    <linearGradient id="linear-gradient-29" x1="206.876" y1="0.5" x2="207.876" y2="0.5" xlink:href="#linear-gradient-14"/>
    <linearGradient id="linear-gradient-30" x1="24.136" y1="0.5" x2="25.136" y2="0.5" xlink:href="#linear-gradient-3"/>
    <linearGradient id="linear-gradient-31" x1="24.308" y1="0.5" x2="25.308" y2="0.5" xlink:href="#linear-gradient-11"/>
    <linearGradient id="linear-gradient-32" x1="19.583" y1="0.272" x2="20.576" y2="0.749" gradientUnits="objectBoundingBox">
      <stop offset="0" stop-color="#4a65a3"/>
      <stop offset="0.356" stop-color="#47619d"/>
      <stop offset="0.783" stop-color="#40578f"/>
      <stop offset="1" stop-color="#3c5185"/>
    </linearGradient>
    <linearGradient id="linear-gradient-33" x1="19.588" y1="0.265" x2="20.581" y2="0.743" gradientUnits="objectBoundingBox">
      <stop offset="0" stop-color="#3c5185"/>
      <stop offset="0.217" stop-color="#40578f"/>
      <stop offset="0.644" stop-color="#47619d"/>
      <stop offset="1" stop-color="#4a65a3"/>
    </linearGradient>
    <linearGradient id="linear-gradient-34" x1="11.159" y1="0.5" x2="12.159" y2="0.5" gradientUnits="objectBoundingBox">
      <stop offset="0" stop-color="#3c5185"/>
      <stop offset="0.128" stop-color="#41578d"/>
      <stop offset="0.695" stop-color="#5572b0"/>
      <stop offset="1" stop-color="#5d7dbe"/>
    </linearGradient>
    <linearGradient id="linear-gradient-35" x1="11.839" y1="0.961" x2="10.862" y2="-0.017" xlink:href="#linear-gradient-34"/>
  </defs>
  <g id="Grupo_768" data-name="Grupo 768" transform="translate(-42.834 -274.137)">
    <path id="Trazado_2230" data-name="Trazado 2230" d="M209.04,363.226c0,42.445-41.909,72.353-84.353,72.353s-81.853-29.908-81.853-72.353,25.408-88.353,67.853-88.353S209.04,320.781,209.04,363.226Z" fill="url(#linear-gradient)"/>
    <g id="Grupo_735" data-name="Grupo 735">
      <g id="Grupo_731" data-name="Grupo 731" opacity="0.3">
        <path id="Trazado_2231" data-name="Trazado 2231" d="M206.729,365.953l-.295-.609a2.9,2.9,0,0,0-.833-.986c-.064-.058-.141-.112-.212-.168-.044-.028-.077-.071-.122-.1l-.078-.044c-.088-.06-.159-.125-.256-.181l-52.042-30.047a7.642,7.642,0,0,0-6.887,0L46.818,391.086c-1.163.671-1.6,1.605-1.34,2.479l-.08.047V395.5a5.549,5.549,0,0,0,2.779,4.808L98.86,429.483a7.642,7.642,0,0,0,6.887,0l99.026-57.151A4.9,4.9,0,0,0,206.729,365.953Z" fill="#3c5185" opacity="0"/>
        <path id="Trazado_2232" data-name="Trazado 2232" d="M206.367,365.911l-.294-.605a2.881,2.881,0,0,0-.828-.981c-.064-.058-.14-.111-.211-.167-.044-.028-.076-.07-.122-.1l-.077-.045c-.087-.059-.158-.124-.254-.18L152.815,333.95a7.6,7.6,0,0,0-6.851,0l-98.83,57.074c-1.156.668-1.6,1.6-1.332,2.465l-.081.048v1.881a5.52,5.52,0,0,0,2.765,4.782L98.9,429.217a7.6,7.6,0,0,0,6.851,0l98.67-56.961A4.868,4.868,0,0,0,206.367,365.911Z" fill="#3c5185" opacity="0.024"/>
        <path id="Trazado_2233" data-name="Trazado 2233" d="M206.005,365.869l-.292-.6a2.85,2.85,0,0,0-.824-.975c-.063-.058-.139-.111-.21-.166-.044-.028-.076-.07-.121-.1l-.077-.044c-.087-.06-.157-.124-.253-.179l-51.489-29.728a7.558,7.558,0,0,0-6.814,0L47.451,390.962c-1.151.664-1.588,1.587-1.326,2.452l-.08.047v1.871a5.49,5.49,0,0,0,2.751,4.757L98.94,428.951a7.564,7.564,0,0,0,6.814,0l98.316-56.77A4.843,4.843,0,0,0,206.005,365.869Z" fill="#3c5185" opacity="0.049"/>
        <path id="Trazado_2234" data-name="Trazado 2234" d="M205.643,365.828l-.291-.6a2.839,2.839,0,0,0-.819-.97c-.063-.057-.139-.11-.209-.165-.043-.028-.075-.07-.12-.1l-.077-.044c-.086-.059-.156-.123-.251-.178l-51.213-29.568a7.519,7.519,0,0,0-6.778,0L47.767,390.9c-1.144.66-1.579,1.579-1.318,2.438l-.08.047v1.861a5.46,5.46,0,0,0,2.736,4.732L98.98,428.685a7.526,7.526,0,0,0,6.778,0l97.96-56.58A4.816,4.816,0,0,0,205.643,365.828Z" fill="#3c5185" opacity="0.073"/>
        <path id="Trazado_2235" data-name="Trazado 2235" d="M205.281,365.786l-.289-.6a2.821,2.821,0,0,0-.815-.965c-.063-.057-.138-.11-.208-.165-.043-.028-.075-.069-.119-.1l-.077-.043c-.085-.059-.154-.122-.25-.177l-50.936-29.409a7.479,7.479,0,0,0-6.741,0l-97.763,56.5c-1.138.657-1.57,1.57-1.311,2.425l-.079.047v1.851a5.43,5.43,0,0,0,2.721,4.706L99.02,428.419a7.479,7.479,0,0,0,6.741,0l97.606-56.389A4.791,4.791,0,0,0,205.281,365.786Z" fill="#3c5185" opacity="0.098"/>
        <path id="Trazado_2236" data-name="Trazado 2236" d="M204.919,365.745l-.287-.593a2.82,2.82,0,0,0-.811-.959c-.062-.057-.137-.109-.207-.164-.042-.028-.074-.069-.119-.094l-.075-.044c-.085-.058-.154-.121-.249-.176L152.51,334.466a7.439,7.439,0,0,0-6.7,0L48.4,390.775c-1.132.654-1.562,1.562-1.3,2.413l-.078.046v1.841a5.4,5.4,0,0,0,2.706,4.68l49.337,28.4a7.439,7.439,0,0,0,6.7,0l97.251-56.2A4.764,4.764,0,0,0,204.919,365.745Z" fill="#3c5185" opacity="0.122"/>
        <path id="Trazado_2237" data-name="Trazado 2237" d="M204.557,365.7l-.286-.589a2.779,2.779,0,0,0-.806-.954c-.062-.057-.136-.109-.206-.163-.042-.028-.074-.069-.118-.094l-.075-.043c-.085-.058-.153-.121-.248-.176L152.434,334.6a7.4,7.4,0,0,0-6.667,0L48.716,390.713c-1.126.65-1.554,1.554-1.3,2.4l-.079.046v1.83a5.372,5.372,0,0,0,2.692,4.655L99.1,427.887a7.4,7.4,0,0,0,6.667,0l96.9-56.008A4.739,4.739,0,0,0,204.557,365.7Z" fill="#3c5185" opacity="0.146"/>
        <path id="Trazado_2238" data-name="Trazado 2238" d="M204.2,365.661l-.284-.585a2.771,2.771,0,0,0-.8-.949c-.061-.057-.135-.108-.2-.162-.043-.028-.074-.068-.118-.094l-.075-.043c-.084-.057-.152-.12-.246-.174l-50.108-28.93a7.361,7.361,0,0,0-6.631,0l-96.7,55.927c-1.12.646-1.545,1.545-1.29,2.386l-.078.046V394.9a5.342,5.342,0,0,0,2.677,4.629l48.8,28.088a7.361,7.361,0,0,0,6.631,0L202.312,371.8A4.714,4.714,0,0,0,204.2,365.661Z" fill="#3c5185" opacity="0.171"/>
        <path id="Trazado_2239" data-name="Trazado 2239" d="M203.833,365.62l-.283-.583a2.77,2.77,0,0,0-.8-.944c-.061-.055-.135-.107-.2-.161-.042-.027-.073-.067-.117-.092l-.075-.043c-.083-.058-.151-.12-.245-.174l-49.831-28.77a7.32,7.32,0,0,0-6.594,0l-96.34,55.736c-1.113.643-1.536,1.536-1.283,2.373l-.077.045v1.811a5.313,5.313,0,0,0,2.662,4.6l48.529,27.932a7.316,7.316,0,0,0,6.6,0l96.186-55.626A4.687,4.687,0,0,0,203.833,365.62Z" fill="#3c5185" opacity="0.195"/>
        <path id="Trazado_2240" data-name="Trazado 2240" d="M203.471,365.578,203.19,365a2.762,2.762,0,0,0-.793-.939c-.061-.055-.134-.107-.2-.16-.042-.027-.073-.067-.116-.092l-.075-.043c-.083-.057-.15-.118-.243-.172l-49.555-28.611a7.276,7.276,0,0,0-6.558,0L49.664,390.527c-1.107.639-1.528,1.528-1.275,2.359l-.077.046v1.8a5.285,5.285,0,0,0,2.647,4.578l48.26,27.777a7.276,7.276,0,0,0,6.558,0l95.832-55.435A4.662,4.662,0,0,0,203.471,365.578Z" fill="#3c5185" opacity="0.22"/>
        <path id="Trazado_2241" data-name="Trazado 2241" d="M203.109,365.537l-.28-.577a2.727,2.727,0,0,0-.788-.933c-.06-.055-.133-.106-.2-.159-.042-.027-.073-.067-.116-.092l-.074-.042c-.082-.057-.149-.118-.241-.171L152.13,335.111a7.236,7.236,0,0,0-6.521,0L49.981,390.464c-1.1.636-1.52,1.52-1.269,2.347l-.076.045v1.791a5.255,5.255,0,0,0,2.632,4.553l47.991,27.622a7.238,7.238,0,0,0,6.522,0l95.476-55.245A4.635,4.635,0,0,0,203.109,365.537Z" fill="#3c5185" opacity="0.244"/>
        <path id="Trazado_2242" data-name="Trazado 2242" d="M202.747,365.495l-.278-.573a2.721,2.721,0,0,0-.784-.928c-.06-.055-.132-.106-.2-.158-.041-.027-.072-.067-.115-.092l-.073-.042c-.082-.056-.149-.117-.241-.17l-49-28.292a7.2,7.2,0,0,0-6.485,0L50.3,390.4c-1.1.632-1.511,1.511-1.261,2.334l-.077.045v1.78a5.224,5.224,0,0,0,2.618,4.527L99.3,426.556a7.2,7.2,0,0,0,6.485,0L200.9,371.5A4.61,4.61,0,0,0,202.747,365.495Z" fill="#3c5185" opacity="0.268"/>
        <path id="Trazado_2243" data-name="Trazado 2243" d="M202.385,365.453l-.276-.569a2.7,2.7,0,0,0-.78-.923c-.06-.055-.132-.105-.2-.158-.041-.026-.071-.066-.114-.09l-.073-.042c-.082-.056-.148-.117-.239-.17L151.978,335.37a7.151,7.151,0,0,0-6.448,0L50.613,390.34c-1.088.629-1.5,1.5-1.254,2.32l-.076.045v1.771a5.2,5.2,0,0,0,2.6,4.5L99.339,426.29a7.157,7.157,0,0,0,6.448,0l94.767-54.864A4.584,4.584,0,0,0,202.385,365.453Z" fill="#3c5185" opacity="0.293"/>
        <path id="Trazado_2244" data-name="Trazado 2244" d="M202.023,365.412l-.275-.567a2.688,2.688,0,0,0-.775-.917c-.059-.055-.131-.105-.2-.157-.041-.026-.071-.066-.113-.09l-.073-.042c-.081-.055-.147-.116-.238-.168L151.9,335.5a7.119,7.119,0,0,0-6.412,0l-94.561,54.78c-1.082.625-1.493,1.494-1.247,2.307l-.075.044v1.761a5.166,5.166,0,0,0,2.588,4.476l47.184,27.158a7.113,7.113,0,0,0,6.412,0L200.2,371.351A4.558,4.558,0,0,0,202.023,365.412Z" fill="#3c5185" opacity="0.317"/>
        <path id="Trazado_2245" data-name="Trazado 2245" d="M201.662,365.37l-.274-.563a2.671,2.671,0,0,0-.771-.912c-.059-.054-.13-.1-.2-.156-.041-.027-.071-.065-.113-.09l-.073-.041c-.081-.056-.146-.116-.236-.168l-48.173-27.812a7.073,7.073,0,0,0-6.375,0L51.246,390.216c-1.077.621-1.485,1.485-1.24,2.294l-.075.044v1.75a5.136,5.136,0,0,0,2.573,4.451l46.915,27a7.073,7.073,0,0,0,6.375,0l94.057-54.483A4.533,4.533,0,0,0,201.662,365.37Z" fill="#3c5185" opacity="0.341"/>
        <path id="Trazado_2246" data-name="Trazado 2246" d="M201.3,365.329l-.272-.56a2.653,2.653,0,0,0-.767-.907c-.059-.054-.129-.1-.2-.155-.041-.026-.071-.065-.113-.089l-.071-.042c-.081-.055-.146-.115-.236-.166l-47.9-27.653a7.035,7.035,0,0,0-6.339,0l-93.849,54.4c-1.07.617-1.477,1.476-1.233,2.28l-.074.044v1.741a5.107,5.107,0,0,0,2.558,4.425l46.646,26.848a7.032,7.032,0,0,0,6.338,0L199.5,371.2A4.506,4.506,0,0,0,201.3,365.329Z" fill="#3c5185" opacity="0.366"/>
        <path id="Trazado_2247" data-name="Trazado 2247" d="M200.937,365.287l-.27-.557a2.661,2.661,0,0,0-.762-.9c-.058-.053-.129-.1-.194-.154-.04-.026-.07-.064-.112-.088l-.071-.041c-.08-.055-.145-.114-.234-.166l-47.62-27.493a6.988,6.988,0,0,0-6.3,0L51.878,390.091c-1.064.615-1.468,1.468-1.225,2.268l-.075.044v1.73a5.077,5.077,0,0,0,2.544,4.4L99.5,425.226a7,7,0,0,0,6.3,0l93.346-54.1A4.478,4.478,0,0,0,200.937,365.287Z" fill="#3c5185" opacity="0.39"/>
        <path id="Trazado_2248" data-name="Trazado 2248" d="M200.575,365.245l-.268-.553a2.624,2.624,0,0,0-.758-.9c-.058-.053-.128-.1-.193-.153-.04-.026-.07-.064-.111-.088l-.071-.041c-.08-.054-.144-.113-.233-.164L151.6,336.015a6.95,6.95,0,0,0-6.266,0L52.194,390.029c-1.057.611-1.459,1.46-1.218,2.255l-.074.043v1.721a5.046,5.046,0,0,0,2.529,4.373L99.538,424.96a6.956,6.956,0,0,0,6.266,0L198.8,371.049A4.454,4.454,0,0,0,200.575,365.245Z" fill="#3c5185" opacity="0.415"/>
        <path id="Trazado_2249" data-name="Trazado 2249" d="M200.214,365.2l-.268-.55a2.6,2.6,0,0,0-.753-.892c-.058-.053-.127-.1-.192-.152-.04-.026-.069-.064-.11-.088l-.071-.04c-.079-.054-.143-.113-.231-.164l-47.067-27.174a6.909,6.909,0,0,0-6.229,0L52.511,389.967c-1.052.607-1.451,1.451-1.212,2.242l-.073.042v1.711a5.018,5.018,0,0,0,2.514,4.348l45.838,26.383a6.909,6.909,0,0,0,6.229,0l92.637-53.72A4.427,4.427,0,0,0,200.214,365.2Z" fill="#3c5185" opacity="0.439"/>
        <path id="Trazado_2250" data-name="Trazado 2250" d="M199.852,365.162l-.266-.547a2.6,2.6,0,0,0-.749-.886c-.057-.053-.126-.1-.191-.151-.039-.026-.069-.064-.11-.087l-.07-.041c-.078-.053-.142-.112-.23-.162l-46.791-27.015a6.869,6.869,0,0,0-6.192,0L52.827,389.9c-1.045.6-1.443,1.442-1.2,2.228l-.073.043v1.7a4.989,4.989,0,0,0,2.5,4.323l45.569,26.228a6.869,6.869,0,0,0,6.192,0L198.093,370.9A4.4,4.4,0,0,0,199.852,365.162Z" fill="#3c5185" opacity="0.463"/>
        <path id="Trazado_2251" data-name="Trazado 2251" d="M199.49,365.121l-.265-.544a2.571,2.571,0,0,0-.744-.881c-.057-.052-.126-.1-.19-.15-.039-.026-.068-.064-.109-.087l-.069-.04c-.079-.054-.142-.112-.229-.162L151.369,336.4a6.829,6.829,0,0,0-6.155,0L53.143,389.843c-1.039.6-1.434,1.434-1.2,2.215l-.072.042v1.691a4.959,4.959,0,0,0,2.484,4.3l45.3,26.073a6.831,6.831,0,0,0,6.156,0l91.927-53.339A4.375,4.375,0,0,0,199.49,365.121Z" fill="#3c5185" opacity="0.488"/>
        <path id="Trazado_2252" data-name="Trazado 2252" d="M199.128,365.079l-.263-.54a2.565,2.565,0,0,0-.74-.876c-.057-.052-.125-.1-.189-.15-.039-.025-.068-.063-.108-.086l-.069-.04c-.078-.053-.141-.11-.227-.16l-46.239-26.7a6.791,6.791,0,0,0-6.119,0L53.46,389.781c-1.034.6-1.426,1.425-1.191,2.2l-.071.042v1.68a4.931,4.931,0,0,0,2.469,4.272L99.7,423.895a6.785,6.785,0,0,0,6.119,0l91.573-53.148A4.35,4.35,0,0,0,199.128,365.079Z" fill="#3c5185" opacity="0.512"/>
        <path id="Trazado_2253" data-name="Trazado 2253" d="M198.766,365.038l-.261-.538a2.555,2.555,0,0,0-.736-.871c-.056-.051-.124-.1-.187-.148-.039-.025-.068-.062-.108-.085l-.069-.04c-.077-.053-.14-.11-.226-.16L151.217,336.66a6.744,6.744,0,0,0-6.082,0L53.776,389.718c-1.027.593-1.417,1.417-1.183,2.189l-.072.042v1.67a4.9,4.9,0,0,0,2.455,4.246l44.762,25.764a6.751,6.751,0,0,0,6.082,0l91.218-52.958A4.323,4.323,0,0,0,198.766,365.038Z" fill="#3c5185" opacity="0.537"/>
        <path id="Trazado_2254" data-name="Trazado 2254" d="M198.4,365l-.26-.534a2.544,2.544,0,0,0-.731-.866c-.056-.051-.123-.1-.186-.147-.039-.025-.068-.062-.107-.085l-.069-.039c-.077-.053-.139-.11-.224-.159l-45.686-26.377a6.706,6.706,0,0,0-6.046,0l-91,52.867c-1.021.589-1.409,1.409-1.176,2.176l-.071.041v1.661a4.871,4.871,0,0,0,2.44,4.22l44.493,25.609a6.706,6.706,0,0,0,6.046,0L196.686,370.6A4.3,4.3,0,0,0,198.4,365Z" fill="#3c5185" opacity="0.561"/>
        <path id="Trazado_2255" data-name="Trazado 2255" d="M198.042,364.954l-.258-.53a2.518,2.518,0,0,0-.727-.861c-.056-.051-.123-.1-.185-.147-.039-.024-.067-.061-.107-.084l-.068-.039c-.076-.052-.138-.109-.223-.158l-45.409-26.217a6.666,6.666,0,0,0-6.009,0L54.408,389.594c-1.014.586-1.4,1.4-1.169,2.162l-.07.042v1.65a4.842,4.842,0,0,0,2.425,4.2L99.818,423.1a6.666,6.666,0,0,0,6.009,0l90.508-52.576A4.273,4.273,0,0,0,198.042,364.954Z" fill="#3c5185" opacity="0.585"/>
        <path id="Trazado_2256" data-name="Trazado 2256" d="M197.68,364.913l-.257-.528a2.5,2.5,0,0,0-.722-.855c-.055-.05-.122-.1-.184-.146-.038-.024-.066-.061-.106-.084l-.067-.039c-.076-.051-.138-.108-.222-.156l-45.133-26.058a6.628,6.628,0,0,0-5.973,0L54.725,389.532c-1.009.582-1.392,1.391-1.162,2.149l-.07.041v1.64a4.811,4.811,0,0,0,2.411,4.17l43.954,25.3a6.626,6.626,0,0,0,5.972,0l90.153-52.386A4.246,4.246,0,0,0,197.68,364.913Z" fill="#3c5185" opacity="0.61"/>
        <path id="Trazado_2257" data-name="Trazado 2257" d="M197.318,364.871l-.255-.524a2.5,2.5,0,0,0-.718-.85c-.055-.05-.121-.1-.183-.145-.038-.024-.066-.061-.1-.083l-.067-.039c-.076-.051-.137-.107-.221-.156l-44.856-25.9a6.588,6.588,0,0,0-5.936,0L55.041,389.47c-1,.578-1.383,1.383-1.155,2.136l-.069.041v1.63a4.782,4.782,0,0,0,2.4,4.144L99.9,422.565a6.588,6.588,0,0,0,5.936,0l89.8-52.2A4.221,4.221,0,0,0,197.318,364.871Z" fill="#3c5185" opacity="0.634"/>
        <path id="Trazado_2258" data-name="Trazado 2258" d="M196.956,364.829l-.253-.521a2.473,2.473,0,0,0-.714-.844c-.055-.05-.12-.1-.182-.144-.037-.025-.065-.061-.1-.083l-.067-.038c-.075-.052-.136-.107-.219-.155L150.837,337.3a6.549,6.549,0,0,0-5.9,0l-89.58,52.1c-1,.576-1.374,1.375-1.147,2.123l-.07.041v1.62a4.753,4.753,0,0,0,2.382,4.119L99.937,422.3a6.55,6.55,0,0,0,5.9,0l89.443-52.005A4.2,4.2,0,0,0,196.956,364.829Z" fill="#3c5185" opacity="0.659"/>
        <path id="Trazado_2259" data-name="Trazado 2259" d="M196.594,364.788l-.252-.518a2.442,2.442,0,0,0-.709-.839c-.054-.05-.12-.1-.181-.143-.037-.025-.065-.06-.1-.083l-.066-.038c-.074-.051-.135-.106-.218-.154l-44.3-25.579a6.5,6.5,0,0,0-5.863,0L55.673,389.345c-.989.572-1.366,1.366-1.14,2.11l-.069.04v1.61a4.725,4.725,0,0,0,2.367,4.094l43.146,24.834a6.509,6.509,0,0,0,5.863,0l89.088-51.814A4.168,4.168,0,0,0,196.594,364.788Z" fill="#3c5185" opacity="0.683"/>
        <path id="Trazado_2260" data-name="Trazado 2260" d="M196.232,364.746l-.25-.514a2.436,2.436,0,0,0-.705-.834c-.054-.05-.119-.1-.18-.143-.037-.024-.064-.059-.1-.081l-.066-.038c-.074-.051-.134-.106-.216-.153l-44.027-25.42a6.465,6.465,0,0,0-5.827,0L55.99,389.283c-.984.568-1.358,1.357-1.134,2.1l-.068.04v1.6a4.692,4.692,0,0,0,2.352,4.067l42.877,24.679a6.465,6.465,0,0,0,5.827,0l88.733-51.623A4.142,4.142,0,0,0,196.232,364.746Z" fill="#3c5185" opacity="0.707"/>
        <path id="Trazado_2261" data-name="Trazado 2261" d="M195.87,364.7l-.249-.512a2.42,2.42,0,0,0-.7-.828c-.054-.049-.118-.1-.178-.142-.037-.024-.065-.059-.1-.081l-.065-.038c-.074-.05-.134-.105-.215-.152l-43.751-25.26a6.425,6.425,0,0,0-5.79,0L56.306,389.221c-.978.564-1.349,1.349-1.126,2.084l-.068.039v1.59a4.664,4.664,0,0,0,2.337,4.042L100.057,421.5a6.424,6.424,0,0,0,5.79,0l88.378-51.433A4.117,4.117,0,0,0,195.87,364.7Z" fill="#3c5185" opacity="0.732"/>
        <path id="Trazado_2262" data-name="Trazado 2262" d="M195.508,364.663l-.247-.508a2.427,2.427,0,0,0-.7-.824c-.053-.048-.117-.093-.177-.14-.037-.024-.064-.059-.1-.081l-.065-.037c-.073-.05-.133-.105-.214-.151l-43.474-25.1a6.386,6.386,0,0,0-5.754,0L56.622,389.159c-.971.56-1.34,1.34-1.119,2.07l-.068.04v1.58a4.635,4.635,0,0,0,2.323,4.016L100.1,421.234a6.384,6.384,0,0,0,5.753,0l88.024-51.242A4.09,4.09,0,0,0,195.508,364.663Z" fill="#3c5185" opacity="0.756"/>
        <path id="Trazado_2263" data-name="Trazado 2263" d="M195.146,364.622l-.246-.506a2.39,2.39,0,0,0-.691-.818c-.053-.048-.117-.093-.176-.139-.037-.024-.064-.059-.1-.081l-.065-.037c-.073-.049-.131-.1-.212-.15l-43.2-24.941a6.346,6.346,0,0,0-5.717,0L56.938,389.1c-.965.558-1.331,1.332-1.111,2.058l-.068.039v1.57a4.605,4.605,0,0,0,2.308,3.991l42.07,24.214a6.34,6.34,0,0,0,5.717,0l87.668-51.051A4.065,4.065,0,0,0,195.146,364.622Z" fill="#3c5185" opacity="0.78"/>
        <path id="Trazado_2264" data-name="Trazado 2264" d="M194.784,364.58l-.244-.5a2.373,2.373,0,0,0-.687-.813c-.053-.048-.116-.092-.175-.138-.036-.024-.063-.059-.1-.08l-.064-.037c-.072-.05-.13-.1-.211-.15l-42.921-24.781a6.308,6.308,0,0,0-5.681,0L57.255,389.034c-.959.554-1.324,1.324-1.1,2.044l-.067.04v1.559a4.575,4.575,0,0,0,2.293,3.965l41.8,24.06a6.3,6.3,0,0,0,5.68,0l87.313-50.861A4.038,4.038,0,0,0,194.784,364.58Z" fill="#3c5185" opacity="0.805"/>
        <path id="Trazado_2265" data-name="Trazado 2265" d="M194.422,364.538l-.242-.5a2.367,2.367,0,0,0-.683-.808c-.052-.048-.115-.092-.174-.138-.036-.023-.063-.058-.1-.079l-.064-.037c-.071-.049-.129-.1-.209-.148L150.3,338.209a6.259,6.259,0,0,0-5.643,0l-87.09,50.763c-.953.55-1.315,1.315-1.1,2.031l-.066.039v1.55a4.545,4.545,0,0,0,2.278,3.939l41.532,23.9a6.259,6.259,0,0,0,5.643,0l86.959-50.67A4.013,4.013,0,0,0,194.422,364.538Z" fill="#3c5185" opacity="0.829"/>
        <path id="Trazado_2266" data-name="Trazado 2266" d="M194.06,364.5l-.241-.5a2.351,2.351,0,0,0-.678-.8c-.052-.048-.114-.091-.173-.137-.035-.023-.062-.058-.1-.079l-.064-.036c-.071-.049-.128-.1-.208-.148l-42.369-24.462a6.221,6.221,0,0,0-5.607,0L57.887,388.91c-.946.546-1.306,1.306-1.09,2.018l-.066.038v1.54a4.517,4.517,0,0,0,2.263,3.914l41.263,23.75a6.221,6.221,0,0,0,5.607,0l86.6-50.48A3.985,3.985,0,0,0,194.06,364.5Z" fill="#3c5185" opacity="0.854"/>
        <path id="Trazado_2267" data-name="Trazado 2267" d="M193.7,364.455l-.239-.492a2.336,2.336,0,0,0-.674-.8c-.051-.047-.114-.091-.172-.136-.035-.023-.061-.057-.1-.079l-.063-.036c-.071-.048-.128-.1-.207-.146l-42.093-24.3a6.175,6.175,0,0,0-5.57,0L58.2,388.848c-.941.543-1.3,1.3-1.084,2l-.065.039v1.529a4.488,4.488,0,0,0,2.248,3.889L100.3,419.9a6.183,6.183,0,0,0,5.571,0l86.248-50.289A3.96,3.96,0,0,0,193.7,364.455Z" fill="#3c5185" opacity="0.878"/>
        <path id="Trazado_2268" data-name="Trazado 2268" d="M193.336,364.414l-.238-.489a2.3,2.3,0,0,0-.669-.792c-.051-.047-.113-.09-.171-.136-.035-.022-.061-.056-.1-.077l-.062-.036c-.07-.048-.127-.1-.206-.146L150.076,338.6a6.136,6.136,0,0,0-5.534,0L58.52,388.786c-.934.539-1.29,1.289-1.076,1.991l-.066.038v1.52a4.459,4.459,0,0,0,2.234,3.863l40.724,23.44a6.143,6.143,0,0,0,5.534,0l85.894-50.1A3.933,3.933,0,0,0,193.336,364.414Z" fill="#3c5185" opacity="0.902"/>
        <path id="Trazado_2269" data-name="Trazado 2269" d="M192.974,364.372l-.236-.486a2.292,2.292,0,0,0-.665-.786c-.051-.047-.112-.09-.169-.135-.035-.023-.061-.056-.1-.077l-.062-.036c-.07-.047-.126-.1-.2-.144L150,338.725a6.1,6.1,0,0,0-5.5,0l-85.667,50c-.928.535-1.281,1.28-1.069,1.978l-.065.038v1.509a4.431,4.431,0,0,0,2.219,3.838l40.455,23.285a6.1,6.1,0,0,0,5.5,0l85.539-49.908A3.908,3.908,0,0,0,192.974,364.372Z" fill="#3c5185" opacity="0.927"/>
        <path id="Trazado_2270" data-name="Trazado 2270" d="M192.612,364.33l-.235-.482a2.284,2.284,0,0,0-.66-.782c-.05-.046-.111-.088-.168-.133-.035-.023-.061-.056-.1-.077l-.062-.035c-.069-.048-.125-.1-.2-.144l-41.264-23.823a6.058,6.058,0,0,0-5.461,0L59.152,388.661c-.922.532-1.272,1.272-1.062,1.965l-.064.038v1.5a4.4,4.4,0,0,0,2.2,3.812l40.186,23.13a6.064,6.064,0,0,0,5.461,0l85.184-49.718A3.882,3.882,0,0,0,192.612,364.33Z" fill="#3c5185" opacity="0.951"/>
        <path id="Trazado_2271" data-name="Trazado 2271" d="M192.25,364.289l-.233-.479a2.267,2.267,0,0,0-.656-.777c-.05-.046-.111-.088-.167-.132-.034-.023-.06-.056-.1-.076l-.062-.036c-.068-.047-.124-.1-.2-.142l-40.987-23.664a6.018,6.018,0,0,0-5.424,0L59.469,388.6c-.916.529-1.264,1.264-1.055,1.952l-.064.037v1.49a4.368,4.368,0,0,0,2.189,3.786l39.917,22.976a6.018,6.018,0,0,0,5.424,0l84.829-49.527A3.855,3.855,0,0,0,192.25,364.289Z" fill="#3c5185" opacity="0.976"/>
        <path id="Trazado_2272" data-name="Trazado 2272" d="M191.888,364.247l-.231-.476a2.276,2.276,0,0,0-.652-.771c-.05-.046-.11-.087-.166-.131-.034-.023-.06-.056-.1-.076l-.061-.035c-.069-.047-.124-.1-.2-.142l-40.711-23.5a5.971,5.971,0,0,0-5.387,0l-84.6,49.425c-.91.525-1.255,1.255-1.048,1.939l-.063.037v1.479a4.34,4.34,0,0,0,2.174,3.761L100.5,418.574a5.978,5.978,0,0,0,5.387,0l84.474-49.337A3.828,3.828,0,0,0,191.888,364.247Z" fill="#3c5185"/>
      </g>
      <g id="Grupo_734" data-name="Grupo 734">
        <g id="Grupo_733" data-name="Grupo 733">
          <path id="Trazado_2273" data-name="Trazado 2273" d="M49.222,390.44V388.6l98.224-57.7c1.844-1.065,4.013-1.715,5.857-.65l51.568,29.605a2.837,2.837,0,0,1,1.136,1.218l.288.593a4.765,4.765,0,0,1-1.9,6.21l-96.411,55.643a7.443,7.443,0,0,1-6.706,0l-49.345-28.4A5.4,5.4,0,0,1,49.222,390.44Z" fill="url(#linear-gradient-2)"/>
          <path id="Trazado_2274" data-name="Trazado 2274" d="M50.6,390.011c-1.844-1.065-1.844-2.807,0-3.871l96.568-55.754a7.441,7.441,0,0,1,6.705,0l50.668,29.254c1.844,1.064,1.844,2.807,0,3.871l-96.567,55.753a7.437,7.437,0,0,1-6.706,0Z" fill="#f3f8fe"/>
          <path id="Trazado_2275" data-name="Trazado 2275" d="M52.736,389.865c-1.775-1.025-1.775-2.7,0-3.727l94.447-54.514a7.166,7.166,0,0,1,6.455,0l8.856,5.247a.861.861,0,0,1,.06,1.448l-.978.685a.98.98,0,0,0,0,1.7l24.1,13.831a2.129,2.129,0,0,0,2.078.032l2.093-1.128a1.57,1.57,0,0,1,1.532.023l11.031,6.327c1.776,1.025,1.776,2.7,0,3.727l-94.445,54.513a7.16,7.16,0,0,1-6.455,0Z" fill="#a5cbef"/>
          <g id="Grupo_732" data-name="Grupo 732">
            <path id="Trazado_2276" data-name="Trazado 2276" d="M180.242,349.13a.289.289,0,0,1-.149-.041l-10.63-6.121a.3.3,0,0,1,.3-.517l10.629,6.122a.3.3,0,0,1-.149.557Z" fill="#a5cbef"/>
          </g>
        </g>
      </g>
    </g>
    <g id="Grupo_743" data-name="Grupo 743">
      <g id="Grupo_736" data-name="Grupo 736" style="mix-blend-mode: multiply;isolation: isolate">
        <path id="Trazado_2277" data-name="Trazado 2277" d="M118.663,408.6,177.7,374.316a2.354,2.354,0,0,0-.005-4.074L137.28,346.911a3.99,3.99,0,0,0-4,0L74.251,381.194a2.355,2.355,0,0,0,0,4.075L114.667,408.6A3.988,3.988,0,0,0,118.663,408.6Z" fill="#fff" opacity="0"/>
        <path id="Trazado_2278" data-name="Trazado 2278" d="M118.694,408.4l58.787-34.136a2.345,2.345,0,0,0-.006-4.058L137.233,346.97a3.972,3.972,0,0,0-3.98.005L74.467,381.11a2.344,2.344,0,0,0,0,4.058L114.714,408.4A3.97,3.97,0,0,0,118.694,408.4Z" fill="#fafbfc" opacity="0.024"/>
        <path id="Trazado_2279" data-name="Trazado 2279" d="M118.724,408.2,177.265,374.2a2.334,2.334,0,0,0-.005-4.04l-40.074-23.136a3.953,3.953,0,0,0-3.963,0L74.682,381.026a2.335,2.335,0,0,0,0,4.041L114.761,408.2A3.951,3.951,0,0,0,118.724,408.2Z" fill="#f5f7f9" opacity="0.049"/>
        <path id="Trazado_2280" data-name="Trazado 2280" d="M118.755,408l58.3-33.85a2.325,2.325,0,0,0-.005-4.023l-39.906-23.04a3.94,3.94,0,0,0-3.947.005L74.9,380.942a2.325,2.325,0,0,0,0,4.024l39.906,23.039A3.938,3.938,0,0,0,118.755,408Z" fill="#f1f2f6" opacity="0.073"/>
        <path id="Trazado_2281" data-name="Trazado 2281" d="M118.785,407.8l58.05-33.708a2.315,2.315,0,0,0-.005-4.006l-39.738-22.942a3.918,3.918,0,0,0-3.93.005L75.113,380.858a2.314,2.314,0,0,0,0,4.006l39.737,22.943A3.923,3.923,0,0,0,118.785,407.8Z" fill="#eceef3" opacity="0.098"/>
        <path id="Trazado_2282" data-name="Trazado 2282" d="M118.816,407.6l57.8-33.565a2.3,2.3,0,0,0-.005-3.99L137.045,347.2a3.907,3.907,0,0,0-3.914.005l-57.8,33.565a2.3,2.3,0,0,0,0,3.989L114.9,407.609A3.908,3.908,0,0,0,118.816,407.6Z" fill="#e7eaf0" opacity="0.122"/>
        <path id="Trazado_2283" data-name="Trazado 2283" d="M118.846,407.406,176.4,373.984a2.3,2.3,0,0,0-.005-3.973L137,347.263a3.886,3.886,0,0,0-3.9.005L75.543,380.69a2.3,2.3,0,0,0,0,3.972l39.4,22.749A3.89,3.89,0,0,0,118.846,407.406Z" fill="#e2e6ed" opacity="0.146"/>
        <path id="Trazado_2284" data-name="Trazado 2284" d="M118.876,407.208l57.313-33.28a2.286,2.286,0,0,0,0-3.956l-39.234-22.65a3.871,3.871,0,0,0-3.88,0l-57.312,33.28a2.285,2.285,0,0,0,0,3.955L115,407.212A3.871,3.871,0,0,0,118.876,407.208Z" fill="#dee1ea" opacity="0.171"/>
        <path id="Trazado_2285" data-name="Trazado 2285" d="M118.907,407.009l57.066-33.137a2.275,2.275,0,0,0-.005-3.938L136.9,347.38a3.856,3.856,0,0,0-3.863.005L75.974,380.522a2.275,2.275,0,0,0,0,3.938l39.064,22.554A3.853,3.853,0,0,0,118.907,407.009Z" fill="#d9dde7" opacity="0.195"/>
        <path id="Trazado_2286" data-name="Trazado 2286" d="M118.937,406.811l56.821-32.994a2.266,2.266,0,0,0,0-3.922l-38.9-22.456a3.836,3.836,0,0,0-3.846,0L76.189,380.437a2.266,2.266,0,0,0,0,3.922l38.9,22.457A3.836,3.836,0,0,0,118.937,406.811Z" fill="#d4d9e4" opacity="0.22"/>
        <path id="Trazado_2287" data-name="Trazado 2287" d="M118.968,406.613l56.575-32.851a2.256,2.256,0,0,0-.005-3.9L136.809,347.5a3.823,3.823,0,0,0-3.83.005L76.4,380.353a2.256,2.256,0,0,0,0,3.9l38.729,22.36A3.824,3.824,0,0,0,118.968,406.613Z" fill="#cfd5e1" opacity="0.244"/>
        <path id="Trazado_2288" data-name="Trazado 2288" d="M119,406.415l56.329-32.709a2.246,2.246,0,0,0,0-3.888l-38.561-22.262a3.8,3.8,0,0,0-3.813.005L76.62,380.269a2.247,2.247,0,0,0,0,3.888l38.561,22.263A3.806,3.806,0,0,0,119,406.415Z" fill="#cbd0de" opacity="0.268"/>
        <path id="Trazado_2289" data-name="Trazado 2289" d="M119.029,406.217l56.083-32.566a2.236,2.236,0,0,0-.005-3.871l-38.392-22.166a3.791,3.791,0,0,0-3.8,0L76.835,380.185a2.236,2.236,0,0,0,0,3.871l38.392,22.165A3.789,3.789,0,0,0,119.029,406.217Z" fill="#c6ccdb" opacity="0.293"/>
        <path id="Trazado_2290" data-name="Trazado 2290" d="M119.059,406.019,174.9,373.6a2.227,2.227,0,0,0-.005-3.854l-38.224-22.068a3.771,3.771,0,0,0-3.78.005L77.05,380.1a2.227,2.227,0,0,0,0,3.854l38.224,22.068A3.772,3.772,0,0,0,119.059,406.019Z" fill="#c1c8d8" opacity="0.317"/>
        <path id="Trazado_2291" data-name="Trazado 2291" d="M119.089,405.82l55.593-32.28a2.217,2.217,0,0,0-.005-3.837l-38.056-21.971a3.756,3.756,0,0,0-3.764,0L77.266,380.017a2.217,2.217,0,0,0,0,3.837l38.056,21.971A3.752,3.752,0,0,0,119.089,405.82Z" fill="#bcc4d5" opacity="0.341"/>
        <path id="Trazado_2292" data-name="Trazado 2292" d="M119.12,405.622l55.346-32.138a2.207,2.207,0,0,0-.005-3.82L136.574,347.79a3.739,3.739,0,0,0-3.747.005L77.481,379.933a2.207,2.207,0,0,0,0,3.82l37.887,21.874A3.739,3.739,0,0,0,119.12,405.622Z" fill="#b8bfd2" opacity="0.366"/>
        <path id="Trazado_2293" data-name="Trazado 2293" d="M119.15,405.424l55.1-32a2.2,2.2,0,0,0-.005-3.8l-37.719-21.777a3.722,3.722,0,0,0-3.73,0l-55.1,32a2.2,2.2,0,0,0,0,3.8l37.719,21.777A3.722,3.722,0,0,0,119.15,405.424Z" fill="#b3bbcf" opacity="0.39"/>
        <path id="Trazado_2294" data-name="Trazado 2294" d="M119.181,405.226l54.855-31.853a2.188,2.188,0,0,0,0-3.786l-37.551-21.68a3.709,3.709,0,0,0-3.714,0L77.912,379.764a2.187,2.187,0,0,0,0,3.786l37.551,21.68A3.706,3.706,0,0,0,119.181,405.226Z" fill="#aeb7cc" opacity="0.415"/>
        <path id="Trazado_2295" data-name="Trazado 2295" d="M119.211,405.028l54.609-31.71a2.178,2.178,0,0,0,0-3.769l-37.383-21.583a3.689,3.689,0,0,0-3.7.005L78.127,379.68a2.177,2.177,0,0,0,.005,3.769l37.382,21.583A3.689,3.689,0,0,0,119.211,405.028Z" fill="#a9b3c9" opacity="0.439"/>
        <path id="Trazado_2296" data-name="Trazado 2296" d="M119.242,404.829,173.6,373.262a2.168,2.168,0,0,0,0-3.752l-37.214-21.485a3.674,3.674,0,0,0-3.681,0L78.342,379.6a2.168,2.168,0,0,0,0,3.752l37.214,21.486A3.672,3.672,0,0,0,119.242,404.829Z" fill="#a5aec6" opacity="0.463"/>
        <path id="Trazado_2297" data-name="Trazado 2297" d="M119.272,404.631l54.118-31.424a2.158,2.158,0,0,0-.005-3.735l-37.046-21.389a3.657,3.657,0,0,0-3.664.005L78.557,379.512a2.158,2.158,0,0,0,0,3.735l37.046,21.389A3.654,3.654,0,0,0,119.272,404.631Z" fill="#a0aac3" opacity="0.488"/>
        <path id="Trazado_2298" data-name="Trazado 2298" d="M119.3,404.433l53.872-31.282a2.148,2.148,0,0,0,0-3.718l-36.879-21.291a3.64,3.64,0,0,0-3.647,0L78.773,379.428a2.148,2.148,0,0,0,0,3.718l36.878,21.292A3.64,3.64,0,0,0,119.3,404.433Z" fill="#9ba6c1" opacity="0.512"/>
        <path id="Trazado_2299" data-name="Trazado 2299" d="M119.333,404.235,172.959,373.1a2.138,2.138,0,0,0-.005-3.7L136.244,348.2a3.622,3.622,0,0,0-3.63,0L78.988,379.344a2.138,2.138,0,0,0,0,3.7L115.7,404.239A3.622,3.622,0,0,0,119.333,404.235Z" fill="#96a2be" opacity="0.537"/>
        <path id="Trazado_2300" data-name="Trazado 2300" d="M119.363,404.037l53.381-31a2.128,2.128,0,0,0-.005-3.684l-36.542-21.1a3.6,3.6,0,0,0-3.613.005l-53.381,31a2.128,2.128,0,0,0,0,3.684l36.541,21.1A3.607,3.607,0,0,0,119.363,404.037Z" fill="#929dbb" opacity="0.561"/>
        <path id="Trazado_2301" data-name="Trazado 2301" d="M119.394,403.839l53.134-30.854a2.119,2.119,0,0,0,0-3.668l-36.374-21a3.59,3.59,0,0,0-3.6,0L79.419,379.176a2.119,2.119,0,0,0,0,3.667l36.374,21A3.59,3.59,0,0,0,119.394,403.839Z" fill="#8d99b8" opacity="0.585"/>
        <path id="Trazado_2302" data-name="Trazado 2302" d="M119.424,403.64l52.889-30.711a2.109,2.109,0,0,0,0-3.65l-36.206-20.9a3.573,3.573,0,0,0-3.58.005L79.634,379.092a2.108,2.108,0,0,0,0,3.65l36.205,20.9A3.57,3.57,0,0,0,119.424,403.64Z" fill="#8895b5" opacity="0.61"/>
        <path id="Trazado_2303" data-name="Trazado 2303" d="M119.455,403.442,172.1,372.874a2.1,2.1,0,0,0-.005-3.634l-36.037-20.8a3.557,3.557,0,0,0-3.564,0L79.849,379.007a2.1,2.1,0,0,0,0,3.634l36.037,20.806A3.555,3.555,0,0,0,119.455,403.442Z" fill="#8391b2" opacity="0.634"/>
        <path id="Trazado_2304" data-name="Trazado 2304" d="M119.485,403.244l52.4-30.426a2.089,2.089,0,0,0,0-3.616l-35.869-20.708a3.538,3.538,0,0,0-3.547,0l-52.4,30.425a2.09,2.09,0,0,0,0,3.617l35.869,20.708A3.538,3.538,0,0,0,119.485,403.244Z" fill="#7f8caf" opacity="0.659"/>
        <path id="Trazado_2305" data-name="Trazado 2305" d="M119.515,403.046l52.152-30.283a2.079,2.079,0,0,0,0-3.6l-35.7-20.612a3.523,3.523,0,0,0-3.531.005L80.28,378.839a2.08,2.08,0,0,0,0,3.6l35.7,20.611A3.521,3.521,0,0,0,119.515,403.046Z" fill="#7a88ac" opacity="0.683"/>
        <path id="Trazado_2306" data-name="Trazado 2306" d="M119.546,402.848l51.906-30.14a2.07,2.07,0,0,0,0-3.583l-35.532-20.514a3.505,3.505,0,0,0-3.514,0L80.5,378.755a2.07,2.07,0,0,0,0,3.583l35.532,20.514A3.508,3.508,0,0,0,119.546,402.848Z" fill="#7584a9" opacity="0.707"/>
        <path id="Trazado_2307" data-name="Trazado 2307" d="M119.576,402.65l51.661-30a2.06,2.06,0,0,0-.005-3.566l-35.364-20.417a3.49,3.49,0,0,0-3.5.005l-51.659,30a2.06,2.06,0,0,0,0,3.566l35.364,20.417A3.491,3.491,0,0,0,119.576,402.65Z" fill="#7080a6" opacity="0.732"/>
        <path id="Trazado_2308" data-name="Trazado 2308" d="M119.607,402.451,171.021,372.6a2.05,2.05,0,0,0,0-3.548l-35.2-20.32a3.475,3.475,0,0,0-3.481,0L80.926,378.587a2.051,2.051,0,0,0,0,3.549l35.2,20.32A3.473,3.473,0,0,0,119.607,402.451Z" fill="#6c7ba3" opacity="0.756"/>
        <path id="Trazado_2309" data-name="Trazado 2309" d="M119.637,402.253l51.169-29.712a2.041,2.041,0,0,0,0-3.532l-35.028-20.222a3.453,3.453,0,0,0-3.464,0L81.141,378.5a2.04,2.04,0,0,0,0,3.531l35.028,20.224A3.456,3.456,0,0,0,119.637,402.253Z" fill="#6777a0" opacity="0.78"/>
        <path id="Trazado_2310" data-name="Trazado 2310" d="M119.668,402.055l50.923-29.569a2.031,2.031,0,0,0-.005-3.515l-34.859-20.126a3.443,3.443,0,0,0-3.448,0l-50.923,29.57a2.03,2.03,0,0,0,0,3.514l34.859,20.126A3.44,3.44,0,0,0,119.668,402.055Z" fill="#62739d" opacity="0.805"/>
        <path id="Trazado_2311" data-name="Trazado 2311" d="M119.7,401.857l50.677-29.427a2.021,2.021,0,0,0,0-3.5L135.68,348.9a3.423,3.423,0,0,0-3.431,0L81.572,378.335a2.02,2.02,0,0,0,0,3.5l34.691,20.029A3.423,3.423,0,0,0,119.7,401.857Z" fill="#5d6f9a" opacity="0.829"/>
        <path id="Trazado_2312" data-name="Trazado 2312" d="M119.728,401.659l50.432-29.284a2.011,2.011,0,0,0,0-3.481l-34.523-19.932a3.408,3.408,0,0,0-3.415.005L81.787,378.251a2.011,2.011,0,0,0,0,3.48l34.523,19.932A3.406,3.406,0,0,0,119.728,401.659Z" fill="#596a97" opacity="0.854"/>
        <path id="Trazado_2313" data-name="Trazado 2313" d="M119.759,401.461l50.186-29.142a2,2,0,0,0-.005-3.464l-34.354-19.834a3.391,3.391,0,0,0-3.4,0L82,378.166a2,2,0,0,0,.005,3.464l34.354,19.835A3.393,3.393,0,0,0,119.759,401.461Z" fill="#546694" opacity="0.878"/>
        <path id="Trazado_2314" data-name="Trazado 2314" d="M119.789,401.262l49.94-29a1.991,1.991,0,0,0,0-3.447l-34.187-19.738a3.373,3.373,0,0,0-3.381.005l-49.939,29a1.991,1.991,0,0,0,0,3.447l34.186,19.738A3.374,3.374,0,0,0,119.789,401.262Z" fill="#4f6291" opacity="0.902"/>
        <path id="Trazado_2315" data-name="Trazado 2315" d="M119.82,401.064l49.694-28.856a1.982,1.982,0,0,0,0-3.43l-34.019-19.64a3.359,3.359,0,0,0-3.364,0L82.433,378a1.982,1.982,0,0,0,0,3.43l34.018,19.64A3.356,3.356,0,0,0,119.82,401.064Z" fill="#4a5e8e" opacity="0.927"/>
        <path id="Trazado_2316" data-name="Trazado 2316" d="M119.85,400.866,169.3,372.153a1.972,1.972,0,0,0,0-3.413L135.444,349.2a3.339,3.339,0,0,0-3.347,0L82.648,377.914a1.972,1.972,0,0,0,0,3.413L116.5,400.87A3.339,3.339,0,0,0,119.85,400.866Z" fill="#46598b" opacity="0.951"/>
        <path id="Trazado_2317" data-name="Trazado 2317" d="M119.881,400.668l49.2-28.571a1.962,1.962,0,0,0-.005-3.4L135.4,349.255a3.326,3.326,0,0,0-3.331,0l-49.2,28.571a1.962,1.962,0,0,0,0,3.4l33.682,19.446A3.324,3.324,0,0,0,119.881,400.668Z" fill="#415588" opacity="0.976"/>
        <path id="Trazado_2318" data-name="Trazado 2318" d="M119.911,400.47l48.957-28.428a1.952,1.952,0,0,0,0-3.379L135.35,349.314a3.307,3.307,0,0,0-3.314,0L83.079,377.746a1.952,1.952,0,0,0,0,3.379L116.6,400.474A3.307,3.307,0,0,0,119.911,400.47Z" fill="#3c5185"/>
      </g>
      <path id="Trazado_2319" data-name="Trazado 2319" d="M78.969,376.069l4.831-2.552,84.793-9.372,4.831,2.553L118.24,398.739Z" fill="#4a65a3"/>
      <path id="Trazado_2320" data-name="Trazado 2320" d="M83.8,336.424v39.767l34.439,19.883V356.308Z" fill="#edf5fc"/>
      <path id="Trazado_2321" data-name="Trazado 2321" d="M90.663,356.193v8.2l16.974,9.769v-8.2Z" fill="#a5cbef"/>
      <path id="Trazado_2322" data-name="Trazado 2322" d="M168.593,327.053V366.82L118.24,396.075V356.308Z" fill="#e4effa"/>
      <path id="Trazado_2323" data-name="Trazado 2323" d="M118.239,356.31l55.185-32.044-39.27-22.672L78.969,333.638Z" fill="#6e84b5"/>
      <path id="Trazado_2324" data-name="Trazado 2324" d="M118.239,351.375l46.636-27.109L134.154,306.53,87.518,333.638Z" fill="#3c5185"/>
      <path id="Trazado_2325" data-name="Trazado 2325" d="M78.969,333.638v4.451l39.27,22.849v-4.631Z" fill="#5c74ac"/>
      <path id="Trazado_2326" data-name="Trazado 2326" d="M173.424,324.266v4.452L118.24,360.939v-4.631Z" fill="#4a65a3"/>
      <path id="Trazado_2327" data-name="Trazado 2327" d="M78.969,376.069v4.452l39.27,22.849v-4.631Z" fill="#5c74ac"/>
      <path id="Trazado_2328" data-name="Trazado 2328" d="M173.424,366.7v4.452L118.24,403.37v-4.631Z" fill="#4a65a3"/>
      <path id="Trazado_2329" data-name="Trazado 2329" d="M134.154,306.53v4.551L91.6,335.992l-4.077-2.357Z" fill="#5c74ac"/>
      <path id="Trazado_2330" data-name="Trazado 2330" d="M134.154,306.53v4.551l26.644,15.54,4.077-2.357Z" fill="#536da8"/>
      <path id="Trazado_2331" data-name="Trazado 2331" d="M155.568,348.984V366.09L120.46,386.575V369.469Z" fill="#a5cbef"/>
      <path id="Trazado_2332" data-name="Trazado 2332" d="M166.328,342.671v25.456l-8.918,5.149V347.939Z" fill="#a5cbef"/>
      <g id="Grupo_737" data-name="Grupo 737">
        <path id="Trazado_2333" data-name="Trazado 2333" d="M130.08,380.962l15.135-25.937-3.906,2.279L126.15,383.255Z" fill="#c9e0f5"/>
        <path id="Trazado_2334" data-name="Trazado 2334" d="M139.369,358.435l-6.235,3.638L120.46,383.718v2.857l3.786-2.209Z" fill="#c9e0f5"/>
      </g>
      <g id="Grupo_738" data-name="Grupo 738">
        <path id="Trazado_2335" data-name="Trazado 2335" d="M166.258,342.713l-8.847,15.109v7.1l8.918-15.291v-6.961Z" fill="#c9e0f5"/>
        <path id="Trazado_2336" data-name="Trazado 2336" d="M166.328,356.236v-4.426l-8.918,15.267v4.442Z" fill="#c9e0f5"/>
      </g>
      <g id="Grupo_739" data-name="Grupo 739">
        <path id="Trazado_2337" data-name="Trazado 2337" d="M174.323,341.835v3.455a7.271,7.271,0,0,1-3.141,5.44c-1.727,1.092-3.141.353-3.141-1.642v-3.627Z" fill="url(#linear-gradient-3)"/>
        <path id="Trazado_2338" data-name="Trazado 2338" d="M168.041,345.437v3.456a7.271,7.271,0,0,1-3.141,5.44c-1.727,1.092-3.141.353-3.141-1.642v-3.627Z" fill="#fff"/>
        <path id="Trazado_2339" data-name="Trazado 2339" d="M161.759,349.04V352.5a7.272,7.272,0,0,1-3.141,5.44c-1.727,1.092-3.141.353-3.141-1.642v-3.627Z" fill="url(#linear-gradient-4)"/>
        <path id="Trazado_2340" data-name="Trazado 2340" d="M149.2,356.246V359.7a7.275,7.275,0,0,1-3.141,5.44c-1.727,1.092-3.141.353-3.141-1.642v-3.627Z" fill="url(#linear-gradient-5)"/>
        <path id="Trazado_2341" data-name="Trazado 2341" d="M155.477,352.617v3.455a7.275,7.275,0,0,1-3.141,5.441c-1.727,1.091-3.141.352-3.141-1.643v-3.626Z" fill="#fff"/>
        <path id="Trazado_2342" data-name="Trazado 2342" d="M142.228,360.192l-5.828-5.433-5.6,3.284v.7l5.143,5.054Z" fill="#fff"/>
        <path id="Trazado_2343" data-name="Trazado 2343" d="M142.913,359.849V363.3a7.275,7.275,0,0,1-3.141,5.44c-1.727,1.091-3.141.352-3.141-1.642v-3.627Z" fill="#fff"/>
        <path id="Trazado_2344" data-name="Trazado 2344" d="M174.323,341.835,168.5,336.4l-6.282,3.627,5.828,5.408Z" fill="url(#linear-gradient-6)"/>
        <path id="Trazado_2345" data-name="Trazado 2345" d="M168.041,345.437,162.213,340l-6.282,3.627,5.828,5.408Z" fill="#edf3fa"/>
        <path id="Trazado_2346" data-name="Trazado 2346" d="M161.759,349.04l-5.828-5.433-6.282,3.627,5.828,5.409Z" fill="url(#linear-gradient-7)"/>
        <path id="Trazado_2347" data-name="Trazado 2347" d="M155.477,352.643l-5.828-5.433-6.282,3.627,5.828,5.409Z" fill="#edf3fa"/>
        <path id="Trazado_2348" data-name="Trazado 2348" d="M149.2,356.246l-5.828-5.433-6.282,3.627,5.828,5.408Z" fill="url(#linear-gradient-8)"/>
        <path id="Trazado_2349" data-name="Trazado 2349" d="M142.913,359.849l-5.828-5.433-6.282,3.627,5.828,5.409Z" fill="#edf3fa"/>
        <path id="Trazado_2350" data-name="Trazado 2350" d="M136.631,363.448V366.9a7.275,7.275,0,0,1-3.141,5.44c-1.727,1.091-3.141.352-3.141-1.642v-3.627Z" fill="url(#linear-gradient-9)"/>
        <path id="Trazado_2351" data-name="Trazado 2351" d="M129.664,367.394v3.455a7.271,7.271,0,0,1-3.141,5.44c-1.728,1.092-3.141.353-3.141-1.642V371.02Z" fill="#fff"/>
        <path id="Trazado_2352" data-name="Trazado 2352" d="M129.664,367.393l-5.828-5.433-5.6,3.284v.7L123.382,371Z" fill="#fff"/>
        <path id="Trazado_2353" data-name="Trazado 2353" d="M130.349,367.051v3.455a7.275,7.275,0,0,1-3.141,5.441c-1.727,1.091-3.141.352-3.141-1.642v-3.627Z" fill="#fff"/>
        <path id="Trazado_2354" data-name="Trazado 2354" d="M136.632,363.448l-5.828-5.433-6.282,3.627,5.828,5.408Z" fill="url(#linear-gradient-10)"/>
        <path id="Trazado_2355" data-name="Trazado 2355" d="M130.35,367.051l-5.828-5.433-6.282,3.627,5.828,5.409Z" fill="#edf3fa"/>
      </g>
      <g id="Grupo_740" data-name="Grupo 740">
        <path id="Trazado_2356" data-name="Trazado 2356" d="M153.5,322.718V333.55a2.027,2.027,0,0,1-1.012,1.754l-18.4,10.622a1.145,1.145,0,0,1-1.717-.992V334.1a2.024,2.024,0,0,1,1.012-1.753l18.4-10.622A1.145,1.145,0,0,1,153.5,322.718Z" fill="url(#linear-gradient-11)"/>
        <path id="Trazado_2357" data-name="Trazado 2357" d="M152.488,322.2l-18.4,10.622a2.026,2.026,0,0,0-1.012,1.754v10.831a.573.573,0,0,0,1.007.519l18.4-10.622a2.027,2.027,0,0,0,1.012-1.754V322.718a.574.574,0,0,0-1.008-.518Z" fill="url(#linear-gradient-12)"/>
      </g>
      <g id="Grupo_742" data-name="Grupo 742">
        <g id="Grupo_741" data-name="Grupo 741">
          <path id="Trazado_2358" data-name="Trazado 2358" d="M137.291,336.3a.83.83,0,0,0-.1.382c0,.136.031.222.1.26a1.058,1.058,0,0,0,.52-.012.712.712,0,0,1,.627.133,1.1,1.1,0,0,1,.2.831,2.61,2.61,0,0,1-.325,1.187,2.029,2.029,0,0,1-.782.825.933.933,0,0,1-1.218-.126l.41-.982a.694.694,0,0,0,.848.176.739.739,0,0,0,.284-.282.828.828,0,0,0,.113-.392c0-.141-.029-.233-.1-.274a.69.69,0,0,0-.42-.012.9.9,0,0,1-.726-.09c-.151-.12-.219-.4-.205-.846a2.493,2.493,0,0,1,.328-1.2,2.051,2.051,0,0,1,.754-.779,1.178,1.178,0,0,1,.576-.166.732.732,0,0,1,.493.172l-.351.949a.677.677,0,0,0-.768-.023A.667.667,0,0,0,137.291,336.3Z" fill="#fff"/>
          <path id="Trazado_2359" data-name="Trazado 2359" d="M140.469,334.485l-.115,3.783-.648.364.115-3.783-.823.462.027-.9,2.3-1.289-.027.9Z" fill="#fff"/>
          <path id="Trazado_2360" data-name="Trazado 2360" d="M144.036,335.563a2.874,2.874,0,0,1-1.107,1.3.789.789,0,0,1-1.063-.085,2.029,2.029,0,0,1-.388-1.479,4.751,4.751,0,0,1,.494-1.975,2.871,2.871,0,0,1,1.1-1.3.792.792,0,0,1,1.064.085,2.032,2.032,0,0,1,.388,1.48A4.757,4.757,0,0,1,144.036,335.563Zm-.168-1.6a1.433,1.433,0,0,0-.217-.929.418.418,0,0,0-.6-.1,1.624,1.624,0,0,0-.626.787,3.13,3.13,0,0,0-.282,1.209,1.412,1.412,0,0,0,.217.927.42.42,0,0,0,.6.1,1.614,1.614,0,0,0,.627-.784A3.13,3.13,0,0,0,143.868,333.963Z" fill="#fff"/>
          <path id="Trazado_2361" data-name="Trazado 2361" d="M147.457,331.2a2.715,2.715,0,0,1-.6,1.767l.684,1.263-.8.449-.6-1.134-.45.252-.046,1.5-.648.364.143-4.688,1.1-.619q.678-.381.954-.174T147.457,331.2Zm-.8,1a1.448,1.448,0,0,0,.138-.622c.007-.252-.029-.4-.11-.449s-.224-.013-.432.1l-.486.273-.043,1.388.475-.266A1.1,1.1,0,0,0,146.659,332.2Z" fill="#fff"/>
          <path id="Trazado_2362" data-name="Trazado 2362" d="M150.265,328.093l-.029.932-1.446.812-.03.966,1.3-.73-.027.892-1.3.73-.03.973,1.493-.838-.028.925-2.141,1.2.142-4.689Z" fill="#fff"/>
        </g>
      </g>
    </g>
    <g id="Grupo_744" data-name="Grupo 744">
      <path id="Trazado_2363" data-name="Trazado 2363" d="M131.271,283.972l1.2-.567-3.454-1.848a5.677,5.677,0,0,0-.591-.316l0,0h0c-2.151-.987-4.989-.711-8.091,1.08-6.677,3.855-12.14,13.317-12.14,21.027a22.862,22.862,0,0,0,.14,3.11,7.479,7.479,0,0,0,1.653,3.7h0l9.046,10.944,4.2,2.246,2.179-7.624h-1.966l7.334-18.3,0,0a22.366,22.366,0,0,0,1.693-8.091A11.078,11.078,0,0,0,131.271,283.972Zm-10.946,19.893c-3.586,2.07-6.52.376-6.52-3.764a14.464,14.464,0,0,1,6.52-11.293c3.586-2.071,6.52-.377,6.52,3.764A14.464,14.464,0,0,1,120.325,303.865Z" fill="url(#linear-gradient-13)"/>
      <path id="Trazado_2364" data-name="Trazado 2364" d="M131.271,283.972l1.2-.567-3.454-1.848a5.677,5.677,0,0,0-.591-.316l0,0h0c-2.151-.987-4.989-.711-8.091,1.08-6.677,3.855-12.14,13.317-12.14,21.027a22.862,22.862,0,0,0,.14,3.11,7.479,7.479,0,0,0,1.653,3.7h0l9.046,10.944,4.2,2.246,2.179-7.624h-1.966l7.334-18.3,0,0a22.366,22.366,0,0,0,1.693-8.091A11.078,11.078,0,0,0,131.271,283.972Zm-10.946,19.893c-3.586,2.07-6.52.376-6.52-3.764a14.464,14.464,0,0,1,6.52-11.293c3.586-2.071,6.52-.377,6.52,3.764A14.464,14.464,0,0,1,120.325,303.865Z" fill="#3c5185" opacity="0.3"/>
      <path id="Trazado_2365" data-name="Trazado 2365" d="M135.845,291.105c-.012-8.049-5.251-11-12.2-6.948-6.649,3.878-12.077,13.3-12.077,20.991a10.349,10.349,0,0,0,1.649,6.072h0l9.929,12.038a.54.54,0,0,0,.915-.133l10.1-23.908,0,0A22.345,22.345,0,0,0,135.845,291.105Zm-12.14,14.562c-3.587,2.071-6.52.377-6.52-3.764a14.461,14.461,0,0,1,6.52-11.293c3.586-2.07,6.519-.377,6.519,3.764A14.463,14.463,0,0,1,123.705,305.667Z" fill="url(#linear-gradient-14)"/>
    </g>
    <path id="Trazado_2366" data-name="Trazado 2366" d="M112.084,322.99c6.3-3.637,16.6-3.637,22.9,0s6.3,9.586,0,13.222-16.6,3.636-22.9,0S105.786,326.626,112.084,322.99Z" opacity="0.5" fill="url(#radial-gradient)" style="mix-blend-mode: multiply;isolation: isolate"/>
    <g id="Grupo_758" data-name="Grupo 758">
      <g id="Grupo_747" data-name="Grupo 747">
        <g id="Grupo_745" data-name="Grupo 745">
          <path id="Trazado_2367" data-name="Trazado 2367" d="M166.583,401.022a1.571,1.571,0,0,0-.79.214c-1.307.755-1.421,2.161-1.421,3.671l.837,3.291a.132.132,0,0,0,.264,0l-.838-3.291c0-1.428.065-2.757,1.321-3.46a1.28,1.28,0,0,1,1.268.008h0a3.522,3.522,0,0,1,1.637,2.138l.573,2.143a.132.132,0,1,0,.264,0l-.6-2.257a3.675,3.675,0,0,0-1.707-2.234l-.015-.009A1.577,1.577,0,0,0,166.583,401.022Z" fill="#3c5185"/>
        </g>
        <path id="Trazado_2368" data-name="Trazado 2368" d="M161.783,402.052l1.536.4,1.095-1.062.467,4.3-3.1-.1Z" fill="#ffc107"/>
        <path id="Trazado_2369" data-name="Trazado 2369" d="M164.415,401.389l1.26,12.1L173.493,418l-1.344-12.006Z" fill="#bf9105"/>
        <path id="Trazado_2370" data-name="Trazado 2370" d="M161.783,402.052V415.6l7.819,4.514V406.567Z" fill="url(#linear-gradient-15)"/>
        <path id="Trazado_2371" data-name="Trazado 2371" d="M169.6,406.567l.728-.574h1.819L173.493,418l-1.936.661-1.955,1.449Z" fill="url(#linear-gradient-16)"/>
        <path id="Trazado_2372" data-name="Trazado 2372" d="M163.247,405.288c-.159-.092-.288-.017-.288.166a.639.639,0,0,0,.288.5c.159.092.289.017.289-.166A.638.638,0,0,0,163.247,405.288Z" fill="#bf9105"/>
        <path id="Trazado_2373" data-name="Trazado 2373" d="M167.472,407.75c-.158-.092-.288-.017-.288.166a.64.64,0,0,0,.288.5c.159.092.289.017.289-.166A.641.641,0,0,0,167.472,407.75Z" fill="#bf9105"/>
        <g id="Grupo_746" data-name="Grupo 746">
          <path id="Trazado_2374" data-name="Trazado 2374" d="M166.231,401.022a1.577,1.577,0,0,1,.79.214,2.835,2.835,0,0,1,1.354,2.3,6.09,6.09,0,0,1-.162,2.268L167.6,408.2a.132.132,0,0,1-.264,0l.61-2.394a6.068,6.068,0,0,0,.154-2.353,2.513,2.513,0,0,0-1.215-1.986,1.3,1.3,0,0,0-1.316,0l-.013.007a3.463,3.463,0,0,0-1.6,2.109l-.577,2.155a.132.132,0,1,1-.264,0l.6-2.256a3.67,3.67,0,0,1,1.707-2.235l.015-.009A1.572,1.572,0,0,1,166.231,401.022Z" fill="#3c5185"/>
        </g>
      </g>
      <g id="Grupo_748" data-name="Grupo 748">
        <path id="Trazado_2375" data-name="Trazado 2375" d="M166.938,402.053c.029,0,.057,0,.086,0a1.133,1.133,0,0,0,1.046-1.214l-.387-5.193a26.163,26.163,0,0,0-.722-4.45l-1.23-4.864c-.316-.807-.342-1.236-.935-1.438a1.134,1.134,0,0,0-1.438.709l1.862,7.494.589,7.91A1.134,1.134,0,0,0,166.938,402.053Z" fill="#f2b1b5"/>
      </g>
      <path id="Trazado_2376" data-name="Trazado 2376" d="M165.457,401.39a1.276,1.276,0,1,0,1.277-1.277A1.276,1.276,0,0,0,165.457,401.39Z" fill="#f2b1b5"/>
      <path id="Trazado_2377" data-name="Trazado 2377" d="M167.471,401.081l.352.552a.291.291,0,0,0,.4.089h0a.291.291,0,0,0,.089-.4l-.351-.552a.292.292,0,0,0-.4-.09h0A.292.292,0,0,0,167.471,401.081Z" fill="#f2b1b5"/>
      <path id="Trazado_2378" data-name="Trazado 2378" d="M160.3,419.683l-1.706,2.9a.943.943,0,0,0,.082.94l1.707,2.441,1.011.859a2.129,2.129,0,0,0,2.1.63l1.062-.066a.565.565,0,0,0,.477-.325l.39-.835c.057-.186-.282.266-.409.084l-2.037-1.95-.045-1.359.574-1.744Z" fill="#3c5185"/>
      <path id="Trazado_2379" data-name="Trazado 2379" d="M159.8,420.021l-.894,1.914a.941.941,0,0,0,.082.94l1.872,2.677.6.615c.468.669,1.533.709,2.345.638l1.028-.089a.671.671,0,0,0,.492-1.052l-1.216-.776-.822-1.175.3-1.737-.154-.024Z" fill="#4a65a3"/>
      <path id="Trazado_2380" data-name="Trazado 2380" d="M160.657,419.635c-.957.091-1.287.813-.734,1.6a3.346,3.346,0,0,0,2.724,1.289c.945-.082,1.275-.8.734-1.6A3.263,3.263,0,0,0,160.657,419.635Z" fill="#3c5185"/>
      <path id="Trazado_2381" data-name="Trazado 2381" d="M161.07,420.234c-.559.053-.752.475-.429.937a1.954,1.954,0,0,0,1.593.754c.552-.048.745-.47.429-.938A1.911,1.911,0,0,0,161.07,420.234Z" fill="#fff"/>
      <path id="Trazado_2382" data-name="Trazado 2382" d="M156.978,424.744l-.319,3.351a.946.946,0,0,0,.472.818l3.579,2.066a2.284,2.284,0,0,0,2.284,0l.934-.509a.564.564,0,0,0,.3-.5v-.921c-.027-.193-.143.36-.335.249l-2.508-1.448-.615-1.212-.218-1.824Z" fill="#3c5185"/>
      <path id="Trazado_2383" data-name="Trazado 2383" d="M156.659,425.264v2.113a.943.943,0,0,0,.472.817l3.579,2.067a2.284,2.284,0,0,0,2.284,0l.894-.516a.67.67,0,0,0,0-1.161l-2.508-1.448-.466-1.7-.149.044Z" fill="#4a65a3"/>
      <path id="Trazado_2384" data-name="Trazado 2384" d="M157.277,424.55a.935.935,0,0,0,.014,1.764,3.342,3.342,0,0,0,3.013.016c.821-.474.815-1.268-.013-1.764A3.265,3.265,0,0,0,157.277,424.55Z" fill="#3c5185"/>
      <path id="Trazado_2385" data-name="Trazado 2385" d="M157.9,424.918a.547.547,0,0,0,.008,1.031,1.956,1.956,0,0,0,1.762.01.549.549,0,0,0-.008-1.032A1.911,1.911,0,0,0,157.9,424.918Z" fill="#fff"/>
      <g id="Grupo_749" data-name="Grupo 749">
        <path id="Trazado_2386" data-name="Trazado 2386" d="M158.783,425.89a1.133,1.133,0,0,0,1.133-1.133v-2.378a1.133,1.133,0,1,0-2.267,0v2.378A1.134,1.134,0,0,0,158.783,425.89Z" fill="#ef9ea3"/>
      </g>
      <g id="Grupo_750" data-name="Grupo 750">
        <path id="Trazado_2387" data-name="Trazado 2387" d="M161.923,421.674a1.135,1.135,0,0,0,1-.6l1.123-2.1a1.133,1.133,0,1,0-2-1.071l-1.123,2.1a1.134,1.134,0,0,0,1,1.669Z" fill="#ef9ea3"/>
      </g>
      <path id="Trazado_2388" data-name="Trazado 2388" d="M165.111,394.775v6.875l-6.2,3.58a1.759,1.759,0,0,1-2.638-1.488l-.077-3.86Z" fill="url(#linear-gradient-17)"/>
      <g id="Grupo_751" data-name="Grupo 751">
        <path id="Trazado_2389" data-name="Trazado 2389" d="M158.783,424.433a1.814,1.814,0,0,0,1.813-1.814l.663-22.8c0-1-1.475-1.4-2.476-1.4a1.814,1.814,0,0,0-1.814,1.813v22.385A1.814,1.814,0,0,0,158.783,424.433Z" fill="url(#linear-gradient-17)"/>
      </g>
      <g id="Grupo_752" data-name="Grupo 752">
        <path id="Trazado_2390" data-name="Trazado 2390" d="M162.643,421.01a1.815,1.815,0,0,0,1.561-.887l4.45-7.486a3.384,3.384,0,0,0,.292-2.829l-3.687-10.73a1.815,1.815,0,0,0-2.305-1.126,3.06,3.06,0,0,0-1.62,3.039l3.772,9a1.915,1.915,0,0,1-.12,1.718l-3.9,6.56a1.815,1.815,0,0,0,1.557,2.741Z" fill="url(#linear-gradient-17)"/>
      </g>
      <g id="Grupo_755" data-name="Grupo 755">
        <g id="Grupo_753" data-name="Grupo 753">
          <path id="Trazado_2391" data-name="Trazado 2391" d="M156.834,403.743a1.577,1.577,0,0,0-.79.214c-1.307.754-1.421,2.161-1.421,3.67l.838,3.292a.132.132,0,1,0,.263,0l-.837-3.292c0-1.427.064-2.756,1.32-3.46a1.285,1.285,0,0,1,1.268.008h0a3.523,3.523,0,0,1,1.638,2.138l.573,2.144a.132.132,0,0,0,.264,0l-.6-2.257a3.68,3.68,0,0,0-1.707-2.235l-.015-.008A1.571,1.571,0,0,0,156.834,403.743Z" fill="#3c5185"/>
        </g>
        <path id="Trazado_2392" data-name="Trazado 2392" d="M152.035,404.773l1.536.4,1.095-1.063.467,4.3-3.1-.1Z" fill="#ffc107"/>
        <path id="Trazado_2393" data-name="Trazado 2393" d="M154.666,404.11l1.26,12.1,7.819,4.514L162.4,408.714Z" fill="#bf9105"/>
        <path id="Trazado_2394" data-name="Trazado 2394" d="M152.035,404.773v13.543l7.819,4.514V409.287Z" fill="url(#linear-gradient-20)"/>
        <path id="Trazado_2395" data-name="Trazado 2395" d="M159.854,409.287l.728-.573H162.4l1.344,12.006-1.936.661-1.955,1.449Z" fill="url(#linear-gradient-21)"/>
        <path id="Trazado_2396" data-name="Trazado 2396" d="M153.5,408.008c-.159-.092-.289-.016-.289.167a.641.641,0,0,0,.289.5c.158.091.288.016.288-.167A.643.643,0,0,0,153.5,408.008Z" fill="#bf9105"/>
        <path id="Trazado_2397" data-name="Trazado 2397" d="M157.724,410.47c-.159-.091-.289-.016-.289.167a.641.641,0,0,0,.289.5c.159.092.289.017.289-.167A.641.641,0,0,0,157.724,410.47Z" fill="#bf9105"/>
        <g id="Grupo_754" data-name="Grupo 754">
          <path id="Trazado_2398" data-name="Trazado 2398" d="M156.482,403.743a1.572,1.572,0,0,1,.79.214,2.832,2.832,0,0,1,1.355,2.3,6.089,6.089,0,0,1-.163,2.268l-.608,2.392a.132.132,0,0,1-.264,0l.609-2.394a6.035,6.035,0,0,0,.154-2.354,2.512,2.512,0,0,0-1.215-1.986,1.3,1.3,0,0,0-1.316,0l-.012.007a3.47,3.47,0,0,0-1.6,2.109l-.576,2.156a.132.132,0,0,1-.264,0l.6-2.256a3.677,3.677,0,0,1,1.707-2.235l.015-.009A1.577,1.577,0,0,1,156.482,403.743Z" fill="#3c5185"/>
        </g>
      </g>
      <path id="Trazado_2399" data-name="Trazado 2399" d="M162.671,377.47a8.234,8.234,0,0,1,.549-.915,6,6,0,0,1,1.115-1.368,1.939,1.939,0,0,1,3.033,1.553c-.008.631-.561,1.316-.766,1.9a23.909,23.909,0,0,0-.594,2.528,1.643,1.643,0,0,1-.366.815c-.1.1-.229.178-.328.284a1.523,1.523,0,0,0-.274.482l-.585,1.394a3.459,3.459,0,0,1-1.042,1.579,1.192,1.192,0,0,1-1.685-.218,1.609,1.609,0,0,1-.153-.556,10.5,10.5,0,0,1,.237-4.051A18.749,18.749,0,0,1,162.671,377.47Z" fill="url(#linear-gradient-22)"/>
      <path id="Trazado_2400" data-name="Trazado 2400" d="M161.939,383.708l-3.75,2.084c-.881.489-1.119,1.465-1.427,2.425-1.251,3.9-.832,14.119-.832,14.119,2.3,1.387,8.454-.543,9.9-2.812,0,0-1.2-4.766-.154-7.9h0a2.3,2.3,0,0,0,.492-2.093l-.491-1.872v-1.756A2.514,2.514,0,0,0,161.939,383.708Z" fill="url(#linear-gradient-23)"/>
      <path id="Trazado_2401" data-name="Trazado 2401" d="M156.762,388.217c.308-.96.546-1.936,1.427-2.425l3.75-2.084a2.473,2.473,0,0,1,1.408-.308,2.5,2.5,0,0,0-.988.308l-3.75,2.084c-.881.489-1.119,1.465-1.427,2.425-1.251,3.9-.832,14.119-.832,14.119a4,4,0,0,0,1.931.463,4.42,4.42,0,0,1-2.351-.463S155.511,392.12,156.762,388.217Z" fill="#ef9ea3" opacity="0.2"/>
      <path id="Trazado_2402" data-name="Trazado 2402" d="M160.251,382.611h1.189a4.757,4.757,0,0,0,4.757-4.758h0a1.865,1.865,0,0,0-1.865-1.865h-4.081Z" fill="#f2b1b5"/>
      <path id="Trazado_2403" data-name="Trazado 2403" d="M161.461,385.71h0a1.211,1.211,0,0,0,1.211-1.211v-3.253h-2.421V384.5A1.211,1.211,0,0,0,161.461,385.71Z" fill="#f2b1b5"/>
      <path id="Trazado_2404" data-name="Trazado 2404" d="M158.684,402.778a5.661,5.661,0,0,1-2.29-.225l-.5-6.676,0-.082,3.118-9.175c.208-.612.789-.723,1.4-.482.57.227.507.689.31,1.27l-2.017,7.169a7.937,7.937,0,0,0-.4,3.142Z" fill="#ef9ea3" opacity="0.3"/>
      <g id="Grupo_756" data-name="Grupo 756">
        <path id="Trazado_2405" data-name="Trazado 2405" d="M157.19,404.774c.028,0,.057,0,.085,0a1.135,1.135,0,0,0,1.047-1.215l-.435-5.837a7.9,7.9,0,0,1,.4-3.142l2.437-7.169a1.176,1.176,0,0,0-.632-1.476,1.135,1.135,0,0,0-1.495.688l-2.7,7.93a6.543,6.543,0,0,0-.331,2.6l.49,6.577A1.133,1.133,0,0,0,157.19,404.774Z" fill="#f2b1b5"/>
      </g>
      <path id="Trazado_2406" data-name="Trazado 2406" d="M158.6,386.62a1.13,1.13,0,0,1,1.284-.744,1.128,1.128,0,0,0-.864.744l-2.73,8.033a6.018,6.018,0,0,0-.3,2.386l.5,6.685a1.134,1.134,0,0,0,.906,1.027c-.037.006-.073.017-.112.02s-.057,0-.085,0a1.133,1.133,0,0,1-1.129-1.05l-.5-6.744a5.727,5.727,0,0,1,.29-2.272Z" fill="#ef9ea3" opacity="0.2"/>
      <g id="Grupo_757" data-name="Grupo 757">
        <path id="Trazado_2407" data-name="Trazado 2407" d="M157.873,393.634a1.36,1.36,0,0,0,1.287-.923l1.8-5.288a1.36,1.36,0,1,0-2.576-.876l-1.8,5.288a1.362,1.362,0,0,0,1.288,1.8Z" fill="url(#linear-gradient-23)"/>
      </g>
      <path id="Trazado_2408" data-name="Trazado 2408" d="M157.6,381.547a9.866,9.866,0,0,0,.678-2.587c.112-1.468-.535-2.929.705-4.106a4.939,4.939,0,0,1,3.474-.923c.824,0,2.894-.374,3.324.661a.969.969,0,0,1,.042.442,3.356,3.356,0,0,1-.824,2.112c-.353.365-.85.588-1.178.976-.388.459-.27,1.13-.61,1.637a7.386,7.386,0,0,1-1.463,1.718c-1.277,1.025-1.093,1.773-1.1,3.37,0,1.419-.1,3.039-1.2,3.931a2.878,2.878,0,0,0-.394.335,3.206,3.206,0,0,0-.352.669,2.072,2.072,0,0,1-1.745,1.115,1.275,1.275,0,0,1-.921-.3,1.628,1.628,0,0,1-.387-.744,7.394,7.394,0,0,1,.529-5.435c.209-.4.455-.784.662-1.187A17.325,17.325,0,0,0,157.6,381.547Z" fill="url(#linear-gradient-25)"/>
      <path id="Trazado_2409" data-name="Trazado 2409" d="M155.709,404.11a1.276,1.276,0,1,0,1.276-1.276A1.276,1.276,0,0,0,155.709,404.11Z" fill="#f2b1b5"/>
      <path id="Trazado_2410" data-name="Trazado 2410" d="M157.722,403.8l.352.553a.291.291,0,0,0,.4.089h0a.291.291,0,0,0,.09-.4l-.352-.553a.291.291,0,0,0-.4-.089h0A.292.292,0,0,0,157.722,403.8Z" fill="#f2b1b5"/>
    </g>
    <g id="Grupo_760" data-name="Grupo 760">
      <path id="Trazado_2411" data-name="Trazado 2411" d="M47.675,323.573a3.167,3.167,0,0,0-1.427,2.471v13.183a1.687,1.687,0,0,0,.685,1.358l.89.659c.233.059-.456-.579-.148-.757L74.118,325.22a3.112,3.112,0,0,0,1.405-2.471l-.175-13.494c0-.3.566-.358.566-.358l-.66-.255a2.171,2.171,0,0,0-1.868.143Z" fill="url(#linear-gradient-26)"/>
      <path id="Trazado_2412" data-name="Trazado 2412" d="M48.828,324.232A3.165,3.165,0,0,0,47.4,326.7v13.619c0,.906.642,1.277,1.427.824l26.443-15.267a3.112,3.112,0,0,0,1.4-2.471L76.5,309.914c-.011-.906-.663-1.276-1.447-.823Z" fill="#f6f9fc"/>
      <g id="Grupo_759" data-name="Grupo 759">
        <path id="Trazado_2413" data-name="Trazado 2413" d="M70.893,317.12l.761,1.684,2.093-1.154a.092.092,0,0,1,.126.124L72.486,320.4l.431,2.234a.152.152,0,0,1-.15.181l-1.751-.173-1.866,2.272a.092.092,0,0,1-.161-.07l.267-2.489-1.73-.97a.08.08,0,0,1,0-.139l2.242-1.295,1-2.828A.068.068,0,0,1,70.893,317.12Z" fill="url(#linear-gradient-27)"/>
        <path id="Trazado_2414" data-name="Trazado 2414" d="M62.774,321.848l.761,1.684,2.093-1.154a.093.093,0,0,1,.127.124l-1.387,2.63.43,2.234a.152.152,0,0,1-.149.181l-1.752-.174-1.865,2.272a.092.092,0,0,1-.162-.07l.268-2.488-1.73-.971a.08.08,0,0,1,0-.139l2.242-1.295,1-2.828A.069.069,0,0,1,62.774,321.848Z" fill="url(#linear-gradient-28)"/>
        <path id="Trazado_2415" data-name="Trazado 2415" d="M54.656,326.577l.761,1.683,2.093-1.154a.092.092,0,0,1,.126.124l-1.387,2.63.431,2.234a.152.152,0,0,1-.15.181l-1.751-.174-1.866,2.272a.092.092,0,0,1-.161-.069l.267-2.489-1.73-.971a.079.079,0,0,1,0-.138l2.242-1.3,1-2.828A.068.068,0,0,1,54.656,326.577Z" fill="url(#linear-gradient-29)"/>
      </g>
    </g>
    <g id="Grupo_764" data-name="Grupo 764">
      <path id="Trazado_2416" data-name="Trazado 2416" d="M174.173,275.439c0-1.152-.815-1.623-1.813-1.047l-28.6,16.511a1.842,1.842,0,0,0-.83,1.439v2.96l-1.577,2.978a.694.694,0,0,0,.326.955l1.251.569v4.919c0,.527.373.743.83.479l29.581-17.078a1.845,1.845,0,0,0,.83-1.439V275.439Z" fill="url(#linear-gradient-30)"/>
      <path id="Trazado_2417" data-name="Trazado 2417" d="M141.355,298.28l1.577-2.978v-2.96a1.842,1.842,0,0,1,.83-1.439l28.627-16.527c.674-.39,1.257-.283,1.56.184a1.4,1.4,0,0,0-.321.134l-29.087,16.793a1.842,1.842,0,0,0-.83,1.439v2.96l-1.577,2.978a.688.688,0,0,0-.036.56l-.417-.189A.694.694,0,0,1,141.355,298.28Zm1.577,1.524v4.919c0,.507.346.721.779.5v-5.068Z" fill="url(#linear-gradient-31)"/>
      <g id="Grupo_761" data-name="Grupo 761">
        <path id="Trazado_2418" data-name="Trazado 2418" d="M145.861,293.635l26.078-15.041,0-1.109-26.08,15.023Z" fill="#f8fbfe"/>
      </g>
      <g id="Grupo_762" data-name="Grupo 762">
        <path id="Trazado_2419" data-name="Trazado 2419" d="M145.861,297.4l26.08-15.011v-1.107L145.861,296.3Z" fill="#f8fbfe"/>
      </g>
      <g id="Grupo_763" data-name="Grupo 763">
        <path id="Trazado_2420" data-name="Trazado 2420" d="M145.861,301.388l18.486-10.639v-1.107l-18.486,10.652Z" fill="#f8fbfe"/>
      </g>
    </g>
    <path id="Trazado_2421" data-name="Trazado 2421" d="M98.717,322.782a.674.674,0,0,0-.273.094L78.969,334.119v3.97L83.8,340.9v11.27l14.643-8.454a1.564,1.564,0,0,0,.7-1.218V323.282C99.147,322.947,98.969,322.76,98.717,322.782Z" fill="#3c5185" opacity="0.3"/>
    <g id="Grupo_765" data-name="Grupo 765">
      <path id="Trazado_2422" data-name="Trazado 2422" d="M96.444,321.376c.386-.223.7-.041.7.406V341a1.564,1.564,0,0,1-.7,1.218L67.77,358.77c-.387.224-.7.041-.7-.406V339.148a1.558,1.558,0,0,1,.7-1.217Z" fill="url(#linear-gradient-32)"/>
      <path id="Trazado_2423" data-name="Trazado 2423" d="M67.77,337.931l28.674-16.555c.386-.223.7-.041.7.406v.186L68.7,338.394a1.561,1.561,0,0,0-.7,1.218v19.029l-.223.129c-.387.224-.7.041-.7-.406V339.148A1.558,1.558,0,0,1,67.77,337.931Z" fill="url(#linear-gradient-33)"/>
      <path id="Trazado_2424" data-name="Trazado 2424" d="M95.695,328.015,76.38,339.435v1.224l19.315-11.366Z" fill="#fff"/>
      <path id="Trazado_2425" data-name="Trazado 2425" d="M95.695,331.818,76.38,343.239v1.224L95.695,333.1Z" fill="#fff"/>
      <path id="Trazado_2426" data-name="Trazado 2426" d="M86.531,341.148l-9.945,5.821v1.224l9.945-5.767Z" fill="#fff"/>
      <path id="Trazado_2427" data-name="Trazado 2427" d="M70.923,346.019a1.544,1.544,0,0,1-.488-1.263,4.619,4.619,0,0,1,2.079-3.6c1.14-.659,2.073-.117,2.073,1.2a4.575,4.575,0,0,1-1.073,2.716,3.328,3.328,0,0,1,1.913,3.01v.827l-6.189,3.619v-1.679A7.778,7.778,0,0,1,70.923,346.019Z" fill="#fff"/>
    </g>
    <g id="Grupo_767" data-name="Grupo 767">
      <path id="Trazado_2428" data-name="Trazado 2428" d="M81.1,304.271c0-6.514,4.616-14.51,10.258-17.767a8.471,8.471,0,0,1,5.437-1.312l.012-.011.078.022A5.216,5.216,0,0,1,98,285.52l2.537.715-.792.5a8.158,8.158,0,0,1,1.861,5.7c0,6.515-4.616,14.51-10.258,17.768a10.059,10.059,0,0,1-3.565,1.3l.107.657-2.225-.677a5.155,5.155,0,0,1-.957-.292l-.059-.018,0-.011C82.48,310.231,81.1,307.832,81.1,304.271Z" fill="url(#linear-gradient-34)"/>
      <path id="Trazado_2429" data-name="Trazado 2429" d="M94.233,287.352c5.642-3.257,10.258-.592,10.258,5.923s-4.616,14.51-10.258,17.768-10.258.592-10.258-5.923S88.591,290.61,94.233,287.352Z" fill="url(#linear-gradient-35)"/>
      <g id="Grupo_766" data-name="Grupo 766">
        <path id="Trazado_2430" data-name="Trazado 2430" d="M93.529,304.335l6.49-7.939a1.428,1.428,0,1,0-2.2-1.816L93.1,300.36l-1.895-1.415a1.428,1.428,0,1,0-1.769,2.243Z" fill="#fff"/>
      </g>
    </g>
  </g>
</svg>
