<svg xmlns="http://www.w3.org/2000/svg" xmlns:xlink="http://www.w3.org/1999/xlink" width="370.342" height="363.217" viewBox="0 0 370.342 363.217">
  <defs>
    <linearGradient id="linear-gradient" x1="0.633" y1="1.003" x2="0.337" y2="0.006" gradientUnits="objectBoundingBox">
      <stop offset="0.11" stop-color="#fff"/>
      <stop offset="1" stop-color="#e1ebf7"/>
    </linearGradient>
  </defs>
  <g id="Grupo_3210" data-name="Grupo 3210" transform="translate(-784.481 -288.901)">
    <path id="Trazado_8083" data-name="Trazado 8083" d="M304.512,161.876c0,77.764-76.782,132.56-154.546,132.56S0,239.64,0,161.876,46.551,0,124.316,0,304.512,84.111,304.512,161.876Z" transform="translate(784.481 367.714) rotate(-15)" opacity="0.54" fill="url(#linear-gradient)"/>
    <g id="Grupo_4339" data-name="Grupo 4339" transform="translate(0 153)">
      <g id="Grupo_2982" data-name="Grupo 2982" transform="translate(1113.209 330.727) rotate(90)">
        <g id="Grupo_2782" data-name="Grupo 2782" transform="translate(2.77 1.316)">
          <rect id="Rectángulo_1370" data-name="Rectángulo 1370" width="185.081" height="115.165" rx="7.486" transform="translate(0 185.081) rotate(-90)" fill="#7e7d89"/>
        </g>
        <g id="Grupo_2783" data-name="Grupo 2783" transform="translate(0 0)">
          <rect id="Rectángulo_1371" data-name="Rectángulo 1371" width="185.081" height="115.165" rx="7.486" transform="translate(0 185.081) rotate(-90)" fill="#e8e8e8"/>
        </g>
        <path id="Trazado_8114-2" data-name="Trazado 8114-2" d="M0,2.094V50.462a2.078,2.078,0,0,0,2.079,2.079H7.047a2.123,2.123,0,0,0,2.139-1.811,2.072,2.072,0,0,0-1.817-2.3,2.2,2.2,0,0,0-.257-.015H4.127V4.131h51.16V48.414H15.624A2.137,2.137,0,0,0,13.563,49.9a2.194,2.194,0,0,0,1.984,2.915H57.322a2.1,2.1,0,0,0,2.091-2.092V2.091A2.094,2.094,0,0,0,57.322,0H2.091A2.091,2.091,0,0,0,0,2.091Z" transform="translate(22.844 19.629)" fill="#393842"/>
        <path id="Trazado_8115-2" data-name="Trazado 8115-2" d="M0,2.468v61.69A2.5,2.5,0,0,0,2.07,66.711a2.4,2.4,0,0,0,2.624-2.142,2.342,2.342,0,0,0,.011-.306V2.578A2.492,2.492,0,0,0,2.418,0,2.41,2.41,0,0,0,0,2.4Z" transform="translate(25.082 93.3)" fill="#393842"/>
        <path id="Trazado_8116-2" data-name="Trazado 8116-2" d="M0,2.528V16.546a2.711,2.711,0,0,0,2.682,2.639,2.656,2.656,0,0,0,2.827-2.473l0-.049V2.647A2.712,2.712,0,0,0,2.828.006,2.654,2.654,0,0,0,0,2.476Z" transform="translate(41.774 93.332)" fill="#393842"/>
        <path id="Trazado_8117-2" data-name="Trazado 8117-2" d="M4.7,40.587V2.564A2.5,2.5,0,0,0,2.638.013,2.392,2.392,0,0,0,.013,2.151,2.247,2.247,0,0,0,0,2.46V40.487a2.5,2.5,0,0,0,2.065,2.549A2.4,2.4,0,0,0,4.693,40.9,2.267,2.267,0,0,0,4.7,40.587Z" transform="translate(42.324 117.138)" fill="#393842"/>
        <path id="Trazado_8118-2" data-name="Trazado 8118-2" d="M0,2.47V64.161a2.5,2.5,0,0,0,2.067,2.552A2.4,2.4,0,0,0,4.694,64.57a2.347,2.347,0,0,0,.012-.3V2.58A2.494,2.494,0,0,0,2.416,0,2.41,2.41,0,0,0,0,2.406Z" transform="translate(59.883 93.297)" fill="#393842"/>
        <path id="Trazado_8119-2" data-name="Trazado 8119-2" d="M0,2.463V35.887a2.5,2.5,0,0,0,2.065,2.552A2.4,2.4,0,0,0,4.694,36.3a2.35,2.35,0,0,0,.011-.3V2.58A2.5,2.5,0,0,0,2.413,0,2.412,2.412,0,0,0,0,2.409Z" transform="translate(77.129 121.768)" fill="#393842"/>
        <g id="Grupo_2983" data-name="Grupo 2983" transform="translate(31.004 28.543)">
          <path id="Trazado_8131" data-name="Trazado 8131" d="M19.949,9.98a9.974,9.974,0,1,0-2.92,7.046A9.65,9.65,0,0,0,19.949,9.98Z" transform="translate(0 7.554)" fill="#393842"/>
          <path id="Trazado_8132" data-name="Trazado 8132" d="M11.84.084A24.546,24.546,0,0,0,9.224.419a20.614,20.614,0,0,0-2.632.643A13.026,13.026,0,0,0,4.14,2.143,9.293,9.293,0,0,0,2.015,3.774,7.184,7.184,0,0,0,.543,6.117,8.074,8.074,0,0,0,0,9.107a3.025,3.025,0,0,0,.688,1.621c.318.487.685,1.056,1.089,1.69A9.724,9.724,0,0,1,2.74,14.6a8.477,8.477,0,0,1,0,5.344,9.59,9.59,0,0,1-.962,2.184c-.4.628-.77,1.2-1.09,1.691A3.025,3.025,0,0,0,0,25.442a8.09,8.09,0,0,0,.54,2.988,7.2,7.2,0,0,0,1.473,2.344A9.268,9.268,0,0,0,4.139,32.4a13.021,13.021,0,0,0,2.452,1.08,20.322,20.322,0,0,0,2.632.644,24.514,24.514,0,0,0,2.617.335c.791.053,1.613.084,2.444.084a6.877,6.877,0,0,0,5.2-2.039,7.347,7.347,0,0,0,1.92-5.262V7.309a7.353,7.353,0,0,0-1.92-5.262,6.871,6.871,0,0,0-5.2-2.039c-.833,0-1.658.027-2.445.084Z" transform="translate(20 0)" fill="#393842"/>
        </g>
      </g>
      <text id="Fecha_en_la_parte_frontal" data-name="Fecha en la parte frontal" transform="translate(1025.239 434.922)" fill="#393842" font-size="11" font-family="BalooTamma2-Medium, 'Baloo Tamma \32 '" font-weight="500" style="isolation: isolate"><tspan x="-58.311" y="0">Fecha en la parte frontal</tspan></text>
    </g>
    <g id="Grupo_4338" data-name="Grupo 4338" transform="translate(0 23)">
      <g id="Grupo_2981" data-name="Grupo 2981" transform="translate(1020.011 314.486) rotate(90)">
        <g id="Grupo_2779" data-name="Grupo 2779" transform="translate(2.769 1.316)">
          <rect id="Rectángulo_1368" data-name="Rectángulo 1368" width="185.081" height="115.166" rx="7.486" transform="translate(0 185.081) rotate(-90)" fill="#7e7d89"/>
        </g>
        <g id="Grupo_2780" data-name="Grupo 2780" transform="translate(0)">
          <rect id="Rectángulo_1369" data-name="Rectángulo 1369" width="185.081" height="115.166" rx="7.486" transform="translate(0 185.081) rotate(-90)" fill="#e8e8e8"/>
        </g>
        <path id="Trazado_8114" data-name="Trazado 8114" d="M0,2.1V50.536a2.081,2.081,0,0,0,2.08,2.081H7.057A2.131,2.131,0,0,0,9.2,50.8a2.079,2.079,0,0,0-1.823-2.3,1.88,1.88,0,0,0-.256-.013H4.131V4.137H55.367v44.35H15.647a2.141,2.141,0,0,0-2.066,1.483,2.2,2.2,0,0,0,1.344,2.8,2.239,2.239,0,0,0,.643.123H57.4a2.1,2.1,0,0,0,2.094-2.1V2.094A2.094,2.094,0,0,0,57.4,0H2.1A2.094,2.094,0,0,0,0,2.094Z" transform="translate(15.294 108.981)" fill="#393842"/>
        <path id="Trazado_8115" data-name="Trazado 8115" d="M0,2.469V64.248A2.506,2.506,0,0,0,2.071,66.8,2.4,2.4,0,0,0,4.7,64.657a2.441,2.441,0,0,0,.012-.3V2.581A2.5,2.5,0,0,0,2.419,0,2.411,2.411,0,0,0,0,2.4Z" transform="translate(18.705 21.022)" fill="#393842"/>
        <path id="Trazado_8116" data-name="Trazado 8116" d="M0,2.535V16.573a2.713,2.713,0,0,0,2.685,2.643,2.658,2.658,0,0,0,2.829-2.476l0-.046V2.658A2.714,2.714,0,0,0,2.831.006,2.659,2.659,0,0,0,0,2.48Z" transform="translate(36.05 19.873)" fill="#393842"/>
        <path id="Trazado_8117" data-name="Trazado 8117" d="M4.713,40.646V2.568A2.5,2.5,0,0,0,2.642.013,2.4,2.4,0,0,0,.013,2.155,2.51,2.51,0,0,0,0,2.464V40.546A2.506,2.506,0,0,0,2.07,43.1,2.4,2.4,0,0,0,4.7,40.959,2.512,2.512,0,0,0,4.713,40.646Z" transform="translate(35.972 44.89)" fill="#393842"/>
        <path id="Trazado_8118" data-name="Trazado 8118" d="M0,2.467V64.248A2.507,2.507,0,0,0,2.069,66.8,2.41,2.41,0,0,0,4.7,64.636a2.362,2.362,0,0,0,.011-.285V2.584A2.5,2.5,0,0,0,2.418,0,2.411,2.411,0,0,0,0,2.4Z" transform="translate(53.557 21.023)" fill="#393842"/>
        <path id="Trazado_8119" data-name="Trazado 8119" d="M0,2.463V35.939A2.5,2.5,0,0,0,2.07,38.494,2.409,2.409,0,0,0,4.7,36.327a2.338,2.338,0,0,0,.012-.285V2.583A2.5,2.5,0,0,0,2.42,0,2.411,2.411,0,0,0,0,2.4Z" transform="translate(70.829 49.53)" fill="#393842"/>
        <path id="Trazado_8120" data-name="Trazado 8120" d="M0,15.379A15.389,15.389,0,0,0,15.373,30.757a1.112,1.112,0,0,0,0-2.224,13.151,13.151,0,0,1,0-26.3H22.5a1.112,1.112,0,0,0,0-2.224H15.373A15.389,15.389,0,0,0,0,15.379ZM15.389,10.7a4.68,4.68,0,0,0,0,9.36,9.585,9.585,0,0,1,9.585,9.585h0a1.112,1.112,0,1,0,2.224,0h0A11.812,11.812,0,0,0,15.389,17.831a2.453,2.453,0,1,1-.134-4.9c.045,0,.09,0,.134,0a16.717,16.717,0,0,1,16.71,16.3,1.113,1.113,0,0,0,2.226-.028v-.027A18.944,18.944,0,0,0,15.373,10.7ZM30.763,29.642A15.379,15.379,0,0,0,15.384,14.264h-.012a1.113,1.113,0,0,0,0,2.226,13.15,13.15,0,0,1,13.15,13.15,1.112,1.112,0,1,0,2.224,0ZM15.373,3.568a11.812,11.812,0,1,0,0,23.624h0a2.45,2.45,0,0,1,2.453,2.447v0a1.113,1.113,0,1,0,2.226,0,4.676,4.676,0,0,0-4.675-4.677h0a9.584,9.584,0,1,1,0-19.169H22.5a4.679,4.679,0,0,0,4.683-4.673h0a1.112,1.112,0,1,0-2.225,0h0a2.45,2.45,0,0,1-2.445,2.453H15.373ZM29.649,0a1.113,1.113,0,0,1,1.114,1.112,8.245,8.245,0,0,1-8.242,8.246H15.373a6.017,6.017,0,0,0,0,12.035A8.248,8.248,0,0,1,23.62,29.64a1.113,1.113,0,0,1-2.226,0,6.017,6.017,0,0,0-6.022-6.013,8.246,8.246,0,0,1,0-16.492H22.5a6.018,6.018,0,0,0,6.035-6v-.02A1.113,1.113,0,0,1,29.649,0Zm-13.5,9.061A1.194,1.194,0,0,1,16,9.172h0a.987.987,0,0,0,.136-.108ZM32.09,1.514h0a9.53,9.53,0,0,1-2.8,6.377h0a9.562,9.562,0,0,1-3.65,2.279,1.114,1.114,0,1,0,.725,2.107,11.78,11.78,0,0,0,4.5-2.812h0a11.762,11.762,0,0,0,3.447-7.858V1.561a1.113,1.113,0,0,0-2.226-.045h0ZM42.86,13.568h0a3.242,3.242,0,0,0-.2.471c-.022.062-.039.13-.056.185a1.118,1.118,0,0,0,.094.815l.214.4a1.112,1.112,0,0,0,2.1-.511,1.093,1.093,0,0,0-.116-.49,1.112,1.112,0,0,0-2.039-.871ZM41.376,8.581a20.021,20.021,0,0,1-1.453,2.938,6.375,6.375,0,0,0-.95,3.1V14.7a3.489,3.489,0,0,0,.4,1.684l.012.02a27.4,27.4,0,0,1,2.2,5.167,1.112,1.112,0,0,0,2.177-.326,1.159,1.159,0,0,0-.048-.329,29.529,29.529,0,0,0-2.385-5.57,1.228,1.228,0,0,1-.143-.685V14.6a4.337,4.337,0,0,1,.629-1.918,22.508,22.508,0,0,0,1.618-3.273,1.114,1.114,0,0,0-2.072-.822ZM38.752,5.106h0A16.614,16.614,0,0,1,36.87,9.68a9.866,9.866,0,0,0-1.461,4.979v.046a7.059,7.059,0,0,0,.86,3.425,23.659,23.659,0,0,1,2.6,7.3,1.114,1.114,0,1,0,2.192-.391,25.958,25.958,0,0,0-2.835-7.973,4.827,4.827,0,0,1-.6-2.376v-.017a7.684,7.684,0,0,1,1.142-3.831A18.853,18.853,0,0,0,40.9,5.646a1.114,1.114,0,1,0-2.164-.533ZM35.561,2.8a13.052,13.052,0,0,1-1.75,5.042,13.424,13.424,0,0,0-1.967,6.832,10.623,10.623,0,0,0,1.3,5.177,20.117,20.117,0,0,1,2.444,8.012,1.113,1.113,0,1,0,2.224-.1v-.1a22.343,22.343,0,0,0-2.712-8.9,8.4,8.4,0,0,1-1.029-4.1,11.218,11.218,0,0,1,1.65-5.685,15.264,15.264,0,0,0,2.05-5.9A1.115,1.115,0,0,0,35.557,2.8ZM28.3,13.994q.65.537,1.26,1.132c.091.09.185.186.267.267a.4.4,0,0,0,.683-.276v-.436a13.675,13.675,0,0,1,.219-2.411.409.409,0,0,0-.326-.478.4.4,0,0,0-.309.065,12.879,12.879,0,0,1-1.67,1A.682.682,0,0,0,28.293,14Z" transform="translate(22.984 119.424)" fill="#393842"/>
        <rect id="Rectángulo_1530" data-name="Rectángulo 1530" width="15.642" height="141.925" rx="2.288" transform="translate(88.699 18.069)" fill="#393842"/>
      </g>
      <text id="Fecha_en_la_parte_posterior" data-name="Fecha en la parte posterior" transform="translate(930.256 414.797)" fill="#e8e8e8" font-size="11" font-family="BalooTamma2-Medium, 'Baloo Tamma \32 '" font-weight="500" style="isolation: isolate"><tspan x="-64.048" y="0">Fecha en la parte posterior</tspan></text>
    </g>
    <text id="Cédula_y_tarjeta_de_identidad" data-name="Cédula y tarjeta de identidad" transform="translate(833.989 315.227)" fill="#784eeb" font-size="14" font-family="BalooTamma2-Medium, 'Baloo Tamma \32 '" font-weight="500"><tspan x="0" y="15">Cédula y tarjeta de identidad</tspan></text>
    <text id="Cédula_de_extranjería" data-name="Cédula de extranjería" transform="translate(927.989 460.227)" fill="#784eeb" font-size="14" font-family="BalooTamma2-Medium, 'Baloo Tamma \32 '" font-weight="500"><tspan x="55.57" y="15">Cédula de extranjería</tspan></text>
  </g>
</svg>
