<svg xmlns="http://www.w3.org/2000/svg" xmlns:xlink="http://www.w3.org/1999/xlink" width="264.2" height="232.848" viewBox="0 0 264.2 232.848">
  <defs>
    <linearGradient id="linear-gradient" x1="0.633" y1="1.003" x2="0.337" y2="0.006" gradientUnits="objectBoundingBox">
      <stop offset="0.11" stop-color="#fff"/>
      <stop offset="1" stop-color="#e1ebf7"/>
    </linearGradient>
    <linearGradient id="linear-gradient-2" x1="16.628" y1="0.823" x2="15.633" y2="0.092" gradientUnits="objectBoundingBox">
      <stop offset="0.038" stop-color="#a5cbef"/>
      <stop offset="0.223" stop-color="#b9d6f2"/>
      <stop offset="0.525" stop-color="#d3e6f7"/>
      <stop offset="0.794" stop-color="#e4eff9"/>
      <stop offset="1" stop-color="#eaf3fb"/>
    </linearGradient>
    <linearGradient id="linear-gradient-3" x1="15.464" y1="0.823" x2="14.469" y2="0.092" xlink:href="#linear-gradient-2"/>
    <linearGradient id="linear-gradient-4" y1="0.5" x2="1" y2="0.5" gradientUnits="objectBoundingBox">
      <stop offset="0" stop-color="#ffc107"/>
      <stop offset="0.85" stop-color="#ff9800"/>
    </linearGradient>
    <linearGradient id="linear-gradient-5" y1="0.5" x2="1" y2="0.5" gradientUnits="objectBoundingBox">
      <stop offset="0.15" stop-color="#ff9800"/>
      <stop offset="1" stop-color="#ffc107"/>
    </linearGradient>
    <linearGradient id="linear-gradient-6" x1="0.587" y1="0.979" x2="0.412" y2="0.014" gradientUnits="objectBoundingBox">
      <stop offset="0" stop-color="#3c5185"/>
      <stop offset="0.128" stop-color="#41578d"/>
      <stop offset="0.695" stop-color="#5572b0"/>
      <stop offset="1" stop-color="#5d7dbe"/>
    </linearGradient>
    <radialGradient id="radial-gradient" cx="0.5" cy="0.5" r="0.875" gradientTransform="translate(0.211 108.878) scale(0.577 0.517)" gradientUnits="objectBoundingBox">
      <stop offset="0.091" stop-color="#3c5185"/>
      <stop offset="0.254" stop-color="#6f7ea5"/>
      <stop offset="0.437" stop-color="#a2acc4"/>
      <stop offset="0.609" stop-color="#cad0de"/>
      <stop offset="0.765" stop-color="#e7e9f0"/>
      <stop offset="0.901" stop-color="#f8f9fb"/>
      <stop offset="1" stop-color="#fff"/>
    </radialGradient>
    <linearGradient id="linear-gradient-10" x1="0.001" y1="0.5" x2="0.999" y2="0.5" xlink:href="#linear-gradient-5"/>
    <radialGradient id="radial-gradient-2" cx="0.5" cy="0.5" r="0.875" gradientTransform="translate(0.211 150.93) scale(0.577 0.517)" xlink:href="#radial-gradient"/>
    <radialGradient id="radial-gradient-3" cx="0.5" cy="0.5" r="0.875" gradientTransform="translate(0.211 108.412) scale(0.577 0.517)" xlink:href="#radial-gradient"/>
    <linearGradient id="linear-gradient-11" x1="0" y1="0.5" x2="1" y2="0.5" xlink:href="#linear-gradient-6"/>
    <linearGradient id="linear-gradient-12" x1="33.618" y1="0.5" x2="34.618" y2="0.5" xlink:href="#linear-gradient-6"/>
    <linearGradient id="linear-gradient-13" x1="40.593" y1="0.685" x2="40.432" y2="0.199" xlink:href="#linear-gradient-6"/>
    <radialGradient id="radial-gradient-4" cx="0.5" cy="0.5" r="0.875" gradientTransform="translate(0.211 174.946) scale(0.577 0.517)" gradientUnits="objectBoundingBox">
      <stop offset="0.529" stop-color="#3c5185"/>
      <stop offset="0.569" stop-color="#65769f"/>
      <stop offset="0.615" stop-color="#8e9ab8"/>
      <stop offset="0.664" stop-color="#b1b9ce"/>
      <stop offset="0.716" stop-color="#cdd2e0"/>
      <stop offset="0.771" stop-color="#e3e6ed"/>
      <stop offset="0.831" stop-color="#f3f4f7"/>
      <stop offset="0.901" stop-color="#fcfcfd"/>
      <stop offset="1" stop-color="#fff"/>
    </radialGradient>
    <linearGradient id="linear-gradient-15" x1="121.825" y1="0.5" x2="122.825" y2="0.5" gradientUnits="objectBoundingBox">
      <stop offset="0" stop-color="#ff9800"/>
      <stop offset="0.626" stop-color="#ffb004"/>
      <stop offset="1" stop-color="#ffc107"/>
    </linearGradient>
    <linearGradient id="linear-gradient-18" y1="0.5" x2="1" y2="0.5" gradientUnits="objectBoundingBox">
      <stop offset="0.004" stop-color="#a5cbef"/>
      <stop offset="0.214" stop-color="#b2d2f1"/>
      <stop offset="0.604" stop-color="#d5e6f7"/>
      <stop offset="1" stop-color="#fff"/>
    </linearGradient>
  </defs>
  <g id="Grupo_2947" data-name="Grupo 2947" transform="translate(-108.517 -48.506)">
    <path id="Trazado_7685" data-name="Trazado 7685" d="M359.546,169.242c0,58-57.268,98.87-115.269,98.87s-111.853-40.87-111.853-98.87S167.145,48.506,225.146,48.506,359.546,111.241,359.546,169.242Z" transform="translate(-0.975 0)" fill="url(#linear-gradient)"/>
    <g id="Grupo_2894" data-name="Grupo 2894" transform="translate(142.826 62.848)">
      <g id="Grupo_2890" data-name="Grupo 2890" transform="translate(0 3.094)" opacity="0.3">
        <path id="Trazado_7686" data-name="Trazado 7686" d="M290.608,96.619l-.269-.552a2.616,2.616,0,0,0-.755-.893c-.057-.054-.127-.1-.192-.153-.04-.026-.069-.064-.111-.088l-.071-.04c-.078-.054-.143-.113-.231-.164L241.79,67.485a6.925,6.925,0,0,0-6.244,0L145.61,119.41c-1.054.608-1.454,1.454-1.214,2.247l-.073.043v1.714a5.03,5.03,0,0,0,2.52,4.359L192.8,154.225a6.927,6.927,0,0,0,6.245,0l89.789-51.82A4.44,4.44,0,0,0,290.608,96.619Z" transform="translate(-144.323 -66.741)" fill="#3c5185" opacity="0"/>
        <path id="Trazado_7687" data-name="Trazado 7687" d="M290.292,96.588l-.267-.549a2.6,2.6,0,0,0-.751-.889c-.057-.053-.127-.1-.191-.151-.04-.026-.07-.064-.11-.088l-.071-.04c-.078-.054-.143-.113-.23-.164l-46.938-27.1a6.887,6.887,0,0,0-6.211,0L145.91,119.359c-1.049.605-1.447,1.447-1.208,2.235l-.074.043v1.706a5,5,0,0,0,2.507,4.336l45.712,26.311a6.892,6.892,0,0,0,6.211,0l89.468-51.648A4.415,4.415,0,0,0,290.292,96.588Z" transform="translate(-144.336 -66.747)" fill="#3c5185" opacity="0.024"/>
        <path id="Trazado_7688" data-name="Trazado 7688" d="M289.978,96.556l-.265-.546a2.588,2.588,0,0,0-.748-.884c-.057-.053-.126-.1-.19-.151-.039-.026-.069-.063-.109-.087l-.071-.04c-.077-.054-.141-.112-.229-.163L241.679,67.73a6.852,6.852,0,0,0-6.178,0l-89.29,51.578c-1.043.6-1.439,1.439-1.2,2.223l-.072.043v1.7a4.977,4.977,0,0,0,2.494,4.313L192.9,153.753a6.852,6.852,0,0,0,6.178,0l89.147-51.474A4.393,4.393,0,0,0,289.978,96.556Z" transform="translate(-144.35 -66.752)" fill="#3c5185" opacity="0.049"/>
        <path id="Trazado_7689" data-name="Trazado 7689" d="M289.663,96.523l-.264-.543a2.574,2.574,0,0,0-.744-.879c-.056-.053-.124-.1-.188-.15-.039-.026-.069-.063-.109-.087l-.07-.04c-.078-.053-.142-.111-.228-.161L241.624,67.853a6.819,6.819,0,0,0-6.146,0l-88.967,51.4c-1.037.6-1.431,1.431-1.2,2.212l-.072.042V123.2a4.95,4.95,0,0,0,2.48,4.29l45.224,26.03a6.82,6.82,0,0,0,6.146,0l88.824-51.3A4.369,4.369,0,0,0,289.663,96.523Z" transform="translate(-144.363 -66.758)" fill="#3c5185" opacity="0.073"/>
        <path id="Trazado_7690" data-name="Trazado 7690" d="M289.348,96.492l-.262-.54a2.559,2.559,0,0,0-.739-.875c-.056-.052-.124-.1-.188-.149-.039-.025-.068-.063-.108-.086l-.07-.04c-.077-.053-.14-.11-.227-.16L241.568,67.976a6.779,6.779,0,0,0-6.112,0l-88.645,51.23c-1.032.6-1.424,1.424-1.189,2.2l-.072.042v1.678a4.925,4.925,0,0,0,2.467,4.268L193,153.282a6.785,6.785,0,0,0,6.112,0l88.5-51.13A4.344,4.344,0,0,0,289.348,96.492Z" transform="translate(-144.377 -66.763)" fill="#3c5185" opacity="0.098"/>
        <path id="Trazado_7691" data-name="Trazado 7691" d="M289.033,96.459l-.261-.537a2.537,2.537,0,0,0-.735-.869c-.056-.052-.123-.1-.186-.149-.039-.025-.068-.062-.108-.085l-.069-.039c-.077-.053-.14-.11-.226-.16L241.513,68.1a6.747,6.747,0,0,0-6.08,0l-88.322,51.057c-1.027.593-1.416,1.416-1.183,2.188l-.071.042v1.669a4.9,4.9,0,0,0,2.454,4.244l44.735,25.749a6.747,6.747,0,0,0,6.08,0l88.18-50.956A4.321,4.321,0,0,0,289.033,96.459Z" transform="translate(-144.39 -66.769)" fill="#3c5185" opacity="0.122"/>
        <path id="Trazado_7692" data-name="Trazado 7692" d="M288.719,96.427l-.259-.535a2.545,2.545,0,0,0-.732-.865c-.056-.051-.123-.1-.186-.147-.038-.025-.067-.062-.107-.085l-.068-.039c-.077-.053-.14-.11-.225-.159L241.457,68.22a6.712,6.712,0,0,0-6.046,0l-88,50.884c-1.021.589-1.408,1.409-1.176,2.175l-.071.042v1.66a4.87,4.87,0,0,0,2.44,4.221L193.1,152.811a6.706,6.706,0,0,0,6.046,0L287,102.027A4.3,4.3,0,0,0,288.719,96.427Z" transform="translate(-144.404 -66.775)" fill="#3c5185" opacity="0.146"/>
        <path id="Trazado_7693" data-name="Trazado 7693" d="M288.4,96.394l-.258-.531a2.518,2.518,0,0,0-.728-.861c-.055-.051-.122-.1-.185-.147-.038-.025-.067-.061-.107-.084l-.068-.039c-.076-.053-.139-.109-.223-.158L241.4,68.343a6.67,6.67,0,0,0-6.012,0l-87.677,50.71c-1.016.586-1.4,1.4-1.169,2.164l-.071.041v1.651a4.842,4.842,0,0,0,2.427,4.2l44.247,25.468a6.672,6.672,0,0,0,6.013,0L286.7,101.964A4.277,4.277,0,0,0,288.4,96.394Z" transform="translate(-144.417 -66.78)" fill="#3c5185" opacity="0.171"/>
        <path id="Trazado_7694" data-name="Trazado 7694" d="M288.089,96.363l-.256-.529a2.515,2.515,0,0,0-.723-.856c-.055-.051-.122-.1-.184-.145-.038-.025-.066-.061-.106-.084l-.068-.039c-.076-.052-.137-.108-.222-.157L241.346,68.465a6.631,6.631,0,0,0-5.979,0L148.012,119c-1.01.583-1.393,1.393-1.164,2.151l-.07.041v1.643a4.818,4.818,0,0,0,2.413,4.174l44,25.328a6.637,6.637,0,0,0,5.979,0L286.39,101.9A4.249,4.249,0,0,0,288.089,96.363Z" transform="translate(-144.431 -66.786)" fill="#3c5185" opacity="0.195"/>
        <path id="Trazado_7695" data-name="Trazado 7695" d="M287.774,96.33l-.255-.525a2.478,2.478,0,0,0-.719-.851c-.055-.051-.121-.1-.184-.145-.037-.025-.066-.061-.105-.083l-.067-.039c-.076-.052-.137-.107-.221-.156L241.29,68.589a6.591,6.591,0,0,0-5.946,0l-87.033,50.363c-1,.579-1.385,1.386-1.156,2.14l-.07.041v1.632a4.791,4.791,0,0,0,2.4,4.152l43.76,25.186a6.6,6.6,0,0,0,5.946,0l86.894-50.266A4.226,4.226,0,0,0,287.774,96.33Z" transform="translate(-144.444 -66.791)" fill="#3c5185" opacity="0.22"/>
        <path id="Trazado_7696" data-name="Trazado 7696" d="M287.46,96.3l-.254-.522a2.462,2.462,0,0,0-.715-.846c-.055-.051-.12-.1-.182-.144-.037-.025-.066-.061-.105-.083l-.067-.039c-.075-.051-.136-.107-.219-.155l-44.682-25.8a6.558,6.558,0,0,0-5.913,0L148.612,118.9c-1,.577-1.377,1.378-1.149,2.129l-.07.04v1.624a4.763,4.763,0,0,0,2.387,4.128L193.3,151.868a6.564,6.564,0,0,0,5.913,0l86.571-50.093A4.2,4.2,0,0,0,287.46,96.3Z" transform="translate(-144.457 -66.797)" fill="#3c5185" opacity="0.244"/>
        <path id="Trazado_7697" data-name="Trazado 7697" d="M287.145,96.266l-.252-.52a2.466,2.466,0,0,0-.712-.841c-.054-.05-.119-.1-.181-.143-.038-.024-.066-.06-.1-.082l-.067-.038c-.075-.052-.135-.107-.218-.155L241.179,68.833a6.524,6.524,0,0,0-5.88,0L148.912,118.85c-.993.574-1.369,1.37-1.144,2.116l-.069.04v1.615a4.738,4.738,0,0,0,2.373,4.1l43.271,24.906a6.526,6.526,0,0,0,5.881,0l86.249-49.92A4.179,4.179,0,0,0,287.145,96.266Z" transform="translate(-144.471 -66.802)" fill="#3c5185" opacity="0.268"/>
        <path id="Trazado_7698" data-name="Trazado 7698" d="M286.829,96.234l-.251-.516a2.446,2.446,0,0,0-.708-.837c-.053-.05-.119-.1-.18-.143-.037-.024-.065-.059-.1-.082l-.067-.037c-.074-.051-.134-.106-.216-.154L241.124,68.956a6.485,6.485,0,0,0-5.847,0L149.213,118.8c-.987.57-1.362,1.363-1.137,2.1l-.069.04v1.605a4.71,4.71,0,0,0,2.36,4.081L193.394,151.4a6.485,6.485,0,0,0,5.847,0l85.927-49.746A4.156,4.156,0,0,0,286.829,96.234Z" transform="translate(-144.484 -66.808)" fill="#3c5185" opacity="0.293"/>
        <path id="Trazado_7699" data-name="Trazado 7699" d="M286.515,96.2l-.25-.513a2.44,2.44,0,0,0-.7-.833c-.054-.049-.119-.095-.179-.142-.037-.024-.065-.059-.1-.082l-.066-.037c-.074-.051-.134-.105-.216-.153l-43.93-25.363a6.451,6.451,0,0,0-5.814,0l-85.742,49.67c-.981.567-1.354,1.355-1.13,2.092l-.069.04v1.6a4.684,4.684,0,0,0,2.347,4.058l42.783,24.625a6.451,6.451,0,0,0,5.814,0l85.606-49.574A4.132,4.132,0,0,0,286.515,96.2Z" transform="translate(-144.498 -66.813)" fill="#3c5185" opacity="0.317"/>
        <path id="Trazado_7700" data-name="Trazado 7700" d="M286.2,96.169l-.249-.511a2.41,2.41,0,0,0-.7-.827c-.054-.049-.118-.094-.178-.142-.036-.024-.064-.059-.1-.081l-.065-.037c-.074-.05-.133-.105-.215-.152L241.012,69.2a6.416,6.416,0,0,0-5.78,0l-85.419,49.5c-.976.564-1.346,1.347-1.124,2.081l-.068.039V122.4a4.66,4.66,0,0,0,2.333,4.036l42.54,24.485a6.416,6.416,0,0,0,5.78,0l85.285-49.4A4.11,4.11,0,0,0,286.2,96.169Z" transform="translate(-144.511 -66.819)" fill="#3c5185" opacity="0.341"/>
        <path id="Trazado_7701" data-name="Trazado 7701" d="M285.886,96.137l-.247-.508a2.4,2.4,0,0,0-.7-.822c-.054-.049-.118-.094-.178-.141-.036-.024-.063-.059-.1-.081l-.065-.037c-.073-.05-.132-.1-.213-.151l-43.43-25.074a6.376,6.376,0,0,0-5.747,0l-85.1,49.323c-.971.56-1.339,1.34-1.118,2.068l-.068.04v1.578a4.631,4.631,0,0,0,2.32,4.012l42.3,24.344a6.376,6.376,0,0,0,5.747,0l84.962-49.228A4.085,4.085,0,0,0,285.886,96.137Z" transform="translate(-144.525 -66.824)" fill="#3c5185" opacity="0.366"/>
        <path id="Trazado_7702" data-name="Trazado 7702" d="M285.57,96.1l-.245-.5a2.394,2.394,0,0,0-.691-.818c-.053-.049-.117-.093-.176-.14-.036-.023-.063-.058-.1-.08l-.065-.037c-.072-.05-.131-.1-.211-.15L240.9,69.446a6.344,6.344,0,0,0-5.714,0L150.414,118.6c-.965.557-1.332,1.332-1.111,2.057l-.068.039v1.569a4.6,4.6,0,0,0,2.306,3.989l42.051,24.2a6.344,6.344,0,0,0,5.714,0L283.948,101.4A4.063,4.063,0,0,0,285.57,96.1Z" transform="translate(-144.538 -66.83)" fill="#3c5185" opacity="0.39"/>
        <path id="Trazado_7703" data-name="Trazado 7703" d="M285.256,96.073l-.244-.5a2.378,2.378,0,0,0-.688-.813c-.052-.049-.116-.093-.175-.139-.035-.024-.063-.058-.1-.08l-.064-.037c-.072-.049-.13-.1-.211-.149L240.846,69.568a6.3,6.3,0,0,0-5.681,0l-84.451,48.977c-.959.554-1.323,1.323-1.105,2.044l-.067.039v1.561a4.577,4.577,0,0,0,2.293,3.965l41.807,24.064a6.3,6.3,0,0,0,5.682,0l84.318-48.883A4.039,4.039,0,0,0,285.256,96.073Z" transform="translate(-144.552 -66.835)" fill="#3c5185" opacity="0.415"/>
        <path id="Trazado_7704" data-name="Trazado 7704" d="M284.941,96.04l-.243-.5a2.361,2.361,0,0,0-.683-.809c-.053-.048-.115-.092-.174-.138-.036-.023-.063-.058-.1-.079l-.064-.036c-.071-.05-.129-.1-.209-.149L240.791,69.691a6.263,6.263,0,0,0-5.647,0l-84.129,48.8c-.954.55-1.316,1.315-1.1,2.032l-.067.039v1.551a4.552,4.552,0,0,0,2.28,3.942l41.563,23.922a6.265,6.265,0,0,0,5.648,0l84-48.71A4.015,4.015,0,0,0,284.941,96.04Z" transform="translate(-144.565 -66.841)" fill="#3c5185" opacity="0.439"/>
        <path id="Trazado_7705" data-name="Trazado 7705" d="M284.627,96.009l-.241-.5a2.345,2.345,0,0,0-.68-.8c-.052-.048-.114-.092-.172-.138-.036-.023-.063-.057-.1-.078l-.063-.036c-.071-.049-.129-.1-.208-.148l-42.427-24.5a6.23,6.23,0,0,0-5.615,0l-83.806,48.63c-.948.548-1.308,1.308-1.092,2.021l-.065.038v1.541a4.525,4.525,0,0,0,2.265,3.92l41.319,23.782a6.23,6.23,0,0,0,5.615,0l83.675-48.537A3.992,3.992,0,0,0,284.627,96.009Z" transform="translate(-144.579 -66.847)" fill="#3c5185" opacity="0.463"/>
        <path id="Trazado_7706" data-name="Trazado 7706" d="M284.311,95.977l-.239-.493a2.335,2.335,0,0,0-.675-.8c-.052-.048-.114-.092-.172-.137-.035-.023-.062-.057-.1-.078l-.064-.036c-.071-.049-.128-.1-.206-.146L240.68,69.937a6.19,6.19,0,0,0-5.581,0l-83.484,48.457c-.942.543-1.3,1.3-1.085,2.008l-.065.038v1.533a4.5,4.5,0,0,0,2.253,3.9l41.075,23.642a6.2,6.2,0,0,0,5.581,0l83.353-48.365A3.965,3.965,0,0,0,284.311,95.977Z" transform="translate(-144.592 -66.852)" fill="#3c5185" opacity="0.488"/>
        <path id="Trazado_7707" data-name="Trazado 7707" d="M284,95.944l-.238-.49a2.329,2.329,0,0,0-.671-.795c-.051-.047-.113-.091-.17-.136-.035-.023-.062-.056-.1-.077l-.063-.036c-.071-.048-.127-.1-.206-.145L240.624,70.059a6.157,6.157,0,0,0-5.549,0l-83.161,48.283c-.936.54-1.293,1.292-1.079,2l-.066.038V121.9a4.471,4.471,0,0,0,2.24,3.874l40.831,23.5a6.155,6.155,0,0,0,5.548,0l83.032-48.191A3.944,3.944,0,0,0,284,95.944Z" transform="translate(-144.605 -66.858)" fill="#3c5185" opacity="0.512"/>
        <path id="Trazado_7708" data-name="Trazado 7708" d="M283.682,95.912l-.237-.488a2.307,2.307,0,0,0-.666-.789c-.052-.047-.113-.09-.17-.135-.035-.023-.061-.056-.1-.077l-.063-.036c-.07-.048-.126-.1-.2-.144L240.568,70.181a6.121,6.121,0,0,0-5.514,0l-82.839,48.11c-.931.537-1.285,1.284-1.073,1.984l-.064.038v1.515a4.442,4.442,0,0,0,2.226,3.85l40.586,23.361a6.123,6.123,0,0,0,5.515,0l82.71-48.019A3.92,3.92,0,0,0,283.682,95.912Z" transform="translate(-144.619 -66.863)" fill="#3c5185" opacity="0.537"/>
        <path id="Trazado_7709" data-name="Trazado 7709" d="M283.367,95.88l-.235-.484a2.292,2.292,0,0,0-.663-.785c-.051-.046-.112-.089-.169-.134-.034-.023-.06-.056-.1-.076l-.062-.036c-.07-.047-.126-.1-.2-.143L240.513,70.3a6.082,6.082,0,0,0-5.482,0L152.515,118.24c-.926.534-1.277,1.277-1.066,1.973l-.064.037v1.506a4.416,4.416,0,0,0,2.213,3.827L193.94,148.8a6.082,6.082,0,0,0,5.482,0l82.388-47.846A3.9,3.9,0,0,0,283.367,95.88Z" transform="translate(-144.632 -66.869)" fill="#3c5185" opacity="0.561"/>
        <path id="Trazado_7710" data-name="Trazado 7710" d="M283.052,95.848l-.233-.482a2.275,2.275,0,0,0-.66-.779c-.05-.047-.111-.089-.167-.133-.034-.023-.06-.056-.1-.076l-.062-.036c-.069-.047-.124-.1-.2-.142L240.457,70.426a6.042,6.042,0,0,0-5.448,0L152.816,118.19c-.92.531-1.27,1.269-1.059,1.96l-.064.038v1.5a4.389,4.389,0,0,0,2.2,3.8l40.1,23.08a6.044,6.044,0,0,0,5.449,0l82.066-47.672A3.873,3.873,0,0,0,283.052,95.848Z" transform="translate(-144.646 -66.874)" fill="#3c5185" opacity="0.585"/>
        <path id="Trazado_7711" data-name="Trazado 7711" d="M282.738,95.815l-.232-.478a2.276,2.276,0,0,0-.655-.775c-.05-.046-.111-.088-.167-.132-.034-.022-.059-.055-.1-.076l-.061-.034c-.069-.047-.124-.1-.2-.142L240.4,70.548a6.009,6.009,0,0,0-5.416,0l-81.87,47.59c-.914.528-1.262,1.261-1.054,1.949l-.063.037v1.487a4.363,4.363,0,0,0,2.186,3.781l39.855,22.939a6.009,6.009,0,0,0,5.416,0l81.744-47.5A3.849,3.849,0,0,0,282.738,95.815Z" transform="translate(-144.659 -66.88)" fill="#3c5185" opacity="0.61"/>
        <path id="Trazado_7712" data-name="Trazado 7712" d="M282.423,95.783l-.231-.475a2.249,2.249,0,0,0-.651-.771c-.05-.046-.109-.088-.165-.131-.034-.023-.06-.055-.1-.076l-.061-.034c-.068-.047-.123-.1-.2-.142L240.346,70.672a5.969,5.969,0,0,0-5.382,0l-81.548,47.416c-.909.524-1.255,1.254-1.047,1.936l-.063.037v1.478a4.336,4.336,0,0,0,2.173,3.758l39.611,22.8a5.975,5.975,0,0,0,5.382,0l81.423-47.327A3.827,3.827,0,0,0,282.423,95.783Z" transform="translate(-144.673 -66.885)" fill="#3c5185" opacity="0.634"/>
        <path id="Trazado_7713" data-name="Trazado 7713" d="M282.108,95.752l-.23-.473a2.238,2.238,0,0,0-.646-.765c-.05-.046-.109-.087-.164-.131-.034-.022-.06-.055-.1-.076l-.06-.034c-.068-.047-.123-.1-.2-.141L240.291,70.794a5.936,5.936,0,0,0-5.35,0l-81.225,47.243c-.9.521-1.247,1.246-1.04,1.925l-.063.036v1.47a4.308,4.308,0,0,0,2.159,3.734l39.366,22.658a5.936,5.936,0,0,0,5.35,0l81.1-47.154A3.8,3.8,0,0,0,282.108,95.752Z" transform="translate(-144.686 -66.891)" fill="#3c5185" opacity="0.659"/>
        <path id="Trazado_7714" data-name="Trazado 7714" d="M281.793,95.719l-.228-.47a2.225,2.225,0,0,0-.644-.761c-.049-.045-.108-.086-.164-.13-.033-.022-.059-.055-.095-.075l-.06-.034c-.067-.046-.121-.1-.2-.14L240.236,70.916a5.9,5.9,0,0,0-5.317,0l-80.9,47.07c-.9.518-1.239,1.238-1.035,1.912l-.062.037v1.459a4.285,4.285,0,0,0,2.146,3.712l39.122,22.518a5.9,5.9,0,0,0,5.316,0l80.779-46.981A3.779,3.779,0,0,0,281.793,95.719Z" transform="translate(-144.7 -66.896)" fill="#3c5185" opacity="0.683"/>
        <path id="Trazado_7715" data-name="Trazado 7715" d="M281.479,95.687l-.227-.468a2.2,2.2,0,0,0-.64-.755c-.049-.045-.107-.086-.163-.129-.033-.022-.058-.055-.093-.075l-.06-.034c-.067-.046-.121-.1-.2-.139L240.179,71.039a5.86,5.86,0,0,0-5.282,0l-80.58,46.9c-.892.514-1.232,1.231-1.028,1.9l-.062.036v1.451a4.257,4.257,0,0,0,2.132,3.688l38.878,22.378a5.861,5.861,0,0,0,5.283,0l80.458-46.809A3.756,3.756,0,0,0,281.479,95.687Z" transform="translate(-144.713 -66.902)" fill="#3c5185" opacity="0.707"/>
        <path id="Trazado_7716" data-name="Trazado 7716" d="M281.164,95.655l-.226-.464a2.208,2.208,0,0,0-.635-.752c-.049-.044-.107-.085-.162-.128-.033-.021-.058-.054-.093-.074l-.06-.034c-.066-.045-.12-.095-.194-.138l-39.671-22.9a5.827,5.827,0,0,0-5.25,0l-80.258,46.723c-.886.512-1.223,1.223-1.02,1.889l-.062.036v1.441a4.229,4.229,0,0,0,2.119,3.665l38.634,22.237a5.821,5.821,0,0,0,5.25,0l80.136-46.635A3.734,3.734,0,0,0,281.164,95.655Z" transform="translate(-144.726 -66.907)" fill="#3c5185" opacity="0.732"/>
        <path id="Trazado_7717" data-name="Trazado 7717" d="M280.85,95.623l-.225-.461a2.181,2.181,0,0,0-.631-.747c-.048-.044-.106-.085-.161-.127-.033-.022-.057-.054-.092-.074l-.059-.034c-.066-.045-.12-.094-.193-.137l-39.42-22.759a5.787,5.787,0,0,0-5.216,0l-79.936,46.549c-.881.509-1.215,1.215-1.015,1.877l-.061.036v1.432a4.2,4.2,0,0,0,2.106,3.642l38.391,22.1a5.789,5.789,0,0,0,5.217,0l79.813-46.463A3.708,3.708,0,0,0,280.85,95.623Z" transform="translate(-144.74 -66.913)" fill="#3c5185" opacity="0.756"/>
        <path id="Trazado_7718" data-name="Trazado 7718" d="M280.534,95.59l-.223-.458a2.159,2.159,0,0,0-.626-.741c-.048-.044-.106-.085-.16-.127-.033-.021-.057-.054-.092-.073l-.058-.033c-.066-.045-.12-.095-.193-.137L240.013,71.407a5.748,5.748,0,0,0-5.184,0l-79.612,46.376c-.875.5-1.208,1.208-1.008,1.866l-.061.035v1.424a4.177,4.177,0,0,0,2.092,3.618l38.147,21.956a5.754,5.754,0,0,0,5.184,0l79.491-46.291A3.684,3.684,0,0,0,280.534,95.59Z" transform="translate(-144.753 -66.919)" fill="#3c5185" opacity="0.78"/>
        <path id="Trazado_7719" data-name="Trazado 7719" d="M280.22,95.558,280,95.1a2.156,2.156,0,0,0-.623-.737c-.047-.043-.1-.084-.159-.125-.033-.022-.056-.054-.091-.073l-.058-.033c-.065-.045-.119-.094-.191-.136l-38.918-22.47a5.714,5.714,0,0,0-5.15,0l-79.29,46.2c-.869.5-1.2,1.2-1,1.853l-.06.035v1.414a4.151,4.151,0,0,0,2.079,3.6l37.9,21.815a5.714,5.714,0,0,0,5.15,0l79.17-46.117A3.661,3.661,0,0,0,280.22,95.558Z" transform="translate(-144.767 -66.924)" fill="#3c5185" opacity="0.805"/>
        <path id="Trazado_7720" data-name="Trazado 7720" d="M279.905,95.526l-.22-.451a2.147,2.147,0,0,0-.619-.732c-.048-.044-.1-.083-.158-.125-.033-.021-.057-.053-.091-.072l-.058-.033c-.064-.044-.117-.093-.189-.135L239.9,71.652a5.675,5.675,0,0,0-5.118,0l-78.967,46.029c-.864.5-1.192,1.192-1,1.842l-.06.035v1.4a4.123,4.123,0,0,0,2.065,3.572l37.658,21.675a5.675,5.675,0,0,0,5.118,0l78.848-45.945A3.637,3.637,0,0,0,279.905,95.526Z" transform="translate(-144.78 -66.93)" fill="#3c5185" opacity="0.829"/>
        <path id="Trazado_7721" data-name="Trazado 7721" d="M279.59,95.494l-.218-.449a2.128,2.128,0,0,0-.615-.728c-.047-.043-.1-.082-.157-.124-.032-.021-.056-.052-.09-.071l-.057-.033c-.064-.044-.117-.092-.188-.134l-38.417-22.18a5.641,5.641,0,0,0-5.084,0L156.118,117.63c-.859.5-1.185,1.185-.989,1.829l-.06.035v1.4a4.1,4.1,0,0,0,2.052,3.549l37.414,21.535a5.641,5.641,0,0,0,5.084,0L278.146,100.2A3.614,3.614,0,0,0,279.59,95.494Z" transform="translate(-144.794 -66.935)" fill="#3c5185" opacity="0.854"/>
        <path id="Trazado_7722" data-name="Trazado 7722" d="M279.275,95.462l-.217-.447a2.1,2.1,0,0,0-.611-.723c-.046-.043-.1-.082-.155-.123-.033-.021-.056-.052-.09-.071l-.057-.033c-.064-.044-.116-.091-.186-.133L239.791,71.9a5.606,5.606,0,0,0-5.051,0l-78.322,45.683c-.853.492-1.177,1.177-.983,1.818l-.059.034v1.387a4.07,4.07,0,0,0,2.039,3.526l37.17,21.394a5.6,5.6,0,0,0,5.051,0l78.205-45.6A3.589,3.589,0,0,0,279.275,95.462Z" transform="translate(-144.807 -66.941)" fill="#3c5185" opacity="0.878"/>
        <path id="Trazado_7723" data-name="Trazado 7723" d="M278.961,95.429l-.215-.444a2.115,2.115,0,0,0-.607-.718c-.047-.042-.1-.081-.155-.122-.032-.02-.055-.052-.089-.071l-.056-.033c-.064-.043-.116-.091-.186-.132L239.735,72.02a5.566,5.566,0,0,0-5.017,0l-78,45.509c-.847.49-1.169,1.169-.976,1.806l-.059.034v1.378a4.043,4.043,0,0,0,2.025,3.5L194.635,145.5a5.566,5.566,0,0,0,5.017,0l77.883-45.425A3.568,3.568,0,0,0,278.961,95.429Z" transform="translate(-144.821 -66.946)" fill="#3c5185" opacity="0.902"/>
        <path id="Trazado_7724" data-name="Trazado 7724" d="M278.646,95.4l-.214-.441a2.087,2.087,0,0,0-.6-.713c-.046-.042-.1-.081-.153-.121-.032-.021-.055-.052-.088-.071l-.056-.032c-.064-.044-.115-.091-.186-.132L239.68,72.142a5.533,5.533,0,0,0-4.985,0l-77.676,45.335c-.841.486-1.162,1.162-.97,1.794l-.058.034v1.368A4.018,4.018,0,0,0,158,124.154l36.683,21.113a5.533,5.533,0,0,0,4.985,0l77.56-45.253A3.543,3.543,0,0,0,278.646,95.4Z" transform="translate(-144.834 -66.952)" fill="#3c5185" opacity="0.927"/>
        <path id="Trazado_7725" data-name="Trazado 7725" d="M278.33,95.365l-.212-.437a2.057,2.057,0,0,0-.6-.709c-.046-.042-.1-.081-.153-.121-.032-.02-.054-.051-.087-.07L277.223,94c-.063-.043-.114-.09-.184-.13l-37.415-21.6a5.493,5.493,0,0,0-4.951,0l-77.354,45.162c-.837.483-1.154,1.153-.964,1.782l-.057.033v1.36a3.988,3.988,0,0,0,2,3.457l36.437,20.973a5.5,5.5,0,0,0,4.952,0l77.238-45.08A3.52,3.52,0,0,0,278.33,95.365Z" transform="translate(-144.847 -66.957)" fill="#3c5185" opacity="0.951"/>
        <path id="Trazado_7726" data-name="Trazado 7726" d="M278.016,95.333,277.8,94.9a2.059,2.059,0,0,0-.595-.7c-.045-.041-.1-.08-.151-.12-.032-.021-.054-.051-.087-.07l-.056-.032c-.062-.043-.113-.089-.182-.129L239.569,72.387a5.452,5.452,0,0,0-4.918,0l-77.033,44.988c-.83.48-1.146,1.146-.956,1.77l-.057.034v1.35a3.962,3.962,0,0,0,1.985,3.434L194.783,144.8a5.455,5.455,0,0,0,4.919,0l76.917-44.907A3.5,3.5,0,0,0,278.016,95.333Z" transform="translate(-144.861 -66.963)" fill="#3c5185" opacity="0.976"/>
        <path id="Trazado_7727" data-name="Trazado 7727" d="M277.7,95.3l-.209-.431a2.054,2.054,0,0,0-.591-.7c-.045-.042-.1-.079-.151-.12-.031-.02-.053-.05-.086-.069l-.055-.032c-.062-.042-.112-.089-.181-.128L239.514,72.509a5.42,5.42,0,0,0-4.885,0l-76.709,44.815c-.824.476-1.138,1.139-.949,1.758l-.057.033v1.342a3.933,3.933,0,0,0,1.972,3.41l35.949,20.692a5.42,5.42,0,0,0,4.885,0l76.6-44.735A3.473,3.473,0,0,0,277.7,95.3Z" transform="translate(-144.874 -66.968)" fill="#3c5185"/>
      </g>
      <g id="Grupo_2893" data-name="Grupo 2893" transform="translate(3.467)">
        <g id="Grupo_2892" data-name="Grupo 2892">
          <path id="Trazado_7728" data-name="Trazado 7728" d="M147.949,118.687v-1.67L237.012,64.7c1.671-.965,3.639-1.555,5.311-.589l46.758,26.843a2.578,2.578,0,0,1,1.031,1.1l.261.537a4.322,4.322,0,0,1-1.727,5.631l-87.42,50.453a6.743,6.743,0,0,1-6.08,0L150.4,122.931A4.9,4.9,0,0,1,147.949,118.687Z" transform="translate(-147.949 -63.51)" fill="url(#linear-gradient-2)"/>
          <path id="Trazado_7729" data-name="Trazado 7729" d="M149.2,118.293c-1.671-.965-1.671-2.544,0-3.51l87.561-50.553a6.746,6.746,0,0,1,6.079,0l45.943,26.525c1.672.966,1.672,2.545,0,3.51l-87.56,50.553a6.743,6.743,0,0,1-6.081,0Z" transform="translate(-147.949 -63.505)" fill="#f3f8fe"/>
          <path id="Trazado_7730" data-name="Trazado 7730" d="M151.227,118.213c-1.61-.929-1.61-2.451,0-3.379L236.863,65.4a6.494,6.494,0,0,1,5.854,0l8.03,4.758a.779.779,0,0,1,.054,1.312l-.886.622a.888.888,0,0,0,0,1.539L271.77,86.176a1.931,1.931,0,0,0,1.884.029l1.9-1.023a1.426,1.426,0,0,1,1.389.021l10,5.737c1.609.929,1.609,2.45,0,3.379l-85.638,49.429a6.491,6.491,0,0,1-5.853,0Z" transform="translate(-148.04 -63.558)" fill="#a5cbef"/>
          <g id="Grupo_2891" data-name="Grupo 2891" transform="translate(108.891 11.627)">
            <path id="Trazado_7731" data-name="Trazado 7731" d="M271.736,81.757a.267.267,0,0,1-.135-.036l-9.638-5.551a.271.271,0,1,1,.271-.469l9.638,5.552a.271.271,0,0,1-.136.5Z" transform="translate(-261.828 -75.664)" fill="#a5cbef"/>
          </g>
        </g>
      </g>
    </g>
    <g id="Grupo_2899" data-name="Grupo 2899" transform="translate(225.986 110.174)">
      <g id="Grupo_2895" data-name="Grupo 2895" transform="translate(0 3.094)" opacity="0.3">
        <path id="Trazado_7732" data-name="Trazado 7732" d="M377.577,146.112l-.268-.552a2.627,2.627,0,0,0-.755-.893c-.058-.054-.127-.1-.192-.153-.04-.026-.07-.064-.111-.088l-.071-.04c-.079-.054-.143-.113-.232-.164L328.76,116.978a6.927,6.927,0,0,0-6.245,0L232.58,168.9c-1.055.608-1.455,1.454-1.215,2.247l-.073.043v1.714a5.03,5.03,0,0,0,2.521,4.359l45.956,26.451a6.925,6.925,0,0,0,6.244,0L375.8,151.9A4.441,4.441,0,0,0,377.577,146.112Z" transform="translate(-231.292 -116.234)" fill="#3c5185" opacity="0"/>
        <path id="Trazado_7733" data-name="Trazado 7733" d="M377.262,146.081l-.267-.549a2.6,2.6,0,0,0-.752-.889c-.057-.053-.126-.1-.191-.151-.039-.026-.069-.064-.11-.088l-.071-.04c-.078-.054-.143-.113-.23-.163L328.7,117.1a6.887,6.887,0,0,0-6.212,0L232.88,168.852c-1.049.605-1.448,1.447-1.209,2.235l-.073.043v1.706a5,5,0,0,0,2.507,4.336l45.711,26.311a6.894,6.894,0,0,0,6.212,0L375.5,151.834A4.417,4.417,0,0,0,377.262,146.081Z" transform="translate(-231.305 -116.24)" fill="#3c5185" opacity="0.024"/>
        <path id="Trazado_7734" data-name="Trazado 7734" d="M376.947,146.049l-.265-.546a2.576,2.576,0,0,0-.748-.885c-.056-.053-.125-.1-.19-.151-.039-.026-.068-.063-.109-.087l-.07-.04c-.078-.054-.142-.112-.229-.163l-46.687-26.954a6.854,6.854,0,0,0-6.179,0L233.181,168.8c-1.043.6-1.44,1.439-1.2,2.223l-.073.043v1.7a4.977,4.977,0,0,0,2.494,4.312l45.467,26.17a6.854,6.854,0,0,0,6.179,0l89.146-51.475A4.391,4.391,0,0,0,376.947,146.049Z" transform="translate(-231.319 -116.245)" fill="#3c5185" opacity="0.049"/>
        <path id="Trazado_7735" data-name="Trazado 7735" d="M376.632,146.016l-.264-.543a2.575,2.575,0,0,0-.743-.88c-.056-.052-.125-.1-.189-.15-.039-.025-.068-.063-.109-.086l-.07-.04c-.077-.053-.141-.111-.228-.161l-46.437-26.811a6.818,6.818,0,0,0-6.145,0l-88.968,51.4c-1.037.6-1.431,1.431-1.2,2.212l-.072.042v1.688a4.95,4.95,0,0,0,2.48,4.29l45.224,26.03a6.819,6.819,0,0,0,6.146,0l88.824-51.3A4.369,4.369,0,0,0,376.632,146.016Z" transform="translate(-231.332 -116.251)" fill="#3c5185" opacity="0.073"/>
        <path id="Trazado_7736" data-name="Trazado 7736" d="M376.318,145.985l-.262-.54a2.572,2.572,0,0,0-.74-.875c-.056-.052-.124-.1-.188-.149-.038-.026-.067-.063-.108-.086l-.069-.04c-.077-.053-.141-.11-.227-.16l-46.186-26.666a6.779,6.779,0,0,0-6.112,0L233.78,168.7c-1.032.6-1.424,1.424-1.189,2.2l-.072.042v1.678a4.925,4.925,0,0,0,2.467,4.268l44.98,25.889a6.785,6.785,0,0,0,6.112,0l88.5-51.13A4.343,4.343,0,0,0,376.318,145.985Z" transform="translate(-231.346 -116.256)" fill="#3c5185" opacity="0.098"/>
        <path id="Trazado_7737" data-name="Trazado 7737" d="M376,145.952l-.261-.537a2.557,2.557,0,0,0-.735-.869c-.056-.052-.124-.1-.187-.149-.039-.025-.068-.062-.108-.085l-.069-.039c-.077-.053-.14-.111-.226-.16l-45.935-26.521a6.745,6.745,0,0,0-6.079,0l-88.323,51.057c-1.026.593-1.416,1.416-1.182,2.188l-.072.041v1.67a4.9,4.9,0,0,0,2.454,4.244l44.736,25.749a6.744,6.744,0,0,0,6.079,0l88.181-50.956A4.322,4.322,0,0,0,376,145.952Z" transform="translate(-231.359 -116.262)" fill="#3c5185" opacity="0.122"/>
        <path id="Trazado_7738" data-name="Trazado 7738" d="M375.688,145.92l-.259-.534a2.535,2.535,0,0,0-.731-.865c-.056-.051-.123-.1-.186-.147-.038-.025-.067-.062-.107-.085l-.068-.039c-.077-.053-.139-.11-.225-.159l-45.685-26.377a6.712,6.712,0,0,0-6.046,0l-88,50.884c-1.02.589-1.408,1.409-1.176,2.175l-.071.042v1.66a4.87,4.87,0,0,0,2.44,4.221L280.065,202.3a6.706,6.706,0,0,0,6.046,0L373.97,151.52A4.3,4.3,0,0,0,375.688,145.92Z" transform="translate(-231.373 -116.268)" fill="#3c5185" opacity="0.146"/>
        <path id="Trazado_7739" data-name="Trazado 7739" d="M375.373,145.887l-.258-.531a2.505,2.505,0,0,0-.727-.861c-.055-.052-.122-.1-.185-.147-.038-.025-.067-.061-.106-.084l-.069-.039c-.076-.053-.138-.109-.223-.158l-45.434-26.232a6.672,6.672,0,0,0-6.013,0l-87.677,50.71c-1.016.586-1.4,1.4-1.169,2.164l-.071.041V172.4a4.842,4.842,0,0,0,2.427,4.2l44.247,25.468a6.674,6.674,0,0,0,6.014,0l87.537-50.611A4.275,4.275,0,0,0,375.373,145.887Z" transform="translate(-231.386 -116.273)" fill="#3c5185" opacity="0.171"/>
        <path id="Trazado_7740" data-name="Trazado 7740" d="M375.059,145.856l-.257-.529a2.515,2.515,0,0,0-.723-.856c-.055-.051-.121-.1-.185-.145-.037-.025-.066-.061-.105-.084l-.068-.039c-.076-.052-.138-.108-.222-.157l-45.183-26.087a6.633,6.633,0,0,0-5.98,0L234.981,168.5c-1.01.582-1.393,1.393-1.163,2.151l-.071.041v1.643a4.818,4.818,0,0,0,2.413,4.174l44,25.328a6.639,6.639,0,0,0,5.98,0l87.214-50.439A4.25,4.25,0,0,0,375.059,145.856Z" transform="translate(-231.4 -116.279)" fill="#3c5185" opacity="0.195"/>
        <path id="Trazado_7741" data-name="Trazado 7741" d="M374.744,145.823l-.255-.525a2.492,2.492,0,0,0-.72-.851c-.055-.051-.121-.1-.183-.145-.038-.025-.066-.061-.105-.083l-.068-.039c-.076-.052-.137-.107-.22-.156L328.26,118.082a6.593,6.593,0,0,0-5.947,0l-87.032,50.363c-1,.579-1.386,1.386-1.157,2.14l-.07.041v1.632a4.793,4.793,0,0,0,2.4,4.152l43.76,25.186a6.6,6.6,0,0,0,5.947,0l86.893-50.266A4.228,4.228,0,0,0,374.744,145.823Z" transform="translate(-231.413 -116.284)" fill="#3c5185" opacity="0.22"/>
        <path id="Trazado_7742" data-name="Trazado 7742" d="M374.428,145.791l-.253-.522a2.485,2.485,0,0,0-.715-.847c-.055-.05-.12-.1-.183-.143-.037-.025-.065-.061-.1-.083l-.067-.039c-.076-.051-.136-.107-.22-.155L328.2,118.2a6.557,6.557,0,0,0-5.912,0l-86.709,50.19c-1,.577-1.378,1.378-1.15,2.128l-.07.041v1.624a4.763,4.763,0,0,0,2.387,4.128l43.516,25.047a6.564,6.564,0,0,0,5.913,0l86.572-50.093A4.2,4.2,0,0,0,374.428,145.791Z" transform="translate(-231.426 -116.29)" fill="#3c5185" opacity="0.244"/>
        <path id="Trazado_7743" data-name="Trazado 7743" d="M374.114,145.759l-.252-.52a2.455,2.455,0,0,0-.711-.841c-.054-.05-.12-.1-.181-.143-.037-.024-.065-.06-.1-.082l-.067-.039c-.075-.051-.135-.106-.218-.154l-44.432-25.653a6.524,6.524,0,0,0-5.88,0l-86.386,50.017c-.994.574-1.37,1.37-1.144,2.116l-.069.04v1.615a4.737,4.737,0,0,0,2.372,4.1l43.272,24.906a6.53,6.53,0,0,0,5.88,0l86.25-49.921A4.179,4.179,0,0,0,374.114,145.759Z" transform="translate(-231.44 -116.295)" fill="#3c5185" opacity="0.268"/>
        <path id="Trazado_7744" data-name="Trazado 7744" d="M373.8,145.727l-.251-.516a2.444,2.444,0,0,0-.707-.837c-.054-.05-.119-.1-.181-.143-.037-.024-.064-.059-.1-.082l-.066-.037c-.075-.051-.135-.106-.217-.154l-44.181-25.508a6.483,6.483,0,0,0-5.846,0l-86.064,49.843c-.988.57-1.363,1.363-1.138,2.1l-.069.04v1.605a4.712,4.712,0,0,0,2.36,4.081l43.028,24.766a6.484,6.484,0,0,0,5.846,0l85.928-49.746A4.157,4.157,0,0,0,373.8,145.727Z" transform="translate(-231.453 -116.301)" fill="#3c5185" opacity="0.293"/>
        <path id="Trazado_7745" data-name="Trazado 7745" d="M373.484,145.695l-.249-.514a2.44,2.44,0,0,0-.7-.832c-.053-.049-.119-.095-.179-.142-.037-.024-.065-.059-.1-.082l-.066-.037c-.074-.051-.133-.105-.215-.153l-43.931-25.363a6.451,6.451,0,0,0-5.814,0l-85.741,49.67c-.982.567-1.355,1.355-1.131,2.092l-.069.04v1.6a4.685,4.685,0,0,0,2.347,4.058l42.782,24.625a6.451,6.451,0,0,0,5.814,0l85.606-49.574A4.132,4.132,0,0,0,373.484,145.695Z" transform="translate(-231.467 -116.306)" fill="#3c5185" opacity="0.317"/>
        <path id="Trazado_7746" data-name="Trazado 7746" d="M373.17,145.662l-.248-.511a2.421,2.421,0,0,0-.7-.827c-.054-.049-.119-.094-.179-.142-.036-.024-.064-.059-.1-.081l-.065-.037c-.074-.051-.133-.105-.214-.152l-43.68-25.219a6.416,6.416,0,0,0-5.78,0l-85.42,49.5c-.975.563-1.346,1.347-1.124,2.081l-.068.039V171.9a4.658,4.658,0,0,0,2.333,4.036l42.539,24.485a6.416,6.416,0,0,0,5.78,0l85.285-49.4A4.109,4.109,0,0,0,373.17,145.662Z" transform="translate(-231.48 -116.312)" fill="#3c5185" opacity="0.341"/>
        <path id="Trazado_7747" data-name="Trazado 7747" d="M372.855,145.63l-.247-.508a2.4,2.4,0,0,0-.7-.822c-.053-.049-.117-.094-.177-.141-.036-.024-.064-.059-.1-.081l-.065-.037c-.073-.05-.132-.1-.213-.151l-43.429-25.074a6.378,6.378,0,0,0-5.748,0l-85.1,49.323c-.971.56-1.339,1.339-1.118,2.068l-.067.04v1.578a4.629,4.629,0,0,0,2.32,4.012l42.295,24.344a6.378,6.378,0,0,0,5.748,0l84.962-49.228A4.085,4.085,0,0,0,372.855,145.63Z" transform="translate(-231.494 -116.317)" fill="#3c5185" opacity="0.366"/>
        <path id="Trazado_7748" data-name="Trazado 7748" d="M372.54,145.6l-.246-.5a2.386,2.386,0,0,0-.691-.818c-.053-.049-.116-.093-.176-.14-.036-.024-.063-.058-.1-.08l-.064-.037c-.073-.05-.131-.1-.212-.15l-43.178-24.929a6.337,6.337,0,0,0-5.714,0l-84.774,49.15c-.965.557-1.331,1.331-1.111,2.057l-.067.039v1.569a4.6,4.6,0,0,0,2.306,3.989l42.051,24.2a6.344,6.344,0,0,0,5.714,0l84.64-49.055A4.063,4.063,0,0,0,372.54,145.6Z" transform="translate(-231.507 -116.323)" fill="#3c5185" opacity="0.39"/>
        <path id="Trazado_7749" data-name="Trazado 7749" d="M372.225,145.566l-.244-.5a2.366,2.366,0,0,0-.687-.813c-.053-.049-.116-.093-.175-.14-.036-.023-.063-.057-.1-.079l-.065-.037c-.072-.049-.13-.1-.21-.149l-42.928-24.785a6.305,6.305,0,0,0-5.682,0l-84.451,48.977c-.959.554-1.323,1.323-1.1,2.044l-.067.039v1.561a4.575,4.575,0,0,0,2.293,3.965l41.807,24.064a6.3,6.3,0,0,0,5.681,0l84.319-48.883A4.037,4.037,0,0,0,372.225,145.566Z" transform="translate(-231.521 -116.328)" fill="#3c5185" opacity="0.415"/>
        <path id="Trazado_7750" data-name="Trazado 7750" d="M371.91,145.533l-.242-.5a2.374,2.374,0,0,0-.684-.809c-.052-.048-.115-.092-.174-.138-.035-.023-.062-.058-.1-.079l-.064-.036c-.072-.05-.13-.1-.209-.149L327.76,119.184a6.263,6.263,0,0,0-5.647,0l-84.129,48.8c-.953.551-1.316,1.316-1.1,2.033l-.066.039v1.551a4.55,4.55,0,0,0,2.28,3.942l41.563,23.922a6.263,6.263,0,0,0,5.647,0l84-48.71A4.014,4.014,0,0,0,371.91,145.533Z" transform="translate(-231.534 -116.334)" fill="#3c5185" opacity="0.439"/>
        <path id="Trazado_7751" data-name="Trazado 7751" d="M371.6,145.5l-.241-.5a2.351,2.351,0,0,0-.679-.8c-.053-.048-.115-.092-.173-.138-.035-.023-.062-.057-.1-.078l-.064-.036c-.071-.049-.129-.1-.208-.148l-42.427-24.5a6.23,6.23,0,0,0-5.615,0l-83.805,48.63c-.948.548-1.308,1.308-1.092,2.021l-.066.038v1.541a4.523,4.523,0,0,0,2.266,3.919l41.318,23.783a6.23,6.23,0,0,0,5.615,0L370,150.7A3.992,3.992,0,0,0,371.6,145.5Z" transform="translate(-231.547 -116.34)" fill="#3c5185" opacity="0.463"/>
        <path id="Trazado_7752" data-name="Trazado 7752" d="M371.281,145.47l-.24-.493a2.336,2.336,0,0,0-.675-.8c-.052-.047-.114-.091-.172-.136-.035-.023-.061-.057-.1-.078l-.063-.036c-.071-.049-.128-.1-.207-.147l-42.176-24.35a6.19,6.19,0,0,0-5.581,0l-83.483,48.457c-.943.543-1.3,1.3-1.086,2.008l-.065.038v1.533a4.5,4.5,0,0,0,2.253,3.9L280.76,199a6.2,6.2,0,0,0,5.581,0L369.7,150.639A3.967,3.967,0,0,0,371.281,145.47Z" transform="translate(-231.561 -116.345)" fill="#3c5185" opacity="0.488"/>
        <path id="Trazado_7753" data-name="Trazado 7753" d="M370.966,145.437l-.238-.49a2.327,2.327,0,0,0-.67-.795c-.052-.047-.114-.091-.171-.136-.035-.023-.062-.056-.1-.077l-.063-.036c-.07-.048-.127-.1-.206-.146l-41.926-24.205a6.155,6.155,0,0,0-5.548,0l-83.161,48.283c-.937.54-1.293,1.292-1.08,2l-.065.038v1.523a4.471,4.471,0,0,0,2.239,3.874l40.831,23.5a6.155,6.155,0,0,0,5.548,0l83.032-48.191A3.944,3.944,0,0,0,370.966,145.437Z" transform="translate(-231.574 -116.351)" fill="#3c5185" opacity="0.512"/>
        <path id="Trazado_7754" data-name="Trazado 7754" d="M370.651,145.405l-.236-.488a2.31,2.31,0,0,0-.667-.789c-.051-.047-.113-.09-.17-.135-.034-.023-.061-.056-.1-.077l-.062-.036c-.07-.048-.127-.1-.2-.144l-41.675-24.062a6.123,6.123,0,0,0-5.515,0l-82.838,48.11c-.931.537-1.285,1.284-1.073,1.984l-.065.038v1.515a4.443,4.443,0,0,0,2.226,3.85l40.587,23.361a6.123,6.123,0,0,0,5.515,0l82.71-48.019A3.92,3.92,0,0,0,370.651,145.405Z" transform="translate(-231.588 -116.356)" fill="#3c5185" opacity="0.537"/>
        <path id="Trazado_7755" data-name="Trazado 7755" d="M370.337,145.373l-.235-.484a2.294,2.294,0,0,0-.664-.785c-.051-.046-.111-.089-.168-.134-.035-.023-.061-.056-.1-.077l-.062-.036c-.069-.047-.125-.1-.2-.143L327.483,119.8a6.082,6.082,0,0,0-5.482,0l-82.516,47.936c-.925.534-1.277,1.277-1.066,1.973l-.064.037v1.505a4.419,4.419,0,0,0,2.213,3.828L280.91,198.3a6.082,6.082,0,0,0,5.482,0l82.387-47.846A3.9,3.9,0,0,0,370.337,145.373Z" transform="translate(-231.601 -116.362)" fill="#3c5185" opacity="0.561"/>
        <path id="Trazado_7756" data-name="Trazado 7756" d="M370.022,145.341l-.234-.482a2.273,2.273,0,0,0-.659-.779c-.051-.047-.111-.089-.168-.133-.034-.023-.06-.056-.1-.076l-.061-.036c-.069-.047-.125-.1-.2-.142l-41.173-23.772a6.044,6.044,0,0,0-5.449,0l-82.193,47.763c-.92.531-1.269,1.269-1.059,1.96l-.064.038v1.5a4.389,4.389,0,0,0,2.2,3.8l40.1,23.08a6.044,6.044,0,0,0,5.449,0l82.066-47.672A3.874,3.874,0,0,0,370.022,145.341Z" transform="translate(-231.615 -116.367)" fill="#3c5185" opacity="0.585"/>
        <path id="Trazado_7757" data-name="Trazado 7757" d="M369.707,145.308l-.232-.478a2.277,2.277,0,0,0-.655-.775c-.05-.046-.11-.088-.166-.132-.034-.022-.06-.055-.1-.077l-.061-.035c-.069-.047-.124-.1-.2-.142l-40.924-23.628a6.007,6.007,0,0,0-5.415,0l-81.871,47.59c-.914.528-1.261,1.261-1.053,1.949l-.064.037V171.1a4.363,4.363,0,0,0,2.186,3.781l39.854,22.939a6.009,6.009,0,0,0,5.416,0l81.744-47.5A3.849,3.849,0,0,0,369.707,145.308Z" transform="translate(-231.628 -116.373)" fill="#3c5185" opacity="0.61"/>
        <path id="Trazado_7758" data-name="Trazado 7758" d="M369.392,145.276l-.23-.475a2.258,2.258,0,0,0-.651-.771c-.05-.046-.11-.088-.166-.131-.033-.023-.059-.055-.095-.076l-.061-.034c-.069-.047-.123-.1-.2-.142l-40.673-23.482a5.969,5.969,0,0,0-5.382,0l-81.548,47.416c-.908.524-1.254,1.254-1.047,1.936l-.063.037v1.478a4.338,4.338,0,0,0,2.173,3.758l39.611,22.8a5.975,5.975,0,0,0,5.382,0l81.423-47.327A3.827,3.827,0,0,0,369.392,145.276Z" transform="translate(-231.642 -116.378)" fill="#3c5185" opacity="0.634"/>
        <path id="Trazado_7759" data-name="Trazado 7759" d="M369.078,145.244l-.229-.472a2.23,2.23,0,0,0-.647-.765c-.05-.046-.109-.088-.164-.131-.034-.022-.059-.055-.095-.076l-.061-.034c-.068-.047-.122-.1-.2-.141L327.26,120.287a5.934,5.934,0,0,0-5.349,0L240.685,167.53c-.9.521-1.246,1.246-1.04,1.925l-.063.036v1.47a4.311,4.311,0,0,0,2.159,3.734l39.367,22.658a5.934,5.934,0,0,0,5.349,0l81.1-47.154A3.8,3.8,0,0,0,369.078,145.244Z" transform="translate(-231.655 -116.384)" fill="#3c5185" opacity="0.659"/>
        <path id="Trazado_7760" data-name="Trazado 7760" d="M368.763,145.212l-.229-.469a2.225,2.225,0,0,0-.644-.761c-.049-.045-.108-.086-.163-.13-.034-.022-.058-.055-.094-.075l-.06-.034c-.068-.046-.122-.1-.2-.14L327.2,120.409a5.9,5.9,0,0,0-5.316,0l-80.9,47.07c-.9.518-1.238,1.238-1.034,1.912l-.063.037v1.459a4.285,4.285,0,0,0,2.146,3.712l39.123,22.518a5.9,5.9,0,0,0,5.315,0l80.779-46.981A3.78,3.78,0,0,0,368.763,145.212Z" transform="translate(-231.669 -116.389)" fill="#3c5185" opacity="0.683"/>
        <path id="Trazado_7761" data-name="Trazado 7761" d="M368.448,145.18l-.227-.468a2.2,2.2,0,0,0-.639-.755c-.049-.045-.108-.086-.162-.129-.034-.022-.059-.054-.094-.075l-.06-.034c-.067-.046-.121-.1-.2-.139l-39.92-23.048a5.862,5.862,0,0,0-5.283,0l-80.58,46.9c-.892.514-1.231,1.231-1.028,1.9l-.062.036v1.451a4.256,4.256,0,0,0,2.132,3.688l38.879,22.378a5.862,5.862,0,0,0,5.283,0l80.457-46.809A3.755,3.755,0,0,0,368.448,145.18Z" transform="translate(-231.682 -116.395)" fill="#3c5185" opacity="0.707"/>
        <path id="Trazado_7762" data-name="Trazado 7762" d="M368.133,145.148l-.226-.464a2.2,2.2,0,0,0-.635-.752c-.048-.044-.107-.085-.162-.128-.033-.022-.058-.054-.093-.074l-.059-.034c-.067-.045-.121-.095-.2-.138l-39.67-22.9a5.829,5.829,0,0,0-5.251,0l-80.257,46.723c-.886.512-1.223,1.223-1.021,1.889l-.061.036v1.441a4.229,4.229,0,0,0,2.119,3.665l38.633,22.236a5.823,5.823,0,0,0,5.251,0l80.135-46.636A3.73,3.73,0,0,0,368.133,145.148Z" transform="translate(-231.695 -116.4)" fill="#3c5185" opacity="0.732"/>
        <path id="Trazado_7763" data-name="Trazado 7763" d="M367.819,145.116l-.224-.461a2.182,2.182,0,0,0-.631-.747c-.049-.044-.106-.085-.161-.127-.033-.022-.058-.054-.093-.074l-.059-.034c-.066-.045-.12-.094-.193-.137l-39.419-22.759a5.783,5.783,0,0,0-5.217,0l-79.935,46.549c-.882.509-1.215,1.215-1.015,1.877l-.061.036v1.432a4.2,4.2,0,0,0,2.1,3.641l38.391,22.1a5.789,5.789,0,0,0,5.217,0l79.813-46.463A3.708,3.708,0,0,0,367.819,145.116Z" transform="translate(-231.709 -116.406)" fill="#3c5185" opacity="0.756"/>
        <path id="Trazado_7764" data-name="Trazado 7764" d="M367.5,145.083l-.223-.458a2.161,2.161,0,0,0-.627-.741c-.048-.045-.105-.085-.16-.127-.033-.021-.057-.054-.092-.073l-.058-.033c-.066-.045-.12-.095-.192-.137L326.982,120.9a5.746,5.746,0,0,0-5.183,0l-79.613,46.376c-.875.5-1.207,1.208-1.008,1.866l-.061.035V170.6a4.176,4.176,0,0,0,2.093,3.618l38.146,21.956a5.754,5.754,0,0,0,5.184,0l79.492-46.291A3.684,3.684,0,0,0,367.5,145.083Z" transform="translate(-231.722 -116.412)" fill="#3c5185" opacity="0.78"/>
        <path id="Trazado_7765" data-name="Trazado 7765" d="M367.189,145.051l-.221-.455a2.153,2.153,0,0,0-.622-.737c-.048-.044-.105-.084-.159-.126-.033-.021-.057-.053-.092-.072l-.058-.033c-.065-.045-.118-.094-.19-.136l-38.919-22.47a5.714,5.714,0,0,0-5.15,0l-79.29,46.2c-.869.5-1.2,1.2-1,1.853l-.06.035v1.414a4.151,4.151,0,0,0,2.079,3.6l37.9,21.815a5.714,5.714,0,0,0,5.15,0l79.17-46.117A3.661,3.661,0,0,0,367.189,145.051Z" transform="translate(-231.736 -116.417)" fill="#3c5185" opacity="0.805"/>
        <path id="Trazado_7766" data-name="Trazado 7766" d="M366.874,145.019l-.22-.451a2.129,2.129,0,0,0-.619-.732c-.047-.044-.1-.083-.158-.125-.033-.021-.056-.053-.09-.072l-.058-.033c-.065-.044-.118-.093-.19-.135l-38.668-22.324a5.673,5.673,0,0,0-5.117,0l-78.968,46.029c-.863.5-1.191,1.192-1,1.842l-.059.035v1.4a4.12,4.12,0,0,0,2.065,3.572L281.456,195.7a5.673,5.673,0,0,0,5.117,0l78.849-45.945A3.638,3.638,0,0,0,366.874,145.019Z" transform="translate(-231.749 -116.423)" fill="#3c5185" opacity="0.829"/>
        <path id="Trazado_7767" data-name="Trazado 7767" d="M366.56,144.987l-.218-.449a2.142,2.142,0,0,0-.616-.728c-.047-.043-.1-.082-.156-.124-.033-.021-.056-.052-.09-.071l-.058-.033c-.064-.044-.117-.092-.188-.134l-38.417-22.18a5.641,5.641,0,0,0-5.084,0l-78.645,45.856c-.858.5-1.185,1.185-.989,1.829l-.059.035v1.4a4.1,4.1,0,0,0,2.052,3.549L281.5,195.468a5.643,5.643,0,0,0,5.085,0L365.116,149.7A3.615,3.615,0,0,0,366.56,144.987Z" transform="translate(-231.763 -116.428)" fill="#3c5185" opacity="0.854"/>
        <path id="Trazado_7768" data-name="Trazado 7768" d="M366.245,144.954l-.217-.446a2.111,2.111,0,0,0-.611-.723c-.047-.043-.1-.082-.156-.123-.032-.021-.055-.052-.089-.072l-.057-.032c-.064-.044-.117-.092-.187-.133l-38.167-22.036a5.606,5.606,0,0,0-5.051,0l-78.323,45.683c-.853.492-1.177,1.177-.982,1.818l-.059.034v1.387a4.067,4.067,0,0,0,2.039,3.525l37.17,21.394a5.6,5.6,0,0,0,5.052,0l78.2-45.6A3.592,3.592,0,0,0,366.245,144.954Z" transform="translate(-231.776 -116.434)" fill="#3c5185" opacity="0.878"/>
        <path id="Trazado_7769" data-name="Trazado 7769" d="M365.93,144.922l-.215-.444a2.093,2.093,0,0,0-.607-.718c-.046-.042-.1-.081-.154-.122-.033-.02-.056-.052-.089-.071l-.057-.033c-.063-.043-.115-.091-.186-.132l-37.916-21.89a5.568,5.568,0,0,0-5.018,0l-78,45.509c-.847.49-1.168,1.169-.975,1.805l-.059.035v1.378a4.043,4.043,0,0,0,2.025,3.5L281.6,195a5.568,5.568,0,0,0,5.018,0L364.5,149.57A3.567,3.567,0,0,0,365.93,144.922Z" transform="translate(-231.79 -116.439)" fill="#3c5185" opacity="0.902"/>
        <path id="Trazado_7770" data-name="Trazado 7770" d="M365.615,144.891l-.214-.441a2.093,2.093,0,0,0-.6-.713c-.046-.042-.1-.081-.154-.121-.032-.021-.056-.052-.088-.071l-.056-.033c-.063-.043-.115-.09-.186-.131L326.65,121.635a5.533,5.533,0,0,0-4.985,0L243.988,166.97c-.841.486-1.161,1.162-.97,1.794l-.058.034v1.368a4.014,4.014,0,0,0,2.012,3.48l36.682,21.114a5.533,5.533,0,0,0,4.985,0l77.56-45.253A3.542,3.542,0,0,0,365.615,144.891Z" transform="translate(-231.803 -116.445)" fill="#3c5185" opacity="0.927"/>
        <path id="Trazado_7771" data-name="Trazado 7771" d="M365.3,144.858l-.213-.437a2.058,2.058,0,0,0-.6-.709c-.046-.042-.1-.081-.152-.121-.032-.02-.055-.051-.088-.07l-.056-.032c-.062-.043-.114-.09-.184-.13l-37.414-21.6a5.5,5.5,0,0,0-4.952,0l-77.354,45.162c-.836.483-1.153,1.153-.963,1.782l-.058.033v1.36a3.988,3.988,0,0,0,2,3.457L281.7,194.524a5.493,5.493,0,0,0,4.951,0l77.239-45.079A3.521,3.521,0,0,0,365.3,144.858Z" transform="translate(-231.816 -116.45)" fill="#3c5185" opacity="0.951"/>
        <path id="Trazado_7772" data-name="Trazado 7772" d="M364.985,144.826l-.21-.435a2.071,2.071,0,0,0-.595-.7c-.046-.041-.1-.08-.152-.12-.032-.021-.055-.051-.087-.07l-.055-.032c-.062-.043-.113-.089-.183-.129L326.538,121.88a5.452,5.452,0,0,0-4.918,0l-77.032,44.988c-.831.48-1.146,1.146-.957,1.77l-.057.034v1.35a3.964,3.964,0,0,0,1.985,3.434l36.194,20.832a5.453,5.453,0,0,0,4.918,0l76.917-44.907A3.494,3.494,0,0,0,364.985,144.826Z" transform="translate(-231.83 -116.456)" fill="#3c5185" opacity="0.976"/>
        <path id="Trazado_7773" data-name="Trazado 7773" d="M364.671,144.793l-.209-.431a2.043,2.043,0,0,0-.591-.7c-.045-.042-.1-.079-.15-.12-.032-.02-.055-.051-.087-.069l-.055-.032c-.061-.042-.112-.089-.181-.128L326.483,122a5.42,5.42,0,0,0-4.885,0l-76.709,44.815c-.825.476-1.139,1.138-.95,1.758l-.057.033v1.342a3.935,3.935,0,0,0,1.972,3.41L281.8,194.053a5.42,5.42,0,0,0,4.885,0l76.6-44.735A3.472,3.472,0,0,0,364.671,144.793Z" transform="translate(-231.843 -116.461)" fill="#3c5185"/>
      </g>
      <g id="Grupo_2898" data-name="Grupo 2898" transform="translate(3.467)">
        <g id="Grupo_2897" data-name="Grupo 2897">
          <path id="Trazado_7774" data-name="Trazado 7774" d="M234.918,168.18v-1.67L323.981,114.2c1.672-.965,3.639-1.555,5.311-.589l46.759,26.844a2.576,2.576,0,0,1,1.03,1.1l.261.537a4.321,4.321,0,0,1-1.727,5.631l-87.42,50.453a6.741,6.741,0,0,1-6.08,0l-44.744-25.752A4.9,4.9,0,0,1,234.918,168.18Z" transform="translate(-234.918 -113.003)" fill="url(#linear-gradient-3)"/>
          <path id="Trazado_7775" data-name="Trazado 7775" d="M236.173,167.786c-1.672-.965-1.672-2.545,0-3.51l87.56-50.553a6.749,6.749,0,0,1,6.08,0l45.943,26.525c1.671.966,1.671,2.545,0,3.51l-87.561,50.553a6.741,6.741,0,0,1-6.08,0Z" transform="translate(-234.918 -112.998)" fill="#f3f8fe"/>
          <path id="Trazado_7776" data-name="Trazado 7776" d="M238.2,167.706c-1.609-.929-1.609-2.451,0-3.379l85.638-49.43a6.491,6.491,0,0,1,5.853,0l8.031,4.758a.78.78,0,0,1,.054,1.312l-.886.622a.889.889,0,0,0,0,1.539l21.855,12.542a1.933,1.933,0,0,0,1.885.029l1.9-1.023a1.426,1.426,0,0,1,1.389.021l10,5.737c1.61.929,1.61,2.45,0,3.379l-85.637,49.429a6.492,6.492,0,0,1-5.853,0Z" transform="translate(-235.009 -113.051)" fill="#a5cbef"/>
          <g id="Grupo_2896" data-name="Grupo 2896" transform="translate(108.892 11.627)">
            <path id="Trazado_7777" data-name="Trazado 7777" d="M358.706,131.25a.265.265,0,0,1-.135-.036l-9.639-5.551a.271.271,0,0,1,.271-.47l9.638,5.552a.271.271,0,0,1-.135.5Z" transform="translate(-348.798 -125.157)" fill="#a5cbef"/>
          </g>
        </g>
      </g>
    </g>
    <g id="Grupo_2900" data-name="Grupo 2900" transform="translate(164.047 131.215)">
      <path id="Trazado_7778" data-name="Trazado 7778" d="M183.488,175.927a.683.683,0,0,1-.342-1.275l18.122-10.463a2.038,2.038,0,0,0-.01-3.536l-33.409-19.032A2.639,2.639,0,0,1,167.92,137l3.613-1.911a.683.683,0,1,1,.639,1.207l-3.612,1.912a1.272,1.272,0,0,0-.034,2.23l33.409,19.032a3.4,3.4,0,0,1,.017,5.906l-18.123,10.463A.677.677,0,0,1,183.488,175.927Z" transform="translate(-166.516 -135.003)" fill="url(#linear-gradient-4)"/>
    </g>
    <g id="Grupo_2901" data-name="Grupo 2901" transform="translate(159.263 129.417)">
      <path id="Trazado_7779" data-name="Trazado 7779" d="M176.435,175.844a.683.683,0,0,1-.342-1.275l20.688-11.944a.338.338,0,0,0,0-.588L163.8,143.252a4.54,4.54,0,0,1,.124-7.958l3.953-2.092a.684.684,0,0,1,.64,1.209l-3.954,2.092a3.173,3.173,0,0,0-.087,5.561l32.976,18.786a1.706,1.706,0,0,1,.01,2.958l-20.689,11.944A.678.678,0,0,1,176.435,175.844Z" transform="translate(-161.512 -133.123)" fill="#3c5185"/>
    </g>
    <g id="Grupo_2902" data-name="Grupo 2902" transform="translate(187.591 163.119)">
      <path id="Trazado_7780" data-name="Trazado 7780" d="M246.615,187.616a5.558,5.558,0,0,1-2.825-.767l-28.228-16.572a3.936,3.936,0,0,0-3.959-.016l-19.441,11.225a.683.683,0,0,1-.684-1.183l19.442-11.224a5.293,5.293,0,0,1,5.333.02l28.229,16.571a4.209,4.209,0,0,0,4.237.018l4.789-2.765a.682.682,0,1,1,.683,1.182l-4.789,2.765A5.561,5.561,0,0,1,246.615,187.616Z" transform="translate(-191.138 -168.369)" fill="url(#linear-gradient-5)"/>
    </g>
    <g id="Grupo_2903" data-name="Grupo 2903" transform="translate(187.591 166.943)">
      <path id="Trazado_7781" data-name="Trazado 7781" d="M246.654,191.863a5.9,5.9,0,0,1-2.983-.807l-29-17.027a2.177,2.177,0,0,0-2.176-.008l-20.334,11.739a.683.683,0,1,1-.684-1.182l20.334-11.74a3.546,3.546,0,0,1,3.551.011l29,17.026a4.545,4.545,0,0,0,4.5.046l7.812-4.375a.683.683,0,0,1,.667,1.192l-7.812,4.375A5.894,5.894,0,0,1,246.654,191.863Z" transform="translate(-191.138 -172.368)" fill="#3c5185"/>
    </g>
    <g id="Grupo_2909" data-name="Grupo 2909" transform="translate(143.227 148.142)">
      <g id="Grupo_2908" data-name="Grupo 2908" transform="translate(0)">
        <path id="Trazado_7782" data-name="Trazado 7782" d="M197.041,255.036l-39.058-22.679V185.937l39.058,9.921Z" transform="translate(-143.481 -161.524)" fill="#edf5fc"/>
        <path id="Trazado_7783" data-name="Trazado 7783" d="M206.258,188.3l-7.429,4.289v62.55l7.429-4.289Z" transform="translate(-145.27 -161.628)" fill="#dbeaf9"/>
        <path id="Trazado_7784" data-name="Trazado 7784" d="M186.5,224.839l-43.688-25.223v3.313L186.5,228.151Z" transform="translate(-142.817 -162.123)" fill="#e2eefa"/>
        <path id="Trazado_7785" data-name="Trazado 7785" d="M186.5,223.121,215.8,185.629l-43.688-25.223L142.817,197.9Z" transform="translate(-142.817 -160.406)" fill="#fdfeff"/>
        <path id="Trazado_7786" data-name="Trazado 7786" d="M185.844,219.547l25.792-33.014-38.469-22.21-25.792,33.014Z" transform="translate(-143.016 -160.577)" fill="url(#linear-gradient-6)"/>
        <path id="Trazado_7787" data-name="Trazado 7787" d="M188.505,227.589,217.8,190.908v-4.124l-29.291,37.493Z" transform="translate(-144.818 -161.561)" fill="#e9f3fb"/>
        <g id="Grupo_2904" data-name="Grupo 2904" transform="translate(22.316 20.105)">
          <path id="Trazado_7788" data-name="Trazado 7788" d="M192.545,212.773l.388-.528-3.861-2.229-5.8-14.7-9.409,5.432-7.1-19.32-.612.225,7.363,20.047,9.426-5.442,5.605,14.2Z" transform="translate(-166.155 -181.432)" fill="#3c5185"/>
        </g>
        <g id="Grupo_2905" data-name="Grupo 2905" transform="translate(28.836 25.116)">
          <path id="Trazado_7789" data-name="Trazado 7789" d="M190.954,215.421l.383-.49-3.886-2.324.739-13.96-8.121,6.636-6.479-18.611-.616.214,6.786,19.492,7.7-6.294-.683,12.887Z" transform="translate(-172.974 -186.672)" fill="url(#linear-gradient-5)"/>
        </g>
        <g id="Grupo_2906" data-name="Grupo 2906" transform="translate(21.595 19.411)">
          <path id="Trazado_7790" data-name="Trazado 7790" d="M165.727,183.185a.327.327,0,0,0,.307-.215l.457-1.266,1.062.7a.326.326,0,1,0,.358-.545l-1.753-1.148-.738,2.042a.327.327,0,0,0,.2.418A.342.342,0,0,0,165.727,183.185Z" transform="translate(-165.401 -180.706)" fill="#3c5185"/>
        </g>
        <g id="Grupo_2907" data-name="Grupo 2907" transform="translate(28.071 24.266)">
          <path id="Trazado_7791" data-name="Trazado 7791" d="M172.5,188.261a.327.327,0,0,0,.307-.215l.457-1.266,1.063.7a.326.326,0,0,0,.358-.545l-1.754-1.148-.738,2.042a.327.327,0,0,0,.2.418A.343.343,0,0,0,172.5,188.261Z" transform="translate(-172.174 -185.783)" fill="url(#linear-gradient-5)"/>
        </g>
      </g>
    </g>
    <g id="Grupo_2910" data-name="Grupo 2910" transform="translate(153.817 68.96)">
      <path id="Trazado_7792" data-name="Trazado 7792" d="M217.419,81.59,237.671,69.9,257.923,81.59,237.671,93.283Z" transform="translate(-158.515 -69.897)" fill="#7ea7df"/>
      <path id="Trazado_7793" data-name="Trazado 7793" d="M243.649,96.607,263.9,84.914l20.252,11.693L263.9,108.3Z" transform="translate(-159.664 -70.555)" fill="#7ea7df"/>
      <path id="Trazado_7794" data-name="Trazado 7794" d="M212.337,85.082,209.7,86.609l45.249,26.124,2.636-1.527Z" transform="translate(-158.177 -70.562)" fill="#7ea7df"/>
      <path id="Trazado_7795" data-name="Trazado 7795" d="M205.775,88.771,203.138,90.3l45.248,26.124,2.637-1.527Z" transform="translate(-157.89 -70.724)" fill="#7ea7df"/>
      <path id="Trazado_7796" data-name="Trazado 7796" d="M199.391,92.52l-2.636,1.527L242,120.172l2.637-1.527Z" transform="translate(-157.61 -70.888)" fill="#7ea7df"/>
      <path id="Trazado_7797" data-name="Trazado 7797" d="M192.888,96.15l-2.636,1.527L235.5,123.8l2.637-1.527Z" transform="translate(-157.325 -71.047)" fill="#7ea7df"/>
      <path id="Trazado_7798" data-name="Trazado 7798" d="M185.3,99.881l-29.488,17.072,45.248,26.124,29.488-17.072Z" transform="translate(-155.817 -71.21)" fill="#7ea7df"/>
    </g>
    <g id="Grupo_2911" data-name="Grupo 2911" transform="translate(237.548 114.844)">
      <path id="Trazado_7799" data-name="Trazado 7799" d="M304.985,129.575l20.253-11.693,20.252,11.693-20.252,11.693Z" transform="translate(-246.081 -117.882)" fill="#7ea7df"/>
      <path id="Trazado_7800" data-name="Trazado 7800" d="M304.063,160.3,324.315,148.6,344.568,160.3l-20.252,11.693Z" transform="translate(-246.041 -119.228)" fill="#7ea7df"/>
      <path id="Trazado_7801" data-name="Trazado 7801" d="M272.871,147.867l-29.488,17.072,45.249,26.124,29.488-17.072Z" transform="translate(-243.383 -119.196)" fill="#7ea7df"/>
      <path id="Trazado_7802" data-name="Trazado 7802" d="M349.522,131.411l-2.53,1.466,22.976,13.268,2.53-1.466Z" transform="translate(-247.921 -118.475)" fill="#7ea7df"/>
      <path id="Trazado_7803" data-name="Trazado 7803" d="M343.225,134.951l-2.53,1.466,22.976,13.268,2.53-1.466Z" transform="translate(-247.645 -118.63)" fill="#7ea7df"/>
      <path id="Trazado_7804" data-name="Trazado 7804" d="M337.1,138.549l-2.53,1.466,22.976,13.268,2.53-1.466Z" transform="translate(-247.377 -118.788)" fill="#7ea7df"/>
      <path id="Trazado_7805" data-name="Trazado 7805" d="M330.859,142.033l-2.53,1.466L351.3,156.766l2.53-1.466Z" transform="translate(-247.104 -118.94)" fill="#7ea7df"/>
      <path id="Trazado_7806" data-name="Trazado 7806" d="M299.9,133.067l-2.637,1.527,22.911,13.15,2.637-1.527Z" transform="translate(-245.743 -118.547)" fill="#7ea7df"/>
      <path id="Trazado_7807" data-name="Trazado 7807" d="M293.341,136.756l-2.636,1.527,22.911,13.15,2.636-1.527Z" transform="translate(-245.456 -118.709)" fill="#7ea7df"/>
      <path id="Trazado_7808" data-name="Trazado 7808" d="M286.958,140.506l-2.637,1.527,22.911,13.15,2.637-1.527Z" transform="translate(-245.176 -118.873)" fill="#7ea7df"/>
      <path id="Trazado_7809" data-name="Trazado 7809" d="M280.455,144.136l-2.636,1.527,22.911,13.15,2.637-1.527Z" transform="translate(-244.892 -119.032)" fill="#7ea7df"/>
    </g>
    <g id="Grupo_2913" data-name="Grupo 2913" transform="translate(274.093 107.243)">
      <path id="Trazado_7810" data-name="Trazado 7810" d="M289.288,130.237c10.248-5.916,27.016-5.917,37.263,0s10.248,15.6,0,21.515-27.016,5.916-37.263,0S279.04,136.153,289.288,130.237Z" transform="translate(-281.602 -110.628)" opacity="0.5" fill="url(#radial-gradient)" style="mix-blend-mode: multiply;isolation: isolate"/>
      <path id="Trazado_7811" data-name="Trazado 7811" d="M326.734,121.051h-2.109a13.729,13.729,0,0,0-3.391-2.677c-7.333-4.234-19.334-4.234-26.667,0a13.736,13.736,0,0,0-3.392,2.677h-2.108v4.981h0c-.017,2.8,1.815,5.611,5.5,7.738,7.333,4.234,19.333,4.234,26.667,0,3.684-2.127,5.515-4.934,5.5-7.738h0Z" transform="translate(-281.929 -110.164)" fill="url(#linear-gradient-4)"/>
      <ellipse id="Elipse_523" data-name="Elipse 523" cx="18.856" cy="10.887" rx="18.856" ry="10.887" transform="translate(7.115)" fill="url(#linear-gradient-10)"/>
      <g id="Grupo_2912" data-name="Grupo 2912" transform="translate(16.814 4.315)">
        <path id="Trazado_7812" data-name="Trazado 7812" d="M304.2,126.409l-5.014-2.985,12.375-8.978,4.457,2.654a5.875,5.875,0,0,1,1.707,1.414,1.837,1.837,0,0,1,.456,1.346,3.14,3.14,0,0,1-1.39,2.025,5.058,5.058,0,0,1-3.028,1.05,6.535,6.535,0,0,1-.719-.019c-.119-.015-.322-.048-.614-.1a1.961,1.961,0,0,1,.661,1.761,2.924,2.924,0,0,1-1.325,1.795,6.608,6.608,0,0,1-3.1,1.169A6.957,6.957,0,0,1,304.2,126.409Zm-.12-3.158,1.753,1.044a5.378,5.378,0,0,0,1.939.769,2.322,2.322,0,0,0,1.7-.509q.859-.622.552-1.167a4.509,4.509,0,0,0-1.585-1.307l-1.508-.9Zm5.028-3.648,1.212.722a5.543,5.543,0,0,0,1.829.762,2.1,2.1,0,0,0,1.587-.469q.823-.6.614-1.073a3.343,3.343,0,0,0-1.341-1.148l-1.23-.732Z" transform="translate(-299.186 -114.446)" fill="#fff"/>
      </g>
    </g>
    <path id="Trazado_7813" data-name="Trazado 7813" d="M270.934,183.245c7.436-4.293,19.6-4.293,27.039,0s7.436,11.318,0,15.611-19.6,4.293-27.039,0S263.5,187.538,270.934,183.245Z" transform="translate(-6.798 -5.76)" opacity="0.5" fill="url(#radial-gradient-2)" style="mix-blend-mode: multiply;isolation: isolate"/>
    <g id="Grupo_2915" data-name="Grupo 2915" transform="translate(186.764 75.725)">
      <path id="Trazado_7814" data-name="Trazado 7814" d="M197.959,97.275c10.248-5.916,27.016-5.916,37.263,0s10.248,15.6,0,21.515-27.016,5.916-37.263,0S187.711,103.191,197.959,97.275Z" transform="translate(-190.273 -77.666)" opacity="0.5" fill="url(#radial-gradient-3)" style="mix-blend-mode: multiply;isolation: isolate"/>
      <path id="Trazado_7815" data-name="Trazado 7815" d="M235.4,88.089H233.3a13.728,13.728,0,0,0-3.391-2.677c-7.333-4.234-19.333-4.234-26.667,0a13.753,13.753,0,0,0-3.392,2.677h-2.108V93.07h0c-.017,2.8,1.814,5.611,5.5,7.738,7.333,4.234,19.333,4.234,26.667,0,3.684-2.127,5.515-4.934,5.5-7.738h0Z" transform="translate(-190.6 -77.202)" fill="url(#linear-gradient-11)"/>
      <ellipse id="Elipse_524" data-name="Elipse 524" cx="18.856" cy="10.887" rx="18.856" ry="10.887" transform="translate(7.115)" fill="#3c5185"/>
      <g id="Grupo_2914" data-name="Grupo 2914" transform="translate(16.072 4.188)">
        <path id="Trazado_7816" data-name="Trazado 7816" d="M216.733,93.129l1.608-2.573-4.8-2.859L209.8,89l-2.72-1.62,17.324-6.031,2.474,1.474-7.426,11.924Zm5.235-8.365-5.035,1.749L219.8,88.22Z" transform="translate(-207.081 -81.351)" fill="#fff"/>
      </g>
    </g>
    <g id="Grupo_2918" data-name="Grupo 2918" transform="translate(239.811 134.52)">
      <path id="Trazado_7817" data-name="Trazado 7817" d="M245.75,156.881v4.62h.023c0,5.175,3.27,9.913,9.209,13.342,5.622,3.246,13.008,4.869,20.392,4.869s14.769-1.623,20.391-4.869c5.939-3.429,9.21-8.167,9.21-13.342v-4.62l-.882.084c-1.339-3.375-4.18-6.41-8.329-8.8-11.245-6.492-29.539-6.492-40.783,0-4.149,2.4-6.991,5.43-8.329,8.807Zm5.458,4.62c0-3.151,2.305-6.217,6.492-8.635,4.79-2.764,11.232-4.148,17.674-4.148s12.883,1.383,17.673,4.148c4.186,2.417,6.492,5.484,6.492,8.635s-2.305,6.218-6.492,8.635c-9.581,5.533-25.769,5.532-35.348,0C253.513,167.719,251.208,164.653,251.208,161.5Z" transform="translate(-245.75 -138.671)" fill="#7ea7df"/>
      <ellipse id="Elipse_525" data-name="Elipse 525" cx="25.358" cy="14.64" rx="25.358" ry="14.64" transform="translate(4.266 7.43)" fill="#fff" opacity="0.2"/>
      <path id="Trazado_7818" data-name="Trazado 7818" d="M276.381,161.678a17.153,17.153,0,0,1-15.459,0c-4.25-2.455-4.25-6.471,0-8.925a17.147,17.147,0,0,1,15.459,0C280.632,155.207,280.632,159.223,276.381,161.678Z" transform="translate(-246.275 -139.005)" fill="#fff" opacity="0.43"/>
      <g id="Grupo_2916" data-name="Grupo 2916" transform="translate(0.023)">
        <path id="Trazado_7819" data-name="Trazado 7819" d="M254.983,170.012c-5.939-3.429-9.209-8.167-9.209-13.343s3.27-9.912,9.209-13.341c11.244-6.492,29.538-6.492,40.783,0,5.939,3.429,9.21,8.167,9.21,13.341s-3.271,9.914-9.21,13.343h0c-5.622,3.245-13.006,4.869-20.391,4.868S260.6,173.257,254.983,170.012Zm2.718-21.976c-4.186,2.417-6.492,5.483-6.492,8.634s2.305,6.218,6.492,8.635c9.579,5.532,25.767,5.533,35.348,0h0c4.186-2.417,6.492-5.484,6.492-8.635s-2.305-6.216-6.492-8.634c-4.791-2.766-11.232-4.148-17.673-4.148S262.49,145.27,257.7,148.035Z" transform="translate(-245.774 -138.459)" fill="url(#linear-gradient-12)"/>
      </g>
      <g id="Grupo_2917" data-name="Grupo 2917" transform="translate(47.692 31.868)">
        <path id="Trazado_7820" data-name="Trazado 7820" d="M321.749,190.771a2.6,2.6,0,0,0,1.3-4.847L298.726,171.9c-1.242-.717-4.3,2.243-2.6,4.5l24.324,14.028A2.581,2.581,0,0,0,321.749,190.771Z" transform="translate(-295.627 -171.787)" fill="#3c5185"/>
      </g>
      <path id="Trazado_7821" data-name="Trazado 7821" d="M334.238,201.858,300.12,182.221c-3.556-4.719,2.835-10.915,5.435-9.414l34.118,19.637a5.435,5.435,0,1,1-5.435,9.414Z" transform="translate(-248.085 -139.954)" fill="url(#linear-gradient-13)"/>
      <path id="Trazado_7822" data-name="Trazado 7822" d="M335.187,195.69,306.1,178.685c-.788-1.046.628-2.418,1.2-2.085l29.092,17a1.2,1.2,0,1,1-1.2,2.086Z" transform="translate(-248.383 -140.127)" fill="#fff" opacity="0.3"/>
    </g>
    <g id="Grupo_2930" data-name="Grupo 2930" transform="translate(323.218 170.43)">
      <path id="Trazado_7962" data-name="Trazado 7962" d="M337.785,181.109c6.411-3.7,16.9-3.7,23.313,0s6.41,9.758,0,13.46-16.9,3.7-23.313,0S331.374,184.81,337.785,181.109Z" transform="translate(-332.977 -176.116)" fill="url(#radial-gradient-4)" style="mix-blend-mode: multiply;isolation: isolate"/>
      <path id="Trazado_7963" data-name="Trazado 7963" d="M361.212,182.961h-1.32a8.574,8.574,0,0,0-2.121-1.675c-4.588-2.649-12.1-2.649-16.684,0a8.59,8.59,0,0,0-2.121,1.675h-1.32v3.116h0c-.01,1.754,1.135,3.51,3.439,4.841,4.588,2.649,12.1,2.649,16.684,0,2.3-1.331,3.45-3.088,3.439-4.841h0Z" transform="translate(-333.182 -176.158)" fill="url(#linear-gradient-11)"/>
      <path id="Trazado_7964" data-name="Trazado 7964" d="M341.087,178c4.588-2.649,12.1-2.649,16.684,0s4.588,6.983,0,9.632-12.1,2.65-16.684,0S336.5,180.65,341.087,178Z" transform="translate(-333.181 -176.014)" fill="#3c5185"/>
      <g id="Grupo_2929" data-name="Grupo 2929" transform="translate(11.581 2.758)">
        <path id="Trazado_7965" data-name="Trazado 7965" d="M345.4,185.019a.555.555,0,0,1-.314-.5.683.683,0,0,1,.333-.547,1.54,1.54,0,0,1,.8-.279,1.293,1.293,0,0,1,.782.15.56.56,0,0,1,.315.5.685.685,0,0,1-.335.547,1.549,1.549,0,0,1-.8.28A1.293,1.293,0,0,1,345.4,185.019Zm2.959-1.423-1.137-.676.663-.481a2.735,2.735,0,0,1,.743-.412,5.007,5.007,0,0,1,.974-.157l1.527-.139a1.9,1.9,0,0,0,.906-.35.892.892,0,0,0,.426-.629.6.6,0,0,0-.358-.563,1.531,1.531,0,0,0-.895-.2,2.1,2.1,0,0,0-.973.316l-1.217-.725a4.573,4.573,0,0,1,2.214-.683,3.64,3.64,0,0,1,2.041.491,1.6,1.6,0,0,1,.93,1.25,1.726,1.726,0,0,1-.907,1.4,3.208,3.208,0,0,1-1.418.591c-.3.051-.522.081-.661.094s-.32.027-.543.043-.415.031-.575.045-.293.029-.4.043a2,2,0,0,0-.853.381Z" transform="translate(-345.089 -178.899)" fill="#fff"/>
      </g>
    </g>
    <g id="Grupo_2937" data-name="Grupo 2937" transform="translate(137.205 170.043)">
      <path id="Trazado_7966" data-name="Trazado 7966" d="M156.421,284.853l-1.149-.331a6.363,6.363,0,0,0-5.466.942l-1.2-.887-1.219,2.813-5.892-.5,1.283,5.233a.968.968,0,0,0,.668.7l2.421.71a5.888,5.888,0,0,0,5.718-1.387l5.369-5.113A1.294,1.294,0,0,0,156.421,284.853Z" transform="translate(-136.737 -187.732)" fill="#3c5185"/>
      <path id="Trazado_7967" data-name="Trazado 7967" d="M156.421,284.853l-1.149-.331a6.363,6.363,0,0,0-5.466.942l-1.2-.887-1.219,2.813-5.892-.5.665,2.715a3.478,3.478,0,0,0,2.4,2.511l1.034.3a5.889,5.889,0,0,0,5.719-1.386l5.368-5.113a.55.55,0,0,0-.261-1.066Z" transform="translate(-136.737 -187.732)" fill="#7ea7df"/>
      <path id="Trazado_7968" data-name="Trazado 7968" d="M148.135,286.8c1.234-1.177.9-2.526-.735-3a5.966,5.966,0,0,0-5.209,1.277c-1.226,1.175-.9,2.524.735,3A5.962,5.962,0,0,0,148.135,286.8Z" transform="translate(-136.735 -187.704)" fill="#3c5185"/>
      <g id="Grupo_2931" data-name="Grupo 2931" transform="translate(6.224 87.891)">
        <path id="Trazado_7969" data-name="Trazado 7969" d="M144.972,286.612a1.944,1.944,0,0,1-1.944-1.944v-7.5a1.944,1.944,0,1,1,3.889,0v7.5A1.945,1.945,0,0,1,144.972,286.612Z" transform="translate(-143.028 -275.227)" fill="#ef9ea3"/>
      </g>
      <g id="Grupo_2932" data-name="Grupo 2932" transform="translate(5.112 44.025)">
        <path id="Trazado_7970" data-name="Trazado 7970" d="M144.924,282.275c-.047,0-.094,0-.141,0-1.686-.076-2.991.7-2.915-.981l.828-19.446-.83-29.351a3.055,3.055,0,0,1,2.968-3.14c1.679-.061,3.926,1.28,3.974,2.968l0,29.574,0,.112-.834,19.559C147.9,283.206,146.548,282.275,144.924,282.275Z" transform="translate(-141.866 -229.352)" fill="#506ba7"/>
      </g>
      <path id="Trazado_7971" data-name="Trazado 7971" d="M164.952,292.6l-1.038-.595a6.361,6.361,0,0,0-5.533-.386l-.952-1.147-1.854,2.443-5.6-1.889v5.389a.97.97,0,0,0,.483.839l2.182,1.266a5.891,5.891,0,0,0,5.884.014l6.431-3.689A1.294,1.294,0,0,0,164.952,292.6Z" transform="translate(-137.108 -188.004)" fill="#3c5185"/>
      <path id="Trazado_7972" data-name="Trazado 7972" d="M164.952,292.6l-1.038-.595a6.361,6.361,0,0,0-5.533-.386l-.952-1.147-1.854,2.443-5.6-1.889v2.8a3.48,3.48,0,0,0,1.733,3.01l.932.54a5.888,5.888,0,0,0,5.884.014l6.431-3.689a.55.55,0,0,0,0-1.1Z" transform="translate(-137.108 -188.004)" fill="#7ea7df"/>
      <path id="Trazado_7973" data-name="Trazado 7973" d="M156.436,292.471c1.478-.849,1.478-2.239,0-3.089a5.967,5.967,0,0,0-5.364,0c-1.471.849-1.471,2.239,0,3.089A5.967,5.967,0,0,0,156.436,292.471Z" transform="translate(-137.108 -187.928)" fill="#3c5185"/>
      <g id="Grupo_2933" data-name="Grupo 2933" transform="translate(14.696 92.844)">
        <path id="Trazado_7974" data-name="Trazado 7974" d="M153.832,291.792a1.944,1.944,0,0,1-1.944-1.944v-7.5a1.944,1.944,0,1,1,3.889,0v7.5A1.944,1.944,0,0,1,153.832,291.792Z" transform="translate(-151.888 -280.407)" fill="#ef9ea3"/>
      </g>
      <g id="Grupo_2934" data-name="Grupo 2934" transform="translate(0 21.254)">
        <path id="Trazado_7975" data-name="Trazado 7975" d="M144.69,236.476a2.219,2.219,0,0,1-1.927-1.111l-4.02-6.959a16.686,16.686,0,0,1,4.332-21.577l1.1-.837a2.222,2.222,0,0,1,2.693,3.536l-1.1.837a12.232,12.232,0,0,0-3.176,15.818l4.02,6.958a2.224,2.224,0,0,1-1.922,3.334Z" transform="translate(-136.519 -205.537)" fill="#7ea7df"/>
      </g>
      <g id="Grupo_2935" data-name="Grupo 2935" transform="translate(8.584 48.836)">
        <path id="Trazado_7976" data-name="Trazado 7976" d="M153.556,288.153c-.083,0-.168,0-.253-.01-1.682-.138-2.934.044-2.8-1.638l1.649-22.313L145.5,235.3c-.106-1.685,6.179-.5,7.863-.606a3.056,3.056,0,0,1,3.242,2.857l1.68,26.7L156.6,287C156.468,288.6,155.131,288.153,153.556,288.153Z" transform="translate(-145.497 -234.384)" fill="#506ba7"/>
      </g>
      <path id="Trazado_7977" data-name="Trazado 7977" d="M140.736,232.316l.305-2.919a41.459,41.459,0,0,0,.369-6.053,12.122,12.122,0,0,0,1.366,3.619l4.02,6.958a2.222,2.222,0,1,1-3.849,2.223Z" transform="translate(-136.704 -185.064)" fill="#231f20" opacity="0.3"/>
      <path id="Trazado_7978" data-name="Trazado 7978" d="M141.251,194.7l9.593,5.538a13.751,13.751,0,0,1,6.875,11.908v27.314c-3.895,2.725-14.375-1.073-16.468-5.34l.625-5.98a41.6,41.6,0,0,0,.352-7.16Z" transform="translate(-136.726 -183.809)" fill="#7ea7df"/>
      <path id="Trazado_7979" data-name="Trazado 7979" d="M145.147,200.4h0V187.353h11.3V189.1A11.3,11.3,0,0,1,145.147,200.4Z" transform="translate(-136.897 -183.487)" fill="#f2b1b5"/>
      <path id="Trazado_7980" data-name="Trazado 7980" d="M148.988,202.836h0a2.362,2.362,0,0,1-2.363-2.363v-7.088h4.726v7.088A2.363,2.363,0,0,1,148.988,202.836Z" transform="translate(-136.962 -183.752)" fill="#f2b1b5"/>
      <path id="Trazado_7981" data-name="Trazado 7981" d="M158.206,218.72a1.966,1.966,0,0,1-1.253-1.616l-.9-6.937a2.226,2.226,0,0,0-2.489-1.92c-1.217.157-1.277,1.435-1.12,2.653l.1,6.774a6.4,6.4,0,0,0,4.524,5.357,6.622,6.622,0,0,0,1.137.23Z" transform="translate(-137.214 -184.402)" fill="#231f20" opacity="0.3"/>
      <path id="Trazado_7982" data-name="Trazado 7982" d="M158.959,222.044a6.577,6.577,0,0,1-1.924-.29,6.394,6.394,0,0,1-4.524-5.357l-.895-6.937a2.222,2.222,0,1,1,4.408-.568l.895,6.937a2.021,2.021,0,0,0,3.523,1.076l6.431-7.314a2.222,2.222,0,1,1,3.337,2.935l-6.43,7.314A6.393,6.393,0,0,1,158.959,222.044Z" transform="translate(-137.18 -184.346)" fill="#7ea7df"/>
      <g id="Grupo_2936" data-name="Grupo 2936" transform="translate(28.633 24.49)">
        <path id="Trazado_7983" data-name="Trazado 7983" d="M166.464,210.882l1.06-1.2a2.222,2.222,0,1,1,3.337,2.935l-1.287,1.464Z" transform="translate(-166.464 -208.922)" fill="#f2b1b5"/>
      </g>
      <circle id="Elipse_526" data-name="Elipse 526" cx="2.689" cy="2.689" r="2.689" transform="translate(29.738 23.352)" fill="#f2b1b5"/>
      <path id="Trazado_7984" data-name="Trazado 7984" d="M172.641,205.64l-3.38,3.551a.593.593,0,0,1-.84.021h0a.594.594,0,0,1-.021-.84l3.38-3.551a.6.6,0,0,1,.84-.021h0A.6.6,0,0,1,172.641,205.64Z" transform="translate(-137.908 -184.244)" fill="#f2b1b5"/>
      <path id="Trazado_7985" data-name="Trazado 7985" d="M156.914,184.89c-1.952-2.313-6.518-1.626-9.049-.815-3.116,1-7.022,2.165-7.583,5.93a19.043,19.043,0,0,0-.035,2.89,14.343,14.343,0,0,1-1.5,6.44c-1.416,2.846-2.1,4.659-.6,7.612.888,1.749,1.456,4.47,3.27,5.545,1.867,1.105,5.821,1.793,7.609.439,2.491-1.888,3.746-6.46,3.518-9.4-.246-3.17-1.83-6.368-.868-9.4.6-1.9,3.153-4.028,4.6-5.36C157.558,187.594,158.208,186.422,156.914,184.89Z" transform="translate(-136.554 -183.31)" fill="url(#linear-gradient-15)"/>
      <path id="Trazado_7986" data-name="Trazado 7986" d="M157.283,184.89c-1.146-1.357-3.189-1.668-5.194-1.54a5.191,5.191,0,0,1,3.774,1.54c1.294,1.533.645,2.7-.637,3.887-1.443,1.332-3.994,3.462-4.6,5.36-.961,3.031.622,6.23.868,9.4.229,2.936-1.027,7.507-3.518,9.4a4.287,4.287,0,0,1-2.242.708,5.471,5.471,0,0,0,3.662-.708c2.491-1.889,3.746-6.46,3.518-9.4-.246-3.17-1.83-6.368-.868-9.4.6-1.9,3.153-4.028,4.6-5.36C157.928,187.594,158.577,186.423,157.283,184.89Z" transform="translate(-136.923 -183.311)" fill="#fec55e" opacity="0.2"/>
    </g>
    <g id="Grupo_2946" data-name="Grupo 2946" transform="translate(108.517 121.416)">
      <g id="Grupo_2944" data-name="Grupo 2944" transform="translate(0 0)">
        <path id="Trazado_7987" data-name="Trazado 7987" d="M110.5,141.046a2.537,2.537,0,1,0,2.537-2.537A2.537,2.537,0,0,0,110.5,141.046Z" transform="translate(-106.692 -132.721)" fill="#3c5185"/>
        <path id="Trazado_7988" data-name="Trazado 7988" d="M111.134,144.427a2.537,2.537,0,1,0,2.537-2.537A2.537,2.537,0,0,0,111.134,144.427Z" transform="translate(-106.72 -132.869)" fill="#3c5185"/>
        <path id="Trazado_7989" data-name="Trazado 7989" d="M123.81,138.7l-.229,6.446a4.967,4.967,0,0,1-2.718,4.608h0a5.9,5.9,0,0,1-8.842-4.921V138.7a5.645,5.645,0,0,1,2.948-4.92h0A5.9,5.9,0,0,1,123.81,138.7Z" transform="translate(-106.758 -132.48)" fill="#3c5185"/>
        <g id="Grupo_2938" data-name="Grupo 2938" transform="translate(10.811 22.652)">
          <path id="Trazado_7990" data-name="Trazado 7990" d="M137.217,176.957a2.132,2.132,0,0,0,1.131-3.939l-16.263-10.163v-4.58a2.13,2.13,0,1,0-4.261,0v6.942l18.265,11.415A2.126,2.126,0,0,0,137.217,176.957Z" transform="translate(-117.824 -156.145)" fill="#f2b1b5"/>
        </g>
        <path id="Trazado_7991" data-name="Trazado 7991" d="M132.5,229.5l0,1.638a1.3,1.3,0,0,1-1.1,1.286l-.273.042a3.441,3.441,0,0,1-2.321-.466l-8.436-5.164.053-2.427,9.763,6.46Z" transform="translate(-107.124 -136.483)" fill="#3c5185"/>
        <path id="Trazado_7992" data-name="Trazado 7992" d="M126.34,221.862l.832,3.172,4.4,2.851a1.9,1.9,0,0,1-.026,3.282h0a1.9,1.9,0,0,1-1.893,0l-9.253-5.811.023-3.491Z" transform="translate(-107.125 -136.372)" fill="#fff"/>
        <path id="Trazado_7993" data-name="Trazado 7993" d="M119.738,237.138l0,1.638a1.3,1.3,0,0,1-1.1,1.285l-.273.042a3.441,3.441,0,0,1-2.321-.466l-8.437-5.163.054-2.426,9.763,6.459Z" transform="translate(-106.565 -136.818)" fill="#3c5185"/>
        <path id="Trazado_7994" data-name="Trazado 7994" d="M113.582,229.5l.832,3.172,4.4,2.851a1.9,1.9,0,0,1-.026,3.283h0a1.9,1.9,0,0,1-1.893,0l-9.254-5.81.024-3.492Z" transform="translate(-106.567 -136.706)" fill="#fff"/>
        <path id="Trazado_7995" data-name="Trazado 7995" d="M126.107,158.373v61.07a2.973,2.973,0,0,1-1.487,2.575h0a2.974,2.974,0,0,1-4.461-2.575l-4.617-57.14Z" transform="translate(-106.913 -133.591)" fill="url(#linear-gradient-11)"/>
        <path id="Trazado_7996" data-name="Trazado 7996" d="M118.144,161.4v31.717l.428,5.295,7.649-13.065V174.872l-1.464-15.929Z" transform="translate(-107.027 -133.616)" fill="#3c5185"/>
        <path id="Trazado_7997" data-name="Trazado 7997" d="M122.751,156.621l-13.014,7.514a4.03,4.03,0,0,0-2.016,3.491v25.446h0v33.283a2.974,2.974,0,0,0,5.948,0l2.711-34.8,7.369-4.255a4.032,4.032,0,0,0,2.016-3.491V158.36A2.009,2.009,0,0,0,122.751,156.621Z" transform="translate(-106.57 -133.502)" fill="url(#linear-gradient-11)"/>
        <path id="Trazado_7998" data-name="Trazado 7998" d="M126.565,153.052v20.468c0,2.778,1.007,4.941-1.4,6.329,0,0-9.072,8.673-17.479,5.426,0,0-.685-19.473-.685-27.333a4.369,4.369,0,0,1,2.185-3.785l9.646-5.569A5.154,5.154,0,0,1,126.565,153.052Z" transform="translate(-106.539 -133.132)" fill="#d1e1f2"/>
        <g id="Grupo_2939" data-name="Grupo 2939" transform="translate(1.681 28.13)">
          <path id="Trazado_7999" data-name="Trazado 7999" d="M127.668,182.686a2.131,2.131,0,0,0,1.13-3.938l-16.262-10.163V164a2.13,2.13,0,1,0-4.261,0v6.943l18.265,11.414A2.115,2.115,0,0,0,127.668,182.686Z" transform="translate(-108.275 -161.874)" fill="#f2b1b5"/>
        </g>
        <g id="Grupo_2940" data-name="Grupo 2940" transform="translate(1.284 21.524)">
          <path id="Trazado_8000" data-name="Trazado 8000" d="M110.387,169.342a2.527,2.527,0,0,0,2.527-2.527v-9.322a2.527,2.527,0,0,0-5.054,0v9.322A2.527,2.527,0,0,0,110.387,169.342Z" transform="translate(-107.86 -154.966)" fill="#d1e1f2"/>
        </g>
        <g id="Grupo_2941" data-name="Grupo 2941" transform="translate(7.393 11.329)">
          <path id="Trazado_8001" data-name="Trazado 8001" d="M116.379,155.378a2.131,2.131,0,0,0,2.13-2.107l.073-6.813a2.131,2.131,0,1,0-4.261-.046l-.073,6.813a2.129,2.129,0,0,0,2.107,2.153Z" transform="translate(-114.249 -144.304)" fill="#f2b1b5"/>
        </g>
        <path id="Trazado_8002" data-name="Trazado 8002" d="M114.322,151.2v-3.78l0-.292a2.131,2.131,0,1,1,4.261.046l-.049,4.624c-.682.2-1.4-.294-2.15-.294Z" transform="translate(-106.859 -133.006)" fill="#231f20" opacity="0.3"/>
        <path id="Trazado_8003" data-name="Trazado 8003" d="M114.322,150.893h3.156a6.432,6.432,0,0,0,6.432-6.432v-6.43h-3.14a6.448,6.448,0,0,0-6.449,6.449Z" transform="translate(-106.859 -132.7)" fill="#f2b1b5"/>
        <path id="Trazado_8004" data-name="Trazado 8004" d="M113.155,143.021a1.116,1.116,0,1,0,1.116-1.117A1.116,1.116,0,0,0,113.155,143.021Z" transform="translate(-106.808 -132.87)" fill="#f2b1b5"/>
        <path id="Trazado_8005" data-name="Trazado 8005" d="M115.634,144.247h0a.808.808,0,0,0,.807-.808v-4.85a.808.808,0,0,0-.807-.808h0a.808.808,0,0,0-.807.808v4.85A.808.808,0,0,0,115.634,144.247Z" transform="translate(-106.881 -132.689)" fill="#3c5185"/>
        <path id="Trazado_8006" data-name="Trazado 8006" d="M120.6,138.425a1.824,1.824,0,1,0,1.824-1.824A1.824,1.824,0,0,0,120.6,138.425Z" transform="translate(-107.134 -132.638)" fill="#3c5185"/>
        <path id="Trazado_8007" data-name="Trazado 8007" d="M117.428,138a1.824,1.824,0,1,0,1.824-1.824A1.825,1.825,0,0,0,117.428,138Z" transform="translate(-106.995 -132.619)" fill="#3c5185"/>
        <path id="Trazado_8008" data-name="Trazado 8008" d="M114.644,138.743a1.824,1.824,0,1,0,1.824-1.824A1.824,1.824,0,0,0,114.644,138.743Z" transform="translate(-106.873 -132.651)" fill="#3c5185"/>
        <path id="Trazado_8009" data-name="Trazado 8009" d="M120.569,136.058a2.537,2.537,0,1,0,2.537-2.537A2.537,2.537,0,0,0,120.569,136.058Z" transform="translate(-107.133 -132.503)" fill="#3c5185"/>
        <path id="Trazado_8010" data-name="Trazado 8010" d="M116.683,134.993a2.537,2.537,0,1,0,2.537-2.537A2.536,2.536,0,0,0,116.683,134.993Z" transform="translate(-106.963 -132.456)" fill="#3c5185"/>
        <circle id="Elipse_527" data-name="Elipse 527" cx="2.536" cy="2.536" r="2.536" transform="translate(6.951 0)" fill="#3c5185"/>
        <path id="Trazado_8011" data-name="Trazado 8011" d="M111.134,137.645a2.537,2.537,0,1,0,2.537-2.536A2.537,2.537,0,0,0,111.134,137.645Z" transform="translate(-106.72 -132.572)" fill="#3c5185"/>
        <g id="Grupo_2943" data-name="Grupo 2943" transform="translate(0 25.987)">
          <path id="Trazado_8012" data-name="Trazado 8012" d="M131.086,161.382a5.8,5.8,0,0,0-5.262-.03l-18.211,10.453c-1.452.833-1.462,2.215-.023,3.068l12.384,7.351a5.753,5.753,0,0,0,5.253.032l18.219-10.518c1.45-.838,1.455-2.217.013-3.068Z" transform="translate(-106.517 -159.682)" fill="url(#linear-gradient-18)"/>
          <g id="Grupo_2942" data-name="Grupo 2942">
            <path id="Trazado_8013" data-name="Trazado 8013" d="M131.086,160.279a5.8,5.8,0,0,0-5.262-.03L107.613,170.7c-1.452.834-1.462,2.215-.023,3.069l12.384,7.351a5.759,5.759,0,0,0,5.253.032l18.219-10.518c1.45-.838,1.455-2.217.013-3.068Z" transform="translate(-106.517 -159.634)" fill="#fff"/>
          </g>
        </g>
      </g>
      <g id="Grupo_2945" data-name="Grupo 2945" transform="translate(10.439 8.065)">
        <path id="Trazado_8014" data-name="Trazado 8014" d="M127.842,142.687l3.113-1.8,3.036,1.8-3.036,1.8Z" transform="translate(-117.89 -140.89)" fill="#b7d5f2"/>
        <path id="Trazado_8015" data-name="Trazado 8015" d="M127.842,142.769V167.74l3.113,1.7V144.566Z" transform="translate(-117.89 -140.972)" fill="#a5cbef"/>
        <path id="Trazado_8016" data-name="Trazado 8016" d="M134.134,142.769v24.874l-3.036,1.8V144.566Z" transform="translate(-118.033 -140.972)" fill="#aed0f1"/>
        <path id="Trazado_8017" data-name="Trazado 8017" d="M122.638,154.622l3.113-1.8,3.036,1.8-3.036,1.8Z" transform="translate(-117.662 -141.413)" fill="#ffc107"/>
        <path id="Trazado_8018" data-name="Trazado 8018" d="M122.638,154.7v16.409l3.113,1.7V156.5Z" transform="translate(-117.662 -141.495)" fill="#ff9800"/>
        <path id="Trazado_8019" data-name="Trazado 8019" d="M128.93,154.7v16.311l-3.036,1.8V156.5Z" transform="translate(-117.805 -141.495)" fill="url(#linear-gradient-5)"/>
        <path id="Trazado_8020" data-name="Trazado 8020" d="M117.434,151.526l3.113-1.8,3.036,1.8-3.036,1.8Z" transform="translate(-117.434 -141.277)" fill="#63749d"/>
        <path id="Trazado_8021" data-name="Trazado 8021" d="M117.434,151.608v22.219l3.113,1.7V153.405Z" transform="translate(-117.434 -141.359)" fill="#3c5185"/>
        <path id="Trazado_8022" data-name="Trazado 8022" d="M123.726,151.608V173.73l-3.036,1.8V153.405Z" transform="translate(-117.577 -141.359)" fill="#4f6291"/>
      </g>
    </g>
  </g>
</svg>
