<svg id="Capa_1" data-name="Capa 1" xmlns="http://www.w3.org/2000/svg" viewBox="0 0 160.87 161.33"><defs><style>.cls-1{fill:#d87d21;}</style></defs><path class="cls-1" d="M80.24,161.33a8.51,8.51,0,0,1,.07-1.24c0-.21,0-.42,0-.62,0-.65,0-1.29,0-1.93a10.55,10.55,0,0,1,.08-1.49,3.46,3.46,0,0,0,0-.56c0-.52,0-1,0-1.55,0-.34,0-.67.06-1s0-.41,0-.62c0-.41,0-.83,0-1.24a4.18,4.18,0,0,1,0-.5,15.49,15.49,0,0,0,.1-2,11.65,11.65,0,0,1,.08-1.56c0-.2,0-.41,0-.62,0-.68,0-1.36,0-2.05a13.5,13.5,0,0,1,.07-1.42,4.71,4.71,0,0,0,0-.75l0-5.66a8.5,8.5,0,0,1,.06-1.12,6,6,0,0,0,0-.74c0-1.18,0-2.36,0-3.54,0-.29,0-.58,0-.87s0-.54,0-.81l0-3.67c0-.29,0-.58.05-.87s0-.58,0-.86l0-8c0-1.1,0-2.19,0-3.29,0-.29,0-.58,0-.87s0-.46,0-.68V108.7a10.61,10.61,0,0,0-.06-1.49,3.46,3.46,0,0,1,0-.56l0-2.11a10,10,0,0,0-.08-1.55,5.15,5.15,0,0,1,0-.56c0-.62,0-1.24,0-1.87a13.52,13.52,0,0,0-.08-1.42c0-.33,0-.66,0-1s0-.66-.08-1,0-.45,0-.68c0-.6,0-1.2,0-1.8A11.23,11.23,0,0,1,81.27,92c0-.18.08-.36.13-.55A13.46,13.46,0,0,0,81.71,89c0-.62,0-1.24.1-1.86s.06-1,.15-1.42.17-.89.28-1.34a6.46,6.46,0,0,1,1-2.14c.44-.66.9-1.29,1.36-1.94a8.92,8.92,0,0,0,1.12-2,7.05,7.05,0,0,0,.4-1.69c.07-.55.11-1.11.14-1.67.06-1,.14-1.9.25-2.85.07-.63.18-1.27.29-1.9.16-.92.32-1.84.5-2.75a2,2,0,0,0-.06-1,16.62,16.62,0,0,1-.56-2.29A5.22,5.22,0,0,1,86.58,63a1.26,1.26,0,0,1,.22-.7.8.8,0,0,1,.62-.37,1.77,1.77,0,0,1,.91.14,4.49,4.49,0,0,1,1.21.76,8.91,8.91,0,0,1,1.87,2.31,7.58,7.58,0,0,1,.91,3c0,.16,0,.33.05.49a3.21,3.21,0,0,1,0,.62,13.39,13.39,0,0,0,0,2.61c.1.89.24,1.76.42,2.63a15.34,15.34,0,0,0,.84,2.67c.28.7.28.75,1.08,1.21a4.66,4.66,0,0,0,1.89.6,4.1,4.1,0,0,1,.49.06,5.14,5.14,0,0,0,1.24,0l.8-.08c.64-.06,1.28-.19,1.9-.31l2.93-.61a10.19,10.19,0,0,1,1.66-.22c.39,0,.78-.07,1.17-.11a2.07,2.07,0,0,0,.43-.1,6.83,6.83,0,0,0,.75-.29l1.75-.8a14.85,14.85,0,0,1,3.11-1.07,2.49,2.49,0,0,0,1.75-1,17.51,17.51,0,0,1,3-2.46l.31-.21a3,3,0,0,0,.88-.87l.51-.78c.18-.25.36-.51.55-.75a2.52,2.52,0,0,1,2-1,3.09,3.09,0,0,1,1.17.11,3.52,3.52,0,0,1,.4.18.63.63,0,0,1,.29.69,2.47,2.47,0,0,1-.38.84,9.42,9.42,0,0,1-.7,1c-.7.85-1.34,1.73-2,2.64-.49.73-1,1.43-1.52,2.13a11.6,11.6,0,0,1-2.07,2.13,4.9,4.9,0,0,0-1,1,2.45,2.45,0,0,1-.69.63,5.42,5.42,0,0,1-1,.52c-.43.17-.85.35-1.28.5-.68.24-1.35.53-2,.81a6.59,6.59,0,0,0-1,.56,18.55,18.55,0,0,0-1.89,1.41,33.13,33.13,0,0,0-2.4,2.34c-.46.48-.89,1-1.37,1.45-.83.81-1.7,1.57-2.6,2.3-1.25,1-2.54,1.93-3.85,2.85l-.78.51-1,.64a6.41,6.41,0,0,0-1.14.94,4.42,4.42,0,0,0-1,1.43,10.09,10.09,0,0,0-.7,2.51,13.18,13.18,0,0,0-.14,2.17c0,1.14,0,2.28,0,3.42a7,7,0,0,0,.08,1.12c.07.41.1.82.15,1.23.16,1.27.33,2.55.49,3.82.06.56.1,1.11.16,1.67s.13,1.2.19,1.79c0,.19,0,.37.05.56s.06.66.08,1c0,.17,0,.33,0,.5l.09,1c0,.16,0,.33,0,.49,0,.33,0,.66.08,1,0,.15,0,.29,0,.43a8.32,8.32,0,0,0,.09,1.12c0,.16,0,.33,0,.49s0,.62.08.93c0,.15,0,.29,0,.44,0,.39.06.78.1,1.17.07.74.11,1.49.16,2.23,0,.29,0,.58.08.87,0,0,0,.08,0,.12.06.75.11,1.49.16,2.23,0,.29,0,.58.07.87s0,.33,0,.5a9.48,9.48,0,0,0,.1,1.3,4,4,0,0,1,0,.49,6.64,6.64,0,0,0,.1,1.18v.06c0,.79.12,1.57.16,2.36,0,.33,0,.66.08,1,0,.06,0,.12,0,.18,0,.87.13,1.74.15,2.61a4.44,4.44,0,0,0,0,.62,9.26,9.26,0,0,1,.07,1.05c0,.33,0,.66.08,1s0,.54,0,.81a8.3,8.3,0,0,0,.09,1.11.53.53,0,0,1,0,.13c0,.87.14,1.73.15,2.6a7,7,0,0,0,.09,1.12s0,.08,0,.12c0,.89.13,1.78.16,2.67,0,.35,0,.7.07,1.05s0,.54,0,.81,0,.82.09,1.24a8.12,8.12,0,0,1,0,.86,10.19,10.19,0,0,0,.08,1.24,7.34,7.34,0,0,1,0,.81,7.8,7.8,0,0,0,.08,1.18c0,.16,0,.33,0,.49a13.58,13.58,0,0,0,.08,1.56.49.49,0,0,1,0,.12.26.26,0,0,1-.17.24,2.54,2.54,0,0,1-.47.14c-1.28.27-2.56.52-3.85.71-1.07.16-2.14.29-3.21.43-.82.11-1.64.18-2.47.25-.56,0-1.11.11-1.67.12a.87.87,0,0,0-.42.1Z"/><path class="cls-1" d="M75.64,161.33a.92.92,0,0,0-.49-.1,21.12,21.12,0,0,1-2.23-.17c-1.19-.1-2.39-.23-3.57-.42-.9-.15-1.81-.26-2.71-.42-1.24-.22-2.48-.48-3.72-.73l-.42-.12a.36.36,0,0,1-.28-.36,3.66,3.66,0,0,1,0-.74,11.5,11.5,0,0,0,.08-1.18,8.61,8.61,0,0,1,.08-1.24c0-.26,0-.54,0-.8a11.51,11.51,0,0,1,.08-1.31,8.31,8.31,0,0,0,0-.87,8.38,8.38,0,0,1,.09-1.23.62.62,0,0,0,0-.13c0-.93.13-1.86.16-2.79,0-.33,0-.66.07-1s0-.58,0-.87.05-.66.07-1a.5.5,0,0,0,0-.12c0-.79.11-1.57.16-2.36,0-.29,0-.58.07-.87s0-.29,0-.43a10.24,10.24,0,0,1,.1-1.36,4.19,4.19,0,0,0,0-.5l.09-1s0-.08,0-.12c0-.85.11-1.7.15-2.55,0-.35,0-.7.08-1s0-.54.05-.81a8.47,8.47,0,0,1,.08-1.23.69.69,0,0,0,0-.13c0-.91.12-1.82.15-2.73,0-.31,0-.62.07-.93s0-.53.05-.8a8.32,8.32,0,0,1,.08-1.12,1.54,1.54,0,0,0,0-.37A12.26,12.26,0,0,1,64.4,126a4.07,4.07,0,0,0,0-.5c0-.27,0-.53.07-.8s0-.33,0-.5a6.92,6.92,0,0,1,.09-1.11.13.13,0,0,0,0-.06c0-.77.11-1.53.16-2.3v-.12c.07-.72.13-1.44.19-2.17a.5.5,0,0,0,0-.12c0-.7.11-1.4.16-2.11v-.12c.07-.66.13-1.32.2-2a3,3,0,0,0,0-.31c0-.72.14-1.44.23-2.16,0-.39.09-.78.13-1.17.13-1,.26-2,.37-3,.07-.54.1-1.08.17-1.61s.08-1.2.14-1.8a35.29,35.29,0,0,0,.08-3.85,6.32,6.32,0,0,0-.06-.74c0-.49-.09-1-.18-1.48a8.33,8.33,0,0,0-.81-2.47,4.81,4.81,0,0,0-1.58-1.8l-1-.68c-.26-.17-.53-.32-.78-.5-1.4-1-2.78-2-4.1-3-.88-.72-1.76-1.45-2.57-2.26-.14-.15-.31-.27-.46-.42s-.54-.51-.79-.79a31.59,31.59,0,0,0-2.46-2.45l-.59-.55a8.16,8.16,0,0,0-2.32-1.54c-.8-.35-1.61-.67-2.43-1a16.07,16.07,0,0,1-1.6-.69A3.15,3.15,0,0,1,43.61,79a3.76,3.76,0,0,0-.76-.73,11.06,11.06,0,0,1-1.74-1.68,26.31,26.31,0,0,1-2.18-2.94c-.4-.61-.82-1.2-1.27-1.77-.25-.33-.53-.64-.78-1s-.36-.51-.53-.77a1.83,1.83,0,0,1-.26-.63.76.76,0,0,1,.51-.94,2,2,0,0,1,.54-.14,7.22,7.22,0,0,1,.93,0,2.54,2.54,0,0,1,1.8,1c.26.34.51.7.76,1.06a6.55,6.55,0,0,0,.61.78,4.65,4.65,0,0,0,.9.76c.44.28.87.57,1.28.89a16.36,16.36,0,0,1,1.37,1.26,8.78,8.78,0,0,0,.79.7,2.51,2.51,0,0,0,.88.44l.91.23a13.06,13.06,0,0,1,2.35.81c.82.35,1.63.72,2.44,1.09a4,4,0,0,0,1.13.3c.66.08,1.33.08,2,.21.41.08.82.13,1.22.22,1,.22,2,.43,3,.61A15.52,15.52,0,0,0,63,79a5.22,5.22,0,0,0,1.74-.42,3.46,3.46,0,0,0,.89-.57,1.92,1.92,0,0,0,.5-.7c.08-.2.16-.39.22-.59a21,21,0,0,0,.9-3.68,16.07,16.07,0,0,0,.17-2.6c0-.49,0-1,0-1.49a7.87,7.87,0,0,1,2.4-5.68,5.87,5.87,0,0,1,1.62-1.14,2,2,0,0,1,.84-.2.79.79,0,0,1,.79.49,2.09,2.09,0,0,1,.18,1.1,11.12,11.12,0,0,1-.55,2.67,2.85,2.85,0,0,0-.11,1.53c.11.69.24,1.39.36,2.08.15.9.29,1.8.43,2.7a1.63,1.63,0,0,1,0,.31,1.21,1.21,0,0,1,0,.19c0,.45.09.9.12,1.36a9.48,9.48,0,0,0,.1,1.3,2.3,2.3,0,0,1,0,.37,7.22,7.22,0,0,0,.64,2.71,8.43,8.43,0,0,0,.86,1.44c.35.49.71,1,1.06,1.45a8.3,8.3,0,0,1,1.38,2.91,14.9,14.9,0,0,1,.32,1.77A16.74,16.74,0,0,1,78,88c0,.25,0,.5.06.75s0,.29,0,.43a11.57,11.57,0,0,0,.34,2.4c.06.3.14.6.19.91A15.45,15.45,0,0,1,78.86,96a12.82,12.82,0,0,0-.12,1.86,1.09,1.09,0,0,1,0,.18,11.6,11.6,0,0,0-.1,1.86,11.5,11.5,0,0,1-.07,1.18,5.32,5.32,0,0,0,0,.69l0,3.48c0,.33,0,.66,0,1s0,.58,0,.87v14.49a9.24,9.24,0,0,0,.06,1.05,7.31,7.31,0,0,1,0,.81q0,3,0,6c0,.35,0,.7.06,1.06l0,.68,0,3.36a7.4,7.4,0,0,0,.06,1.05,5.23,5.23,0,0,1,0,.68l0,2.74c0,.29,0,.58.06.87s0,.45,0,.68c0,.77,0,1.53,0,2.3,0,.29,0,.58,0,.87s0,.45,0,.68l0,2a8.51,8.51,0,0,0,.07,1.24c0,.21,0,.42,0,.62,0,.67,0,1.33,0,2a10.19,10.19,0,0,0,.07,1.24,3.57,3.57,0,0,1,0,.56c0,.58,0,1.16,0,1.74a10.55,10.55,0,0,0,.08,1.49,3.5,3.5,0,0,1,0,.56l0,1.68c0,.5,0,1,.07,1.49.05.74,0,1.49,0,2.24Z"/><path class="cls-1" d="M83.72,0a1.22,1.22,0,0,0,.17.07c.41.07.45.21.47.6a10.15,10.15,0,0,1-1,4.82,9.62,9.62,0,0,1-1.32,2L81.56,8c-.09.11-.19.22-.29.32a18.11,18.11,0,0,1-3,2.25,26.72,26.72,0,0,1-4.65,2.05c-.59.21-1.19.38-1.78.57a1.57,1.57,0,0,1-.3,0s0,0,0,0,0-.09,0-.11a2.2,2.2,0,0,1,.3-.31c.25-.21.5-.43.76-.63a15.32,15.32,0,0,0,2-1.89A10,10,0,0,0,77,5c0-.2.06-.4.08-.61a.13.13,0,0,0-.17-.13,1.57,1.57,0,0,0-.23.09,8.37,8.37,0,0,0-2,1.42L74.39,6a10.64,10.64,0,0,0-2,2.74,18.23,18.23,0,0,0-1.32,3.35c0,.15-.1.31-.16.46a.1.1,0,0,1-.1,0,.11.11,0,0,1-.09-.07,1.37,1.37,0,0,1-.07-.24c-.11-.67-.19-1.35-.26-2a22.89,22.89,0,0,1-.09-3.1c0-.29,0-.58.06-.86s0-.29,0-.44A16,16,0,0,1,71.5,1.12c.07-.15.14-.3.22-.44A.44.44,0,0,1,72,.46a5.25,5.25,0,0,1,.55-.09l1-.1h.12c.89,0,1.78-.17,2.67-.16a1.4,1.4,0,0,0,.73-.1Z"/><path class="cls-1" d="M19.53,99.65c0-.33,0-.67,0-1s0-.49.07-.74c0-.49.1-1,.18-1.48A18.42,18.42,0,0,1,21,91.89a14.73,14.73,0,0,1,1.66-3,14.23,14.23,0,0,1,2.24-2.41,13.15,13.15,0,0,1,2.57-1.73A18.49,18.49,0,0,1,32.76,83c.73-.14,1.47-.27,2.21-.35a21.84,21.84,0,0,1,2.29-.17c.31,0,.62,0,.93-.06s.45,0,.68,0h1.18a3.23,3.23,0,0,1,.44,0,14.22,14.22,0,0,0,1.73.1,2.42,2.42,0,0,1,.8.11s.06.05.09.08,0,.11-.11.13l-.17.08c-.35.13-.7.25-1,.39-.75.3-1.49.61-2.22,1A18.8,18.8,0,0,0,36,86.55a13.48,13.48,0,0,0-3.34,4.14c-.16.31-.29.64-.43,1a.13.13,0,0,0,.11.18h.19a11.62,11.62,0,0,0,1.64-.33,13.36,13.36,0,0,0,2.22-.8,12.77,12.77,0,0,0,2.09-1.21,18,18,0,0,0,2.67-2.33,22.94,22.94,0,0,0,1.68-2c.33-.43.64-.87,1-1.3a2.28,2.28,0,0,1,.22-.22s.07,0,.11,0a.07.07,0,0,1,0,.05,1,1,0,0,1,0,.25c-.17.74-.33,1.49-.53,2.23-.27,1.07-.57,2.12-.92,3.17a30,30,0,0,1-2.27,5.23,17.09,17.09,0,0,1-2.29,3.24c-.21.23-.41.48-.62.7a11.11,11.11,0,0,1-1.26,1.11,14.71,14.71,0,0,1-4.7,2.47,12.78,12.78,0,0,1-2,.44c-.5.08-1,.09-1.49.14a8.2,8.2,0,0,1-2,0,21.14,21.14,0,0,1-4.18-.58c-.58-.13-1.16-.29-1.74-.44l-.41-.14a.32.32,0,0,1-.21-.29,3.11,3.11,0,0,1,0-.43V99.65Z"/><path class="cls-1" d="M134,102.64c-.29,0-.58,0-.87,0a14.45,14.45,0,0,1-4.5-.84,13.9,13.9,0,0,1-3.95-2.19,6.1,6.1,0,0,1-.46-.41c-.46-.45-.92-.9-1.36-1.37a14.92,14.92,0,0,1-1.35-1.71c-.48-.7-.92-1.43-1.33-2.17a28.85,28.85,0,0,1-1.82-4.15,43.57,43.57,0,0,1-1.56-5.69c0-.12,0-.25,0-.37a.17.17,0,0,1,.07-.1.14.14,0,0,1,.11,0,3.25,3.25,0,0,1,.23.29l1,1.41a12.11,12.11,0,0,0,1.07,1.3c.27.28.51.59.79.87a16.4,16.4,0,0,0,3.78,2.8,13,13,0,0,0,2.6,1c.46.13.92.24,1.38.35.21,0,.41.06.62.08s.25-.1.19-.28a3.17,3.17,0,0,0-.19-.46c-.21-.41-.42-.81-.66-1.2a13.1,13.1,0,0,0-2.49-3,15.37,15.37,0,0,0-2-1.5,19.72,19.72,0,0,0-2-1.17c-.61-.3-1.25-.55-1.88-.81-.4-.17-.82-.31-1.22-.46a1.48,1.48,0,0,1-.29-.12.14.14,0,0,1,0-.1.15.15,0,0,1,.06-.09,4.65,4.65,0,0,1,1-.14c.5,0,1-.06,1.49-.09a15.05,15.05,0,0,1,2.6,0l.38,0c.6,0,1.19.06,1.79.11a28.72,28.72,0,0,1,3.2.48,18.65,18.65,0,0,1,4.85,1.7,14.74,14.74,0,0,1,2.88,2,10.29,10.29,0,0,1,.92.83c.33.39.67.79,1,1.19a14.07,14.07,0,0,1,2,3.56,17.09,17.09,0,0,1,1.13,4.39c.08.61.16,1.23.21,1.85a11.62,11.62,0,0,1,0,1.18c0,.35,0,.7,0,1.06,0,.14,0,.29,0,.43a.38.38,0,0,1-.25.33l-.29.11a27.58,27.58,0,0,1-3.52.78q-.76.12-1.53.21c-.4,0-.79,0-1.18,0-.21,0-.42,0-.63,0Z"/><path class="cls-1" d="M111,40.12c0-.25,0-.49,0-.74a13.6,13.6,0,0,1,1.18-5.18,13.4,13.4,0,0,1,2.23-3.43,11.73,11.73,0,0,1,1.29-1.25,21.73,21.73,0,0,1,2-1.52,25.84,25.84,0,0,1,3.44-1.85l.74-.33.52-.22c.4-.15.5-.13.75.19.4.5.8,1,1.17,1.53A24.35,24.35,0,0,1,126,29.89a15.69,15.69,0,0,1,1.7,4.84,15.39,15.39,0,0,1,.24,2.79,12.82,12.82,0,0,1-.5,3.31,15.15,15.15,0,0,1-1.69,3.79,21.81,21.81,0,0,1-1.78,2.47,26,26,0,0,1-2.43,2.49,37,37,0,0,1-3.24,2.61l-2.07,1.49-.17.07,0,0s0,0,0-.06a1.34,1.34,0,0,1,.13-.27,22.19,22.19,0,0,0,1.45-2.61,19,19,0,0,0,1.66-5.26,10.2,10.2,0,0,0,.11-1.24V42.68a9.66,9.66,0,0,0-.39-2.51.89.89,0,0,0-.08-.17.15.15,0,0,0-.16-.06.83.83,0,0,0-.16.09,4.58,4.58,0,0,0-.42.46,13.79,13.79,0,0,0-1.52,2.34,17,17,0,0,0-1.11,2.9,20.47,20.47,0,0,0-.53,2.81,21.59,21.59,0,0,0-.08,3.41c0,.56.11,1.12.16,1.67,0,0,0,.05,0,.05a.23.23,0,0,1-.12,0,.26.26,0,0,1-.07-.1l-.09-.16A39.27,39.27,0,0,1,113,49.61a34.09,34.09,0,0,1-1.33-4.08,22.64,22.64,0,0,1-.57-3.17A21,21,0,0,1,111,40.12Z"/><path class="cls-1" d="M46.08,51.88a11.24,11.24,0,0,0,0-2.17,4.21,4.21,0,0,1,0-.5,17.27,17.27,0,0,0-1-4.86,12.4,12.4,0,0,0-1.39-2.83,8.9,8.9,0,0,0-1.09-1.36l-.23-.2a.16.16,0,0,0-.22,0,1.57,1.57,0,0,0-.09.23,12.79,12.79,0,0,0-.38,1.94c-.06.52-.09,1-.1,1.55a12.24,12.24,0,0,0,.19,2.1,15.77,15.77,0,0,0,1.45,4.48c.5,1,1.08,2.06,1.67,3a2.44,2.44,0,0,1,.14.28.1.1,0,0,1,0,.1.11.11,0,0,1-.11,0l-.37-.23c-.9-.59-1.76-1.24-2.62-1.89a29.4,29.4,0,0,1-4.13-3.76,21,21,0,0,1-2.94-4,13.66,13.66,0,0,1-1.64-4.73c0-.37-.07-.74-.11-1.11a11.19,11.19,0,0,1,0-1.92,14.47,14.47,0,0,1,.55-2.92,18,18,0,0,1,1.84-4.07,35.42,35.42,0,0,1,2.33-3.37l.08-.09a.41.41,0,0,1,.5-.15l.4.16a30.19,30.19,0,0,1,4.31,2.21,15.93,15.93,0,0,1,2.38,1.79c.12.12.25.22.37.33s.23.19.32.29a15.41,15.41,0,0,1,2.14,2.82,12.86,12.86,0,0,1,1.48,3.94A11.81,11.81,0,0,1,50,39.7a2.28,2.28,0,0,0,0,.37,19,19,0,0,1-.43,4.26,28.52,28.52,0,0,1-1.27,4.35,49.78,49.78,0,0,1-2,4.61c-.07.13-.15.25-.22.37s0,0-.06,0-.08,0-.08-.07C46,53,46,52.46,46.08,51.88Z"/><path class="cls-1" d="M61.08,46.39c0-.29,0-.58,0-.87a10.85,10.85,0,0,0-.75-3.64.54.54,0,0,0,0-.11.19.19,0,0,0-.27-.06,2.94,2.94,0,0,0-.34.36c-.23.34-.46.68-.66,1a10.31,10.31,0,0,0-.87,2.19,20.31,20.31,0,0,0-.5,2.56,4.19,4.19,0,0,0,0,.5,5.27,5.27,0,0,1,0,.56,7.89,7.89,0,0,0,0,2.17,1,1,0,0,1,0,.24,12.53,12.53,0,0,0,.34,2.52,2.53,2.53,0,0,1,.1.67.07.07,0,0,1,0,0,.06.06,0,0,1-.06,0s-.08,0-.1-.06-.26-.33-.37-.5a35.28,35.28,0,0,1-2.6-4.23,32.12,32.12,0,0,1-1.39-3,22,22,0,0,1-.84-2.61,14.31,14.31,0,0,1-.38-4.37A12.38,12.38,0,0,1,55.68,32c.39-.41.78-.8,1.19-1.18s.59-.53.9-.77a22.89,22.89,0,0,1,2.72-2l.38-.2a.55.55,0,0,1,.73.11l.18.18c.54.54,1.1,1.06,1.63,1.62a19,19,0,0,1,2.23,2.83,13.74,13.74,0,0,1,1.87,4.57,8.5,8.5,0,0,1,.19,1.42c0,.18,0,.37,0,.55a6.28,6.28,0,0,1,0,.75,15.4,15.4,0,0,1-.5,3.31,16.73,16.73,0,0,1-1.54,3.65A27.51,27.51,0,0,1,63.6,50c-.44.57-.92,1.12-1.39,1.67-.88,1-1.88,2-2.85,2.94a1.76,1.76,0,0,1-.34.27.16.16,0,0,1-.12,0s-.07-.11,0-.16a.87.87,0,0,1,.07-.17c.08-.17.16-.34.25-.5a18.55,18.55,0,0,0,1-2.29,19.92,19.92,0,0,0,.79-3.06A11.6,11.6,0,0,0,61.08,46.39Z"/><path class="cls-1" d="M104.49,54.86a1.24,1.24,0,0,1-.45-.21,39.07,39.07,0,0,1-4.06-3c-.41-.35-.8-.72-1.2-1.07a21.33,21.33,0,0,1-1.69-1.74,16.87,16.87,0,0,1-2-2.7,14.52,14.52,0,0,1-1-1.88,12.91,12.91,0,0,1-1-5c0-.23,0-.45,0-.68s.07-.74.12-1.11a13.68,13.68,0,0,1,1-3.44,18.84,18.84,0,0,1,1.78-3.27c.31-.44.64-.87,1-1.3A5.25,5.25,0,0,1,97.6,29a.37.37,0,0,1,.35-.08l.36.12a32.2,32.2,0,0,1,3.13,1.52c.61.35,1.21.72,1.78,1.12a15.43,15.43,0,0,1,2.17,1.86,11.92,11.92,0,0,1,2,2.82,11.64,11.64,0,0,1,1.06,3,16.17,16.17,0,0,1,.29,2.09,8.19,8.19,0,0,1,0,2,17.79,17.79,0,0,1-.68,4,36.83,36.83,0,0,1-1.79,5L105.57,54a1.32,1.32,0,0,1-.16.25s0,0-.06,0-.08,0-.09-.07,0-.2,0-.3v-1a12.54,12.54,0,0,0-.09-1.73c-.06-.41-.08-.83-.14-1.24a17.45,17.45,0,0,0-.56-2.48,11.73,11.73,0,0,0-2.18-4.15,8.73,8.73,0,0,0-1-1.08.15.15,0,0,0-.25.08s0,.08,0,.12c-.06.41-.13.82-.17,1.23s0,.74-.06,1.11a2.26,2.26,0,0,0,0,.37c0,.19,0,.38,0,.56a8.85,8.85,0,0,0,.24,1.85,16,16,0,0,0,1.82,4.6,25.27,25.27,0,0,0,1.39,2.14,1.18,1.18,0,0,1,.29.54Z"/><path class="cls-1" d="M130.58,73.51H130a14.12,14.12,0,0,0-2.59.25,1.46,1.46,0,0,1-.55.06s0,0,0,0,0-.1,0-.12l.23-.2c1.16-.73,2.32-1.45,3.53-2.09a22.09,22.09,0,0,1,6.54-2.31,9.22,9.22,0,0,1,1.48-.19l.31,0a10.29,10.29,0,0,1,2.48,0,11.94,11.94,0,0,1,3.53.92,9.88,9.88,0,0,1,1.48.77,15.06,15.06,0,0,1,3.35,2.86,19.53,19.53,0,0,1,2.51,3.47l.57,1a.37.37,0,0,1-.05.41l0,.05a22.82,22.82,0,0,1-1.86,1.82l-.88.7a17.05,17.05,0,0,1-2.45,1.58A13.32,13.32,0,0,1,143,84a12.38,12.38,0,0,1-3.16,0,13.25,13.25,0,0,1-2.48-.55,14.66,14.66,0,0,1-2.82-1.29A25.06,25.06,0,0,1,131,79.72c-.4-.33-.79-.68-1.17-1s-.82-.7-1.18-1.1c-.7-.79-1.45-1.54-2.11-2.36a.3.3,0,0,1-.06-.11.17.17,0,0,1,0-.12s.07,0,.1,0a2.62,2.62,0,0,1,.46.19,23.63,23.63,0,0,0,3.23,1.29,14.25,14.25,0,0,0,2.05.5,12.85,12.85,0,0,0,3,.15,11.45,11.45,0,0,0,3.22-.65l.34-.14a.18.18,0,0,0,.06-.22,1,1,0,0,0-.16-.19,4.56,4.56,0,0,0-1-.73,11.88,11.88,0,0,0-3.48-1.3c-.61-.12-1.22-.21-1.83-.3a4.19,4.19,0,0,0-.5,0l-1.37,0Z"/><path class="cls-1" d="M19.61,84.47a11.5,11.5,0,0,1-4.92-1.12,14.68,14.68,0,0,1-3.14-2c-.37-.3-.7-.65-1-1A19.66,19.66,0,0,1,8.33,77.9a4.66,4.66,0,0,1-.3-.47.28.28,0,0,1,0-.29,2.35,2.35,0,0,1,.24-.37c.46-.58.91-1.18,1.4-1.74s.77-.82,1.15-1.22a13.84,13.84,0,0,1,2.47-2,11.88,11.88,0,0,1,4.35-1.76,8.3,8.3,0,0,1,1.79-.18h.19a13.35,13.35,0,0,1,5.22,1,24.05,24.05,0,0,1,3.82,1.94,35.45,35.45,0,0,1,3.64,2.6c.29.23.57.48.85.72a.27.27,0,0,1,.08.1.21.21,0,0,1,0,.11.13.13,0,0,1-.11,0l-.37-.07a20,20,0,0,0-2.54-.6,13.35,13.35,0,0,0-2.1-.22H26.62a9.3,9.3,0,0,0-2.81.47,10.6,10.6,0,0,0-2.11.89l-.26.17a.14.14,0,0,0,0,.17.53.53,0,0,0,.13.13c.22.12.43.25.66.35a12,12,0,0,0,3.22.89l.44,0c.37,0,.74.08,1.11.08s.7-.06,1.06-.06A11.19,11.19,0,0,0,30,78.39a19.08,19.08,0,0,0,2.7-.69,5.52,5.52,0,0,1,.54-.16.15.15,0,0,1,.11,0s0,.12,0,.17-.14.15-.22.22a16.31,16.31,0,0,1-1.4,1.22A27.77,27.77,0,0,1,29.19,81a22,22,0,0,1-4.31,2.35,14.91,14.91,0,0,1-3.78,1A10.56,10.56,0,0,1,19.61,84.47Z"/><path class="cls-1" d="M110.46,29.05a17.66,17.66,0,0,0-.37-3.7,14.23,14.23,0,0,0-1-3.06,9.44,9.44,0,0,0-1.63-2.42,3.68,3.68,0,0,0-.44-.34.17.17,0,0,0-.25.09,2.81,2.81,0,0,0-.12.48,7.74,7.74,0,0,0-.12.8,12.22,12.22,0,0,0,0,2.42c0,.27.07.54.12.8a13.42,13.42,0,0,0,.91,3,18.15,18.15,0,0,0,1.93,3.4,3.28,3.28,0,0,1,.22.37s0,.07,0,.1,0,0,0,0a1.47,1.47,0,0,1-.28-.14c-.79-.53-1.54-1.11-2.3-1.69s-1.53-1.27-2.27-1.93c-.34-.31-.64-.65-1-1s-.71-.8-1-1.22a14.91,14.91,0,0,1-2-3.13,11.47,11.47,0,0,1-1-3.32c-.07-.47-.09-.95-.13-1.42a.57.57,0,0,1,0-.13,14.92,14.92,0,0,1,.48-3.25A14,14,0,0,1,101.33,11a27.52,27.52,0,0,1,2.18-3.18l.24-.28c.27-.31.35-.33.76-.18l.34.14a25.43,25.43,0,0,1,3.45,1.85,13.43,13.43,0,0,1,2.32,1.86,11.6,11.6,0,0,1,1.79,2.38,11.78,11.78,0,0,1,1.32,3.86c.06.39.09.78.13,1.17a7.24,7.24,0,0,1,0,1.86,12.81,12.81,0,0,1-.42,2.82,24.41,24.41,0,0,1-1.34,4c-.4.93-.82,1.86-1.23,2.79,0,.07-.07.15-.11.22a.29.29,0,0,1-.18.16c-.06,0-.11-.07-.11-.2V29.05Z"/><path class="cls-1" d="M51.25,31a1.09,1.09,0,0,1,.21-.45c.34-.57.69-1.13,1-1.71A15.63,15.63,0,0,0,54,25.16a12.32,12.32,0,0,0,.34-1.71,9.31,9.31,0,0,0,.11-1.67,10.13,10.13,0,0,0-.26-2,.88.88,0,0,0-.1-.22c0-.07-.16-.11-.21-.06a2.92,2.92,0,0,0-.38.32,10.19,10.19,0,0,0-1.35,1.85,13,13,0,0,0-1.41,4.1,15.54,15.54,0,0,0-.25,3c0,.45,0,.91,0,1.36a1.09,1.09,0,0,1,0,.25,0,0,0,0,1,0,0,.22.22,0,0,1-.11,0s0,0,0,0a1.4,1.4,0,0,1-.1-.16,39.18,39.18,0,0,1-2.07-4.86,19.05,19.05,0,0,1-.93-3.86A12.13,12.13,0,0,1,47,19.31c0-.26,0-.53.06-.8,0-.45.08-.91.16-1.36a11.14,11.14,0,0,1,3.63-6.49,13.7,13.7,0,0,1,1.88-1.43A25.36,25.36,0,0,1,55,8c.45-.22.9-.42,1.36-.62a1.42,1.42,0,0,1,.35-.11.3.3,0,0,1,.29.07,6,6,0,0,1,.42.46,25.7,25.7,0,0,1,1.81,2.6,15.54,15.54,0,0,1,1.39,3.05,15.77,15.77,0,0,1,.47,2.12,15.27,15.27,0,0,1,.1,2.24,7.13,7.13,0,0,1-.17,1.29,11.69,11.69,0,0,1-.94,2.82A16.07,16.07,0,0,1,58,25.18c-.3.37-.62.72-1,1.06A30.79,30.79,0,0,1,52.8,30l-1.15.83a1,1,0,0,1-.39.2Z"/><path class="cls-1" d="M73.63,42v-.5a14.69,14.69,0,0,1,.65-4.22,9.74,9.74,0,0,1,1.84-3.43,12,12,0,0,1,2.36-2.19,16.48,16.48,0,0,1,3.3-1.73A22.48,22.48,0,0,1,84.56,29l.55-.12a.36.36,0,0,1,.33.14,2.2,2.2,0,0,1,.17.25,18.78,18.78,0,0,1,1.65,3.48,19.15,19.15,0,0,1,.64,2.33,12.55,12.55,0,0,1,.16,3.35,10.32,10.32,0,0,1-.62,2.72,12.1,12.1,0,0,1-2.09,3.57c-.31.37-.62.73-1,1.07a20.35,20.35,0,0,1-2.87,2.36,33.52,33.52,0,0,1-3.75,2.21l-1.45.72a1.55,1.55,0,0,1-.23.06l0,0a.07.07,0,0,1,0-.06,1.2,1.2,0,0,1,.32-.45c.54-.57,1-1.19,1.53-1.8a14.22,14.22,0,0,0,2-3.35,8.36,8.36,0,0,0,.49-1.54,9,9,0,0,0,.25-1.72c0-.14,0-.29,0-.43s0-.54,0-.81a1.54,1.54,0,0,0,0-.3c0-.19-.17-.25-.32-.16l-.1.06a8.41,8.41,0,0,0-1.78,1.64,12.08,12.08,0,0,0-2.07,3.73,19.87,19.87,0,0,0-.88,3.81,6.88,6.88,0,0,1-.15.79s0,0,0,0-.09,0-.11,0a1.39,1.39,0,0,1-.11-.21A29.81,29.81,0,0,1,74,46.17c-.16-.9-.25-1.8-.34-2.71,0-.49,0-1,0-1.49Z"/><path class="cls-1" d="M21.41,53.36v1.18a6.59,6.59,0,0,1-.07,1c0,.24,0,.49-.05.74a3.18,3.18,0,0,1-.06.43.14.14,0,0,1-.09.08.18.18,0,0,1-.1,0c-.05-.11-.1-.23-.14-.34-.18-.53-.34-1.07-.53-1.59A17.51,17.51,0,0,0,18.48,51a11.88,11.88,0,0,0-4.24-3.85L14,47.08c-.11,0-.23-.11-.34,0s-.05.19,0,.29A15.91,15.91,0,0,0,14,49.18a11.54,11.54,0,0,0,2.11,4,16.83,16.83,0,0,0,2.44,2.48l1.34,1.1.22.22a.13.13,0,0,1,0,.12.17.17,0,0,1-.1.06H19.9l-.3-.07A42,42,0,0,1,15.48,56a23.89,23.89,0,0,1-4-1.72A14.82,14.82,0,0,1,9,52.57c-.36-.29-.69-.6-1-.91A12.4,12.4,0,0,1,6.55,50l-.1-.15c-.35-.6-.35-.52-.1-1.14.19-.46.39-.92.6-1.37.58-1.24,1.15-2.48,1.79-3.69q1.47-2.81,3.13-5.51c.09-.14.19-.28.29-.41a.36.36,0,0,1,.39-.12l.35.1A11.83,11.83,0,0,1,17.84,41a11,11,0,0,1,1.4,2,15.33,15.33,0,0,1,1.43,3.63,22.62,22.62,0,0,1,.52,2.94c.09.65.09,1.32.2,2a4.18,4.18,0,0,1,0,.5v1.31Z"/><path class="cls-1" d="M139.55,53.13V52.07c0-.6,0-1.2.1-1.8a24.79,24.79,0,0,1,.41-2.7,17.43,17.43,0,0,1,.92-3.09,13.28,13.28,0,0,1,1.61-2.87,10.75,10.75,0,0,1,2.56-2.43,13.38,13.38,0,0,1,2.29-1.25c.3-.13.62-.23.93-.33a.34.34,0,0,1,.39.14c.12.16.24.33.35.51.93,1.54,1.86,3.09,2.69,4.7.35.7.74,1.38,1.08,2.09.57,1.18,1.11,2.37,1.65,3.56.3.66.29.69-.13,1.3a11.65,11.65,0,0,1-2,2.22,18.9,18.9,0,0,1-4.14,2.73c-.69.34-1.4.63-2.12.9a33.42,33.42,0,0,1-5,1.46,1.55,1.55,0,0,1-.31,0,.25.25,0,0,1-.16,0c-.05,0,0-.13.09-.2l.2-.14a17.2,17.2,0,0,0,3.33-3,12.32,12.32,0,0,0,2.93-6.08c0-.21.06-.42.09-.62s-.07-.17-.15-.14l-.12,0a10.49,10.49,0,0,0-2.22,1.36,12,12,0,0,0-2.87,3.4,20.12,20.12,0,0,0-1.89,4.52,2.86,2.86,0,0,1-.15.41.15.15,0,0,1-.1,0,.14.14,0,0,1-.09-.08.21.21,0,0,1,0-.12,24.5,24.5,0,0,1-.15-2.85v-.62Z"/><path class="cls-1" d="M43.39,96.77v-.25a9.61,9.61,0,0,1,.4-2.82,19.64,19.64,0,0,1,2.18-5c.31-.5.63-1,.94-1.47a1.51,1.51,0,0,1,.21-.23s.07,0,.1,0,0,0,0,0a1.08,1.08,0,0,1,0,.18c0,.15,0,.29-.08.43a9.31,9.31,0,0,0-.15,2c0,.39,0,.79,0,1.18a9.76,9.76,0,0,0,1.13,4.16c.14.26.31.5.47.74a1.36,1.36,0,0,0,.17.17.16.16,0,0,0,.22,0,1.3,1.3,0,0,0,.08-.17,7.77,7.77,0,0,0,.52-2.6,13,13,0,0,0-.93-5c-.12-.33-.29-.64-.44-1,0-.11-.1-.23-.14-.34s0-.07,0-.1.05,0,.06,0,.28.18.41.29c.39.34.78.68,1.15,1s.52.54.77.81l.33.37a17.85,17.85,0,0,1,2.45,3.28,10.84,10.84,0,0,1,1.35,3.39,9,9,0,0,1,.18,2.59,9.66,9.66,0,0,1-.52,2.37,12.06,12.06,0,0,1-2,3.43,16.35,16.35,0,0,1-1.63,1.8c-.43.41-.5.42-1,.11a23.27,23.27,0,0,1-2.46-1.69c-.33-.28-.68-.54-1-.84a9.19,9.19,0,0,1-2.75-4.91A10.16,10.16,0,0,1,43.39,96.77Z"/><path class="cls-1" d="M106.36,76.49c.2-.17.41-.34.6-.53l1.49-1.51a10.56,10.56,0,0,1,1.67-1.38,1.47,1.47,0,0,0,.58-.7,8.33,8.33,0,0,1,.44-1,17.22,17.22,0,0,1,1.21-2c.44-.62.87-1.26,1.26-1.92.2-.36.38-.74.57-1.11s.3-.63.48-.94a2.64,2.64,0,0,1,1.71-1.25,1.15,1.15,0,0,1,.61,0,.92.92,0,0,1,.63.55,1.7,1.7,0,0,1,.15,1.09,8.72,8.72,0,0,1-.46,1.42c-.15.36-.3.73-.43,1.1-.31.9-.63,1.79-1,2.67-.14.33-.29.65-.44,1a4.9,4.9,0,0,1-.48.79c-.18.25-.34.52-.5.79-.07.1-.12.22-.18.32a1.17,1.17,0,0,1-.62.5,5.39,5.39,0,0,1-.66.18,12.27,12.27,0,0,0-2,.59c-.91.35-1.8.76-2.69,1.16l-.8.34a3.64,3.64,0,0,1-1.27.26,14.38,14.38,0,0,0-2.7.37c-.9.18-1.79.39-2.68.57-.63.12-1.27.22-1.9.29a11.68,11.68,0,0,1-1.87,0l-.12,0c-.06,0-.14-.14-.11-.2a.51.51,0,0,1,.07-.17,4.67,4.67,0,0,0,.43-1l.39-1.18a8.21,8.21,0,0,0,.36-1.76,5,5,0,0,1,.31-1.33c.06-.16.13-.31.18-.46a4,4,0,0,0,.24-1.22,5.87,5.87,0,0,1,1-3.08,2.86,2.86,0,0,1,1.62-1.19,1,1,0,0,1,.55,0,.59.59,0,0,1,.49.43,1.44,1.44,0,0,1,.07.36,3.64,3.64,0,0,1-.06.93c-.16.94-.38,1.87-.61,2.79a14.12,14.12,0,0,0-.32,2.15,11.18,11.18,0,0,1-.47,2.37c-.12.42-.23.84-.34,1.26a.15.15,0,0,0,0,.11.16.16,0,0,0,.12,0,1.18,1.18,0,0,0,.47-.28.66.66,0,0,0,.14-.2c.05-.12.09-.24.13-.36a5.93,5.93,0,0,1,.72-1.58c.16-.26.32-.53.49-.79a9.63,9.63,0,0,0,1.13-2.27,11.09,11.09,0,0,1,.85-1.93c.22-.38.42-.77.62-1.15a9.55,9.55,0,0,0,.72-1.86c.12-.46.25-.91.37-1.38a2.75,2.75,0,0,1,1.47-1.82,1.56,1.56,0,0,1,1-.17.85.85,0,0,1,.78.83,2.16,2.16,0,0,1,0,.67c-.06.23-.11.45-.17.67a7.13,7.13,0,0,0-.29,1.46,4.71,4.71,0,0,1-.24,1.22,30.71,30.71,0,0,0-.86,3.43c-.13.61-.27,1.22-.43,1.81a8.23,8.23,0,0,1-1,2.28l-.29.48a1.44,1.44,0,0,0-.19.46Z"/><path class="cls-1" d="M113.93,89.81a10.73,10.73,0,0,0-.19-2.23,5,5,0,0,1-.06-.56.13.13,0,0,1,.07-.08.15.15,0,0,1,.11,0l.19.24c.34.54.71,1.08,1,1.64a24.63,24.63,0,0,1,1.49,3.21,18.47,18.47,0,0,1,.63,2,15,15,0,0,1,.34,1.89,8.2,8.2,0,0,1,0,2c-.06.46-.13.9-.23,1.35a8.77,8.77,0,0,1-1.66,3.38,11.91,11.91,0,0,1-1.66,1.67,23.89,23.89,0,0,1-2.9,2,1,1,0,0,1-.23.11.34.34,0,0,1-.24,0l0,0a10.22,10.22,0,0,1-1.27-1.19c-.29-.38-.63-.72-.91-1.1a13.28,13.28,0,0,1-1.61-2.87,8.64,8.64,0,0,1-.48-1.67,9.93,9.93,0,0,1-.17-1.72,10.31,10.31,0,0,1,.77-3.76,15.38,15.38,0,0,1,2.7-4.29c.6-.69,1.24-1.34,1.89-2,.37-.36.78-.69,1.17-1a.09.09,0,0,1,.1,0,.11.11,0,0,1,0,.11c-.09.23-.18.46-.29.69a14.65,14.65,0,0,0-1,3.39,12.33,12.33,0,0,0-.12,2.91,5.69,5.69,0,0,0,.48,2A.42.42,0,0,0,112,96a.11.11,0,0,0,.11,0,.67.67,0,0,0,.19-.14,6.54,6.54,0,0,0,1-1.79,11,11,0,0,0,.6-2.53A13.81,13.81,0,0,0,113.93,89.81Z"/><path class="cls-1" d="M53.5,76.62a2.14,2.14,0,0,0-.29-.61,14.58,14.58,0,0,1-.85-1.73A13.51,13.51,0,0,1,51.65,72c-.12-.52-.23-1-.34-1.58A13.38,13.38,0,0,0,50.94,69a12.26,12.26,0,0,1-.49-1.8c0-.2-.06-.41-.07-.61a5.56,5.56,0,0,0-.29-1.46,4.5,4.5,0,0,1-.17-.6,1.14,1.14,0,0,1,0-.73.9.9,0,0,1,.84-.63,1.7,1.7,0,0,1,1,.22,3.82,3.82,0,0,1,1,.91,2.6,2.6,0,0,1,.43,1c.11.4.21.8.31,1.2,0,.1,0,.2.07.3a6.91,6.91,0,0,0,.83,2.07,19.64,19.64,0,0,1,1.25,2.57A14.19,14.19,0,0,0,57,73.94c.17.26.33.53.48.8A5.7,5.7,0,0,1,58,76.11l.06.24a.82.82,0,0,0,.7.62c.05,0,.13-.06.13-.12a2,2,0,0,0,0-.24c-.12-.48-.24-1-.37-1.45a12.08,12.08,0,0,1-.34-1.89,19.24,19.24,0,0,0-.53-3c-.14-.54-.25-1.09-.37-1.63a5.27,5.27,0,0,1-.08-1.43.63.63,0,0,1,.78-.66,2.22,2.22,0,0,1,1.23.54,3.26,3.26,0,0,1,.87,1,6.76,6.76,0,0,1,.64,1.55,5.21,5.21,0,0,1,.13.79,5.9,5.9,0,0,0,.46,2,4.09,4.09,0,0,1,.28,1.08c0,.27.09.53.11.8a3.82,3.82,0,0,0,.15.67c.16.49.31,1,.46,1.48a10,10,0,0,0,.47,1.29,1.55,1.55,0,0,1,.08.23c0,.06-.06.18-.12.2l-.31,0a14.39,14.39,0,0,1-2.78-.19c-.92-.15-1.83-.37-2.74-.56s-1.59-.32-2.38-.46A4.66,4.66,0,0,0,53.42,77a1.54,1.54,0,0,1-.37,0,4.56,4.56,0,0,1-1.29-.43c-.88-.42-1.77-.81-2.68-1.17a16.46,16.46,0,0,0-2.61-.81l-.24,0a.8.8,0,0,1-.43-.24,2.92,2.92,0,0,1-.32-.38A16.24,16.24,0,0,1,44,71.33c-.41-.93-.74-1.89-1.1-2.84-.16-.43-.33-.85-.49-1.27s-.2-.55-.3-.82a2.78,2.78,0,0,1-.09-1.11,1.11,1.11,0,0,1,.27-.68,1,1,0,0,1,1-.38,3,3,0,0,1,1.17.55,1.88,1.88,0,0,1,.57.65c.17.33.35.66.5,1a16.73,16.73,0,0,0,1.18,2c.36.55.74,1.1,1.1,1.65a13.34,13.34,0,0,1,1.27,2.35,1.13,1.13,0,0,0,.42.52,18.39,18.39,0,0,1,2.89,2.54c.11.12.22.25.32.38a5.22,5.22,0,0,0,.71.7Z"/><path class="cls-1" d="M70.3,25.44a9.58,9.58,0,0,0,.75,3.69,13.84,13.84,0,0,0,1.83,3.16c.09.12.16.24.24.36a.06.06,0,0,1,0,.06s-.07.06-.09,0a1.75,1.75,0,0,1-.34-.15A32.13,32.13,0,0,1,69,30.17a15.25,15.25,0,0,1-1.85-1.65,12.07,12.07,0,0,1-2.06-2.94,8.11,8.11,0,0,1-.81-2.85,8.12,8.12,0,0,1-.09-1.3c0-.43.06-.87.14-1.3a12.94,12.94,0,0,1,.83-3,13.79,13.79,0,0,1,1.35-2.44c.09-.12.17-.24.26-.35a.44.44,0,0,1,.45-.16,2.77,2.77,0,0,1,.41.12c.47.17.94.34,1.4.53a12.69,12.69,0,0,1,3.33,1.91,8.91,8.91,0,0,1,2.9,4,10.46,10.46,0,0,1,.53,2.42,10.19,10.19,0,0,1,.08,1.24c0,.26,0,.53,0,.8,0,.1,0,.21,0,.31a15,15,0,0,1-.56,3.18,28.72,28.72,0,0,1-1.11,3.36.82.82,0,0,1-.2.38l0,0c-.05,0-.09,0-.09-.06s0-.29,0-.43a6,6,0,0,0-.07-1.12,1.55,1.55,0,0,1,0-.31,11.57,11.57,0,0,0-1-4.2,7.78,7.78,0,0,0-1.75-2.47c-.06-.06-.13-.1-.19-.15a.16.16,0,0,0-.21.07,4.66,4.66,0,0,0-.17,1.29Z"/><path class="cls-1" d="M147.39,86.3h1a11.69,11.69,0,0,1,4.86,1.16,9.29,9.29,0,0,1,1.58,1,9.42,9.42,0,0,1,2.85,3.78,13.51,13.51,0,0,1,.88,3c.07.39.12.78.17,1.17a2.78,2.78,0,0,1,0,.5.36.36,0,0,1-.2.29l-.22.11a23.59,23.59,0,0,1-2.54.84,10.93,10.93,0,0,1-1.71.3,3.29,3.29,0,0,0-.44,0,4.77,4.77,0,0,1-1.36,0c-.45-.07-.91-.08-1.35-.17a8.68,8.68,0,0,1-3-1.24,10.63,10.63,0,0,1-2.36-2.18A15.8,15.8,0,0,1,144,92.59a28.41,28.41,0,0,1-1.69-3.73c-.13-.33-.25-.66-.37-1a.56.56,0,0,1,0-.18.13.13,0,0,1,.1,0,1.08,1.08,0,0,1,.24.18c.38.39.76.77,1.13,1.16a10.18,10.18,0,0,0,2.38,1.79,8.51,8.51,0,0,0,3,1l.8.11a1,1,0,0,0,.24,0,.13.13,0,0,0,.06-.1.62.62,0,0,0-.07-.23,10.85,10.85,0,0,0-.71-1,7.16,7.16,0,0,0-1.25-1.21,10.1,10.1,0,0,0-2.47-1.42A18,18,0,0,0,143,87.1a3.71,3.71,0,0,1-.47-.16s0,0,0,0a.11.11,0,0,1,0,0,.62.62,0,0,1,.22-.1,13.1,13.1,0,0,1,2-.31,1.62,1.62,0,0,0,.31,0A15.48,15.48,0,0,1,147.39,86.3Z"/><path class="cls-1" d="M13.89,86.3h.81a18.15,18.15,0,0,1,3.45.4.36.36,0,0,1,.17.07.17.17,0,0,1,.06.1l0,0-.28.12-1,.27a14.16,14.16,0,0,0-2.59,1,9.5,9.5,0,0,0-2.75,2.21,4.88,4.88,0,0,0-.64.92.48.48,0,0,0-.07.23.18.18,0,0,0,.1.14.27.27,0,0,0,.18,0c.55-.08,1.11-.12,1.65-.25a8.74,8.74,0,0,0,3.13-1.47,14.73,14.73,0,0,0,1.75-1.5c.29-.3.58-.59.88-.88a.4.4,0,0,1,.16-.08.15.15,0,0,1,.09.07.79.79,0,0,1-.1.42c-.28.73-.55,1.47-.86,2.2a19.54,19.54,0,0,1-2.35,4.15,13,13,0,0,1-1.14,1.32,9,9,0,0,1-5,2.51c-.39.06-.79.09-1.18.13a3.09,3.09,0,0,1-.43,0A14.32,14.32,0,0,1,4.66,98c-.61-.19-1.22-.39-1.82-.64l-.23-.09a.51.51,0,0,1-.37-.57c0-.12,0-.25,0-.37a17.12,17.12,0,0,1,.68-3.16,10.33,10.33,0,0,1,1.9-3.47,8.26,8.26,0,0,1,3.27-2.42A12.19,12.19,0,0,1,10,86.66c.65-.14,1.31-.24,2-.32.32,0,.66,0,1,0Z"/><path class="cls-1" d="M87,23.61a8.11,8.11,0,0,1,.5-3.05,8,8,0,0,1,1.2-2.17,9.4,9.4,0,0,1,2.05-1.88A16.76,16.76,0,0,1,93.51,15a2.83,2.83,0,0,1,.41-.14.31.31,0,0,1,.34.08,3.8,3.8,0,0,1,.33.37,17.28,17.28,0,0,1,1.52,2.27,9.16,9.16,0,0,1,.94,2.69,10.5,10.5,0,0,1,.11,2.17c0,.16,0,.33,0,.49a8.79,8.79,0,0,1-1.55,3.7,16.94,16.94,0,0,1-3,3.21c-.62.52-1.28,1-1.93,1.46a5.74,5.74,0,0,1-.53.32.14.14,0,0,1-.11,0,.11.11,0,0,1,0-.11,2.26,2.26,0,0,1,.16-.26c.14-.21.28-.42.41-.63a12.15,12.15,0,0,0,1.34-2.79,8.51,8.51,0,0,0,.39-3.13,7.38,7.38,0,0,0-.16-.92c0-.12-.19-.16-.3-.06a4.38,4.38,0,0,0-.72.77A8.34,8.34,0,0,0,90,26.75a13.73,13.73,0,0,0-.43,2.12,15.5,15.5,0,0,0-.09,1.8c0,.15,0,.29,0,.43s0,.08-.09.07,0,0-.06,0a.38.38,0,0,1-.11-.14,31.38,31.38,0,0,1-1.57-3.85,15.35,15.35,0,0,1-.5-2.31C87,24.44,87.06,24,87,23.61Z"/><path class="cls-1" d="M125.57,65.79a12.43,12.43,0,0,0,2.72-.27,9.09,9.09,0,0,0,2.46-.85,6.7,6.7,0,0,0,1.32-.93,1,1,0,0,0,.15-.19c.05,0,0-.18-.06-.21a1.34,1.34,0,0,0-.18-.07,7.45,7.45,0,0,0-2.16-.16,10.76,10.76,0,0,0-3.91,1.15c-.4.21-.78.46-1.18.69a2.29,2.29,0,0,1-.27.14h-.06s-.06-.08-.05-.1a1.33,1.33,0,0,1,.16-.34c.44-.62.88-1.25,1.35-1.86s.76-.93,1.16-1.38a10.84,10.84,0,0,1,.84-.82,14.33,14.33,0,0,1,1.57-1.22,8.12,8.12,0,0,1,6.95-1.08A9.67,9.67,0,0,1,139,59.47c.5.33,1,.68,1.49,1a2.12,2.12,0,0,1,.24.2.35.35,0,0,1,.09.34,2.42,2.42,0,0,1-.12.35A15.46,15.46,0,0,1,139.32,64a9.34,9.34,0,0,1-1.67,2,7.5,7.5,0,0,1-2.85,1.59,9.46,9.46,0,0,1-3.26.41,12.22,12.22,0,0,1-1.9-.26,17.46,17.46,0,0,1-2.92-.86c-.65-.26-1.3-.54-2-.81a2.44,2.44,0,0,1-.28-.14c-.07,0-.11-.12-.07-.14a.15.15,0,0,1,.1-.06,1.08,1.08,0,0,1,.18,0Z"/><path class="cls-1" d="M62.8,58.71c0-.19,0-.37,0-.56a11.34,11.34,0,0,1,.4-2.95,7.73,7.73,0,0,1,1.4-2.88A6.93,6.93,0,0,1,65.93,51a10.22,10.22,0,0,1,4-1.83c.49-.11,1-.19,1.47-.27a1.62,1.62,0,0,1,.31,0,.44.44,0,0,1,.39.26.89.89,0,0,1,.08.17,16.45,16.45,0,0,1,1,3.44,5.54,5.54,0,0,1,.1,1c0,.23,0,.46,0,.68A6.22,6.22,0,0,1,73.11,56a7.74,7.74,0,0,1-1.32,2.85,9.65,9.65,0,0,1-2.36,2.28,19.53,19.53,0,0,1-3.71,2l-1.39.57a1.45,1.45,0,0,1-.3.05s0,0,0,0,0,0,0-.05a.53.53,0,0,1,.11-.15,15,15,0,0,0,1.51-1.47,8.5,8.5,0,0,0,2.16-4.47,2.63,2.63,0,0,0,0-.74c0-.08-.12-.15-.19-.12a1.2,1.2,0,0,0-.28.13,7.09,7.09,0,0,0-1.84,1.74,9.68,9.68,0,0,0-1.54,3.3c-.09.32-.16.65-.24,1a3.45,3.45,0,0,1-.14.34s0,0,0,0,0,0,0,0a.75.75,0,0,1-.12-.21,20,20,0,0,1-.4-2A14.59,14.59,0,0,1,62.8,58.71Z"/><path class="cls-1" d="M79,63.62a10.55,10.55,0,0,0,.78,4,3.64,3.64,0,0,1,.14.47s0,.08-.06.09a.11.11,0,0,1-.11,0c-.28-.3-.58-.6-.84-.92A23.87,23.87,0,0,1,77.19,65a14.64,14.64,0,0,1-1.3-2.4,7.86,7.86,0,0,1-.66-2.39c0-.27-.08-.53-.09-.8A7.51,7.51,0,0,1,76.35,55a10,10,0,0,1,1.35-1.69,19.16,19.16,0,0,1,1.69-1.56l.2-.15a.29.29,0,0,1,.3,0,.6.6,0,0,1,.11.06,13.56,13.56,0,0,1,2.46,2.08,8.68,8.68,0,0,1,2,3.59,6.66,6.66,0,0,1,.24,1.6A10.2,10.2,0,0,1,84,62.84a13.06,13.06,0,0,1-1.61,2.93c-.5.69-1,1.36-1.53,2a1,1,0,0,1-.17.18s-.09,0-.11,0a.15.15,0,0,1,0-.11c0-.12,0-.24.08-.36a8.14,8.14,0,0,0,.29-1.47,14.29,14.29,0,0,0,0-2.85,7.53,7.53,0,0,0-.45-1.93,5.35,5.35,0,0,0-.44-.9.8.8,0,0,0-.13-.13.15.15,0,0,0-.17,0l-.11.15a3.82,3.82,0,0,0-.36.92,6.61,6.61,0,0,0-.28,2C79,63.41,79,63.51,79,63.62Z"/><path class="cls-1" d="M160.87,73.91c0,.23,0,.48,0,.72a.27.27,0,0,1-.25.23,1.14,1.14,0,0,1-.37,0,22.65,22.65,0,0,1-2.31-.51,27.73,27.73,0,0,1-6-2.52,46.09,46.09,0,0,1-4.57-3l-2.19-1.64a26,26,0,0,1-2.28-1.92.18.18,0,0,1-.06-.1.12.12,0,0,1,.06-.1.47.47,0,0,1,.35,0c1,.34,2,.64,3.05.89a28.86,28.86,0,0,0,3.24.57,20.55,20.55,0,0,0,2.35.12h.87a18.42,18.42,0,0,0,6.19-1.22l.53-.19a.21.21,0,0,1,.24.14c.06.23.11.45.15.67.2,1.1.39,2.2.53,3.31,0,.41.12.82.18,1.23s.11,1,.16,1.42.08.66.11,1S160.85,73.6,160.87,73.91Z"/><path class="cls-1" d="M0,74.28C0,74.12,0,74,0,74c.06-.6.12-1.2.19-1.79l.15-1.36c.12-1,.27-2.06.44-3.08.1-.63.21-1.26.33-1.9a4.19,4.19,0,0,1,.14-.47.21.21,0,0,1,.21-.1,3.59,3.59,0,0,1,.35.12,17,17,0,0,0,3.34,1,16.67,16.67,0,0,0,3.15.33c.39,0,.79,0,1.18,0a18.59,18.59,0,0,0,3.33-.31,30.93,30.93,0,0,0,4.64-1.18,1.23,1.23,0,0,1,.54-.13l0,0s0,.09,0,.11a1.56,1.56,0,0,1-.16.2l-.94.81c-1.18,1-2.37,1.94-3.62,2.83s-2.25,1.55-3.43,2.25A32.41,32.41,0,0,1,4.61,73.8a24.55,24.55,0,0,1-3.78,1,1.45,1.45,0,0,1-.55,0A.28.28,0,0,1,0,74.64,3.18,3.18,0,0,1,0,74.28Z"/><path class="cls-1" d="M35.13,64.8h1s.06,0,.08.08a.21.21,0,0,1,0,.06l0,0-.16.1a20,20,0,0,1-4.45,1.54,10.7,10.7,0,0,1-3,.16,7,7,0,0,1-3.32-1.12c-.33-.22-.64-.46-.95-.7a6.09,6.09,0,0,1-1.07-1.2,12.81,12.81,0,0,1-1.72-3.3.53.53,0,0,1,0-.12.26.26,0,0,1,.06-.23,3.11,3.11,0,0,1,.33-.29,17.2,17.2,0,0,1,2-1.3,7.87,7.87,0,0,1,2.59-.84c.31,0,.62-.09.92-.1a7.39,7.39,0,0,1,4,1.11,11.63,11.63,0,0,1,1.5,1.11,11.64,11.64,0,0,1,1.09,1,22.11,22.11,0,0,1,2,2.54c.16.24.3.49.45.74,0,0,0,.08,0,.11h-.06l-.17-.08-.53-.32a11.37,11.37,0,0,0-2.49-1.12,9.26,9.26,0,0,0-1.89-.35,6,6,0,0,0-1.79.16l-.11.05c-.08,0-.13.14-.07.2a2.89,2.89,0,0,0,.35.35,6.73,6.73,0,0,0,2.52,1.3A10.18,10.18,0,0,0,35.13,64.8Z"/><path class="cls-1" d="M127.36,52a16.57,16.57,0,0,1,.4-3.51,10.73,10.73,0,0,1,1-2.68A9.1,9.1,0,0,1,130,44a6.1,6.1,0,0,1,.46-.41A7.27,7.27,0,0,1,133.63,42a9.93,9.93,0,0,1,2.77-.29c.39,0,.78.08,1.17.13a.34.34,0,0,1,.31.27c.08.3.14.6.2.91a11.55,11.55,0,0,1,.14,2.35,7.29,7.29,0,0,1-.89,3.45,7,7,0,0,1-1.69,2,10.71,10.71,0,0,1-3,1.68,19.47,19.47,0,0,1-4.4,1.05h-.12s-.05,0-.05,0,0-.09,0-.11a1.16,1.16,0,0,1,.24-.2A14.42,14.42,0,0,0,129.83,52a7.4,7.4,0,0,0,2.42-3.54c.06-.19.1-.4.15-.6a.15.15,0,0,0-.21-.15l-.06,0A6.89,6.89,0,0,0,130,49.16a9.32,9.32,0,0,0-2,3c-.13.31-.26.61-.4.91,0,0,0,0-.09.07s-.09,0-.1-.12,0-.17,0-.25Z"/><path class="cls-1" d="M22.76,44.82c0-.31,0-.63,0-.94A8.33,8.33,0,0,1,23,42.23a1.13,1.13,0,0,1,.08-.24.35.35,0,0,1,.23-.18l.25,0a10.08,10.08,0,0,1,2,0,10.59,10.59,0,0,1,2.61.51A7,7,0,0,1,31,44.11a7.41,7.41,0,0,1,1,1.39,11.06,11.06,0,0,1,1.2,3.25c.13.65.21,1.31.28,2a16.47,16.47,0,0,1,.08,2.11.33.33,0,0,1,0,.17s-.06,0-.1.06a.07.07,0,0,1-.05,0c-.07-.12-.14-.25-.2-.38A12.08,12.08,0,0,0,32,50.47a8.7,8.7,0,0,0-1-1.25,7.34,7.34,0,0,0-2.1-1.42.64.64,0,0,0-.24,0s-.07,0-.08.07a.53.53,0,0,0,0,.18,6.4,6.4,0,0,0,1.63,3.17,10.8,10.8,0,0,0,2.34,1.92,1,1,0,0,1,.39.31s0,0,0,.05a.07.07,0,0,1,0,0,.55.55,0,0,1-.18,0,16.3,16.3,0,0,1-2-.31,16.56,16.56,0,0,1-3.14-1,8.88,8.88,0,0,1-2.87-1.92,6.71,6.71,0,0,1-1.73-3,6.58,6.58,0,0,1-.29-2c0-.16,0-.33,0-.49Z"/><path class="cls-1" d="M102.61,59.35a7.19,7.19,0,0,1-1.34,4.13,8.92,8.92,0,0,1-2.18,2.11A14.13,14.13,0,0,1,96.6,67c-.59.25-1.18.51-1.79.71a1.59,1.59,0,0,1-.3.06s-.05,0-.05,0a.14.14,0,0,1,0-.11.3.3,0,0,1,.06-.11l1-1.06a8.2,8.2,0,0,0,1.49-2.36A5.43,5.43,0,0,0,97.39,62c0-.1,0-.21,0-.31s-.14-.12-.2-.1l-.11,0a5.44,5.44,0,0,0-1.18,1,8.59,8.59,0,0,0-1.67,3.23,9.13,9.13,0,0,0-.29,1.28,1.91,1.91,0,0,1-.11.41.09.09,0,0,1,0,0s-.09,0-.1,0a.92.92,0,0,1-.09-.23c-.17-.71-.27-1.42-.37-2.14,0-.17,0-.33,0-.5,0-.5,0-1,0-1.49a10.5,10.5,0,0,1,.4-2.89,7.53,7.53,0,0,1,1-2.25,6.67,6.67,0,0,1,2.23-2,10,10,0,0,1,3.39-1.18l.62-.1h.31a.39.39,0,0,1,.35.21,7.05,7.05,0,0,1,.36.73,10.71,10.71,0,0,1,.77,3.25A3.09,3.09,0,0,1,102.61,59.35Z"/><path class="cls-1" d="M85.36,18.63a7.53,7.53,0,0,1-.8,3.48A13.44,13.44,0,0,1,82.7,25l-1.2,1.43c0,.06-.14.09-.16.05s0-.08,0-.11.06-.24.1-.36a13.24,13.24,0,0,0,.52-2.24c0-.12,0-.25,0-.37,0-.54,0-1.08,0-1.62a5.36,5.36,0,0,0-.43-1.93,1.2,1.2,0,0,0-.13-.21.16.16,0,0,0-.22,0,2,2,0,0,0-.41.69,7.86,7.86,0,0,0-.27.82,8.73,8.73,0,0,0-.26,2,9.5,9.5,0,0,0,.39,3,2.72,2.72,0,0,1,0,.3s-.05.06-.08.08h-.06a.83.83,0,0,1-.15-.11,17.9,17.9,0,0,1-2.77-4.41A7.83,7.83,0,0,1,77,19.48c0-.14,0-.28-.06-.43a2.68,2.68,0,0,1,0-.49,12.32,12.32,0,0,1,.17-1.36,6.44,6.44,0,0,1,1.14-2.53,9.25,9.25,0,0,1,1.47-1.59c.4-.36.83-.69,1.25-1L81,12a.32.32,0,0,1,.4,0l.39.31c.39.34.8.66,1.17,1a8.35,8.35,0,0,1,1.72,2.28,6.26,6.26,0,0,1,.64,2.51C85.36,18.25,85.36,18.44,85.36,18.63Z"/><path class="cls-1" d="M95.05,5.44a11.68,11.68,0,0,0,.3,2.61,14.3,14.3,0,0,0,1.16,3.41c.12.26.26.51.39.77,0,0,0,.07,0,.1s0,0-.06,0a2.34,2.34,0,0,1-.27-.15c-.28-.22-.56-.43-.83-.66-.56-.49-1.13-1-1.65-1.51Q93,8.9,92,7.68a18.5,18.5,0,0,1-1.43-2.1,11.64,11.64,0,0,1-1.27-3.1c-.1-.42-.16-.85-.23-1.28a2.06,2.06,0,0,1,0-.43.27.27,0,0,1,.24-.25,1.53,1.53,0,0,1,.37,0c1,.14,2.09.28,3.14.44,1.55.22,3.1.52,4.64.85,1.21.27,2.43.53,3.62.88l.3.1a.21.21,0,0,1,.13.19,2.68,2.68,0,0,1-.07.8,20.28,20.28,0,0,1-1,3.34,31.12,31.12,0,0,1-2.5,5,1.37,1.37,0,0,1-.19.23,0,0,0,0,1-.06,0s-.07,0-.07-.08,0-.2,0-.3A15.67,15.67,0,0,0,98,8.64c0-.25,0-.5,0-.74s0-.29,0-.44A11.71,11.71,0,0,0,97.11,4a7,7,0,0,0-1-1.78L96,2.05a.2.2,0,0,0-.32,0,1.07,1.07,0,0,0-.1.22c-.09.26-.18.51-.25.77A8.31,8.31,0,0,0,95.05,5.44Z"/><path class="cls-1" d="M92.3,56.05A8.62,8.62,0,0,0,92,53.56a6.37,6.37,0,0,0-.55-1.45,3.45,3.45,0,0,0-.61-.86.78.78,0,0,0-.15-.1.16.16,0,0,0-.16.05.6.6,0,0,0-.06.11,5.87,5.87,0,0,0-.18,1.1A8.09,8.09,0,0,0,91,56a13,13,0,0,0,.72,1.45c0,.06,0,.16,0,.16h-.12a.39.39,0,0,1-.11-.06c-.24-.2-.5-.38-.72-.59-.46-.42-1-.79-1.39-1.25a12.1,12.1,0,0,1-2.16-3.09,6.93,6.93,0,0,1-.54-1.65,2,2,0,0,1-.07-.49c0-.52,0-1,0-1.55a5.18,5.18,0,0,1,.49-1.85,8.69,8.69,0,0,1,1-1.71c.3-.39.62-.77.93-1.16l.16-.19a.39.39,0,0,1,.45-.1,5.85,5.85,0,0,1,.56.28c.46.27.92.56,1.37.85a7.33,7.33,0,0,1,1.7,1.54,6,6,0,0,1,1.18,2.24,7.09,7.09,0,0,1,.26,1.83,9.83,9.83,0,0,1-.89,4.1c-.34.8-.77,1.55-1.17,2.33,0,.09-.09.19-.2.23a.11.11,0,0,1-.1,0,.47.47,0,0,1,0-.17C92.29,56.73,92.3,56.37,92.3,56.05Z"/><path class="cls-1" d="M130.37,32V30.77a2.75,2.75,0,0,1,0-.5,11.42,11.42,0,0,0,.09-1.55c0-.23,0-.45.06-.68s0-.29.05-.43a35.41,35.41,0,0,1,.61-4.11,28.61,28.61,0,0,1,1-3.65,4.77,4.77,0,0,1,.22-.52.22.22,0,0,1,.32-.07c.24.19.49.38.72.59.77.68,1.54,1.38,2.31,2.07.11.1.21.2.31.31l2.12,2.1c.11.12.23.24.33.37a.24.24,0,0,1,0,.33l-.09.09-1.39,1.33a18.52,18.52,0,0,0-3,4,26.84,26.84,0,0,0-2.23,5.06c-.23.68-.45,1.37-.63,2.08a1.91,1.91,0,0,1-.25.69.07.07,0,0,1-.11,0,.43.43,0,0,1-.11-.28c0-.33-.09-.66-.1-1,0-.72-.17-1.44-.17-2.17,0-.33,0-.66-.07-1s0-.37,0-.56V32Z"/><path class="cls-1" d="M30.5,32.16V34.4a8,8,0,0,1-.09,1.3,1.62,1.62,0,0,0,0,.31c0,.67-.13,1.32-.16,2a.53.53,0,0,1,0,.18.17.17,0,0,1-.09.08.1.1,0,0,1-.1,0,2.78,2.78,0,0,1-.16-.4c-.11-.36-.21-.72-.31-1.07a30.5,30.5,0,0,0-2.46-6,20.73,20.73,0,0,0-2.15-3.19,20.39,20.39,0,0,0-2.34-2.4L22.4,25a.24.24,0,0,1,0-.29,2.11,2.11,0,0,1,.19-.23c1.05-1,2.08-2.09,3.15-3.1.7-.67,1.45-1.3,2.18-1.94l.1-.08c.3-.24.45-.21.6.15a18.06,18.06,0,0,1,.77,2.36A23.39,23.39,0,0,1,30,24.49c.12.8.23,1.6.32,2.4s.08,1.41.19,2.11a4.22,4.22,0,0,1,0,.62l0,2.54Z"/><path class="cls-1" d="M159.14,62.71v.12c0,.07-.09.16-.16.15s-.2,0-.3-.08a16.21,16.21,0,0,0-5.45-1.08h-1.81c-.49,0-1,.06-1.48.11-.81.08-1.6.21-2.39.36a27.66,27.66,0,0,0-3.6,1c-.18,0-.35.13-.54.17s-.29.17-.45,0,.14-.24.25-.34c1-.89,2-1.78,3.08-2.6s2.46-1.82,3.76-2.64c.81-.51,1.63-1,2.46-1.45a25.62,25.62,0,0,1,3.84-1.76c.37-.14.47-.09.6.27.08.2.14.4.2.59q.69,2,1.23,4.11c.22.84.43,1.68.65,2.53C159.08,62.36,159.11,62.56,159.14,62.71Z"/><path class="cls-1" d="M1.78,62.73c0-.17.07-.35.12-.53.38-1.59.78-3.18,1.26-4.75.25-.83.53-1.65.8-2.48L4,54.8a.31.31,0,0,1,.45-.2l.52.2a31.35,31.35,0,0,1,3.32,1.56c1.21.67,2.4,1.38,3.56,2.16s2.5,1.77,3.69,2.74l2.19,1.83.13.13c.06.07.09.19.05.23a.17.17,0,0,1-.18,0l-.41-.13a31.2,31.2,0,0,0-4.75-1.21c-.47-.08-.95-.12-1.42-.19a23.3,23.3,0,0,0-4.09-.11,11.58,11.58,0,0,0-2.34.33,17.91,17.91,0,0,0-2.5.73,1.63,1.63,0,0,1-.3.07c-.05,0-.1-.06-.14-.1S1.79,62.79,1.78,62.73Z"/><path class="cls-1" d="M28.61,38.81l-.92-.2c-1.43-.34-2.85-.72-4.26-1.16a44.76,44.76,0,0,1-4.88-1.83A32.27,32.27,0,0,1,15.29,34a1.5,1.5,0,0,1-.25-.19.19.19,0,0,1,0-.23,3.3,3.3,0,0,1,.18-.32c.58-.76,1.14-1.53,1.73-2.28s1.38-1.7,2.08-2.55c.16-.19.35-.36.52-.53a.18.18,0,0,1,.23,0c.06.13.14.25.19.38a17.88,17.88,0,0,0,1.95,3.6A20.58,20.58,0,0,0,23.64,34c.53.56,1.08,1.09,1.63,1.62s1.05,1,1.59,1.39l1.84,1.48.1.08s.09.08.08.15S28.79,38.83,28.61,38.81Z"/><path class="cls-1" d="M132.21,38.86l-.12-.07a.17.17,0,0,1,0-.12l.18-.16,1-.77c.55-.44,1.1-.88,1.64-1.33.24-.2.45-.42.68-.64l.82-.76.14-.12c.71-.81,1.47-1.57,2.11-2.44a19.91,19.91,0,0,0,2.29-4,4.81,4.81,0,0,1,.25-.51.19.19,0,0,1,.27,0c.23.26.48.52.7.79,1,1.18,1.94,2.37,2.86,3.59l.77,1.06a2.34,2.34,0,0,1,.15.27.21.21,0,0,1-.06.22.58.58,0,0,1-.15.11,31.37,31.37,0,0,1-3.32,1.69,44.64,44.64,0,0,1-4.64,1.75c-1.74.56-3.5,1-5.27,1.45Z"/><path class="cls-1" d="M54,58.58a2.3,2.3,0,0,0,.19,1,5.52,5.52,0,0,0,1.24,1.92A10.24,10.24,0,0,0,57,62.74c.12.08.23.17.34.26s0,0,0,.06,0,0,0,0a3.89,3.89,0,0,1-.49,0,13.81,13.81,0,0,1-3.48-1.15,7.09,7.09,0,0,1-2.21-1.68,5.15,5.15,0,0,1-1-1.81,6.74,6.74,0,0,1-.3-1.84,9.07,9.07,0,0,1,.39-2.69.94.94,0,0,1,.1-.23.7.7,0,0,1,.19-.15.53.53,0,0,1,.18,0,7.41,7.41,0,0,1,3.57.63,5.63,5.63,0,0,1,2.6,2.41,7.57,7.57,0,0,1,.84,2.39,16.69,16.69,0,0,1,.22,1.73,6.27,6.27,0,0,1,0,1.73c0,.08-.05.16-.07.23a.1.1,0,0,1-.05,0H57.6a1.21,1.21,0,0,1-.14-.2c-.18-.35-.35-.71-.52-1.06a6.74,6.74,0,0,0-1-1.44,5,5,0,0,0-1.68-1.26,1.46,1.46,0,0,0-.3-.07Z"/><path class="cls-1" d="M41,55.44a5.78,5.78,0,0,1,3.23,1,11,11,0,0,1,2.33,2c.27.3.53.59.78.89a1.65,1.65,0,0,1,.2.31.06.06,0,0,1,0,.06s-.07.06-.1,0a2.46,2.46,0,0,1-.29-.09c-.41-.16-.81-.33-1.23-.46a7,7,0,0,0-2.44-.36,5.07,5.07,0,0,0-1.1.19l-.11,0s-.08.13,0,.17a.53.53,0,0,0,.11.15,3,3,0,0,0,.84.51,7.38,7.38,0,0,0,3.72.46,2.8,2.8,0,0,1,.5,0s.07,0,.07.07a.13.13,0,0,1,0,.11.73.73,0,0,1-.09.08,13.43,13.43,0,0,1-3.27,1.49c-.35.1-.72.16-1.09.23s-.45.06-.68.08a2.08,2.08,0,0,1-.43,0,5.53,5.53,0,0,1-4.27-2,13.78,13.78,0,0,1-1.47-2.22.87.87,0,0,1-.07-.17.28.28,0,0,1,.05-.29,3,3,0,0,1,.35-.36,14.54,14.54,0,0,1,1.33-1,6,6,0,0,1,2.3-.9A7,7,0,0,1,41,55.44Z"/><path class="cls-1" d="M120.35,55.46a5.79,5.79,0,0,1,3.28.94,11.56,11.56,0,0,1,1.56,1.23.53.53,0,0,1,.12.14.31.31,0,0,1,0,.29,3.27,3.27,0,0,1-.22.51c-.15.27-.32.54-.48.8A7.63,7.63,0,0,1,123.28,61a4.9,4.9,0,0,1-2.71,1.28l-.68.09a3.1,3.1,0,0,1-.43,0,9.88,9.88,0,0,1-2.68-.53A19.43,19.43,0,0,1,114,60.54a.24.24,0,0,1-.08-.09.06.06,0,0,1,0-.06l0,0a.79.79,0,0,1,.43,0,5.18,5.18,0,0,0,1.36.07,10.15,10.15,0,0,0,1.9-.29,4.45,4.45,0,0,0,1.35-.61,1.53,1.53,0,0,0,.18-.18.17.17,0,0,0,0-.22.91.91,0,0,0-.22-.11,5.24,5.24,0,0,0-2.16-.1,8.48,8.48,0,0,0-2.81.94s-.08,0-.1,0a.06.06,0,0,1,0-.06l.06-.11a.91.91,0,0,1,.11-.16,18.9,18.9,0,0,1,2.06-2.23,7.35,7.35,0,0,1,2.25-1.41A4.82,4.82,0,0,1,120.35,55.46Z"/><path class="cls-1" d="M104.48,61.11c0-.23,0-.45,0-.68a8.79,8.79,0,0,1,.5-2.74,5.92,5.92,0,0,1,.71-1.45,5.61,5.61,0,0,1,2.07-1.92,6.93,6.93,0,0,1,2.24-.73,8.42,8.42,0,0,1,1.42-.12h.31a.41.41,0,0,1,.38.28,2.46,2.46,0,0,1,.09.29,8.47,8.47,0,0,1,.28,1.66c0,.12,0,.24,0,.37a2.39,2.39,0,0,1,0,.8c-.06.35-.06.7-.15,1a5.49,5.49,0,0,1-2,3.08,8.56,8.56,0,0,1-2.33,1.29,16.68,16.68,0,0,1-2.8.82h-.18s0,0,0,0,0-.09,0-.11.25-.21.39-.31a8.7,8.7,0,0,0,1.47-1.24A5.4,5.4,0,0,0,108.23,59a1.9,1.9,0,0,0,0-.25.16.16,0,0,0-.12-.12,1,1,0,0,0-.18,0,4.54,4.54,0,0,0-1.6,1.17,7.77,7.77,0,0,0-.61.78A6.2,6.2,0,0,0,105,62c-.08.21-.18.41-.28.62,0,0-.07.05-.1.05a.14.14,0,0,1-.09-.08,1.45,1.45,0,0,1-.06-.3c0-.39,0-.79,0-1.18Z"/><path class="cls-1" d="M88.44,14.31c0-.43,0-.87,0-1.3A5.31,5.31,0,0,0,88,11a2,2,0,0,0-.33-.53c-.11-.11-.25-.1-.3,0a.14.14,0,0,0,0,.06,6.25,6.25,0,0,0-.17.72,5.36,5.36,0,0,0,0,1.55,7.57,7.57,0,0,0,.75,2.36c0,.08,0,.16,0,.17l-.17,0-.06,0,0,0a10.89,10.89,0,0,1-2.86-3.15,5.84,5.84,0,0,1-.66-1.74,5.27,5.27,0,0,1,.73-3.93,12.44,12.44,0,0,1,1.22-1.57.42.42,0,0,1,.19-.16.58.58,0,0,1,.23,0,.28.28,0,0,1,.12,0l.92.51a7,7,0,0,1,1.62,1.35,4.76,4.76,0,0,1,1.19,2.49c0,.22.06.45.08.68a3.37,3.37,0,0,1,0,.55,9.06,9.06,0,0,1-.67,2.77,20.8,20.8,0,0,1-1,2,2.86,2.86,0,0,1-.22.3s-.07,0-.11,0,0,0,0,0c0-.33.06-.66.08-1Z"/><path class="cls-1" d="M44.68,12.73a10.39,10.39,0,0,1-.09,1.37,1.53,1.53,0,0,0,0,.37,19.8,19.8,0,0,1-.17,2c0,.52-.14,1-.22,1.54-.2,1.2-.42,2.4-.72,3.59a2.33,2.33,0,0,1-.11.28s-.07,0-.11,0a.08.08,0,0,1,0,0,6.77,6.77,0,0,1-.15-.73,24.14,24.14,0,0,0-.64-3,18.67,18.67,0,0,0-1.3-3.48,14.87,14.87,0,0,0-1.66-2.62l-.12-.14c-.32-.41-.31-.47.15-.75s.75-.45,1.13-.66l1.69-.93L43.39,9c.18-.09.37-.19.56-.27s.31,0,.36.2a3.15,3.15,0,0,1,.09.42c.05.31.1.62.13.93C44.59,11.08,44.63,11.91,44.68,12.73Z"/><path class="cls-1" d="M116.86,8.76s.09,0,.13,0l.4.16c.89.44,1.76.93,2.62,1.41.47.27.94.53,1.4.81a2.22,2.22,0,0,1,.35.25.21.21,0,0,1,0,.23,2.33,2.33,0,0,1-.17.26,14.26,14.26,0,0,0-1.71,2.58,12.56,12.56,0,0,0-.78,1.76,22.41,22.41,0,0,0-1.08,4c-.09.51-.17,1-.25,1.53a.88.88,0,0,1-.07.23s0,0,0,0-.1,0-.11,0a1.45,1.45,0,0,1-.11-.29,28.24,28.24,0,0,1-.83-4.07l-.21-1.66c0-.13,0-.25,0-.38,0-.51-.05-1-.09-1.55a8.82,8.82,0,0,1,0-1.92c0-.12,0-.24,0-.37a15.52,15.52,0,0,1,.15-1.92c0-.26.09-.53.14-.79a.3.3,0,0,1,.08-.16S116.83,8.78,116.86,8.76Z"/><path class="cls-1" d="M118.74,22.34s0,0,0,0a.21.21,0,0,1,0-.11.81.81,0,0,1,.12-.14,20.61,20.61,0,0,0,4-5,13.66,13.66,0,0,0,1.43-3.36,2.58,2.58,0,0,1,.18-.46.19.19,0,0,1,.22-.08l.17.07.41.27c1.2.79,2.35,1.63,3.51,2.47a3.7,3.7,0,0,1,.42.37.26.26,0,0,1,0,.43,17.39,17.39,0,0,1-1.42,1.11,31.45,31.45,0,0,1-3.78,2.26c-1.56.79-3.15,1.49-4.77,2.13l-.29.09S118.76,22.34,118.74,22.34Z"/><path class="cls-1" d="M36.48,13.13s.08,0,.1.06a.44.44,0,0,1,.1.16c0,.16.09.32.13.48a11.55,11.55,0,0,0,.66,1.87A17.12,17.12,0,0,0,40,19.62c.69.82,1.4,1.63,2.16,2.4a1.49,1.49,0,0,1,.15.2,0,0,0,0,1,0,.05s-.07.07-.1.06a1.38,1.38,0,0,1-.29-.08c-1.08-.43-2.16-.86-3.21-1.34a35.73,35.73,0,0,1-3.52-1.85A22.88,22.88,0,0,1,32,16.82a1.52,1.52,0,0,1-.22-.22.21.21,0,0,1,0-.23,1.6,1.6,0,0,1,.27-.25c.32-.26.66-.5,1-.75,1-.72,2-1.41,3-2.08a2.34,2.34,0,0,1,.27-.15Z"/><path class="cls-1" d="M68.83,1.24A9.21,9.21,0,0,1,68.5,2.7a12.2,12.2,0,0,1-2.06,3.8,19.6,19.6,0,0,1-2.15,2.4c-.46.44-.94.87-1.42,1.29a.17.17,0,0,1-.12,0s-.07-.09,0-.15,0-.08,0-.12a2.44,2.44,0,0,0,.14-.28A14.12,14.12,0,0,0,64.11,6a11.68,11.68,0,0,0,.18-1.67,8.64,8.64,0,0,0-.2-1.9c0-.17-.07-.33-.1-.49a.27.27,0,0,1,.17-.3l.36-.1c1.27-.27,2.56-.47,3.84-.69h.25a.22.22,0,0,1,.22.25Z"/><path class="cls-1" d="M63.12,1.91s.09.1.07.14a1.57,1.57,0,0,1-.09.23A9.06,9.06,0,0,0,62,5.6a16.05,16.05,0,0,0-.09,3.1c0,.33.09.65.13,1a1,1,0,0,1,0,.24S62,10,62,10h-.12a.38.38,0,0,1-.09-.09,29.36,29.36,0,0,1-2-3.44,13,13,0,0,1-.94-2.57c0-.14-.07-.28-.09-.42-.06-.32,0-.48.32-.57l.48-.13,2.65-.66.73-.17A1.33,1.33,0,0,1,63.12,1.91Z"/><path class="cls-1" d="M111.3,8.63s-.1,0-.12,0a.31.31,0,0,1-.15-.1,26.79,26.79,0,0,1-2.29-3.14.61.61,0,0,1,0-.12s0-.14.1-.13h.12l1.39.53a.5.5,0,0,1,.3.37l0,.12a16.74,16.74,0,0,0,.63,2.2A.85.85,0,0,1,111.3,8.63Z"/><path class="cls-1" d="M49.63,8.56c.11-.37.23-.75.33-1.12s.2-.76.29-1.14l.06-.24a.5.5,0,0,1,.27-.33l.11-.05,1.15-.46a.93.93,0,0,1,.24,0c.05,0,.12.09.1.14a2,2,0,0,1-.09.22,24.82,24.82,0,0,1-1.57,2.23c-.24.31-.5.6-.75.9,0,0-.07,0-.11,0s0,0,0,0Z"/><path class="cls-1" d="M48.93,8.41s-.08.05-.1.05a.53.53,0,0,1-.17-.08l-.31-.31-.57-.65a.39.39,0,0,0-.08-.1c-.14-.18-.1-.33.12-.44L48,6.8c.28-.11.42,0,.52.25s.28.82.41,1.23A.28.28,0,0,1,48.93,8.41Z"/><path class="cls-1" d="M112,8.29c.15-.46.3-.91.46-1.36a.26.26,0,0,1,.35-.16l.34.14a.26.26,0,0,1,.09.38.61.61,0,0,1-.07.1,8.66,8.66,0,0,1-1,1s-.08,0-.12,0S112,8.35,112,8.29Z"/><path class="cls-1" d="M51.26,31h0Z"/><path class="cls-1" d="M104.5,54.85h0Z"/></svg>