<svg xmlns="http://www.w3.org/2000/svg" width="334.794" height="295.313" viewBox="0 0 334.794 295.313">
  <g id="Grupo_4841" data-name="Grupo 4841" transform="translate(-14.218 -90.58)">
    <g id="Capa_2" data-name="Capa 2" transform="translate(3640.902 -2942.514) rotate(90)">
      <g id="Grupo_3049" data-name="Grupo 3049" transform="translate(3275.753 3291.89)">
        <path id="Trazado_8162" data-name="Trazado 8162" d="M3797.644,3364.447c0-1.44-1.437-2.2-2.641-2.564-1.4-.429-2.159,1.08-2.159,2.27a3.287,3.287,0,0,0,2.411,2.756,1.148,1.148,0,0,0,1.571-.407l.019-.034A4.742,4.742,0,0,0,3797.644,3364.447Z" transform="translate(-3792.843 -3339.477)" fill="#28dfe8"/>
        <path id="Trazado_8163" data-name="Trazado 8163" d="M3824.337,3355.972a2.6,2.6,0,0,0,.505,1.659,7.32,7.32,0,0,0,1.549,1.079,1.675,1.675,0,0,0,1.631.219c.552-.232.5-1,.576-1.485a2.723,2.723,0,0,0-.313-1.946,3.365,3.365,0,0,0-1.446-1.091,2.1,2.1,0,0,0-1.722-.083A1.731,1.731,0,0,0,3824.337,3355.972Z" transform="translate(-3814.271 -3334.284)" fill="#28dfe8"/>
        <path id="Trazado_8164" data-name="Trazado 8164" d="M3830.4,3291.912c-.7.073-1.052.108-1.35.8a3.583,3.583,0,0,0-.232,1.835,2.293,2.293,0,0,0,.784,1.558,1.445,1.445,0,0,0,1.551.321,3.148,3.148,0,0,0,1.659-2.732A2.137,2.137,0,0,0,3830.4,3291.912Z" transform="translate(-3817.307 -3291.89)" fill="#28dfe8"/>
        <path id="Trazado_8165" data-name="Trazado 8165" d="M3796.39,3336.474c1.367.151,1.914-1.08,1.647-2.273-.208-.935-.488-2.642-1.9-2.212-.569.173-.944.761-1.382,1.128a1.486,1.486,0,0,0-.675,1.307,2.366,2.366,0,0,0,.727,1.529A2.448,2.448,0,0,0,3796.39,3336.474Z" transform="translate(-3793.685 -3319.135)" fill="#28dfe8"/>
        <path id="Trazado_8166" data-name="Trazado 8166" d="M3841.913,3330.429a2.217,2.217,0,0,0,.888,1.441,1.483,1.483,0,0,0,1.525.39,1.964,1.964,0,0,0,1.195-2.465,1.819,1.819,0,0,0-1.96-1.664h-.009c-.54.055-.866.54-1.179.945A2.094,2.094,0,0,0,3841.913,3330.429Z" transform="translate(-3826.24 -3316.552)" fill="#28dfe8"/>
        <path id="Trazado_8167" data-name="Trazado 8167" d="M3795.018,3309.42a1.826,1.826,0,0,0,1.447,1.83c1,.225,1.7-.79,1.919-1.652a1.47,1.47,0,0,0-1.471-1.786,1.66,1.66,0,0,0-1.878,1.408A1.6,1.6,0,0,0,3795.018,3309.42Z" transform="translate(-3794.323 -3302.715)" fill="#28dfe8"/>
        <path id="Trazado_8168" data-name="Trazado 8168" d="M3822.254,3334.94c-.764-.146-1.273-.512-1.956.182a1.314,1.314,0,0,0-.158,1.851c.027.032.056.063.086.093a1.524,1.524,0,0,0,1.942.155,1.187,1.187,0,0,0,.506-.906C3822.722,3335.962,3822.659,3335.017,3822.254,3334.94Z" transform="translate(-3811.211 -3321.036)" fill="#28dfe8"/>
        <path id="Trazado_8169" data-name="Trazado 8169" d="M3817.606,3321.3a2.123,2.123,0,0,0,1.308.371,1.421,1.421,0,0,0,.826-.562,1.853,1.853,0,0,0-.1-1.956c-.221-.322-.442-.579-.917-.467a1.772,1.772,0,0,0-.893.554C3817.275,3319.863,3816.929,3320.768,3817.606,3321.3Z" transform="translate(-3809.442 -3310.112)" fill="#28dfe8"/>
      </g>
      <g id="Grupo_3050" data-name="Grupo 3050" transform="translate(3151.607 3494.39)">
        <path id="Trazado_8170" data-name="Trazado 8170" d="M3408.949,3998.464c0-1.438-1.437-2.2-2.64-2.564-1.4-.429-2.16,1.08-2.16,2.271a3.288,3.288,0,0,0,2.413,2.756,1.146,1.146,0,0,0,1.569-.4l.021-.037A4.746,4.746,0,0,0,3408.949,3998.464Z" transform="translate(-3404.149 -3973.493)" fill="#28dfe8"/>
        <path id="Trazado_8171" data-name="Trazado 8171" d="M3435.641,3989.99a2.592,2.592,0,0,0,.5,1.658,7.333,7.333,0,0,0,1.549,1.08,1.674,1.674,0,0,0,1.632.219c.553-.232.5-1,.577-1.484a2.725,2.725,0,0,0-.312-1.947,3.374,3.374,0,0,0-1.447-1.092,2.106,2.106,0,0,0-1.722-.083A1.732,1.732,0,0,0,3435.641,3989.99Z" transform="translate(-3425.575 -3968.3)" fill="#28dfe8"/>
        <path id="Trazado_8172" data-name="Trazado 8172" d="M3441.706,3925.925c-.7.073-1.052.108-1.35.8a3.588,3.588,0,0,0-.232,1.835,2.3,2.3,0,0,0,.784,1.557,1.446,1.446,0,0,0,1.551.322,3.148,3.148,0,0,0,1.659-2.732A2.136,2.136,0,0,0,3441.706,3925.925Z" transform="translate(-3428.612 -3925.903)" fill="#28dfe8"/>
        <path id="Trazado_8173" data-name="Trazado 8173" d="M3407.693,3970.487c1.367.151,1.914-1.08,1.647-2.273-.208-.935-.488-2.641-1.9-2.212-.57.174-.945.763-1.382,1.128a1.485,1.485,0,0,0-.675,1.306,2.367,2.367,0,0,0,.728,1.529A2.442,2.442,0,0,0,3407.693,3970.487Z" transform="translate(-3404.99 -3953.148)" fill="#28dfe8"/>
        <path id="Trazado_8174" data-name="Trazado 8174" d="M3453.228,3964.45a2.216,2.216,0,0,0,.888,1.443,1.485,1.485,0,0,0,1.526.39,1.964,1.964,0,0,0,1.194-2.464,1.818,1.818,0,0,0-1.96-1.663h-.009c-.54.055-.867.54-1.178.945A2.093,2.093,0,0,0,3453.228,3964.45Z" transform="translate(-3437.552 -3950.573)" fill="#28dfe8"/>
        <path id="Trazado_8175" data-name="Trazado 8175" d="M3406.308,3943.423a1.828,1.828,0,0,0,1.447,1.83c1,.226,1.7-.79,1.919-1.652a1.47,1.47,0,0,0-1.117-1.752,1.412,1.412,0,0,0-.354-.034,1.659,1.659,0,0,0-1.878,1.408A1.784,1.784,0,0,0,3406.308,3943.423Z" transform="translate(-3405.618 -3936.721)" fill="#28dfe8"/>
        <path id="Trazado_8176" data-name="Trazado 8176" d="M3433.542,3968.963c-.762-.146-1.271-.511-1.955.184a1.312,1.312,0,0,0-.16,1.848,1.258,1.258,0,0,0,.089.1,1.524,1.524,0,0,0,1.942.155,1.189,1.189,0,0,0,.506-.906C3434.015,3969.985,3433.946,3969.041,3433.542,3968.963Z" transform="translate(-3422.505 -3955.056)" fill="#28dfe8"/>
        <path id="Trazado_8177" data-name="Trazado 8177" d="M3428.909,3955.323a2.118,2.118,0,0,0,1.306.371,1.431,1.431,0,0,0,.826-.561,1.854,1.854,0,0,0-.1-1.955c-.222-.323-.443-.579-.917-.467a1.773,1.773,0,0,0-.893.555C3428.576,3953.883,3428.231,3954.789,3428.909,3955.323Z" transform="translate(-3420.747 -3944.131)" fill="#28dfe8"/>
      </g>
      <g id="Grupo_3050-2" data-name="Grupo 3050" transform="translate(3259.316 3563.473)">
        <path id="Trazado_8170-2" data-name="Trazado 8170" d="M3746.178,4214.756c0-1.439-1.437-2.2-2.64-2.564-1.4-.429-2.159,1.079-2.159,2.271a3.288,3.288,0,0,0,2.413,2.756,1.145,1.145,0,0,0,1.569-.4c.007-.012.014-.025.021-.037A4.744,4.744,0,0,0,3746.178,4214.756Z" transform="translate(-3741.379 -4189.785)" fill="#28dfe8"/>
        <path id="Trazado_8171-2" data-name="Trazado 8171" d="M3772.87,4206.281a2.588,2.588,0,0,0,.505,1.659,7.276,7.276,0,0,0,1.549,1.08,1.676,1.676,0,0,0,1.632.219c.553-.232.5-1,.576-1.485a2.721,2.721,0,0,0-.312-1.946,3.377,3.377,0,0,0-1.447-1.092,2.107,2.107,0,0,0-1.722-.082A1.732,1.732,0,0,0,3772.87,4206.281Z" transform="translate(-3762.805 -4184.592)" fill="#28dfe8"/>
        <path id="Trazado_8172-2" data-name="Trazado 8172" d="M3778.935,4142.218c-.7.073-1.052.107-1.349.8a3.586,3.586,0,0,0-.232,1.835,2.3,2.3,0,0,0,.784,1.558,1.447,1.447,0,0,0,1.551.321,3.15,3.15,0,0,0,1.659-2.732A2.136,2.136,0,0,0,3778.935,4142.218Z" transform="translate(-3765.841 -4142.196)" fill="#28dfe8"/>
        <path id="Trazado_8173-2" data-name="Trazado 8173" d="M3744.922,4186.778c1.367.151,1.914-1.079,1.646-2.272-.208-.936-.487-2.641-1.9-2.212-.57.174-.945.763-1.382,1.129a1.483,1.483,0,0,0-.675,1.306,2.37,2.37,0,0,0,.728,1.529A2.436,2.436,0,0,0,3744.922,4186.778Z" transform="translate(-3742.219 -4169.44)" fill="#28dfe8"/>
        <path id="Trazado_8174-2" data-name="Trazado 8174" d="M3790.457,4180.742a2.214,2.214,0,0,0,.888,1.443,1.484,1.484,0,0,0,1.525.391,1.964,1.964,0,0,0,1.194-2.464,1.819,1.819,0,0,0-1.96-1.664h-.009c-.54.057-.866.541-1.178.945A2.1,2.1,0,0,0,3790.457,4180.742Z" transform="translate(-3774.782 -4166.865)" fill="#28dfe8"/>
        <path id="Trazado_8175-2" data-name="Trazado 8175" d="M3743.538,4159.716a1.828,1.828,0,0,0,1.446,1.83c1,.225,1.7-.79,1.919-1.652a1.469,1.469,0,0,0-1.117-1.752,1.44,1.44,0,0,0-.354-.034,1.66,1.66,0,0,0-1.878,1.408A1.5,1.5,0,0,0,3743.538,4159.716Z" transform="translate(-3742.848 -4153.013)" fill="#28dfe8"/>
        <path id="Trazado_8176-2" data-name="Trazado 8176" d="M3770.772,4185.257c-.763-.146-1.271-.512-1.956.183a1.312,1.312,0,0,0-.16,1.849c.028.032.057.064.088.094a1.523,1.523,0,0,0,1.942.155,1.187,1.187,0,0,0,.506-.906C3771.244,4186.278,3771.175,4185.333,3770.772,4185.257Z" transform="translate(-3759.735 -4171.349)" fill="#28dfe8"/>
        <path id="Trazado_8177-2" data-name="Trazado 8177" d="M3766.138,4171.616a2.119,2.119,0,0,0,1.307.371,1.418,1.418,0,0,0,.826-.561,1.849,1.849,0,0,0-.1-1.954c-.221-.324-.443-.58-.916-.468a1.777,1.777,0,0,0-.894.555C3765.806,4170.176,3765.46,4171.083,3766.138,4171.616Z" transform="translate(-3757.975 -4160.424)" fill="#28dfe8"/>
      </g>
      <path id="Trazado_8178" data-name="Trazado 8178" d="M3749.328,3456.426l-1.053-2.141a.827.827,0,0,0-1.107-.378h0l-2.139,1.053a.827.827,0,0,1-1.108-.376h0a.829.829,0,0,1,.378-1.109l2.141-1.053a.827.827,0,0,0,.379-1.107h0l-1.053-2.14a.828.828,0,0,1,.377-1.108h0a.828.828,0,0,1,1.108.377h0l1.053,2.139a.827.827,0,0,0,1.107.378h0l2.14-1.052a.828.828,0,0,1,1.108.376h0a.827.827,0,0,1-.378,1.108l-2.139,1.053a.827.827,0,0,0-.378,1.107h0l1.053,2.141a.828.828,0,0,1-.377,1.108h0a.828.828,0,0,1-1.109-.374Z" transform="translate(-483.734 -106.235)" fill="#28dfe8"/>
      <path id="Trazado_8179" data-name="Trazado 8179" d="M3906.646,3519.607l3.065.549a1.08,1.08,0,0,0,1.253-.872v0l.549-3.064a1.08,1.08,0,0,1,1.253-.873h0a1.08,1.08,0,0,1,.873,1.252h0l-.549,3.064a1.078,1.078,0,0,0,.877,1.248l3.064.55a1.08,1.08,0,0,1,.874,1.252h0a1.08,1.08,0,0,1-1.253.873h0l-3.064-.549a1.079,1.079,0,0,0-1.254.87v0l-.549,3.064a1.08,1.08,0,0,1-1.253.873h0a1.079,1.079,0,0,1-.875-1.251v0l.549-3.065a1.081,1.081,0,0,0-.872-1.254h0l-3.065-.549a1.08,1.08,0,0,1-.874-1.252h0A1.08,1.08,0,0,1,3906.646,3519.607Z" transform="translate(-593.68 -152.073)" fill="#ff5167"/>
      <path id="Trazado_8180" data-name="Trazado 8180" d="M3269.776,3645.285l.158,3.1a1.08,1.08,0,0,0,1.132,1.025h0l3.1-.158a1.08,1.08,0,0,1,1.134,1.023h0a1.08,1.08,0,0,1-1.021,1.135h0l-3.1.158a1.079,1.079,0,0,0-1.024,1.132v0l.158,3.1a1.08,1.08,0,0,1-1.023,1.134h0a1.08,1.08,0,0,1-1.135-1.022v0l-.158-3.1a1.08,1.08,0,0,0-1.132-1.024h0l-3.1.158a1.079,1.079,0,0,1-1.134-1.023h0a1.079,1.079,0,0,1,1.023-1.134h0l3.1-.158a1.08,1.08,0,0,0,1.024-1.132v0l-.158-3.1a1.08,1.08,0,0,1,1.022-1.135h0a1.08,1.08,0,0,1,1.135,1.022Z" transform="translate(-156.217 -239.824)" fill="#28dfe8"/>
      <path id="Trazado_8180-2" data-name="Trazado 8180" d="M3501.644,3659.878l.158,3.1a1.08,1.08,0,0,0,1.132,1.025h0l3.1-.158a1.08,1.08,0,0,1,1.134,1.023v0h0a1.08,1.08,0,0,1-1.022,1.135h0l-3.1.157a1.08,1.08,0,0,0-1.024,1.132v0l.158,3.1a1.079,1.079,0,0,1-1.022,1.134h0a1.08,1.08,0,0,1-1.135-1.022v0l-.158-3.1a1.079,1.079,0,0,0-1.132-1.024h0l-3.1.158a1.08,1.08,0,0,1-1.134-1.023v0h0a1.08,1.08,0,0,1,1.023-1.134h0l3.1-.158a1.08,1.08,0,0,0,1.025-1.132v0l-.157-3.1a1.08,1.08,0,0,1,1.021-1.135h0a1.08,1.08,0,0,1,1.135,1.021Z" transform="translate(-314.028 -249.756)" fill="#28dfe8"/>
      <path id="Trazado_8181" data-name="Trazado 8181" d="M3330.032,4310.948l-2.218,2.186a1.08,1.08,0,0,0-.012,1.527l0,0,2.185,2.217a1.081,1.081,0,0,1-.009,1.527l0,0h0a1.08,1.08,0,0,1-1.527-.009l0,0-2.186-2.218a1.081,1.081,0,0,0-1.527-.012l0,0-2.218,2.187a1.08,1.08,0,0,1-1.527-.009l0,0h0a1.081,1.081,0,0,1,.008-1.527l0,0,2.217-2.186a1.08,1.08,0,0,0,.013-1.527l0,0-2.185-2.217a1.08,1.08,0,0,1,.008-1.527l0,0h0a1.08,1.08,0,0,1,1.527.008l0,0,2.185,2.217a1.08,1.08,0,0,0,1.527.014l0,0,2.218-2.187a1.08,1.08,0,0,1,1.527.008l0,0h0a1.08,1.08,0,0,1-.006,1.527Z" transform="translate(-195.73 -692.279)" fill="#ff5167"/>
      <path id="Trazado_8182" data-name="Trazado 8182" d="M3065.177,3306.235l-2.877,1.189a1.08,1.08,0,0,0-.586,1.41v0l1.189,2.877a1.079,1.079,0,0,1-.583,1.41h0a1.08,1.08,0,0,1-1.411-.584v0l-1.189-2.877a1.08,1.08,0,0,0-1.41-.587h0l-2.877,1.189a1.08,1.08,0,0,1-1.411-.583v0h0a1.08,1.08,0,0,1,.584-1.411h0l2.878-1.189a1.08,1.08,0,0,0,.586-1.409v0l-1.189-2.877a1.08,1.08,0,0,1,.584-1.411h0a1.08,1.08,0,0,1,1.411.584v0l1.189,2.877a1.08,1.08,0,0,0,1.41.587h0l2.877-1.189a1.08,1.08,0,0,1,1.411.584v0h0a1.079,1.079,0,0,1-.583,1.411Z" transform="translate(-14.183 -6.401)" fill="#ff5167"/>
      <path id="Trazado_8182-2" data-name="Trazado 8182" d="M3897.972,3875.5l-2.877,1.189a1.08,1.08,0,0,0-.587,1.41v0l1.189,2.877a1.08,1.08,0,0,1-.584,1.411h0a1.08,1.08,0,0,1-1.411-.584v0l-1.189-2.877a1.08,1.08,0,0,0-1.41-.586h0l-2.877,1.189a1.08,1.08,0,0,1-1.411-.584v0h0a1.079,1.079,0,0,1,.584-1.411h0l2.877-1.188a1.08,1.08,0,0,0,.587-1.41v0l-1.188-2.877a1.08,1.08,0,0,1,.583-1.411h0a1.079,1.079,0,0,1,1.41.583v0l1.189,2.877a1.079,1.079,0,0,0,1.409.586h0l2.877-1.189a1.081,1.081,0,0,1,1.411.583v0h0a1.08,1.08,0,0,1-.584,1.411Z" transform="translate(-580.989 -393.849)" fill="#ff5167"/>
      <path id="Trazado_8182-3" data-name="Trazado 8182" d="M3897.972,3875.5l-2.877,1.189a1.08,1.08,0,0,0-.587,1.41v0l1.189,2.877a1.08,1.08,0,0,1-.584,1.411h0a1.08,1.08,0,0,1-1.411-.584v0l-1.189-2.877a1.08,1.08,0,0,0-1.41-.586h0l-2.877,1.189a1.08,1.08,0,0,1-1.411-.584v0h0a1.079,1.079,0,0,1,.584-1.411h0l2.877-1.188a1.08,1.08,0,0,0,.587-1.41v0l-1.188-2.877a1.08,1.08,0,0,1,.583-1.411h0a1.079,1.079,0,0,1,1.41.583v0l1.189,2.877a1.079,1.079,0,0,0,1.409.586h0l2.877-1.189a1.081,1.081,0,0,1,1.411.583v0h0a1.08,1.08,0,0,1-.584,1.411Z" transform="translate(-668.424 -255.793)" fill="#ff5167"/>
      <path id="Trazado_8451" data-name="Trazado 8451" d="M3407.444,3711.885l-2.877,1.188a1.08,1.08,0,0,0-.587,1.41v0l1.189,2.877a1.079,1.079,0,0,1-.583,1.411h0a1.08,1.08,0,0,1-1.411-.584v0l-1.189-2.878a1.079,1.079,0,0,0-1.41-.586h0l-2.877,1.189a1.079,1.079,0,0,1-1.411-.584h0a1.08,1.08,0,0,1,.584-1.411h0l2.878-1.189a1.08,1.08,0,0,0,.586-1.41v0l-1.189-2.877a1.08,1.08,0,0,1,.584-1.411h0a1.08,1.08,0,0,1,1.411.584h0l1.189,2.878a1.08,1.08,0,0,0,1.41.587h0l2.877-1.189a1.08,1.08,0,0,1,1.411.584v0h0a1.08,1.08,0,0,1-.584,1.411Z" transform="translate(-247.132 -282.489)" fill="#ff5167"/>
      <path id="Trazado_8183" data-name="Trazado 8183" d="M3625.928,3929.13l-1.89,2.477a1.08,1.08,0,0,0,.2,1.513h0l2.478,1.889a1.08,1.08,0,0,1,.206,1.513h0a1.081,1.081,0,0,1-1.513.206h0l-2.478-1.889a1.08,1.08,0,0,0-1.513.2h0l-1.89,2.478a1.079,1.079,0,0,1-1.513.207h0a1.08,1.08,0,0,1-.208-1.513h0l1.89-2.478a1.079,1.079,0,0,0-.205-1.513h0l-2.478-1.89a1.079,1.079,0,0,1-.206-1.512h0a1.079,1.079,0,0,1,1.513-.206h0l2.478,1.889a1.079,1.079,0,0,0,1.513-.2h0l1.89-2.478a1.08,1.08,0,0,1,1.513-.206h0a1.08,1.08,0,0,1,.208,1.513Z" transform="translate(-397.13 -432.528)" fill="#ff5167"/>
      <path id="Trazado_8184" data-name="Trazado 8184" d="M3170.22,3990.871l-2.768-.526-.526,2.768-.559,2.944-5.713-1.08-.526,2.768h0l-.559,2.943-2.944-.559-2.768-.526-.526,2.768h0l-.558,2.943-8.656-1.645.56-2.943,5.713,1.08.526-2.768.559-2.945,5.713,1.08.526-2.768h0l.559-2.944,5.713,1.08.526-2.768.559-2.945,5.713,1.08,2.943.559-.559,2.943Z" transform="translate(-75.562 -472.978)" fill="#ff5167"/>
      <path id="Trazado_8185" data-name="Trazado 8185" d="M3714.526,3653.321l-1.35-1.119-1.119,1.35-1.189,1.433-2.781-2.306-1.118,1.35h0l-1.189,1.433-1.433-1.189-1.35-1.119-1.117,1.35h0l-1.189,1.433-4.215-3.5,1.189-1.433,2.782,2.307,1.118-1.349,1.189-1.434,2.782,2.308,1.119-1.35h0l1.189-1.433,2.781,2.306,1.119-1.349,1.189-1.433,2.788,2.308,1.434,1.189-1.189,1.433Z" transform="translate(-451.502 -243.446)" fill="#ff5167"/>
      <path id="Trazado_8186" data-name="Trazado 8186" d="M3633.094,3328.091l-.482,2.776,2.776.482,2.953.513-.995,5.729,2.776.481h0l2.953.513-.513,2.953-.481,2.776,2.776.482h0l2.953.513-1.508,8.682-2.953-.513.994-5.729-2.776-.482-2.953-.513,1-5.729-2.776-.482h0l-2.953-.513.995-5.729-2.776-.482-2.953-.512.995-5.729.513-2.953,2.953.513Z" transform="translate(-405.676 -22.279)" fill="#ff5167"/>
      <path id="Trazado_8450" data-name="Trazado 8450" d="M3397.547,3569.616l-2.807.253.254,2.808.269,2.985-5.792.523.254,2.806h0l.269,2.985-2.986.269-2.806.253.253,2.807h0l.27,2.985-8.777.792-.269-2.986,5.792-.523-.254-2.807-.269-2.985,5.792-.523-.254-2.807h0l-.269-2.985,5.792-.524-.253-2.806-.269-2.985,5.792-.523,2.986-.269.27,2.985Z" transform="translate(-233.165 -186.807)" fill="#ff5167"/>
      <g id="Grupo_3057" data-name="Grupo 3057" transform="translate(3033.094 3458.42)">
        <g id="Grupo_3051" data-name="Grupo 3051" transform="translate(16.806 3.354)">
          <path id="Trazado_8187" data-name="Trazado 8187" d="M3086.154,3827.063l4.96-3.146c.953-.6,1.688,1,.741,1.6l-4.959,3.146C3085.942,3829.266,3085.208,3827.664,3086.154,3827.063Z" transform="translate(-3085.714 -3823.783)" fill="#28dfe8"/>
        </g>
        <g id="Grupo_3052" data-name="Grupo 3052" transform="translate(0 14.38)">
          <path id="Trazado_8188" data-name="Trazado 8188" d="M3033.534,3861.586l4.96-3.146c.953-.6,1.687,1,.741,1.6l-4.96,3.146C3033.323,3863.789,3032.588,3862.187,3033.534,3861.586Z" transform="translate(-3033.094 -3858.306)" fill="#28dfe8"/>
        </g>
        <g id="Grupo_3053" data-name="Grupo 3053" transform="translate(7.375 6.546)">
          <path id="Trazado_8189" data-name="Trazado 8189" d="M3056.581,3837.339l4.938-3.407c.933-.644,1.79.9.864,1.534l-4.938,3.408C3056.512,3839.518,3055.656,3837.979,3056.581,3837.339Z" transform="translate(-3056.183 -3833.778)" fill="#28dfe8"/>
        </g>
        <g id="Grupo_3054" data-name="Grupo 3054" transform="translate(10.925 11.319)">
          <path id="Trazado_8190" data-name="Trazado 8190" d="M3067.7,3851.273l3.976-2.413c.965-.586,1.967.863,1,1.452l-3.976,2.413C3067.728,3853.311,3066.725,3851.863,3067.7,3851.273Z" transform="translate(-3067.3 -3848.723)" fill="#28dfe8"/>
        </g>
        <g id="Grupo_3055" data-name="Grupo 3055" transform="translate(11.496 0)">
          <path id="Trazado_8191" data-name="Trazado 8191" d="M3069.483,3815.833l3.976-2.413c.965-.585,1.968.863,1,1.452l-3.976,2.413C3069.515,3817.871,3068.513,3816.423,3069.483,3815.833Z" transform="translate(-3069.088 -3813.283)" fill="#28dfe8"/>
        </g>
        <g id="Grupo_3056" data-name="Grupo 3056" transform="translate(0.602 7.326)">
          <path id="Trazado_8192" data-name="Trazado 8192" d="M3035.375,3838.769l3.976-2.413c.965-.586,1.968.862,1,1.452l-3.976,2.413c-.965.585-1.968-.863-1-1.451Z" transform="translate(-3034.979 -3836.219)" fill="#28dfe8"/>
        </g>
      </g>
      <g id="Grupo_3064" data-name="Grupo 3064" transform="translate(3114.098 3301.935)">
        <g id="Grupo_3058" data-name="Grupo 3058" transform="translate(16.803 13.614)">
          <path id="Trazado_8193" data-name="Trazado 8193" d="M3340.834,3366.13l4.858,3.3c.934.634-.244,1.945-1.171,1.316l-4.859-3.3c-.934-.635.244-1.945,1.172-1.316Z" transform="translate(-3339.321 -3365.965)" fill="#28dfe8"/>
        </g>
        <g id="Grupo_3059" data-name="Grupo 3059" transform="translate(0 2.579)">
          <path id="Trazado_8194" data-name="Trazado 8194" d="M3288.226,3331.582l4.859,3.3c.934.635-.244,1.945-1.172,1.316l-4.859-3.3c-.934-.633.245-1.945,1.171-1.316Z" transform="translate(-3286.713 -3331.414)" fill="#28dfe8"/>
        </g>
        <g id="Grupo_3060" data-name="Grupo 3060" transform="translate(9.919 6.324)">
          <path id="Trazado_8195" data-name="Trazado 8195" d="M3319.209,3343.287l5.091,3.175c.961.6-.109,2-1.065,1.4l-5.091-3.176c-.961-.6.109-2,1.065-1.4Z" transform="translate(-3317.768 -3343.141)" fill="#28dfe8"/>
        </g>
        <g id="Grupo_3061" data-name="Grupo 3061" transform="translate(8.005 11.06)">
          <path id="Trazado_8196" data-name="Trazado 8196" d="M3313.09,3358.13l3.8,2.687c.921.652-.009,2.149-.935,1.493l-3.8-2.687c-.921-.652.008-2.149.935-1.491Z" transform="translate(-3311.775 -3357.967)" fill="#28dfe8"/>
        </g>
        <g id="Grupo_3062" data-name="Grupo 3062" transform="translate(18.615 7.079)">
          <path id="Trazado_8197" data-name="Trazado 8197" d="M3346.311,3345.667l3.8,2.687c.922.652-.008,2.149-.935,1.492l-3.8-2.687C3344.455,3346.506,3345.384,3345.009,3346.311,3345.667Z" transform="translate(-3344.996 -3345.503)" fill="#28dfe8"/>
        </g>
        <g id="Grupo_3063" data-name="Grupo 3063" transform="translate(7.563 0)">
          <path id="Trazado_8198" data-name="Trazado 8198" d="M3311.707,3323.5l3.8,2.687c.92.652-.008,2.148-.935,1.491l-3.8-2.687C3309.85,3324.343,3310.779,3322.846,3311.707,3323.5Z" transform="translate(-3310.391 -3323.34)" fill="#28dfe8"/>
        </g>
      </g>
      <circle id="Elipse_587" data-name="Elipse 587" cx="3.243" cy="3.243" r="3.243" transform="translate(3129.806 3559.579)" fill="#28dfe8"/>
      <circle id="Elipse_588" data-name="Elipse 588" cx="3.243" cy="3.243" r="3.243" transform="translate(3207.556 3568.218)" fill="#ff5167"/>
      <circle id="Elipse_589" data-name="Elipse 589" cx="3.243" cy="3.243" r="3.243" transform="translate(3074.445 3338.353)" fill="#ff5167"/>
      <circle id="Elipse_590" data-name="Elipse 590" cx="3.243" cy="3.243" r="3.243" transform="translate(3296.44 3520.652)" fill="#28dfe8"/>
      <circle id="Elipse_591" data-name="Elipse 591" cx="3.243" cy="3.243" r="3.243" transform="translate(3265.765 3473.133)" fill="#28dfe8"/>
      <circle id="Elipse_591-2" data-name="Elipse 591" cx="3.243" cy="3.243" r="3.243" transform="translate(3216.216 3370.711)" fill="#28dfe8"/>
      <circle id="Elipse_592" data-name="Elipse 592" cx="3.243" cy="3.243" r="3.243" transform="translate(3085.909 3604.649)" fill="#28dfe8"/>
      <g id="Grupo_3065" data-name="Grupo 3065" transform="translate(3045.706 3384.681)">
        <circle id="Elipse_593" data-name="Elipse 593" cx="3.837" cy="3.837" r="3.837" transform="translate(14.036 12.078)" fill="#28dfe8"/>
        <path id="Trazado_8199" data-name="Trazado 8199" d="M3076.162,3615.394a1.976,1.976,0,1,0-.452,2.757h0a1.975,1.975,0,0,0,.454-2.755Z" transform="translate(-3072.581 -3604.3)" fill="#28dfe8"/>
        <circle id="Elipse_594" data-name="Elipse 594" cx="3.951" cy="3.951" r="3.951" transform="translate(6.178 0)" fill="#28dfe8"/>
      </g>
      <g id="Grupo_3065-2" data-name="Grupo 3065" transform="translate(3167.195 3594.527)">
        <circle id="Elipse_593-2" data-name="Elipse 593" cx="3.837" cy="3.837" r="3.837" transform="translate(14.036 12.078)" fill="#28dfe8"/>
        <path id="Trazado_8199-2" data-name="Trazado 8199" d="M3076.162,3615.394a1.976,1.976,0,1,0-.452,2.757h0a1.975,1.975,0,0,0,.454-2.755Z" transform="translate(-3072.581 -3604.3)" fill="#28dfe8"/>
        <circle id="Elipse_594-2" data-name="Elipse 594" cx="3.951" cy="3.951" r="3.951" transform="translate(6.178 0)" fill="#28dfe8"/>
      </g>
      <g id="Grupo_3066" data-name="Grupo 3066" transform="translate(3319.099 3408.094)">
        <circle id="Elipse_595" data-name="Elipse 595" cx="1.621" cy="1.621" r="1.621" transform="translate(6.064 0.341)" fill="#ff5167"/>
        <circle id="Elipse_596" data-name="Elipse 596" cx="0.835" cy="0.835" r="0.835" transform="translate(1.669 5.675)" fill="#ff5167"/>
        <circle id="Elipse_597" data-name="Elipse 597" cx="1.669" cy="1.669" r="1.669" fill="#ff5167"/>
      </g>
      <g id="Grupo_3067" data-name="Grupo 3067" transform="translate(3241.175 3436.102)">
        <circle id="Elipse_598" data-name="Elipse 598" cx="1.621" cy="1.621" r="1.621" transform="translate(6.064 0.34)" fill="#28dfe8"/>
        <circle id="Elipse_599" data-name="Elipse 599" cx="0.835" cy="0.835" r="0.835" transform="translate(1.669 5.675)" fill="#28dfe8"/>
        <circle id="Elipse_600" data-name="Elipse 600" cx="1.669" cy="1.669" r="1.669" transform="translate(0)" fill="#28dfe8"/>
      </g>
      <g id="Grupo_3068" data-name="Grupo 3068" transform="translate(3077.578 3562.491)">
        <circle id="Elipse_601" data-name="Elipse 601" cx="3.401" cy="3.401" r="3.401" fill="#28dfe8"/>
        <path id="Trazado_8200" data-name="Trazado 8200" d="M3220.363,4162.218a1.755,1.755,0,1,0,.693-2.383l-.006,0A1.755,1.755,0,0,0,3220.363,4162.218Z" transform="translate(-3204.887 -4153.072)" fill="#28dfe8"/>
        <circle id="Elipse_602" data-name="Elipse 602" cx="3.502" cy="3.502" r="3.502" transform="translate(5.462 11.241)" fill="#28dfe8"/>
      </g>
    </g>
    <g id="Grupo_3191" data-name="Grupo 3191" transform="translate(-821.71 -3007.947)">
      <g id="Grupo_3177" data-name="Grupo 3177" transform="translate(975.621 3135.586)">
        <rect id="Rectángulo_1568" data-name="Rectángulo 1568" width="152.662" height="211.475" rx="4" transform="translate(0 17.031)" fill="#68a8e1" opacity="0.5"/>
        <rect id="Rectángulo_1569" data-name="Rectángulo 1569" width="135.66" height="189.085" transform="translate(8.501 29.06)" fill="#fff"/>
        <path id="Trazado_8376" data-name="Trazado 8376" d="M2041.841,3146.313h-21.562a10.727,10.727,0,1,0-21.453,0h-21.562a3.274,3.274,0,0,0-3.273,3.273v11.9a12.2,12.2,0,0,0,12.2,12.2h46.721a12.2,12.2,0,0,0,12.2-12.2v-11.9A3.274,3.274,0,0,0,2041.841,3146.313Zm-32.288,5.349a5.349,5.349,0,1,1,5.349-5.349A5.35,5.35,0,0,1,2009.553,3151.662Z" transform="translate(-1933.221 -3135.586)" fill="#d0ecfc"/>
        <g id="Grupo_3172" data-name="Grupo 3172" transform="translate(15.177 55.811)">
          <path id="Trazado_8377" data-name="Trazado 8377" d="M1808.019,3497.53v25.592h25.593V3497.53Zm21.2,21.2h-16.814v-16.813h16.814Z" transform="translate(-1808.019 -3497.53)" fill="#d0ecfc"/>
          <path id="Trazado_8378" data-name="Trazado 8378" d="M1808.019,3749.382v25.593h25.593v-25.593Zm21.2,21.2h-16.814v-16.814h16.814Z" transform="translate(-1808.019 -3710.547)" fill="#d0ecfc"/>
          <path id="Trazado_8379" data-name="Trazado 8379" d="M1808.019,4001.234v25.593h25.593v-25.593Zm21.2,21.2h-16.814v-16.814h16.814Z" transform="translate(-1808.019 -3923.563)" fill="#d0ecfc"/>
          <path id="Trazado_8380" data-name="Trazado 8380" d="M1808.019,4253.087v25.592h25.593v-25.592Zm21.2,21.2h-16.814v-16.814h16.814Z" transform="translate(-1808.019 -4136.581)" fill="#d0ecfc"/>
          <g id="Grupo_3168" data-name="Grupo 3168" transform="translate(33.27)">
            <rect id="Rectángulo_1570" data-name="Rectángulo 1570" width="80.568" height="7.91" fill="#e6f7ff"/>
            <rect id="Rectángulo_1571" data-name="Rectángulo 1571" width="80.568" height="7.91" transform="translate(0 11.657)" fill="#e6f7ff"/>
          </g>
          <g id="Grupo_3169" data-name="Grupo 3169" transform="translate(33.27 38.835)">
            <rect id="Rectángulo_1572" data-name="Rectángulo 1572" width="80.568" height="7.91" fill="#e6f7ff"/>
            <rect id="Rectángulo_1573" data-name="Rectángulo 1573" width="40.284" height="7.91" transform="translate(0 11.657)" fill="#e6f7ff"/>
          </g>
          <g id="Grupo_3170" data-name="Grupo 3170" transform="translate(33.27 77.67)">
            <rect id="Rectángulo_1574" data-name="Rectángulo 1574" width="80.568" height="7.91" fill="#e6f7ff"/>
            <rect id="Rectángulo_1575" data-name="Rectángulo 1575" width="23.657" height="7.91" transform="translate(0 11.657)" fill="#e6f7ff"/>
          </g>
          <g id="Grupo_3171" data-name="Grupo 3171" transform="translate(33.27 116.506)">
            <rect id="Rectángulo_1576" data-name="Rectángulo 1576" width="80.568" height="7.91" fill="#e6f7ff"/>
            <rect id="Rectángulo_1577" data-name="Rectángulo 1577" width="63.446" height="7.91" transform="translate(0 11.657)" fill="#e6f7ff"/>
          </g>
        </g>
        <g id="Grupo_3173" data-name="Grupo 3173" transform="translate(16.171 48.74)">
          <path id="Trazado_8381" data-name="Trazado 8381" d="M1821.488,3480.933h0l1.178,2.253,1.422-2.263a82.657,82.657,0,0,1,10.266-13.153,84.737,84.737,0,0,1,12.529-10.759l-4.233-5.338a90.557,90.557,0,0,0-12.021,12.923,86.942,86.942,0,0,0-7.993,12.587,27.345,27.345,0,0,0-6.438-6.511l-1.733,2.419A24.363,24.363,0,0,1,1821.488,3480.933Z" transform="translate(-1814.465 -3451.674)" fill="#fb446c"/>
        </g>
        <g id="Grupo_3174" data-name="Grupo 3174" transform="translate(16.171 87.724)">
          <path id="Trazado_8382" data-name="Trazado 8382" d="M1821.488,3733.75h0l1.178,2.253,1.422-2.263a82.657,82.657,0,0,1,10.266-13.153,84.72,84.72,0,0,1,12.529-10.758l-4.233-5.338a90.585,90.585,0,0,0-12.021,12.923,86.931,86.931,0,0,0-7.993,12.588,27.336,27.336,0,0,0-6.438-6.511l-1.733,2.419A24.366,24.366,0,0,1,1821.488,3733.75Z" transform="translate(-1814.465 -3704.491)" fill="#fb446c"/>
        </g>
        <g id="Grupo_3175" data-name="Grupo 3175" transform="translate(16.171 126.708)">
          <path id="Trazado_8383" data-name="Trazado 8383" d="M1821.488,3986.568h0l1.178,2.253,1.422-2.263a82.646,82.646,0,0,1,10.266-13.153,84.722,84.722,0,0,1,12.529-10.759l-4.233-5.338a90.581,90.581,0,0,0-12.021,12.922,86.957,86.957,0,0,0-7.993,12.588,27.335,27.335,0,0,0-6.438-6.511l-1.733,2.419A24.356,24.356,0,0,1,1821.488,3986.568Z" transform="translate(-1814.465 -3957.309)" fill="#fb446c"/>
        </g>
        <g id="Grupo_3176" data-name="Grupo 3176" transform="translate(16.171 165.692)">
          <path id="Trazado_8384" data-name="Trazado 8384" d="M1821.488,4239.385h0l1.178,2.253,1.422-2.263a82.648,82.648,0,0,1,10.266-13.153,84.706,84.706,0,0,1,12.529-10.758l-4.233-5.338a90.607,90.607,0,0,0-12.021,12.922,86.986,86.986,0,0,0-7.993,12.588,27.33,27.33,0,0,0-6.438-6.511l-1.733,2.419A24.359,24.359,0,0,1,1821.488,4239.385Z" transform="translate(-1814.465 -4210.126)" fill="#fb446c"/>
        </g>
      </g>
      <g id="Grupo_3179" data-name="Grupo 3179" transform="translate(1081.418 3221.336)">
        <path id="Trazado_8385" data-name="Trazado 8385" d="M2593.938,4543.933a21.931,21.931,0,0,0,.875,10.019,40.747,40.747,0,0,1-13.8,1.1,2.183,2.183,0,0,1,.125-2.583,4.527,4.527,0,0,1,2.233-1.445,16.765,16.765,0,0,0,2.53-.937,5.111,5.111,0,0,0,2.52-5.224A9.537,9.537,0,0,1,2593.938,4543.933Z" transform="translate(-2573.128 -4412.462)" fill="#231038"/>
        <path id="Trazado_8386" data-name="Trazado 8386" d="M2759.939,4558.129a15.629,15.629,0,0,1,2.418,8.871,52.787,52.787,0,0,1-9.436.1c-.4-1.46.228-2.967.757-4.384a8.089,8.089,0,0,0,.773-4.406C2756.223,4558.2,2758.164,4558.072,2759.939,4558.129Z" transform="translate(-2718.733 -4424.513)" fill="#311649"/>
        <path id="Trazado_8387" data-name="Trazado 8387" d="M2639.793,4119.254h-.109l-7.547.161c-.015-.046-.031-.092-.046-.14-2.616-7.8-7.028-25.688-9.461-62.031-2.452,14.693-5.569,37.3-2.8,62.415l-.235,0-.272,0-8.417.15h0l-.251.006-.237,0c-1.549-9.335-2.039-30.8.1-57.844q.419-5.3,1.1-10.887c.064-.512.128-1.025.2-1.54q.234-1.828.506-3.686c.037-.259.076-.518.115-.778q.192-1.288.4-2.586.187-1.17.385-2.342c.064-.372.126-.744.193-1.117l9.133-.193,14.034-.3c-.132.969-.293,2.306-.452,4.038-.04.436-.079.9-.119,1.383-.015.178-.028.362-.045.547q-.08,1.069-.158,2.292c-.024.369-.046.746-.069,1.134-.1,1.766-.181,3.75-.238,5.959-.068,2.562-.1,5.426-.075,8.606C2635.515,4075.722,2636.536,4094.347,2639.793,4119.254Z" transform="translate(-2597.18 -3985.072)" fill="#462261"/>
        <path id="Trazado_8388" data-name="Trazado 8388" d="M2657.536,4212.985l.508-.01c-2.772-25.116.345-47.721,2.8-62.412l-4.667-1.677S2651.063,4174.867,2657.536,4212.985Z" transform="translate(-2635.39 -4078.387)" fill="#311649"/>
        <path id="Trazado_8389" data-name="Trazado 8389" d="M2654.317,4038.558c-.132.969-.293,2.306-.452,4.038-.04.436-.079.9-.119,1.383-.015.178-.028.362-.045.547q-.081,1.069-.158,2.292c-.024.369-.046.746-.068,1.134-.1,1.766-.182,3.75-.238,5.959-13.665-.93-20.807-5.986-23.179-8.038.037-.259.076-.518.115-.778q.192-1.288.4-2.586.187-1.17.385-2.342c.064-.372.126-.744.193-1.117l9.133-.193Z" transform="translate(-2614.922 -3985.072)" fill="#311649"/>
        <path id="Trazado_8390" data-name="Trazado 8390" d="M2683.02,3797.75a26.866,26.866,0,0,1,5.082.242c.915.129,1.8.3,2.66.507a7.891,7.891,0,0,0,.6-1.72c0-.178,0-.357-.008-.536-.023-1.8-.01-3.612.016-5.422q.01-.753.024-1.5.029-1.749.067-3.492a32.614,32.614,0,0,0-5.746,2.4q-.294,1.651-.7,3.278-.339,1.371-.753,2.717h0c0,.012-.008.024-.012.037q-.226.734-.475,1.458Q2683.419,3796.742,2683.02,3797.75Z" transform="translate(-2659.717 -3771.309)" fill="#f68895"/>
        <path id="Trazado_8391" data-name="Trazado 8391" d="M2690.979,3794.253a7.086,7.086,0,0,0,3.348-.615,7.21,7.21,0,0,0,3.795-4.321q.029-1.749.068-3.492a32.609,32.609,0,0,0-5.746,2.4q-.294,1.651-.7,3.278-.339,1.371-.753,2.717h0C2690.987,3794.229,2690.982,3794.24,2690.979,3794.253Z" transform="translate(-2666.449 -3771.309)" fill="#f17785"/>
        <path id="Trazado_8392" data-name="Trazado 8392" d="M2690.026,3746.078a4.386,4.386,0,0,0,.006,4.334,8.234,8.234,0,0,0,1.841-3.182,1.118,1.118,0,0,0-.013-.944,1.012,1.012,0,0,0-.844-.346C2690.7,3745.932,2690.32,3746.2,2690.026,3746.078Z" transform="translate(-2665.161 -3737.574)" fill="#db2a58"/>
        <path id="Trazado_8393" data-name="Trazado 8393" d="M2677.4,3752.093a3.819,3.819,0,0,0,2.329,2.59,4.117,4.117,0,0,0,1.485.314,4.6,4.6,0,0,0,1.513-.231,5.9,5.9,0,0,0,2.88-2.1,9.125,9.125,0,0,0,1.621-4.831,27.233,27.233,0,0,0-.287-5.148c-1.888-1.377-4.414-1.017-6.4.208.052,1.656-.924,3.144-1.8,4.55S2677.039,3750.476,2677.4,3752.093Z" transform="translate(-2654.893 -3734.075)" fill="#f68895"/>
        <path id="Trazado_8394" data-name="Trazado 8394" d="M2734.156,3780.775a2.811,2.811,0,0,1,.786-.46,1.186,1.186,0,0,1,.892.021,1.253,1.253,0,0,1,.622.963,1.914,1.914,0,0,1-3.057,1.8A10.9,10.9,0,0,0,2734.156,3780.775Z" transform="translate(-2702.328 -3766.585)" fill="#f68895"/>
        <path id="Trazado_8395" data-name="Trazado 8395" d="M2687.61,3723.326a3.9,3.9,0,0,1-.757-4.933,6.685,6.685,0,0,1-4.63,1.26,5.48,5.48,0,0,1-3.189-1.34,3.969,3.969,0,0,1-1.321-3.136,3.125,3.125,0,0,1,1.957-2.692,4.555,4.555,0,0,1,3.774.748,17.485,17.485,0,0,0,3.434,1.989c.917.3,2.015.4,2.578,1.185a2.682,2.682,0,0,1,.254,2.08A16.253,16.253,0,0,1,2687.61,3723.326Z" transform="translate(-2655.22 -3709.136)" fill="#fb446c"/>
        <path id="Trazado_8396" data-name="Trazado 8396" d="M2684.651,3796.707a4.4,4.4,0,0,0,1.766.458.189.189,0,0,1,.163.271,1.167,1.167,0,0,1-.719.641,1.368,1.368,0,0,1-1.255-.27,1.02,1.02,0,0,1-.227-.951A.189.189,0,0,1,2684.651,3796.707Z" transform="translate(-2660.848 -3780.496)" fill="#f9dee4"/>
        <path id="Trazado_8397" data-name="Trazado 8397" d="M2588.2,3876.78q-.116.243-.6.29a2.831,2.831,0,0,1-.573,0q-.326-.036-.741-.122c-.271-.064-.567-.152-.893-.253s-.664-.239-1.022-.4a17.385,17.385,0,0,1-2.35-1.269,26.479,26.479,0,0,1-5.234-4.479,32.858,32.858,0,0,1-2.552-3.15c-.409-.576-.809-1.171-1.2-1.808-.1-.159-.195-.321-.292-.49l-.147-.259-.077-.141-.019-.037-.013-.026-.031-.067-.051-.11q-.239-.513-.479-1.031l-.117-.259-.107-.245-.211-.488c-.076-.174-.152-.35-.223-.525l.226,14.563a41.07,41.07,0,0,1-24.841-.878q.5-3.489.792-7.031.348-4.122.422-8.274c.053-2.961,0-5.922-.148-8.865-.53.376-1.086.744-1.628,1.152-.277.206-.567.4-.845.613l-.846.638c-1.128.872-2.3,1.78-3.421,2.784-.11.1-.222.192-.333.287l-.32.294c-.012.012-.025.024-.038.034.1.137.2.272.3.4a22.324,22.324,0,0,0,2.217,2.546c.095.1.189.2.286.291s.2.181.3.272c.2.179.388.365.586.534.4.332.781.678,1.18.973l.577.452.576.412c.078.058.155.115.232.17a9.26,9.26,0,0,1-1.015,4.007c-.354-.089-.72-.189-1.091-.315l-.793-.259-.809-.312c-.558-.205-1.109-.476-1.69-.742-.289-.138-.572-.3-.864-.451l-.442-.235c-.147-.082-.29-.171-.437-.259a23.356,23.356,0,0,1-5.252-4.193,21.59,21.59,0,0,1-1.6-1.926,3.312,3.312,0,0,1,0-3.926l.266-.363c.2-.274.4-.547.606-.824q.154-.207.309-.415c.1-.14.208-.277.318-.409l.664-.809c.112-.136.223-.272.338-.406l.353-.393a36.458,36.458,0,0,1,3.8-3.7l.985-.8c.326-.262.665-.5.994-.746.656-.492,1.329-.927,1.982-1.355.324-.217.661-.4.987-.6s.652-.381.974-.56.649-.336.969-.5.631-.322.949-.458.626-.275.933-.405.607-.256.911-.363c.6-.216,1.18-.424,1.745-.586s1.107-.3,1.622-.418,1.018-.184,1.483-.245c.29-.04.571-.064.842-.079.058-.03.118-.061.175-.093q1.049-.56,2.088-1.186c2.191.195,4.322-.732,6.3.242l1.7.837,6.15,2.82h0a1.881,1.881,0,0,1,.808.259,4.248,4.248,0,0,1,1.1.98,10.819,10.819,0,0,1,1.088,1.619c.175.318.354.659.532,1.022s.348.747.525,1.15.345.827.519,1.267.345.9.516,1.378.348.968.513,1.479.342,1.034.519,1.571c.341,1.077.7,2.206,1.052,3.383s.723,2.388,1.1,3.632l.256.87.009.028,0,.013-.015-.034-.019-.039v0l.008.021.03.088.073.194q.078.2.157.406c.216.549.451,1.1.688,1.643.475,1.082.97,2.123,1.472,3.1a42.448,42.448,0,0,0,3,5.023c.482.683.939,1.3,1.361,1.83.208.271.413.509.6.749.189.223.362.441.516.638s.3.374.415.542a4.892,4.892,0,0,1,.292.448A.755.755,0,0,1,2588.2,3876.78Z" transform="translate(-2531.896 -3816.069)" fill="#2795f8"/>
        <path id="Trazado_8398" data-name="Trazado 8398" d="M2680.05,3840.142c0,.128,0,.258,0,.386a5.174,5.174,0,0,0,.976,3,4.552,4.552,0,0,0,4.544,1.5,6.046,6.046,0,0,0,3.832-3.058,7.829,7.829,0,0,0,.729-1.938l-1.7-.838c-1.973-.974-4.1-.047-6.3-.242C2681.445,3839.373,2680.751,3839.769,2680.05,3840.142Z" transform="translate(-2657.203 -3816.069)" fill="#f68895"/>
        <g id="Grupo_3178" data-name="Grupo 3178" transform="translate(43.002)">
          <path id="Rectángulo_1578" data-name="Rectángulo 1578" d="M0,0H9.191a0,0,0,0,1,0,0V1.9a4.6,4.6,0,0,1-4.6,4.6h0A4.6,4.6,0,0,1,0,1.9V0A0,0,0,0,1,0,0Z" transform="translate(0.391 136.24) rotate(3.45)" fill="#ffdce9"/>
          <path id="Trazado_8399" data-name="Trazado 8399" d="M2888.19,3697.329l-2.81-.168.152-.708.855-4.763,1.3.213.436,4.7Z" transform="translate(-2873.875 -3691.689)" fill="#ce1747"/>
          <path id="Trazado_8400" data-name="Trazado 8400" d="M2868.279,3737.062l-4.665,1.042-4.508-1.594,4.048-14.3.113.008,2.612.254.112.007Z" transform="translate(-2851.653 -3717.5)" fill="#ffdce9"/>
          <path id="Trazado_8401" data-name="Trazado 8401" d="M2822.072,3928.349a9.069,9.069,0,0,1-9.174-.554l3.206-53.2.376-6.241,3.544-58.82a9.058,9.058,0,0,1,9.173.552l-3.448,57.237-.4,6.578-3.217,53.415Z" transform="translate(-2812.57 -3790.53)" fill="#462261"/>
        </g>
        <path id="Trazado_8402" data-name="Trazado 8402" d="M2627.11,3994.969a8.714,8.714,0,0,1-.491,1.978c-.14.418-.326.887-.741,1.037a1.647,1.647,0,0,1-1.274-.315,8.018,8.018,0,0,0-3.724-.949,9.259,9.259,0,0,0,.912-3.605,4.773,4.773,0,0,1,2.153-1.068,2.764,2.764,0,0,1,2.719.974A2.927,2.927,0,0,1,2627.11,3994.969Z" transform="translate(-2607.159 -3945.692)" fill="#f68895"/>
        <path id="Trazado_8403" data-name="Trazado 8403" d="M2894.013,4061.114a4.934,4.934,0,0,0-.274,7.36,7.157,7.157,0,0,0,2.084-4.415,3.318,3.318,0,0,0-.228-1.85A1.878,1.878,0,0,0,2894.013,4061.114Z" transform="translate(-2836.662 -4004.146)" fill="#f68895"/>
      </g>
      <g id="Grupo_3187" data-name="Grupo 3187" transform="translate(915.531 3182.669)">
        <path id="Trazado_8404" data-name="Trazado 8404" d="M1411.792,3806.049l13.5-11.092-4.1-4.99-13.5,11.092q-.682-.6-1.411-1.125l-49.612,40.76a19.715,19.715,0,0,0,6.34,7.717l49.612-40.76Q1412.244,3806.832,1411.792,3806.049Z" transform="translate(-1356.67 -3733.691)" fill="#311649"/>
        <circle id="Elipse_604" data-name="Elipse 604" cx="37.305" cy="37.305" r="37.305" transform="translate(55.395)" fill="#462261"/>
        <path id="Trazado_8405" data-name="Trazado 8405" d="M1796.513,3508.427a32.333,32.333,0,0,1-1.162,5.934q-.268.908-.591,1.8a31.965,31.965,0,0,1-3.155,6.4q-.812,1.269-1.756,2.471a32.026,32.026,0,0,1-2.808,3.132q-.558.548-1.151,1.073-.462.408-.944.806a32.053,32.053,0,0,1-7.662,4.679q-1.069.463-2.161.842a32.1,32.1,0,0,1-11.377,1.769,32.384,32.384,0,0,1-5.651-.647q-1.365-.277-2.7-.677-.411-.121-.817-.253c-.392-.128-.781-.264-1.168-.406-.3-.111-.6-.226-.895-.345q-.487-.2-.969-.41a31.916,31.916,0,0,1-6.662-3.977l-.039-.03a32.173,32.173,0,0,1-4.887-4.717c-.07-.084-.142-.169-.212-.255-.215-.263-.428-.526-.632-.793-.106-.138-.212-.275-.314-.415q-.385-.516-.745-1.042-.259-.378-.506-.761-.71-1.1-1.319-2.239c-.165-.306-.325-.616-.477-.927q-.53-1.067-.969-2.161c-.039-.1-.079-.194-.115-.292q-.4-1.016-.728-2.048a31.836,31.836,0,0,1-1.372-6.915c0-.022,0-.042-.008-.064-.042-.507-.073-1.018-.092-1.528-.016-.389-.022-.778-.022-1.166s.006-.793.022-1.19a32.1,32.1,0,0,1,4.969-16.055,31.6,31.6,0,0,1,2.521-3.438.09.09,0,0,1,.012-.016,32.429,32.429,0,0,1,2.606-2.749q.773-.721,1.6-1.4c.11-.09.222-.181.334-.271s.249-.2.375-.3a32.61,32.61,0,0,1,3.452-2.34A31.828,31.828,0,0,1,1753.7,3475q.936-.336,1.884-.611a32.1,32.1,0,0,1,8.6-1.268h0q1.209-.014,2.415.065c.191.01.382.025.571.042q.749.06,1.495.157a32.6,32.6,0,0,1,4.062.789q.39.1.776.215.525.15,1.046.321s0,0,.006,0c.221.07.442.145.661.224,0,0,0,0,0,0,.638.219,1.266.465,1.892.73.056.023.112.046.166.071q.948.406,1.869.876.973.5,1.921,1.065a31.983,31.983,0,0,1,2.908,1.967q.8.609,1.568,1.274c.2.177.408.356.607.54a32.235,32.235,0,0,1,2.561,2.612c.128.144.254.291.38.44.093.111.185.221.277.331q.334.406.652.822a32.082,32.082,0,0,1,3.236,5.145q.693,1.379,1.245,2.8c.12.308.235.616.342.927a31.642,31.642,0,0,1,1.372,5.29c.019.1.034.205.05.308A32.254,32.254,0,0,1,1796.513,3508.427Z" transform="translate(-1671.856 -3467.926)" fill="#fff"/>
        <g id="Grupo_3185" data-name="Grupo 3185" transform="translate(68.097 5.19)">
          <g id="Grupo_3182" data-name="Grupo 3182">
            <path id="Trazado_8406" data-name="Trazado 8406" d="M1806.249,3473.225c-.188-.017-.38-.033-.571-.042q-1.2-.079-2.415-.065h0a32.1,32.1,0,0,0-8.6,1.268q-.95.276-1.884.611a31.818,31.818,0,0,0-5.372,2.513h15.413v18.865h-18.865v-16.526c-.126.1-.251.2-.375.3l-.335.271q-.826.679-1.6,1.4a32.427,32.427,0,0,0-2.606,2.749.1.1,0,0,0-.012.016V3501.3h28.715v-27.918Q1807,3473.286,1806.249,3473.225Z" transform="translate(-1779.029 -3473.115)" fill="#d0ecfc"/>
            <path id="Trazado_8407" data-name="Trazado 8407" d="M1779.029,3740.091v9.712a32.209,32.209,0,0,0,4.887,4.718l.039.029v-9.535h18.865v16.251a31.963,31.963,0,0,0,4.924-.25v-20.925Z" transform="translate(-1779.029 -3697.047)" fill="#d0ecfc"/>
            <g id="Grupo_3180" data-name="Grupo 3180" transform="translate(37.329 2.622)">
              <path id="Trazado_8408" data-name="Trazado 8408" d="M2019.432,3495.1h-8.873v-5.722q.948.406,1.868.876.973.5,1.922,1.065a31.978,31.978,0,0,1,2.908,1.967q.8.609,1.568,1.274C2019.028,3494.737,2019.233,3494.916,2019.432,3495.1Z" transform="translate(-2010.559 -3489.377)" fill="#e6f7ff"/>
              <path id="Trazado_8409" data-name="Trazado 8409" d="M2028.124,3559.825h-17.565v-8.874H2023.3a32.065,32.065,0,0,1,3.236,5.145c.462.919.879,1.853,1.245,2.8C2027.9,3559.206,2028.016,3559.514,2028.124,3559.825Z" transform="translate(-2010.559 -3541.024)" fill="#e6f7ff"/>
            </g>
            <g id="Grupo_3181" data-name="Grupo 3181" transform="translate(37.329 43.044)">
              <path id="Trazado_8410" data-name="Trazado 8410" d="M2028.036,3740.091a31.967,31.967,0,0,1-3.155,6.4q-.812,1.269-1.756,2.471h-12.566v-8.875Z" transform="translate(-2010.559 -3740.091)" fill="#e6f7ff"/>
              <path id="Trazado_8411" data-name="Trazado 8411" d="M2019.166,3821.214q-.462.409-.945.806a32.043,32.043,0,0,1-7.662,4.68v-5.486Z" transform="translate(-2010.559 -3808.135)" fill="#e6f7ff"/>
            </g>
          </g>
          <g id="Grupo_3183" data-name="Grupo 3183" transform="translate(1.116)">
            <path id="Trazado_8412" data-name="Trazado 8412" d="M1817.61,3474.17q-2.075,1.659-4.062,3.437-2.544,2.271-4.924,4.733-.182.184-.359.372a92.906,92.906,0,0,0-10.819,13.663c-.237.364-.47.728-.7,1.1l-1.594,2.539-1.322-2.529h0q-.315-.56-.657-1.1a27.429,27.429,0,0,0-7.224-7.692l1.945-2.713q.961.688,1.865,1.452a30.684,30.684,0,0,1,5.358,5.853,97.633,97.633,0,0,1,8.967-14.124q.63-.826,1.279-1.641,1.785-2.245,3.7-4.392h0q1.209-.014,2.415.065c.191.01.383.025.571.042q.749.06,1.495.157A32.6,32.6,0,0,1,1817.61,3474.17Z" transform="translate(-1785.948 -3473.115)" fill="#fb446c"/>
          </g>
          <g id="Grupo_3184" data-name="Grupo 3184" transform="translate(11.588 35.276)">
            <path id="Trazado_8413" data-name="Trazado 8413" d="M1876.8,3697.9a95.137,95.137,0,0,0-8.775,6.967q-2.544,2.271-4.924,4.732-.182.185-.359.372a93.156,93.156,0,0,0-7.995,9.559q-.411-.122-.817-.254c-.392-.127-.781-.265-1.168-.406-.3-.111-.6-.225-.895-.345q-.488-.2-.969-.411a97.763,97.763,0,0,1,7.664-11.7q.7-.912,1.413-1.808,2.016-2.525,4.2-4.924a102.37,102.37,0,0,1,7.877-7.768Z" transform="translate(-1850.899 -3691.91)" fill="#fb446c"/>
          </g>
        </g>
        <path id="Trazado_8414" data-name="Trazado 8414" d="M1634.683,3888.106c0,.215-.012.431-.022.654s-.02.449-.03.68-.039.464-.058.7-.039.479-.068.723c-.051.49-.12.994-.193,1.511-.163,1.028-.353,2.113-.621,3.222s-.583,2.253-.958,3.414a2.449,2.449,0,0,1-4.23.793l-.274-.336c-.092-.114-.185-.227-.278-.342a31.249,31.249,0,0,1-2.152-2.976c-.524-.806-.993-1.615-1.407-2.416v0q-.149-.285-.286-.569c-.241-.491-.459-.978-.66-1.458-.1-.238-.185-.481-.277-.716s-.179-.467-.251-.7a16.9,16.9,0,0,1-.653-2.628c-.031-.205-.059-.406-.083-.6s-.034-.388-.045-.577a8.13,8.13,0,0,1,0-1.067,7.077,7.077,0,0,1,.12-.943,5.318,5.318,0,0,1,.238-.8,2.927,2.927,0,0,1,.766-1.147,1.939,1.939,0,0,1,1.053-.486,2.148,2.148,0,0,1,1.147.191,3.36,3.36,0,0,1,1.05.793,6.7,6.7,0,0,1,.918,1.305c.073.127.137.261.209.4s.14.278.207.425.132.3.2.451.135.313.2.476.124.33.191.5c.017.044.034.088.051.134.05.127.1.256.146.389.123.359.263.727.394,1.114.271.768.546,1.595.865,2.457.126.35.262.708.4,1.07.031-.094.064-.187.1-.28.072-.221.142-.44.212-.655s.123-.433.182-.644c.131-.424.222-.84.328-1.242q.093-.4.174-.776l3.292-2.7c.05.442.086.923.1,1.435C1634.691,3887.269,1634.683,3887.677,1634.683,3888.106Z" transform="translate(-1579.322 -3810.906)" fill="#f68895"/>
        <g id="Grupo_3186" data-name="Grupo 3186" transform="translate(14.686 74.603)">
          <path id="Trazado_8415" data-name="Trazado 8415" d="M1460.58,3906.242c-.031.253-.064.511-.1.772-.09.667-.183,1.356-.3,2.058-.235,1.4-.49,2.877-.822,4.389-.137.671-.291,1.349-.454,2.035-.2.865-.425,1.744-.652,2.632-.437,1.585-.867,3.132-1.351,4.608-.46,1.483-.974,2.9-1.464,4.237-.249.67-.515,1.317-.767,1.947s-.5,1.238-.768,1.82-.518,1.144-.769,1.68q-.093.2-.187.4l-.195.387-.383.744q-.378.724-.729,1.371c-.246.426-.49.825-.719,1.193s-.448.709-.657,1.019c-.053.078-.1.152-.154.227s-.107.142-.159.211c-.1.137-.206.266-.3.388-.781.971-1.346,1.428-1.649,1.28s-.319-.884-.111-2.069c.027-.149.056-.3.09-.467.015-.081.034-.163.051-.247s.033-.174.048-.263c.068-.357.149-.744.241-1.153s.2-.843.31-1.3.215-.954.337-1.464l.191-.781c.033-.132.067-.266.1-.4s.062-.275.093-.416q.194-.838.413-1.733c.151-.593.288-1.217.435-1.854s.307-1.293.465-1.965c.616-2.694,1.293-5.655,2-8.764.337-1.56.7-3.074,1.024-4.544.345-1.464.655-2.883.988-4.227.129-.546.254-1.081.381-1.6.03-.123.059-.244.09-.365q.24-.954.465-1.854c.043-.176.089-.35.134-.521A18.2,18.2,0,0,0,1460.58,3906.242Z" transform="translate(-1447.757 -3903.641)" fill="#f68895"/>
        </g>
        <path id="Trazado_8416" data-name="Trazado 8416" d="M1493.794,3903.641a18.2,18.2,0,0,0,4.823,2.6c-.031.253-.064.511-.1.772-.09.667-.183,1.356-.3,2.058-.235,1.4-.49,2.877-.822,4.389-.137.671-.291,1.349-.454,2.035a15.362,15.362,0,0,0-1.209-5.775,8.683,8.683,0,0,0-2.632-3.339c.029-.123.059-.244.09-.365q.24-.954.465-1.854C1493.7,3903.986,1493.749,3903.812,1493.794,3903.641Z" transform="translate(-1471.108 -3829.038)" fill="#f17785"/>
        <path id="Trazado_8417" data-name="Trazado 8417" d="M1628.483,3886.714a10.839,10.839,0,0,0-3.816,5.677,10.392,10.392,0,0,0-.274,1.341q-.149-.285-.286-.569c-.241-.491-.459-.978-.66-1.458-.1-.238-.185-.481-.277-.716s-.179-.467-.251-.7a16.9,16.9,0,0,1-.653-2.628c-.031-.205-.059-.406-.083-.6s-.034-.388-.045-.577a8.13,8.13,0,0,1,0-1.067,7.077,7.077,0,0,1,.12-.943,5.318,5.318,0,0,1,.238-.8,2.927,2.927,0,0,1,.766-1.147,1.939,1.939,0,0,1,1.053-.486,2.148,2.148,0,0,1,1.147.191,3.36,3.36,0,0,1,1.05.793,6.7,6.7,0,0,1,.918,1.305c.073.127.137.261.209.4s.14.278.207.425.132.3.2.451.135.313.2.476.124.33.191.5C1628.449,3886.624,1628.466,3886.668,1628.483,3886.714Z" transform="translate(-1579.322 -3810.906)" fill="#f17785"/>
        <path id="Trazado_8418" data-name="Trazado 8418" d="M1790.955,3492.119l-49.605,40.753q-.553-.717-1.059-1.458a31.873,31.873,0,0,1-1.826-3,31.3,31.3,0,0,1-1.447-3.088c-.039-.1-.078-.194-.115-.291q-.4-1.014-.727-2.047a31.865,31.865,0,0,1-1.374-6.916l40.944-33.638q.525.15,1.046.321a.009.009,0,0,0,.006,0c.221.07.442.145.661.224,0,0,0,0,.006,0q.954.332,1.89.73h0q1.031.436,2.035.948.974.5,1.92,1.063A32.015,32.015,0,0,1,1790.955,3492.119Z" transform="translate(-1673.836 -3475.741)" fill="#fff" opacity="0.5"/>
        <path id="Trazado_8419" data-name="Trazado 8419" d="M1862.38,3593.631l-42.865,35.215a31.94,31.94,0,0,1-8.564-4.761l48.421-39.781q.693,1.378,1.245,2.8a31.865,31.865,0,0,1,1.714,6.218C1862.349,3593.425,1862.365,3593.528,1862.38,3593.631Z" transform="translate(-1737.708 -3561.188)" fill="#fff" opacity="0.5"/>
        <path id="Trazado_8420" data-name="Trazado 8420" d="M1587.46,3812.928a11.857,11.857,0,0,1-.123-6.763c-1.106.237-2.254.489-3.36.726q.092,2.807.185,5.613a1.226,1.226,0,0,0,.2.759c.313.376.917.249,1.355.032A2.811,2.811,0,0,1,1587.46,3812.928Z" transform="translate(-1547.328 -3747.278)" fill="#f68895"/>
        <path id="Trazado_8421" data-name="Trazado 8421" d="M1426.226,4538.741a16.611,16.611,0,0,0,1.53,10.2,5,5,0,0,1-6.161-1.269,6.575,6.575,0,0,1-.645-6.133,19.41,19.41,0,0,1,3.4-5.424C1424.992,4536.989,1425.58,4537.865,1426.226,4538.741Z" transform="translate(-1410.202 -4359.537)" fill="#311649"/>
        <path id="Trazado_8422" data-name="Trazado 8422" d="M1605.141,4565.316a3.092,3.092,0,0,0,1.3,3.124,23.14,23.14,0,0,0,3.149,1.728,4.143,4.143,0,0,1,2.258,2.647,25.25,25.25,0,0,1-11.118-.422,19.137,19.137,0,0,1,1.3-7.913C1603.349,4564.1,1603.77,4565.3,1605.141,4565.316Z" transform="translate(-1561.338 -4383.269)" fill="#311649"/>
        <path id="Trazado_8423" data-name="Trazado 8423" d="M1457.119,4107.571c-1.593-.134-3.09-.248-4.689-.381,1.6-21.791-1.585-48.1-7.166-69.219-4.342,40.14-16.623,66.643-16.623,66.643h-5.254a86.013,86.013,0,0,0,5.181-17.407,0,0,0,0,0,0,0c4.63-22.63,5-50.878,5-50.878.244-3.885.1-7.746,1.621-11.354a23.376,23.376,0,0,1,1.582-3.094l3.133-5.648,1.971.045,3.109.073,6.595.151.624,2.035,2.075,6.768.008.026A152.806,152.806,0,0,1,1457.119,4107.571Z" transform="translate(-1412.63 -3923.475)" fill="#462261"/>
        <path id="Trazado_8424" data-name="Trazado 8424" d="M1516.256,3850.2a22.591,22.591,0,0,1-5.618,3.688q-.239,1.531-.5,3.035a49.353,49.353,0,0,1-3.55,12.465c-1.635,1.07-4.863,1.426-6.81,1.279a9.429,9.429,0,0,1-5.46-2.213,58.528,58.528,0,0,0,.686-12.2q-.064-1.2-.19-2.39a9.265,9.265,0,0,1-6.257-3.006s3.387-10.236,9.331-11.276h0c.319-.027.64-.041.964-.048,1.94-.039,3.965.19,5.866-.032,0,0,1.781.06,4.271.22l0,0h0v0a3.451,3.451,0,0,1,2.482,1.286,9.236,9.236,0,0,1,1.419,2.338C1514.006,3845.668,1515.146,3847.874,1516.256,3850.2Z" transform="translate(-1467.296 -3775.241)" fill="#703cd5"/>
        <ellipse id="Elipse_605" data-name="Elipse 605" cx="8.961" cy="7.499" rx="8.961" ry="7.499" transform="matrix(0.044, -0.999, 0.999, 0.044, 27.67, 62.59)" fill="#462261"/>
        <ellipse id="Elipse_606" data-name="Elipse 606" cx="5.371" cy="5.183" rx="5.371" ry="5.183" transform="matrix(0.044, -0.999, 0.999, 0.044, 29.088, 69.397)" fill="#462261"/>
        <path id="Trazado_8425" data-name="Trazado 8425" d="M1434.657,4105.423a5.931,5.931,0,0,1-2.449,3.062,3.1,3.1,0,0,1-3.689-.4,7.936,7.936,0,0,1,4.507-3.431C1433.555,4104.857,1434.128,4105.221,1434.657,4105.423Z" transform="translate(-1416.935 -3997.643)" fill="#f68895"/>
      </g>
      <g id="Grupo_3190" data-name="Grupo 3190" transform="translate(854.217 3197.599)">
        <g id="Grupo_3188" data-name="Grupo 3188" transform="translate(46.631 0.592)">
          <path id="Trazado_8426" data-name="Trazado 8426" d="M1148.089,3564.7q-.026.79-.052,1.593a55.406,55.406,0,0,1-.7,6.616,53.955,53.955,0,0,1-1.551,6.491c-.056.172-.111.343-.167.516q-.164.508-.327,1.012c-.183.5-.362.99-.542,1.479s-.38.962-.575,1.432-.384.934-.6,1.382-.422.892-.629,1.33-.444.852-.664,1.268l-.331.617c-.112.2-.233.4-.347.6-.234.392-.465.776-.692,1.155s-.48.734-.716,1.089-.465.7-.715,1.029-.484.649-.723.962c-.12.154-.234.311-.356.459s-.245.294-.367.437c-.486.573-.946,1.117-1.426,1.6s-.917.939-1.374,1.329-.875.754-1.289,1.063-.812.568-1.179.792c-.184.111-.359.214-.531.3s-.342.164-.5.23a4.646,4.646,0,0,1-.867.276,1.261,1.261,0,0,1-1.148-.194,1.348,1.348,0,0,1-.3-1.134,4.831,4.831,0,0,1,.164-.862c.044-.159.1-.325.156-.5s.119-.359.19-.549c.139-.38.309-.788.509-1.219s.4-.906.64-1.393.486-1.015.762-1.558.552-1.122.856-1.718c.075-.148.153-.3.23-.45s.15-.311.226-.469c.151-.314.309-.634.472-.958s.315-.662.481-1l.5-1.036c.162-.353.326-.712.495-1.079.083-.181.172-.364.255-.55.025-.056.049-.112.075-.168.056-.131.114-.264.17-.4.166-.379.342-.761.509-1.151s.329-.789.5-1.192.328-.816.494-1.229.341-.831.49-1.262.322-.861.484-1.3.306-.885.461-1.335c.606-1.8,1.179-3.686,1.687-5.645s.9-3.9,1.226-5.8c.078-.473.155-.945.23-1.41s.125-.933.188-1.392.108-.915.158-1.366.106-.9.134-1.343.07-.883.106-1.316.045-.86.069-1.283c.013-.211.023-.422.034-.629s.011-.416.017-.622c.011-.411.021-.817.031-1.215s0-.792,0-1.177.008-.767-.011-1.137-.02-.739-.031-1.095c-.006-.18-.006-.358-.016-.532s-.02-.347-.03-.517c-.041-.684-.064-1.342-.123-1.958s-.08-1.209-.144-1.754-.1-1.064-.142-1.537-.1-.907-.128-1.3-.056-.749-.078-1.057a7.439,7.439,0,0,1-.012-.8c.022-.442.1-.7.259-.757s.375.1.657.445a7.475,7.475,0,0,1,.473.662q.129.2.27.436c.092.157.181.327.276.509q.284.544.608,1.22c.208.451.411.949.632,1.488s.426,1.123.647,1.746.422,1.292.632,2c.052.177.1.355.158.536s.1.365.144.551c.094.374.191.756.287,1.145s.178.792.266,1.2.173.828.253,1.256.142.864.215,1.307c.034.222.075.446.106.672s.056.455.086.684c.055.46.119.928.166,1.4s.081.959.122,1.448.061.986.086,1.488.05,1.012.047,1.526S1148.088,3564.175,1148.089,3564.7Z" transform="translate(-1129.406 -3541.408)" fill="#f68895"/>
        </g>
        <g id="Grupo_3189" data-name="Grupo 3189" transform="translate(16.211 5.86)">
          <path id="Trazado_8427" data-name="Trazado 8427" d="M963.224,3627.738a1.207,1.207,0,0,1-1.068.312,4.472,4.472,0,0,1-.853-.164q-.239-.068-.5-.163c-.175-.064-.351-.142-.539-.228q-.56-.255-1.207-.619c-.426-.247-.868-.54-1.34-.864s-.948-.7-1.453-1.106-1.007-.865-1.532-1.354l-.4-.375c-.131-.126-.258-.262-.389-.4-.261-.27-.526-.546-.795-.832s-.526-.589-.792-.9-.536-.623-.8-.951-.518-.675-.785-1.019c-.131-.175-.267-.348-.4-.528s-.255-.364-.384-.548c-.223-.323-.453-.648-.675-.984-.033-.048-.066-.1-.1-.145q-.368-.588-.747-1.19c-.256-.4-.484-.822-.726-1.243s-.484-.85-.7-1.293-.451-.89-.679-1.343q-.316-.689-.639-1.393a51.168,51.168,0,0,1-2.2-5.984,53.128,53.128,0,0,1-1.407-6.2q-.115-.759-.226-1.5c-.058-.5-.114-.993-.169-1.484s-.089-.973-.127-1.452-.077-.951-.086-1.422-.031-.93-.047-1.387,0-.906,0-1.349c0-.222,0-.441.006-.659s.016-.434.025-.648c.019-.428.039-.849.058-1.265s.067-.82.1-1.218.063-.787.117-1.168.1-.754.144-1.118c.025-.183.045-.363.075-.541s.059-.351.089-.525c.122-.692.23-1.348.377-1.963s.261-1.2.419-1.729.286-1.032.432-1.484.3-.859.441-1.225c.07-.181.134-.353.2-.512s.142-.308.208-.445a7.319,7.319,0,0,1,.375-.681c.23-.359.422-.53.575-.5s.259.272.33.689a6.958,6.958,0,0,1,.078.756c.012.294.028.631.044,1.01s.022.795.025,1.25.023.945.038,1.473.039,1.088.059,1.68.064,1.219.1,1.871c.009.162.019.328.03.494s.03.336.044.506q.044.511.092,1.043c.025.353.078.714.117,1.079s.081.739.131,1.117.109.761.165,1.149c.03.2.053.39.086.587s.067.4.1.594c.07.4.133.8.209,1.211s.164.818.248,1.235.183.834.276,1.259.186.851.3,1.279.222.862.333,1.3.25.87.376,1.312c.52,1.759,1.123,3.555,1.812,5.36q.227.583.462,1.156c.565,1.387,1.16,2.725,1.77,4.011q.3.612.587,1.213t.6,1.176c.192.392.406.765.607,1.142s.394.753.606,1.111.406.722.6,1.075.412.693.611,1.035l.3.51c.1.167.2.328.3.492q.3.492.589.968t.587.926c.194.3.372.611.568.9s.375.575.555.857c.091.139.177.281.267.417s.18.271.269.4c.354.531.676,1.054,1,1.533s.608.961.9,1.39.533.859.764,1.251.444.753.62,1.1c.089.172.167.342.24.5s.145.309.2.454a4.469,4.469,0,0,1,.251.8A1.286,1.286,0,0,1,963.224,3627.738Z" transform="translate(-941.463 -3573.957)" fill="#f68895"/>
        </g>
        <path id="Trazado_8428" data-name="Trazado 8428" d="M1145.619,3779.326q-.164.509-.327,1.012c-.183.5-.362.99-.542,1.479s-.38.962-.575,1.432-.384.934-.6,1.382-.422.892-.629,1.329-.444.853-.664,1.268c-.111.208-.222.412-.331.617s-.233.4-.347.6c-.234.392-.465.776-.692,1.156s-.48.734-.716,1.088-.465.7-.715,1.03-.484.65-.723.962c-.12.155-.234.311-.356.459s-.245.293-.367.437c-.486.573-.946,1.117-1.426,1.6s-.917.939-1.374,1.33-.875.754-1.289,1.062-.812.569-1.179.792c-.184.111-.359.214-.531.3s-.342.164-.5.23a4.669,4.669,0,0,1-.867.277,1.263,1.263,0,0,1-1.148-.194,1.349,1.349,0,0,1-.3-1.134,4.843,4.843,0,0,1,.164-.862c.044-.159.1-.325.156-.5s.119-.359.19-.55c.139-.379.309-.787.509-1.218s.4-.906.64-1.393.486-1.015.762-1.557.552-1.121.856-1.718c.075-.148.153-.3.23-.45s.15-.311.226-.469c.151-.314.309-.635.472-.958s.315-.662.481-1l.5-1.035c.162-.353.326-.712.495-1.079.083-.181.172-.364.255-.55.025-.056.049-.112.075-.169a7.277,7.277,0,0,0,5.923-.479A10.788,10.788,0,0,0,1145.619,3779.326Z" transform="translate(-1082.775 -3740.225)" fill="#f17785"/>
        <path id="Trazado_8429" data-name="Trazado 8429" d="M1003.9,3780.052a1.207,1.207,0,0,1-1.068.312,4.472,4.472,0,0,1-.853-.164q-.239-.068-.5-.163c-.175-.064-.351-.142-.539-.228q-.56-.255-1.207-.619c-.427-.246-.869-.54-1.34-.864s-.948-.7-1.453-1.106-1.007-.865-1.532-1.354l-.4-.375c-.131-.126-.258-.262-.389-.4-.261-.27-.526-.546-.795-.833s-.526-.589-.792-.9-.536-.623-.8-.951-.518-.675-.785-1.018c-.131-.175-.267-.348-.4-.528s-.255-.365-.384-.548c-.223-.323-.453-.648-.675-.984a10.8,10.8,0,0,0,2.448-6.325,21.3,21.3,0,0,0-.823-5.78c-.122-.515-.245-1.033-.367-1.548.565,1.387,1.16,2.725,1.77,4.011q.3.612.587,1.213t.6,1.176c.192.392.406.765.607,1.142s.394.753.606,1.11.406.722.6,1.075.412.693.611,1.035c.1.17.2.341.3.51s.2.328.3.492q.3.492.589.969t.587.926c.193.3.372.611.568.9s.375.575.555.857c.091.139.177.281.267.417l.269.4c.354.531.676,1.054,1,1.533s.608.961.9,1.39.533.859.764,1.251.444.753.62,1.1c.089.172.167.342.24.5s.145.309.2.454a4.471,4.471,0,0,1,.251.8A1.285,1.285,0,0,1,1003.9,3780.052Z" transform="translate(-965.926 -3720.411)" fill="#f17785"/>
        <path id="Trazado_8430" data-name="Trazado 8430" d="M1140.4,4554.779a20.678,20.678,0,0,1-.449,9.475,38.43,38.43,0,0,0,13.045.526,2.06,2.06,0,0,0-.215-2.43,4.266,4.266,0,0,0-2.159-1.279,15.848,15.848,0,0,1-2.419-.788,4.822,4.822,0,0,1-2.571-4.83A9,9,0,0,0,1140.4,4554.779Z" transform="translate(-1091.612 -4390.067)" fill="#311649"/>
        <path id="Trazado_8431" data-name="Trazado 8431" d="M849.414,4508.181a20.682,20.682,0,0,1-8.106,4.927,38.443,38.443,0,0,0,6.86,11.108,2.059,2.059,0,0,0,1.895-1.538,4.269,4.269,0,0,0-.147-2.5,15.831,15.831,0,0,1-.7-2.446,4.821,4.821,0,0,1,2.566-4.833A9,9,0,0,0,849.414,4508.181Z" transform="translate(-841.308 -4351.108)" fill="#311649"/>
        <path id="Trazado_8432" data-name="Trazado 8432" d="M926.167,4154.113a1.848,1.848,0,0,1-1.682,1.571q-2.282.173-4.622.273a1.85,1.85,0,0,1-1.916-2.018,230,230,0,0,0-.629-47.56c-.5-4.346-1.076-8.312-1.665-11.826q-.417,6.25-.909,11.789c-.31,3.519-.363,6.338-.521,9.125a14.155,14.155,0,0,1-2.745,7.592c-4.542,6.162-15.183,19.545-28.461,29.26a2.859,2.859,0,0,1-4.1-.767l-2.518-3.957a2.854,2.854,0,0,1,.563-3.711c4.978-4.217,18.413-16.053,25.021-26.372.367-5.487.6-6.229.732-10.7q.1-3.713.127-6.979.026-3.622-.033-6.708c-.012-.623-.025-1.23-.041-1.821q-.021-.83-.047-1.613-.08-2.4-.194-4.414-.042-.752-.086-1.453c-.011-.167-.022-.334-.033-.5q-.075-1.1-.153-2.068c0-.075-.011-.152-.017-.225-.036-.4-.067-.791-.1-1.161-.163-1.732-.325-3.074-.456-4.045l14.061.3,9.153.2q.1.557.2,1.117c.013.084.028.172.041.258.119.7.231,1.395.342,2.09q.365,2.279.681,4.528c0,.017.006.032.008.05q.2,1.466.391,2.917h0q.218,1.687.406,3.351c.044.387.086.774.13,1.16q.164,1.516.309,3.011.22,2.271.4,4.5.314,3.978.5,7.786A247.621,247.621,0,0,1,926.167,4154.113Z" transform="translate(-870.341 -3988.734)" fill="#703cd5"/>
        <path id="Trazado_8433" data-name="Trazado 8433" d="M1124.644,4247.634a1.841,1.841,0,0,1-1.092-1.862,229.823,229.823,0,0,0-.63-47.56c-.5-4.347-1.077-8.312-1.664-11.827l3.979-.992S1129.677,4222,1124.644,4247.634Z" transform="translate(-1075.946 -4080.567)" fill="#5229b7"/>
        <path id="Trazado_8434" data-name="Trazado 8434" d="M1034.921,4075.825c.131.972.293,2.313.456,4.045.033.37.064.757.1,1.16.006.074.014.15.017.225q.08.97.153,2.068c.011.164.022.331.033.5q.044.7.086,1.453.113,2.019.194,4.414.026.784.047,1.613c.016.59.028,1.2.041,1.821,6.541-8.142,19.6-8.794,23.347-8.811q-.314-2.246-.681-4.527c-.111-.7-.223-1.392-.342-2.09-.013-.086-.028-.173-.041-.258q-.1-.56-.2-1.117l-9.153-.2Z" transform="translate(-1003.583 -3988.734)" fill="#5229b7"/>
        <path id="Trazado_8435" data-name="Trazado 8435" d="M1079.5,3842.925l1.378-.515-.508,2.707Z" transform="translate(-1040.943 -3793.099)" fill="#462261"/>
        <path id="Trazado_8436" data-name="Trazado 8436" d="M1019.711,3855.826c.384,2.433.844,4.943,1.382,7.5q-2.924.363-5.86.544a93.959,93.959,0,0,1-19.2-.784c-.025-.982-.053-2.108-.094-3.336-.142-4.452-.389-10.241-.736-15.4-.226-3.336-1.634-16.687-3.005-19.314a27.121,27.121,0,0,0-3.62-5.292,16.145,16.145,0,0,1,6.872-5.671c1.718,3.436,6.538,6.98,6.538,6.98a13.923,13.923,0,0,1,1.468-.275h.011c.022-.008.044-.018.066-.028l4.048-1.625c1.112.567,2.319,1.133,3.552,1.7a18.051,18.051,0,0,0,5.313-7.066,16.832,16.832,0,0,1,6.654,5.676,31.3,31.3,0,0,1-4.628,5.456q-.974.907-2.044,1.72l1.5,12.423c.211,3.84.587,8.246,1.225,13.01.058.423.117.853.178,1.282C1019.449,3854.146,1019.575,3854.979,1019.711,3855.826Z" transform="translate(-964.745 -3769.082)" fill="#462261"/>
        <path id="Trazado_8437" data-name="Trazado 8437" d="M1058.522,3775.155l1.809,5.324a6.019,6.019,0,0,0,2,3.288,3.052,3.052,0,0,0,3.389-.077,11.746,11.746,0,0,1-3.53-4.776,12.979,12.979,0,0,0-1.128-2.605A2.734,2.734,0,0,0,1058.522,3775.155Z" transform="translate(-1023.364 -3736.708)" fill="#462261"/>
        <path id="Trazado_8438" data-name="Trazado 8438" d="M1083.379,3811.06a19.115,19.115,0,0,1-8.1.262,11.314,11.314,0,0,0,.765-4.324.561.561,0,0,0,0-.062,11.541,11.541,0,0,0-.2-1.885,11.324,11.324,0,0,0-.583-2.036,11.571,11.571,0,0,0-.977-1.943,10.721,10.721,0,0,1,1.531-.039c2.646.116,5.293,1.169,6.593,3.119a15.062,15.062,0,0,0-.056,1.85c.008.272.024.542.049.811q.042.528.126,1.05c.018.123.037.247.06.369.049.281.108.563.176.841A15.082,15.082,0,0,0,1083.379,3811.06Z" transform="translate(-1036.571 -3758.409)" fill="#f68895"/>
        <path id="Trazado_8439" data-name="Trazado 8439" d="M1086.893,3807.921c.017.123.037.247.06.369-5.9.215-7.457-6.876-7.457-6.876l.686-.323c2.646.116,5.293,1.169,6.593,3.119a15.135,15.135,0,0,0-.056,1.85c.008.272.024.542.049.811C1086.8,3807.223,1086.837,3807.573,1086.893,3807.921Z" transform="translate(-1040.943 -3758.467)" fill="#f17785"/>
        <path id="Trazado_8440" data-name="Trazado 8440" d="M1120.091,3743.708a6.63,6.63,0,0,1-.11,5.5c-.29-1.308-.582-2.562-.872-3.869a1.986,1.986,0,0,1,.177-1.778.574.574,0,0,1,.5-.21C1119.974,3743.382,1120.177,3743.539,1120.091,3743.708Z" transform="translate(-1074.044 -3710.064)" fill="#311649"/>
        <path id="Trazado_8441" data-name="Trazado 8441" d="M1078.115,3741.9a12.313,12.313,0,0,0,1.731,7.574c.779,1.275,1.833,2.534,1.8,4.027-.047,1.967-2.155,3.427-4.12,3.315a7.225,7.225,0,0,1-4.927-2.929,13.545,13.545,0,0,1-2.922-10.1A14.96,14.96,0,0,1,1078.115,3741.9Z" transform="translate(-1032.631 -3708.812)" fill="#f68895"/>
        <path id="Trazado_8442" data-name="Trazado 8442" d="M1121.285,3802.427a4.069,4.069,0,0,0,1.6-.53.174.174,0,0,1,.261.128,1.076,1.076,0,0,1-.236.855,1.258,1.258,0,0,1-1.106.419c-.324-.044-.5-.323-.652-.623A.174.174,0,0,1,1121.285,3802.427Z" transform="translate(-1075.839 -3759.122)" fill="#f9dee4"/>
        <path id="Trazado_8443" data-name="Trazado 8443" d="M1053.458,3726.826a5.591,5.591,0,0,0,.121-5.7,16.407,16.407,0,0,0,5.931-.514,5.308,5.308,0,0,0,2.935-1.676,3.124,3.124,0,0,0-.791-4.513,2.323,2.323,0,0,0-2.448-.138c-.651.416-.958,1.195-1.469,1.775a6.385,6.385,0,0,1-3.74,1.613,6.147,6.147,0,0,0-3.714,1.658,3.551,3.551,0,0,0-.709,2.83,4.931,4.931,0,0,0,1.4,2.611A7.14,7.14,0,0,0,1053.458,3726.826Z" transform="translate(-1015.821 -3685.469)" fill="#462261"/>
        <path id="Trazado_8444" data-name="Trazado 8444" d="M1072.736,3845.593s1.225,3.118,5.72,3.28l-1.6,3.78a9.554,9.554,0,0,1-5.43-4.917Z" transform="translate(-1034.184 -3795.766)" fill="#643b89"/>
        <path id="Trazado_8445" data-name="Trazado 8445" d="M1114.837,3853.2a2.988,2.988,0,0,0,1.913-2.444l1.708,1.761s.077,3.124-1.086,4.151Z" transform="translate(-1070.564 -3800.094)" fill="#643b89"/>
        <path id="Trazado_8446" data-name="Trazado 8446" d="M1073.78,3768.087v.025l.021.029a.092.092,0,0,0,.044.018.079.079,0,0,0,.038,0,.175.175,0,0,0,.051-.022c.043-.024.1-.063.187-.12l.171-.116c.1-.064.213-.132.339-.2,0,0,0,0,0,0,.033-.02.065-.037.1-.053l.118-.056a4.664,4.664,0,0,1,.45-.182c.037-.012.073-.024.112-.035h0l.016-.005a4.382,4.382,0,0,1,.967-.173l.1-.006a1.71,1.71,0,0,0,.678.917,1.564,1.564,0,0,0,1.124.277,1.5,1.5,0,0,0,.242-.054,1.457,1.457,0,0,0,.313-.13,1.4,1.4,0,0,0,.443-.4,1.546,1.546,0,0,0,.066-1.7,1.464,1.464,0,0,0-.2-.264.943.943,0,0,1,.268-.129l.033-.01a1.63,1.63,0,0,1,.4-.036,1.442,1.442,0,0,0,.028.424,1.721,1.721,0,0,0,.647.979,1.581,1.581,0,0,0,1.11.324,1.788,1.788,0,0,0,.313-.062,1.509,1.509,0,0,0,.252-.1,1.415,1.415,0,0,0,.46-.373c.005-.008.01-.015.016-.023a1.51,1.51,0,0,0,.3-1.106,1.554,1.554,0,0,0-.183-.573,1.4,1.4,0,0,0-.395-.465,1.145,1.145,0,0,0-.175-.114h0a1.587,1.587,0,0,0-.573-.187,1.969,1.969,0,0,0-.407,0,1.887,1.887,0,0,0-.282.058,1.552,1.552,0,0,0-.279.111h0a1.732,1.732,0,0,0-.5.374,1.23,1.23,0,0,0-.253.411,1.267,1.267,0,0,0-.57.006.425.425,0,0,1-.041.01,1.022,1.022,0,0,0-.439.268,1.578,1.578,0,0,0-.505-.206,1.858,1.858,0,0,0-.607-.016,2.059,2.059,0,0,0-.21.048,1.748,1.748,0,0,0-.829.538,1.233,1.233,0,0,0-.273.562,1.2,1.2,0,0,0-.023.36l-.041-.005a3.062,3.062,0,0,0-.556.011c-.111.014-.224.032-.332.057h0c-.075.015-.15.036-.223.056l-.107.034a3.476,3.476,0,0,0-.62.283,2.939,2.939,0,0,0-.449.327,1.5,1.5,0,0,0-.312.363v0A.142.142,0,0,0,1073.78,3768.087Zm6.437-2.459c0-.024.011-.047.017-.07s.013-.04.021-.061a.971.971,0,0,1,.205-.332.759.759,0,0,1,.082-.08.624.624,0,0,1,.095-.073l.035-.026a.6.6,0,0,1,.065-.042l.11-.06.006,0a1.4,1.4,0,0,1,.227-.085,1.144,1.144,0,0,1,.221-.047,1.364,1.364,0,0,1,.473.025l.021.005h0a1.238,1.238,0,0,1,.349.156h0a.491.491,0,0,1,.053.034,1.029,1.029,0,0,1,.314.344,1.247,1.247,0,0,1,.162.448,1.232,1.232,0,0,1-.133.781h0a.865.865,0,0,1-.086.137,1.167,1.167,0,0,1-.608.425,1.077,1.077,0,0,1-.223.042,1.41,1.41,0,0,1-1.41-1.133A1.014,1.014,0,0,1,1080.216,3765.628Zm-3.412.987a.985.985,0,0,1,.21-.4l.019-.021a.822.822,0,0,1,.06-.062.718.718,0,0,1,.088-.076l.035-.026a.652.652,0,0,1,.064-.047l.1-.064a1.628,1.628,0,0,1,.29-.118,1.188,1.188,0,0,1,.158-.037,1.361,1.361,0,0,1,.475.005,1.245,1.245,0,0,1,.432.178.81.81,0,0,1,.125.092,1.182,1.182,0,0,1,.2.24,1.242,1.242,0,0,1,0,1.37,1.179,1.179,0,0,1-.635.463,1.011,1.011,0,0,1-.175.038,1.416,1.416,0,0,1-1.45-1.05l-.006-.024c0-.023-.01-.049-.013-.074A.927.927,0,0,1,1076.8,3766.615Z" transform="translate(-1036.151 -3727.686)" fill="#311649"/>
        <path id="Trazado_8447" data-name="Trazado 8447" d="M1065.138,3782.574a.808.808,0,0,0-.74-.756,1.05,1.05,0,0,0-.957.543,1.516,1.516,0,0,0-.114,1.127,2.8,2.8,0,0,0,.548,1.015,2.633,2.633,0,0,0,1.379.98,1.389,1.389,0,0,0,1.511-.552C1066.028,3784.246,1065.136,3783.581,1065.138,3782.574Z" transform="translate(-1027.343 -3742.312)" fill="#f68895"/>
        <path id="Trazado_8448" data-name="Trazado 8448" d="M1193.6,3544.7a1.469,1.469,0,0,1-2.041-2.112c.241-.245.578-.419.7-.738a1.2,1.2,0,0,0-.233-1.051,2.681,2.681,0,0,1-.515-.984,1.326,1.326,0,0,1,.454-1.135,3.1,3.1,0,0,1,1.112-.6,4.063,4.063,0,0,1,2.7-.162,3.21,3.21,0,0,1,1.819,3.5,5.761,5.761,0,0,1-2.3,3.486C1194.776,3544.815,1194.13,3544.8,1193.6,3544.7Z" transform="translate(-1134.535 -3537.753)" fill="#f68895"/>
        <path id="Trazado_8449" data-name="Trazado 8449" d="M946.6,3575.01a1.469,1.469,0,0,0,1.9-2.243c-.257-.228-.6-.379-.751-.689a1.2,1.2,0,0,1,.163-1.064,2.676,2.676,0,0,0,.449-1.016,1.325,1.325,0,0,0-.528-1.1,3.094,3.094,0,0,0-1.15-.525,4.062,4.062,0,0,0-2.7.017A3.21,3.21,0,0,0,942.4,3572a5.761,5.761,0,0,0,2.526,3.326C945.439,3575.2,946.082,3575.139,946.6,3575.01Z" transform="translate(-925.965 -3563.226)" fill="#f68895"/>
      </g>
    </g>
  </g>
</svg>
