<svg xmlns="http://www.w3.org/2000/svg" xmlns:xlink="http://www.w3.org/1999/xlink" width="283.204" height="290.869" viewBox="0 0 283.204 290.869">
  <defs>
    <linearGradient id="linear-gradient" x1="0.633" y1="1.003" x2="0.337" y2="0.006" gradientUnits="objectBoundingBox">
      <stop offset="0.11" stop-color="#fff"/>
      <stop offset="1" stop-color="#e1ebf7"/>
    </linearGradient>
    <linearGradient id="linear-gradient-2" y1="0.5" x2="1" y2="0.5" gradientUnits="objectBoundingBox">
      <stop offset="0" stop-color="#fc7318"/>
      <stop offset="1" stop-color="#feb423"/>
    </linearGradient>
    <linearGradient id="linear-gradient-3" y1="0.5" x2="1" y2="0.5" gradientUnits="objectBoundingBox">
      <stop offset="0" stop-color="#111c3a"/>
      <stop offset="0.258" stop-color="#1c2e61"/>
      <stop offset="0.591" stop-color="#29448d"/>
      <stop offset="0.85" stop-color="#3152a9"/>
      <stop offset="1" stop-color="#3457b4"/>
    </linearGradient>
    <linearGradient id="linear-gradient-8" x1="0.003" y1="0.5" x2="0.997" y2="0.5" xlink:href="#linear-gradient-3"/>
    <linearGradient id="linear-gradient-9" x1="-2.739" y1="0.5" x2="3.739" y2="0.5" xlink:href="#linear-gradient-3"/>
  </defs>
  <g id="Grupo_2977" data-name="Grupo 2977" transform="translate(-111.45 -773.918)">
    <path id="Trazado_8083" data-name="Trazado 8083" d="M394.654,924.467c0,72.322-71.409,123.285-143.732,123.285S111.45,996.789,111.45,924.467s43.294-150.549,115.617-150.549S394.654,852.143,394.654,924.467Z" transform="translate(0)" fill="url(#linear-gradient)"/>
    <g id="Grupo_2957" data-name="Grupo 2957" transform="translate(150.139 942.616)" opacity="0.5">
      <rect id="Rectángulo_1526" data-name="Rectángulo 1526" width="2.817" height="25.761" transform="translate(0)" fill="#2842a2" opacity="0.7"/>
      <rect id="Rectángulo_1527" data-name="Rectángulo 1527" width="2.817" height="3.465" transform="translate(0 31.214)" fill="#2842a2" opacity="0.7"/>
      <rect id="Rectángulo_1513" data-name="Rectángulo 1513" width="2.817" height="38.229" transform="translate(148.398 29.146)" fill="#2842a2" opacity="0.7"/>
      <rect id="Rectángulo_1525" data-name="Rectángulo 1525" width="2.817" height="10.36" transform="translate(148.398 71.507)" fill="#2842a2" opacity="0.7"/>
    </g>
    <g id="Grupo_2973" data-name="Grupo 2973" transform="translate(154.842 821.026)">
      <g id="Grupo_2972" data-name="Grupo 2972">
        <g id="Grupo_2961" data-name="Grupo 2961" transform="translate(54.63 199.11)">
          <g id="Grupo_2959" data-name="Grupo 2959" transform="translate(14.464)">
            <path id="Trazado_8085" data-name="Trazado 8085" d="M227.563,1021.277l-2.126-26.051-12.646,2.649,5.425,24.664Z" transform="translate(-212.305 -994.733)" fill="url(#linear-gradient-2)"/>
            <path id="Trazado_8086" data-name="Trazado 8086" d="M228.05,1021.679l-10.1,1.363-5.594-25.432,13.5-2.827Zm-9.467.456,8.593-1.158-2.058-25.208-11.791,2.47Z" transform="translate(-212.355 -994.784)" fill="url(#linear-gradient-3)"/>
          </g>
          <g id="Grupo_2960" data-name="Grupo 2960" transform="translate(0 21.952)">
            <path id="Trazado_8087" data-name="Trazado 8087" d="M229.542,1016.911l1.98,4.358a2.443,2.443,0,0,1-1.274,3.26l-28.82,12.175a.177.177,0,0,1-.219-.069l-1.076-1.718a2.557,2.557,0,0,1,.409-3.214l17.721-16.772,5.488,3.24a2.441,2.441,0,0,0,2.131.172Z" transform="translate(-199.339 -1014.424)" fill="url(#linear-gradient-3)"/>
            <path id="Trazado_8088" data-name="Trazado 8088" d="M230.816,1024.769a2.825,2.825,0,0,1-.368.186l-28.82,12.175a.582.582,0,0,1-.721-.227l-1.076-1.718a2.972,2.972,0,0,1,.474-3.726l17.943-16.982,5.751,3.4a2.025,2.025,0,0,0,1.777.143l4.02-1.572,2.138,4.709a2.849,2.849,0,0,1-1.118,3.616ZM201.491,1036.3l28.64-12.1a2.034,2.034,0,0,0,1.061-2.716l-1.819-4.007-3.3,1.291a2.831,2.831,0,0,1-2.486-.2l-5.224-3.086-17.5,16.561a2.158,2.158,0,0,0-.344,2.7Z" transform="translate(-199.38 -1014.476)" fill="url(#linear-gradient-3)"/>
          </g>
          <path id="Trazado_8089" data-name="Trazado 8089" d="M230.271,1022.076c-.435.18-10.676,4.4-12.9,4.717-1.275.182-2.1-.714-2.89-1.579-.767-.835-1.492-1.625-2.6-1.482-1.939.249-8.7,5.535-11.136,7.55l-.518-.627c.916-.758,9.027-7.408,11.55-7.731,1.526-.2,2.469.833,3.3,1.74.711.775,1.324,1.444,2.175,1.322,2.125-.3,12.6-4.62,12.705-4.663Z" transform="translate(-199.283 -991.738)" fill="url(#linear-gradient-3)"/>
        </g>
        <g id="Grupo_2962" data-name="Grupo 2962" transform="translate(96.779 10.214)">
          <path id="Trazado_8090" data-name="Trazado 8090" d="M284.775,880.9l-41.608-9.774A7.742,7.742,0,0,1,240,857.615l39.05-32.277,7.745,10.7-23.113,20.838a.177.177,0,0,0,.125.309l29.09-.876Z" transform="translate(-237.189 -825.338)" fill="url(#linear-gradient-2)"/>
          <rect id="Rectángulo_1519" data-name="Rectángulo 1519" width="17.44" height="0.814" transform="translate(13.093 34.856) rotate(-9.366)" fill="url(#linear-gradient-8)"/>
          <rect id="Rectángulo_1520" data-name="Rectángulo 1520" width="0.814" height="5.558" transform="matrix(0.478, -0.879, 0.879, 0.478, 19.997, 29.382)" fill="url(#linear-gradient-9)"/>
        </g>
        <g id="Grupo_2965" data-name="Grupo 2965" transform="translate(0 100.138)">
          <g id="Grupo_2963" data-name="Grupo 2963" transform="translate(24.072)">
            <path id="Trazado_8091" data-name="Trazado 8091" d="M179.1,932.414l19.505-17.4-9.736-8.494-16.409,19.2Z" transform="translate(-171.911 -905.944)" fill="url(#linear-gradient-2)"/>
            <path id="Trazado_8092" data-name="Trazado 8092" d="M179.144,933.033l-7.176-7.238L188.888,906l10.393,9.067Zm-6.07-7.278,6.1,6.158,18.872-16.836-9.079-7.919Z" transform="translate(-171.968 -906.003)" fill="url(#linear-gradient-3)"/>
          </g>
          <g id="Grupo_2964" data-name="Grupo 2964" transform="translate(0 10.921)">
            <path id="Trazado_8093" data-name="Trazado 8093" d="M183.567,930.423l-2.283,4.2a2.443,2.443,0,0,1-3.369.95L150.829,919.92a.176.176,0,0,1-.077-.216l.721-1.894a2.559,2.559,0,0,1,2.811-1.611l24.064,4.03.722,6.332a2.441,2.441,0,0,0,1.147,1.8Z" transform="translate(-150.333 -915.758)" fill="url(#linear-gradient-3)"/>
            <path id="Trazado_8094" data-name="Trazado 8094" d="M180.654,935.944a2.858,2.858,0,0,1-2.9.028l-27.086-15.658a.58.58,0,0,1-.253-.714l.721-1.894a2.971,2.971,0,0,1,3.258-1.866l24.366,4.079.758,6.637a2.023,2.023,0,0,0,.956,1.5l3.677,2.26-2.468,4.545A2.819,2.819,0,0,1,180.654,935.944Zm-29.41-16.237,26.917,15.559a2.035,2.035,0,0,0,2.807-.79l2.1-3.866-3.02-1.857a2.835,2.835,0,0,1-1.339-2.1l-.688-6.028-23.76-3.979A2.155,2.155,0,0,0,151.9,918Z" transform="translate(-150.375 -915.799)" fill="url(#linear-gradient-3)"/>
          </g>
          <path id="Trazado_8095" data-name="Trazado 8095" d="M178.979,934.641c-.406-.239-9.946-5.866-11.54-7.45-.914-.909-.695-2.1-.483-3.258.205-1.116.4-2.169-.383-2.968-1.366-1.4-9.657-3.6-12.736-4.333l.187-.793c1.157.275,11.352,2.739,13.131,4.556,1.077,1.1.825,2.473.6,3.684-.19,1.034-.353,1.927.256,2.533,1.522,1.513,11.28,7.268,11.38,7.326Z" transform="translate(-149.977 -904.874)" fill="url(#linear-gradient-3)"/>
        </g>
        <path id="Trazado_8096" data-name="Trazado 8096" d="M173.681,923.708a60.408,60.408,0,0,0,9.792,11.112l36.247-29.137a1.465,1.465,0,0,1,2.062.226c4.86,6.093,27.647,34.483,33.352,38.392,17.112,11.72,39.555-5.215,39.555-5.215L229.834,878.2a12.472,12.472,0,0,0-18.01.98Z" transform="translate(-147.7 -809.444)" fill="url(#linear-gradient-3)"/>
        <g id="Grupo_2967" data-name="Grupo 2967" transform="translate(138.504 11.243)">
          <g id="Grupo_2966" data-name="Grupo 2966">
            <path id="Trazado_8097" data-name="Trazado 8097" d="M287.777,826.837s1.871,7.108,3.327,13.824c.772,3.569,1.59,6.987,2.277,9.119.56,1.734,4.111,4.067,6.629,6.553,5.135,5.069-29.638,14.032-24.506,3.386.662-1.376,4.645-4.253,5-5.409,1.765-5.743-2.854-21.038-2.854-21.038Z" transform="translate(-274.576 -826.195)" fill="#ffcebd"/>
            <path id="Trazado_8098" data-name="Trazado 8098" d="M298.246,860.706a35.43,35.43,0,0,1-9.411,3.469c-5.838,1.347-10.624,1.337-12.8-.026-1.067-.668-2.08-2-.854-4.541a13.389,13.389,0,0,1,2.639-2.847,11.842,11.842,0,0,0,2.34-2.505c1.709-5.559-2.808-20.649-2.854-20.8l-.089-.3,10.857-6.9.142.538c.019.071,1.89,7.194,3.33,13.841.9,4.149,1.662,7.2,2.267,9.081.33,1.022,1.955,2.4,3.676,3.852.967.817,1.965,1.662,2.852,2.536a1.954,1.954,0,0,1,.055,2.845A8,8,0,0,1,298.246,860.706Zm-20.075-27.19c.653,2.224,4.43,15.561,2.765,20.979-.2.649-1.1,1.515-2.566,2.865a14.058,14.058,0,0,0-2.458,2.6c-.785,1.629-.6,2.772.553,3.5,1.97,1.232,6.64,1.2,12.188-.077,5.27-1.216,9.731-3.2,11.1-4.933.7-.882.374-1.4.012-1.761-.863-.852-1.85-1.687-2.806-2.494-1.891-1.6-3.524-2.98-3.924-4.223-.614-1.9-1.383-4.983-2.289-9.158-1.207-5.573-2.719-11.483-3.182-13.267Z" transform="translate(-274.618 -826.261)" fill="url(#linear-gradient-3)"/>
          </g>
          <path id="Trazado_8099" data-name="Trazado 8099" d="M289.9,835.523s.37,8.516-1.818,11.52-7.948,4.94-7.948,4.94a26.369,26.369,0,0,0-.176-6.857C283.828,837.407,289.9,835.523,289.9,835.523Z" transform="translate(-274.005 -825.198)" fill="url(#linear-gradient-3)"/>
        </g>
        <path id="Trazado_8100" data-name="Trazado 8100" d="M215.58,1025.446l-12.172-70.133a10.966,10.966,0,0,1,6.4-11.916l76.086-33.407,15.968,11.421S298.385,933.7,283.4,944.559c-20.944,15.173-45.6,17.62-51.683,18a1.464,1.464,0,0,0-1.372,1.5l1.437,60.916A53.228,53.228,0,0,1,215.58,1025.446Z" transform="translate(-144.306 -805.407)" fill="url(#linear-gradient-3)"/>
        <path id="Trazado_8101" data-name="Trazado 8101" d="M311.72,860.544C309.51,856.1,296.8,848.122,296.8,848.122s-5.567,10.346-11.356,11.947c-3.955,1.094-3.4-7.724-3.4-7.724a35.051,35.051,0,0,0-3.922,3.156c-8.744,15.478-12.413,45.5-23.563,55.447-4.14,3.694,14.034,20.629,32.185,35.2C310.657,914.489,317.142,871.428,311.72,860.544Z" transform="translate(-138.486 -812.508)" fill="url(#linear-gradient-2)"/>
        <path id="Trazado_8102" data-name="Trazado 8102" d="M306.078,897.761a32.572,32.572,0,0,0-3.144,3.848c-7.907,12.293-27.521,25.229-31.731,27.461,3.6,3.312,8.926,7.614,13.555,11.382C295.1,927.766,301.9,911.5,306.078,897.761Z" transform="translate(-136.506 -806.811)" fill="#a56817"/>
        <g id="Grupo_2969" data-name="Grupo 2969" transform="translate(125.966)">
          <g id="Grupo_2968" data-name="Grupo 2968" transform="translate(1.742 1.56)">
            <path id="Trazado_8103" data-name="Trazado 8103" d="M265.39,828.421c1.332,5.785,6.223,20.25,9.419,22.4,3.5,2.355,12.92-1.865,15.429-6.012,2.146-3.548.561-16.527-2.83-23.279C283.081,812.921,263.824,821.622,265.39,828.421Z" transform="translate(-264.891 -817.533)" fill="#ffcebd"/>
            <path id="Trazado_8104" data-name="Trazado 8104" d="M286.052,849.193a20.7,20.7,0,0,1-6.03,2.461c-2.331.514-4.2.358-5.4-.45-3.361-2.265-8.307-17.09-9.588-22.65h0c-.888-3.859,4.165-7.937,9.371-9.813a16.978,16.978,0,0,1,7.757-1.064,7,7,0,0,1,5.65,3.716c3.487,6.942,5.04,19.995,2.815,23.672A13.61,13.61,0,0,1,286.052,849.193Zm-15.131-27.9c-3.267,1.966-5.649,4.664-5.093,7.079h0c1.327,5.758,6.2,20.1,9.25,22.157,1,.672,2.691.789,4.769.331,4.023-.887,8.547-3.675,10.084-6.216,2.076-3.431.479-16.265-2.847-22.886-2.109-4.2-8-3.837-12.4-2.251A21.577,21.577,0,0,0,270.922,821.293Z" transform="translate(-264.933 -817.575)" fill="#ffcebd"/>
          </g>
          <path id="Trazado_8105" data-name="Trazado 8105" d="M290.164,820.255c-1.271-1.156-4.77-4.023-6.39-4.076-5.4-.174-18,5.073-19.734,6.739-.344.33-.052,1.786.327,3.16a4.851,4.851,0,0,0-.986,1.439c-.238.57,3.642,6.2,3.642,6.2a48.416,48.416,0,0,1-1.109-4.92,23.466,23.466,0,0,0,4.839-.08c2.086-.475,8.647-4.289,10.6-3.76,1.408.381,2.829,6.932,3.566,9.394.106.353,1.449.572,1.525.506.34-.3.546-2.469,1.5-3.127,3.676-2.553,3.375,9.22,3.375,9.22.34-.445,1.6-.777,1.7-1.375C293.56,836.317,292.446,822.333,290.164,820.255Z" transform="translate(-263.371 -816.175)" fill="url(#linear-gradient-3)"/>
        </g>
        <g id="Grupo_2971" data-name="Grupo 2971" transform="translate(162.929 46.591)">
          <g id="Grupo_2970" data-name="Grupo 2970" transform="translate(8.194 86.64)">
            <path id="Trazado_8106" data-name="Trazado 8106" d="M310.788,936.081s-1.357,8.839-2.464,10.286-3.472,4.863-3.785,6.1c-.365,1.449-.387,6.918-.09,7.457a4.489,4.489,0,0,0,1.532,1.131l.946-7.392s-1.079,8.558-.815,8.857c1.74,1.97,7.469,1.026,9.335-.808,1.081-1.065,2.479-6.189,2.6-7.136s-.776-7.973-.68-8.578,1.525-9.235,1.525-9.235Z" transform="translate(-303.837 -935.643)" fill="#ffcebd"/>
            <path id="Trazado_8107" data-name="Trazado 8107" d="M314.9,962.713a11.041,11.041,0,0,1-5.675,1.351,4.756,4.756,0,0,1-3.371-1.226c-.1-.114-.188-.213-.114-1.422a4.223,4.223,0,0,1-1.6-1.247c-.4-.721-.294-6.376.052-7.752.34-1.348,2.79-4.856,3.856-6.25.856-1.119,2.012-7.672,2.385-10.1l.058-.376,8.925.755-.071.435c-.014.086-1.429,8.634-1.524,9.232-.032.262.154,2.1.3,3.573a42.616,42.616,0,0,1,.377,4.994c-.12.927-1.513,6.185-2.721,7.373A4.727,4.727,0,0,1,314.9,962.713Zm-8.374-.347a4.067,4.067,0,0,0,2.728.885c2.242.079,4.857-.7,5.954-1.783.958-.941,2.362-5.956,2.485-6.9.06-.466-.184-2.873-.38-4.807a31.955,31.955,0,0,1-.3-3.782c.083-.521,1.162-7.042,1.453-8.8l-7.291-.616c-.294,1.853-1.443,8.735-2.484,10.1-1.115,1.458-3.425,4.81-3.713,5.955a30.284,30.284,0,0,0-.123,7.171,2.7,2.7,0,0,0,.842.678l.87-6.8.808.1C306.9,957.471,306.46,961.652,306.522,962.366Z" transform="translate(-303.879 -935.688)" fill="#ffcebd"/>
          </g>
          <path id="Trazado_8108" data-name="Trazado 8108" d="M306.3,858.559c10.567,15.213,18.391,36.528,21.242,48.742,1.956,8.381-6.935,48.861-6.935,48.861a30.441,30.441,0,0,1-13.47-1.133s5.891-31.166,2.315-42.862c-2.074-6.784-12.628-22.2-12.628-22.2C298.826,868.237,303.8,854.947,306.3,858.559Z" transform="translate(-296.493 -857.969)" fill="url(#linear-gradient-2)"/>
          <path id="Trazado_8109" data-name="Trazado 8109" d="M310.408,931.14l-.81-.075c.963-10.408.8-17.827-.495-22.05-2.031-6.646-12.47-21.937-12.575-22.091l.671-.459c.433.631,10.614,15.547,12.682,22.311C311.2,913.1,311.38,920.626,310.408,931.14Z" transform="translate(-296.528 -854.698)" fill="url(#linear-gradient-3)"/>
        </g>
      </g>
    </g>
    <g id="Grupo_2976" data-name="Grupo 2976" transform="translate(209.66 782.568)">
      <g id="Grupo_2974" data-name="Grupo 2974" transform="translate(0)">
        <path id="Trazado_8110" data-name="Trazado 8110" d="M264.407,781.677H203.579a4.07,4.07,0,0,0-4.031,4.109v31.1a4.07,4.07,0,0,0,4.031,4.108h40.444l5.914,5.552,6.523,6.122,1.067-8.971.321-2.7h6.559a4.071,4.071,0,0,0,4.032-4.108v-31.1A4.071,4.071,0,0,0,264.407,781.677Z" transform="translate(-199.548 -781.677)" fill="#fff"/>
        <path id="Trazado_8111" data-name="Trazado 8111" d="M264.331,782H203.656a4.107,4.107,0,0,0-4.108,4.108V816.48a4.107,4.107,0,0,0,4.108,4.108h40.161l6.421,5.916,6.645,6.122,1.087-8.971.371-3.068h5.99a4.108,4.108,0,0,0,4.108-4.108V786.112A4.108,4.108,0,0,0,264.331,782Z" transform="translate(-199.548 -781.64)" fill="none" stroke="#2842a2" stroke-miterlimit="10" stroke-width="1" opacity="0.5"/>
      </g>
      <g id="Grupo_2975" data-name="Grupo 2975" transform="translate(18.049 3.091)">
        <path id="Trazado_8112" data-name="Trazado 8112" d="M15.734,0A15.734,15.734,0,1,1,0,15.734,15.734,15.734,0,0,1,15.734,0Z" fill="#ffce00"/>
        <rect id="Rectángulo_1521" data-name="Rectángulo 1521" width="8.087" height="1.213" rx="0.394" transform="translate(5.391 11.626)" fill="#9b6d1b"/>
        <rect id="Rectángulo_1522" data-name="Rectángulo 1522" width="8.087" height="1.213" rx="0.394" transform="translate(18.297 11.626)" fill="#9b6d1b"/>
        <rect id="Rectángulo_1523" data-name="Rectángulo 1523" width="13.555" height="1.232" rx="0.394" transform="translate(8.785 20.204)" fill="#9b6d1b"/>
      </g>
    </g>
  </g>
</svg>
