<svg xmlns="http://www.w3.org/2000/svg" width="193.5" height="174.374" viewBox="0 0 193.5 174.374">
  <g id="Grupo_1067" data-name="Grupo 1067" transform="translate(-56.111 -78.112)">
    <ellipse id="Elipse_78" data-name="Elipse 78" cx="96.75" cy="5.65" rx="96.75" ry="5.65" transform="translate(56.111 241.186)" fill="#f0f6ff"/>
    <g id="Grupo_1066" data-name="Grupo 1066" transform="translate(62.965 78.112)">
      <g id="Grupo_1060" data-name="Grupo 1060">
        <path id="Trazado_3262" data-name="Trazado 3262" d="M151.59,110.778c0-.007,0-.013,0-.02s0-.01,0-.016a17.612,17.612,0,0,0-.225-2.773,17.434,17.434,0,0,0-17.05-14.62l-.121,0h-.031a17.606,17.606,0,0,0-2.773.225,17.3,17.3,0,0,0-11.33,7.011c-.262.364-.5.737-.736,1.116a.352.352,0,0,0-.048.079,17.235,17.235,0,0,0-2.507,8.962c0,.007,0,.013,0,.02s0,.01,0,.016a17.6,17.6,0,0,0,.224,2.773,17.446,17.446,0,0,0,17.16,14.626,17.565,17.565,0,0,0,2.816-.228,17.294,17.294,0,0,0,11.33-7.011c.262-.364.5-.738.736-1.116a.364.364,0,0,0,.048-.079A17.237,17.237,0,0,0,151.59,110.778Zm-34.07-.394a16.5,16.5,0,0,1,2.311-8.084h5.445a27.412,27.412,0,0,0-1.29,8.084Zm8.519-8.084H133.8v8.084h-9.074A26.663,26.663,0,0,1,126.038,102.3Zm8.514-.748V94.108a6.078,6.078,0,0,1,3.014,1.109,13.306,13.306,0,0,1,4.472,6.336Zm7.752.748a25.511,25.511,0,0,1,1.2,5.763c.073.779.111,1.553.122,2.321h-9.073V102.3Zm-9.6-8a5.418,5.418,0,0,1,1.1-.19v7.443h-7.5C127.718,97.806,129.982,95.067,132.706,94.3Zm1.1,16.832v8.084h-7.752a25.522,25.522,0,0,1-1.2-5.763c-.073-.779-.111-1.553-.122-2.321Zm0,8.831v7.445a6.083,6.083,0,0,1-3.014-1.109,13.3,13.3,0,0,1-4.472-6.336Zm1.846,7.253a5.418,5.418,0,0,1-1.1.19v-7.443h7.5C140.64,123.71,138.375,126.45,135.651,127.216Zm-1.1-8v-8.084h9.074a26.684,26.684,0,0,1-1.307,8.084Zm9.819-8.084h6.467a16.5,16.5,0,0,1-2.311,8.084h-5.445A27.4,27.4,0,0,0,144.372,111.132Zm6.466-.747h-6.465c-.01-.791-.049-1.588-.124-2.39a26.736,26.736,0,0,0-1.141-5.694h5.43a16.6,16.6,0,0,1,2.09,5.788A16.811,16.811,0,0,1,150.838,110.384Zm-6.92-13.139a16.688,16.688,0,0,1,4.152,4.307h-5.218A14.091,14.091,0,0,0,137.99,94.6c-.052-.036-.106-.069-.159-.1A16.664,16.664,0,0,1,143.918,97.246Zm-13.41-2.74a14.076,14.076,0,0,0-4.975,7.047H120.3c.119-.179.239-.358.365-.534A16.541,16.541,0,0,1,130.508,94.506Zm-12.989,16.626h6.466c.01.79.049,1.588.124,2.39a26.735,26.735,0,0,0,1.141,5.694h-5.43a16.607,16.607,0,0,1-2.09-5.788A16.874,16.874,0,0,1,117.519,111.132Zm2.768,8.831h5.218a14.093,14.093,0,0,0,4.862,6.952c.054.037.109.069.164.1a16.78,16.78,0,0,1-10.243-7.057Zm17.561,7.047a14.078,14.078,0,0,0,4.975-7.047h5.232c-.119.179-.239.358-.366.534A16.542,16.542,0,0,1,137.849,127.01Z" transform="translate(-93.353 -85.744)" fill="#318fff" opacity="0.2" style="mix-blend-mode: multiply;isolation: isolate"/>
        <g id="Grupo_1053" data-name="Grupo 1053" transform="translate(7.918 33.329)">
          <rect id="Rectángulo_944" data-name="Rectángulo 944" width="156.883" height="38.011" transform="translate(7.072)" fill="#9fc6ff"/>
          <rect id="Rectángulo_945" data-name="Rectángulo 945" width="156.883" height="38.011" transform="translate(3.536 3.536)" fill="#0053cc"/>
          <rect id="Rectángulo_946" data-name="Rectángulo 946" width="156.883" height="38.011" transform="translate(0 7.072)" fill="#318fff"/>
          <rect id="Rectángulo_947" data-name="Rectángulo 947" width="23.042" height="141.913" transform="translate(149.398 14.557) rotate(90)" fill="#fff"/>
          <rect id="Rectángulo_948" data-name="Rectángulo 948" width="23.042" height="0.832" transform="translate(125.525 37.599) rotate(-90)" fill="#9fc6ff"/>
          <rect id="Rectángulo_949" data-name="Rectángulo 949" width="16.689" height="0.832" transform="translate(11.021 34.422) rotate(-90)" fill="#9fc6ff"/>
          <g id="Grupo_1052" data-name="Grupo 1052" transform="translate(133.402 21.603)">
            <path id="Trazado_3263" data-name="Trazado 3263" d="M356.736,195.557a3.681,3.681,0,1,1,2.6-6.284h0a3.68,3.68,0,0,1-2.6,6.284Zm0-6.363a2.683,2.683,0,1,0,1.9.785h0A2.674,2.674,0,0,0,356.736,189.194Z" transform="translate(-353.055 -188.197)" fill="#9fc6ff"/>
            <path id="Trazado_3264" data-name="Trazado 3264" d="M366.965,202.6a.5.5,0,0,1-.353-.146l-2.52-2.52a.5.5,0,1,1,.706-.706l2.52,2.52a.5.5,0,0,1-.353.852Z" transform="translate(-358.511 -193.652)" fill="#9fc6ff"/>
          </g>
        </g>
        <g id="Grupo_1054" data-name="Grupo 1054" transform="translate(95.461 10.349)">
          <rect id="Rectángulo_950" data-name="Rectángulo 950" width="15.689" height="0.389" fill="#9fc6ff"/>
          <rect id="Rectángulo_951" data-name="Rectángulo 951" width="15.689" height="0.389" transform="translate(0 1.653)" fill="#9fc6ff"/>
          <rect id="Rectángulo_952" data-name="Rectángulo 952" width="15.689" height="0.389" transform="translate(0 3.307)" fill="#9fc6ff"/>
          <rect id="Rectángulo_953" data-name="Rectángulo 953" width="15.689" height="0.389" transform="translate(0 4.96)" fill="#9fc6ff"/>
          <rect id="Rectángulo_954" data-name="Rectángulo 954" width="15.689" height="0.389" transform="translate(0 6.613)" fill="#9fc6ff"/>
          <rect id="Rectángulo_955" data-name="Rectángulo 955" width="10.228" height="0.389" transform="translate(0 8.267)" fill="#9fc6ff"/>
        </g>
        <g id="Grupo_1055" data-name="Grupo 1055" transform="translate(0 81.698)">
          <rect id="Rectángulo_956" data-name="Rectángulo 956" width="16.716" height="0.249" fill="#9fc6ff"/>
          <rect id="Rectángulo_957" data-name="Rectángulo 957" width="16.716" height="0.249" transform="translate(0 1.059)" fill="#9fc6ff"/>
          <rect id="Rectángulo_958" data-name="Rectángulo 958" width="16.716" height="0.249" transform="translate(0 2.117)" fill="#9fc6ff"/>
          <rect id="Rectángulo_959" data-name="Rectángulo 959" width="16.716" height="0.249" transform="translate(0 3.176)" fill="#9fc6ff"/>
          <rect id="Rectángulo_960" data-name="Rectángulo 960" width="16.716" height="0.249" transform="translate(0 4.235)" fill="#9fc6ff"/>
          <rect id="Rectángulo_961" data-name="Rectángulo 961" width="10.507" height="0.249" transform="translate(0 5.294)" fill="#9fc6ff"/>
        </g>
        <g id="Grupo_1056" data-name="Grupo 1056" transform="translate(68.503 6.597)">
          <path id="Trazado_3265" data-name="Trazado 3265" d="M210.281,103.762h0a3.154,3.154,0,0,0-3.154,3.154v10.4a3.154,3.154,0,0,0,3.154,3.154h0a3.154,3.154,0,0,0,3.154-3.154v-10.4A3.154,3.154,0,0,0,210.281,103.762Z" transform="translate(-207.127 -97.56)" fill="#318fff"/>
          <path id="Trazado_3266" data-name="Trazado 3266" d="M226.119,91.333h0a3.154,3.154,0,0,0-3.154,3.154v16.606a3.154,3.154,0,0,0,3.154,3.154h0a3.154,3.154,0,0,0,3.154-3.154V94.487A3.154,3.154,0,0,0,226.119,91.333Z" transform="translate(-215.062 -91.333)" fill="#0053cc"/>
          <path id="Trazado_3267" data-name="Trazado 3267" d="M241.958,116.19h0a3.154,3.154,0,0,0-3.154,3.154v4.2a3.154,3.154,0,0,0,3.154,3.154h0a3.154,3.154,0,0,0,3.154-3.154v-4.2A3.154,3.154,0,0,0,241.958,116.19Z" transform="translate(-222.997 -103.786)" fill="#9fc6ff"/>
        </g>
        <g id="Grupo_1058" data-name="Grupo 1058" transform="translate(141.818 67.751)">
          <g id="Grupo_1057" data-name="Grupo 1057" transform="translate(3.238)">
            <path id="Trazado_3268" data-name="Trazado 3268" d="M369.557,236.461h12.751l-21.767-22.574h0l9.016,22.574" transform="translate(-360.541 -213.887)" fill="#197bdd"/>
          </g>
          <path id="Trazado_3269" data-name="Trazado 3269" d="M354.052,224.548l3.238-10.661,1.835,10.661Z" transform="translate(-354.052 -213.887)" fill="#9fc6ff" style="mix-blend-mode: multiply;isolation: isolate"/>
          <path id="Trazado_3270" data-name="Trazado 3270" d="M360.541,213.887v31.591l2.254-2.254,6.762-6.762Z" transform="translate(-357.303 -213.887)" fill="#4ea4f9"/>
        </g>
        <g id="Grupo_1059" data-name="Grupo 1059" transform="translate(134.316)">
          <path id="Trazado_3271" data-name="Trazado 3271" d="M372.3,78.112h-27.94a5.368,5.368,0,0,0-5.345,5.345V97.885a5.368,5.368,0,0,0,5.345,5.345h20.5l-.149,5.046,5.177-5.046H372.3a5.368,5.368,0,0,0,5.345-5.345V83.457A5.368,5.368,0,0,0,372.3,78.112Zm-28.576,6.149a1.5,1.5,0,0,1,1.495-1.5h6.43a1.486,1.486,0,0,1,0,2.972h-6.43A1.5,1.5,0,0,1,343.728,84.261Zm26.988,13.96H359.6a1.476,1.476,0,1,1,0-2.953h11.12a1.476,1.476,0,0,1,0,2.953Zm0-6.242h-24a1.477,1.477,0,0,1,0-2.953h24a1.477,1.477,0,0,1,0,2.953Zm0-6.242h-14.2a1.486,1.486,0,0,1,0-2.972h14.2a1.486,1.486,0,0,1,0,2.972Z" transform="translate(-339.018 -78.112)" fill="#197bdd"/>
        </g>
      </g>
      <g id="Grupo_1065" data-name="Grupo 1065" transform="translate(21.188 23.983)">
        <g id="Grupo_1062" data-name="Grupo 1062">
          <path id="Trazado_3272" data-name="Trazado 3272" d="M267.534,160.872A26.8,26.8,0,0,0,262.17,152H222.494a26.8,26.8,0,0,0-5.364,8.872l5.489,27.325a26.812,26.812,0,0,0,44.915-27.325Z" transform="translate(-164.824 -139.113)" fill="#318fff"/>
          <path id="Trazado_3273" data-name="Trazado 3273" d="M267.5,180.174a26.721,26.721,0,0,1-7.066,16.931H221.007a26.852,26.852,0,0,1-5.489-27.325h50.4A26.654,26.654,0,0,1,267.5,180.174Z" transform="translate(-163.211 -148.02)" fill="#fff"/>
          <path id="Trazado_3274" data-name="Trazado 3274" d="M267.5,162.455a26.753,26.753,0,1,1-1.582-10.394A26.721,26.721,0,0,1,267.5,162.455Z" transform="translate(-163.211 -130.301)" fill="#d4e8ff" opacity="0.4"/>
          <path id="Trazado_3275" data-name="Trazado 3275" d="M256.2,139.976l-38.553,35.158c-.2-.356-.387-.717-.57-1.081a26.449,26.449,0,0,1-2.429-7.481v0l33.3-30.367A26.6,26.6,0,0,1,256.2,139.976Z" transform="translate(-163.582 -131.198)" fill="#d4e8ff" opacity="0.4"/>
          <path id="Trazado_3276" data-name="Trazado 3276" d="M272.445,160.682,236.2,193.734a26.771,26.771,0,0,1-9.718-7.305l39.58-36.1A26.815,26.815,0,0,1,272.445,160.682Z" transform="translate(-169.508 -138.277)" fill="#d4e8ff" opacity="0.4"/>
          <path id="Trazado_3277" data-name="Trazado 3277" d="M263.362,141.632a30.916,30.916,0,1,0-11.308,42.236A30.917,30.917,0,0,0,263.362,141.632Zm-47.9,27.663a24.394,24.394,0,1,1,33.327,8.926A24.395,24.395,0,0,1,215.466,169.295Z" transform="translate(-159.082 -126.173)" fill="#197bdd"/>
          <g id="Grupo_1061" data-name="Grupo 1061" transform="translate(4.642 62.732)">
            <path id="Trazado_3278" data-name="Trazado 3278" d="M123.332,251.89l3.821.891-3.165,2.364s-2.271-1.031-2.377-2.643Z" transform="translate(-121.61 -251.89)" fill="#ff8b7b"/>
            <path id="Trazado_3279" data-name="Trazado 3279" d="M131.587,256.219l-2.757,1.835-2.456-2.016,3.165-2.364Z" transform="translate(-123.997 -252.784)" fill="#ff8b7b"/>
          </g>
          <path id="Trazado_3280" data-name="Trazado 3280" d="M167.777,215.164c-4.063,3-8.225,5.834-12.416,8.616s-8.426,5.487-12.688,8.146-8.555,5.264-12.88,7.814c-2.153,1.291-4.332,2.536-6.5,3.807a12.774,12.774,0,0,1-3.464,1.532,10.728,10.728,0,0,1-1.982.332,8.372,8.372,0,0,1-2.242-.116,4.1,4.1,0,0,1-3.223-4.816,4.641,4.641,0,0,1,.14-.521,8.377,8.377,0,0,1,1.019-2,10.779,10.779,0,0,1,1.278-1.551,12.785,12.785,0,0,1,3.057-2.234c2.183-1.24,4.35-2.506,6.544-3.726,4.37-2.472,8.78-4.875,13.2-7.251s8.895-4.676,13.4-6.92,9.036-4.43,13.668-6.45a3.1,3.1,0,0,1,3.083,5.338Z" transform="translate(-112.307 -167.954)" fill="#197bdd"/>
        </g>
        <g id="Grupo_1064" data-name="Grupo 1064" transform="translate(2.839 13.304)">
          <path id="Trazado_3281" data-name="Trazado 3281" d="M127.06,202.315c-.249.4-.536.894-.8,1.351s-.532.941-.785,1.422c-.518.954-1.016,1.922-1.482,2.9s-.9,1.978-1.313,2.983c-.2.505-.406,1.007-.591,1.516l-.279.763c-.056.144-.065.2-.1.306s-.052.206-.08.308a15.463,15.463,0,0,0-.292,3.008c-.028,1.069.011,2.165.056,3.266s.124,2.212.224,3.321c.078,1.11.2,2.232.3,3.331l-1.927.4c-.338-1.116-.6-2.221-.868-3.343-.243-1.123-.464-2.253-.655-3.4s-.328-2.3-.412-3.492a17.554,17.554,0,0,1,.095-3.745c.033-.174.054-.338.1-.519s.091-.386.13-.508l.244-.848c.162-.566.347-1.123.534-1.68.385-1.109.8-2.206,1.272-3.279s.969-2.133,1.511-3.174c.273-.518.561-1.031.855-1.542s.591-1,.957-1.544Z" transform="translate(-117.997 -176.525)" fill="#ff8b7b"/>
          <path id="Trazado_3282" data-name="Trazado 3282" d="M130.793,410.014a4.758,4.758,0,0,1-1.026-.139.094.094,0,0,1-.069-.074.092.092,0,0,1,.04-.093c.133-.087,1.314-.846,1.764-.644a.313.313,0,0,1,.183.258.523.523,0,0,1-.152.489A1.115,1.115,0,0,1,130.793,410.014Zm-.765-.27a1.838,1.838,0,0,0,1.382-.068.346.346,0,0,0,.094-.327.131.131,0,0,0-.077-.116C131.189,409.127,130.508,409.453,130.027,409.744Z" transform="translate(-123.858 -281.19)" fill="#0053cc"/>
          <path id="Trazado_3283" data-name="Trazado 3283" d="M129.788,408.962a.092.092,0,0,1-.092-.092c0-.047.005-1.166.428-1.54a.475.475,0,0,1,.39-.123.321.321,0,0,1,.309.257c.088.438-.618,1.275-.989,1.486A.087.087,0,0,1,129.788,408.962Zm.661-1.575a.3.3,0,0,0-.2.08,2.107,2.107,0,0,0-.36,1.224c.369-.295.81-.925.756-1.191-.009-.043-.034-.1-.152-.11Z" transform="translate(-123.858 -280.274)" fill="#0053cc"/>
          <path id="Trazado_3284" data-name="Trazado 3284" d="M166,410.015a6.641,6.641,0,0,1-1.223-.139.093.093,0,0,1-.073-.077.091.091,0,0,1,.049-.094c.175-.091,1.722-.881,2.2-.621a.3.3,0,0,1,.156.245.509.509,0,0,1-.166.448A1.456,1.456,0,0,1,166,410.015Zm-.917-.27a2.479,2.479,0,0,0,1.736-.106.33.33,0,0,0,.106-.294.115.115,0,0,0-.061-.1C166.61,409.1,165.724,409.44,165.087,409.745Z" transform="translate(-141.399 -281.19)" fill="#0053cc"/>
          <path id="Trazado_3285" data-name="Trazado 3285" d="M164.8,408.963a.088.088,0,0,1-.053-.017.091.091,0,0,1-.039-.082,2.594,2.594,0,0,1,.582-1.5.675.675,0,0,1,.509-.159c.255.026.328.155.345.259.072.44-.844,1.278-1.307,1.488A.091.091,0,0,1,164.8,408.963Zm.926-1.575a.481.481,0,0,0-.318.12,2.128,2.128,0,0,0-.5,1.2c.472-.286,1.094-.946,1.051-1.21,0-.022-.015-.089-.183-.106Z" transform="translate(-141.399 -280.275)" fill="#0053cc"/>
          <path id="Trazado_3286" data-name="Trazado 3286" d="M147.257,174.494c.3,2.329,1.018,7.054-.691,8.484,0,0,.477,2.374,4.751,2.652,4.7.3,2.4-2.187,2.4-2.187-2.525-.779-2.335-2.678-1.772-4.436Z" transform="translate(-132.31 -163.686)" fill="#ff8b7b"/>
          <path id="Trazado_3287" data-name="Trazado 3287" d="M165.289,163.728a.184.184,0,0,1-.162-.271,1.825,1.825,0,0,1,1.364-.981.184.184,0,0,1,.032.366h0a1.459,1.459,0,0,0-1.071.789A.185.185,0,0,1,165.289,163.728Z" transform="translate(-141.598 -157.665)" fill="#0f264c"/>
          <path id="Trazado_3288" data-name="Trazado 3288" d="M168.159,169.1a8.353,8.353,0,0,0,1.3,1.886,1.348,1.348,0,0,1-1.092.313Z" transform="translate(-143.128 -160.985)" fill="#ff5652"/>
          <path id="Trazado_3289" data-name="Trazado 3289" d="M167.494,167.478c.029.312.219.549.423.53s.345-.288.316-.6-.219-.549-.423-.53S167.465,167.166,167.494,167.478Z" transform="translate(-142.793 -159.87)" fill="#0f264c"/>
          <path id="Trazado_3290" data-name="Trazado 3290" d="M167.954,166.643l.729-.287S168.354,166.978,167.954,166.643Z" transform="translate(-143.026 -159.609)" fill="#0f264c"/>
          <path id="Trazado_3291" data-name="Trazado 3291" d="M156.332,401.512h3.885l.259-9h-3.885Z" transform="translate(-137.203 -272.916)" fill="#ff8b7b"/>
          <path id="Trazado_3292" data-name="Trazado 3292" d="M120.962,401.512h3.885l1.249-9h-3.885Z" transform="translate(-119.483 -272.916)" fill="#ff8b7b"/>
          <path id="Trazado_3293" data-name="Trazado 3293" d="M124.031,409.642h-4.364a.308.308,0,0,0-.31.265l-.5,3.453a.624.624,0,0,0,.623.691c1.521-.026,2.254-.116,4.174-.116,1.181,0,2.906.123,4.536.123,1.595,0,1.718-1.612,1.038-1.758a7.6,7.6,0,0,1-4.55-2.419A1.016,1.016,0,0,0,124.031,409.642Z" transform="translate(-118.427 -281.496)" fill="#14365b"/>
          <path id="Trazado_3294" data-name="Trazado 3294" d="M159.186,409.642h-4.364a.308.308,0,0,0-.31.265l-.5,3.453a.624.624,0,0,0,.623.691c1.521-.026,2.255-.116,4.174-.116,1.181,0,3.623.123,5.253.123,1.594,0,1.717-1.612,1.038-1.758a10.529,10.529,0,0,1-5.268-2.419A1.016,1.016,0,0,0,159.186,409.642Z" transform="translate(-136.039 -281.496)" fill="#14365b"/>
          <g id="Grupo_1063" data-name="Grupo 1063" transform="translate(2.081 119.603)">
            <path id="Trazado_3295" data-name="Trazado 3295" d="M160.6,392.521l-.133,4.637H156.58l.133-4.637Z" transform="translate(-139.409 -392.521)" fill="#ea7063"/>
            <path id="Trazado_3296" data-name="Trazado 3296" d="M122.814,392.521H126.7l-.646,4.637h-3.886Z" transform="translate(-122.168 -392.521)" fill="#ea7063"/>
          </g>
          <path id="Trazado_3297" data-name="Trazado 3297" d="M131.534,199.01a19.928,19.928,0,0,1-2.55,3.2l-.444-.294-4.92-3.288s2.7-5.948,4.706-6.272c1.931-.309,3.338,1.687,4,3.822A3.867,3.867,0,0,1,131.534,199.01Z" transform="translate(-120.814 -172.62)" fill="#9fc6ff"/>
          <path id="Trazado_3298" data-name="Trazado 3298" d="M136.474,204.483a19.929,19.929,0,0,1-2.55,3.2l-.444-.294c.22-1.8.918-3.578,1.717-4.142C135.686,203.3,136.12,203.819,136.474,204.483Z" transform="translate(-125.754 -178.093)" fill="#77b3fc"/>
          <path id="Trazado_3299" data-name="Trazado 3299" d="M153.09,201.58v0c-.235,1.492-.539,3.258-.948,5.349-.519,2.675-1.2,5.883-2.081,9.72-6.247-.409-12.7-.828-15.743-1.023.679-6.392.943-10.344-1.267-23.692a46.319,46.319,0,0,1,6.746-.444,50.18,50.18,0,0,1,7.146.464c3.054.479,6.487,1.417,6.487,1.417S154.307,193.751,153.09,201.58Z" transform="translate(-125.539 -172.201)" fill="#9fc6ff"/>
          <path id="Trazado_3300" data-name="Trazado 3300" d="M170.1,211.354v0c-.235,1.492-.539,3.258-.948,5.349A38.662,38.662,0,0,1,167,211h2.924Z" transform="translate(-142.548 -181.976)" fill="#77b3fc"/>
          <path id="Trazado_3301" data-name="Trazado 3301" d="M146.21,161.753c.6,3.809.768,5.434,2.888,7.218,3.19,2.683,7.737,1.117,8.291-2.793.5-3.52-.561-9.157-4.455-10.328A5.258,5.258,0,0,0,146.21,161.753Z" transform="translate(-132.098 -154.227)" fill="#ff8b7b"/>
          <path id="Trazado_3302" data-name="Trazado 3302" d="M139.972,240.618s-.249,6.931-.848,15.673c-.5,7.335-1.253,15.938-2.305,22.794-.01.065-.02.125-.03.19-1.891,12.136-10.269,40.5-10.269,40.5h-5.3s4.366-27.395,5.324-39.4c2.43-30.374-3.658-33.812,1.846-40.509Z" transform="translate(-119.612 -196.44)" fill="#0053cc"/>
          <path id="Trazado_3303" data-name="Trazado 3303" d="M152.028,265.12c-.5,7.335-1.253,15.938-2.305,22.794-1.791-8.907-4.735-21.916-.783-30.424C149.883,259.9,151,262.63,152.028,265.12Z" transform="translate(-132.516 -205.267)" fill="#004daa"/>
          <path id="Trazado_3304" data-name="Trazado 3304" d="M155.561,241.164s4.478,26.621,4.224,38.467c-.265,12.322-4.78,40.424-4.78,40.424h-5.253s.831-27.382.367-39.483c-.506-13.192-6.087-40.156-6.087-40.156Z" transform="translate(-131.041 -196.713)" fill="#0053cc"/>
          <path id="Trazado_3305" data-name="Trazado 3305" d="M153.452,398.132h7.041l.549-2.363-7.84.054Z" transform="translate(-135.635 -274.545)" fill="#0f264c"/>
          <path id="Trazado_3306" data-name="Trazado 3306" d="M119.682,398.132h7.041l.549-2.363-7.542.054Z" transform="translate(-118.841 -274.545)" fill="#0f264c"/>
          <path id="Trazado_3307" data-name="Trazado 3307" d="M134.413,237.881l-.8,1.363c-.062.106.06.226.242.238l16.51,1.072c.142.009.264-.052.279-.141l.234-1.4c.016-.1-.1-.188-.257-.2l-15.942-1.035A.286.286,0,0,0,134.413,237.881Z" transform="translate(-125.812 -195.392)" fill="#0f264c"/>
          <path id="Trazado_3308" data-name="Trazado 3308" d="M138.725,239.787l-.427-.027c-.085-.005-.147-.054-.138-.107l.319-1.818c.009-.053.086-.092.172-.087l.427.028c.085.005.147.053.138.107L138.9,239.7C138.887,239.754,138.81,239.793,138.725,239.787Z" transform="translate(-128.098 -195.377)" fill="#0053cc"/>
          <path id="Trazado_3309" data-name="Trazado 3309" d="M159.465,241.135l-.427-.028c-.085-.005-.147-.053-.137-.107l.319-1.818c.009-.053.087-.092.172-.087l.427.028c.085.005.147.053.138.107l-.319,1.818C159.628,241.1,159.551,241.14,159.465,241.135Z" transform="translate(-138.49 -196.052)" fill="#0053cc"/>
          <path id="Trazado_3310" data-name="Trazado 3310" d="M171.844,203.314c.6,2,1.168,4.016,1.722,6.031l1.67,6.032.21.748.052.187.026.092.016.048a1.509,1.509,0,0,0,.064.2,3.021,3.021,0,0,0,.522.837,8.129,8.129,0,0,0,2.044,1.577,26.151,26.151,0,0,0,5.482,2.216l-.285,1.947a20.816,20.816,0,0,1-6.527-1.409,10.371,10.371,0,0,1-3.138-1.939,6.181,6.181,0,0,1-1.3-1.708,5.074,5.074,0,0,1-.235-.53l-.054-.136-.034-.095-.066-.188-.265-.751q-1.043-3-1.959-6.017c-.627-2.01-1.218-4.024-1.766-6.059Z" transform="translate(-143.06 -178.125)" fill="#ff8b7b"/>
          <path id="Trazado_3311" data-name="Trazado 3311" d="M168.746,194.88c1.992.652,4.091,7.182,4.091,7.182l-7.206,3.1s-3.011-7.324-1.668-9C165.362,194.417,166.455,194.131,168.746,194.88Z" transform="translate(-140.854 -173.705)" fill="#9fc6ff"/>
          <path id="Trazado_3312" data-name="Trazado 3312" d="M148.255,154.242c-1.275-1.574-11.105-2.7-11.631,1.586-3.482,2.444-.177,8.761.322,10.369-2.412.665-10.174,3.324-4.518,8.481s14.207,4.279,15.876-1.057c1.167-3.733-2.542-9.975-2.459-12.165S150.434,156.93,148.255,154.242Z" transform="translate(-124.215 -152.835)" fill="#0f264c"/>
          <path id="Trazado_3313" data-name="Trazado 3313" d="M141.606,170a.125.125,0,0,1-.1-.045c-.9-1.1-4.042-6.865-2.942-9.614a2.39,2.39,0,0,1,2.108-1.484.125.125,0,1,1,.03.247,2.155,2.155,0,0,0-1.907,1.329c-1.064,2.656,2.018,8.285,2.9,9.363a.125.125,0,0,1-.017.176A.123.123,0,0,1,141.606,170Z" transform="translate(-128.187 -155.854)" fill="#0f264c"/>
          <path id="Trazado_3314" data-name="Trazado 3314" d="M159.82,168.384a3.3,3.3,0,0,0,.977,1.907c.709.677,1.377.212,1.443-.648.059-.774-.239-2.059-1.077-2.415S159.712,167.518,159.82,168.384Z" transform="translate(-138.944 -159.997)" fill="#ff8b7b"/>
        </g>
        <path id="Trazado_3315" data-name="Trazado 3315" d="M192.825,237.277l2.838-.963-.447,3.4s-1.115.518-2.562-.755l-1.383-.886,1.087-.595A2.942,2.942,0,0,1,192.825,237.277Z" transform="translate(-151.869 -181.354)" fill="#ff8b7b"/>
        <path id="Trazado_3316" data-name="Trazado 3316" d="M201.6,236.293l-.868,2.977-1.557.437.447-3.4Z" transform="translate(-155.829 -181.344)" fill="#ff8b7b"/>
      </g>
    </g>
  </g>
</svg>
