<?xml version="1.0" encoding="utf-8"?>
<!-- Generator: Adobe Illustrator 23.0.5, SVG Export Plug-In . SVG Version: 6.00 Build 0)  -->
<svg version="1.1" id="Capa_1" xmlns="http://www.w3.org/2000/svg" xmlns:xlink="http://www.w3.org/1999/xlink" x="0px" y="0px"
	 viewBox="0 0 429 422" style="enable-background:new 0 0 429 422;" xml:space="preserve">
<style type="text/css">
	.st0{fill:#fc738f;}
</style>
<title>img_atras</title>
<desc>Created with Sketch.</desc>
<g id="Page-1">
	<g transform="translate(-43.000000, -43.000000)">
		<g id="img_atras" transform="translate(26.361000, 22.186000)">
			<path id="Trazado_1564" class="st0" d="M209.1,83.2L78.3,207.7c-7,6.2-10.9,15-10.6,24.1c-0.3,9.1,3.5,18,10.5,24.2l130.9,124.5
				c32.8,31.2,83.5-17.1,50.8-48.3L154.5,231.8l105.5-100.3C292.7,100.3,241.9,52,209.1,83.2z"/>
			<path id="Trazado_1565" class="st0" d="M373.2,83.2L242.3,207.7c-7,6.2-10.9,15-10.6,24.1c-0.3,9.1,3.5,18,10.5,24.2l130.9,124.5
				c32.8,31.2,83.5-17.1,50.8-48.3L318.5,231.8L424,131.5C456.7,100.3,406,52,373.2,83.2z"/>
		</g>
	</g>
</g>
</svg>