<svg xmlns="http://www.w3.org/2000/svg" width="60.38" height="45.309" viewBox="0 0 60.38 45.309">
  <g id="Grupo_1836" data-name="Grupo 1836" transform="translate(-56.555 -268.029)">
    <g id="Grupo_516" data-name="Grupo 516" transform="translate(-6 -2)">
      <path id="Trazado_1500" data-name="Trazado 1500" d="M3675.391,664.217s-2.127,2.308-6.063,0-12.782-1.635-14.417,5.577-7.019,5.288-8.173,8.942-6.635,3.942-6.923,8.461,4.231,12.5,21.057,13.75,19.711.481,26.249.481,11.058-6.25,10.48-10.288-3.077-5.4-7.4-7.6-2.308-4.609,1.539-8.743,6.153-9.327,3.365-12.884-8.173-3.846-19.711,2.308Z" transform="translate(-3576.731 -389.352)" fill="#bfe4f4"/>
      <path id="Trazado_1501" data-name="Trazado 1501" d="M3705.841,841.313h16.346l-1.632,18.895a2.471,2.471,0,0,1-2.462,2.258h-7.8a2.471,2.471,0,0,1-2.458-2.212l-2-18.941Z" transform="translate(-3634.488 -548.468)" fill="#ae1c77"/>
      <path id="Trazado_1506" data-name="Trazado 1506" d="M3641.265,883.969a2.788,2.788,0,1,1-2.789-2.788,2.788,2.788,0,0,1,2.789,2.788Z" transform="translate(-3573.133 -583.336)" fill="#f78c00"/>
      <path id="Trazado_1507" data-name="Trazado 1507" d="M3643.916,887.065a2.344,2.344,0,1,1-2.344-2.344,2.345,2.345,0,0,1,2.344,2.344Z" transform="translate(-3576.228 -586.433)" fill="#eb6208"/>
      <path id="Trazado_1508" data-name="Trazado 1508" d="M3651.662,892.926v-.4a1.159,1.159,0,0,1-.609-.175l.1-.267a1.062,1.062,0,0,0,.574.171c.283,0,.474-.163.474-.39s-.155-.354-.45-.474c-.406-.159-.657-.343-.657-.689a.653.653,0,0,1,.6-.641v-.4h.247v.386a1.064,1.064,0,0,1,.518.14l-.1.263a.962.962,0,0,0-.5-.135c-.307,0-.422.183-.422.343,0,.207.147.311.494.454.41.167.617.374.617.729a.692.692,0,0,1-.629.677v.414Z" transform="translate(-3586.571 -590.749)" fill="#f78c00"/>
      <path id="Trazado_1509" data-name="Trazado 1509" d="M3946.43,662.169a2.788,2.788,0,1,1-2.789-2.789,2.788,2.788,0,0,1,2.789,2.789Z" transform="translate(-3840.028 -389.352)" fill="#f78c00"/>
      <path id="Trazado_1510" data-name="Trazado 1510" d="M3949.081,665.266a2.344,2.344,0,1,1-2.344-2.345,2.344,2.344,0,0,1,2.344,2.345Z" transform="translate(-3843.123 -392.448)" fill="#eb6208"/>
      <path id="Trazado_1511" data-name="Trazado 1511" d="M3956.827,671.126v-.4a1.16,1.16,0,0,1-.609-.175l.1-.267a1.062,1.062,0,0,0,.574.171c.283,0,.474-.163.474-.39s-.155-.354-.45-.474c-.407-.159-.657-.342-.657-.689a.653.653,0,0,1,.6-.641v-.4h.247v.386a1.06,1.06,0,0,1,.518.139l-.1.263a.961.961,0,0,0-.5-.136c-.307,0-.422.183-.422.343,0,.207.147.311.494.454.41.167.617.375.617.729a.693.693,0,0,1-.629.677v.414Z" transform="translate(-3853.465 -396.764)" fill="#f78c00"/>
      <path id="Trazado_1512" data-name="Trazado 1512" d="M4078.26,844.1a2.788,2.788,0,1,1-2.788-2.788,2.788,2.788,0,0,1,2.788,2.788Z" transform="translate(-3955.326 -548.468)" fill="#f78c00"/>
      <path id="Trazado_1513" data-name="Trazado 1513" d="M4080.912,847.2a2.345,2.345,0,1,1-2.345-2.344,2.345,2.345,0,0,1,2.345,2.344Z" transform="translate(-3958.42 -551.563)" fill="#eb6208"/>
      <path id="Trazado_1514" data-name="Trazado 1514" d="M4088.658,853.057v-.4a1.158,1.158,0,0,1-.609-.175l.1-.267a1.061,1.061,0,0,0,.574.171c.283,0,.474-.163.474-.39s-.155-.355-.45-.474c-.406-.159-.657-.342-.657-.689a.653.653,0,0,1,.6-.641v-.4h.247v.386a1.068,1.068,0,0,1,.518.139l-.1.263a.964.964,0,0,0-.5-.135c-.307,0-.422.183-.422.343,0,.207.147.311.494.454.411.167.618.375.618.729a.693.693,0,0,1-.629.677v.414Z" transform="translate(-3968.764 -555.879)" fill="#f78c00"/>
      <path id="Trazado_1515" data-name="Trazado 1515" d="M3814.079,774.243h-14.471a1.876,1.876,0,0,1-1.876-1.876v-31.15a1.876,1.876,0,0,1,1.876-1.876h14.471a1.877,1.877,0,0,1,1.876,1.876v31.15a1.876,1.876,0,0,1-1.876,1.876Z" transform="translate(-3714.855 -459.283)" fill="#272350"/>
      <path id="Trazado_1516" data-name="Trazado 1516" d="M3820.846,778.8h-14.338a.963.963,0,0,1-.963-.963V749.753a.963.963,0,0,1,.963-.963h14.338a.962.962,0,0,1,.962.963v28.087a.962.962,0,0,1-.962.963Z" transform="translate(-3721.688 -467.548)" fill="#383887"/>
      <path id="Trazado_1517" data-name="Trazado 1517" d="M3798.068,745.771a1.865,1.865,0,0,0-.336,1.07v31.15a1.876,1.876,0,0,0,1.876,1.876h14.471a1.873,1.873,0,0,0,1.5-.753l-17.512-33.343Z" transform="translate(-3714.855 -464.908)" fill="#38376e"/>
      <path id="Trazado_1518" data-name="Trazado 1518" d="M3805.686,752.472a.961.961,0,0,0-.142.5V781.06a.963.963,0,0,0,.963.963h14.338a.961.961,0,0,0,.783-.4l-15.942-29.146Z" transform="translate(-3721.688 -470.769)" fill="#6d6fb1"/>
      <path id="Trazado_1519" data-name="Trazado 1519" d="M3861.521,992.576a1.494,1.494,0,1,1-1.494-1.494,1.494,1.494,0,0,1,1.494,1.494Z" transform="translate(-3768.032 -679.455)" fill="#191527"/>
      <path id="Trazado_1520" data-name="Trazado 1520" d="M3843.387,836.979a4.8,4.8,0,1,1-4.8-4.8,4.8,4.8,0,0,1,4.8,4.8Z" transform="translate(-3746.382 -540.477)" fill="none" stroke="#ddd9ee" stroke-miterlimit="10" stroke-width="2"/>
      <path id="Trazado_1521" data-name="Trazado 1521" d="M3855.6,857.491l1.41,2.115,3.718-3.478" transform="translate(-3765.469 -561.425)" fill="none" stroke="#ddd9ee" stroke-linecap="round" stroke-linejoin="round" stroke-width="2"/>
      <path id="Trazado_1522" data-name="Trazado 1522" d="M3913.163,876.736h-16.029a.639.639,0,0,1-.639-.639v-8.46a.639.639,0,0,1,.639-.639h16.029a.639.639,0,0,1,.639.639v8.46a.639.639,0,0,1-.639.639Z" transform="translate(-3801.233 -570.931)" fill="#eb6208"/>
      <path id="Trazado_1523" data-name="Trazado 1523" d="M3896.688,868.451a.637.637,0,0,0-.193.457v8.46a.639.639,0,0,0,.639.639h16.029a.635.635,0,0,0,.476-.216l-16.951-9.34Z" transform="translate(-3801.233 -572.203)" fill="#f78c00"/>
      <path id="Trazado_1524" data-name="Trazado 1524" d="M3913.8,921.533H3896.5v-1.25H3913.8v1.25Z" transform="translate(-3801.233 -617.535)" fill="#0c2372"/>
      <path id="Trazado_1525" data-name="Trazado 1525" d="M3942.955,899.059h-7.725v-1.394h7.725v1.394Z" transform="translate(-3835.11 -597.753)" fill="#ddd9ee"/>
      <path id="Trazado_1526" data-name="Trazado 1526" d="M3974.6,856.073l-.188-.577h1.222l-1.034.577Z" transform="translate(-3869.377 -560.873)" fill="#f18d77"/>
      <path id="Trazado_1527" data-name="Trazado 1527" d="M3961.154,861.264l.1,2.222a15.484,15.484,0,0,0,4.808-.409l-.529-2.981-3.941.24-.434.927Z" transform="translate(-3857.782 -564.896)" fill="#fff"/>
      <path id="Trazado_1528" data-name="Trazado 1528" d="M3948.5,791.574a12.031,12.031,0,0,0,.361,1.755s.793.889,1.563.817,1.034-1.154,1.058-1.418a16.75,16.75,0,0,0-.24-1.731s-1.034.216-1.418-.289a1.476,1.476,0,0,1-1.322.865Z" transform="translate(-3846.718 -504.21)" fill="#f18d77"/>
      <path id="Trazado_1529" data-name="Trazado 1529" d="M3942.53,779.042c.385.5,1.418.289,1.418.289s.8-.748.242-1.5-1.516-.491-2.165.182a1.136,1.136,0,0,0-1.274,0,.991.991,0,0,0,.457,1.9,1.477,1.477,0,0,0,1.322-.865Z" transform="translate(-3839.423 -492.543)" fill="#0c2372"/>
      <path id="Trazado_1530" data-name="Trazado 1530" d="M3944.526,796.708v0s.155.962.688,1.221c-.1-.5-.189-1.111-.189-1.111a1.411,1.411,0,0,1-.5-.113Z" transform="translate(-3843.24 -509.457)" fill="#0c2372"/>
      <path id="Trazado_1531" data-name="Trazado 1531" d="M3970.688,789.169a1.669,1.669,0,0,1-.334.482s.108.6.18,1.1l.063-.023a4.11,4.11,0,0,0,.092-1.559Z" transform="translate(-3865.829 -502.864)" fill="#0c2372"/>
      <path id="Trazado_1532" data-name="Trazado 1532" d="M3947.466,802.328a.308.308,0,0,0-.25.264c-.037.234.061.626.428.647l-.178-.91Z" transform="translate(-3845.586 -514.372)" fill="#f18d77"/>
      <path id="Trazado_1533" data-name="Trazado 1533" d="M3971.271,797.824a.2.2,0,0,1,.323,0c.155.188.042.633-.207.843l-.117-.843Z" transform="translate(-3866.63 -510.36)" fill="#f18d77"/>
      <path id="Trazado_1534" data-name="Trazado 1534" d="M3960.247,800.8a4.19,4.19,0,0,0,0,.769.228.228,0,0,0,.4-.123c.048-.294-.4-.646-.4-.646Z" transform="translate(-3856.971 -513.04)" fill="#e66f5e"/>
      <path id="Trazado_1535" data-name="Trazado 1535" d="M3954.368,802.034c.014.144-.058.269-.162.279s-.2-.1-.213-.241.058-.269.161-.279.2.1.214.241Z" transform="translate(-3851.518 -513.903)" fill="#191527"/>
      <path id="Trazado_1536" data-name="Trazado 1536" d="M3965.411,799.948c.014.144-.058.269-.162.279s-.2-.1-.214-.241.058-.269.162-.279.2.1.214.242Z" transform="translate(-3861.176 -512.079)" fill="#191527"/>
      <path id="Trazado_1537" data-name="Trazado 1537" d="M3957.906,809.588a.665.665,0,0,0,.177.146.387.387,0,0,0,.1.033c.037.009.078.013.127.026a.223.223,0,0,1-.125.072.237.237,0,0,1-.154-.019.227.227,0,0,1-.121-.258Z" transform="translate(-3854.935 -520.722)" fill="#d57463"/>
      <path id="Trazado_1538" data-name="Trazado 1538" d="M3959.433,816.168a2.192,2.192,0,0,1-.147-.582h0a.894.894,0,0,1-.59.318,1.356,1.356,0,0,1-.737-.176h0s.192.616.2.712a.573.573,0,0,1-.1.256s.877.673,1.118.593.452-1.042.452-1.042a.23.23,0,0,1-.2-.08Z" transform="translate(-3854.988 -525.968)" fill="#f18d77"/>
      <path id="Trazado_1539" data-name="Trazado 1539" d="M3965.779,861.511l-.25-1.414-3.941.24-.434.927.037.851a11.431,11.431,0,0,0,4.589-.605Z" transform="translate(-3857.782 -564.896)" fill="#dedbdb"/>
      <path id="Trazado_1540" data-name="Trazado 1540" d="M3945.072,823.191a9.006,9.006,0,0,0-1.166,1.41c-.168.393-.511,3.146-.21,3.579s.956,1.164,3.936-1.047l.289.865s2.933-.144,3.558-1.034-.889-3.245-1.178-3.774-2.548-.785-2.548-.785a4.744,4.744,0,0,1-1.154.849,5.177,5.177,0,0,1-1.526-.064Z" transform="translate(-3842.41 -531.932)" fill="#fff"/>
      <path id="Trazado_1541" data-name="Trazado 1541" d="M3955.91,824.444l-.408.529,1.143,1.41.383-1.346c-.241.08-1.118-.593-1.118-.593Z" transform="translate(-3852.839 -533.715)" fill="#dedbdb"/>
      <path id="Trazado_1542" data-name="Trazado 1542" d="M3968.122,820.867s-.211.962-.451,1.042l1.154.849v-1.7l-.7-.193Z" transform="translate(-3863.482 -530.586)" fill="#dedbdb"/>
      <path id="Trazado_1543" data-name="Trazado 1543" d="M3968.007,860.962l-1.463-.068,1.175-.8.289.865Z" transform="translate(-3862.497 -564.896)" fill="#f18d77"/>
      <path id="Trazado_1544" data-name="Trazado 1544" d="M3965.743,830.022l.41.5.48-.136.048-.7-.7-.513-.242.849Z" transform="translate(-3861.796 -537.851)" fill="#0c2372"/>
      <path id="Trazado_1545" data-name="Trazado 1545" d="M3969.181,840.89l-.168-1.934.48-.136,1.13,2.07Z" transform="translate(-3864.656 -546.288)" fill="#0c2372"/>
      <path id="Trazado_1546" data-name="Trazado 1546" d="M3966.726,883.864a15.484,15.484,0,0,1-4.808.409s.225,5.633.385,7.364c0,0-.593.737.5,7.4a3.111,3.111,0,0,0,1.29,0s.128-5.673.176-7.115.433-5.577.433-5.577l1.49,5.128a6.447,6.447,0,0,0-.913,2.4c-.353,1.667-.866,3.718-.866,3.718s.737.705,1.186.609c0,0,2.564-5.929,2.789-6.859s-1.667-7.484-1.667-7.484Z" transform="translate(-3858.451 -585.683)" fill="#0090df"/>
      <path id="Trazado_1547" data-name="Trazado 1547" d="M3960.762,1004.876s-1.274,1.434-1.178,1.771,2.308.216,2.476,0a6.151,6.151,0,0,0-.008-1.771,5.888,5.888,0,0,1-1.29,0Z" transform="translate(-3856.405 -691.519)" fill="#0c2372"/>
      <path id="Trazado_1548" data-name="Trazado 1548" d="M3979.723,993.376a4.769,4.769,0,0,0-.306.786c0,.144.03,1.13.03,1.13s.182.264,1.022.24,1.033.048,1.1-.1a.591.591,0,0,0-.433-.721c-.457-.168-.232-.729-.232-.729s-.441.048-1.186-.609Z" transform="translate(-3873.755 -681.461)" fill="#0c2372"/>
      <path id="Trazado_1549" data-name="Trazado 1549" d="M3959.338,815.883c-.031-.149-.052-.3-.052-.3h0a.894.894,0,0,1-.59.318,1.356,1.356,0,0,1-.737-.176h0s.056.182.109.363a1.541,1.541,0,0,0,1.27-.208Z" transform="translate(-3854.988 -525.968)" fill="#d57463"/>
      <path id="Trazado_1550" data-name="Trazado 1550" d="M3951.761,855.324a1.2,1.2,0,0,1,.611-.428,1.671,1.671,0,0,1,.376-.053c.124-.006.248-.009.372-.011a11.448,11.448,0,0,1,1.48.083c-.494.036-.987.038-1.479.042-.123,0-.246,0-.368,0a1.934,1.934,0,0,0-.357.029,1.44,1.44,0,0,0-.635.333Z" transform="translate(-3849.568 -560.292)" fill="#dedbdb"/>
      <path id="Trazado_1551" data-name="Trazado 1551" d="M3951.761,847.307a2.623,2.623,0,0,1,.292.529.3.3,0,1,1-.292-.529Z" transform="translate(-3849.568 -553.71)" fill="#dedbdb"/>
      <path id="Trazado_1552" data-name="Trazado 1552" d="M3984.155,852.09a1.582,1.582,0,0,1,.328-.23,2.247,2.247,0,0,1,.369-.159,2,2,0,0,1,.392-.087,1.48,1.48,0,0,1,.4,0c-.13.034-.258.059-.383.094s-.249.068-.372.11c-.247.079-.486.173-.736.269Z" transform="translate(-3877.899 -557.466)" fill="#dedbdb"/>
      <path id="Trazado_1553" data-name="Trazado 1553" d="M3991.18,837.862a5.389,5.389,0,0,1,.146.863.439.439,0,1,1-.146-.863Z" transform="translate(-3884.035 -545.45)" fill="#dedbdb"/>
      <path id="Trazado_1554" data-name="Trazado 1554" d="M3974.889,897.985a8.008,8.008,0,0,0,2.492-.32,2.852,2.852,0,0,1-1.33.753,1.8,1.8,0,0,1-1.162-.433Z" transform="translate(-3869.795 -597.753)" fill="#2f4491"/>
      <path id="Trazado_1555" data-name="Trazado 1555" d="M3751.339,793.339h-15.045a.945.945,0,0,1-.945-.945v-8.177a.945.945,0,0,1,.945-.945h15.045a.945.945,0,0,1,.945.945v8.177a.945.945,0,0,1-.945.945Z" transform="translate(-3660.295 -497.706)" fill="#f78c00"/>
      <path id="Trazado_1556" data-name="Trazado 1556" d="M3735.365,789.42a.971.971,0,0,0-.017.174v8.177a.945.945,0,0,0,.945.945h15.045a.943.943,0,0,0,.72-.334l-16.694-8.962Z" transform="translate(-3660.295 -503.083)" fill="#fda11c"/>
      <path id="Trazado_1557" data-name="Trazado 1557" d="M3742.556,829.846h-1a.448.448,0,0,1-.449-.448v-1a.448.448,0,0,1,.449-.448h1a.448.448,0,0,1,.448.448v1a.448.448,0,0,1-.448.448Z" transform="translate(-3665.333 -536.782)" fill="#ddd9ee"/>
      <text id="_123_456_" data-name="123 456 " transform="translate(78.781 294.063)" fill="#0c2372" font-size="1" font-family="Poppins-Regular, Poppins" letter-spacing="0.199em"><tspan x="0" y="0">123 456 </tspan></text>
      <text id="_78" data-name="78" transform="translate(85.298 294.063)" fill="#0c2372" font-size="1" font-family="Poppins-Regular, Poppins" letter-spacing="0.182em"><tspan x="0" y="0">78</tspan></text>
      <text id="_9" data-name="9" transform="translate(87.216 294.063)" fill="#0c2372" font-size="1" font-family="Poppins-Regular, Poppins"><tspan x="0" y="0">9</tspan></text>
      <path id="Trazado_1558" data-name="Trazado 1558" d="M3774.974,833.081H3762.8v-.686h12.175v.686Z" transform="translate(-3684.303 -540.668)" fill="#0c2372"/>
      <path id="Trazado_1559" data-name="Trazado 1559" d="M3706.945,841.313h-1.1l2,18.941a2.471,2.471,0,0,0,2.458,2.212h7.407l-10.756-21.153Z" transform="translate(-3634.488 -548.468)" fill="#d12f7b"/>
    </g>
  </g>
</svg>
