<?xml version="1.0" encoding="UTF-8"?>
<svg width="367px" height="318px" viewBox="0 0 367 318" version="1.1" xmlns="http://www.w3.org/2000/svg" xmlns:xlink="http://www.w3.org/1999/xlink">
    <!-- Generator: Sketch 53.1 (72631) - https://sketchapp.com -->
    <title>img_atras</title>
    <desc>Created with Sketch.</desc>
    <g id="Page-1" stroke="none" stroke-width="1" fill="none" fill-rule="evenodd">
        <g id="img_atras" fill-rule="nonzero">
            <path d="M141.461,10.386 L10.661,134.886 C3.661,141.086 -0.239,149.886 0.061,158.986 C-0.239,168.086 3.561,176.986 10.561,183.186 L141.461,307.686 C174.261,338.886 224.961,290.586 192.261,259.386 L86.861,158.986 L192.361,58.686 C225.061,27.486 174.261,-20.814 141.461,10.386 Z" id="Trazado_1564"></path>
            <path d="M305.561,10.386 L174.661,134.886 C167.661,141.086 163.761,149.886 164.061,158.986 C163.761,168.086 167.561,176.986 174.561,183.186 L305.461,307.686 C338.261,338.886 388.961,290.586 356.261,259.386 L250.861,158.986 L356.361,58.686 C389.061,27.486 338.361,-20.814 305.561,10.386 Z" id="Trazado_1565"></path>
        </g>
    </g>
</svg>