<svg xmlns="http://www.w3.org/2000/svg" xmlns:xlink="http://www.w3.org/1999/xlink" width="328.482" height="319.336" viewBox="0 0 328.482 319.336">
  <defs>
    <linearGradient id="linear-gradient" x1="0.633" y1="1.003" x2="0.337" y2="0.006" gradientUnits="objectBoundingBox">
      <stop offset="0.11" stop-color="#fff"/>
      <stop offset="1" stop-color="#e1ebf7"/>
    </linearGradient>
    <linearGradient id="linear-gradient-2" y1="0.5" x2="1" y2="0.5" gradientUnits="objectBoundingBox">
      <stop offset="0" stop-color="#021638"/>
      <stop offset="0.258" stop-color="#052a63"/>
      <stop offset="0.591" stop-color="#0b4290"/>
      <stop offset="0.85" stop-color="#0e51ac"/>
      <stop offset="1" stop-color="#0f56b7"/>
    </linearGradient>
  </defs>
  <g id="Grupo_4353" data-name="Grupo 4353" transform="translate(-30.465 -131.832)">
    <path id="Trazado_8083" data-name="Trazado 8083" d="M304.018,161.613c0,77.638-76.658,132.345-154.3,132.345S0,239.251,0,161.613,46.475,0,124.114,0,304.018,83.974,304.018,161.613Z" transform="matrix(0.996, 0.087, -0.087, 0.996, 56.085, 131.832)" fill="url(#linear-gradient)"/>
    <g id="Grupo_3167" data-name="Grupo 3167" transform="translate(-863.143 -185.262)">
      <g id="Grupo_3147" data-name="Grupo 3147" transform="translate(936.558 339.133)">
        <rect id="Rectángulo_1537" data-name="Rectángulo 1537" width="155.417" height="215.291" rx="7" transform="translate(0 17.338)" fill="#68a8e1" opacity="0.5"/>
        <rect id="Rectángulo_1538" data-name="Rectángulo 1538" width="138.108" height="192.497" transform="translate(8.655 29.584)" fill="#fff"/>
        <path id="Trazado_8295" data-name="Trazado 8295" d="M2043.065,350.053h-21.951a10.92,10.92,0,1,0-21.84,0h-21.951a3.332,3.332,0,0,0-3.332,3.333V365.5a12.421,12.421,0,0,0,12.421,12.421h47.565A12.421,12.421,0,0,0,2046.4,365.5V353.386A3.333,3.333,0,0,0,2043.065,350.053Zm-32.87,5.446a5.446,5.446,0,1,1,5.445-5.446A5.447,5.447,0,0,1,2010.194,355.5Z" transform="translate(-1932.485 -339.133)" fill="#d0ecfc"/>
        <g id="Grupo_3145" data-name="Grupo 3145" transform="translate(15.451 56.818)">
          <path id="Trazado_8296" data-name="Trazado 8296" d="M1808.019,701.076V727.13h26.054V701.076Zm21.586,21.586h-17.117V705.544H1829.6Z" transform="translate(-1808.019 -701.076)" fill="#d0ecfc"/>
          <path id="Trazado_8297" data-name="Trazado 8297" d="M1808.019,952.928v26.054h26.054V952.928Zm21.586,21.586h-17.117V957.4H1829.6Z" transform="translate(-1808.019 -913.392)" fill="#d0ecfc"/>
          <path id="Trazado_8298" data-name="Trazado 8298" d="M1808.019,1204.78v26.054h26.054V1204.78Zm21.586,21.586h-17.117v-17.117H1829.6Z" transform="translate(-1808.019 -1125.708)" fill="#d0ecfc"/>
          <path id="Trazado_8299" data-name="Trazado 8299" d="M1808.019,1456.633v26.054h26.054v-26.054Zm21.586,21.586h-17.117V1461.1H1829.6Z" transform="translate(-1808.019 -1338.025)" fill="#d0ecfc"/>
          <g id="Grupo_3141" data-name="Grupo 3141" transform="translate(33.871 0)">
            <rect id="Rectángulo_1539" data-name="Rectángulo 1539" width="82.022" height="8.052" fill="#e6f7ff"/>
            <rect id="Rectángulo_1540" data-name="Rectángulo 1540" width="82.022" height="8.052" transform="translate(0 11.867)" fill="#e6f7ff"/>
          </g>
          <g id="Grupo_3142" data-name="Grupo 3142" transform="translate(33.871 39.536)">
            <rect id="Rectángulo_1541" data-name="Rectángulo 1541" width="82.022" height="8.052" fill="#e6f7ff"/>
            <rect id="Rectángulo_1542" data-name="Rectángulo 1542" width="41.011" height="8.052" transform="translate(0 11.867)" fill="#e6f7ff"/>
          </g>
          <g id="Grupo_3143" data-name="Grupo 3143" transform="translate(33.871 79.072)">
            <rect id="Rectángulo_1543" data-name="Rectángulo 1543" width="82.022" height="8.052" fill="#e6f7ff"/>
            <rect id="Rectángulo_1544" data-name="Rectángulo 1544" width="24.084" height="8.052" transform="translate(0 11.867)" fill="#e6f7ff"/>
          </g>
          <g id="Grupo_3144" data-name="Grupo 3144" transform="translate(33.871 118.608)">
            <rect id="Rectángulo_1545" data-name="Rectángulo 1545" width="82.022" height="8.052" fill="#e6f7ff"/>
            <rect id="Rectángulo_1546" data-name="Rectángulo 1546" width="64.591" height="8.052" transform="translate(0 11.867)" fill="#e6f7ff"/>
          </g>
        </g>
        <g id="Grupo_3146" data-name="Grupo 3146" transform="translate(16.463 49.62)">
          <path id="Trazado_8300" data-name="Trazado 8300" d="M1821.615,685.007h0l1.2,2.294,1.448-2.3a84.146,84.146,0,0,1,10.451-13.39,86.264,86.264,0,0,1,12.755-10.953l-4.309-5.434a92.2,92.2,0,0,0-12.238,13.156,88.486,88.486,0,0,0-8.137,12.815,27.826,27.826,0,0,0-6.555-6.628l-1.764,2.463A24.805,24.805,0,0,1,1821.615,685.007Z" transform="translate(-1814.465 -655.221)" fill="#fb446c"/>
          <path id="Trazado_8301" data-name="Trazado 8301" d="M1847.1,928q-1.582,1.118-3.114,2.316a85.968,85.968,0,0,0-9.277,8.377,84.214,84.214,0,0,0-10.451,13.391l-1.448,2.3-1.2-2.293v0a24.816,24.816,0,0,0-7.15-7.981l1.765-2.463a27.841,27.841,0,0,1,6.555,6.629,88.553,88.553,0,0,1,8.138-12.815,91.428,91.428,0,0,1,8.634-9.79c.151-.151.3-.3.456-.446l1.642.771.052-.077Z" transform="translate(-1814.465 -882.839)" fill="#fb446c"/>
          <path id="Trazado_8302" data-name="Trazado 8302" d="M1847.1,1178.421q-1.582,1.118-3.114,2.316a85.933,85.933,0,0,0-9.277,8.376,84.218,84.218,0,0,0-10.451,13.391l-1.448,2.3-1.2-2.293v0a24.82,24.82,0,0,0-7.15-7.981l1.765-2.463a27.842,27.842,0,0,1,6.555,6.629,88.551,88.551,0,0,1,8.138-12.815,91.374,91.374,0,0,1,8.634-9.79q.227-.227.456-.447l1.642.771.052-.077Z" transform="translate(-1814.465 -1093.949)" fill="#fb446c"/>
        </g>
      </g>
      <g id="Grupo_3159" data-name="Grupo 3159" transform="translate(1112.201 429.366)">
        <path id="Trazado_8330" data-name="Trazado 8330" d="M2848.765,1027.529a8.3,8.3,0,0,1-.378,2.131c-.123.386-.27.792-.442,1.218s-.383.847-.612,1.295-.5.89-.782,1.354-.611.924-.954,1.4a28.98,28.98,0,0,1-5.636,5.7c-.611.462-1.25.919-1.958,1.357-.109.068-.221.136-.334.2a18.516,18.516,0,0,1-2.036,1.039l-.216.108a3.349,3.349,0,0,1-4.649-1.827c-.119-.323-.241-.648-.362-.975-.059-.163-.119-.327-.179-.491s-.124-.328-.173-.5q-.149-.5-.3-1.015-.075-.254-.15-.51c-.053-.17-.093-.344-.133-.518q-.157-.675-.311-1.34c-.054-.22-.087-.445-.127-.667s-.076-.444-.113-.665-.074-.439-.111-.659-.054-.439-.082-.656q-.07-.655-.141-1.3c-.032-.43-.05-.858-.073-1.277-.011-.211-.021-.42-.032-.627s0-.417,0-.622c0-.411,0-.818.008-1.219s.041-.8.062-1.189a34.218,34.218,0,0,1,.559-4.379c.135-.676.3-1.319.44-1.937.169-.614.345-1.2.509-1.75.183-.551.376-1.068.55-1.556.083-.244.187-.476.282-.7l.281-.651c.092-.207.18-.407.265-.6l.28-.544q.271-.52.5-.939a9.617,9.617,0,0,1,.842-1.222c.226-.264.392-.379.5-.335s.153.247.147.589a12.882,12.882,0,0,1-.15,1.43q-.047.462-.123,1.012c-.024.183-.05.372-.077.571s-.038.406-.059.62-.042.433-.066.66-.051.458-.06.7q-.04.72-.088,1.518c-.007.529-.016,1.083-.025,1.66.021.577.025,1.172.056,1.787a38.557,38.557,0,0,0,.418,3.874c.057.335.1.676.168,1.016s.141.683.214,1.03c.036.173.066.347.108.52s.089.347.133.521c.089.348.171.7.265,1.051s.209.7.315,1.054c.054.176.1.354.16.53s.121.35.183.527l.182.53c.052.149.1.3.159.448.729-.689,1.439-1.386,2.113-2.071q.373-.367.731-.73c.532-.538,1.045-1.059,1.547-1.544q.534-.537,1.051-1.02c.333-.329.671-.633.992-.923s.632-.562.935-.815.588-.486.877-.7a11.309,11.309,0,0,1,1.571-1.021,4.732,4.732,0,0,1,1.36-.489,1.934,1.934,0,0,1,1.145.121,1.6,1.6,0,0,1,.777.841A3.561,3.561,0,0,1,2848.765,1027.529Z" transform="translate(-2828.474 -997.161)" fill="#f68895"/>
        <path id="Trazado_8331" data-name="Trazado 8331" d="M2898.14,1093.67a8.264,8.264,0,0,1-.379,2.131q-.184.58-.442,1.218c-.176.419-.384.847-.612,1.295s-.5.889-.782,1.354-.612.924-.954,1.4a29,29,0,0,1-5.637,5.7c-.611.462-1.25.919-1.957,1.357-.109.068-.221.136-.334.2a12.385,12.385,0,0,0,.591-10.675c.532-.538,1.046-1.059,1.546-1.544q.535-.536,1.052-1.019c.334-.328.671-.633.993-.922s.632-.562.934-.815.587-.486.877-.7a11.281,11.281,0,0,1,1.571-1.021,4.732,4.732,0,0,1,1.361-.49,1.933,1.933,0,0,1,1.145.121,1.6,1.6,0,0,1,.777.841A3.571,3.571,0,0,1,2898.14,1093.67Z" transform="translate(-2877.849 -1063.301)" fill="#f17785"/>
        <path id="Trazado_8332" data-name="Trazado 8332" d="M3034.528,1764.391a14.666,14.666,0,0,1,2.269,8.324,49.54,49.54,0,0,1-8.854.1c-.371-1.371.215-2.784.71-4.114a7.585,7.585,0,0,0,.726-4.135C3031.042,1764.456,3032.863,1764.338,3034.528,1764.391Z" transform="translate(-2996.531 -1630.874)" fill="#311649"/>
        <path id="Trazado_8333" data-name="Trazado 8333" d="M2887.5,1754.712a20.062,20.062,0,0,0,.436,9.19,37.289,37.289,0,0,1-12.652.509,2,2,0,0,1,.208-2.357,4.141,4.141,0,0,1,2.094-1.24,15.332,15.332,0,0,0,2.346-.764,4.677,4.677,0,0,0,2.493-4.684A8.723,8.723,0,0,1,2887.5,1754.712Z" transform="translate(-2867.681 -1622.631)" fill="#311649"/>
        <path id="Trazado_8334" data-name="Trazado 8334" d="M2923.519,1352.945q-2.143.218-4.34.364a1.79,1.79,0,0,1-1.83-1.265c-2.247-7.45-5.417-21.622-7.625-46.686q-.47-5.376-.882-11.434c-.571,3.408-1.128,7.254-1.615,11.47a223.1,223.1,0,0,0-.61,46.127,1.8,1.8,0,0,1-1.858,1.957q-2.272-.1-4.482-.265a1.791,1.791,0,0,1-1.632-1.524,240.165,240.165,0,0,1-2.057-45.609q.182-3.695.48-7.553.172-2.156.386-4.36.141-1.45.3-2.921c.043-.374.083-.75.126-1.125q.184-1.616.394-3.249h0q.182-1.406.379-2.83c0-.016,0-.032.008-.048q.3-2.179.661-4.391.16-1.011.332-2.027c.012-.083.027-.168.039-.25q.1-.543.189-1.083l8.876-.191,13.638-.289c-.127.942-.285,2.243-.442,3.923-.032.359-.062.735-.1,1.125-.006.071-.014.145-.017.218q-.077.941-.148,2.005c-.011.159-.021.321-.032.483q-.043.68-.083,1.409-.109,1.959-.188,4.281-.025.762-.046,1.565-.022.859-.039,1.766-.052,2.995-.031,6.506.021,3.17.122,6.768c.335,11.526,1.36,26.436,3.711,45.132A1.785,1.785,0,0,1,2923.519,1352.945Z" transform="translate(-2885.653 -1218.962)" fill="#703cd5"/>
        <path id="Trazado_8335" data-name="Trazado 8335" d="M2942.765,1445.7a1.787,1.787,0,0,0,1.059-1.806,222.832,222.832,0,0,1,.611-46.127c.485-4.215,1.044-8.06,1.613-11.47l-3.859-.962S2937.883,1420.837,2942.765,1445.7Z" transform="translate(-2922.859 -1311.33)" fill="#5229b7"/>
        <path id="Trazado_8336" data-name="Trazado 8336" d="M2935.065,1275.762c-.128.942-.284,2.243-.442,3.923-.032.359-.062.735-.1,1.125-.006.071-.013.145-.016.218q-.078.941-.148,2.005c-.011.159-.021.321-.032.483-.029.453-.056.923-.084,1.409q-.109,1.959-.187,4.281-.025.762-.045,1.565c-.016.573-.028,1.162-.04,1.766-6.344-7.9-19.008-8.53-22.643-8.545q.3-2.179.66-4.391c.107-.674.217-1.35.332-2.027.012-.083.027-.168.039-.25q.1-.543.19-1.083l8.876-.191Z" transform="translate(-2898.323 -1218.962)" fill="#5229b7"/>
        <path id="Trazado_8337" data-name="Trazado 8337" d="M3010.775,1042.847l-1.337-.5.492,2.626Z" transform="translate(-2981.031 -1022.189)" fill="#462261"/>
        <path id="Trazado_8338" data-name="Trazado 8338" d="M2897.543,1082.46c-.373,2.36-.817,4.794-1.341,7.275q2.836.352,5.684.528a91.186,91.186,0,0,0,18.617-.761c.023-.953.052-2.046.09-3.235.138-4.32.377-9.933.714-14.937.219-3.235.478-6.214.781-8.428.058-.427.116-.862.168-1.3l3.643,2.548c3.88-2.729,4.347-7.665,4.347-7.665a57.545,57.545,0,0,0-5.664-3.686l-.013-.007c-6.632-3.761-11.01-4.3-11.265-4.324a.033.033,0,0,0-.011,0v0l-.064-.028c-1.309-.526-2.615-1.047-3.925-1.576-1.516.771-3.212,1.541-4.9,2.309-.373.17-.748.34-1.121.509-.619.282-1.6.756-2.436,1.159a6.547,6.547,0,0,0-2.677,2.382v0l-4.164,6.4a11.1,11.1,0,0,0,5.268,6.546c-.2,3.725-.569,8-1.187,12.618-.056.412-.115.828-.173,1.244Q2897.74,1081.231,2897.543,1082.46Z" transform="translate(-2883.717 -1025.997)" fill="#462261"/>
        <path id="Trazado_8339" data-name="Trazado 8339" d="M3066.329,1124.608a3.055,3.055,0,0,1-1.394,2.566,35.809,35.809,0,0,1-3.772,2.137c-.62.311-1.238.579-1.838.845-.607.25-1.2.494-1.783.7s-1.152.4-1.7.582c-.556.165-1.091.331-1.616.465s-1.027.26-1.513.362l-.712.151-.685.12c-.444.083-.871.141-1.273.191s-.778.093-1.132.118c-.229.02-.452.035-.663.043a.8.8,0,0,1-.228.135,3.377,3.377,0,0,1-1.114.062,2.742,2.742,0,0,0-2.329,1.81c-.172.422-.335.963-.721,1.026-.292.05-.551-.224-.754-.487a5.9,5.9,0,0,1-1.075-1.983,3.119,3.119,0,0,1,.179-2.293,2.6,2.6,0,0,1,1.333-1.09,4.512,4.512,0,0,1,4.337.545l.354-.187c.3-.153.617-.317.953-.5s.692-.359,1.059-.563l.566-.3.586-.33c.4-.218.809-.464,1.232-.712s.851-.523,1.295-.8.892-.568,1.34-.887c.908-.618,1.839-1.3,2.762-2.05a.417.417,0,0,1,.045-.036c-.085-.091-.171-.183-.26-.27-.27-.272-.542-.545-.813-.821q-.52-.511-1.039-1.009c-.752-.721-1.5-1.415-2.254-2.072-.535-.494-1.091-.945-1.612-1.412l-.6-.5-.754-.635a11.473,11.473,0,0,0,4.135-7.2q.416.313.841.65.9.732,1.8,1.548c.591.554,1.2,1.11,1.783,1.725a38.617,38.617,0,0,1,2.807,3.193q.3.379.6.768l.8,1.077c.132.177.253.365.377.545s.245.367.368.549.242.362.362.542.229.37.341.553c.225.368.444.732.666,1.1l.274.453A3.041,3.041,0,0,1,3066.329,1124.608Z" transform="translate(-3008.387 -1079.5)" fill="#f68895"/>
        <path id="Trazado_8340" data-name="Trazado 8340" d="M3001.435,975.092l-1.754,5.163a5.838,5.838,0,0,1-1.94,3.189,2.961,2.961,0,0,1-3.288-.074,11.4,11.4,0,0,0,3.424-4.631,12.575,12.575,0,0,1,1.094-2.528A2.651,2.651,0,0,1,3001.435,975.092Z" transform="translate(-2968.398 -965.47)" fill="url(#linear-gradient-2)"/>
        <path id="Trazado_8341" data-name="Trazado 8341" d="M2966.951,1010.694a18.546,18.546,0,0,0,7.859.254,10.968,10.968,0,0,1-.742-4.194c0-.021,0-.041,0-.06a11.156,11.156,0,0,1,.2-1.828,10.978,10.978,0,0,1,.564-1.974,11.262,11.262,0,0,1,.948-1.885,10.429,10.429,0,0,0-1.484-.038c-2.566.112-5.133,1.133-6.394,3.025a14.787,14.787,0,0,1,.055,1.794c-.008.264-.023.525-.047.786-.027.341-.068.682-.123,1.019-.017.118-.036.239-.058.357-.048.273-.1.545-.171.815A14.505,14.505,0,0,1,2966.951,1010.694Z" transform="translate(-2945.212 -987.297)" fill="#f68895"/>
        <path id="Trazado_8342" data-name="Trazado 8342" d="M2971.941,1007.652c-.017.119-.037.239-.058.358,5.726.208,7.232-6.668,7.232-6.668l-.665-.313c-2.567.112-5.133,1.133-6.395,3.025a14.54,14.54,0,0,1,.055,1.794c-.008.264-.023.526-.047.786C2972.036,1006.974,2971.995,1007.315,2971.941,1007.652Z" transform="translate(-2949.37 -987.356)" fill="#f17785"/>
        <path id="Trazado_8343" data-name="Trazado 8343" d="M2968.821,943.634a6.433,6.433,0,0,0,.106,5.331c.282-1.268.565-2.485.846-3.753a1.923,1.923,0,0,0-.171-1.724.556.556,0,0,0-.487-.2C2968.934,943.318,2968.737,943.47,2968.821,943.634Z" transform="translate(-2946.345 -938.672)" fill="url(#linear-gradient-2)"/>
        <path id="Trazado_8344" data-name="Trazado 8344" d="M2956.747,941.832a11.942,11.942,0,0,1-1.679,7.346c-.756,1.236-1.778,2.457-1.743,3.906.045,1.908,2.091,3.323,4,3.215a7.007,7.007,0,0,0,4.779-2.841,13.136,13.136,0,0,0,2.833-9.794A14.5,14.5,0,0,0,2956.747,941.832Z" transform="translate(-2933.725 -937.411)" fill="#f68895"/>
        <path id="Trazado_8345" data-name="Trazado 8345" d="M2965.634,1002.347a3.934,3.934,0,0,1-1.548-.514.169.169,0,0,0-.254.125,1.044,1.044,0,0,0,.229.83,1.222,1.222,0,0,0,1.073.407c.315-.043.489-.313.633-.6A.169.169,0,0,0,2965.634,1002.347Z" transform="translate(-2942.575 -988.015)" fill="#f9dee4"/>
        <path id="Trazado_8346" data-name="Trazado 8346" d="M2973.5,926.377a5.419,5.419,0,0,1-.117-5.529,15.912,15.912,0,0,1-5.752-.5,5.149,5.149,0,0,1-2.846-1.625,3.03,3.03,0,0,1,.768-4.377,2.252,2.252,0,0,1,2.374-.134c.632.4.929,1.159,1.425,1.721a6.2,6.2,0,0,0,3.628,1.564,5.961,5.961,0,0,1,3.6,1.609,3.442,3.442,0,0,1,.687,2.744,4.783,4.783,0,0,1-1.356,2.532A6.92,6.92,0,0,1,2973.5,926.377Z" transform="translate(-2942.869 -913.933)" fill="url(#linear-gradient-2)"/>
        <path id="Trazado_8347" data-name="Trazado 8347" d="M3109.6,1117.447a12.24,12.24,0,0,0-2.727-.73,12.619,12.619,0,0,0-7.886,1.451l-.754-.635a11.47,11.47,0,0,0,4.135-7.2q.416.313.841.65.9.732,1.8,1.548c.591.554,1.2,1.11,1.783,1.725A38.661,38.661,0,0,1,3109.6,1117.447Z" transform="translate(-3055.885 -1079.5)" fill="#f17785"/>
        <path id="Trazado_8348" data-name="Trazado 8348" d="M2988.16,1045.531s-1.188,3.025-5.549,3.181l1.548,3.666a9.266,9.266,0,0,0,5.266-4.768Z" transform="translate(-2958.415 -1024.873)" fill="#643b89"/>
        <path id="Trazado_8349" data-name="Trazado 8349" d="M2963.747,1053.064a2.9,2.9,0,0,1-1.855-2.371l-1.656,1.707s-.075,3.03,1.053,4.026Z" transform="translate(-2939.551 -1029.224)" fill="#643b89"/>
        <path id="Trazado_8350" data-name="Trazado 8350" d="M2975.627,967.853h0a1.447,1.447,0,0,0-.3-.352,2.89,2.89,0,0,0-.436-.318,3.42,3.42,0,0,0-.6-.275l-.1-.033c-.071-.02-.144-.039-.216-.055h0c-.1-.024-.213-.041-.322-.055a3,3,0,0,0-.54-.01l-.04,0a1.13,1.13,0,0,0-.021-.349,1.2,1.2,0,0,0-.265-.545,1.7,1.7,0,0,0-.8-.522,2.033,2.033,0,0,0-.2-.047,1.793,1.793,0,0,0-.589.016,1.525,1.525,0,0,0-.49.2.985.985,0,0,0-.426-.259l-.04-.01a1.23,1.23,0,0,0-.553-.006,1.183,1.183,0,0,0-.246-.4,1.677,1.677,0,0,0-.486-.363h0a1.56,1.56,0,0,0-.27-.107,1.807,1.807,0,0,0-.274-.056,1.878,1.878,0,0,0-.4,0,1.31,1.31,0,0,0-.192.037,1.375,1.375,0,0,0-.364.145h0a1.189,1.189,0,0,0-.17.111,1.359,1.359,0,0,0-.383.451,1.507,1.507,0,0,0-.177.556,1.463,1.463,0,0,0,.292,1.073.159.159,0,0,1,.016.022,1.39,1.39,0,0,0,.691.459,1.719,1.719,0,0,0,.3.06,1.536,1.536,0,0,0,1.077-.314,1.671,1.671,0,0,0,.627-.95,1.408,1.408,0,0,0,.027-.411,1.574,1.574,0,0,1,.39.035l.032.01a.9.9,0,0,1,.26.125,1.5,1.5,0,0,0-.13,1.909,1.367,1.367,0,0,0,.43.383,1.424,1.424,0,0,0,.3.126,1.509,1.509,0,0,0,1.325-.216,1.659,1.659,0,0,0,.657-.89l.095.006a4.21,4.21,0,0,1,.938.168l.015,0h0c.038.01.073.022.109.034a4.543,4.543,0,0,1,.436.176l.115.055c.031.017.063.033.1.052,0,0,0,0,0,0,.122.065.233.131.329.193l.166.112c.08.055.139.094.181.117a.171.171,0,0,0,.05.021.081.081,0,0,0,.037.005.09.09,0,0,0,.042-.017l.021-.028v-.024A.139.139,0,0,0,2975.627,967.853ZM2969.4,965.9a1.368,1.368,0,0,1-1.367,1.1,1.088,1.088,0,0,1-.217-.041,1.135,1.135,0,0,1-.589-.412.831.831,0,0,1-.084-.133h0a1.2,1.2,0,0,1-.129-.757,1.227,1.227,0,0,1,.158-.435.994.994,0,0,1,.3-.334.455.455,0,0,1,.051-.033v0a1.194,1.194,0,0,1,.338-.151h0l.021-.005a1.313,1.313,0,0,1,.458-.024,1.1,1.1,0,0,1,.215.046,1.328,1.328,0,0,1,.22.083l.005,0,.107.058a.466.466,0,0,1,.063.041l.034.025a.6.6,0,0,1,.092.071.764.764,0,0,1,.079.078.936.936,0,0,1,.2.322c.008.02.014.039.021.059s.012.044.016.068A.982.982,0,0,1,2969.4,965.9Zm3.321.953c0,.025-.009.049-.012.072l-.006.024a1.374,1.374,0,0,1-1.406,1.018.983.983,0,0,1-.17-.036,1.146,1.146,0,0,1-.616-.449,1.206,1.206,0,0,1,0-1.329,1.129,1.129,0,0,1,.2-.232.808.808,0,0,1,.121-.089,1.213,1.213,0,0,1,.419-.173,1.316,1.316,0,0,1,.461,0,1.1,1.1,0,0,1,.154.036,1.579,1.579,0,0,1,.282.114l.1.062a.714.714,0,0,1,.062.046l.034.026a.636.636,0,0,1,.086.073.767.767,0,0,1,.059.06l.019.021a.951.951,0,0,1,.2.391A.887.887,0,0,1,2972.724,966.855Z" transform="translate(-2945.003 -956.395)" fill="#311649"/>
        <path id="Trazado_8351" data-name="Trazado 8351" d="M3014.157,982.488a.783.783,0,0,1,.718-.733,1.017,1.017,0,0,1,.928.526,1.468,1.468,0,0,1,.111,1.093,2.719,2.719,0,0,1-.532.984,2.552,2.552,0,0,1-1.338.95,1.346,1.346,0,0,1-1.465-.535C3013.294,984.11,3014.159,983.465,3014.157,982.488Z" transform="translate(-2983.678 -971.106)" fill="#f68895"/>
        <path id="Trazado_8352" data-name="Trazado 8352" d="M2849.533,1009.4a3.817,3.817,0,0,0,.763-2.221,2.119,2.119,0,0,0-1.2-1.912.757.757,0,0,0-.455-.062.672.672,0,0,0-.395.845,1.956,1.956,0,0,0,.613.828,1.845,1.845,0,0,0-1.1,1.619,1.812,1.812,0,0,0,1.02,1.647.573.573,0,0,0,.3.069.464.464,0,0,0,.362-.324A1.293,1.293,0,0,0,2849.533,1009.4Z" transform="translate(-2844.732 -990.863)" fill="#f68895"/>
        <path id="Trazado_8353" data-name="Trazado 8353" d="M2833.757,1001.46c.565.213.692,1.266.281,2.352s-1.2,1.792-1.765,1.578-.394-1.154.016-2.239S2833.192,1001.247,2833.757,1001.46Z" transform="translate(-2831.372 -987.691)" fill="#f68895"/>
        <path id="Trazado_8354" data-name="Trazado 8354" d="M2836.339,1013.107l-2.127.068,2.614-2.515,1.19,3.838" transform="translate(-2833.311 -995.476)" fill="#f68895"/>
      </g>
      <g id="Grupo_3161" data-name="Grupo 3161" transform="translate(977.934 429.669)">
        <path id="Trazado_8355" data-name="Trazado 8355" d="M2222.214,1061.391a21.028,21.028,0,0,0-13.081,16.924c-.163,1.458-.052,3.181,1.145,4.028,1.139.805,2.733.42,3.957-.247a10.489,10.489,0,0,0,5.147-6.829C2220.419,1070.625,2221.177,1066.032,2222.214,1061.391Z" transform="translate(-2172.041 -1038.546)" fill="#2795f8"/>
        <path id="Trazado_8356" data-name="Trazado 8356" d="M2360.637,1747.481a22.32,22.32,0,0,0,.891,10.2,41.487,41.487,0,0,1-14.046,1.125,2.224,2.224,0,0,1,.127-2.63,4.613,4.613,0,0,1,2.273-1.471,17.1,17.1,0,0,0,2.575-.953,5.2,5.2,0,0,0,2.566-5.318A9.707,9.707,0,0,1,2360.637,1747.481Z" transform="translate(-2288.403 -1616.875)" fill="#231038"/>
        <path id="Trazado_8357" data-name="Trazado 8357" d="M2227.115,1747.481a22.324,22.324,0,0,0,.891,10.2,41.485,41.485,0,0,1-14.045,1.125,2.223,2.223,0,0,1,.127-2.63,4.607,4.607,0,0,1,2.273-1.471,17.066,17.066,0,0,0,2.575-.953,5.2,5.2,0,0,0,2.565-5.318A9.71,9.71,0,0,1,2227.115,1747.481Z" transform="translate(-2175.843 -1616.875)" fill="#231038"/>
        <path id="Trazado_8358" data-name="Trazado 8358" d="M2273.284,1324.257h-.111l-7.683.164c-.015-.047-.032-.094-.047-.142-2.663-7.941-7.154-26.151-9.631-63.15-2.5,14.959-5.669,37.97-2.848,63.541l-.239,0-.277,0-8.569.153h0l-.256.006-.241,0c-1.577-9.5-2.075-31.351.1-58.887q.426-5.4,1.121-11.084.1-.781.2-1.568.239-1.861.515-3.752c.038-.264.078-.527.117-.792q.195-1.311.406-2.633.19-1.191.393-2.384c.065-.379.128-.758.2-1.138l9.3-.2,14.287-.3c-.135.986-.3,2.348-.46,4.111-.042.444-.081.912-.122,1.407-.015.182-.029.368-.045.557q-.082,1.089-.161,2.333c-.024.375-.047.759-.07,1.154-.1,1.8-.185,3.817-.242,6.067q-.105,3.913-.076,8.762C2268.93,1279.94,2269.968,1298.9,2273.284,1324.257Z" transform="translate(-2199.814 -1190.891)" fill="#462261"/>
        <path id="Trazado_8359" data-name="Trazado 8359" d="M2290.533,1417.688l.517-.01c-2.822-25.57.35-48.582,2.847-63.539l-4.752-1.707S2283.943,1378.882,2290.533,1417.688Z" transform="translate(-2237.899 -1283.899)" fill="#311649"/>
        <path id="Trazado_8360" data-name="Trazado 8360" d="M2287.692,1242.105c-.135.986-.3,2.348-.461,4.111-.041.444-.08.912-.121,1.407-.015.182-.029.368-.045.557q-.082,1.089-.161,2.333c-.024.375-.047.759-.07,1.154-.1,1.8-.185,3.817-.243,6.067-13.911-.947-21.182-6.094-23.6-8.183q.057-.4.117-.792.195-1.311.406-2.633.191-1.191.392-2.384c.065-.379.128-.758.2-1.138l9.3-.2Z" transform="translate(-2217.498 -1190.891)" fill="#311649"/>
        <path id="Trazado_8361" data-name="Trazado 8361" d="M2315.958,1001.513a27.337,27.337,0,0,1,5.173.247c.931.131,1.837.3,2.708.516a8.031,8.031,0,0,0,.607-1.751c0-.181-.005-.364-.009-.546-.023-1.833-.011-3.677.016-5.52q.011-.766.024-1.532.03-1.78.069-3.555a33.172,33.172,0,0,0-5.849,2.44c-.2,1.12-.437,2.235-.711,3.337q-.345,1.4-.768,2.765h0c0,.013-.008.025-.012.038q-.231.747-.484,1.485Q2316.364,1000.486,2315.958,1001.513Z" transform="translate(-2262.146 -977.832)" fill="#f68895"/>
        <path id="Trazado_8362" data-name="Trazado 8362" d="M2323.917,997.952a7.212,7.212,0,0,0,3.408-.627,7.338,7.338,0,0,0,3.863-4.4q.029-1.78.069-3.555a33.149,33.149,0,0,0-5.849,2.44c-.2,1.12-.437,2.235-.711,3.337q-.345,1.4-.767,2.765h0C2323.925,997.928,2323.92,997.939,2323.917,997.952Z" transform="translate(-2268.855 -977.832)" fill="#f17785"/>
        <path id="Trazado_8363" data-name="Trazado 8363" d="M2322.973,949.626a4.465,4.465,0,0,0,.007,4.413,8.385,8.385,0,0,0,1.874-3.24,1.135,1.135,0,0,0-.014-.961,1.03,1.03,0,0,0-.859-.353C2323.659,949.478,2323.272,949.746,2322.973,949.626Z" transform="translate(-2267.572 -944.207)" fill="#db2a58"/>
        <path id="Trazado_8364" data-name="Trazado 8364" d="M2310.343,955.824a3.89,3.89,0,0,0,2.371,2.637,4.2,4.2,0,0,0,1.511.32,4.7,4.7,0,0,0,1.541-.235,6.012,6.012,0,0,0,2.932-2.14,9.285,9.285,0,0,0,1.651-4.918,27.752,27.752,0,0,0-.292-5.242c-1.922-1.4-4.493-1.035-6.518.211.053,1.687-.941,3.2-1.83,4.633S2309.971,954.179,2310.343,955.824Z" transform="translate(-2257.337 -940.719)" fill="#f68895"/>
        <path id="Trazado_8365" data-name="Trazado 8365" d="M2367.107,984.331a2.862,2.862,0,0,1,.8-.468,1.208,1.208,0,0,1,.908.021,1.277,1.277,0,0,1,.633.981,1.949,1.949,0,0,1-3.112,1.833A11.086,11.086,0,0,0,2367.107,984.331Z" transform="translate(-2304.616 -973.123)" fill="#f68895"/>
        <path id="Trazado_8366" data-name="Trazado 8366" d="M2320.725,927.071a3.971,3.971,0,0,1-.77-5.022,6.808,6.808,0,0,1-4.714,1.283,5.583,5.583,0,0,1-3.247-1.364,4.04,4.04,0,0,1-1.344-3.192,3.179,3.179,0,0,1,1.992-2.741,4.636,4.636,0,0,1,3.842.761,17.821,17.821,0,0,0,3.5,2.025c.934.307,2.052.408,2.625,1.206a2.727,2.727,0,0,1,.259,2.117A16.508,16.508,0,0,1,2320.725,927.071Z" transform="translate(-2257.665 -915.863)" fill="url(#linear-gradient-2)"/>
        <path id="Trazado_8367" data-name="Trazado 8367" d="M2317.594,1000.253a4.478,4.478,0,0,0,1.8.466.193.193,0,0,1,.166.276,1.187,1.187,0,0,1-.733.652,1.389,1.389,0,0,1-1.277-.274,1.039,1.039,0,0,1-.232-.968A.193.193,0,0,1,2317.594,1000.253Z" transform="translate(-2263.274 -986.988)" fill="#f9dee4"/>
        <path id="Trazado_8368" data-name="Trazado 8368" d="M2292.727,1071.261h-7.185l.29,9.434a41.815,41.815,0,0,1-25.29-.894q.5-3.551.806-7.157c.236-2.8.38-5.611.43-8.424a128.34,128.34,0,0,0-.471-13.612,4.729,4.729,0,0,1,2.989-4.82,42.949,42.949,0,0,0,4.482-2.077q1.068-.57,2.125-1.207c2.231.2,4.4-.745,6.41.247l1.726.853,7.987,4.408a8.284,8.284,0,0,1,3.29,4.731C2291.436,1057.079,2293.223,1065.207,2292.727,1071.261Z" transform="translate(-2215.429 -1022.442)" fill="#2795f8"/>
        <path id="Trazado_8369" data-name="Trazado 8369" d="M2294.222,1146.828l.289,9.434c-7.89-11.111-23.673-19.669-23.673-19.669l.662-4.666,25.188,14.9Z" transform="translate(-2224.109 -1098.009)" fill="#0089ef"/>
        <path id="Trazado_8370" data-name="Trazado 8370" d="M2312.988,1043.713c0,.13,0,.262,0,.393a5.264,5.264,0,0,0,.993,3.059,4.634,4.634,0,0,0,4.625,1.527,6.156,6.156,0,0,0,3.9-3.113,7.979,7.979,0,0,0,.742-1.973l-1.727-.853c-2.009-.992-4.179-.048-6.41-.247Q2314.056,1043.144,2312.988,1043.713Z" transform="translate(-2259.64 -1022.444)" fill="#f68895"/>
        <g id="Grupo_3160" data-name="Grupo 3160" transform="translate(0 1.256)">
          <path id="Rectángulo_1567" data-name="Rectángulo 1567" d="M0,0H7.577a0,0,0,0,1,0,0V1.564A3.789,3.789,0,0,1,3.789,5.352h0A3.789,3.789,0,0,1,0,1.564V0A0,0,0,0,1,0,0Z" transform="translate(91.745 66.41) rotate(-56.081)" fill="#ffdce9"/>
          <path id="Trazado_8371" data-name="Trazado 8371" d="M1977.928,925.776l-1.295,1.927-.439-.4-3.027-2.6.7-.836,3.526,1.657Z" transform="translate(-1973.167 -923.863)" fill="#ce1747"/>
          <path id="Trazado_8372" data-name="Trazado 8372" d="M2004.476,938.639l-1.21,3.751-3.018,2.537-8.472-8.857.053-.077,1.272-1.75.052-.077Z" transform="translate(-1988.855 -932.549)" fill="#ffdce9"/>
          <path id="Trazado_8373" data-name="Trazado 8373" d="M2131.03,1017.166a7.481,7.481,0,0,1-4.229,6.288l-36.461-24.519-4.278-2.877-40.316-27.11a7.466,7.466,0,0,1,4.227-6.288l39.231,26.38,4.509,3.033,36.612,24.618Z" transform="translate(-2034.352 -956.57)" fill="#462261"/>
        </g>
        <path id="Trazado_8374" data-name="Trazado 8374" d="M2242.9,1134.148a2.971,2.971,0,0,0,.514,2.831,3.848,3.848,0,0,0,2.6,1.349,4.508,4.508,0,0,0,2.3-.371,4.253,4.253,0,0,0-1.657-3.308A4.466,4.466,0,0,0,2242.9,1134.148Z" transform="translate(-2200.417 -1099.717)" fill="#f68895"/>
        <path id="Trazado_8375" data-name="Trazado 8375" d="M2413.372,1248.655a2.969,2.969,0,0,0,.514,2.831,3.847,3.847,0,0,0,2.6,1.349,4.507,4.507,0,0,0,2.3-.372,4.254,4.254,0,0,0-1.656-3.308A4.468,4.468,0,0,0,2413.372,1248.655Z" transform="translate(-2344.131 -1196.249)" fill="#f68895"/>
      </g>
    </g>
  </g>
</svg>
