<svg xmlns="http://www.w3.org/2000/svg" xmlns:xlink="http://www.w3.org/1999/xlink" width="168.884" height="184.812" viewBox="0 0 168.884 184.812">
  <defs>
    <clipPath id="clip-path">
      <path id="Trazado_2429" data-name="Trazado 2429" d="M393.62,310.718c.074-2.591,42.864,24.452,45,26.411l57.633-33.669-43.463-25.093Z" transform="translate(-393.62 -278.367)" fill="none"/>
    </clipPath>
  </defs>
  <g id="Grupo_874" data-name="Grupo 874" transform="translate(-377.53 -119.798)">
    <g id="Grupo_868" data-name="Grupo 868" transform="translate(387.477 119.798)">
      <g id="Grupo_835" data-name="Grupo 835" transform="translate(14.835 99.534)">
        <g id="Grupo_833" data-name="Grupo 833" transform="translate(0 0.433)">
          <path id="Trazado_2380" data-name="Trazado 2380" d="M418.268,327.632c-.055-1.262.845-2.606,2.65-3.648l63.355-36.578c3.207-1.852,8.059-2.053,10.837-.449L560.493,324.7a3.256,3.256,0,0,1,1.872,2.625.131.131,0,0,1,0,.016.141.141,0,0,1,0,.017.131.131,0,0,1,0,.016.131.131,0,0,1,0,.016.141.141,0,0,1,0,.017.131.131,0,0,1,0,.016.141.141,0,0,1,0,.017.131.131,0,0,1,0,.016.131.131,0,0,1,0,.016.141.141,0,0,1,0,.017.131.131,0,0,1,0,.016.141.141,0,0,1,0,.017.131.131,0,0,1,0,.016.131.131,0,0,1,0,.016.142.142,0,0,1,0,.017.131.131,0,0,1,0,.016.131.131,0,0,1,0,.016.141.141,0,0,1,0,.017.131.131,0,0,1,0,.016.131.131,0,0,1,0,.016.142.142,0,0,1,0,.017.131.131,0,0,1,0,.016.131.131,0,0,1,0,.016.142.142,0,0,1,0,.017.131.131,0,0,1,0,.016.141.141,0,0,1,0,.017.131.131,0,0,1,0,.016.141.141,0,0,1,0,.017.131.131,0,0,1,0,.016.131.131,0,0,1,0,.016.141.141,0,0,1,0,.017.131.131,0,0,1,0,.016.132.132,0,0,1,0,.016.141.141,0,0,1,0,.017.132.132,0,0,1,0,.016.131.131,0,0,1,0,.016.141.141,0,0,1,0,.017.131.131,0,0,1,0,.016.142.142,0,0,1,0,.017.131.131,0,0,1,0,.016.131.131,0,0,1,0,.016.141.141,0,0,1,0,.017.131.131,0,0,1,0,.016.131.131,0,0,1,0,.016.142.142,0,0,1,0,.017.131.131,0,0,1,0,.016.132.132,0,0,1,0,.016.141.141,0,0,1,0,.017.131.131,0,0,1,0,.016.14.14,0,0,1,0,.017.131.131,0,0,1,0,.016.131.131,0,0,1,0,.016.141.141,0,0,1,0,.017.131.131,0,0,1,0,.016.141.141,0,0,1,0,.017.13.13,0,0,1,0,.016.131.131,0,0,1,0,.016.141.141,0,0,1,0,.017.131.131,0,0,1,0,.016.131.131,0,0,1,0,.016.142.142,0,0,1,0,.017.131.131,0,0,1,0,.016.131.131,0,0,1,0,.016.142.142,0,0,1,0,.017.131.131,0,0,1,0,.016.131.131,0,0,1,0,.016.141.141,0,0,1,0,.017.131.131,0,0,1,0,.016.141.141,0,0,1,0,.017.131.131,0,0,1,0,.016.131.131,0,0,1,0,.016.141.141,0,0,1,0,.017.131.131,0,0,1,0,.016.14.14,0,0,1,0,.017.131.131,0,0,1,0,.016.132.132,0,0,1,0,.016.141.141,0,0,1,0,.017.131.131,0,0,1,0,.016.131.131,0,0,1,0,.016.141.141,0,0,1,0,.017.131.131,0,0,1,0,.016.132.132,0,0,1,0,.016.141.141,0,0,1,0,.017.131.131,0,0,1,0,.016.14.14,0,0,1,0,.017.132.132,0,0,1,0,.016.131.131,0,0,1,0,.016.142.142,0,0,1,0,.017.131.131,0,0,1,0,.016.131.131,0,0,1,0,.016.141.141,0,0,1,0,.017.131.131,0,0,1,0,.016.131.131,0,0,1,0,.016.142.142,0,0,1,0,.017.131.131,0,0,1,0,.016.141.141,0,0,1,0,.017.131.131,0,0,1,0,.016.131.131,0,0,1,0,.016.14.14,0,0,1,0,.017c.055,1.261-.844,2.605-2.65,3.648l-63.355,36.578c-3.207,1.852-8.059,2.053-10.837.45l-65.382-37.749a3.255,3.255,0,0,1-1.873-2.625.152.152,0,0,1,0-.016.164.164,0,0,1,0-.017.152.152,0,0,1,0-.016.153.153,0,0,1,0-.016.162.162,0,0,1,0-.017.153.153,0,0,1,0-.016.152.152,0,0,1,0-.016.164.164,0,0,1,0-.017.152.152,0,0,1,0-.016.164.164,0,0,1,0-.017.151.151,0,0,1,0-.016.152.152,0,0,1,0-.016.152.152,0,0,1,0-.016.164.164,0,0,1,0-.017.152.152,0,0,1,0-.016.163.163,0,0,1,0-.017.152.152,0,0,1,0-.016.152.152,0,0,1,0-.016.164.164,0,0,1,0-.017.152.152,0,0,1,0-.016.163.163,0,0,1,0-.017.152.152,0,0,1,0-.016.152.152,0,0,1,0-.016.163.163,0,0,1,0-.017.152.152,0,0,1,0-.016.152.152,0,0,1,0-.016.164.164,0,0,1,0-.017.152.152,0,0,1,0-.016.153.153,0,0,1,0-.016.162.162,0,0,1,0-.017.153.153,0,0,1,0-.016.164.164,0,0,1,0-.017.151.151,0,0,1,0-.016.152.152,0,0,1,0-.016.164.164,0,0,1,0-.017.151.151,0,0,1,0-.016.164.164,0,0,1,0-.017.152.152,0,0,1,0-.016.152.152,0,0,1,0-.016.163.163,0,0,1,0-.017.152.152,0,0,1,0-.016.152.152,0,0,1,0-.016.164.164,0,0,1,0-.017.152.152,0,0,1,0-.016.152.152,0,0,1,0-.016.163.163,0,0,1,0-.017.152.152,0,0,1,0-.016.164.164,0,0,1,0-.017.152.152,0,0,1,0-.016.152.152,0,0,1,0-.016.163.163,0,0,1,0-.017.152.152,0,0,1,0-.016.152.152,0,0,1,0-.016.163.163,0,0,1,0-.017.153.153,0,0,1,0-.016.151.151,0,0,1,0-.016.164.164,0,0,1,0-.017.151.151,0,0,1,0-.016.164.164,0,0,1,0-.017.152.152,0,0,1,0-.016.152.152,0,0,1,0-.016.164.164,0,0,1,0-.017.152.152,0,0,1,0-.016.163.163,0,0,1,0-.017.152.152,0,0,1,0-.016.152.152,0,0,1,0-.016.163.163,0,0,1,0-.017.152.152,0,0,1,0-.016.152.152,0,0,1,0-.016.163.163,0,0,1,0-.017.152.152,0,0,1,0-.016.152.152,0,0,1,0-.016.163.163,0,0,1,0-.017.152.152,0,0,1,0-.016.152.152,0,0,1,0-.016.163.163,0,0,1,0-.017.152.152,0,0,1,0-.016.164.164,0,0,1,0-.017.151.151,0,0,1,0-.016.153.153,0,0,1,0-.016.163.163,0,0,1,0-.017.152.152,0,0,1,0-.016.164.164,0,0,1,0-.017.152.152,0,0,1,0-.016.151.151,0,0,1,0-.016.153.153,0,0,1,0-.016.163.163,0,0,1,0-.017.153.153,0,0,1,0-.016.163.163,0,0,1,0-.017.152.152,0,0,1,0-.016.152.152,0,0,1,0-.016.164.164,0,0,1,0-.017.152.152,0,0,1,0-.016.163.163,0,0,1,0-.017.152.152,0,0,1,0-.016.152.152,0,0,1,0-.016.164.164,0,0,1,0-.017.152.152,0,0,1,0-.016A.152.152,0,0,1,418.268,327.632Z" transform="translate(-418.266 -285.874)" fill="#1895ee"/>
        </g>
        <g id="Grupo_834" data-name="Grupo 834">
          <path id="Trazado_2381" data-name="Trazado 2381" d="M420.141,329.522l65.382,37.748c2.777,1.6,7.63,1.4,10.837-.449l63.355-36.578c3.207-1.852,3.556-4.653.778-6.256L495.11,286.238c-2.777-1.6-7.63-1.4-10.837.449l-63.355,36.578C417.711,325.117,417.363,327.918,420.141,329.522Z" transform="translate(-418.265 -285.155)" fill="#f2f7fa"/>
        </g>
      </g>
      <g id="Grupo_867" data-name="Grupo 867">
        <g id="Grupo_854" data-name="Grupo 854" transform="translate(52.981)">
          <path id="Trazado_2382" data-name="Trazado 2382" d="M482.945,334.389l53.322,30.785c1.936,1.118,5.32.978,7.556-.313h0c2.237-1.291,2.479-3.244.542-4.363l-53.321-30.785c-1.937-1.118-5.32-.978-7.557.313h0C481.251,331.318,481.008,333.271,482.945,334.389Z" transform="translate(-481.637 -203.058)" opacity="0.1" style="mix-blend-mode: multiply;isolation: isolate"/>
          <g id="Grupo_853" data-name="Grupo 853" transform="translate(0.827)">
            <g id="Grupo_836" data-name="Grupo 836" transform="translate(0.207)">
              <path id="Trazado_2383" data-name="Trazado 2383" d="M485.361,126.419h0l.01,0Z" transform="translate(-484.154 -122.432)" fill="#4f4c4d"/>
              <path id="Trazado_2384" data-name="Trazado 2384" d="M539.677,277.046V159.634c0-2.9-1.762-6.266-3.937-7.522l-48.654-28.091c-.944-.545-3.4.156-3.73,1.421.44-2.044,4.844-4.877,7.339-5.545.772-.206,1.858-.172,4.377.909l45.817,26.409a10.41,10.41,0,0,1,5.221,7.69,8.181,8.181,0,0,1,.061.979V273.3a6.263,6.263,0,0,1-1,3.749c-1.692,2.367-5.839,3.809-8.3,3.409l1.418-.215C539.138,279.767,539.677,278.647,539.677,277.046Z" transform="translate(-483.356 -119.798)" fill="#222e8e"/>
            </g>
            <g id="Grupo_850" data-name="Grupo 850" transform="translate(0 3.751)">
              <path id="Trazado_2385" data-name="Trazado 2385" d="M486.949,254.413,535.6,282.5c2.174,1.256,3.937-.077,3.937-2.976V162.115c0-2.9-1.763-6.266-3.937-7.522L486.949,126.5c-2.174-1.255-3.937.077-3.937,2.976V246.891C483.012,249.79,484.774,253.158,486.949,254.413Z" transform="translate(-483.012 -126.03)" fill="#3c55bc"/>
              <path id="Trazado_2386" data-name="Trazado 2386" d="M489.206,249.817l49.071,28.331v-100.1l-49.071-28.331Z" transform="translate(-485.478 -135.457)" fill="#f2f7fa"/>
              <g id="Grupo_848" data-name="Grupo 848" transform="translate(14.658 38.843)">
                <path id="Trazado_2387" data-name="Trazado 2387" d="M533.65,281.664l-26.286-15.176V256.16l26.286,15.176Z" transform="translate(-507.364 -216.673)" fill="#fd9c10"/>
                <g id="Grupo_847" data-name="Grupo 847" transform="translate(2.278)">
                  <path id="Trazado_2388" data-name="Trazado 2388" d="M511.148,241.558l16.241,9.377,5.183-2.991-16.241-9.377Z" transform="translate(-511.148 -209.67)" fill="#04008c" opacity="0.2" style="mix-blend-mode: multiply;isolation: isolate"/>
                  <g id="Grupo_846" data-name="Grupo 846">
                    <path id="Trazado_2389" data-name="Trazado 2389" d="M536,208.855V232.03l-16.241-9.377V199.478Z" transform="translate(-514.576 -194.111)" fill="#e56e0c"/>
                    <g id="Grupo_837" data-name="Grupo 837" transform="translate(0 5.368)">
                      <path id="Trazado_2390" data-name="Trazado 2390" d="M518.72,199.478l-1.571,1.533v23.613l1.571-.859Z" transform="translate(-513.537 -199.478)" fill="#cdd6d6"/>
                      <path id="Trazado_2391" data-name="Trazado 2391" d="M514.76,202.025l-3.612,1.457v23.175l3.612-1.019Z" transform="translate(-511.148 -200.492)" fill="#e56e0c"/>
                    </g>
                    <g id="Grupo_841" data-name="Grupo 841" transform="translate(2.759)">
                      <g id="Grupo_838" data-name="Grupo 838" transform="translate(4.085)">
                        <path id="Trazado_2392" data-name="Trazado 2392" d="M533.765,198.87v9.989c0,.805-.489,1.176-1.094.826l-9.059-5.23a2.618,2.618,0,0,1-1.094-2.09v-9.988c0-.805.489-1.176,1.094-.827l9.059,5.23A2.62,2.62,0,0,1,533.765,198.87Z" transform="translate(-522.518 -190.902)" fill="#0c4b77"/>
                        <path id="Trazado_2393" data-name="Trazado 2393" d="M533.8,195.922l-9.06-5.231a.7.7,0,0,0-.717-.055h0l-.906.527v0a.689.689,0,0,1,.734.045l9.059,5.23a2.619,2.619,0,0,1,1.094,2.09v9.989a.969.969,0,0,1-.378.883h0l.895-.521h0a.972.972,0,0,0,.373-.879v-9.989A2.619,2.619,0,0,0,533.8,195.922Z" transform="translate(-522.755 -190.561)" fill="#093859"/>
                      </g>
                      <g id="Grupo_839" data-name="Grupo 839" transform="translate(2.02 2.687)">
                        <path id="Trazado_2394" data-name="Trazado 2394" d="M530.334,203.334v9.989c0,.805-.489,1.176-1.094.826l-9.059-5.23a2.618,2.618,0,0,1-1.094-2.09V196.84c0-.805.489-1.176,1.094-.826l9.059,5.23A2.618,2.618,0,0,1,530.334,203.334Z" transform="translate(-519.087 -195.366)" fill="#46aaf1"/>
                        <path id="Trazado_2395" data-name="Trazado 2395" d="M530.366,200.386l-9.059-5.231a.7.7,0,0,0-.717-.055h0l-.905.527v0a.689.689,0,0,1,.734.045l9.059,5.23a2.618,2.618,0,0,1,1.094,2.09v9.989a.969.969,0,0,1-.378.883h0l.895-.521h0a.973.973,0,0,0,.372-.879v-9.989A2.617,2.617,0,0,0,530.366,200.386Z" transform="translate(-519.324 -195.024)" fill="#1270b3"/>
                      </g>
                      <g id="Grupo_840" data-name="Grupo 840" transform="translate(0 5.454)">
                        <path id="Trazado_2396" data-name="Trazado 2396" d="M526.978,207.931v9.989c0,.805-.49,1.176-1.094.827l-9.059-5.231a2.617,2.617,0,0,1-1.094-2.089v-9.989c0-.805.489-1.176,1.094-.827l9.059,5.23A2.62,2.62,0,0,1,526.978,207.931Z" transform="translate(-515.731 -199.964)" fill="#a3d5f8"/>
                        <path id="Trazado_2397" data-name="Trazado 2397" d="M527.01,204.983l-9.06-5.23a.7.7,0,0,0-.717-.055h0l-.906.527h0a.689.689,0,0,1,.734.045l9.059,5.23a2.619,2.619,0,0,1,1.094,2.09v9.989a.968.968,0,0,1-.378.883h0l.894-.521h0a.972.972,0,0,0,.373-.879v-9.989A2.62,2.62,0,0,0,527.01,204.983Z" transform="translate(-515.968 -199.622)" fill="#74bff5"/>
                      </g>
                    </g>
                    <path id="Trazado_2398" data-name="Trazado 2398" d="M527.39,213.824V237l-16.241-9.377V204.447Z" transform="translate(-511.148 -196.088)" fill="#fd9c10"/>
                    <g id="Grupo_842" data-name="Grupo 842" transform="translate(16.241 14.745)">
                      <path id="Trazado_2399" data-name="Trazado 2399" d="M538.13,256.547l2.041-2.364,3.142-.627Z" transform="translate(-538.13 -230.382)" fill="#e56e0c"/>
                      <path id="Trazado_2400" data-name="Trazado 2400" d="M538.13,218.461l2.041-2.364v23.175l-2.041,2.364Z" transform="translate(-538.13 -215.471)" fill="#e56e0c"/>
                      <path id="Trazado_2401" data-name="Trazado 2401" d="M544.663,215.056l-3.142.627v23.175l3.142-.627Z" transform="translate(-539.48 -215.056)" fill="#fd9c10"/>
                    </g>
                    <g id="Grupo_845" data-name="Grupo 845" transform="translate(3.672 12.836)">
                      <path id="Trazado_2402" data-name="Trazado 2402" d="M530.329,219.676a1.024,1.024,0,0,0,.465.8c.257.148.465.029.465-.265a1.026,1.026,0,0,0-.465-.8C530.537,219.263,530.329,219.381,530.329,219.676Z" transform="translate(-522.455 -214.855)" fill="#e56e0c"/>
                      <path id="Trazado_2403" data-name="Trazado 2403" d="M518.334,212.751c0,.295-.208.414-.465.265a1.027,1.027,0,0,1-.465-.8c0-.295.208-.414.465-.265A1.024,1.024,0,0,1,518.334,212.751Z" transform="translate(-517.31 -211.885)" fill="#e56e0c"/>
                      <g id="Grupo_843" data-name="Grupo 843" transform="translate(0.187 0.547)">
                        <path id="Trazado_2404" data-name="Trazado 2404" d="M521.82,225.964c2.351,1.357,4.263.267,4.263-2.43v-5.555a.822.822,0,0,0-.373-.643c-.206-.119-.373-.023-.373.212V223.1c0,2.225-1.578,3.125-3.518,2.006a7.762,7.762,0,0,1-3.518-6.068v-5.555a.82.82,0,0,0-.373-.643c-.205-.119-.372-.023-.372.212v5.555A9.4,9.4,0,0,0,521.82,225.964Z" transform="translate(-517.558 -212.793)" fill="#04008c" opacity="0.2" style="mix-blend-mode: multiply;isolation: isolate"/>
                      </g>
                      <g id="Grupo_844" data-name="Grupo 844" transform="translate(0 0.225)">
                        <path id="Trazado_2405" data-name="Trazado 2405" d="M521.511,225.43c2.35,1.357,4.262.267,4.262-2.43v-5.555a.82.82,0,0,0-.373-.642c-.206-.119-.373-.024-.373.212v5.555c0,2.226-1.578,3.125-3.517,2.006a7.761,7.761,0,0,1-3.518-6.068v-5.555a.822.822,0,0,0-.373-.643c-.206-.119-.372-.023-.372.213v5.555A9.4,9.4,0,0,0,521.511,225.43Z" transform="translate(-517.248 -212.259)" fill="#f7f8fb"/>
                      </g>
                    </g>
                  </g>
                </g>
                <text id="BUY_IT" data-name="BUY IT" transform="translate(9.953 53.401)" fill="#f4f0ef" font-size="4" font-family="FranklinGothic-Book, Franklin Gothic Book"><tspan x="-5.412" y="0">BUY IT</tspan></text>
              </g>
              <path id="Trazado_2406" data-name="Trazado 2406" d="M521.735,159.7l9.354,5.4c.346.2.626-.012.626-.473v-.33a.672.672,0,0,0-.336-.583l-9.354-5.4c-.346-.2-.625.012-.625.472v.33A.672.672,0,0,0,521.735,159.7Z" transform="translate(-498.293 -138.852)" fill="#04008c"/>
              <path id="Trazado_2407" data-name="Trazado 2407" d="M521.4,346.447c0-.46.28-.672.625-.473l9.354,5.4a.671.671,0,0,1,.336.582v.33c0,.46-.28.672-.626.473l-9.354-5.4a.673.673,0,0,1-.336-.582Z" transform="translate(-498.293 -213.552)" fill="#04008c"/>
              <g id="Grupo_849" data-name="Grupo 849" transform="translate(16.885 15.291)">
                <path id="Trazado_2408" data-name="Trazado 2408" d="M511.064,152.389a2.982,2.982,0,0,0,1.353,2.334c.747.431,1.353.086,1.353-.772a2.981,2.981,0,0,0-1.353-2.333C511.67,151.187,511.064,151.532,511.064,152.389Z" transform="translate(-511.064 -151.433)" fill="#04008c"/>
              </g>
            </g>
            <g id="Grupo_852" data-name="Grupo 852" transform="translate(58.198 45.076)">
              <g id="Grupo_851" data-name="Grupo 851">
                <path id="Trazado_2409" data-name="Trazado 2409" d="M579.7,197.559a3.482,3.482,0,0,1,1.572-2.66c.854-.494,1.546-.113,1.573.844l.005,0v12.673l-.005,0c0,.019.005.035.005.055a3.477,3.477,0,0,1-1.578,2.721c-.871.5-1.578.1-1.578-.9,0-.02,0-.041.005-.061l-.005,0V197.562Z" transform="translate(-579.696 -194.683)" fill="none" stroke="#3c55bc" stroke-miterlimit="10" stroke-width="0.65"/>
                <path id="Trazado_2410" data-name="Trazado 2410" d="M579.7,279.489a3.483,3.483,0,0,1,1.572-2.661c.854-.493,1.546-.113,1.573.845l.005,0v12.673l-.005,0c0,.019.005.035.005.055a3.475,3.475,0,0,1-1.578,2.721c-.871.5-1.578.1-1.578-.9,0-.02,0-.041.005-.061l-.005,0V279.492Z" transform="translate(-579.696 -227.296)" fill="none" stroke="#3c55bc" stroke-miterlimit="10" stroke-width="0.65"/>
                <path id="Trazado_2411" data-name="Trazado 2411" d="M579.7,265.464c0,1,.707,1.4,1.578.9a3.475,3.475,0,0,0,1.578-2.721c0-1-.707-1.4-1.578-.9A3.478,3.478,0,0,0,579.7,265.464Z" transform="translate(-579.696 -221.689)" fill="none" stroke="#3c55bc" stroke-miterlimit="10" stroke-width="0.65"/>
              </g>
            </g>
          </g>
        </g>
        <g id="Grupo_858" data-name="Grupo 858" transform="translate(37.192 9.502)">
          <g id="Grupo_855" data-name="Grupo 855">
            <path id="Trazado_2412" data-name="Trazado 2412" d="M481.053,159.867v-.114c0-7.363-4.477-15.918-10-19.105l-3.338-1.927c-2.483-1.434-4.753-1.535-6.5-.547h-.007l3.407-1.947c1.746-.978,4.01-.873,6.486.556l3.338,1.927c5.523,3.188,10,11.743,10,19.106v.114c0,4.043-1.351,6.883-3.483,8.1l-3.393,1.949v0C479.7,166.759,481.053,163.916,481.053,159.867Z" transform="translate(-457.716 -135.584)" fill="#74bff5"/>
            <path id="Trazado_2413" data-name="Trazado 2413" d="M465.407,166.779l3.338,1.927c5.523,3.188,10-.2,10-7.56v-.114c0-7.363-4.477-15.918-10-19.105L465.407,140c-5.523-3.188-10,.2-10,7.56v.113C455.407,155.037,459.884,163.591,465.407,166.779Z" transform="translate(-455.407 -136.864)" fill="#a3d5f8"/>
          </g>
          <g id="Grupo_857" data-name="Grupo 857" transform="translate(5.122 9.455)">
            <path id="Trazado_2414" data-name="Trazado 2414" d="M465.25,158.324l-1.042-1.8c-.388-.669-.388-1.389,0-1.61l1.042-.594a.694.694,0,0,0,.291-.637v-1.691c0-.629.444-.882.992-.566l1.474.851a.706.706,0,0,0,.7.072l1.042-.594c.388-.221,1.016.142,1.4.81l1.043,1.8a2.033,2.033,0,0,0,.7.739l1.474.851a2.187,2.187,0,0,1,.993,1.712v1.691a2.013,2.013,0,0,0,.29.973l1.043,1.8c.387.668.387,1.389,0,1.61l-1.043.594a.693.693,0,0,0-.29.637v1.691c0,.629-.444.882-.993.566l-1.474-.851a.7.7,0,0,0-.7-.072l-1.043.594c-.387.221-1.015-.142-1.4-.81l-1.042-1.8a2.03,2.03,0,0,0-.7-.739l-1.474-.851a2.185,2.185,0,0,1-.992-1.711V159.3A2.015,2.015,0,0,0,465.25,158.324Z" transform="translate(-463.917 -151.291)" fill="#fd9c10"/>
            <g id="Grupo_856" data-name="Grupo 856" transform="translate(3.519 2.833)">
              <line id="Línea_137" data-name="Línea 137" x1="6.032" y1="10.404" fill="none" stroke="#f9fbfc" stroke-miterlimit="10" stroke-width="0.65"/>
              <path id="Trazado_2415" data-name="Trazado 2415" d="M470.257,164.827a2.216,2.216,0,0,0,1.005,1.734c.555.32,1.005.064,1.005-.573a2.215,2.215,0,0,0-1.005-1.734C470.707,163.934,470.257,164.19,470.257,164.827Z" transform="translate(-469.959 -159.229)" fill="none" stroke="#f9fbfc" stroke-miterlimit="10" stroke-width="0.65"/>
              <path id="Trazado_2416" data-name="Trazado 2416" d="M475.949,161.582a2.214,2.214,0,0,0,1.005,1.734c.555.32,1.005.064,1.005-.573a2.216,2.216,0,0,0-1.005-1.734C476.4,160.689,475.949,160.945,475.949,161.582Z" transform="translate(-472.225 -157.937)" fill="none" stroke="#f9fbfc" stroke-miterlimit="10" stroke-width="0.65"/>
            </g>
          </g>
        </g>
        <g id="Grupo_866" data-name="Grupo 866" transform="translate(0 95.448)">
          <g id="Grupo_860" data-name="Grupo 860" transform="translate(2.444 34.154)">
            <g id="Grupo_859" data-name="Grupo 859">
              <path id="Trazado_2417" data-name="Trazado 2417" d="M419.367,347.323s17.2-2.8,18.946-2.487,3.058,4.728-6.009,6.155S421,353.028,421,353.028s-3.973-2.205-3.464-4.108S419.367,347.323,419.367,347.323Z" transform="translate(-405.565 -338.97)" fill="#e56e0c"/>
              <path id="Trazado_2418" data-name="Trazado 2418" d="M440.283,360.577c1.13,1.838.647,5.207-.748,5.9s-4.65,1.511-4.882-2.208S440.283,360.577,440.283,360.577Z" transform="translate(-412.395 -345.246)" fill="#e56e0c"/>
              <path id="Trazado_2419" data-name="Trazado 2419" d="M436.849,368.026c1.561,1.421,1.161,4.793-.656,5.174-1.338.281-3.476.853-4.279-1.936C431.011,368.126,436.849,368.026,436.849,368.026Z" transform="translate(-411.27 -348.211)" fill="#e56e0c"/>
              <path id="Trazado_2420" data-name="Trazado 2420" d="M420.516,355.656a8.384,8.384,0,0,0,.134-1.5s15.281-9.066,12.085-12.464c-2.414-2.566-11.8,2.31-16.243,4.85a3.5,3.5,0,0,1-4.983-1.608,1.751,1.751,0,0,1-.027-1.474c.917-1.834,7.946-2.44,7.946-2.44h7.029a4.652,4.652,0,0,0,5.094-5l-14.567-.917s-10.391,2.444-12.123,3.973a70.659,70.659,0,0,0-5.317,7.073,10.331,10.331,0,0,0,2.423,14.291l2.349,1.7A10.3,10.3,0,0,0,420.516,355.656Z" transform="translate(-397.681 -335.107)" fill="#fd9c10"/>
            </g>
          </g>
          <g id="Grupo_861" data-name="Grupo 861" transform="translate(59.173)">
            <path id="Trazado_2421" data-name="Trazado 2421" d="M491.924,279.672v-1.3l43.463,25.093v1.3Z" transform="translate(-491.924 -278.367)" fill="#144ca9"/>
            <path id="Trazado_2422" data-name="Trazado 2422" d="M491.924,280.1,535.387,305.2v-1.3l-42.333-24.441Z" transform="translate(-491.924 -278.798)" fill="#04008c"/>
          </g>
          <g id="Grupo_865" data-name="Grupo 865" transform="translate(0 0)">
            <g id="Grupo_864" data-name="Grupo 864" clip-path="url(#clip-path)">
              <g id="Grupo_863" data-name="Grupo 863" transform="translate(13.638 0.729)">
                <path id="Trazado_2423" data-name="Trazado 2423" d="M502.371,302.093,453.12,330.528c-2.266,1.309-6.225,1.144-8.842-.367l-25.835-14.916c-2.617-1.511-2.9-3.8-.634-5.105l49.25-28.435c2.266-1.309,6.225-1.144,8.842.367l25.835,14.915C504.353,298.5,504.637,300.785,502.371,302.093Z" transform="translate(-416.278 -280.074)" fill="#222e8e"/>
                <path id="Trazado_2424" data-name="Trazado 2424" d="M502.371,300.849,453.12,329.284c-2.266,1.309-6.225,1.144-8.842-.367L418.442,314c-2.617-1.511-2.9-3.8-.634-5.1l49.25-28.435c2.266-1.309,6.225-1.144,8.842.367l25.835,14.916C504.353,297.255,504.637,299.541,502.371,300.849Z" transform="translate(-416.278 -279.578)" fill="#1895ee"/>
                <path id="Trazado_2425" data-name="Trazado 2425" d="M479.085,282.667,421.627,315.84l5.9,3.408,57.458-33.173Z" transform="translate(-418.407 -280.808)" fill="#222e8e"/>
                <g id="Grupo_862" data-name="Grupo 862" transform="translate(17.928 15.24)">
                  <path id="Trazado_2426" data-name="Trazado 2426" d="M466.765,324.973l-17.634,10.181-3.07-1.773L463.7,323.2Z" transform="translate(-446.061 -312.183)" fill="#f9fbfc"/>
                  <path id="Trazado_2427" data-name="Trazado 2427" d="M483.372,334.561l-17.634,10.181-1.535-.886,17.634-10.181Z" transform="translate(-453.283 -316.352)" fill="#f9fbfc"/>
                  <path id="Trazado_2428" data-name="Trazado 2428" d="M498.469,306.669,480.836,316.85l-3.07-1.773L495.4,304.9Z" transform="translate(-458.682 -304.896)" fill="#f9fbfc"/>
                </g>
              </g>
            </g>
          </g>
          <path id="Trazado_2430" data-name="Trazado 2430" d="M433.091,358.032s15.281-9.066,12.085-12.464c-2.414-2.566-11.8,2.31-16.243,4.85Z" transform="translate(-407.677 -304.829)" fill="#fd9c10"/>
        </g>
      </g>
    </g>
    <g id="Grupo_873" data-name="Grupo 873" transform="translate(378.189 159.423)">
      <g id="Grupo_870" data-name="Grupo 870">
        <g id="Grupo_869" data-name="Grupo 869" transform="translate(24.927 32.843)">
          <line id="Línea_138" data-name="Línea 138" x2="2.595" y2="1.795" transform="translate(1.463 3.765)" fill="none" stroke="#1895ee" stroke-miterlimit="10" stroke-width="1.301"/>
          <line id="Línea_139" data-name="Línea 139" x2="2.595" y2="1.795" transform="translate(13.79 12.289)" fill="none" stroke="#1895ee" stroke-miterlimit="10" stroke-width="1.301"/>
          <line id="Línea_140" data-name="Línea 140" y1="2.595" x2="1.795" transform="translate(3.765 13.79)" fill="none" stroke="#1895ee" stroke-miterlimit="10" stroke-width="1.301"/>
          <line id="Línea_141" data-name="Línea 141" y1="2.595" x2="1.795" transform="translate(12.289 1.463)" fill="none" stroke="#1895ee" stroke-miterlimit="10" stroke-width="1.301"/>
          <line id="Línea_142" data-name="Línea 142" y1="0.566" x2="3.104" transform="translate(0 9.985)" fill="none" stroke="#1895ee" stroke-miterlimit="10" stroke-width="1.301"/>
          <line id="Línea_143" data-name="Línea 143" y1="0.566" x2="3.104" transform="translate(14.744 7.296)" fill="none" stroke="#1895ee" stroke-miterlimit="10" stroke-width="1.301"/>
          <line id="Línea_144" data-name="Línea 144" x1="0.566" y1="3.104" transform="translate(9.985 14.744)" fill="none" stroke="#1895ee" stroke-miterlimit="10" stroke-width="1.301"/>
          <line id="Línea_145" data-name="Línea 145" x1="0.566" y1="3.104" transform="translate(7.296)" fill="none" stroke="#1895ee" stroke-miterlimit="10" stroke-width="1.301"/>
        </g>
        <path id="Trazado_2431" data-name="Trazado 2431" d="M394.77,272.931a1.814,1.814,0,1,1-.46-2.524A1.814,1.814,0,0,1,394.77,272.931Z" transform="translate(-383.473 -219.247)" fill="none" stroke="#fd9c10" stroke-miterlimit="10" stroke-width="1.301"/>
        <path id="Trazado_2432" data-name="Trazado 2432" d="M386.455,192.742a4.535,4.535,0,1,1-1.151-6.31A4.535,4.535,0,0,1,386.455,192.742Z" transform="translate(-378.189 -185.627)" fill="none" stroke="#fd9c10" stroke-miterlimit="10" stroke-width="1.301"/>
      </g>
      <g id="Grupo_872" data-name="Grupo 872" transform="translate(141.567 14.033)">
        <path id="Trazado_2433" data-name="Trazado 2433" d="M616.507,264.092a1.566,1.566,0,1,1-1.566-1.566A1.566,1.566,0,0,1,616.507,264.092Z" transform="translate(-613.375 -230.27)" fill="none" stroke="#fd9c10" stroke-miterlimit="10" stroke-width="1.301"/>
        <g id="Grupo_871" data-name="Grupo 871" transform="translate(4.998)">
          <line id="Línea_146" data-name="Línea 146" x2="2.724" transform="translate(0 7.831)" fill="none" stroke="#1895ee" stroke-miterlimit="10" stroke-width="1.301"/>
          <line id="Línea_147" data-name="Línea 147" x2="2.724" transform="translate(12.938 7.831)" fill="none" stroke="#1895ee" stroke-miterlimit="10" stroke-width="1.301"/>
          <line id="Línea_148" data-name="Línea 148" y1="2.724" transform="translate(7.831 12.938)" fill="none" stroke="#1895ee" stroke-miterlimit="10" stroke-width="1.301"/>
          <line id="Línea_149" data-name="Línea 149" y1="2.724" transform="translate(7.831)" fill="none" stroke="#1895ee" stroke-miterlimit="10" stroke-width="1.301"/>
          <line id="Línea_150" data-name="Línea 150" y1="1.926" x2="1.926" transform="translate(2.294 11.442)" fill="none" stroke="#1895ee" stroke-miterlimit="10" stroke-width="1.301"/>
          <line id="Línea_151" data-name="Línea 151" y1="1.926" x2="1.926" transform="translate(11.442 2.294)" fill="none" stroke="#1895ee" stroke-miterlimit="10" stroke-width="1.301"/>
          <line id="Línea_152" data-name="Línea 152" x1="1.926" y1="1.926" transform="translate(11.442 11.442)" fill="none" stroke="#1895ee" stroke-miterlimit="10" stroke-width="1.301"/>
          <line id="Línea_153" data-name="Línea 153" x1="1.926" y1="1.926" transform="translate(2.294 2.294)" fill="none" stroke="#1895ee" stroke-miterlimit="10" stroke-width="1.301"/>
        </g>
      </g>
    </g>
  </g>
</svg>
