<svg id="Capa_1" data-name="Capa 1" xmlns="http://www.w3.org/2000/svg" xmlns:xlink="http://www.w3.org/1999/xlink" viewBox="0 0 186.69 296.93"><defs><style>.cls-1{fill:none;}.cls-2{fill:#3db0b8;}.cls-3{clip-path:url(#clip-path);}.cls-4{clip-path:url(#clip-path-2);}.cls-5{opacity:0.53;}.cls-6{clip-path:url(#clip-path-5);}.cls-7{fill:#0c4291;}.cls-8{clip-path:url(#clip-path-6);}.cls-9{clip-path:url(#clip-path-7);}.cls-10{clip-path:url(#clip-path-8);}.cls-11{clip-path:url(#clip-path-9);}.cls-12{clip-path:url(#clip-path-10);}.cls-13{clip-path:url(#clip-path-11);}.cls-14{clip-path:url(#clip-path-12);}.cls-15{clip-path:url(#clip-path-13);}.cls-16{clip-path:url(#clip-path-14);}.cls-17{clip-path:url(#clip-path-15);}.cls-18{clip-path:url(#clip-path-16);}.cls-19{clip-path:url(#clip-path-17);}.cls-20{clip-path:url(#clip-path-18);}.cls-21{clip-path:url(#clip-path-19);}.cls-22{clip-path:url(#clip-path-20);}.cls-23{clip-path:url(#clip-path-21);}.cls-24{clip-path:url(#clip-path-22);}.cls-25{clip-path:url(#clip-path-23);}.cls-26{clip-path:url(#clip-path-24);}.cls-27{clip-path:url(#clip-path-25);}.cls-28{clip-path:url(#clip-path-26);}.cls-29{clip-path:url(#clip-path-27);}.cls-30{clip-path:url(#clip-path-28);}.cls-31{clip-path:url(#clip-path-29);}.cls-32{clip-path:url(#clip-path-30);}.cls-33{clip-path:url(#clip-path-31);}.cls-34{clip-path:url(#clip-path-32);}.cls-35{clip-path:url(#clip-path-33);}.cls-36{clip-path:url(#clip-path-34);}.cls-37{clip-path:url(#clip-path-35);}.cls-38{clip-path:url(#clip-path-36);}.cls-39{clip-path:url(#clip-path-37);}.cls-40{clip-path:url(#clip-path-38);}.cls-41{clip-path:url(#clip-path-39);}.cls-42{clip-path:url(#clip-path-40);}.cls-43,.cls-44{fill:#fff;}.cls-44{isolation:isolate;font-size:11px;font-family:Arial-BoldMT, Arial;font-weight:700;}.cls-45{clip-path:url(#clip-path-41);}</style><clipPath id="clip-path"><rect class="cls-1" x="0.28" y="0.77" width="186.21" height="295.99" rx="23"/></clipPath><clipPath id="clip-path-2"><rect class="cls-1" x="-56.64" y="-26.05" width="293.96" height="349.03"/></clipPath><clipPath id="clip-path-5"><rect class="cls-1" x="-9.77" y="108.84" width="60.17" height="52.1"/></clipPath><clipPath id="clip-path-6"><rect class="cls-1" x="-9.77" y="54.94" width="60.17" height="52.1"/></clipPath><clipPath id="clip-path-7"><rect class="cls-1" x="-56.64" y="81.71" width="60.17" height="52.1"/></clipPath><clipPath id="clip-path-8"><rect class="cls-1" x="-56.64" y="27.83" width="60.17" height="52.1"/></clipPath><clipPath id="clip-path-9"><rect class="cls-1" x="37.23" y="81.71" width="60.17" height="52.1"/></clipPath><clipPath id="clip-path-10"><rect class="cls-1" x="37.23" y="27.83" width="60.17" height="52.1"/></clipPath><clipPath id="clip-path-11"><rect class="cls-1" x="130.3" y="27.83" width="60.17" height="52.1"/></clipPath><clipPath id="clip-path-12"><rect class="cls-1" x="-56.64" y="-26.05" width="60.17" height="52.09"/></clipPath><clipPath id="clip-path-13"><rect class="cls-1" x="37.23" y="-26.05" width="60.17" height="52.09"/></clipPath><clipPath id="clip-path-14"><rect class="cls-1" x="130.3" y="-26.05" width="60.17" height="52.09"/></clipPath><clipPath id="clip-path-15"><rect class="cls-1" x="130.31" y="81.71" width="60.17" height="52.1"/></clipPath><clipPath id="clip-path-16"><rect class="cls-1" x="130.31" y="135.59" width="60.17" height="52.09"/></clipPath><clipPath id="clip-path-17"><rect class="cls-1" x="130.31" y="189.46" width="60.17" height="52.1"/></clipPath><clipPath id="clip-path-18"><rect class="cls-1" x="130.31" y="243.65" width="60.17" height="52.1"/></clipPath><clipPath id="clip-path-19"><rect class="cls-1" x="84.06" y="108.84" width="60.17" height="52.1"/></clipPath><clipPath id="clip-path-20"><rect class="cls-1" x="84.06" y="54.94" width="60.17" height="52.09"/></clipPath><clipPath id="clip-path-21"><rect class="cls-1" x="177.15" y="54.94" width="60.17" height="52.09"/></clipPath><clipPath id="clip-path-22"><rect class="cls-1" x="-9.77" y="1.04" width="60.17" height="52.1"/></clipPath><clipPath id="clip-path-23"><rect class="cls-1" x="84.06" y="1.04" width="60.17" height="52.1"/></clipPath><clipPath id="clip-path-24"><rect class="cls-1" x="177.15" y="1.04" width="60.17" height="52.1"/></clipPath><clipPath id="clip-path-25"><rect class="cls-1" x="177.15" y="108.84" width="60.17" height="52.1"/></clipPath><clipPath id="clip-path-26"><rect class="cls-1" x="177.15" y="162.68" width="60.17" height="52.1"/></clipPath><clipPath id="clip-path-27"><rect class="cls-1" x="177.15" y="216.87" width="60.17" height="52.1"/></clipPath><clipPath id="clip-path-28"><rect class="cls-1" x="177.15" y="270.88" width="60.17" height="52.1"/></clipPath><clipPath id="clip-path-29"><rect class="cls-1" x="84.06" y="162.68" width="60.17" height="52.1"/></clipPath><clipPath id="clip-path-30"><rect class="cls-1" x="84.06" y="216.87" width="60.17" height="52.1"/></clipPath><clipPath id="clip-path-31"><rect class="cls-1" x="84.06" y="270.88" width="60.17" height="52.1"/></clipPath><clipPath id="clip-path-32"><rect class="cls-1" x="37.23" y="135.59" width="60.17" height="52.09"/></clipPath><clipPath id="clip-path-33"><rect class="cls-1" x="-9.77" y="162.86" width="60.17" height="52.1"/></clipPath><clipPath id="clip-path-34"><rect class="cls-1" x="-56.64" y="135.59" width="60.17" height="52.09"/></clipPath><clipPath id="clip-path-35"><rect class="cls-1" x="-56.64" y="189.62" width="60.17" height="52.09"/></clipPath><clipPath id="clip-path-36"><rect class="cls-1" x="37.23" y="189.46" width="60.17" height="52.1"/></clipPath><clipPath id="clip-path-37"><rect class="cls-1" x="-9.77" y="216.87" width="60.17" height="52.1"/></clipPath><clipPath id="clip-path-38"><rect class="cls-1" x="-9.77" y="270.88" width="60.17" height="52.1"/></clipPath><clipPath id="clip-path-39"><rect class="cls-1" x="-56.64" y="243.65" width="60.17" height="52.1"/></clipPath><clipPath id="clip-path-40"><rect class="cls-1" x="37.23" y="243.65" width="60.17" height="52.1"/></clipPath><clipPath id="clip-path-41"><path class="cls-1" d="M145,13.66a15.14,15.14,0,0,0,19.84,22.87h0a15.14,15.14,0,0,0,1.49-21.36h0a15.14,15.14,0,0,0-21.35-1.51Z"/></clipPath></defs><title>tarjeta_minero_tres</title><g id="_1-Home_tarjeta_drédito" data-name=" 1-Home tarjeta drédito"><g id="Grupo_1397" data-name="Grupo 1397"><g id="Grupo_1396" data-name="Grupo 1396"><rect id="Rectángulo_1099" data-name="Rectángulo 1099" class="cls-2" x="0.27" y="0.75" width="186.16" height="295.99" rx="23"/><g id="Grupo_1388" data-name="Grupo 1388"><g class="cls-3"><g id="Grupo_1387" data-name="Grupo 1387"><g id="Ilustración_2" data-name="Ilustración 2"><g id="Grupo_1386" data-name="Grupo 1386"><g class="cls-4"><g id="Grupo_1385" data-name="Grupo 1385"><g id="Grupo_1384" data-name="Grupo 1384"><g class="cls-4"><g id="Grupo_1383" data-name="Grupo 1383"><g id="Grupo_1382" data-name="Grupo 1382"><g class="cls-4"><g id="Grupo_1381" data-name="Grupo 1381"><g id="Grupo_1275" data-name="Grupo 1275" class="cls-5"><g id="Grupo_1274" data-name="Grupo 1274"><g class="cls-6"><g id="Grupo_1273" data-name="Grupo 1273"><path id="Trazado_3755" data-name="Trazado 3755" class="cls-7" d="M35.36,160.94H5.28l-15-26.05,15-26H35.36l15,26ZM6.28,159.2H34.35l14-24.3-14-24.3H6.28l-14,24.3Z"/><path id="Trazado_3756" data-name="Trazado 3756" class="cls-7" d="M33.45,157.64H7.18L-5.95,134.89,7.18,112.15H33.45l13.14,22.74ZM8.19,155.89H32.44l12.13-21-12.13-21H8.19l-12.13,21Z"/><path id="Trazado_3757" data-name="Trazado 3757" class="cls-7" d="M31.47,154.21H9.16L-2,134.89,9.16,115.57H31.47l11.16,19.32Zm-21.3-1.74h20.3l10.15-17.58L30.47,117.31H10.17L0,134.89Z"/><path id="Trazado_3758" data-name="Trazado 3758" class="cls-7" d="M29.41,150.63H11.28L2.14,134.89l9.14-15.74H29.41l9.08,15.74Zm-17.13-1.74H28.4l8.08-14-8.08-14H12.28l-8.09,14Z"/><path id="Trazado_3759" data-name="Trazado 3759" class="cls-7" d="M27.4,147.16H13.28L6.15,134.89l7.13-12.26H27.4l7.08,12.26Zm-13.12-1.75H26.39l6.08-10.52-6.08-10.52H14.28L8.17,134.89Z"/><path id="Trazado_3760" data-name="Trazado 3760" class="cls-7" d="M25.61,144.06H15l-5.29-9.17L15,125.73H25.61l5.29,9.16ZM16,142.31H24.6l4.29-7.42-4.29-7.42H16l-4.29,7.42Z"/><path id="Trazado_3761" data-name="Trazado 3761" class="cls-7" d="M23.86,141H16.77l-3.55-6.14,3.55-6.14h7.09l3.55,6.14Zm-6.08-1.74h5.08l2.54-4.4-2.54-4.4H17.78l-2.5,4.43Z"/><path id="Trazado_3762" data-name="Trazado 3762" class="cls-7" d="M22.33,138.38h-4l-2-3.49,2-3.49h4l2,3.49Zm-3-1.74h2l1-1.75-1-1.75h-2l-1,1.75Z"/></g></g></g></g><g id="Grupo_1278" data-name="Grupo 1278" class="cls-5"><g id="Grupo_1277" data-name="Grupo 1277"><g class="cls-8"><g id="Grupo_1276" data-name="Grupo 1276"><path id="Trazado_3763" data-name="Trazado 3763" class="cls-7" d="M35.36,107H5.28l-15-26,15-26.06H35.36L50.4,81ZM6.28,105.29H34.35l14-24.3-14-24.3H6.28L-7.72,81Z"/><path id="Trazado_3764" data-name="Trazado 3764" class="cls-7" d="M33.45,103.73H7.18L-5.95,81,7.18,58.24H33.45L46.59,81ZM8.19,102H32.44L44.57,81,32.44,60H8.19L-3.94,81Z"/><path id="Trazado_3765" data-name="Trazado 3765" class="cls-7" d="M31.47,100.31H9.16L-2,81,9.16,61.67H31.47L42.63,81Zm-21.3-1.75h20.3L40.62,81,30.47,63.41H10.17L0,81Z"/><path id="Trazado_3766" data-name="Trazado 3766" class="cls-7" d="M29.41,96.73H11.28L2.14,81l9.14-15.75H29.41L38.49,81ZM12.28,95H28.4l8.08-14L28.4,67H12.28L4.15,81Z"/><path id="Trazado_3767" data-name="Trazado 3767" class="cls-7" d="M27.4,93.25H13.28L6.15,81l7.13-12.28H27.4L34.48,81ZM14.28,91.51H26.39L32.47,81,26.39,70.47H14.28L8.17,81Z"/><path id="Trazado_3768" data-name="Trazado 3768" class="cls-7" d="M25.61,90.15H15L9.73,81,15,71.83H25.61L30.9,81ZM16,88.41H24.6L28.89,81,24.6,73.57H16L11.74,81Z"/><path id="Trazado_3769" data-name="Trazado 3769" class="cls-7" d="M23.86,87.13H16.77L13.22,81l3.55-6.14h7.09L27.41,81Zm-6.08-1.75h5.08L25.4,81l-2.54-4.4H17.78L15.28,81Z"/><path id="Trazado_3770" data-name="Trazado 3770" class="cls-7" d="M22.33,84.48h-4l-2-3.48,2-3.49h4l2,3.49Zm-3-1.75h2l1-1.74-1-1.75h-2l-1,1.76Z"/></g></g></g></g><g id="Grupo_1281" data-name="Grupo 1281" class="cls-5"><g id="Grupo_1280" data-name="Grupo 1280"><g class="cls-9"><g id="Grupo_1279" data-name="Grupo 1279"><path id="Trazado_3771" data-name="Trazado 3771" class="cls-7" d="M-11.51,133.8H-41.6l-15-26.05,15-26h30.09l15,26Zm-29.08-1.74h28.07l14-24.3-14-24.3H-40.59l-14,24.3Z"/></g></g></g></g><g id="Grupo_1284" data-name="Grupo 1284" class="cls-5"><g id="Grupo_1283" data-name="Grupo 1283"><g class="cls-10"><g id="Grupo_1282" data-name="Grupo 1282"><path id="Trazado_3779" data-name="Trazado 3779" class="cls-7" d="M-11.51,79.92H-41.6l-15-26,15-26h30.09l15,26.05Zm-29.08-1.74h28.07l14-24.3-14-24.3H-40.59l-14,24.3Z"/></g></g></g></g><g id="Grupo_1287" data-name="Grupo 1287" class="cls-5"><g id="Grupo_1286" data-name="Grupo 1286"><g class="cls-11"><g id="Grupo_1285" data-name="Grupo 1285"><path id="Trazado_3787" data-name="Trazado 3787" class="cls-7" d="M82.36,133.8H52.28l-15.05-26L52.28,81.71H82.35l15,26.05Zm-29.08-1.74H81.35l14-24.3-14-24.3H53.28l-14,24.3Z"/><path id="Trazado_3788" data-name="Trazado 3788" class="cls-7" d="M80.44,130.5H54.17L41,107.76,54.18,85H80.44l13.14,22.76Zm-25.26-1.74H79.44l12.13-21-12.13-21H55.19l-12.13,21Z"/><path id="Trazado_3789" data-name="Trazado 3789" class="cls-7" d="M78.47,127.08H56.15L45,107.76,56.16,88.44H78.47l11.16,19.32Zm-21.31-1.75h20.3l10.15-17.58L77.46,90.18H57.16L47,107.75Z"/><path id="Trazado_3790" data-name="Trazado 3790" class="cls-7" d="M76.4,123.5H58.22l-9.09-15.75L58.22,92H76.4l9.09,15.73Zm-17.12-1.75H75.39l8.09-14-8.09-14H59.28l-8.08,14Z"/><path id="Trazado_3791" data-name="Trazado 3791" class="cls-7" d="M74.4,120H60.28L53.2,107.74l7.08-12.25H74.4l7.08,12.27Zm-13.12-1.73H73.39l6.07-10.51L73.39,97.24H61.28L55.2,107.76Z"/><path id="Trazado_3792" data-name="Trazado 3792" class="cls-7" d="M72.61,116.92H62l-5.3-9.17L62,98.59H72.61l5.29,9.16ZM63,115.18H71.6l4.28-7.43-4.28-7.42H63l-4.29,7.42Z"/><path id="Trazado_3793" data-name="Trazado 3793" class="cls-7" d="M70.86,113.9h-7.1l-3.54-6.15,3.54-6.14h7.1l3.54,6.14Zm-6.09-1.75h5.08l2.54-4.4-2.54-4.4H64.77l-2.49,4.4Z"/><path id="Trazado_3794" data-name="Trazado 3794" class="cls-7" d="M69.33,111.25h-4l-2-3.49,2-3.49h4l2,3.49Zm-3-1.75h2l1-1.74-1-1.76h-2l-1,1.75Z"/></g></g></g></g><g id="Grupo_1290" data-name="Grupo 1290" class="cls-5"><g id="Grupo_1289" data-name="Grupo 1289"><g class="cls-12"><g id="Grupo_1288" data-name="Grupo 1288"><path id="Trazado_3795" data-name="Trazado 3795" class="cls-7" d="M82.36,79.92H52.28l-15.05-26L52.28,27.83H82.35l15,26.05ZM53.28,78.18H81.35l14-24.3-14-24.3H53.28l-14,24.3Z"/><path id="Trazado_3796" data-name="Trazado 3796" class="cls-7" d="M80.44,76.62H54.17L41,53.88,54.18,31.13H80.44L93.58,53.88ZM55.18,74.88H79.44l12.13-21-12.13-21H55.19l-12.13,21Z"/><path id="Trazado_3797" data-name="Trazado 3797" class="cls-7" d="M78.47,73.2H56.15L45,53.88,56.16,34.56H78.47L89.63,53.88ZM57.16,71.45h20.3L87.61,53.88,77.46,36.3H57.16L47,53.88Z"/><path id="Trazado_3798" data-name="Trazado 3798" class="cls-7" d="M76.4,69.62H58.22L49.13,53.88l9.09-15.74H76.4l9.09,15.74ZM59.28,67.87H75.39l8.09-14-8.09-14H59.28l-8.08,14Z"/><path id="Trazado_3799" data-name="Trazado 3799" class="cls-7" d="M74.4,66.14H60.28L53.15,53.88l7.13-12.27H74.4l7.08,12.27ZM61.28,64.4H73.39l6.07-10.52L73.39,43.36H61.28L55.16,53.88Z"/><path id="Trazado_3800" data-name="Trazado 3800" class="cls-7" d="M72.61,63H62l-5.3-9.16L62,44.67H72.61l5.29,9.17ZM63,61.3H71.6l4.28-7.42L71.6,46.45H63l-4.29,7.43Z"/><path id="Trazado_3801" data-name="Trazado 3801" class="cls-7" d="M70.86,60h-7.1l-3.54-6.14,3.54-6.14h7.1l3.54,6.14Zm-6.09-1.75h5.08l2.54-4.4-2.54-4.4H64.77l-2.49,4.42Z"/><path id="Trazado_3802" data-name="Trazado 3802" class="cls-7" d="M69.33,57.37h-4l-2-3.49,2-3.49h4l2,3.49Zm-3-1.75h2l1-1.74-1-1.75h-2l-1,1.75Z"/></g></g></g></g><g id="Grupo_1293" data-name="Grupo 1293" class="cls-5"><g id="Grupo_1292" data-name="Grupo 1292"><g class="cls-13"><g id="Grupo_1291" data-name="Grupo 1291"><path id="Trazado_3803" data-name="Trazado 3803" class="cls-7" d="M175.43,79.92H145.35l-15-26,15-26h30.08l15,26.05Zm-29.08-1.74h28.07l14-24.3-14-24.3H146.35l-14,24.3Z"/><path id="Trazado_3804" data-name="Trazado 3804" class="cls-7" d="M173.52,76.62H147.28L134.12,53.88l13.16-22.75h26.27l13.14,22.75Zm-25.24-1.74h24.26l12.12-21-12.12-21H148.28l-12.13,21Z"/><path id="Trazado_3805" data-name="Trazado 3805" class="cls-7" d="M171.55,73.2H149.28L138.07,53.88l11.21-19.32H171.6l11.15,19.32Zm-21.27-1.75h20.3l10.15-17.57L170.54,36.3H150.28L140.09,53.88Z"/><path id="Trazado_3806" data-name="Trazado 3806" class="cls-7" d="M169.48,69.62h-18.2l-9.09-15.74,9.09-15.74h18.2l9.09,15.74Zm-17.2-1.75h16.16l8.08-14-8.08-14H152.28l-8.08,14Z"/><path id="Trazado_3807" data-name="Trazado 3807" class="cls-7" d="M167.47,66.14H153.28l-7-12.26,7-12.27h14.16l7.08,12.27ZM154.28,64.4h12.15l6.07-10.52-6.07-10.52H154.28l-6,10.52Z"/><path id="Trazado_3808" data-name="Trazado 3808" class="cls-7" d="M165.68,63H155.1l-5.3-9.16,5.3-9.17h10.58l5.3,9.17Zm-9.58-1.74h8.58L169,53.84l-4.28-7.43H156.1l-4.28,7.43Z"/><path id="Trazado_3809" data-name="Trazado 3809" class="cls-7" d="M163.94,60h-7.1l-3.56-6.12,3.54-6.14h7.1l3.54,6.14Zm-6.09-1.75h5.08l2.54-4.4-2.54-4.4h-5.08l-2.57,4.42Z"/><path id="Trazado_3810" data-name="Trazado 3810" class="cls-7" d="M162.4,57.37h-4l-2-3.49,2-3.49h4l2,3.49Zm-3-1.75h2l1-1.74-1-1.75h-2l-1,1.75Z"/></g></g></g></g><g id="Grupo_1296" data-name="Grupo 1296" class="cls-5"><g id="Grupo_1295" data-name="Grupo 1295"><g class="cls-14"><g id="Grupo_1294" data-name="Grupo 1294"><path class="cls-7" d="M-16.42-26H-41.6l-15,26,15,26.05h30.09l15-26L-11-25.17C-12.82-25.39-14.63-25.68-16.42-26Zm3.9,50.35H-40.59L-54.63,0l14-24.3h28.11L1.51,0Z"/></g></g></g></g><g id="Grupo_1299" data-name="Grupo 1299" class="cls-5"><g id="Grupo_1298" data-name="Grupo 1298"><g class="cls-15"><g id="Grupo_1297" data-name="Grupo 1297"><path class="cls-7" d="M68.67-26c-1.36.64-2.73,1.22-4.12,1.75h16.8L95.38,0l-14,24.3H53.28L39.28,0l12-20.73c-.73.11-1.46.21-2.2.29L37.22,0,52.28,26.05H82.36l15-26-15-26Z"/><path class="cls-7" d="M60-22.75a64,64,0,0,1-6.82,1.67L41,0,54.17,22.74H80.44L93.58,0,80.44-22.75ZM79.44,21H55.18L43.06,0,55.19-21H79.44L91.57,0Z"/><path id="Trazado_3821" data-name="Trazado 3821" class="cls-7" d="M78.47,19.32H56.15L45,0,56.16-19.32H78.47L89.63,0ZM57.16,17.58h20.3L87.61,0,77.46-17.58H57.16L47,0Z"/><path id="Trazado_3822" data-name="Trazado 3822" class="cls-7" d="M76.4,15.74H58.22L49.13,0l9.09-15.74H76.4L85.49,0ZM59.28,14H75.39L83.48,0,75.39-14H59.28L51.15,0Z"/><path id="Trazado_3823" data-name="Trazado 3823" class="cls-7" d="M74.4,12.26H60.28L53.15,0l7.13-12.26H74.4L81.48,0ZM61.28,10.52H73.39L79.46,0,73.39-10.52H61.28L55.16,0Z"/><path id="Trazado_3824" data-name="Trazado 3824" class="cls-7" d="M72.61,9.16H62L56.72,0,62-9.17H72.61L77.9,0ZM63,7.42H71.6L75.88,0,71.6-7.42H63L58.74,0Z"/><path id="Trazado_3825" data-name="Trazado 3825" class="cls-7" d="M70.86,6.14h-7.1L60.22,0l3.54-6.14h7.1L74.4,0ZM64.77,4.39h5.08L72.39,0,69.85-4.4H64.77L62.28,0Z"/><path id="Trazado_3826" data-name="Trazado 3826" class="cls-7" d="M69.33,3.49h-4L63.28,0l2-3.49h4l2,3.49Zm-3-1.75h2l1-1.74-1-1.75h-2L65.28,0Z"/></g></g></g></g><g id="Grupo_1302" data-name="Grupo 1302" class="cls-5"><g id="Grupo_1301" data-name="Grupo 1301"><g class="cls-16"><g id="Grupo_1300" data-name="Grupo 1300"><path id="Trazado_3827" data-name="Trazado 3827" class="cls-7" d="M175.43,26.05H145.35L130.28,0l15-26h30.08L190.47,0ZM146.35,24.3h28.07l14-24.3-14-24.3H146.35L132.28,0Z"/><path id="Trazado_3828" data-name="Trazado 3828" class="cls-7" d="M173.52,22.75H147.28L134.12,0l13.16-22.75h26.27L186.66,0ZM148.28,21h24.26l12.1-21L172.52-21H148.28L136.13,0Z"/><path id="Trazado_3829" data-name="Trazado 3829" class="cls-7" d="M171.55,19.32H149.28L138.07,0l11.21-19.32H171.6L182.7,0Zm-21.27-1.74h20.3L180.69,0,170.54-17.58H150.28L140.09,0Z"/><path id="Trazado_3830" data-name="Trazado 3830" class="cls-7" d="M169.48,15.74h-18.2L142.21,0l9.07-15.74h18.2L178.57,0ZM152.28,14h16.16l8.08-14-8.08-14H152.28l-8,14Z"/><path id="Trazado_3831" data-name="Trazado 3831" class="cls-7" d="M167.47,12.26H153.28L146.28,0l7-12.26h14.16L174.55,0Zm-13.19-1.74h12.15L172.54,0l-6.07-10.52H154.28L148.28,0Z"/><path id="Trazado_3832" data-name="Trazado 3832" class="cls-7" d="M165.68,9.16H155.1L149.8,0l5.3-9.17h10.58L171,0ZM156.1,7.42h8.58L169,0l-4.28-7.42H156.1L151.82,0Z"/><path id="Trazado_3833" data-name="Trazado 3833" class="cls-7" d="M163.94,6.14h-7.1L153.28,0l3.54-6.14h7.1L167.48,0Zm-6.09-1.75h5.08L165.47,0l-2.54-4.4h-5.08L155.28,0Z"/><path id="Trazado_3834" data-name="Trazado 3834" class="cls-7" d="M162.4,3.49h-4L156.4,0l2-3.49h4l2,3.49Zm-3-1.75h2l1-1.74-1-1.75h-2L158.4,0Z"/></g></g></g></g><g id="Grupo_1305" data-name="Grupo 1305" class="cls-5"><g id="Grupo_1304" data-name="Grupo 1304"><g class="cls-17"><g id="Grupo_1303" data-name="Grupo 1303"><path id="Trazado_3835" data-name="Trazado 3835" class="cls-7" d="M175.43,133.8H145.35l-15-26,15-26h30.08l15,26.05Zm-29.08-1.74h28.07l14-24.3-14-24.3H146.35l-14,24.3Z"/><path id="Trazado_3836" data-name="Trazado 3836" class="cls-7" d="M173.52,130.5H147.28l-13.13-22.74L147.28,85h26.27l13.14,22.75Zm-25.24-1.74h24.26l12.12-21-12.12-21H148.28l-12.13,21Z"/><path id="Trazado_3837" data-name="Trazado 3837" class="cls-7" d="M171.55,127.08H149.28l-11.16-19.32,11.16-19.32H171.6l11.15,19.32Zm-21.27-1.75h20.3l10.15-17.58L170.54,90.18H150.28l-10.15,17.57Z"/><path id="Trazado_3838" data-name="Trazado 3838" class="cls-7" d="M169.48,123.5h-18.2l-9.09-15.75L151.28,92h18.2l9.09,15.73Zm-17.2-1.75h16.16l8.08-14-8.08-14H152.28l-8.08,14Z"/><path id="Trazado_3839" data-name="Trazado 3839" class="cls-7" d="M167.47,120H153.28l-7-12.24,7-12.27h14.16l7.08,12.27Zm-13.19-1.73h12.15l6.07-10.52-6.07-10.52H154.28l-6,10.52Z"/><path id="Trazado_3840" data-name="Trazado 3840" class="cls-7" d="M165.68,116.92H155.1l-5.3-9.17,5.3-9.16h10.58l5.29,9.16Zm-9.58-1.74h8.58l4.28-7.43-4.28-7.42H156.1l-4.28,7.42Z"/><path id="Trazado_3841" data-name="Trazado 3841" class="cls-7" d="M163.94,113.9h-7.1l-3.56-6.15,3.54-6.14h7.1l3.54,6.14Zm-6.09-1.75h5.08l2.54-4.4-2.54-4.4h-5.08l-2.54,4.4Z"/><path id="Trazado_3842" data-name="Trazado 3842" class="cls-7" d="M162.4,111.25h-4l-2-3.49,2-3.49h4l2,3.49Zm-3-1.75h2l1-1.74-1-1.75h-2l-1,1.75Z"/></g></g></g></g><g id="Grupo_1308" data-name="Grupo 1308" class="cls-5"><g id="Grupo_1307" data-name="Grupo 1307"><g class="cls-18"><g id="Grupo_1306" data-name="Grupo 1306"><path id="Trazado_3843" data-name="Trazado 3843" class="cls-7" d="M175.43,187.68H145.35l-15-26.05,15-26h30.08l15,26Zm-29.08-1.74h28.07l14-24.3-14-24.31H146.35l-14,24.31Z"/><path id="Trazado_3844" data-name="Trazado 3844" class="cls-7" d="M173.52,184.38H147.28l-13.13-22.75,13.13-22.74h26.27l13.14,22.74Zm-25.24-1.75h24.26l12.12-21-12.12-21H148.28l-12.13,21Z"/><path id="Trazado_3845" data-name="Trazado 3845" class="cls-7" d="M171.55,181H149.28l-11.16-19.32,11.16-19.37H171.6l11.15,19.32Zm-21.27-1.79h20.3l10.15-17.58-10.15-17.57h-20.3l-10.15,17.57Z"/><path id="Trazado_3846" data-name="Trazado 3846" class="cls-7" d="M169.48,177.37h-18.2l-9.09-15.74,9.09-15.74h18.2l9.09,15.74Zm-17.2-1.74h16.16l8.08-14-8.08-14H152.28l-8.08,14Z"/><path id="Trazado_3847" data-name="Trazado 3847" class="cls-7" d="M167.47,173.89H153.28l-7-12.26,7-12.26h14.16l7.08,12.26Zm-13.19-1.74h12.14l6.08-10.52-6.08-10.52H154.28l-6,10.52Z"/><path id="Trazado_3848" data-name="Trazado 3848" class="cls-7" d="M165.68,170.8H155.1l-5.3-9.17,5.3-9.16h10.58l5.29,9.16Zm-9.58-1.75h8.58l4.28-7.42-4.28-7.42H156.1l-4.28,7.42Z"/><path id="Trazado_3849" data-name="Trazado 3849" class="cls-7" d="M163.94,167.77h-7.1l-3.56-6.14,3.54-6.14h7.1l3.54,6.14ZM157.85,166h5.08l2.54-4.4-2.54-4.4h-5.08l-2.54,4.4Z"/><path id="Trazado_3850" data-name="Trazado 3850" class="cls-7" d="M162.4,165.12h-4l-2-3.49,2-3.49h4l2,3.49Zm-3-1.74h2l1-1.75-1-1.74h-2l-1,1.74Z"/></g></g></g></g><g id="Grupo_1311" data-name="Grupo 1311" class="cls-5"><g id="Grupo_1310" data-name="Grupo 1310"><g class="cls-19"><g id="Grupo_1309" data-name="Grupo 1309"><path id="Trazado_3851" data-name="Trazado 3851" class="cls-7" d="M175.43,241.56H145.35l-15-26.05,15-26h30.08l15,26Zm-29.08-1.75h28.07l14-24.3-14-24.3H146.35l-14,24.3Z"/><path id="Trazado_3852" data-name="Trazado 3852" class="cls-7" d="M173.52,238.26H147.28l-13.13-22.75,13.13-22.74h26.27l13.14,22.74Zm-25.24-1.75h24.26l12.12-21-12.12-21H148.28l-12.13,21Z"/><path id="Trazado_3853" data-name="Trazado 3853" class="cls-7" d="M171.55,234.83H149.28l-11.16-19.32,11.16-19.32H171.6l11.15,19.32Zm-21.27-1.74h20.3l10.15-17.58-10.15-17.58h-20.3l-10.15,17.58Z"/><path id="Trazado_3854" data-name="Trazado 3854" class="cls-7" d="M169.48,231.25h-18.2l-9.09-15.74,9.09-15.74h18.2l9.09,15.74Zm-17.2-1.74h16.16l8.08-14-8.08-14H152.28l-8.08,14Z"/><path id="Trazado_3855" data-name="Trazado 3855" class="cls-7" d="M167.47,227.77H153.28l-7-12.26,7-12.26h14.16l7.08,12.26ZM154.28,226h12.14l6.08-10.52-6-10.48H154.28l-6,10.51Z"/><path id="Trazado_3856" data-name="Trazado 3856" class="cls-7" d="M165.68,224.68H155.1l-5.3-9.17,5.3-9.17h10.58l5.29,9.17Zm-9.58-1.75h8.58l4.28-7.42-4.28-7.42H156.1l-4.28,7.42Z"/><path id="Trazado_3857" data-name="Trazado 3857" class="cls-7" d="M163.94,221.65h-7.1l-3.56-6.14,3.54-6.14h7.1l3.54,6.14Zm-6.09-1.74h5.08l2.54-4.4-2.54-4.4h-5.08l-2.54,4.4Z"/><path id="Trazado_3858" data-name="Trazado 3858" class="cls-7" d="M162.4,219h-4l-2-3.49,2-3.49h4l2,3.49Zm-3-1.74h2l1-1.75-1-1.75h-2l-1,1.75Z"/></g></g></g></g><g id="Grupo_1314" data-name="Grupo 1314" class="cls-5"><g id="Grupo_1313" data-name="Grupo 1313"><g class="cls-20"><g id="Grupo_1312" data-name="Grupo 1312"><path id="Trazado_3859" data-name="Trazado 3859" class="cls-7" d="M175.43,295.75H145.35L130.28,269.7l15-26h30.08l15,26ZM146.35,294h28.07l14-24.3-14-24.3H146.35l-14,24.3Z"/><path id="Trazado_3860" data-name="Trazado 3860" class="cls-7" d="M173.52,292.44H147.28L134.12,269.7,147.28,247h26.27l13.14,22.75Zm-25.24-1.74h24.26l12.12-21-12.12-21H148.28l-12.13,21Z"/><path id="Trazado_3861" data-name="Trazado 3861" class="cls-7" d="M171.55,289H149.28l-11.21-19.3,11.21-19.32H171.6l11.15,19.32Zm-21.27-1.73h20.3l10.15-17.57-10.15-17.58h-20.3L140.09,269.7Z"/><path id="Trazado_3862" data-name="Trazado 3862" class="cls-7" d="M169.48,285.44h-18.2l-9.09-15.74,9.09-15.7h18.2l9.09,15.74Zm-17.2-1.75h16.16l8.08-14-8.08-14H152.28l-8.08,14Z"/><path id="Trazado_3863" data-name="Trazado 3863" class="cls-7" d="M167.47,282H153.28l-7-12.3,7-12.26h14.16l7.08,12.26Zm-13.19-1.78h12.14l6.08-10.52-6.08-10.52H154.28l-6,10.52Z"/><path id="Trazado_3864" data-name="Trazado 3864" class="cls-7" d="M165.68,278.87H155.1l-5.3-9.17,5.3-9.17h10.58L171,269.7Zm-9.58-1.75h8.58L169,269.7l-4.28-7.42H156.1l-4.28,7.42Z"/><path id="Trazado_3865" data-name="Trazado 3865" class="cls-7" d="M163.94,275.84h-7.1l-3.56-6.14,3.54-6.14h7.1l3.54,6.14Zm-6.09-1.74h5.08l2.54-4.41-2.54-4.4h-5.08l-2.54,4.4Z"/><path id="Trazado_3866" data-name="Trazado 3866" class="cls-7" d="M162.4,273.19h-4l-2-3.49,2-3.49h4l2,3.49Zm-3-1.75h2l1-1.74-1-1.75h-2l-1,1.75Z"/></g></g></g></g><g id="Grupo_1317" data-name="Grupo 1317" class="cls-5"><g id="Grupo_1316" data-name="Grupo 1316"><g class="cls-21"><g id="Grupo_1315" data-name="Grupo 1315"><path id="Trazado_3867" data-name="Trazado 3867" class="cls-7" d="M129.18,160.94H99.1l-15-26.05,15-26h30.08l15,26Zm-29.07-1.74h28.07l14-24.3-14-24.3H100.11l-14,24.3Z"/><path id="Trazado_3868" data-name="Trazado 3868" class="cls-7" d="M127.28,157.64H101L87.87,134.89,101,112.15h26.27l13.13,22.74ZM102,155.89h24.27l12.13-21-12.13-21H102l-12.12,21Z"/><path id="Trazado_3869" data-name="Trazado 3869" class="cls-7" d="M125.28,154.21H103L91.83,134.89,103,115.57h22.3l11.16,19.32ZM104,152.47h20.31l10.15-17.58-10.15-17.58H104L93.84,134.89Z"/><path id="Trazado_3870" data-name="Trazado 3870" class="cls-7" d="M123.28,150.63H105.05L96,134.89l9.09-15.74h18.23l9,15.74Zm-17.17-1.74h16.16l8.08-14-8.08-14H106.06l-8.08,14Z"/><path id="Trazado_3871" data-name="Trazado 3871" class="cls-7" d="M121.22,147.16H107.06L100,134.89l7.08-12.26h14.16l7.06,12.26Zm-13.15-1.75h12.15l6.06-10.52-6.07-10.52H108.07L102,134.89Z"/><path id="Trazado_3872" data-name="Trazado 3872" class="cls-7" d="M119.43,144.06H108.85l-5.3-9.17,5.3-9.16h10.58l5.3,9.16Zm-9.57-1.75h8.57l4.28-7.42-4.28-7.42h-8.57l-4.29,7.42Z"/><path id="Trazado_3873" data-name="Trazado 3873" class="cls-7" d="M117.69,141H110.6l-3.55-6.14,3.55-6.14h7.09l3.54,6.14Zm-6.09-1.74h5.08l2.54-4.4-2.54-4.4H111.6l-2.54,4.4Z"/><path id="Trazado_3874" data-name="Trazado 3874" class="cls-7" d="M116.16,138.38h-4l-2-3.49,2-3.49h4l2,3.49Zm-3-1.74h2l1-1.75-1-1.75h-2l-1,1.75Z"/></g></g></g></g><g id="Grupo_1320" data-name="Grupo 1320" class="cls-5"><g id="Grupo_1319" data-name="Grupo 1319"><g class="cls-22"><g id="Grupo_1318" data-name="Grupo 1318"><path id="Trazado_3875" data-name="Trazado 3875" class="cls-7" d="M129.18,107H99.1l-15-26,15-26h30.08l15,26.05Zm-29.07-1.74h28.07l14-24.3-14-24.3H100.11L86.07,81Z"/><path id="Trazado_3876" data-name="Trazado 3876" class="cls-7" d="M127.28,103.73H101L87.87,81,101,58.25h26.27L140.41,81ZM102,102h24.27l12.13-21L126.28,60H102L89.89,81Z"/><path id="Trazado_3877" data-name="Trazado 3877" class="cls-7" d="M125.28,100.31H103L91.83,81,103,61.67h22.3L136.46,81ZM104,98.56h20.31L134.44,81,124.28,63.41H104L93.84,81Z"/><path id="Trazado_3878" data-name="Trazado 3878" class="cls-7" d="M123.28,96.73H105.05L96,81l9.09-15.74h18.23l9,15.74ZM106.06,95h16.16l8.06-14L122.2,67H106.06L98,81Z"/><path id="Trazado_3879" data-name="Trazado 3879" class="cls-7" d="M121.22,93.25H107.06L100,81l7.08-12.27h14.16L128.28,81Zm-13.15-1.74h12.15L126.28,81l-6.07-10.52H108.07L102,81Z"/><path id="Trazado_3880" data-name="Trazado 3880" class="cls-7" d="M119.43,90.15H108.85L103.55,81l5.3-9.17h10.58l5.3,9.17Zm-9.57-1.74h8.57L122.71,81l-4.28-7.43h-8.57L105.57,81Z"/><path id="Trazado_3881" data-name="Trazado 3881" class="cls-7" d="M117.69,87.13H110.6L107.05,81l3.55-6.14h7.09L121.28,81Zm-6.09-1.75h5.08l2.54-4.4-2.54-4.4H111.6L109.06,81Z"/><path id="Trazado_3882" data-name="Trazado 3882" class="cls-7" d="M116.16,84.48h-4l-2-3.49,2-3.49h4l2,3.49Zm-3-1.75h2l1-1.74-1-1.75h-2l-1,1.75Z"/></g></g></g></g><g id="Grupo_1323" data-name="Grupo 1323" class="cls-5"><g id="Grupo_1322" data-name="Grupo 1322"><g class="cls-23"><g id="Grupo_1321" data-name="Grupo 1321"><path id="Trazado_3883" data-name="Trazado 3883" class="cls-7" d="M222.28,107H192.19l-15-26,15-26h30.09l15,26Zm-29.08-1.74h28.08l14-24.26-14-24.3H193.2L179.2,81Z"/><path id="Trazado_3884" data-name="Trazado 3884" class="cls-7" d="M220.37,103.73H194.1L181,81,194.1,58.25h26.27L233.51,81ZM195.11,102h24.26L231.5,81,219.37,60H195.11L183,81Z"/><path id="Trazado_3885" data-name="Trazado 3885" class="cls-7" d="M218.39,100.31H196.08L184.92,81l11.16-19.33h22.31L229.55,81Zm-21.3-1.75h20.3L227.54,81,217.39,63.41h-20.3L186.94,81Z"/></g></g></g></g><g id="Grupo_1326" data-name="Grupo 1326" class="cls-5"><g id="Grupo_1325" data-name="Grupo 1325"><g class="cls-24"><g id="Grupo_1324" data-name="Grupo 1324"><path id="Trazado_3891" data-name="Trazado 3891" class="cls-7" d="M35.36,53.13H5.28l-15-26.05L5.28,1H35.36l15,26ZM6.28,51.39H34.35l14-24.3-14-24.3H6.28l-14,24.3Z"/><path id="Trazado_3892" data-name="Trazado 3892" class="cls-7" d="M33.45,49.83H7.18L-5.95,27.08,7.18,4.34H33.45L46.59,27.08ZM8.19,48.08H32.44l12.13-21-12.13-21H8.19l-12.13,21Z"/><path id="Trazado_3893" data-name="Trazado 3893" class="cls-7" d="M31.47,46.4H9.16L-2,27.08,9.16,7.76H31.47L42.63,27.08Zm-21.3-1.74h20.3L40.62,27.08,30.47,9.51H10.17L0,27.08Z"/><path id="Trazado_3894" data-name="Trazado 3894" class="cls-7" d="M29.41,42.82H11.28L2.14,27.08l9.14-15.74H29.41l9.08,15.74ZM12.28,41.08H28.4l8.08-14-8.08-14H12.28l-8.09,14Z"/><path id="Trazado_3895" data-name="Trazado 3895" class="cls-7" d="M27.4,39.35H13.28L6.15,27.08l7.13-12.26H27.4l7.08,12.26ZM14.28,37.6H26.39l6.08-10.52L26.39,16.56H14.28L8.17,27.08Z"/><path id="Trazado_3896" data-name="Trazado 3896" class="cls-7" d="M25.61,36.25H15L9.73,27.08,15,17.92H25.61l5.29,9.16ZM16,34.5H24.6l4.29-7.42L24.6,19.66H16l-4.29,7.42Z"/><path id="Trazado_3897" data-name="Trazado 3897" class="cls-7" d="M23.86,33.22H16.77l-3.55-6.14,3.55-6.14h7.09l3.55,6.14Zm-6.08-1.74h5.08l2.54-4.4-2.54-4.4H17.78l-2.5,4.4Z"/><path id="Trazado_3898" data-name="Trazado 3898" class="cls-7" d="M22.33,30.57h-4l-2-3.49,2-3.49h4l2,3.49Zm-3-1.74h2l1-1.75-1-1.74h-2l-1,1.74Z"/></g></g></g></g><g id="Grupo_1329" data-name="Grupo 1329" class="cls-5"><g id="Grupo_1328" data-name="Grupo 1328"><g class="cls-25"><g id="Grupo_1327" data-name="Grupo 1327"><path id="Trazado_3899" data-name="Trazado 3899" class="cls-7" d="M129.18,53.13H99.1l-15-26.05,15-26h30.08l15,26Zm-29.07-1.74h28.07l14-24.3-14-24.3H100.11l-14,24.3Z"/><path id="Trazado_3900" data-name="Trazado 3900" class="cls-7" d="M127.28,49.83H101L87.87,27.08,101,4.34h26.27l13.13,22.74ZM102,48.08h24.27l12.13-21-12.13-21H102l-12.12,21Z"/><path id="Trazado_3901" data-name="Trazado 3901" class="cls-7" d="M125.28,46.4H103L91.83,27.08,103,7.76h22.3l11.16,19.32ZM104,44.66h20.31l10.15-17.58L124.28,9.51H104L93.84,27.08Z"/><path id="Trazado_3902" data-name="Trazado 3902" class="cls-7" d="M123.28,42.82H105.05L96,27.08l9.09-15.74h18.23l9,15.74Zm-17.17-1.74h16.16l8.08-14-8.08-14H106.06L98,27.08Z"/><path id="Trazado_3903" data-name="Trazado 3903" class="cls-7" d="M121.22,39.35H107.06L100,27.08l7.08-12.26h14.16l7.06,12.26ZM108.07,37.6h12.15l6.06-10.52-6.07-10.52H108.07L102,27.08Z"/><path id="Trazado_3904" data-name="Trazado 3904" class="cls-7" d="M119.43,36.25H108.85l-5.3-9.17,5.3-9.16h10.58l5.3,9.16Zm-9.57-1.75h8.57l4.28-7.42-4.28-7.42h-8.57l-4.29,7.42Z"/><path id="Trazado_3905" data-name="Trazado 3905" class="cls-7" d="M117.69,33.22H110.6l-3.55-6.14,3.55-6.14h7.09l3.59,6.14Zm-6.09-1.74h5.08l2.54-4.4-2.54-4.4H111.6l-2.54,4.4Z"/><path id="Trazado_3906" data-name="Trazado 3906" class="cls-7" d="M116.16,30.57h-4l-2-3.49,2-3.49h4l2,3.49Zm-3-1.74h2l1-1.75-1-1.74h-2l-1,1.74Z"/></g></g></g></g><g id="Grupo_1332" data-name="Grupo 1332" class="cls-5"><g id="Grupo_1331" data-name="Grupo 1331"><g class="cls-26"><g id="Grupo_1330" data-name="Grupo 1330"><path id="Trazado_3907" data-name="Trazado 3907" class="cls-7" d="M222.28,53.13H192.19l-15-26.05,15-26h30.09l15,26.05ZM193.2,51.39h28.08l14-24.3-14-24.3H193.2l-14,24.3Z"/><path id="Trazado_3908" data-name="Trazado 3908" class="cls-7" d="M220.37,49.83H194.1L181,27.08,194.1,4.34h26.27l13.14,22.74Zm-25.26-1.75h24.26l12.13-21-12.13-21H195.11L183,27.08Z"/><path id="Trazado_3909" data-name="Trazado 3909" class="cls-7" d="M218.39,46.4H196.08L184.92,27.08,196.08,7.76h22.31l11.16,19.32Zm-21.3-1.74h20.3l10.15-17.58L217.39,9.51h-20.3L186.94,27.08Z"/></g></g></g></g><g id="Grupo_1335" data-name="Grupo 1335" class="cls-5"><g id="Grupo_1334" data-name="Grupo 1334"><g class="cls-27"><g id="Grupo_1333" data-name="Grupo 1333"><path id="Trazado_3915" data-name="Trazado 3915" class="cls-7" d="M222.28,160.94H192.19l-15-26.05,15-26h30.09l15,26ZM193.2,159.2h28.08l14-24.3-14-24.3H193.2l-14,24.3Z"/><path id="Trazado_3916" data-name="Trazado 3916" class="cls-7" d="M220.37,157.64H194.1L181,134.89l13.14-22.74h26.27l13.14,22.74Zm-25.26-1.75h24.26l12.13-21-12.13-21H195.11l-12.13,21Z"/><path id="Trazado_3917" data-name="Trazado 3917" class="cls-7" d="M218.39,154.21H196.08l-11.16-19.32,11.16-19.32h22.31l11.16,19.32Zm-21.3-1.74h20.3l10.15-17.58-10.15-17.58h-20.3l-10.15,17.58Z"/></g></g></g></g><g id="Grupo_1338" data-name="Grupo 1338" class="cls-5"><g id="Grupo_1337" data-name="Grupo 1337"><g class="cls-28"><g id="Grupo_1336" data-name="Grupo 1336"><path id="Trazado_3923" data-name="Trazado 3923" class="cls-7" d="M222.28,214.77H192.19l-15-26.05,15-26h30.09l15,26ZM193.2,213h28.08l14-24.31-14-24.3H193.2l-14,24.3Z"/><path id="Trazado_3924" data-name="Trazado 3924" class="cls-7" d="M220.37,211.47H194.1L181,188.73,194.1,166h26.27l13.14,22.75Zm-25.26-1.74h24.26l12.13-21-12.13-21H195.11l-12.13,21Z"/><path id="Trazado_3925" data-name="Trazado 3925" class="cls-7" d="M218.39,208.05H196.08l-11.16-19.32,11.16-19.32h22.31l11.16,19.32Zm-21.3-1.75h20.3l10.15-17.57-10.15-17.58h-20.3l-10.15,17.58Z"/></g></g></g></g><g id="Grupo_1341" data-name="Grupo 1341" class="cls-5"><g id="Grupo_1340" data-name="Grupo 1340"><g class="cls-29"><g id="Grupo_1339" data-name="Grupo 1339"><path id="Trazado_3931" data-name="Trazado 3931" class="cls-7" d="M222.28,269H192.19l-15-26.05,15-26h30.09l15,26Zm-29.08-1.75h28.08l14-24.3-14-24.3H193.2l-14,24.3Z"/><path id="Trazado_3932" data-name="Trazado 3932" class="cls-7" d="M220.37,265.66H194.1L181,242.92l13.14-22.75h26.27l13.14,22.75Zm-25.26-1.74h24.26l12.13-21-12.13-21H195.11l-12.13,21Z"/><path id="Trazado_3933" data-name="Trazado 3933" class="cls-7" d="M218.39,262.24H196.08l-11.16-19.32,11.16-19.32h22.31l11.16,19.32Zm-21.3-1.75h20.3l10.15-17.57-10.15-17.58h-20.3l-10.15,17.58Z"/></g></g></g></g><g id="Grupo_1344" data-name="Grupo 1344" class="cls-5"><g id="Grupo_1343" data-name="Grupo 1343"><g class="cls-30"><g id="Grupo_1342" data-name="Grupo 1342"><path id="Trazado_3939" data-name="Trazado 3939" class="cls-7" d="M222.28,323H192.19l-15-26.05,15-26.05h30.09l15,26.05Zm-29.08-1.75h28.08l14-24.3-14-24.3H193.2l-14,24.3Z"/><path id="Trazado_3940" data-name="Trazado 3940" class="cls-7" d="M220.37,319.68H194.1L181,296.93l13.14-22.75h26.27l13.14,22.75Zm-25.26-1.75h24.26l12.13-21-12.13-21H195.11l-12.13,21Z"/><path id="Trazado_3941" data-name="Trazado 3941" class="cls-7" d="M218.39,316.25H196.08l-11.16-19.32,11.16-19.32h22.31l11.16,19.32Zm-21.3-1.74h20.3l10.15-17.58-10.15-17.58h-20.3l-10.15,17.58Z"/></g></g></g></g><g id="Grupo_1347" data-name="Grupo 1347" class="cls-5"><g id="Grupo_1346" data-name="Grupo 1346"><g class="cls-31"><g id="Grupo_1345" data-name="Grupo 1345"><path id="Trazado_3947" data-name="Trazado 3947" class="cls-7" d="M129.18,214.78H99.1l-15-26.05,15-26h30.08l15,26ZM100.11,213h28.07l14-24.3-14-24.3H100.11l-14,24.3Z"/><path id="Trazado_3948" data-name="Trazado 3948" class="cls-7" d="M127.28,211.47H101L87.87,188.73,101,166h26.27l13.13,22.75ZM102,209.73h24.27l12.13-21-12.13-21H102l-12.12,21Z"/><path id="Trazado_3949" data-name="Trazado 3949" class="cls-7" d="M125.28,208.05H103L91.83,188.73,103,169.41h22.3l11.16,19.32ZM104,206.3h20.31l10.15-17.57-10.15-17.58H104L93.84,188.73Z"/><path id="Trazado_3950" data-name="Trazado 3950" class="cls-7" d="M123.28,204.47H105.05L96,188.73,105.05,173h18.23l9,15.73Zm-17.17-1.75h16.16l8.08-14-8.08-14H106.06l-8.08,14Z"/><path id="Trazado_3951" data-name="Trazado 3951" class="cls-7" d="M121.22,201H107.06L100,188.73l7.08-12.27h14.16l7.06,12.27Zm-13.15-1.74h12.15l6.06-10.53-6.07-10.52H108.07L102,188.73Z"/><path id="Trazado_3952" data-name="Trazado 3952" class="cls-7" d="M119.43,197.89H108.85l-5.3-9.17,5.3-9.16h10.58l5.3,9.16Zm-9.57-1.74h8.57l4.28-7.43-4.28-7.42h-8.57l-4.29,7.42Z"/><path id="Trazado_3953" data-name="Trazado 3953" class="cls-7" d="M117.69,194.87H110.6l-3.55-6.14,3.55-6.14h7.09l3.54,6.14Zm-6.09-1.74h5.08l2.54-4.4-2.54-4.4H111.6l-2.54,4.4Z"/><path id="Trazado_3954" data-name="Trazado 3954" class="cls-7" d="M116.16,192.22h-4l-2-3.5,2-3.49h4l2,3.49Zm-3-1.75h2l1-1.74-1-1.75h-2l-1,1.75Z"/></g></g></g></g><g id="Grupo_1350" data-name="Grupo 1350" class="cls-5"><g id="Grupo_1349" data-name="Grupo 1349"><g class="cls-32"><g id="Grupo_1348" data-name="Grupo 1348"><path id="Trazado_3955" data-name="Trazado 3955" class="cls-7" d="M129.18,269H99.1L84.1,243l15-26h30.08l15,26Zm-29.07-1.75h28.07l14-24.3-14-24.3H100.11l-14,24.3Z"/><path id="Trazado_3956" data-name="Trazado 3956" class="cls-7" d="M127.28,265.66H101L87.87,242.92,101,220.17h26.27l13.13,22.75ZM102,263.92h24.27l12.13-21-12.13-21H102l-12.12,21Z"/><path id="Trazado_3957" data-name="Trazado 3957" class="cls-7" d="M125.28,262.24H103L91.83,242.92,103,223.6h22.3l11.16,19.32ZM104,260.49h20.31l10.15-17.57-10.15-17.58H104L93.84,242.92Z"/><path id="Trazado_3958" data-name="Trazado 3958" class="cls-7" d="M123.28,258.66H105.05L96,242.92l9.09-15.74h18.23l9,15.74Zm-17.17-1.75h16.16l8.08-14-8.08-14H106.06l-8.08,14Z"/><path id="Trazado_3959" data-name="Trazado 3959" class="cls-7" d="M121.22,255.18H107.06L100,242.92l7.08-12.27h14.16l7.06,12.27Zm-13.15-1.74h12.15l6.06-10.52-6.07-10.52H108.07L102,242.92Z"/><path id="Trazado_3960" data-name="Trazado 3960" class="cls-7" d="M119.43,252.08H108.85l-5.3-9.16,5.3-9.17h10.58l5.3,9.17Zm-9.57-1.74h8.57l4.28-7.42-4.28-7.43h-8.57l-4.29,7.43Z"/><path id="Trazado_3961" data-name="Trazado 3961" class="cls-7" d="M117.69,249.06H110.6l-3.55-6.14,3.55-6.14h7.09l3.54,6.14Zm-6.09-1.75h5.08l2.54-4.4-2.54-4.4H111.6l-2.54,4.4Z"/><path id="Trazado_3962" data-name="Trazado 3962" class="cls-7" d="M116.16,246.41h-4l-2-3.49,2-3.49h4l2,3.49Zm-3-1.75h2l1-1.74-1-1.75h-2l-1,1.75Z"/></g></g></g></g><g id="Grupo_1353" data-name="Grupo 1353" class="cls-5"><g id="Grupo_1352" data-name="Grupo 1352"><g class="cls-33"><g id="Grupo_1351" data-name="Grupo 1351"><path id="Trazado_3963" data-name="Trazado 3963" class="cls-7" d="M129.18,323H99.1L84.1,297l15-26.05h30.08l15,26.05Zm-29.07-1.75h28.07l14-24.3-14-24.3H100.11l-14,24.3Z"/><path id="Trazado_3964" data-name="Trazado 3964" class="cls-7" d="M127.28,319.68H101L87.87,296.93,101,274.18h26.27l13.13,22.75ZM102,317.93h24.27l12.13-21-12.13-21H102l-12.12,21Z"/><path id="Trazado_3965" data-name="Trazado 3965" class="cls-7" d="M125.28,316.25H103L91.83,296.93,103,277.61h22.3l11.16,19.32ZM104,314.51h20.31l10.15-17.58-10.15-17.58H104L93.84,296.93Z"/><path id="Trazado_3966" data-name="Trazado 3966" class="cls-7" d="M123.28,312.67H105.05L96,296.93l9.09-15.74h18.23l9,15.74Zm-17.17-1.74h16.16l8.08-14-8.08-14H106.06l-8.08,14Z"/><path id="Trazado_3967" data-name="Trazado 3967" class="cls-7" d="M121.22,309.19H107.06L100,296.93l7.08-12.26h14.16l7.06,12.26Zm-13.15-1.74h12.15l6.06-10.52-6.07-10.52H108.07L102,296.93Z"/><path id="Trazado_3968" data-name="Trazado 3968" class="cls-7" d="M119.43,306.1H108.85l-5.3-9.17,5.3-9.16h10.58l5.3,9.16Zm-9.57-1.75h8.57l4.28-7.42-4.28-7.42h-8.57l-4.29,7.42Z"/><path id="Trazado_3969" data-name="Trazado 3969" class="cls-7" d="M117.69,303.07H110.6l-3.55-6.14,3.55-6.14h7.09l3.54,6.14Zm-6.09-1.74h5.08l2.54-4.4-2.54-4.4H111.6l-2.54,4.4Z"/><path id="Trazado_3970" data-name="Trazado 3970" class="cls-7" d="M116.16,300.42h-4l-2-3.49,2-3.49h4l2,3.49Zm-3-1.74h2l1-1.75-1-1.75h-2l-1,1.75Z"/></g></g></g></g><g id="Grupo_1356" data-name="Grupo 1356" class="cls-5"><g id="Grupo_1355" data-name="Grupo 1355"><g class="cls-34"><g id="Grupo_1354" data-name="Grupo 1354"><path id="Trazado_3971" data-name="Trazado 3971" class="cls-7" d="M82.36,187.68H52.28L37.22,161.63l15.05-26H82.35l15,26Zm-29.08-1.74H81.35l14-24.3-14-24.31H53.28l-14,24.31Z"/><path id="Trazado_3972" data-name="Trazado 3972" class="cls-7" d="M80.44,184.38H54.17L41,161.63l13.13-22.74H80.44l13.14,22.74Zm-25.26-1.75H79.44l12.13-21-12.13-21H55.19l-12.13,21Z"/><path id="Trazado_3973" data-name="Trazado 3973" class="cls-7" d="M78.47,181H56.15L45,161.63l11.16-19.32H78.47l11.16,19.32Zm-21.31-1.74h20.3l10.15-17.58L77.46,144.06H57.16L47,161.63Z"/><path id="Trazado_3974" data-name="Trazado 3974" class="cls-7" d="M76.4,177.37H58.22l-9.09-15.74,9.09-15.74H76.4l9.09,15.74Zm-17.12-1.74H75.39l8.09-14-8.09-14H59.28l-8.08,14Z"/><path id="Trazado_3975" data-name="Trazado 3975" class="cls-7" d="M74.4,173.89H60.28L53.2,161.63l7.08-12.26H74.4l7.08,12.26Zm-13.12-1.74H73.39l6.07-10.52-6.07-10.52H61.28L55.2,161.63Z"/><path id="Trazado_3976" data-name="Trazado 3976" class="cls-7" d="M72.61,170.8H62l-5.3-9.17,5.3-9.16H72.61l5.29,9.16ZM63,169.05H71.6l4.28-7.42-4.28-7.42H63l-4.29,7.42Z"/><path id="Trazado_3977" data-name="Trazado 3977" class="cls-7" d="M70.86,167.77h-7.1l-3.54-6.14,3.54-6.14h7.1l3.54,6.14ZM64.77,166h5.08l2.54-4.4-2.54-4.4H64.77l-2.49,4.43Z"/><path id="Trazado_3978" data-name="Trazado 3978" class="cls-7" d="M69.33,165.12h-4l-2-3.49,2-3.49h4l2,3.49Zm-3-1.74h2l1-1.75-1-1.74h-2l-1,1.74Z"/></g></g></g></g><g id="Grupo_1359" data-name="Grupo 1359" class="cls-5"><g id="Grupo_1358" data-name="Grupo 1358"><g class="cls-35"><g id="Grupo_1357" data-name="Grupo 1357"><path id="Trazado_3979" data-name="Trazado 3979" class="cls-7" d="M35.36,215H5.28l-15-26,15-26H35.36l15,26ZM6.28,213.21H34.35l14-24.3-14-24.3H6.28l-14,24.3Z"/><path id="Trazado_3980" data-name="Trazado 3980" class="cls-7" d="M33.45,211.65H7.18L-6,188.91,7.18,166.16H33.45l13.14,22.75ZM8.19,209.91H32.44l12.13-21-12.13-21H8.19l-12.13,21Z"/><path id="Trazado_3981" data-name="Trazado 3981" class="cls-7" d="M31.47,208.23H9.16L-2,188.9,9.16,169.59H31.47L42.63,188.9Zm-21.31-1.75h20.3L40.61,188.9,30.47,171.33H10.17L0,188.9Z"/><path id="Trazado_3982" data-name="Trazado 3982" class="cls-7" d="M29.4,204.65H11.28L2.14,188.91l9.14-15.74H29.4l9.09,15.74ZM12.28,202.9H28.4l8.08-14-8.08-14H12.28l-8.08,14Z"/><path id="Trazado_3983" data-name="Trazado 3983" class="cls-7" d="M27.4,201.17H13.28L6.15,188.91l7.13-12.27H27.4l7.08,12.27Zm-13.12-1.75H26.39l6.08-10.51-6.08-10.52H14.28L8.17,188.91Z"/><path id="Trazado_3984" data-name="Trazado 3984" class="cls-7" d="M25.61,198.07H15L9.73,188.9,15,179.74H25.61l5.29,9.16ZM16,196.33H24.6l4.29-7.43-4.29-7.42H16l-4.29,7.42Z"/><path id="Trazado_3985" data-name="Trazado 3985" class="cls-7" d="M23.86,195.05H16.77l-3.55-6.15,3.55-6.14h7.09l3.55,6.14Zm-6.08-1.75h5.07l2.54-4.4-2.54-4.4H17.78l-2.5,4.4Z"/><path id="Trazado_3986" data-name="Trazado 3986" class="cls-7" d="M22.33,192.4h-4l-2-3.49,2-3.49h4l2,3.49Zm-3-1.75h2l1-1.75-1-1.74h-2l-1,1.74Z"/></g></g></g></g><g id="Grupo_1362" data-name="Grupo 1362" class="cls-5"><g id="Grupo_1361" data-name="Grupo 1361"><g class="cls-36"><g id="Grupo_1360" data-name="Grupo 1360"><path id="Trazado_3987" data-name="Trazado 3987" class="cls-7" d="M-11.51,187.68H-41.6l-15-26.05,15-26h30.09l15,26Zm-29.08-1.74h28.07l14-24.3-14-24.31H-40.59l-14,24.31Z"/></g></g></g></g><g id="Grupo_1365" data-name="Grupo 1365" class="cls-5"><g id="Grupo_1364" data-name="Grupo 1364"><g class="cls-37"><g id="Grupo_1363" data-name="Grupo 1363"><path id="Trazado_3995" data-name="Trazado 3995" class="cls-7" d="M-11.51,241.71H-41.6l-15-26,15-26h30.09l15,26ZM-40.59,240h28.07l14-24.3-14-24.3H-40.59l-14,24.3Z"/></g></g></g></g><g id="Grupo_1368" data-name="Grupo 1368" class="cls-5"><g id="Grupo_1367" data-name="Grupo 1367"><g class="cls-38"><g id="Grupo_1366" data-name="Grupo 1366"><path id="Trazado_4003" data-name="Trazado 4003" class="cls-7" d="M82.36,241.56H52.28L37.22,215.51l15.05-26H82.35l15,26Zm-29.08-1.75H81.35l14-24.3-14-24.3H53.28l-14,24.3Z"/><path id="Trazado_4004" data-name="Trazado 4004" class="cls-7" d="M80.44,238.26H54.17L41,215.51l13.13-22.74H80.44l13.14,22.74Zm-25.26-1.75H79.44l12.13-21-12.13-21H55.18l-12.12,21Z"/><path id="Trazado_4005" data-name="Trazado 4005" class="cls-7" d="M78.47,234.83H56.16L45,215.51l11.16-19.32H78.47l11.16,19.32Zm-21.31-1.74h20.3l10.15-17.58L77.46,197.93H57.16L47,215.51Z"/><path id="Trazado_4006" data-name="Trazado 4006" class="cls-7" d="M76.4,231.25H58.22l-9.09-15.74,9.09-15.74H76.4l9.09,15.74Zm-17.12-1.74H75.39l8.09-14-8.09-14H59.28l-8.08,14Z"/><path id="Trazado_4007" data-name="Trazado 4007" class="cls-7" d="M74.4,227.77H60.28L53.2,215.51l7.08-12.26H74.4l7.08,12.26ZM61.28,226H73.39l6.07-10.52L73.39,205H61.28L55.2,215.52Z"/><path id="Trazado_4008" data-name="Trazado 4008" class="cls-7" d="M72.61,224.68H62l-5.3-9.17,5.3-9.17H72.61l5.29,9.17ZM63,222.93H71.6l4.28-7.42-4.28-7.42H63l-4.29,7.42Z"/><path id="Trazado_4009" data-name="Trazado 4009" class="cls-7" d="M70.86,221.65h-7.1l-3.54-6.14,3.54-6.14h7.1l3.54,6.14Zm-6.09-1.74h5.08l2.54-4.4-2.54-4.4H64.77l-2.49,4.4Z"/><path id="Trazado_4010" data-name="Trazado 4010" class="cls-7" d="M69.33,219h-4l-2-3.49,2-3.51h4l2,3.49Zm-3-1.74h2l1-1.75-1-1.74h-2l-1,1.74Z"/></g></g></g></g><g id="Grupo_1371" data-name="Grupo 1371" class="cls-5"><g id="Grupo_1370" data-name="Grupo 1370"><g class="cls-39"><g id="Grupo_1369" data-name="Grupo 1369"><path id="Trazado_4011" data-name="Trazado 4011" class="cls-7" d="M35.36,269H5.28L-9.72,243l15-26.08H35.36l15,26ZM6.28,267.22H34.35l14-24.3-14-24.3H6.28l-14,24.3Z"/><path id="Trazado_4012" data-name="Trazado 4012" class="cls-7" d="M33.45,265.66H7.18L-5.95,242.92,7.18,220.17H33.45l13.14,22.75ZM8.19,263.92H32.44l12.13-21-12.13-21H8.19l-12.13,21Z"/><path id="Trazado_4013" data-name="Trazado 4013" class="cls-7" d="M31.47,262.24H9.16L-2,242.92,9.16,223.6H31.47l11.16,19.32Zm-21.3-1.75h20.3l10.15-17.57L30.47,225.34H10.17L0,242.92Z"/><path id="Trazado_4014" data-name="Trazado 4014" class="cls-7" d="M29.41,258.66H11.28L2.14,242.92l9.14-15.74H29.41l9.08,15.74Zm-17.13-1.75H28.4l8.08-14-8.08-14H12.28l-8.09,14Z"/><path id="Trazado_4015" data-name="Trazado 4015" class="cls-7" d="M27.4,255.18H13.28L6.15,242.92l7.13-12.27H27.4l7.08,12.27Zm-13.12-1.74H26.39l6.08-10.52L26.39,232.4H14.28L8.17,242.92Z"/><path id="Trazado_4016" data-name="Trazado 4016" class="cls-7" d="M25.61,252.08H15l-5.29-9.16L15,233.75H25.61l5.29,9.17ZM16,250.34H24.6l4.29-7.42-4.29-7.43H16l-4.29,7.43Z"/><path id="Trazado_4017" data-name="Trazado 4017" class="cls-7" d="M23.86,249.06H16.77l-3.55-6.14,3.55-6.14h7.09l3.55,6.14Zm-6.08-1.75h5.08l2.54-4.4-2.54-4.4H17.78l-2.5,4.4Z"/><path id="Trazado_4018" data-name="Trazado 4018" class="cls-7" d="M22.33,246.41h-4l-2-3.49,2-3.49h4l2,3.49Zm-3-1.75h2l1-1.74-1-1.75h-2l-1,1.75Z"/></g></g></g></g><g id="Grupo_1374" data-name="Grupo 1374" class="cls-5"><g id="Grupo_1373" data-name="Grupo 1373"><g class="cls-40"><g id="Grupo_1372" data-name="Grupo 1372"><path id="Trazado_4019" data-name="Trazado 4019" class="cls-7" d="M35.36,323H5.28l-15-26,15-26.11H35.36l15,26.05ZM6.28,321.23H34.35l14-24.3-14-24.3H6.28l-14,24.3Z"/><path id="Trazado_4020" data-name="Trazado 4020" class="cls-7" d="M33.45,319.68H7.18L-5.95,296.93,7.18,274.19H33.45l13.14,22.74ZM8.19,317.93H32.44l12.13-21-12.13-21H8.19l-12.13,21Z"/><path id="Trazado_4021" data-name="Trazado 4021" class="cls-7" d="M31.47,316.25H9.16L-2,296.93,9.16,277.61H31.47l11.16,19.32Zm-21.3-1.74h20.3l10.15-17.58L30.47,279.35H10.17L0,296.93Z"/><path id="Trazado_4022" data-name="Trazado 4022" class="cls-7" d="M29.41,312.67H11.28L2.14,296.93l9.14-15.74H29.41l9.08,15.74Zm-17.13-1.74H28.4l8.08-14-8.08-14H12.28l-8.09,14Z"/><path id="Trazado_4023" data-name="Trazado 4023" class="cls-7" d="M27.4,309.2H13.28L6.15,296.93l7.13-12.26H27.4l7.08,12.26Zm-13.12-1.75H26.39l6.08-10.52-6.08-10.52H14.28L8.17,296.93Z"/><path id="Trazado_4024" data-name="Trazado 4024" class="cls-7" d="M25.61,306.1H15l-5.29-9.17L15,287.76H25.61l5.29,9.17ZM16,304.35H24.6l4.29-7.42-4.29-7.42H16l-4.29,7.42Z"/><path id="Trazado_4025" data-name="Trazado 4025" class="cls-7" d="M23.86,303.07H16.77l-3.55-6.14,3.55-6.14h7.09l3.55,6.14Zm-6.08-1.74h5.08l2.54-4.4-2.54-4.4H17.78l-2.5,4.4Z"/><path id="Trazado_4026" data-name="Trazado 4026" class="cls-7" d="M22.33,300.42h-4l-2-3.49,2-3.49h4l2,3.49Zm-3-1.74h2l1-1.75-1-1.75h-2l-1,1.75Z"/></g></g></g></g><g id="Grupo_1377" data-name="Grupo 1377" class="cls-5"><g id="Grupo_1376" data-name="Grupo 1376"><g class="cls-41"><g id="Grupo_1375" data-name="Grupo 1375"><path id="Trazado_4027" data-name="Trazado 4027" class="cls-7" d="M-11.51,295.75H-41.6l-15-26.05,15-26h30.09l15,26ZM-40.59,294h28.07l14-24.3-14-24.3H-40.59l-14,24.3Z"/></g></g></g></g><g id="Grupo_1380" data-name="Grupo 1380" class="cls-5"><g id="Grupo_1379" data-name="Grupo 1379"><g class="cls-42"><g id="Grupo_1378" data-name="Grupo 1378"><path id="Trazado_4035" data-name="Trazado 4035" class="cls-7" d="M82.35,295.75H52.28L37.22,269.7l15.05-26H82.35l15,26ZM53.28,294H81.35l14-24.3-14-24.3H53.28l-14,24.3Z"/><path id="Trazado_4036" data-name="Trazado 4036" class="cls-7" d="M80.44,292.44H54.17L41,269.7,54.18,247H80.44l13.14,22.7ZM55.18,290.7H79.44l12.13-21-12.13-21H55.18l-12.12,21Z"/><path id="Trazado_4037" data-name="Trazado 4037" class="cls-7" d="M78.47,289H56.16L45,269.7l11.16-19.32H78.47L89.63,269.7Zm-21.31-1.74h20.3L87.61,269.7,77.46,252.12H57.16L47,269.7Z"/><path id="Trazado_4038" data-name="Trazado 4038" class="cls-7" d="M76.4,285.44H58.22L49.13,269.7,58.22,254H76.4l9.09,15.74Zm-17.12-1.75H75.4l8.08-14-8.08-14H59.28l-8.08,14Z"/><path id="Trazado_4039" data-name="Trazado 4039" class="cls-7" d="M74.39,282H60.28l-7.13-12.3,7.13-12.26H74.39l7.09,12.26Zm-13.11-1.78H73.39l6.07-10.52-6.07-10.52H61.28L55.16,269.7Z"/><path id="Trazado_4040" data-name="Trazado 4040" class="cls-7" d="M72.61,278.86H62l-5.29-9.16L62,260.53H72.61l5.29,9.17ZM63,277.12H71.6l4.28-7.42-4.28-7.42H63l-4.29,7.42Z"/><path id="Trazado_4041" data-name="Trazado 4041" class="cls-7" d="M70.86,275.84H63.77l-3.55-6.14,3.55-6.14h7.09l3.54,6.14Zm-6.09-1.75h5.08l2.54-4.4-2.54-4.4H64.77l-2.49,4.4Z"/><path id="Trazado_4042" data-name="Trazado 4042" class="cls-7" d="M69.33,273.19h-4l-2-3.49,2-3.49h4l2,3.49Zm-3-1.75h2l1-1.74-1-1.7h-2l-1,1.75Z"/></g></g></g></g></g></g></g></g></g></g></g></g></g></g></g></g></g><path id="Rectángulo_1140" data-name="Rectángulo 1140" class="cls-1" d="M.28,286.8,0,9.57A9.38,9.38,0,0,1,9.37.18h0L176.77,0a9.38,9.38,0,0,1,9.39,9.37h0l.28,277.24a9.39,9.39,0,0,1-9.37,9.39l-167.4.16a9.38,9.38,0,0,1-9.39-9.35Z"/><g id="Grupo_1543" data-name="Grupo 1543"><path id="Trazado_4043" data-name="Trazado 4043" class="cls-43" d="M145.4,256.18l-6.33,15.11h-4.13l-3.12-12.06a1.64,1.64,0,0,0-.92-1.33,16.53,16.53,0,0,0-3.86-1.29l.09-.43h6.65a1.83,1.83,0,0,1,1.8,1.53l1.65,8.75,4.05-10.28Zm16.19,10.17c0-4-5.51-4.21-5.47-6,0-.54.53-1.12,1.65-1.26a7.34,7.34,0,0,1,3.86.67l.68-3.2a10.58,10.58,0,0,0-3.65-.67c-3.87,0-6.59,2-6.6,5,0,2.17,1.94,3.38,3.42,4.1s2,1.22,2,1.88c0,1-1.21,1.47-2.34,1.48a8.2,8.2,0,0,1-4-1l-.71,3.31a11.77,11.77,0,0,0,4.35.8c4.1,0,6.79-2,6.8-5.17m10.2,4.93h3.62l-3.12-15.1h-3.34a1.8,1.8,0,0,0-1.66,1.11l-5.86,14h4.1l.76-2.28h5Zm-4.36-5.35,2.06-5.68,1.18,5.68ZM151,256.16l-3.24,15.11h-3.9l3.23-15.11Z"/><g id="_Clásica" data-name=" Clásica"><text class="cls-44" transform="translate(135.61 282.42)">Clásica</text></g></g><g id="Grupo_1394" data-name="Grupo 1394"><g id="Grupo_1392" data-name="Grupo 1392"><path id="Trazado_4044" data-name="Trazado 4044" class="cls-1" d="M145,13.66a15.14,15.14,0,0,0,19.84,22.87h0a15.14,15.14,0,0,0,1.49-21.36h0a15.14,15.14,0,0,0-21.35-1.51Z"/><g id="Grupo_1391" data-name="Grupo 1391"><g class="cls-45"><g id="Grupo_1390" data-name="Grupo 1390"><g id="Grupo_1389" data-name="Grupo 1389"><path id="Trazado_4045" data-name="Trazado 4045" class="cls-43" d="M150.58,8.78a1.89,1.89,0,0,0,.3-1.58.79.79,0,0,0-.21.27,2,2,0,0,0-.17,1.26A3.12,3.12,0,0,1,150,7.29a1.69,1.69,0,0,1,1.18-1.68,1.84,1.84,0,0,1,.64,1.45,1.8,1.8,0,0,1-.45,1A4.26,4.26,0,0,1,150.58,8.78Z"/><path id="Trazado_4046" data-name="Trazado 4046" class="cls-43" d="M158.61,5.61a1.78,1.78,0,0,1,1.14,1.27,2.77,2.77,0,0,1-.5,1.85,1.75,1.75,0,0,0-.39-1.54,1.91,1.91,0,0,0,.3,1.59,4.8,4.8,0,0,1-.78-.78A1.76,1.76,0,0,1,158,7a1.49,1.49,0,0,1,.21-.77A1.8,1.8,0,0,1,158.61,5.61Z"/><path id="Trazado_4047" data-name="Trazado 4047" class="cls-43" d="M147.5,9.27a1.42,1.42,0,0,0-.84-.9,1.33,1.33,0,0,0,.76.92c-.78-.06-1.47-.32-1.63-1a1.71,1.71,0,0,1,0-.78C147.06,7.31,147.49,8.14,147.5,9.27Z"/><path id="Trazado_4048" data-name="Trazado 4048" class="cls-43" d="M164,7.47c.27,1.23-.58,1.76-1.63,1.82a1.37,1.37,0,0,0,.77-.92,1.28,1.28,0,0,0-.83.89C162.22,8.16,162.72,7.3,164,7.47Z"/><path id="Trazado_4049" data-name="Trazado 4049" class="cls-43" d="M157.35,8.23a2.32,2.32,0,0,1,1.47,1.7,2.64,2.64,0,0,1-.2,1.33,5.74,5.74,0,0,1-.53,1.05,2.37,2.37,0,0,0-.35-2,2.32,2.32,0,0,0,.23,2,4.47,4.47,0,0,1-1-.94,2.22,2.22,0,0,1-.52-1.37,2,2,0,0,1,.28-1A2.88,2.88,0,0,1,157.35,8.23Z"/><path id="Trazado_4050" data-name="Trazado 4050" class="cls-43" d="M155.34,8.93a3.19,3.19,0,0,1,.25,1.29,1.92,1.92,0,0,1-.43,1.12,4,4,0,0,1-2,1.1h0a2.36,2.36,0,0,0,1.12-1.74,2.25,2.25,0,0,0-1.2,1.65,3.69,3.69,0,0,1,.2-2.43A2.34,2.34,0,0,1,155.34,8.93Z"/><path id="Trazado_4051" data-name="Trazado 4051" class="cls-43" d="M143.17,9.09a1.33,1.33,0,0,1,1.11,1.43,3.42,3.42,0,0,1-.24.94,1.44,1.44,0,0,0-.44-1.18,1.41,1.41,0,0,0,.35,1.18c-.48-.26-1.15-.68-1.15-1.42A1.65,1.65,0,0,1,143.17,9.09Z"/><path id="Trazado_4052" data-name="Trazado 4052" class="cls-43" d="M145.22,9.24c1.76.23,2.93,1.18,2.91,3.13a6.91,6.91,0,0,1-.25,1.75,3.07,3.07,0,0,0-1.31-2.45,3.13,3.13,0,0,0,1.15,2.47,5.29,5.29,0,0,1-2.5-1.65,2.52,2.52,0,0,1-.47-1.61,4.14,4.14,0,0,1,.46-1.62Z"/><path id="Trazado_4053" data-name="Trazado 4053" class="cls-43" d="M164.51,9.24a4,4,0,0,1,.49,1.61,2.63,2.63,0,0,1-.46,1.63A5.24,5.24,0,0,1,162,14.15l.05-.05a4.29,4.29,0,0,0,.75-1,2.49,2.49,0,0,0,.34-1.46,3,3,0,0,0-1.3,2.43,4.91,4.91,0,0,1,.1-3.38,3.15,3.15,0,0,1,2.52-1.48Z"/><path id="Trazado_4054" data-name="Trazado 4054" class="cls-43" d="M168.72,11.25a5.81,5.81,0,0,1,.3,2.34,3.43,3.43,0,0,1-.83,1.87,7,7,0,0,1-3.65,1.78l.07-.06a4.06,4.06,0,0,0,1.88-3,4,4,0,0,0-2.16,3,6.75,6.75,0,0,1,.63-4.26,3.71,3.71,0,0,1,2.88-1.62A8.65,8.65,0,0,1,168.72,11.25Z"/><path id="Trazado_4055" data-name="Trazado 4055" class="cls-43" d="M150.44,11.3h0a2.89,2.89,0,0,1,.8,1.89,1.88,1.88,0,0,1-.15.74,4.54,4.54,0,0,1-1.73,1.85,2.68,2.68,0,0,0,.56-2.23,2.5,2.5,0,0,0-.68,2.16,4.07,4.07,0,0,1-.57-2.7A2.61,2.61,0,0,1,150.44,11.3Z"/><path id="Trazado_4056" data-name="Trazado 4056" class="cls-43" d="M139,13.91a1.77,1.77,0,0,1,1.39.92,2.88,2.88,0,0,1,0,1.92,1.81,1.81,0,0,0-.66-1.42,1.75,1.75,0,0,0,.55,1.43,2.94,2.94,0,0,1-1.36-1,1.45,1.45,0,0,1-.2-.93A2.29,2.29,0,0,1,139,13.91Z"/><path id="Trazado_4057" data-name="Trazado 4057" class="cls-43" d="M169.52,16.76v-.05a1.74,1.74,0,0,0,.5-1.37,1.68,1.68,0,0,0-.65,1.42,2.76,2.76,0,0,1-.07-1.9,1.73,1.73,0,0,1,1.36-.94h0c.05,0,.08.13.11.19a2.26,2.26,0,0,1,.22.68,1.45,1.45,0,0,1-.19,1A2.92,2.92,0,0,1,169.52,16.76Z"/><path id="Trazado_4058" data-name="Trazado 4058" class="cls-43" d="M146.91,14.73h0a3.14,3.14,0,0,1,2.13,2,3.51,3.51,0,0,1-.07,1.82,8.62,8.62,0,0,1-.59,1.48,3.13,3.13,0,0,0-.72-2.67,2.28,2.28,0,0,0-.12.73,3.65,3.65,0,0,0,.67,1.94,7.74,7.74,0,0,1-1.45-1.23,2.84,2.84,0,0,1-.8-1.87A3.55,3.55,0,0,1,146.91,14.73Z"/><path id="Trazado_4059" data-name="Trazado 4059" class="cls-43" d="M151.28,15.15A3.26,3.26,0,0,1,152.44,17a2.93,2.93,0,0,1-.68,2.26,7.75,7.75,0,0,1-.9,1s0,0-.06,0a3.6,3.6,0,0,0,.42-1.19,2.43,2.43,0,0,0-.15-1.36,2.8,2.8,0,0,0-.4,2.49v-.05A5.87,5.87,0,0,1,150,19a3.21,3.21,0,0,1-.35-1.58,2.52,2.52,0,0,1,1.07-1.87A3.19,3.19,0,0,1,151.28,15.15Z"/><path id="Trazado_4060" data-name="Trazado 4060" class="cls-43" d="M140.83,16.83a2.51,2.51,0,0,1,2.86,2.08h0v.18a6.61,6.61,0,0,1,0,1.54,2.69,2.69,0,0,0-1.41-1.91,2.7,2.7,0,0,0,1.29,2c-1.39-.31-2.75-.84-2.94-2.34a3.44,3.44,0,0,1,.18-1.49Z"/><path id="Trazado_4061" data-name="Trazado 4061" class="cls-43" d="M168.92,16.83a3.77,3.77,0,0,1,.18,1.49,2.17,2.17,0,0,1-.55,1.23,4.35,4.35,0,0,1-2.4,1.14l.1-.07a2.62,2.62,0,0,0,1.19-1.88A2.6,2.6,0,0,0,166,20.65a4.39,4.39,0,0,1,.41-2.71A2.67,2.67,0,0,1,168.92,16.83Z"/><path id="Trazado_4062" data-name="Trazado 4062" class="cls-43" d="M172.67,17.47a2.16,2.16,0,0,1-1,1.7,3.25,3.25,0,0,1-2.26,0,2,2,0,0,0,1.59-.91,1.84,1.84,0,0,0-1.37.53l-.28.27h0a4.87,4.87,0,0,1,.71-1.28,1.82,1.82,0,0,1,1.3-.71A2.75,2.75,0,0,1,172.67,17.47Z"/><path id="Trazado_4063" data-name="Trazado 4063" class="cls-43" d="M146.06,20a1.61,1.61,0,0,0-1-1.08A1.56,1.56,0,0,0,146,20c-.9-.1-1.72-.4-1.91-1.25a2.48,2.48,0,0,1,0-.94h.1C145.62,17.71,146.09,18.63,146.06,20Z"/><path id="Trazado_4064" data-name="Trazado 4064" class="cls-43" d="M165.63,17.8a2.61,2.61,0,0,1,.08.56c0,1.12-.92,1.51-2,1.64a1.69,1.69,0,0,0,.89-1.13,1.63,1.63,0,0,0-1,1.09c0-1.21.38-2.1,1.48-2.17A2.53,2.53,0,0,1,165.63,17.8Z"/><path id="Trazado_4065" data-name="Trazado 4065" class="cls-43" d="M156.55,18.18a1.43,1.43,0,0,1,1,1.29,2.55,2.55,0,0,1-.44,1.28,1.47,1.47,0,0,0-.32-1.26,1.51,1.51,0,0,0,.25,1.3,3.34,3.34,0,0,1-.67-.63,1.51,1.51,0,0,1-.33-1A1.76,1.76,0,0,1,156.55,18.18Z"/><path id="Trazado_4066" data-name="Trazado 4066" class="cls-43" d="M153.28,19.13h0a2.79,2.79,0,0,1,.25.94,1.46,1.46,0,0,1-.25.93,3.11,3.11,0,0,1-1.47.94l.06-.06a1.8,1.8,0,0,0,.7-1.33,1.7,1.7,0,0,0-.84,1.32,2.71,2.71,0,0,1,.1-1.9A1.79,1.79,0,0,1,153.28,19.13Z"/><path id="Trazado_4067" data-name="Trazado 4067" class="cls-43" d="M143.15,21.87a5.27,5.27,0,0,0-1.8-.34,3.35,3.35,0,0,0-1.69.46,3.16,3.16,0,0,0,1.69.48,5,5,0,0,0,1.83-.32s0,.05-.07.07a10.54,10.54,0,0,1-1.53,1.12,4.79,4.79,0,0,1-2.1.69,3.3,3.3,0,0,1-2.15-.62A6.16,6.16,0,0,1,136,22a4.29,4.29,0,0,1,3.15-2,4.35,4.35,0,0,1,2.33.64,10.17,10.17,0,0,1,1.65,1.19S143.15,21.84,143.15,21.87Z"/><path id="Trazado_4068" data-name="Trazado 4068" class="cls-43" d="M173.8,22a6.25,6.25,0,0,1-1.38,1.43,3.32,3.32,0,0,1-2.14.57,5.7,5.7,0,0,1-3-1.23,8.19,8.19,0,0,1-.73-.59h0a4.92,4.92,0,0,0,1.82.32,3.22,3.22,0,0,0,1.71-.5,3.23,3.23,0,0,0-1.68-.47,5.33,5.33,0,0,0-1.81.34h0a8.9,8.9,0,0,1,1.57-1.17A4.66,4.66,0,0,1,170.3,20a3.32,3.32,0,0,1,2.09.64A5.6,5.6,0,0,1,173.8,22Z"/><path id="Trazado_4069" data-name="Trazado 4069" class="cls-43" d="M149.22,20c1.07,0,1.48.7,1.38,1.75a1.27,1.27,0,0,0-.72-.83,1.22,1.22,0,0,0,.68.89c-.7-.12-1.4-.42-1.44-1.19a1.74,1.74,0,0,1,.08-.6Z"/><path id="Trazado_4070" data-name="Trazado 4070" class="cls-43" d="M160.79,20a1.63,1.63,0,0,1,.08.73c-.1.7-.76,1-1.43,1.08a1.29,1.29,0,0,0,.68-.89,1.18,1.18,0,0,0-.71.84c-.12-1,.24-1.71,1.17-1.75Z"/><path id="Trazado_4071" data-name="Trazado 4071" class="cls-43" d="M154.76,42.26c.08-1.2.08-2.45.14-3.67,0-.81.07-1.64.08-2.51,0-1.29.07-2.57.07-3.91v-4a3.53,3.53,0,0,1,0-.65,5.86,5.86,0,0,1,.1-.58,4.72,4.72,0,0,1,0-.64,2.27,2.27,0,0,1,.1-.58c.16-.49.63-.75.7-1.35a2.77,2.77,0,0,1,.05-.63,9,9,0,0,1,.18-1.21,3.45,3.45,0,0,1-.12-.46c0-.2-.07-.52.21-.47a1,1,0,0,1,.57.46,1.42,1.42,0,0,1,.26.77v.45a3.43,3.43,0,0,0,.3,1.3c.55.48,1.46.1,2.13,0a1.93,1.93,0,0,0,.34,0,1.2,1.2,0,0,0,.31-.13q.3-.13.6-.24a.71.71,0,0,0,.56-.28,3.94,3.94,0,0,1,.45-.36l.23-.17c.18-.2.27-.57.66-.56.11,0,.28,0,.3.1a.48.48,0,0,1-.11.3l-.19.23c-.25.32-.44.68-.71,1l-.34.3-.09.11a1.33,1.33,0,0,1-.55.29,4.29,4.29,0,0,0-.58.26,5.13,5.13,0,0,0-.88.8,8.36,8.36,0,0,1-1.38,1.14,5.5,5.5,0,0,0-.5.34,1.64,1.64,0,0,0-.42,1.21v.79a6.15,6.15,0,0,0,.09.75c.07.5.11,1,.15,1.51.22,2.54.38,4.95.53,7.45.06,1,.12,2,.2,3l-2.63-.1c-1.47-.07-2.81.07-4.35.1.17-2,.23-4,.4-6,.08-1,.12-2,.2-3s.15-2,.27-2.95a10,10,0,0,0,.14-1.45,1.82,1.82,0,0,0-.36-1.33,3,3,0,0,0-.5-.35,9.49,9.49,0,0,1-1.4-1.13c-.13-.14-.27-.29-.42-.43a4.19,4.19,0,0,0-.45-.39,4.29,4.29,0,0,0-.58-.26,1.31,1.31,0,0,1-.56-.29l-.1-.12-.12-.09a3.37,3.37,0,0,1-.58-.67c-.11-.15-.22-.34-.35-.5s-.35-.37-.3-.53.41-.12.52-.06.31.39.49.55a.94.94,0,0,0,.18.12,2.16,2.16,0,0,1,.33.27,2.08,2.08,0,0,0,.32.27h0l.45.13.61.26a.54.54,0,0,0,.21.08l.52.06c.54.1,1.45.38,1.9,0a1.15,1.15,0,0,0,.17-.41,4.48,4.48,0,0,0,.15-.89v-.47a1.48,1.48,0,0,1,.51-1,.92.92,0,0,1,.35-.19c.27,0,.22.31.18.49s0,.16,0,.23a1.18,1.18,0,0,0-.07.2,1.5,1.5,0,0,0,0,.3c0,.29.11.57.14.89a4.58,4.58,0,0,0,0,.63c.06.62.51.85.69,1.35a2.87,2.87,0,0,1,.11.57v.63a5.4,5.4,0,0,0,.11.58q0,.33,0,.66c-.09,1.25-.07,2.66-.07,4,0,1.68.05,3.42.1,5.09S154.69,40.6,154.76,42.26Z"/><path id="Trazado_4072" data-name="Trazado 4072" class="cls-43" d="M150.87,24.45l-.12-.48a4,4,0,0,1-.08-.5c0-.23-.12-.47-.15-.73a.57.57,0,0,1,0-.26c.08-.08.27,0,.33.06a1,1,0,0,1,.3.56,1,1,0,0,1,0,.25.74.74,0,0,0,.1.27,1.5,1.5,0,0,1,0,.3l.09.29a1.59,1.59,0,0,0,.16.41,9.78,9.78,0,0,1-1.71-.24,2.39,2.39,0,0,1-.37-.81,2.2,2.2,0,0,0-.11-.48c0-.16-.1-.3-.14-.45a1.14,1.14,0,0,1,0-.37.54.54,0,0,1-.06-.35.17.17,0,0,1,.22-.1h0a.55.55,0,0,1,.33.27,2.76,2.76,0,0,1,.08.27.39.39,0,0,0,.07.27c.07.09.14.29.22.43a3.76,3.76,0,0,1,.2.46,5.7,5.7,0,0,1,.37.69v.12A2.57,2.57,0,0,1,150.87,24.45Z"/><path id="Trazado_4073" data-name="Trazado 4073" class="cls-43" d="M149.84,24.39a1.07,1.07,0,0,1-.47-.14,3.94,3.94,0,0,0-1-.34.76.76,0,0,1-.17-.23,4.26,4.26,0,0,1-.4-.9c-.07-.2-.23-.46-.13-.66s.41-.05.5.07a2.16,2.16,0,0,1,.19.37,7.52,7.52,0,0,1,.62,1.06A4.51,4.51,0,0,1,149.84,24.39Z"/><path id="Trazado_4074" data-name="Trazado 4074" class="cls-43" d="M168.46,24.61a3.82,3.82,0,0,1-.9.75,2.46,2.46,0,0,1-1.27.36,2.8,2.8,0,0,1-1.66-.61A6,6,0,0,1,163.48,24a3.75,3.75,0,0,0,1.12.4,2.31,2.31,0,0,0,1.3-.14,2.75,2.75,0,0,0-2.37-.45l.11-.08a4.58,4.58,0,0,1,2.3-.85,2.25,2.25,0,0,1,1.59.54A4,4,0,0,1,168.46,24.61Z"/><path id="Trazado_4075" data-name="Trazado 4075" class="cls-43" d="M147.9,25.45a3.17,3.17,0,0,0-2.13,1.76A3.17,3.17,0,0,0,148,25.68s0-.07.05-.05a5.39,5.39,0,0,1-1.35,2.88,2.62,2.62,0,0,1-1.44.68,4.72,4.72,0,0,1-1.83-.21c-.06-2.06.91-3.23,2.7-3.49A8,8,0,0,1,147.9,25.45Z"/><path id="Trazado_4076" data-name="Trazado 4076" class="cls-43" d="M166.28,29a4.53,4.53,0,0,1-1.83.2,2.62,2.62,0,0,1-1.44-.68,5.36,5.36,0,0,1-1.35-2.87l.05.05a3.09,3.09,0,0,0,2.23,1.52,3.1,3.1,0,0,0-2.12-1.74,6.43,6.43,0,0,1,2.23.13C165.55,26,166.37,27.09,166.28,29Z"/><path id="Trazado_4077" data-name="Trazado 4077" class="cls-43" d="M169.56,28.16a2.86,2.86,0,0,1-1.11.26c-1.23,0-1.7-1.09-2-2l.07.06a1.91,1.91,0,0,0,1.48.77,1.92,1.92,0,0,0-1.46-.95,3.86,3.86,0,0,1,.75-.1,2,2,0,0,1,2.29,1.58C169.58,27.91,169.57,28,169.56,28.16Z"/><path id="Trazado_4078" data-name="Trazado 4078" class="cls-43" d="M161,26.2a2.22,2.22,0,0,0-.17,1.8,2,2,0,0,0,.32-1.76h0a4.06,4.06,0,0,1,.47.87,2.52,2.52,0,0,1,.2,1.18,2.15,2.15,0,0,1-1.26,1.6,2.56,2.56,0,0,1-.65-.81,1.79,1.79,0,0,1-.17-1.18,2.84,2.84,0,0,1,.82-1.37A2.53,2.53,0,0,0,161,26.2Z"/><path id="Trazado_4079" data-name="Trazado 4079" class="cls-43" d="M153.92,7.21a2.32,2.32,0,0,0-1,1.88,5.08,5.08,0,0,1-.26-1.5,2.27,2.27,0,0,1,2.16-2.38h0a3.23,3.23,0,0,1,.44,1.24,2,2,0,0,1-.3,1.32A4.18,4.18,0,0,1,153,9.17h0A2.48,2.48,0,0,0,153.92,7.21Z"/><path id="Trazado_4080" data-name="Trazado 4080" class="cls-43" d="M156.66,6.82a1.63,1.63,0,0,0-.38,1.46,2.69,2.69,0,0,1-.53-1.73,1.72,1.72,0,0,1,1.08-1.26A1.71,1.71,0,0,1,157.46,7a3,3,0,0,1-1.06,1.37A1.78,1.78,0,0,0,156.66,6.82Z"/><path id="Trazado_4081" data-name="Trazado 4081" class="cls-43" d="M149,9.58a2.27,2.27,0,0,0,0,2l-.09-.08a6.26,6.26,0,0,1-.6-.76,2.71,2.71,0,0,1-.44-1.12,2.27,2.27,0,0,1,1-2,3.25,3.25,0,0,1,.82.75,1.85,1.85,0,0,1,.38,1.18,2.58,2.58,0,0,1-.36,1.18,5.4,5.4,0,0,1-.64.92h0a3.11,3.11,0,0,0,.19-1A1.91,1.91,0,0,0,149,9.58Z"/><path id="Trazado_4082" data-name="Trazado 4082" class="cls-43" d="M160.75,9.58a2.24,2.24,0,0,0-.08,2h0a5.54,5.54,0,0,1-.58-.85,2.79,2.79,0,0,1-.38-1.16,1.79,1.79,0,0,1,.37-1.22,3.53,3.53,0,0,1,.82-.77A2.32,2.32,0,0,1,162,9.36a2.32,2.32,0,0,1-.39,1.27,5.23,5.23,0,0,1-.75,1h0a3.13,3.13,0,0,0,.21-1A1.85,1.85,0,0,0,160.75,9.58Z"/><path id="Trazado_4083" data-name="Trazado 4083" class="cls-43" d="M151.74,10.2a.62.62,0,0,0-.16.2,2,2,0,0,0-.17,1.44.1.1,0,0,0-.06-.08,2.75,2.75,0,0,1-.58-1.83,1.92,1.92,0,0,1,1.16-1.45,1.9,1.9,0,0,1,.72,1.86,3.41,3.41,0,0,1-1.14,1.56A2,2,0,0,0,151.74,10.2Z"/><path id="Trazado_4084" data-name="Trazado 4084" class="cls-43" d="M166.14,10.29a1.32,1.32,0,0,0-.43,1.17,3,3,0,0,1-.26-1.05,1.34,1.34,0,0,1,1.12-1.32,1.51,1.51,0,0,1,.35,1.06c0,.68-.66,1-1.12,1.31h0A1.5,1.5,0,0,0,166.14,10.29Z"/><path id="Trazado_4085" data-name="Trazado 4085" class="cls-43" d="M156.17,11.84a1.18,1.18,0,0,0,.12,1,2,2,0,0,1-.47-.44,1.12,1.12,0,0,1-.27-.8,1.31,1.31,0,0,1,.42-.8,1.16,1.16,0,0,1,.75.88,1.89,1.89,0,0,1-.36,1.17A1.21,1.21,0,0,0,156.17,11.84Z"/><path id="Trazado_4086" data-name="Trazado 4086" class="cls-43" d="M141,11.25c2.57,0,4.07,1.19,4.38,3.51a9.8,9.8,0,0,1,0,2.42,4.2,4.2,0,0,0-2.17-3,4,4,0,0,0,2,3h0a6.83,6.83,0,0,1-3.65-1.78,3.19,3.19,0,0,1-.83-1.89A5.79,5.79,0,0,1,141,11.25Z"/><path id="Trazado_4087" data-name="Trazado 4087" class="cls-43" d="M159.28,11.3a2.6,2.6,0,0,1,1.78,1.7,4.05,4.05,0,0,1-.55,2.72,3.12,3.12,0,0,0-.4-1.84,1.83,1.83,0,0,0-.3-.32,2.64,2.64,0,0,0,.56,2.21h0a5.86,5.86,0,0,1-1.22-1,2.4,2.4,0,0,1-.66-1.58A2.83,2.83,0,0,1,159.28,11.3Z"/><path id="Trazado_4088" data-name="Trazado 4088" class="cls-43" d="M155,13.56a1.58,1.58,0,0,0-.11,1.36l-.06-.06a3.91,3.91,0,0,1-.4-.6,1.53,1.53,0,0,1-.23-.91,1.6,1.6,0,0,1,.8-1.18,1.58,1.58,0,0,1,.76,1.17,2.29,2.29,0,0,1-.76,1.6h0A1.74,1.74,0,0,0,155,13.56Z"/><path id="Trazado_4089" data-name="Trazado 4089" class="cls-43" d="M152.34,12.61a2.12,2.12,0,0,1,1.55,1.25,3.33,3.33,0,0,1-.27,2.24,2.05,2.05,0,0,0-.63-1.75,1.8,1.8,0,0,0,.08,1,2.9,2.9,0,0,0,.44.74h0a3.41,3.41,0,0,1-1.5-1.36A2.09,2.09,0,0,1,152.34,12.61Z"/><path id="Trazado_4090" data-name="Trazado 4090" class="cls-43" d="M157.06,14.33a1.07,1.07,0,0,0-.38.53,2.6,2.6,0,0,0-.13,1,2.81,2.81,0,0,1-.37-1.94,1.89,1.89,0,0,1,1.25-1.18,1.93,1.93,0,0,1,.56,1.4,1.7,1.7,0,0,1-.5,1.06,4.23,4.23,0,0,1-.86.71h0A1.86,1.86,0,0,0,157.06,14.33Z"/><path id="Trazado_4091" data-name="Trazado 4091" class="cls-43" d="M162.07,17.4a.73.73,0,0,0-.21.22,3.24,3.24,0,0,0-.51,2.44,7.91,7.91,0,0,1-.6-1.48,3.7,3.7,0,0,1-.07-1.81,3.13,3.13,0,0,1,2.14-2,3.44,3.44,0,0,1,.94,2.25,2.43,2.43,0,0,1-.18.88,5.18,5.18,0,0,1-2.06,2.19h0A3.2,3.2,0,0,0,162.07,17.4Z"/><path id="Trazado_4092" data-name="Trazado 4092" class="cls-43" d="M158.12,15.36a2.9,2.9,0,0,1,2,1.82,4.43,4.43,0,0,1-.55,3,2.8,2.8,0,0,0-.8-2.36,2.83,2.83,0,0,0,.67,2.43h0a4.82,4.82,0,0,1-2-2,2.43,2.43,0,0,1-.06-1.64A3.6,3.6,0,0,1,158.12,15.36Z"/><path id="Trazado_4093" data-name="Trazado 4093" class="cls-43" d="M154.92,17.49a2.42,2.42,0,0,0-1,2,4,4,0,0,1-.11-2.75,2.63,2.63,0,0,1,2-1.36,3.35,3.35,0,0,1,.49,1.26A2,2,0,0,1,156,18a4.32,4.32,0,0,1-2,1.53h0A2.63,2.63,0,0,0,154.92,17.49Z"/><path id="Trazado_4094" data-name="Trazado 4094" class="cls-43" d="M138.79,18.28a1,1,0,0,0,.26.36,2.31,2.31,0,0,0,1.32.56,3.28,3.28,0,0,1-2.27,0,2.17,2.17,0,0,1-1-1.69,2.79,2.79,0,0,1,1.09-.35,1.75,1.75,0,0,1,1.11.29,3.52,3.52,0,0,1,1.16,1.7h0A2.2,2.2,0,0,0,138.79,18.28Z"/><path id="Trazado_4095" data-name="Trazado 4095" class="cls-43" d="M154.75,21.21a1.78,1.78,0,0,0,0,1.56l-.07-.06a4,4,0,0,1-.48-.61,2.21,2.21,0,0,1-.35-.89,1.77,1.77,0,0,1,.84-1.59,2.49,2.49,0,0,1,.63.58,1.4,1.4,0,0,1,.3.9,2.82,2.82,0,0,1-.77,1.64h0A1.79,1.79,0,0,0,154.75,21.21Z"/><path id="Trazado_4096" data-name="Trazado 4096" class="cls-43" d="M158.06,21.45a1.52,1.52,0,0,0-.7,1.22,2.52,2.52,0,0,1,.1-1.71,1.57,1.57,0,0,1,1.33-.74,1.84,1.84,0,0,1,.23.83,1.32,1.32,0,0,1-.25.81,2.62,2.62,0,0,1-1.31.82h0A1.56,1.56,0,0,0,158.06,21.45Z"/><path id="Trazado_4097" data-name="Trazado 4097" class="cls-43" d="M148.73,21.26a2.11,2.11,0,0,1-1.19.39c-.56,0-.8-.44-1-.83a1.32,1.32,0,0,1,1-.45,1.85,1.85,0,0,1,1.18.82,1.35,1.35,0,0,0-1.09-.15A1.21,1.21,0,0,0,148.73,21.26Z"/><path id="Trazado_4098" data-name="Trazado 4098" class="cls-43" d="M163.28,20.82a1.26,1.26,0,0,1-1,.83,2.24,2.24,0,0,1-1.2-.38,1.31,1.31,0,0,0,1.1-.22,1.22,1.22,0,0,0-1.08.15,1.76,1.76,0,0,1,1.16-.83A1.28,1.28,0,0,1,163.28,20.82Z"/><path id="Trazado_4099" data-name="Trazado 4099" class="cls-43" d="M145.22,21.69a1.63,1.63,0,0,0,1.41.42,2.64,2.64,0,0,1-1.78.31,1.68,1.68,0,0,1-1.06-1.17,1.84,1.84,0,0,1,1.24-.48,1.51,1.51,0,0,1,1,.46,3.37,3.37,0,0,1,.63.78h0A1.69,1.69,0,0,0,145.22,21.69Z"/><path id="Trazado_4100" data-name="Trazado 4100" class="cls-43" d="M166.2,21.36A1.84,1.84,0,0,1,165,22.65a3,3,0,0,1-1.93-.36,1.82,1.82,0,0,0,1.56-.45,1.78,1.78,0,0,0-1.54.35h0a4,4,0,0,1,.69-.85,1.64,1.64,0,0,1,1.24-.49A2.21,2.21,0,0,1,166.2,21.36Z"/><path id="Trazado_4101" data-name="Trazado 4101" class="cls-43" d="M158,24.62v-.06a1.09,1.09,0,0,0,.1-.25,1.73,1.73,0,0,1,.11-.37,1.06,1.06,0,0,1,.05-.31l.09-.27v-.14a1,1,0,0,1,.3-.66c.06-.06.25-.17.34-.09s0,.41,0,.51-.08.32-.11.48a2.32,2.32,0,0,1-.07.52,2,2,0,0,0-.12.46c.06,0,.12-.07.19-.1a2.78,2.78,0,0,1,.4-.81c.05-.12.08-.24.14-.36a6,6,0,0,0,.32-.68,1.33,1.33,0,0,0,.05-.19v-.2c0-.06.27-.35.47-.27s.08.28,0,.42,0,.3-.09.46a11.38,11.38,0,0,1-.35,1.27c-.06.15-.15.26-.21.39A3.68,3.68,0,0,0,160,24a2,2,0,0,1,.45-.36,7.56,7.56,0,0,1,.61-1.07,2.82,2.82,0,0,1,.21-.38c.09-.11.37-.27.48-.06s-.05.44-.11.6a7.85,7.85,0,0,1-.32.8l-.11.17c-.06.08-.08.18-.16.22l-.35.09a4.78,4.78,0,0,0-.62.26,1.14,1.14,0,0,1-.47.13h0A10.91,10.91,0,0,1,158,24.62Z"/><path id="Trazado_4102" data-name="Trazado 4102" class="cls-43" d="M141.28,24.46a3.58,3.58,0,0,1,.91-.95,2.14,2.14,0,0,1,1.42-.43,3,3,0,0,1,1.39.46,5.69,5.69,0,0,1,1.06.76,3.9,3.9,0,0,0-1.22-.2,2.11,2.11,0,0,0-1.09.33,2.22,2.22,0,0,0,1.13.3,3.51,3.51,0,0,0,1.2-.24h0a5.88,5.88,0,0,1-1.05.81,3.17,3.17,0,0,1-1.39.48,2.15,2.15,0,0,1-1.43-.39A3.74,3.74,0,0,1,141.28,24.46Z"/><path id="Trazado_4103" data-name="Trazado 4103" class="cls-43" d="M140.19,28.16a2.1,2.1,0,0,1,.89-1.72,3.27,3.27,0,0,1,2.18-.19,2,2,0,0,0-1.47,1,2,2,0,0,0,1.55-.83h0a.75.75,0,0,1-.08.24,3.19,3.19,0,0,1-.94,1.47,1.65,1.65,0,0,1-1,.34A2.81,2.81,0,0,1,140.19,28.16Z"/><path id="Trazado_4104" data-name="Trazado 4104" class="cls-43" d="M148.79,26.21h0a4.45,4.45,0,0,1,.82.86,2.17,2.17,0,0,1,.45,1.23,2,2,0,0,1-.56,1.32,2.13,2.13,0,0,1-.3.3,2.13,2.13,0,0,1-1.27-1.58,2.37,2.37,0,0,1,.2-1.2,5,5,0,0,1,.51-.9A2.09,2.09,0,0,0,149,28,2.06,2.06,0,0,0,148.79,26.21Z"/></g></g></g></g></g><g id="Grupo_1393" data-name="Grupo 1393"><path id="Trazado_4105" data-name="Trazado 4105" class="cls-43" d="M167.53,42a3.23,3.23,0,0,0-1.6-.49,6.74,6.74,0,0,0-1-.08h-2.3v8.35h1.71V42.92h.54c1.36,0,2,.47,2,1.65a2.6,2.6,0,0,1-.06.56,1.24,1.24,0,0,1-.35.44,2.51,2.51,0,0,1-1.47.3.2.2,0,0,0-.19.19h0a.14.14,0,0,0,0,.09l.87,1.52c.44.9.93,1.88,1,2a.17.17,0,0,0,.13.07h1.63a.11.11,0,0,0,.11-.11h0l-1.27-2.54a.09.09,0,0,1,0-.13h0a2.45,2.45,0,0,0,1.31-2.42,3.42,3.42,0,0,0-.17-1.23A2.53,2.53,0,0,0,167.53,42Z"/><path id="Rectángulo_1141" data-name="Rectángulo 1141" class="cls-43" d="M144.93,41.38h.95a.38.38,0,0,1,.38.38h0v7.59a.38.38,0,0,1-.38.38h-.95a.38.38,0,0,1-.38-.38h0V41.76a.38.38,0,0,1,.38-.38Z"/><path id="Trazado_4106" data-name="Trazado 4106" class="cls-43" d="M142.67,41.38H141.2a.13.13,0,0,0-.13.09l-2.3,5a.14.14,0,0,1-.18.08h0a.12.12,0,0,1-.07-.07l-2.33-5a.13.13,0,0,0-.13-.09h-1.47a.15.15,0,0,0-.14.15h0v8a.15.15,0,0,0,.14.15H136a.15.15,0,0,0,.15-.15h0v-3.8a.15.15,0,0,1,.15-.15.16.16,0,0,1,.13.08c.39.69,1,1.91,1.27,2.34a.29.29,0,0,0,.26.16h1.34a.29.29,0,0,0,.26-.16c.23-.44.89-1.65,1.27-2.34a.15.15,0,0,1,.2-.06.16.16,0,0,1,.08.13v3.79a.14.14,0,0,0,.13.15h1.43a.15.15,0,0,0,.15-.15v-8A.16.16,0,0,0,142.67,41.38Z"/><path id="Trazado_4107" data-name="Trazado 4107" class="cls-43" d="M153.87,41.38h-1.41a.15.15,0,0,0-.15.15h0v3.89a.15.15,0,0,1-.14.15.16.16,0,0,1-.14-.08l-2.11-4a.16.16,0,0,0-.14-.08h-1.5a.15.15,0,0,0-.15.15h0v8a.15.15,0,0,0,.14.15h1.42a.15.15,0,0,0,.14-.15h0v-3.8a.15.15,0,0,1,.15-.15.13.13,0,0,1,.13.08l2.17,4a.13.13,0,0,0,.13.08h1.47a.15.15,0,0,0,.15-.15h0v-8a.14.14,0,0,0-.09-.19Z"/><path id="Trazado_4108" data-name="Trazado 4108" class="cls-43" d="M161.05,41.38h-5.19a.15.15,0,0,0-.15.15h0v8a.15.15,0,0,0,.15.15h5.19a.15.15,0,0,0,.15-.15h0V48.37a.15.15,0,0,0-.15-.15h-3.49a.15.15,0,0,1-.14-.15V47a.15.15,0,0,1,.14-.15h2.52a.15.15,0,0,0,.15-.15h0V45.57a.15.15,0,0,0-.15-.15h-2.52a.15.15,0,0,1-.14-.15V43a.15.15,0,0,1,.14-.15h3.49a.15.15,0,0,0,.15-.15h0V41.53A.15.15,0,0,0,161.05,41.38Z"/><path id="Trazado_4109" data-name="Trazado 4109" class="cls-43" d="M173.57,41.16a4.23,4.23,0,0,0-4.3,4.13v.15a4.23,4.23,0,0,0,4.15,4.29h.15a4.24,4.24,0,0,0,4.29-4.14v-.15a4.22,4.22,0,0,0-4.14-4.28Zm0,7A2.55,2.55,0,0,1,171,45.61v-.2a2.56,2.56,0,0,1,2.36-2.74h.18a2.56,2.56,0,0,1,2.54,2.57v.18a2.56,2.56,0,0,1-2.35,2.75Z"/></g></g><g id="Grupo_1395" data-name="Grupo 1395"><path id="Trazado_4110" data-name="Trazado 4110" class="cls-43" d="M29.68,25.82A14.22,14.22,0,0,0,24.58,15a1.77,1.77,0,0,1-.79-1.18,1.26,1.26,0,0,1,.6-1.24,1.06,1.06,0,0,1,1.27.12,16.64,16.64,0,0,1,6.47,11.7,16,16,0,0,1-3.38,11.45,18.51,18.51,0,0,1-3,3,1.1,1.1,0,0,1-1.56,0h0a1.31,1.31,0,0,1-.1-1.74,4.37,4.37,0,0,1,.44-.42,14.3,14.3,0,0,0,5-8.81A11.83,11.83,0,0,0,29.68,25.82Z"/><path id="Trazado_4111" data-name="Trazado 4111" class="cls-43" d="M27,25.9a11.79,11.79,0,0,1-4.35,9A1.09,1.09,0,0,1,21.1,35h0A1.33,1.33,0,0,1,21,33.18c.39-.43.84-.81,1.21-1.27A9.16,9.16,0,0,0,24,22.8a9.4,9.4,0,0,0-2.69-4,1.37,1.37,0,0,1-.54-1.09,1.21,1.21,0,0,1,.65-1.16,1.13,1.13,0,0,1,1.3.23,13.21,13.21,0,0,1,2.8,3.34A11.8,11.8,0,0,1,27,25.9Z"/><path id="Trazado_4112" data-name="Trazado 4112" class="cls-43" d="M21.86,25.87A7,7,0,0,1,19.68,31a1.1,1.1,0,0,1-1.54.23h0l-.07-.06a1.32,1.32,0,0,1-.2-1.81A8.33,8.33,0,0,0,18.79,28a4.75,4.75,0,0,0-.7-5.35,2,2,0,0,1-.42-.67,1.33,1.33,0,0,1,.51-1.51,1.07,1.07,0,0,1,1.42.19,7.1,7.1,0,0,1,2.15,3.95A5.91,5.91,0,0,1,21.86,25.87Z"/></g></g></g></g></svg>