<svg xmlns="http://www.w3.org/2000/svg" xmlns:xlink="http://www.w3.org/1999/xlink" width="253.882" height="260.608" viewBox="0 0 253.882 260.608">
  <defs>
    <linearGradient id="linear-gradient" x1="0.5" y1="0.511" x2="0.5" y2="-0.546" gradientUnits="objectBoundingBox">
      <stop offset="0" stop-color="#fff"/>
      <stop offset="1" stop-color="#261f1c"/>
    </linearGradient>
  </defs>
  <g id="Grupo_4768" data-name="Grupo 4768" transform="translate(-52.406 -85.347)">
    <g id="Grupo_3279" data-name="Grupo 3279" transform="translate(29.286 77.361)">
      <g id="Grupo_3180" data-name="Grupo 3180" transform="translate(196.817 127.184)">
        <g id="Grupo_3177" data-name="Grupo 3177" transform="translate(0 3.137)">
          <path id="Rectángulo_1567" data-name="Rectángulo 1567" d="M3.71,0h37.7a3.713,3.713,0,0,1,3.713,3.713V15.327a3.711,3.711,0,0,1-3.711,3.711H3.71A3.71,3.71,0,0,1,0,15.328V3.71A3.71,3.71,0,0,1,3.71,0Z" fill="#5970e2"/>
          <path id="Rectángulo_1568" data-name="Rectángulo 1568" d="M3.71,0h37.7a3.713,3.713,0,0,1,3.713,3.713V15.327a3.711,3.711,0,0,1-3.711,3.711H3.71A3.71,3.71,0,0,1,0,15.328V3.71A3.71,3.71,0,0,1,3.71,0Z" fill="#5970e2"/>
        </g>
        <g id="Grupo_3178" data-name="Grupo 3178">
          <path id="Rectángulo_1569" data-name="Rectángulo 1569" d="M3.71,0h37.7a3.713,3.713,0,0,1,3.713,3.713V15.327a3.711,3.711,0,0,1-3.711,3.711H3.71A3.71,3.71,0,0,1,0,15.328V3.71A3.71,3.71,0,0,1,3.71,0Z" fill="#798ce8"/>
          <path id="Rectángulo_1570" data-name="Rectángulo 1570" d="M3.71,0h37.7a3.713,3.713,0,0,1,3.713,3.713V15.327a3.711,3.711,0,0,1-3.711,3.711H3.71A3.71,3.71,0,0,1,0,15.328V3.71A3.71,3.71,0,0,1,3.71,0Z" fill="#798ce8"/>
        </g>
        <g id="Grupo_3179" data-name="Grupo 3179" transform="translate(11.571 3.826)">
          <path id="Trazado_6761" data-name="Trazado 6761" d="M128.377,89.011a5,5,0,0,1-2.657-.583V79.263a4.865,4.865,0,0,1,2.569-.585c2.074,0,3.256,1.066,3.256,2.671a2.208,2.208,0,0,1-1.547,2.2v.03a2.511,2.511,0,0,1,1.809,2.51C131.807,88.237,130.173,89.011,128.377,89.011Zm-.016-8.961a2.122,2.122,0,0,0-.714.1V83.1h.293c1.151,0,1.678-.394,1.678-1.591C129.618,80.5,129.18,80.05,128.361,80.05Zm-.421,4.19h-.293v3.253a1.9,1.9,0,0,0,.7.117c.978.016,1.46-.567,1.46-1.634C129.807,84.779,129.311,84.24,127.94,84.24Z" transform="translate(-125.72 -78.678)" fill="#fff"/>
          <path id="Trazado_6762" data-name="Trazado 6762" d="M133.3,88.976a2.847,2.847,0,0,1-2.949-3.078V78.761h2v7.223c0,.788.392,1.241,1.02,1.241s1.036-.453,1.036-1.255V78.761h1.855V85.9A2.851,2.851,0,0,1,133.3,88.976Z" transform="translate(-122.166 -78.614)" fill="#fff"/>
          <path id="Trazado_6763" data-name="Trazado 6763" d="M138.805,84.423V88.8h-2V84.423l-2.219-5.662h2.072l1.241,3.691h.03l1.283-3.691h1.853Z" transform="translate(-118.911 -78.614)" fill="#fff"/>
        </g>
      </g>
      <g id="Grupo_3191" data-name="Grupo 3191" transform="translate(90.022 109.51)">
        <g id="Grupo_3183" data-name="Grupo 3183" transform="translate(14.82)">
          <g id="Grupo_3181" data-name="Grupo 3181">
            <path id="Trazado_6764" data-name="Trazado 6764" d="M150.626,86.427l-.023-7.034A12.716,12.716,0,0,0,137.948,66.76l-58.255-.244a12.485,12.485,0,0,0-12.545,12.55l.315,85.922,5.8-4.009Z" transform="translate(-67.149 -66.516)" fill="#2e343d"/>
            <path id="Trazado_6765" data-name="Trazado 6765" d="M73.126,152.33l-5.8,4.01.177,47.73a12.686,12.686,0,0,0,12.635,12.658l58.235.223a12.515,12.515,0,0,0,12.58-12.564l-.465-126.607Z" transform="translate(-67.012 -57.868)" fill="#15253d"/>
          </g>
          <path id="Trazado_6766" data-name="Trazado 6766" d="M86.177,74.171l18.676.1a1.675,1.675,0,0,1,1.679,1.662,1.612,1.612,0,0,1-1.658,1.618l-18.688-.062a1.658,1.658,0,0,1-.009-3.317Z" transform="translate(-53.799 -60.638)" fill="#fff"/>
          <path id="Trazado_6767" data-name="Trazado 6767" d="M88.873,149.2a3.77,3.77,0,0,1,3.769-3.766,3.838,3.838,0,0,1,3.8,3.8,3.74,3.74,0,0,1-3.783,3.758A3.794,3.794,0,0,1,88.873,149.2Z" transform="translate(-50.468 -5.917)" fill="#a3a3a3"/>
          <path id="Trazado_6768" data-name="Trazado 6768" d="M94.315,153.887a4.658,4.658,0,0,1-1.322.186,4.73,4.73,0,0,1-3.223-1.329,4.66,4.66,0,0,1-1.317-3.212,4.529,4.529,0,1,1,5.862,4.356Zm-2.24-7.245a3.025,3.025,0,0,0-2.125,2.894,3.073,3.073,0,0,0,3.037,3.032,3.032,3.032,0,1,0-.018-6.064A3.47,3.47,0,0,0,92.075,146.642Z" transform="translate(-50.79 -6.24)" fill="#fff"/>
          <g id="Grupo_3182" data-name="Grupo 3182" transform="translate(5.862 26.371)">
            <path id="Trazado_6769" data-name="Trazado 6769" d="M106.639,186.676l35.9.133-.394-105.22L70.607,169.756l.134,16.788Z" transform="translate(-70.356 -81.313)" fill="#b3d8e6"/>
            <path id="Trazado_6770" data-name="Trazado 6770" d="M70.465,81.433l.251,88.442,71.542-88.167-35.893-.137Z" transform="translate(-70.465 -81.433)" fill="#c5e7f2"/>
          </g>
        </g>
        <rect id="Rectángulo_1571" data-name="Rectángulo 1571" width="83.942" height="44.079" transform="translate(14.819 53.123)" fill="url(#linear-gradient)" style="mix-blend-mode: multiply;isolation: isolate"/>
        <g id="Grupo_3185" data-name="Grupo 3185" transform="translate(0 25.79)">
          <g id="Grupo_3184" data-name="Grupo 3184">
            <path id="Trazado_6771" data-name="Trazado 6771" d="M74.924,110.042H58.766L76.982,82.729a3.717,3.717,0,0,1,1.3-1.2A3.552,3.552,0,0,1,80,81.1h8.714Q81.374,96.484,74.924,110.042Z" transform="translate(-58.766 -81.104)" fill="#5970e2"/>
            <path id="Trazado_6772" data-name="Trazado 6772" d="M84.064,110.042H67.906q6.47-13.58,13.788-28.938H92.336Q87.939,96.484,84.064,110.042Z" transform="translate(-51.748 -81.104)" fill="#fff"/>
            <path id="Trazado_6773" data-name="Trazado 6773" d="M93.2,110.042H77.046Q80.92,96.462,85.318,81.1H95.951Q94.5,96.484,93.2,110.042Z" transform="translate(-44.729 -81.104)" fill="#5970e2"/>
            <path id="Trazado_6774" data-name="Trazado 6774" d="M102.34,110.042H86.184q1.3-13.58,2.751-28.938H99.586Q101.042,96.484,102.34,110.042Z" transform="translate(-37.713 -81.104)" fill="#fff"/>
            <path id="Trazado_6775" data-name="Trazado 6775" d="M112.679,110.042H96.519Q95.228,96.462,93.765,81.1h10.643Q108.8,96.484,112.679,110.042Z" transform="translate(-31.892 -81.104)" fill="#5970e2"/>
            <path id="Trazado_6776" data-name="Trazado 6776" d="M124.213,110.042H108.057q-3.88-13.58-8.272-28.938h10.641Q117.766,96.484,124.213,110.042Z" transform="translate(-27.269 -81.104)" fill="#fff"/>
            <path id="Trazado_6777" data-name="Trazado 6777" d="M135.757,110.042H119.592Q113.132,96.462,105.8,81.1h8.712a3.576,3.576,0,0,1,1.722.423,3.81,3.81,0,0,1,1.3,1.2Z" transform="translate(-22.647 -81.104)" fill="#5970e2"/>
          </g>
          <path id="Trazado_6778" data-name="Trazado 6778" d="M58.766,97.473l1.227,6.419a9.717,9.717,0,0,0,9.165,7.715,6.545,6.545,0,0,0,6.644-7.715l-.877-6.419Z" transform="translate(-58.766 -68.535)" fill="#798ce8"/>
          <path id="Trazado_6779" data-name="Trazado 6779" d="M67.906,97.473l.877,6.419a9.078,9.078,0,0,0,8.747,7.715,6.959,6.959,0,0,0,7.059-7.715l-.525-6.419Z" transform="translate(-51.748 -68.535)" fill="#eeefef"/>
          <path id="Trazado_6780" data-name="Trazado 6780" d="M77.046,97.473l.525,6.419a8.476,8.476,0,0,0,8.325,7.715,7.418,7.418,0,0,0,7.48-7.715L93.2,97.473Z" transform="translate(-44.729 -68.535)" fill="#798ce8"/>
          <path id="Trazado_6781" data-name="Trazado 6781" d="M86.184,97.473l.175,6.419a7.907,7.907,0,0,0,15.81,0l.171-6.419Z" transform="translate(-37.713 -68.535)" fill="#eeefef"/>
          <path id="Trazado_6782" data-name="Trazado 6782" d="M95.4,97.473l-.171,6.419a7.424,7.424,0,0,0,7.485,7.715,8.477,8.477,0,0,0,8.321-7.715l.525-6.419Z" transform="translate(-30.771 -68.535)" fill="#798ce8"/>
          <path id="Trazado_6783" data-name="Trazado 6783" d="M104.7,97.473l-.525,6.419a6.959,6.959,0,0,0,7.057,7.715,9.07,9.07,0,0,0,8.747-7.715l.877-6.419Z" transform="translate(-23.916 -68.535)" fill="#eeefef"/>
          <path id="Trazado_6784" data-name="Trazado 6784" d="M128.96,103.837l1.214-6.364H114.016l-.877,6.419a6.548,6.548,0,0,0,6.645,7.715,9.722,9.722,0,0,0,9.172-7.715C128.96,103.876,128.956,103.857,128.96,103.837Z" transform="translate(-17.072 -68.535)" fill="#798ce8"/>
        </g>
        <g id="Grupo_3190" data-name="Grupo 3190" transform="translate(38.12 80.811)">
          <g id="Grupo_3187" data-name="Grupo 3187" transform="translate(0.05 1.009)">
            <g id="Grupo_3186" data-name="Grupo 3186">
              <path id="Trazado_6785" data-name="Trazado 6785" d="M117.121,128.788,98.87,113.418l-18.128,15.37L80.5,128.5l18.37-15.574.122.1L117.361,128.5Z" transform="translate(-80.249 -112.699)" fill="#fff"/>
              <path id="Trazado_6786" data-name="Trazado 6786" d="M117.25,129.137,98.978,113.749,80.831,129.137l-.474-.555L98.976,112.8l18.741,15.78Zm-36.395-.514.014.018,18.108-15.354,18.228,15.352.014-.016L98.978,113.259Z" transform="translate(-80.357 -112.798)" fill="#fff"/>
            </g>
          </g>
          <g id="Grupo_3188" data-name="Grupo 3188" transform="translate(0 16.633)">
            <rect id="Rectángulo_1572" data-name="Rectángulo 1572" width="37.342" height="18.687" fill="#784eeb"/>
            <rect id="Rectángulo_1573" data-name="Rectángulo 1573" width="32.615" height="14.267" transform="translate(2.363 2.21)" fill="#798ce8"/>
          </g>
          <path id="Trazado_6787" data-name="Trazado 6787" d="M93.017,113.71a1.482,1.482,0,1,1-1.481-1.483A1.484,1.484,0,0,1,93.017,113.71Z" transform="translate(-72.863 -112.227)" fill="#745029"/>
          <g id="Grupo_3189" data-name="Grupo 3189" transform="translate(5.38 20.822)">
            <path id="Trazado_6788" data-name="Trazado 6788" d="M86.282,134.451c-2.049,0-2.91-2.362-2.91-5.222S84.233,124,86.282,124s2.91,2.374,2.91,5.224S88.331,134.451,86.282,134.451Zm0-8.882c-.935,0-1.138,1.814-1.138,3.583,0,1.787.189,3.585,1.138,3.585s1.139-1.8,1.139-3.585C87.42,127.383,87.2,125.57,86.282,125.57Z" transform="translate(-83.372 -124.005)" fill="#fff"/>
            <path id="Trazado_6789" data-name="Trazado 6789" d="M89.674,130.436l-.189-.012v3.88H87.763V124.6a4.059,4.059,0,0,1,2.228-.59c2.049,0,2.846,1.356,2.846,3.246S91.914,130.615,89.674,130.436Zm.292-5.046a1.156,1.156,0,0,0-.481.09v3.541l.189.014c1.151.088,1.441-.813,1.441-1.8S90.876,125.391,89.966,125.391Z" transform="translate(-80 -124.005)" fill="#fff"/>
            <path id="Trazado_6790" data-name="Trazado 6790" d="M91.595,134.241V124.088h3.757v1.565H93.327v2.654H95.1v1.522H93.327v2.846h2.024v1.566Z" transform="translate(-77.058 -123.941)" fill="#fff"/>
            <path id="Trazado_6791" data-name="Trazado 6791" d="M99.028,134.241l-2.456-5.873c-.2-.474-.341-.932-.341-.932h-.025s.025.444.025.918v5.887H94.776V124.088h1.531l2.2,5.21c.2.472.38.988.38.988h.025s-.025-.532-.025-1v-5.194h1.455v10.153Z" transform="translate(-74.615 -123.941)" fill="#fff"/>
          </g>
        </g>
      </g>
      <g id="Grupo_3201" data-name="Grupo 3201" transform="translate(186.662 91.064)">
        <g id="Grupo_3196" data-name="Grupo 3196" transform="translate(0 6.025)">
          <g id="Grupo_3193" data-name="Grupo 3193" transform="translate(22.851)">
            <rect id="Rectángulo_1574" data-name="Rectángulo 1574" width="16.38" height="1.414" fill="#fff"/>
          </g>
          <g id="Grupo_3194" data-name="Grupo 3194" transform="translate(11.733 6.28)">
            <rect id="Rectángulo_1575" data-name="Rectángulo 1575" width="27.499" height="1.414" fill="#fff"/>
          </g>
          <g id="Grupo_3195" data-name="Grupo 3195" transform="translate(0 12.56)">
            <rect id="Rectángulo_1576" data-name="Rectángulo 1576" width="39.231" height="1.414" fill="#fff"/>
          </g>
        </g>
        <g id="Grupo_3200" data-name="Grupo 3200" transform="translate(36.179)">
          <path id="Trazado_6794" data-name="Trazado 6794" d="M167.01,58.417H153.047l-.9,12.085,19.37-.711Z" transform="translate(-119.882 -54.289)" fill="#00b9d9"/>
          <g id="Grupo_3199" data-name="Grupo 3199">
            <g id="Grupo_3198" data-name="Grupo 3198">
              <path id="Trazado_6795" data-name="Trazado 6795" d="M186.638,76.634V69.7l-4.731-12.03H165.092V75.36H133.9v5.411h9.216a4.717,4.717,0,0,1,8.348,0H168.04a4.722,4.722,0,0,1,8.353,0h11.663V76.634ZM167.427,69v-8.96h12.84L183.79,69Z" transform="translate(-133.895 -54.859)" fill="#798ce8"/>
              <g id="Grupo_3197" data-name="Grupo 3197">
                <rect id="Rectángulo_1577" data-name="Rectángulo 1577" width="29.208" height="10.251" fill="#29626b"/>
                <rect id="Rectángulo_1578" data-name="Rectángulo 1578" width="29.208" height="10.249" transform="translate(0 10.251)" fill="#00b9d9"/>
              </g>
            </g>
            <path id="Trazado_6796" data-name="Trazado 6796" d="M146.339,73.238a3.394,3.394,0,1,1-3.394-3.394A3.394,3.394,0,0,1,146.339,73.238Z" transform="translate(-129.554 -45.514)" fill="#784eeb"/>
            <path id="Trazado_6797" data-name="Trazado 6797" d="M160.437,73.238a3.392,3.392,0,1,1-3.393-3.394A3.4,3.4,0,0,1,160.437,73.238Z" transform="translate(-118.724 -45.514)" fill="#784eeb"/>
            <path id="Trazado_6798" data-name="Trazado 6798" d="M157.907,72.472a1.627,1.627,0,1,1-1.628-1.63A1.629,1.629,0,0,1,157.907,72.472Z" transform="translate(-117.958 -44.748)" fill="#fad35d"/>
            <path id="Trazado_6799" data-name="Trazado 6799" d="M143.806,72.472a1.628,1.628,0,1,1-1.63-1.63A1.631,1.631,0,0,1,143.806,72.472Z" transform="translate(-128.786 -44.748)" fill="#fad35d"/>
          </g>
          <rect id="Rectángulo_1579" data-name="Rectángulo 1579" width="3.13" height="6.306" transform="translate(51.03 16.213)" fill="#fad35d"/>
          <rect id="Rectángulo_1580" data-name="Rectángulo 1580" width="1.015" height="3.304" transform="translate(33.914 16.062)" fill="#fad35d"/>
        </g>
      </g>
      <g id="Grupo_3205" data-name="Grupo 3205" transform="translate(155.946 65.923)">
        <g id="Grupo_3204" data-name="Grupo 3204" transform="translate(0)">
          <rect id="Rectángulo_1581" data-name="Rectángulo 1581" width="24.38" height="24.992" transform="matrix(1, -0.007, 0.007, 1, 0.902, 5.674)" fill="#1c434a"/>
          <g id="Grupo_3202" data-name="Grupo 3202" transform="translate(6.281)">
            <path id="Trazado_6800" data-name="Trazado 6800" d="M112.645,50.775a.6.6,0,0,1-.608-.6l-.021-2.47c-.016-2.572-2.537-4.649-5.625-4.63s-5.586,2.13-5.567,4.7l.018,2.475a.61.61,0,0,1-1.22.009l-.012-2.468c-.025-3.246,3.014-5.9,6.774-5.928s6.829,2.59,6.847,5.832l.021,2.475A.6.6,0,0,1,112.645,50.775Z" transform="translate(-99.609 -41.861)" fill="#1c434a"/>
          </g>
          <g id="Grupo_3203" data-name="Grupo 3203" transform="translate(6.304 4.107)">
            <path id="Trazado_6801" data-name="Trazado 6801" d="M112.667,53.1a.609.609,0,0,1-.617-.6l-.014-2.47c-.018-2.574-2.544-4.653-5.634-4.63s-5.578,2.13-5.563,4.7l.016,2.47a.606.606,0,1,1-1.211.009l-.021-2.468c-.016-3.242,3.025-5.9,6.773-5.929s6.835,2.6,6.858,5.837l.014,2.468A.6.6,0,0,1,112.667,53.1Z" transform="translate(-99.622 -44.184)" fill="#00b9d9"/>
          </g>
          <path id="Trazado_6802" data-name="Trazado 6802" d="M108.9,73.627l3.853-.028-.166-24.993-3.877-2.3Z" transform="translate(-86.342 -38.447)" fill="#10272b"/>
          <path id="Trazado_6803" data-name="Trazado 6803" d="M108.706,47.328l2.94,1.744-.022-4.093Z" transform="translate(-86.342 -39.467)" fill="#29626b"/>
          <path id="Trazado_6804" data-name="Trazado 6804" d="M100.085,73.7l-3.864.026-.164-24.992,3.848-2.356Z" transform="translate(-96.055 -38.394)" fill="#10272b"/>
          <path id="Trazado_6805" data-name="Trazado 6805" d="M99.514,47.376,96.6,49.162l-.035-4.091Z" transform="translate(-95.665 -39.395)" fill="#29626b"/>
          <rect id="Rectángulo_1582" data-name="Rectángulo 1582" width="26.241" height="24.993" transform="translate(0 10.336) rotate(-0.383)" fill="#00b9d9"/>
        </g>
      </g>
      <path id="Trazado_6806" data-name="Trazado 6806" d="M59.445,140.9a2.939,2.939,0,1,1,2.94,2.94A2.941,2.941,0,0,1,59.445,140.9Z" transform="translate(31.778 97.852)" fill="#fff"/>
      <path id="Trazado_6807" data-name="Trazado 6807" d="M118.134,143.717l3.47-6.01,3.47,6.01Z" transform="translate(76.843 97.66)" fill="#fff"/>
      <g id="Grupo_3207" data-name="Grupo 3207" transform="translate(41.933 172.032)">
        <path id="Trazado_6808" data-name="Trazado 6808" d="M76.687,124.442a22.561,22.561,0,1,1-22.563-22.56A22.564,22.564,0,0,1,76.687,124.442Z" transform="translate(-31.564 -101.882)" fill="#15253d"/>
        <path id="Trazado_6809" data-name="Trazado 6809" d="M73.3,123.416a20.2,20.2,0,1,1-20.2-20.2A20.2,20.2,0,0,1,73.3,123.416Z" transform="translate(-30.537 -100.856)" fill="#fff"/>
        <rect id="Rectángulo_1583" data-name="Rectángulo 1583" width="1.78" height="6.497" transform="translate(21.671 4.67)" fill="#15253d"/>
        <rect id="Rectángulo_1584" data-name="Rectángulo 1584" width="6.497" height="1.78" transform="translate(4.035 21.671)" fill="#15253d"/>
        <rect id="Rectángulo_1585" data-name="Rectángulo 1585" width="6.496" height="1.78" transform="translate(34.789 21.671)" fill="#15253d"/>
        <rect id="Rectángulo_1586" data-name="Rectángulo 1586" width="3.838" height="0.546" transform="translate(30.127 9.741) rotate(-58.679)" fill="#00b9d9"/>
        <path id="Trazado_6810" data-name="Trazado 6810" d="M51.864,111.687l-.268-.475,3.349-1.88.268.48Z" transform="translate(-16.182 -96.162)" fill="#00b9d9"/>
        <path id="Trazado_6811" data-name="Trazado 6811" d="M51.655,119l.259-.48,3.374,1.827-.26.485Z" transform="translate(-16.137 -89.107)" fill="#00b9d9"/>
        <rect id="Rectángulo_1587" data-name="Rectángulo 1587" width="0.546" height="3.838" transform="matrix(0.844, -0.536, 0.536, 0.844, 30.294, 35.28)" fill="#00b9d9"/>
        <path id="Trazado_6812" data-name="Trazado 6812" d="M40.408,121.526l.451.3-2.151,3.177-.456-.307Z" transform="translate(-26.428 -86.798)" fill="#00b9d9"/>
        <rect id="Rectángulo_1588" data-name="Rectángulo 1588" width="3.839" height="0.545" transform="translate(5.708 30.724) rotate(-26.731)" fill="#00b9d9"/>
        <path id="Trazado_6813" data-name="Trazado 6813" d="M38.706,111.08l-.275.47L35.124,109.6l.281-.471Z" transform="translate(-28.831 -96.316)" fill="#00b9d9"/>
        <path id="Trazado_6814" data-name="Trazado 6814" d="M41.259,108.734l-.471.275-1.939-3.315.474-.273Z" transform="translate(-25.97 -99.165)" fill="#00b9d9"/>
        <rect id="Rectángulo_1589" data-name="Rectángulo 1589" width="1.78" height="6.497" transform="translate(21.671 33.137)" fill="#15253d"/>
        <g id="Grupo_3206" data-name="Grupo 3206" transform="translate(15.241 15.725)">
          <path id="Trazado_6815" data-name="Trazado 6815" d="M40.185,123.016l3.071-6.207a4.868,4.868,0,0,0,.647-2.332c0-1.017-.513-1.807-1.535-1.807a2.263,2.263,0,0,0-1.3.4l-.495-1.6a3.808,3.808,0,0,1,2.318-.7c2.121,0,2.995,1.738,2.995,3.472a6.779,6.779,0,0,1-1.04,3.21l-1.941,3.454H45.9v2.1Z" transform="translate(-40.185 -110.777)" fill="#00b9d9"/>
          <path id="Trazado_6816" data-name="Trazado 6816" d="M49.752,120.554v2.385H47.887v-2.385H44.65V118.96l3.267-8.083h1.835V119H50.4v1.557Zm-1.865-6.61s-.21.633-.453,1.211L45.884,119h2v-3.824c0-.56.03-1.229.03-1.229Z" transform="translate(-36.757 -110.7)" fill="#00b9d9"/>
        </g>
      </g>
      <g id="Grupo_3210" data-name="Grupo 3210" transform="translate(189.119 18.063)">
        <g id="Grupo_3209" data-name="Grupo 3209">
          <path id="Trazado_6817" data-name="Trazado 6817" d="M127,19.166a1.021,1.021,0,0,1-.387.322l.152,9.762c2.12-2.935,7.775-7.81,11.023-5.984,2.57-.2.272,3.513,3.608,4.646a10.643,10.643,0,0,1,4.264,1.209,20.276,20.276,0,0,0-5.159-8.569,20.957,20.957,0,0,0-2.388-1.9,1.3,1.3,0,0,1-.225.9c-.8,1.443-2.134,1.269-3.976,1.319-2.259.06-4.879-.926-2.938-2.761.555-.543-2.3-2.015-.088-2.464a4.693,4.693,0,0,1,.6-.122,20.159,20.159,0,0,0-4.946-.737l.021,1.437C127.205,17.144,127.571,18.342,127,19.166Z" transform="translate(-105.817 -14.788)" fill="#29626b"/>
          <path id="Trazado_6818" data-name="Trazado 6818" d="M115.606,28.636c-.258-.415-.493-.806-.732-1.206A20.276,20.276,0,0,0,118.3,37.1a22.011,22.011,0,0,0,.311-2.661C118.689,32.4,116.651,30.319,115.606,28.636Z" transform="translate(-114.779 -5.081)" fill="#00b9d9"/>
          <path id="Trazado_6819" data-name="Trazado 6819" d="M141.015,37.457a3.451,3.451,0,0,0-.592-2.624,4.584,4.584,0,0,1-2.372,1.2,6.42,6.42,0,0,1-1.174-6.161c-1.492.369-2.972.755-4.45,1.161a1.4,1.4,0,0,0,.1.739,6.972,6.972,0,0,1-2.358,1.623,1.517,1.517,0,0,1,.544.4l.177.173c-.4.318-1.439.479-1.632-.265-.014-.053.021-.058.021-.1a7.149,7.149,0,0,1-1.494.343,12.548,12.548,0,0,1-.946,3.6l.1,6.479a20.376,20.376,0,0,0,13.7-6.106C140.785,37.777,140.88,37.606,141.015,37.457Zm-7.7-4.787a.9.9,0,0,1,1.017-.005l-.347,0c.366-.154.76.094,1.018.5C134.47,33.667,133.7,33.237,133.319,32.67Z" transform="translate(-105.591 -3.204)" fill="#29626b"/>
          <path id="Trazado_6820" data-name="Trazado 6820" d="M129.669,25.237c.2-2.118-1.37-3.09-1.543-1.575-.235,1.991,3.163,5.982,4.174,4.833S131.211,26.064,129.669,25.237Z" transform="translate(-104.612 -8.54)" fill="#29626b"/>
          <path id="Trazado_6821" data-name="Trazado 6821" d="M134.547,49.055c-1.851.412-1.264-1.158-1.542-2,.426,3.262-7.17,5.175-8.1,3.988-.078-.624,2.47-4.582,2.949-5.728.615-.935,3.175-6.011,3.136-6.8-1.494-1.646-4.586-9.985,2.25-9.543a3.027,3.027,0,0,1,.684.371,6.972,6.972,0,0,1,.725-1.193l-.152-9.762c-.537.27-1.17-.058-1.662.219-.385.219-.628.967-.972,1.338a10.1,10.1,0,0,1-1.315.893c-.571.433-1.031,1.324-1.618,1.667-1.893,1.128-2.668-.748-2.415-2.311.189-1.246.626-1.888-.7-2.517-1.054-.5-1.5-.373-1.508-1.444a20.482,20.482,0,0,0-3.164,2.141,7.054,7.054,0,0,1,2.362,1.923c-.949.861-2.206.43-3.239,1.124-.721.472-2,1.745-.808,2.463,1.451.879,1.736-2.086,3.412-1.036,1.146.714,2.19,3.748,1.062,4.4-1.052.6-1.487-.019-2.113,1.291-.149.3.016.649-.209.925-.35.438-.621.2-1.006.5-.771.6-.4.682-.909,1.428-.707,1.077-.81.141-2.1-.127-2.9-.6-.255,2.486.622,3.272,1.2,1.08,2.616,1.885,3.865,2.943,1.07.918,3.532,3.5,3.18,5.008-.278,1.232-1.879,1.467-2.585,2.305a5.528,5.528,0,0,0-.826,2.459c-.3,1.1-.576.9-1.291,1.78-.055.071-.081.18-.134.255a20.349,20.349,0,0,0,14.613,5.231l-.1-6.479C134.812,48.373,134.71,48.718,134.547,49.055ZM131.5,52.681c-.778.412-1.308.278-1.427.023s.422-.776,1.2-1.188,1.489-.552,1.612-.3C133.007,51.46,132.27,52.264,131.5,52.681Z" transform="translate(-113.7 -13.683)" fill="#00b9d9"/>
          <path id="Trazado_6822" data-name="Trazado 6822" d="M129.461,17.792c-1.941,1.835.679,2.822,2.938,2.761,1.842-.05,3.177.124,3.976-1.319a1.3,1.3,0,0,0,.225-.9,20.123,20.123,0,0,0-6.622-3.126,4.693,4.693,0,0,0-.6.122C127.158,15.777,130.016,17.25,129.461,17.792Z" transform="translate(-104.302 -14.468)" fill="#dfe0e0"/>
          <path id="Trazado_6823" data-name="Trazado 6823" d="M130.179,24.162a3.028,3.028,0,0,0-.684-.371c-6.836-.442-3.744,7.9-2.251,9.543.039.792-2.521,5.868-3.136,6.8-.479,1.146-3.027,5.1-2.949,5.728.93,1.186,8.526-.727,8.1-3.988.278.845-.309,2.415,1.542,2,.163-.338.265-.682.4-1.025l-.3-19.885A6.971,6.971,0,0,0,130.179,24.162Z" transform="translate(-109.954 -8.507)" fill="#fff"/>
          <path id="Trazado_6824" data-name="Trazado 6824" d="M125.288,36.373c-.776.412-1.315.944-1.2,1.188s.649.389,1.427-.023,1.506-1.222,1.384-1.46C126.777,35.822,126.059,35.963,125.288,36.373Z" transform="translate(-107.715 1.46)" fill="#fff"/>
          <path id="Trazado_6825" data-name="Trazado 6825" d="M128.209,32.177c.193.744,1.229.583,1.632.265l-.177-.173a1.517,1.517,0,0,0-.544-.4,7.665,7.665,0,0,1-.889.21C128.231,32.119,128.2,32.124,128.209,32.177Z" transform="translate(-104.542 -1.674)" fill="#dfe0e0"/>
          <g id="Grupo_3208" data-name="Grupo 3208" transform="translate(20.95 8.079)">
            <path id="Trazado_6826" data-name="Trazado 6826" d="M145.566,25.612A10.643,10.643,0,0,0,141.3,24.4c-3.336-1.133-1.038-4.846-3.608-4.646-3.248-1.826-8.9,3.05-11.023,5.984l.3,19.885a12.549,12.549,0,0,0,.946-3.6,7.15,7.15,0,0,0,1.494-.343,7.666,7.666,0,0,0,.889-.21,6.972,6.972,0,0,0,2.358-1.623,1.4,1.4,0,0,1-.1-.739c1.478-.407,2.958-.792,4.45-1.161a6.421,6.421,0,0,0,1.174,6.161,4.583,4.583,0,0,0,2.372-1.2,3.451,3.451,0,0,1,.592,2.624A20.347,20.347,0,0,0,145.566,25.612Zm-16.331.788c.173-1.515,1.747-.543,1.543,1.575,1.542.827,3.633,2.114,2.631,3.258S129,28.391,129.234,26.4Z" transform="translate(-126.671 -19.359)" fill="#dfe0e0"/>
          </g>
          <path id="Trazado_6827" data-name="Trazado 6827" d="M131.175,31.519l.347,0a.9.9,0,0,0-1.017.005c.384.567,1.151,1,1.688.5C131.935,31.612,131.541,31.365,131.175,31.519Z" transform="translate(-102.777 -2.06)" fill="#dfe0e0"/>
          <path id="Trazado_6828" data-name="Trazado 6828" d="M129.348,19.708c.491-.278,1.124.051,1.662-.219l-.048-3.262-.021-1.437a19.772,19.772,0,0,0-2.093.115,20.148,20.148,0,0,0-8.026,2.429c.009,1.071.454.944,1.508,1.444,1.324.629.887,1.271.7,2.517-.253,1.563.522,3.438,2.415,2.311.587-.343,1.047-1.234,1.618-1.667a10.1,10.1,0,0,0,1.315-.893C128.721,20.675,128.963,19.927,129.348,19.708Z" transform="translate(-110.212 -14.788)" fill="#fff"/>
          <path id="Trazado_6829" data-name="Trazado 6829" d="M126.558,15.6l.048,3.262a1.021,1.021,0,0,0,.387-.322C127.562,17.718,127.2,16.52,126.558,15.6Z" transform="translate(-105.808 -14.164)" fill="#fff"/>
          <path id="Trazado_6830" data-name="Trazado 6830" d="M122.98,46.313a5.528,5.528,0,0,1,.826-2.459c.705-.838,2.307-1.073,2.585-2.305.352-1.513-2.111-4.091-3.18-5.008-1.248-1.059-2.662-1.863-3.865-2.943-.877-.787-3.522-3.877-.622-3.272,1.287.269,1.39,1.2,2.1.127.5-.746.138-.829.909-1.428.385-.3.656-.058,1.006-.5.225-.276.06-.628.209-.925.626-1.31,1.061-.691,2.113-1.291,1.128-.651.083-3.684-1.063-4.4-1.676-1.05-1.961,1.915-3.412,1.036-1.19-.718.087-1.991.808-2.463,1.032-.695,2.289-.263,3.239-1.124a7.054,7.054,0,0,0-2.362-1.923,20.628,20.628,0,0,0-1.724,1.443,20.34,20.34,0,0,0-5.627,16.22c.239.4.474.79.732,1.206,1.045,1.683,3.083,3.766,3.009,5.806a22.014,22.014,0,0,1-.311,2.661,20.592,20.592,0,0,0,2.572,3.069c.2.191.435.32.638.506.053-.074.08-.184.134-.255C122.4,47.213,122.678,47.41,122.98,46.313Z" transform="translate(-114.82 -12.753)" fill="#fff"/>
        </g>
      </g>
      <path id="Trazado_6831" data-name="Trazado 6831" d="M154.483,42.836l-2.2.134-7.489-8.7-1.692.018,3.647,7.084.071,1.941-7.793.488-1.83-1.766-1.368.014,1.085,2.89-.877,2.912,1.37-.014,1.706-1.807,7.814.309.069,1.821-3.127,7.16,1.694-.019,6.748-8.747,2.314.1s5.8-.065,7.547-1.992C160.28,42.769,154.483,42.836,154.483,42.836Z" transform="translate(90.428 18.233)" fill="#29626b"/>
      <g id="Grupo_3211" data-name="Grupo 3211" transform="translate(117.944 31.461)">
        <path id="Trazado_6832" data-name="Trazado 6832" d="M87.533,28.977a6.615,6.615,0,0,0-7.338-6.435c-4.908.679-6.778,5.228-4.941,10.266C77.523,38.985,87.8,45.3,87.8,45.3V45.3l-.269-16.344Z" transform="translate(-74.56 -22.272)" fill="#5970e2"/>
        <path id="Trazado_6833" data-name="Trazado 6833" d="M89.026,22.4a6.64,6.64,0,0,0-7.13,6.656l.269,16.344c.03-.016,10.068-6.654,12.124-12.9C95.967,27.405,93.957,22.918,89.026,22.4Z" transform="translate(-68.927 -22.367)" fill="#798ce8"/>
      </g>
      <g id="Grupo_3215" data-name="Grupo 3215" transform="translate(210.844 155.838)">
        <g id="Grupo_3212" data-name="Grupo 3212">
          <path id="Trazado_6834" data-name="Trazado 6834" d="M151.063,94.235a1.866,1.866,0,0,0-2.173-1.481L128.627,96.6a1.868,1.868,0,0,0-1.485,2.174l.12.628,23.921-4.54Z" transform="translate(-127.109 -92.722)" fill="#009ab5"/>
          <path id="Trazado_6835" data-name="Trazado 6835" d="M127.2,98.474l2.615,13.756a1.866,1.866,0,0,0,2.176,1.481l20.26-3.849a1.869,1.869,0,0,0,1.485-2.174l-2.615-13.754Z" transform="translate(-127.043 -91.791)" fill="#29626b"/>
        </g>
        <rect id="Rectángulo_1590" data-name="Rectángulo 1590" width="6.824" height="9.336" transform="translate(4.148 7.773) rotate(-10.748)" fill="#ffd100"/>
        <rect id="Rectángulo_1591" data-name="Rectángulo 1591" width="3.645" height="4.237" transform="matrix(0.801, -0.598, 0.598, 0.801, 11.151, 13.095)" fill="#b89600"/>
        <g id="Grupo_3213" data-name="Grupo 3213" transform="translate(12.113 2.143)" opacity="0.6" style="mix-blend-mode: multiply;isolation: isolate">
          <path id="Trazado_6836" data-name="Trazado 6836" d="M133.961,96.2l2.961,15.582,10.13-1.923a1.869,1.869,0,0,0,1.485-2.174l-2.615-13.754Z" transform="translate(-133.961 -93.934)" fill="#29626b"/>
        </g>
        <g id="Grupo_3214" data-name="Grupo 3214" transform="translate(16.864 4.668)">
          <path id="Trazado_6837" data-name="Trazado 6837" d="M142.355,95.73,136.716,96.8l-.067-.369,5.637-1.072Z" transform="translate(-136.649 -95.362)" fill="#b89600"/>
          <path id="Trazado_6838" data-name="Trazado 6838" d="M142.479,96.353l-5.639,1.07-.074-.368,5.64-1.07Z" transform="translate(-136.559 -94.884)" fill="#b89600"/>
          <path id="Trazado_6839" data-name="Trazado 6839" d="M142.591,96.975l-5.637,1.07-.069-.369,5.638-1.069Z" transform="translate(-136.467 -94.406)" fill="#b89600"/>
          <path id="Trazado_6840" data-name="Trazado 6840" d="M142.71,97.6l-5.637,1.072L137,98.3l5.639-1.072Z" transform="translate(-136.376 -93.929)" fill="#b89600"/>
          <rect id="Rectángulo_1592" data-name="Rectángulo 1592" width="5.739" height="0.377" transform="matrix(0.982, -0.186, 0.186, 0.982, 0.836, 5.47)" fill="#b89600"/>
        </g>
        <path id="Trazado_6841" data-name="Trazado 6841" d="M140.172,99.233l.811,1.079,1.352-.059-.777,1.107.473,1.266-1.291-.4-1.058.843-.024-1.352-1.124-.744,1.276-.442Z" transform="translate(-118.337 -87.722)" fill="#fff"/>
      </g>
      <g id="Grupo_3219" data-name="Grupo 3219" transform="translate(198.766 178.214)">
        <g id="Grupo_3216" data-name="Grupo 3216">
          <path id="Trazado_6842" data-name="Trazado 6842" d="M166.716,108.736a3.562,3.562,0,0,0-3.739-3.352l-39.335,2.171a3.565,3.565,0,0,0-3.359,3.743l.067,1.218,46.433-2.556Z" transform="translate(-120.278 -105.379)" fill="#009ab5"/>
          <path id="Trazado_6843" data-name="Trazado 6843" d="M120.319,110.526l1.48,26.7a3.559,3.559,0,0,0,3.744,3.355l39.33-2.173a3.574,3.574,0,0,0,3.359-3.746l-1.48-26.695Z" transform="translate(-120.246 -103.389)" fill="#29626b"/>
        </g>
        <rect id="Rectángulo_1593" data-name="Rectángulo 1593" width="13.034" height="17.828" transform="translate(7.364 10.21) rotate(-3.143)" fill="#ffd100"/>
        <rect id="Rectángulo_1594" data-name="Rectángulo 1594" width="6.962" height="8.095" transform="translate(19.275 22.053) rotate(-29.146)" fill="#b89600"/>
        <g id="Grupo_3217" data-name="Grupo 3217" transform="translate(23.29 4.581)" opacity="0.6" style="mix-blend-mode: multiply;isolation: isolate">
          <path id="Trazado_6844" data-name="Trazado 6844" d="M133.452,109.245l1.672,30.252,19.664-1.085a3.574,3.574,0,0,0,3.359-3.746l-1.48-26.695Z" transform="translate(-133.452 -107.97)" fill="#29626b"/>
        </g>
        <g id="Grupo_3218" data-name="Grupo 3218" transform="translate(31.946 8.964)">
          <rect id="Rectángulo_1595" data-name="Rectángulo 1595" width="10.96" height="0.714" transform="translate(0 0.607) rotate(-3.177)" fill="#b89600"/>
          <path id="Trazado_6845" data-name="Trazado 6845" d="M149.406,112.372l-10.942.608-.05-.716,10.951-.606Z" transform="translate(-138.298 -109.522)" fill="#b89600"/>
          <path id="Trazado_6846" data-name="Trazado 6846" d="M149.464,113.582l-10.944.6-.036-.716,10.944-.6Z" transform="translate(-138.245 -108.594)" fill="#b89600"/>
          <path id="Trazado_6847" data-name="Trazado 6847" d="M149.53,114.789l-10.94.6-.038-.715,10.942-.606Z" transform="translate(-138.192 -107.667)" fill="#b89600"/>
          <path id="Trazado_6848" data-name="Trazado 6848" d="M149.6,116l-10.949.6-.036-.715,10.944-.608Z" transform="translate(-138.142 -106.74)" fill="#b89600"/>
        </g>
        <path id="Trazado_6849" data-name="Trazado 6849" d="M144.388,117.683l1.264,2.246,2.574.228-1.749,1.9.573,2.517-2.345-1.076-2.213,1.326.293-2.564-1.941-1.694,2.528-.514Z" transform="translate(-104.485 -95.931)" fill="#fff"/>
      </g>
      <g id="Grupo_3221" data-name="Grupo 3221" transform="translate(23.12 140.061)">
        <path id="Trazado_6852" data-name="Trazado 6852" d="M36.647,90.863A1.492,1.492,0,0,0,35.04,89.5l-.99.083a5.207,5.207,0,0,0-.453-.891l.649-.751a1.49,1.49,0,0,0-.152-2.1l-.272-.237a1.5,1.5,0,0,0-2.107.152l-.649.75a5.694,5.694,0,0,0-.944-.316l-.062-.99A1.494,1.494,0,0,0,28.476,83.8l-.362.023a1.494,1.494,0,0,0-1.395,1.584l.064.99a5.718,5.718,0,0,0-1.253.658l-.781-.6a1.49,1.49,0,0,0-2.088.269l-.217.286a1.485,1.485,0,0,0,.263,2.09l.773.6a5.622,5.622,0,0,0-.26.976l-.981.115a1.493,1.493,0,0,0-1.3,1.655l.048.359a1.489,1.489,0,0,0,1.653,1.306l.983-.115a5.626,5.626,0,0,0,.488.875l-.621.774a1.494,1.494,0,0,0,.228,2.093l.288.225a1.488,1.488,0,0,0,2.091-.228l.621-.769a5.866,5.866,0,0,0,.963.281l.1.985A1.494,1.494,0,0,0,29.4,99.564l.362-.041A1.488,1.488,0,0,0,31.1,97.9l-.1-.988a5.494,5.494,0,0,0,.884-.472l.762.636a1.491,1.491,0,0,0,2.1-.189l.232-.283a1.488,1.488,0,0,0-.191-2.1l-.758-.633a5.7,5.7,0,0,0,.3-.955l.988-.081a1.492,1.492,0,0,0,1.365-1.609Z" transform="translate(-20.922 -83.797)" fill="#fff"/>
        <path id="Trazado_6853" data-name="Trazado 6853" d="M31.33,89.8a4.157,4.157,0,1,1-4.414-3.884A4.158,4.158,0,0,1,31.33,89.8Z" transform="translate(-19.308 -82.175)" fill="#ffd100"/>
      </g>
      <g id="Grupo_3241" data-name="Grupo 3241" transform="translate(240.561 150.222)">
        <path id="Trazado_6862" data-name="Trazado 6862" d="M143.919,92.51a3.483,3.483,0,0,1,.622-2.1,2.076,2.076,0,0,1,1.8-.864,2.344,2.344,0,0,1,1.8.774,3.943,3.943,0,0,1-.009,4.529,2.3,2.3,0,0,1-1.773.79,2.244,2.244,0,0,1-1.743-.778A3.443,3.443,0,0,1,143.919,92.51Zm2.461-1.991a1.061,1.061,0,0,0-.875.456,2.873,2.873,0,0,0-.354,1.676,2.59,2.59,0,0,0,.357,1.561,1.076,1.076,0,0,0,1.756-.005,2.849,2.849,0,0,0,.35-1.665,2.624,2.624,0,0,0-.352-1.57A1.086,1.086,0,0,0,146.38,90.519Zm.009,11.175,6.306-12.149h1.147l-6.283,12.149Zm4.985-3.129a3.483,3.483,0,0,1,.622-2.1A2.086,2.086,0,0,1,153.8,95.6a2.336,2.336,0,0,1,1.8.774,3.947,3.947,0,0,1-.007,4.529,2.317,2.317,0,0,1-1.782.79,2.232,2.232,0,0,1-1.741-.783A3.428,3.428,0,0,1,151.374,98.565Zm2.468-1.991a1.067,1.067,0,0,0-.884.458,2.884,2.884,0,0,0-.35,1.674,2.618,2.618,0,0,0,.354,1.556,1.081,1.081,0,0,0,1.764,0,2.846,2.846,0,0,0,.352-1.665,2.626,2.626,0,0,0-.354-1.57A1.074,1.074,0,0,0,153.842,96.574Z" transform="translate(-143.919 -89.545)" fill="#fff"/>
      </g>
      <g id="Grupo_3246" data-name="Grupo 3246" transform="translate(88.27 210.402)">
        <g id="Grupo_3242" data-name="Grupo 3242" transform="translate(0)">
          <path id="Trazado_6863" data-name="Trazado 6863" d="M63.667,135.378a5.9,5.9,0,1,1,5.889-5.9A5.9,5.9,0,0,1,63.667,135.378Zm0-11.21a5.314,5.314,0,1,0,5.316,5.314A5.324,5.324,0,0,0,63.667,124.168Z" transform="translate(-57.775 -123.586)" fill="#fff"/>
        </g>
        <g id="Grupo_3245" data-name="Grupo 3245" transform="translate(2.537 2.546)">
          <g id="Grupo_3243" data-name="Grupo 3243" transform="translate(0 3.07)">
            <rect id="Rectángulo_1602" data-name="Rectángulo 1602" width="6.707" height="0.558" fill="#fff"/>
          </g>
          <g id="Grupo_3244" data-name="Grupo 3244" transform="translate(3.08)">
            <rect id="Rectángulo_1603" data-name="Rectángulo 1603" width="0.55" height="6.698" fill="#fff"/>
          </g>
        </g>
      </g>
      <g id="Grupo_3259" data-name="Grupo 3259" transform="translate(41.97 19.102)">
        <path id="Trazado_6864" data-name="Trazado 6864" d="M34.221,34.711A4.114,4.114,0,0,0,31.9,36.877a3.567,3.567,0,0,0,.046,3.02l12.93,27.048a4.152,4.152,0,0,0,2.4,2.1,4.771,4.771,0,0,0,3.341-.039l3.168-1.236C62.4,50.712,71.385,33.486,81.007,16.5Z" transform="translate(-31.585 -14.515)" fill="#784eeb"/>
        <path id="Trazado_6865" data-name="Trazado 6865" d="M75.619,15.7l-4.252,1.655C61.745,34.347,52.756,51.573,44.139,68.635l47.87-18.64a4.148,4.148,0,0,0,2.326-2.162,3.575,3.575,0,0,0-.042-3.023L81.363,17.756a4.216,4.216,0,0,0-2.4-2.1A4.755,4.755,0,0,0,75.619,15.7Z" transform="translate(-21.945 -15.376)" fill="#5035b5"/>
        <g id="Grupo_3247" data-name="Grupo 3247" transform="translate(14.739 25.502)">
          <path id="Trazado_6866" data-name="Trazado 6866" d="M40.64,43.565l-.718-1.5.481-.847,1.052,2.2-.182.313Zm1.119.488,1.045,2.2-1.011-.272-.714-1.5.293-.534Z" transform="translate(-39.922 -21.036)" fill="#fff"/>
          <path id="Trazado_6867" data-name="Trazado 6867" d="M42.934,44.38l.716,1.5-.47.847-1.047-2.2.175-.322Zm1.8-4.345-.465.849-2.406.932-1-.269Zm2.512,5.231-3.877,1.512.463-.847,2.406-.94ZM45.21,42.621l.513.134-.244.43-2.59,1.009-.5-.143.233-.423Zm-.039-.2-.721-1.5.47-.852,1.057,2.206-.175.309Z" transform="translate(-39.197 -21.943)" fill="#fff"/>
          <path id="Trazado_6868" data-name="Trazado 6868" d="M47.446,38.974l-.456.854-2.413.937-1-.278Zm2.505,5.242-3.87,1.51.46-.847,2.408-.939Zm-2.024-2.646.514.131-.251.428-2.579,1.008L45.106,43l.23-.428Zm-.05-.2-.72-1.5.481-.849,1.043,2.2-.163.311Zm1.112.491,1.05,2.194-1.006-.272-.721-1.5.308-.539Z" transform="translate(-37.113 -22.757)" fill="#fff"/>
          <path id="Trazado_6869" data-name="Trazado 6869" d="M47.291,41.764l-1.055-2.2,1.009.269.72,1.5-.293.536Zm3.384-1.275.518.131-.248.43-2.581,1.006-.509-.138.24-.426Zm-.046-.2-.711-1.5.468-.849,1.057,2.192-.171.322Zm1.123.491L52.8,42.979l-1.011-.27-.721-1.5.308-.537Z" transform="translate(-35.074 -23.544)" fill="#fff"/>
          <path id="Trazado_6870" data-name="Trazado 6870" d="M51.155,40.282,50.1,38.075l1.011.276.711,1.494-.293.536Zm2.915-3.863-.47.849-2.41.937-1-.278Zm2.5,5.233-3.872,1.506.458-.847,2.415-.937ZM54.542,39l.507.14-.242.426-2.583,1.008-.506-.14.232-.424Zm1.064.3,1.045,2.2-1-.272-.72-1.5.306-.527Z" transform="translate(-32.106 -24.719)" fill="#fff"/>
          <path id="Trazado_6871" data-name="Trazado 6871" d="M53.868,39.225l-1.057-2.2,1.015.278.707,1.5-.285.523Zm1.1.484.718,1.5-.467.847-1.054-2.2.179-.322Zm1.807-4.347-.46.85-2.411.932-1-.278Zm2.5,5.235L55.412,42.11l.458-.856,2.408-.935ZM57.254,37.95l.509.136-.24.426-2.59,1-.5-.136.233-.421Zm1.068.288,1.05,2.2-1.017-.27-.714-1.5.306-.53Z" transform="translate(-30.025 -25.531)" fill="#fff"/>
          <path id="Trazado_6872" data-name="Trazado 6872" d="M59.444,34.307l-.458.85-2.411.937-1-.281Zm.435,2.387-.728-1.49.486-.856,1.052,2.2-.168.318Zm1.107.493,1.055,2.2-1.009-.269-.718-1.5.3-.537Z" transform="translate(-27.9 -26.341)" fill="#fff"/>
          <path id="Trazado_6873" data-name="Trazado 6873" d="M59.291,37.111l-1.052-2.2,1.013.272.714,1.494-.3.537Zm1.112.483.721,1.5-.479.85L59.6,37.753l.164-.329Zm1.8-4.344-.46.841-2.408.939-1-.27Zm2.505,5.231L60.827,40l.47-.847,2.408-.937Zm-2.029-2.646.506.134-.237.424L60.357,37.4l-.5-.138.232-.419Zm-.051-.2-.716-1.5.476-.849,1.057,2.2-.179.316Zm1.116.5,1.047,2.19-1.006-.274-.721-1.5.3-.536Z" transform="translate(-25.857 -27.153)" fill="#fff"/>
          <path id="Trazado_6874" data-name="Trazado 6874" d="M63.148,35.609l-1.048-2.2,1.011.274.714,1.494-.3.536Zm2.912-3.865-.461.85-2.41.941-1-.279Zm2.5,5.238L64.686,38.5l.472-.852,2.408-.937Zm-2.024-2.645.513.127L66.8,34.9,64.225,35.9l-.5-.133.23-.426Zm-.05-.2-.716-1.5.472-.852,1.057,2.2-.168.315Zm1.117.491,1.047,2.194-1-.27-.723-1.494.308-.544Z" transform="translate(-22.892 -28.309)" fill="#fff"/>
          <path id="Trazado_6875" data-name="Trazado 6875" d="M66.54,34.12l-.3.534-.377-.1-1.057-2.2,1.013.274Zm1.151,2.413-.476.854-1.052-2.194.18-.332.629.173Zm1.085-5.843-.46.849-2.413.937-1-.276Zm2.5,5.236-3.872,1.506.463-.843,2.411-.941Zm-1.262-2.991-.17.316-.645-.173L68.49,31.59l.47-.856Zm1.352,2.83-1-.272-.723-1.5.3-.534.377.115Z" transform="translate(-20.812 -29.118)" fill="#fff"/>
          <path id="Trazado_6876" data-name="Trazado 6876" d="M68.649,32.658l-.718-1.5.472-.849,1.057,2.2-.177.313Zm1.114.488,1.054,2.2L69.8,35.071l-.725-1.5.306-.536Z" transform="translate(-18.415 -29.41)" fill="#fff"/>
          <path id="Trazado_6877" data-name="Trazado 6877" d="M69.945,32.15l-.712-1.5.47-.854,1.052,2.208-.168.318Zm1.116.491,1.052,2.192-1-.269-.727-1.494.3-.537Z" transform="translate(-17.415 -29.801)" fill="#fff"/>
        </g>
        <g id="Grupo_3248" data-name="Grupo 3248" transform="translate(4.341 11.567)">
          <path id="Trazado_6878" data-name="Trazado 6878" d="M37.966,29.9l1.5-.152a2.128,2.128,0,0,1-.023,1,1.71,1.71,0,0,1-.47.788,2.908,2.908,0,0,1-.994.589,3.628,3.628,0,0,1-1.4.3,2.348,2.348,0,0,1-1.223-.4,2.692,2.692,0,0,1-1.009-1.2,2.248,2.248,0,0,1-.163-1.927,2.568,2.568,0,0,1,1.534-1.3,3,3,0,0,1,1.618-.23,2.464,2.464,0,0,1,1.287.728l-1.211.783a1.145,1.145,0,0,0-.283-.239,1.05,1.05,0,0,0-.426-.115,1.014,1.014,0,0,0-.454.076.89.89,0,0,0-.612.679,1.618,1.618,0,0,0,.214.955,1.769,1.769,0,0,0,.732.9,1.012,1.012,0,0,0,.819.005.906.906,0,0,0,.548-.479A1.189,1.189,0,0,0,37.966,29.9Z" transform="translate(-34.04 -17.764)" fill="#fff"/>
          <path id="Trazado_6879" data-name="Trazado 6879" d="M38.837,31.815l-2.1-4.4,2.51-.983a4.385,4.385,0,0,1,1.123-.3,1.3,1.3,0,0,1,.783.168,1.285,1.285,0,0,1,.564.628,1.236,1.236,0,0,1,.141.7,1.48,1.48,0,0,1-.269.612,2.43,2.43,0,0,1-.453.387,1.838,1.838,0,0,1,.472,0,1.978,1.978,0,0,1,.347.141,2.075,2.075,0,0,1,.345.191l1.342.986-1.708.665-1.441-1.032a1.243,1.243,0,0,0-.442-.228.742.742,0,0,0-.419.037l-.129.053.85,1.787ZM39.1,28.61l.631-.246a3.189,3.189,0,0,0,.377-.217.38.38,0,0,0,.171-.233.362.362,0,0,0-.021-.293.482.482,0,0,0-.313-.269,1.024,1.024,0,0,0-.606.1l-.666.26Z" transform="translate(-31.971 -18.69)" fill="#fff"/>
          <path id="Trazado_6880" data-name="Trazado 6880" d="M39.721,26.374,43.766,24.8l.446.942-2.532.979.327.705,2.357-.923.431.9-2.353.91.421.873,2.6-1.015.474,1-4.117,1.6Z" transform="translate(-29.679 -19.705)" fill="#fff"/>
          <path id="Trazado_6881" data-name="Trazado 6881" d="M42.52,25.088l2.233-.868a3.359,3.359,0,0,1,1.151-.258,2.123,2.123,0,0,1,.895.205,2.23,2.23,0,0,1,.721.555,3.365,3.365,0,0,1,.532.813,2.926,2.926,0,0,1,.341,1.158,1.739,1.739,0,0,1-.18.847,1.568,1.568,0,0,1-.507.612,4,4,0,0,1-.838.472l-2.243.875Zm1.985.41,1.142,2.41.373-.147a1.783,1.783,0,0,0,.628-.35.644.644,0,0,0,.152-.458,1.986,1.986,0,0,0-.246-.808,1.667,1.667,0,0,0-.718-.859,1.312,1.312,0,0,0-.96.069Z" transform="translate(-27.529 -20.35)" fill="#fff"/>
          <path id="Trazado_6882" data-name="Trazado 6882" d="M45.537,23.682l1.522-.592L49.154,27.5l-1.5.589Z" transform="translate(-25.213 -21.02)" fill="#fff"/>
          <path id="Trazado_6883" data-name="Trazado 6883" d="M46.812,23.708,51.4,21.919l.523,1.087-1.543.6,1.58,3.313-1.5.589-1.586-3.32-1.538.6Z" transform="translate(-24.234 -21.919)" fill="#fff"/>
        </g>
        <g id="Grupo_3258" data-name="Grupo 3258" transform="translate(7.479 22.333)">
          <path id="Trazado_6884" data-name="Trazado 6884" d="M59.366,39.509a1.7,1.7,0,0,1,.025,1.421,1.942,1.942,0,0,1-1.1,1.015l-14.638,5.7a2.278,2.278,0,0,1-1.58.023,2,2,0,0,1-1.128-.992L35.981,36.3a1.7,1.7,0,0,1-.019-1.416,1.935,1.935,0,0,1,1.094-1.018l14.647-5.7a2.273,2.273,0,0,1,1.572-.028,2.02,2.02,0,0,1,1.131.992Z" transform="translate(-35.816 -28.008)" fill="#deb30b"/>
          <g id="Grupo_3249" data-name="Grupo 3249" transform="translate(5.554 3.21)">
            <path id="Trazado_6885" data-name="Trazado 6885" d="M45.837,43.078a2.975,2.975,0,0,1-1.832-.058,2.588,2.588,0,0,1-1.492-1.294l-3.334-6.981a2.254,2.254,0,0,1-.037-1.869,2.609,2.609,0,0,1,1.451-1.354l3.847-1.494A2.957,2.957,0,0,1,46.52,30a2.547,2.547,0,0,1,1.492,1.31l3.334,6.964a2.242,2.242,0,0,1,.035,1.872A2.56,2.56,0,0,1,49.926,41.5L46.078,43C46,43.026,45.917,43.053,45.837,43.078Zm-.758-12L41.11,32.614a1.331,1.331,0,0,0-.739.7,1.156,1.156,0,0,0,.019.967l3.331,6.971a1.333,1.333,0,0,0,.765.663,1.536,1.536,0,0,0,.942.034l.126-.042,3.852-1.5a1.307,1.307,0,0,0,.746-.689,1.188,1.188,0,0,0-.019-.972L46.8,31.776a1.313,1.313,0,0,0-.764-.67A1.549,1.549,0,0,0,45.079,31.079Z" transform="translate(-38.958 -29.824)" fill="#826906"/>
          </g>
          <g id="Grupo_3253" data-name="Grupo 3253" transform="translate(0.65 7.165)">
            <g id="Grupo_3250" data-name="Grupo 3250">
              <path id="Trazado_6886" data-name="Trazado 6886" d="M36.709,35.286l-.526-1.09,5.478-2.134.52,1.087Z" transform="translate(-36.183 -32.061)" fill="#826906"/>
            </g>
            <g id="Grupo_3251" data-name="Grupo 3251" transform="translate(1.747 3.65)">
              <path id="Trazado_6887" data-name="Trazado 6887" d="M37.693,37.355l-.521-1.09,5.481-2.139.522,1.088Z" transform="translate(-37.172 -34.126)" fill="#826906"/>
            </g>
            <g id="Grupo_3252" data-name="Grupo 3252" transform="translate(3.494 7.312)">
              <path id="Trazado_6888" data-name="Trazado 6888" d="M38.679,39.417l-.52-1.089L43.638,36.2l.522,1.092Z" transform="translate(-38.16 -36.198)" fill="#826906"/>
            </g>
          </g>
          <g id="Grupo_3257" data-name="Grupo 3257" transform="translate(13.58 2.103)">
            <g id="Grupo_3254" data-name="Grupo 3254">
              <path id="Trazado_6889" data-name="Trazado 6889" d="M44.018,32.426l-.52-1.088L48.973,29.2l.525,1.088Z" transform="translate(-43.497 -29.198)" fill="#826906"/>
            </g>
            <g id="Grupo_3255" data-name="Grupo 3255" transform="translate(1.752 3.663)">
              <path id="Trazado_6890" data-name="Trazado 6890" d="M45.01,34.488,44.489,33.4l5.475-2.13.525,1.092Z" transform="translate(-44.489 -31.27)" fill="#826906"/>
            </g>
            <g id="Grupo_3256" data-name="Grupo 3256" transform="translate(3.497 7.318)">
              <path id="Trazado_6891" data-name="Trazado 6891" d="M45.993,36.558l-.518-1.092,5.481-2.129.519,1.092Z" transform="translate(-45.475 -33.338)" fill="#826906"/>
            </g>
          </g>
        </g>
      </g>
      <g id="Grupo_3260" data-name="Grupo 3260" transform="translate(23.12 55.272)">
        <path id="Trazado_6892" data-name="Trazado 6892" d="M100.961,46.659A2.929,2.929,0,0,0,98.619,45.6l-59.948.281-3.716-8.127a3.527,3.527,0,0,0-3.18-1.92l-7.273.037.023,4.144,6.49-.034L51.841,85.621a3.542,3.542,0,0,0,3.191,1.92L85.3,87.4l-.016-4.144-29.493.141-3.38-7.413,36.14-.168a3.464,3.464,0,0,0,3.17-2.049L101.3,49.007A2.34,2.34,0,0,0,100.961,46.659ZM79.07,63.621l-9.405.005-.025-5.521L80.088,58.1ZM82.321,58.1l10.6-.009-2.141,5.528-9.485,0Zm-38.064.032,10.478-.009,1.089,5.51-9.059.005Zm12.7-.009,10.476-.014.028,5.521-9.414,0Zm-.408-2.074-1.2-6.1,12.034-.057.035,6.145Zm10.925,9.562.037,6.159-7.851.035L58.44,65.614Zm2.2,0,9.02,0-1.128,6.113-7.855.041Zm-.058-9.569-.035-6.157,12.039-.055-1.151,6.2Zm-16.5-6.076,1.2,6.083-11.016.011L40.558,50.02ZM47.679,65.619l8.528-.005,1.223,6.2-6.912.035Zm39.985,6.053-7.865.039L80.931,65.6l9.09,0Zm6.062-15.658L82.7,56.023l1.151-6.209,12.294-.055Z" transform="translate(-24.501 -35.836)" fill="#2d333b"/>
        <path id="Trazado_6893" data-name="Trazado 6893" d="M56.781,65.9a4.69,4.69,0,1,0,5.2,4.641A4.93,4.93,0,0,0,56.781,65.9Z" transform="translate(-3.662 -12.749)" fill="#2d333b"/>
        <path id="Trazado_6894" data-name="Trazado 6894" d="M46.942,65.949A4.687,4.687,0,1,0,47,75.273a4.686,4.686,0,1,0-.055-9.324Z" transform="translate(-11.217 -12.713)" fill="#2d333b"/>
      </g>
      <g id="Grupo_3265" data-name="Grupo 3265" transform="translate(44.079 137.997)">
        <g id="Grupo_3264" data-name="Grupo 3264">
          <g id="Grupo_3263" data-name="Grupo 3263">
            <rect id="Rectángulo_1604" data-name="Rectángulo 1604" width="40.71" height="19.873" transform="translate(1.665 1.999) rotate(-0.463)" fill="#29626b"/>
            <path id="Trazado_6895" data-name="Trazado 6895" d="M76.319,83.106a1.651,1.651,0,0,0-1.179-.476l-1.985.014-36.635.293-2.093.023a1.7,1.7,0,0,0-1.176.5,1.669,1.669,0,0,0-.472,1.188l.009,2.213.129,15.511.019,2.15a1.608,1.608,0,0,0,.506,1.172,1.659,1.659,0,0,0,1.176.483l2.153-.021,36.526-.3,2.03-.014a1.666,1.666,0,0,0,1.656-1.679l-.018-2.247L76.833,86.6l-.016-2.319A1.625,1.625,0,0,0,76.319,83.106ZM34.466,87.425a2.723,2.723,0,0,0,2.7-2.751.1.1,0,0,0,0-.065l35.382-.29a.427.427,0,0,0-.005.071,2.711,2.711,0,0,0,2.638,2.692l.117,14.373a2.724,2.724,0,0,0-2.6,2.733l-35.354.29a2.748,2.748,0,0,0-2.761-2.707Z" transform="translate(-32.778 -82.63)" fill="#00b9d9"/>
            <g id="Grupo_3261" data-name="Grupo 3261" transform="translate(30.851 9.762)">
              <path id="Trazado_6896" data-name="Trazado 6896" d="M52.861,92.038l-.714.009-.028-3.863-1.515.4a.717.717,0,0,0-.309.145.415.415,0,0,0-.065.223.4.4,0,0,0,.1.263.293.293,0,0,0,.24.1,1.209,1.209,0,0,0,.223-.041l.633-.168.018,2.935-.712.009a.537.537,0,0,0-.359.1.286.286,0,0,0-.1.255.316.316,0,0,0,.1.246.51.51,0,0,0,.364.1l2.136-.012a.525.525,0,0,0,.359-.108.325.325,0,0,0,.11-.247.349.349,0,0,0-.11-.258A.591.591,0,0,0,52.861,92.038Z" transform="translate(-50.229 -88.127)" fill="#00b9d9"/>
              <path id="Trazado_6897" data-name="Trazado 6897" d="M54.467,88.347a1.32,1.32,0,0,0-.718-.175,1.254,1.254,0,0,0-1.135.635,2.507,2.507,0,0,0-.392,1.324l.014.767a2.325,2.325,0,0,0,.27,1.07,1.823,1.823,0,0,0,.56.684,1.291,1.291,0,0,0,.728.18,1.273,1.273,0,0,0,1.131-.635,2.407,2.407,0,0,0,.382-1.319l0-.78a2.407,2.407,0,0,0-.276-1.066A1.957,1.957,0,0,0,54.467,88.347Zm.136,2.535a1.534,1.534,0,0,1-.3.985.642.642,0,0,1-.516.265.628.628,0,0,1-.514-.235,1.627,1.627,0,0,1-.334-1l0-.773a1.591,1.591,0,0,1,.293-.985.649.649,0,0,1,.529-.269.629.629,0,0,1,.511.233,1.621,1.621,0,0,1,.327,1Z" transform="translate(-48.699 -88.137)" fill="#00b9d9"/>
              <path id="Trazado_6898" data-name="Trazado 6898" d="M57.018,89.018a1.773,1.773,0,0,0-.567-.682,1.328,1.328,0,0,0-.716-.184,1.262,1.262,0,0,0-1.126.64,2.444,2.444,0,0,0-.391,1.317l.012.78a2.185,2.185,0,0,0,.27,1.064,1.707,1.707,0,0,0,.566.688,1.4,1.4,0,0,0,1.853-.454,2.509,2.509,0,0,0,.382-1.324V90.09A2.269,2.269,0,0,0,57.018,89.018Zm-.431,1.853a1.508,1.508,0,0,1-.293.979.627.627,0,0,1-.518.263.618.618,0,0,1-.513-.228,1.678,1.678,0,0,1-.338-1.009l0-.769a1.548,1.548,0,0,1,.288-.985.636.636,0,0,1,.523-.263.57.57,0,0,1,.509.233,1.644,1.644,0,0,1,.339,1Z" transform="translate(-47.166 -88.152)" fill="#00b9d9"/>
            </g>
            <path id="Trazado_6899" data-name="Trazado 6899" d="M40.972,94.358a.163.163,0,0,0,.021-.088.207.207,0,0,0-.044-.136l-.4-.525a.251.251,0,0,0-.161-.088l-.037-.005-.021.009a.607.607,0,0,1-.023-.138,3.6,3.6,0,0,0,1.158-1.473c.014,0,.023.012.048.009a1.136,1.136,0,0,0,.886-1.476.366.366,0,0,0-.546-.1c.361-1.236.493-2.972-.822-3.272-.385-1.262-2.71-.955-3.668-.2-.537.424-1.372,1.5-.544,3.472a.359.359,0,0,0-.461.159,1.142,1.142,0,0,0,.91,1.462c.012,0,.016-.005.025-.005a3.542,3.542,0,0,0,1.184,1.451c-.007.044-.014.088-.019.14a.071.071,0,0,0-.032-.012l-.027,0a.241.241,0,0,0-.156.1l-.394.529a.266.266,0,0,0-.042.129.307.307,0,0,0,.023.09c-1.034.327-1.75.951-1.743,1.667.005,1.036,1.5,1.268,3.336,1.248s3.334-.267,3.317-1.306C42.739,95.278,42.018,94.664,40.972,94.358Z" transform="translate(-30.237 -79.879)" fill="#00b9d9"/>
            <path id="Trazado_6900" data-name="Trazado 6900" d="M41.621,92.095a6.469,6.469,0,1,1,6.47,6.469A6.469,6.469,0,0,1,41.621,92.095Z" transform="translate(-25.987 -80.328)" fill="#00b9d9"/>
            <g id="Grupo_3262" data-name="Grupo 3262" transform="translate(19.602 7.042)">
              <path id="Trazado_6901" data-name="Trazado 6901" d="M46.627,94.844l.147,1.225-1.137,0,.141-1.2a4.457,4.457,0,0,1-1.913-.4l.442-1.077a2.986,2.986,0,0,0,1.382.309c.677,0,1.107-.315,1.1-.716,0-.513-.332-.8-1.269-1.354-1.093-.638-1.584-1.209-1.586-1.962,0-1.015.845-1.718,2.081-1.872l-.118-1.2,1.093,0-.14,1.163a3.77,3.77,0,0,1,1.669.389l-.357.933a2.707,2.707,0,0,0-1.238-.258c-.6,0-1.034.274-1.034.737s.29.732,1.227,1.271c1.137.67,1.743,1.181,1.745,2.044C48.869,93.946,47.994,94.69,46.627,94.844Z" transform="translate(-43.866 -86.613)" fill="#29626b"/>
            </g>
          </g>
        </g>
      </g>
      <g id="Grupo_3271" data-name="Grupo 3271" transform="translate(150.714 7.985)">
        <path id="Trazado_6902" data-name="Trazado 6902" d="M39.514,64.534A10.052,10.052,0,1,0,29.669,74.79,10.053,10.053,0,0,0,39.514,64.534Z" transform="translate(-17.022 -52.073)" fill="#fff"/>
        <g id="Grupo_3266" data-name="Grupo 3266" transform="translate(2.391 2.616)">
          <path id="Trazado_6903" data-name="Trazado 6903" d="M21.833,65.553A10.051,10.051,0,0,1,31.675,55.3a9.929,9.929,0,0,1,1.549.124,10.035,10.035,0,1,0-5.106,19.245A10.046,10.046,0,0,1,21.833,65.553Z" transform="translate(-19.413 -54.689)" fill="#d66ede"/>
          <path id="Trazado_6904" data-name="Trazado 6904" d="M38.463,64.271a10.063,10.063,0,0,0-6.29-9.113,9.928,9.928,0,0,0-1.549-.124A10.051,10.051,0,0,0,27.068,74.4a9.759,9.759,0,0,0,1.55.124A10.055,10.055,0,0,0,38.463,64.271Z" transform="translate(-18.362 -54.425)" fill="#de98e5"/>
        </g>
        <g id="Grupo_3267" data-name="Grupo 3267" transform="translate(16.356 19.749)">
          <rect id="Rectángulo_1605" data-name="Rectángulo 1605" width="1.497" height="6.33" transform="translate(0 1.64) rotate(-33.201)" fill="#1f4b52"/>
          <rect id="Rectángulo_1606" data-name="Rectángulo 1606" width="1.498" height="6.33" transform="matrix(0.837, -0.547, 0.547, 0.837, 1.254, 0.819)" fill="#29626b"/>
        </g>
        <g id="Grupo_3268" data-name="Grupo 3268">
          <path id="Trazado_6905" data-name="Trazado 6905" d="M34.239,59.018A8.733,8.733,0,0,0,22.15,56.49L31.711,71.1A8.73,8.73,0,0,0,34.239,59.018Z" transform="translate(-14.92 -51.784)" fill="none"/>
          <path id="Trazado_6906" data-name="Trazado 6906" d="M21.34,67.956a8.731,8.731,0,0,0,12.087,2.526L23.866,55.871A8.734,8.734,0,0,0,21.34,67.956Z" transform="translate(-16.636 -51.165)" fill="none"/>
          <path id="Trazado_6907" data-name="Trazado 6907" d="M21.136,55.171l1.793,2.744a8.731,8.731,0,1,1,9.561,14.611l1.793,2.747a12.01,12.01,0,1,0-13.146-20.1Z" transform="translate(-15.699 -53.209)" fill="#29626b"/>
          <path id="Trazado_6908" data-name="Trazado 6908" d="M22.764,69.148A8.734,8.734,0,0,1,25.29,57.063L23.5,54.319a12.01,12.01,0,0,0,13.146,20.1l-1.793-2.747A8.731,8.731,0,0,1,22.764,69.148Z" transform="translate(-18.06 -52.357)" fill="#1f4b52"/>
        </g>
        <g id="Grupo_3269" data-name="Grupo 3269" transform="translate(17.688 23.184)">
          <rect id="Rectángulo_1607" data-name="Rectángulo 1607" width="3.408" height="16.719" transform="translate(0 3.734) rotate(-33.198)" fill="#1f4b52"/>
          <rect id="Rectángulo_1608" data-name="Rectángulo 1608" width="3.409" height="16.719" transform="matrix(0.837, -0.547, 0.547, 0.837, 2.857, 1.865)" fill="#29626b"/>
        </g>
        <g id="Grupo_3270" data-name="Grupo 3270" transform="translate(7.742 5.038)">
          <path id="Trazado_6909" data-name="Trazado 6909" d="M29.531,67.354l.967,1.554-1.524.718-.562-1.7a6.56,6.56,0,0,1-2.822.668l-.08-1.724a4.378,4.378,0,0,0,2.051-.453C28.469,66,28.851,65.3,28.6,64.764c-.324-.686-.951-.868-2.555-1.018-1.874-.173-2.89-.631-3.366-1.642-.642-1.361.055-2.839,1.619-3.824L23.39,56.75l1.467-.691.541,1.655a5.591,5.591,0,0,1,2.487-.527l.106,1.478a3.984,3.984,0,0,0-1.824.433c-.811.382-1.22,1.017-.928,1.635s.849.8,2.447.939c1.95.186,3.085.491,3.629,1.649C31.982,64.737,31.273,66.288,29.531,67.354Z" transform="translate(-22.44 -56.059)" fill="#1f4b52"/>
        </g>
      </g>
      <g id="Grupo_3275" data-name="Grupo 3275" transform="translate(114.663 59.48)">
        <g id="Grupo_3274" data-name="Grupo 3274" transform="translate(1.418)">
          <g id="Grupo_3272" data-name="Grupo 3272" transform="translate(13.208)">
            <path id="Trazado_6910" data-name="Trazado 6910" d="M80.978,55.539l.483-2.228c.334-1.543,3.458-15.1,10.259-15.1a6.2,6.2,0,0,1,3.507,1.2c2.07,1.421,2.365,3.023,2.249,4.116-.562,5.242-12.082,10.2-14.387,11.146ZM91.72,40.62c-3.385,0-6.046,6.6-7.3,10.849,4.667-2.185,10.4-5.652,10.666-8.194.025-.24.1-.969-1.218-1.877A3.857,3.857,0,0,0,91.72,40.62Z" transform="translate(-80.978 -38.216)" fill="#fff"/>
          </g>
          <g id="Grupo_3273" data-name="Grupo 3273">
            <path id="Trazado_6911" data-name="Trazado 6911" d="M90.028,55.539l-2.113-.861c-2.3-.942-13.825-5.9-14.387-11.146-.117-1.094.177-2.694,2.247-4.116a6.207,6.207,0,0,1,3.507-1.2c6.8,0,9.928,13.552,10.262,15.1ZM79.283,40.62a3.862,3.862,0,0,0-2.148.778c-1.321.909-1.243,1.637-1.218,1.877.26,2.429,5.822,5.921,10.669,8.194C85.331,47.216,82.672,40.62,79.283,40.62Z" transform="translate(-73.507 -38.216)" fill="#fff"/>
          </g>
        </g>
        <path id="Trazado_6912" data-name="Trazado 6912" d="M102.822,51.382V47.643H73.67V70.332a3.766,3.766,0,0,0,3.757,3.758H99.064a3.767,3.767,0,0,0,3.758-3.758V51.382Z" transform="translate(-71.963 -30.977)" fill="#5970e2"/>
        <rect id="Rectángulo_1609" data-name="Rectángulo 1609" width="29.149" height="1.417" transform="translate(1.71 19.398)" fill="#3f57aa"/>
        <rect id="Rectángulo_1610" data-name="Rectángulo 1610" width="32.565" height="5.466" transform="translate(0 13.933)" fill="#5970e2"/>
        <rect id="Rectángulo_1611" data-name="Rectángulo 1611" width="5.496" height="29.18" transform="translate(13.536 13.933)" fill="#fff"/>
        <rect id="Rectángulo_1612" data-name="Rectángulo 1612" width="5.496" height="23.714" transform="translate(13.536 19.398)" fill="#f5f5f5"/>
        <rect id="Rectángulo_1613" data-name="Rectángulo 1613" width="5.496" height="1.341" transform="translate(13.536 19.398)" fill="#d6d6d6"/>
      </g>
      <g id="Grupo_3278" data-name="Grupo 3278" transform="translate(187.912 69.799)">
        <g id="Grupo_3276" data-name="Grupo 3276">
          <path id="Trazado_6913" data-name="Trazado 6913" d="M118.516,66.9l26.459-9.665,4.066-9.675-33.209,11.83Z" transform="translate(-112.838 -41.358)" fill="#5970e2"/>
          <path id="Trazado_6914" data-name="Trazado 6914" d="M114.138,53.714l2.994,8.374,33.209-11.83-9.728-6.2Z" transform="translate(-114.138 -44.053)" fill="#798ce8"/>
        </g>
        <g id="Grupo_3277" data-name="Grupo 3277" transform="translate(6.19 5.194)">
          <path id="Trazado_6915" data-name="Trazado 6915" d="M121.235,52.108a2.786,2.786,0,0,0-.721-.17,1.357,1.357,0,0,0-.566.085.691.691,0,0,0-.373.293.47.47,0,0,0-.035.412.792.792,0,0,0,.269.361,2.047,2.047,0,0,0,.569.251,5.17,5.17,0,0,1,1.45.663,1.929,1.929,0,0,1,.7.884,2.123,2.123,0,0,1-.053,1.736,2.335,2.335,0,0,1-1.361,1.177,4.4,4.4,0,0,1-.82.237,5.493,5.493,0,0,1-.884.046l-.619-1.658a1.87,1.87,0,0,0,.788.279,1.7,1.7,0,0,0,.79-.078.691.691,0,0,0,.4-.348.637.637,0,0,0,.018-.516.976.976,0,0,0-.311-.433,2.051,2.051,0,0,0-.631-.293,5.246,5.246,0,0,1-1.4-.624,1.686,1.686,0,0,1-.663-.806,1.951,1.951,0,0,1,.067-1.632,2.3,2.3,0,0,1,1.314-1.114,4.209,4.209,0,0,1,.767-.2,3.407,3.407,0,0,1,.739-.064Z" transform="translate(-117.639 -44.227)" fill="#fff"/>
          <path id="Trazado_6916" data-name="Trazado 6916" d="M121.1,56l.175-4.906a6.16,6.16,0,0,0,0-.626,1.86,1.86,0,0,0-.035-.389l.721-.272.728-.269a2.232,2.232,0,0,0,.225.32c.129.156.265.309.415.47l3.343,3.594c.29.3.52.527.707.688a4.073,4.073,0,0,0,.536.408l-1.039.385-1.04.391a1.142,1.142,0,0,0-.129-.3,4.515,4.515,0,0,0-.3-.4l-.661-.773-2.072.774.042,1a2.865,2.865,0,0,0,.042.5,1.08,1.08,0,0,0,.1.309l-.994.371-.994.369a4.393,4.393,0,0,0,.145-.67C121.056,56.725,121.082,56.4,121.1,56Zm1.531-2.182,1.3-.483-1.363-1.6Z" transform="translate(-115.153 -45.038)" fill="#fff"/>
          <path id="Trazado_6917" data-name="Trazado 6917" d="M126.121,55.746a3.048,3.048,0,0,0-.055-.679,5.419,5.419,0,0,0-.226-.778l-1.411-3.78a4.978,4.978,0,0,0-.338-.741,2.977,2.977,0,0,0-.4-.544l1.087-.408,1.089-.4a3.131,3.131,0,0,0,.053.677,5.218,5.218,0,0,0,.233.78l1.487,3.988c.352-.163.656-.315.909-.461a5.092,5.092,0,0,0,1.151-.969l-.035,1-.039,1.009-1.552.58Z" transform="translate(-112.995 -45.901)" fill="#fff"/>
          <path id="Trazado_6918" data-name="Trazado 6918" d="M128.881,55.015a2.834,2.834,0,0,0-.053-.677,4.624,4.624,0,0,0-.232-.781l-1.409-3.778a4.692,4.692,0,0,0-.334-.737,3.01,3.01,0,0,0-.407-.548l1.948-.728,2.084-.774-.055.827-.057.833a3.206,3.206,0,0,0-.834.081c-.249.053-.484.111-.709.18l.553,1.481,1.939-.727-.126.863-.127.864a3.387,3.387,0,0,0-.806.069c-.154.027-.3.058-.446.1l.589,1.579a9.388,9.388,0,0,0,1.08-.543,5.2,5.2,0,0,0,1.158-.967l-.037,1-.039,1.006-1.733.647Z" transform="translate(-110.876 -46.991)" fill="#fff"/>
        </g>
      </g>
      <rect id="Rectángulo_1614" data-name="Rectángulo 1614" width="73.35" height="2.278" transform="translate(109.542 133.444)" fill="#798ce8"/>
    </g>
  </g>
</svg>
