<svg xmlns="http://www.w3.org/2000/svg" width="252.104" height="231.959" viewBox="0 0 252.104 231.959">
  <g id="Grupo_4767" data-name="Grupo 4767" transform="translate(-50.872 -120.879)">
    <g id="Grupo_3176" data-name="Grupo 3176" transform="translate(-47.109 -0.097)">
      <g id="Grupo_3154" data-name="Grupo 3154" transform="translate(123.835 134.768)">
        <g id="Grupo_3153" data-name="Grupo 3153">
          <g id="Grupo_3152" data-name="Grupo 3152">
            <g id="Grupo_3151" data-name="Grupo 3151">
              <g id="Grupo_3148" data-name="Grupo 3148" transform="translate(67.689 155.052)">
                <g id="Grupo_3146" data-name="Grupo 3146" transform="translate(4.764)">
                  <path id="Trazado_6700" data-name="Trazado 6700" d="M281.2,334.281H209.464l4.936-21.83h61.856Z" transform="translate(-209.464 -312.451)" fill="#e8e8e8"/>
                </g>
                <g id="Grupo_3147" data-name="Grupo 3147" transform="translate(0 21.83)">
                  <path id="Trazado_6701" data-name="Trazado 6701" d="M285.319,343.357H204.061l4.764-6.15h71.731Z" transform="translate(-204.061 -337.207)" fill="#d3d5db"/>
                  <path id="Trazado_6702" data-name="Trazado 6702" d="M285.319,343.357H204.061l4.764-6.15h71.731Z" transform="translate(-204.061 -337.207)" fill="#d3d5db"/>
                  <rect id="Rectángulo_1555" data-name="Rectángulo 1555" width="81.257" height="1.559" transform="translate(0 6.15)" fill="#fff"/>
                </g>
              </g>
              <g id="Grupo_3150" data-name="Grupo 3150">
                <g id="Grupo_3149" data-name="Grupo 3149">
                  <path id="Trazado_6703" data-name="Trazado 6703" d="M343.112,273.9V146.271a9.683,9.683,0,0,0-9.65-9.654H136.957a9.683,9.683,0,0,0-9.657,9.654V273.9Z" transform="translate(-127.3 -136.617)" fill="#0a1a27"/>
                  <rect id="Rectángulo_1556" data-name="Rectángulo 1556" width="196.662" height="118.122" transform="translate(9.817 8.53)" fill="#784eeb"/>
                  <path id="Trazado_6704" data-name="Trazado 6704" d="M127.3,290.1v10.625a9.686,9.686,0,0,0,9.657,9.661H333.463a9.685,9.685,0,0,0,9.65-9.661V290.1Z" transform="translate(-127.3 -154.757)" fill="#d3d5db"/>
                  <rect id="Rectángulo_1557" data-name="Rectángulo 1557" width="215.812" height="1.13" transform="translate(0 135.341)" fill="#fff"/>
                </g>
              </g>
            </g>
          </g>
        </g>
      </g>
      <g id="Grupo_3157" data-name="Grupo 3157" transform="translate(115.306 120.976)">
        <g id="Grupo_3155" data-name="Grupo 3155" transform="translate(0 4.817)">
          <path id="Trazado_6705" data-name="Trazado 6705" d="M127.431,126.438l-9.8,33.157h18.048l8.39-33.157Z" transform="translate(-117.628 -126.438)" fill="#5970e2"/>
          <path id="Trazado_6706" data-name="Trazado 6706" d="M146.485,126.438l-8.39,33.157h18.046l6.979-33.157Z" transform="translate(-120.047 -126.438)" fill="#e7e4e5"/>
          <path id="Trazado_6707" data-name="Trazado 6707" d="M165.539,126.438,158.567,159.6h18.047l5.559-33.157Z" transform="translate(-122.467 -126.438)" fill="#5970e2"/>
          <path id="Trazado_6708" data-name="Trazado 6708" d="M184.592,126.438,179.033,159.6h18.048l4.147-33.157Z" transform="translate(-124.885 -126.438)" fill="#e7e4e5"/>
          <path id="Trazado_6709" data-name="Trazado 6709" d="M203.647,126.438,199.5,159.6h18.053l2.727-33.157Z" transform="translate(-127.304 -126.438)" fill="#5970e2"/>
          <path id="Trazado_6710" data-name="Trazado 6710" d="M222.7,126.438,219.973,159.6h18.048l1.321-33.157Z" transform="translate(-129.724 -126.438)" fill="#e7e4e5"/>
          <path id="Trazado_6711" data-name="Trazado 6711" d="M241.76,126.438,240.439,159.6h18.047l-.1-33.157Z" transform="translate(-132.143 -126.438)" fill="#5970e2"/>
          <path id="Trazado_6712" data-name="Trazado 6712" d="M260.795,126.438l.1,33.157h18.047l-1.5-33.157Z" transform="translate(-134.549 -126.438)" fill="#e7e4e5"/>
          <path id="Trazado_6713" data-name="Trazado 6713" d="M279.667,126.438l1.5,33.157h18.054L296.3,126.438Z" transform="translate(-136.779 -126.438)" fill="#5970e2"/>
          <path id="Trazado_6714" data-name="Trazado 6714" d="M298.53,126.438l2.923,33.157H319.5l-4.336-33.157Z" transform="translate(-139.009 -126.438)" fill="#e7e4e5"/>
          <path id="Trazado_6715" data-name="Trazado 6715" d="M317.395,126.438,321.73,159.6h18.046l-5.747-33.157Z" transform="translate(-141.238 -126.438)" fill="#5970e2"/>
          <path id="Trazado_6716" data-name="Trazado 6716" d="M336.259,126.438l5.747,33.157H360.06L352.9,126.438Z" transform="translate(-143.468 -126.438)" fill="#e7e4e5"/>
          <path id="Trazado_6717" data-name="Trazado 6717" d="M355.132,126.438l7.159,33.157h18.048l-8.574-33.157Z" transform="translate(-145.699 -126.438)" fill="#5970e2"/>
        </g>
        <g id="Grupo_3156" data-name="Grupo 3156" transform="translate(0 37.974)">
          <path id="Trazado_6718" data-name="Trazado 6718" d="M117.628,164.04v.129a9.024,9.024,0,0,0,18.048,0v-.129Z" transform="translate(-117.628 -164.04)" fill="#798ce8"/>
          <path id="Trazado_6719" data-name="Trazado 6719" d="M138.109,164.04v.129a9.024,9.024,0,0,0,18.048,0v-.129Z" transform="translate(-120.049 -164.04)" fill="#fff"/>
          <path id="Trazado_6720" data-name="Trazado 6720" d="M158.59,164.04v.129a9.024,9.024,0,0,0,18.048,0v-.129Z" transform="translate(-122.469 -164.04)" fill="#798ce8"/>
          <path id="Trazado_6721" data-name="Trazado 6721" d="M179.073,164.04v.129a9.024,9.024,0,0,0,18.047,0v-.129Z" transform="translate(-124.89 -164.04)" fill="#fff"/>
          <path id="Trazado_6722" data-name="Trazado 6722" d="M199.556,164.04v.129a9.023,9.023,0,0,0,18.045,0v-.129Z" transform="translate(-127.311 -164.04)" fill="#798ce8"/>
          <path id="Trazado_6723" data-name="Trazado 6723" d="M220.037,164.04v.129a9.023,9.023,0,0,0,18.046,0v-.129Z" transform="translate(-129.732 -164.04)" fill="#fff"/>
          <path id="Trazado_6724" data-name="Trazado 6724" d="M240.519,164.04v.129a9.023,9.023,0,0,0,18.046,0v-.129Z" transform="translate(-132.153 -164.04)" fill="#798ce8"/>
          <path id="Trazado_6725" data-name="Trazado 6725" d="M261,164.04v.129a9.024,9.024,0,0,0,18.048,0v-.129Z" transform="translate(-134.573 -164.04)" fill="#fff"/>
          <path id="Trazado_6726" data-name="Trazado 6726" d="M281.482,164.04v.129a9.024,9.024,0,0,0,18.047,0v-.129Z" transform="translate(-136.994 -164.04)" fill="#798ce8"/>
          <path id="Trazado_6727" data-name="Trazado 6727" d="M301.964,164.04v.129a9.024,9.024,0,0,0,18.047,0v-.129Z" transform="translate(-139.415 -164.04)" fill="#fff"/>
          <path id="Trazado_6728" data-name="Trazado 6728" d="M322.445,164.04v.129a9.024,9.024,0,0,0,18.048,0v-.129Z" transform="translate(-141.836 -164.04)" fill="#798ce8"/>
          <path id="Trazado_6729" data-name="Trazado 6729" d="M342.927,164.04v.129a9.024,9.024,0,0,0,18.047,0v-.129Z" transform="translate(-144.256 -164.04)" fill="#fff"/>
          <path id="Trazado_6730" data-name="Trazado 6730" d="M363.408,164.04v.129a9.024,9.024,0,0,0,18.048,0v-.129Z" transform="translate(-146.677 -164.04)" fill="#798ce8"/>
        </g>
        <path id="Trazado_6731" data-name="Trazado 6731" d="M347.11,127.111a2.621,2.621,0,0,1-2.614,2.63H128.679a2.627,2.627,0,0,1-2.615-2.63v-3.5a2.625,2.625,0,0,1,2.615-2.63H344.5a2.619,2.619,0,0,1,2.614,2.63Z" transform="translate(-118.625 -120.976)" fill="#798ce8"/>
      </g>
      <g id="Grupo_3162" data-name="Grupo 3162" transform="translate(289.123 259.729)">
        <g id="Grupo_3159" data-name="Grupo 3159" transform="translate(0)">
          <path id="Trazado_6732" data-name="Trazado 6732" d="M343.489,286.9l-10.065-2.467a2.018,2.018,0,0,0-1.824.582l-7.529,8.69a2.019,2.019,0,0,0-.315,1.89l3.875,9.608a5.5,5.5,0,0,0,1.268,1.776l20.138,17.447a1.123,1.123,0,0,0,1.581-.114l15.06-17.383a1.123,1.123,0,0,0-.113-1.581L345.428,287.9A5.512,5.512,0,0,0,343.489,286.9Zm-10.512,6.912a2.384,2.384,0,1,1-.241-3.361A2.382,2.382,0,0,1,332.977,293.813Z" transform="translate(-315.795 -279.044)" fill="#d66ede"/>
          <path id="Trazado_6733" data-name="Trazado 6733" d="M324.072,293.706a2.019,2.019,0,0,0-.315,1.89l1.282,3.179,4.146,1.015a2.017,2.017,0,0,0,1.824-.581l7.53-8.69a2.023,2.023,0,0,0,.315-1.89l-1.281-3.179-4.148-1.016a2.018,2.018,0,0,0-1.824.582Zm8.665-3.255a2.384,2.384,0,1,1-3.363.241A2.383,2.383,0,0,1,332.737,290.451Z" transform="translate(-315.795 -279.044)" fill="#0a1a27"/>
          <g id="Grupo_3158" data-name="Grupo 3158">
            <path id="Trazado_6734" data-name="Trazado 6734" d="M314.917,278.569a.7.7,0,0,1,1.23.481c-.085,2.8,1.317,4.08,4.842,4.421,5.12.5,7.834,3.972,10,7.652a.7.7,0,0,1-1.208.713c-2.29-3.886-4.686-6.559-8.93-6.969-2.691-.262-6.252-1.152-6.108-5.859A.7.7,0,0,1,314.917,278.569Z" transform="translate(-314.742 -278.327)" fill="#d66ede"/>
          </g>
        </g>
        <g id="Grupo_3160" data-name="Grupo 3160" transform="translate(20.288 15.164)">
          <path id="Trazado_6735" data-name="Trazado 6735" d="M337.75,310.887a9.981,9.981,0,0,1,1.1-1.534,3.238,3.238,0,0,1,1.662-1.216,1.58,1.58,0,0,1,1.533.349,1.7,1.7,0,0,1,.448,1.924l.024.02a1.838,1.838,0,0,1,2.307.107,2.025,2.025,0,0,1,.732,1.505,3.855,3.855,0,0,1-1.189,2.434,12.052,12.052,0,0,1-1.1,1.133Zm5.616,3.132a3.67,3.67,0,0,0,.467-.492c.537-.627.777-1.4.086-1.989-.658-.563-1.393-.244-1.97.43l-.414.482Zm-2.573-2.2.429-.5c.584-.682.57-1.339.1-1.748-.534-.457-1.1-.283-1.631.337a3.238,3.238,0,0,0-.433.591Z" transform="translate(-337.75 -297.005)" fill="#fff"/>
          <path id="Trazado_6736" data-name="Trazado 6736" d="M342.915,304.481l3.274,2.8c1.1.942,1.981.942,2.545.282.6-.7.457-1.56-.643-2.5l-3.273-2.8.835-.977,3.207,2.748c1.731,1.482,1.771,2.988.671,4.272-1.06,1.237-2.47,1.418-4.235-.094l-3.216-2.754Z" transform="translate(-338.262 -296.204)" fill="#fff"/>
          <path id="Trazado_6737" data-name="Trazado 6737" d="M353.814,303.084l-2.34-2.005-4.721-1.114.958-1.118,1.984.6c.572.174,1.005.31,1.517.488l.013-.016c-.249-.434-.47-.884-.721-1.416l-.891-1.876.944-1.1,1.727,4.558,2.366,2.026Z" transform="translate(-338.814 -295.523)" fill="#fff"/>
        </g>
        <g id="Grupo_3161" data-name="Grupo 3161" transform="translate(27.203 21.152)">
          <path id="Trazado_6738" data-name="Trazado 6738" d="M350.124,321.464l-4.533-3.88.773-.9,2.9.549a17.988,17.988,0,0,1,2.151.564l.011-.013c-.654-.46-1.251-.949-1.944-1.541l-1.58-1.354.626-.731,4.533,3.883-.7.819-2.964-.582a21.3,21.3,0,0,1-2.218-.566l-.016.031c.614.468,1.222.967,1.969,1.607l1.621,1.388Z" transform="translate(-345.591 -303.714)" fill="#fff"/>
          <path id="Trazado_6739" data-name="Trazado 6739" d="M355.418,310.818c1.52,1.3,1.636,2.922.62,4.107-1.048,1.225-2.689,1.153-4.014.017-1.4-1.2-1.66-2.877-.618-4.1C352.482,309.591,354.12,309.707,355.418,310.818Zm-2.7,3.276c.928.794,2.039.98,2.686.223s.274-1.831-.673-2.644c-.854-.732-2.007-1.019-2.682-.23S351.783,313.292,352.719,314.094Z" transform="translate(-346.203 -303.216)" fill="#fff"/>
          <path id="Trazado_6740" data-name="Trazado 6740" d="M359.253,310.54l-5.437-2.823.718-.841,2.409,1.353c.645.363,1.311.756,1.823,1.071l.011-.011c-.417-.479-.851-1.063-1.318-1.675l-1.651-2.223.708-.827,2.451,1.357c.627.357,1.212.693,1.758,1.049l.012-.012c-.432-.5-.862-1.048-1.322-1.643l-1.66-2.2.687-.8,3.533,5.047-.72.839-2.515-1.376c-.612-.336-1.108-.627-1.648-.988l-.01.011c.422.486.788.943,1.2,1.514l1.7,2.327Z" transform="translate(-346.563 -302.314)" fill="#fff"/>
        </g>
      </g>
      <g id="Grupo_3163" data-name="Grupo 3163" transform="translate(188.696 183.748)">
        <rect id="Rectángulo_1558" data-name="Rectángulo 1558" width="107.506" height="18.611" rx="3.369" transform="translate(0)" fill="#e8eaef"/>
        <rect id="Rectángulo_1559" data-name="Rectángulo 1559" width="51.91" height="18.611" rx="3.369" transform="translate(55.597 24.512)" fill="#e8eaef"/>
        <text id="CVV2" transform="translate(62.424 22.422)" font-size="17" font-family="BalooTamma2-Medium, 'Baloo Tamma \32 '" font-weight="500"><tspan x="0.41" y="18">CVV2</tspan></text>
      </g>
      <g id="Grupo_3175" data-name="Grupo 3175" transform="translate(97.981 180.739)">
        <g id="Grupo_3167" data-name="Grupo 3167">
          <g id="Grupo_3166" data-name="Grupo 3166">
            <path id="Rectángulo_1560" data-name="Rectángulo 1560" d="M12.916,0h56.3A12.914,12.914,0,0,1,82.131,12.914V159.281A12.915,12.915,0,0,1,69.215,172.2h-56.3A12.915,12.915,0,0,1,0,159.281V12.916A12.916,12.916,0,0,1,12.916,0Z" fill="#b3b4b7"/>
            <rect id="Rectángulo_1561" data-name="Rectángulo 1561" width="80.058" height="170.126" rx="11.741" transform="translate(1.036 1.035)" fill="#d3d5db"/>
            <rect id="Rectángulo_1562" data-name="Rectángulo 1562" width="74.159" height="126.372" transform="translate(4.144 24.047)" fill="#798ce8"/>
            <g id="Grupo_3164" data-name="Grupo 3164" transform="translate(33.479 153.994)">
              <path id="Trazado_6741" data-name="Trazado 6741" d="M151.126,407.239a7.589,7.589,0,1,1-7.589-7.59A7.59,7.59,0,0,1,151.126,407.239Z" transform="translate(-135.947 -399.649)" fill="#b3b4b7"/>
              <path id="Trazado_6742" data-name="Trazado 6742" d="M150.142,407.391a6.453,6.453,0,1,1-6.453-6.453A6.452,6.452,0,0,1,150.142,407.391Z" transform="translate(-136.099 -399.801)" fill="#b3b4b7"/>
            </g>
            <g id="Grupo_3165" data-name="Grupo 3165" transform="translate(32.78 12.678)">
              <path id="Trazado_6743" data-name="Trazado 6743" d="M152.073,240.817a1.476,1.476,0,0,1-1.527,1.421H136.679a1.475,1.475,0,0,1-1.524-1.421h0a1.476,1.476,0,0,1,1.524-1.425h13.867a1.478,1.478,0,0,1,1.527,1.425Z" transform="translate(-135.155 -239.392)" fill="#b3b4b7"/>
              <path id="Trazado_6744" data-name="Trazado 6744" d="M136.753,241.791a.907.907,0,1,1,0-1.81H150.62a.908.908,0,1,1,0,1.81Z" transform="translate(-135.229 -239.462)" fill="#b3b4b7"/>
            </g>
          </g>
          <rect id="Rectángulo_1563" data-name="Rectángulo 1563" width="74.159" height="7.187" transform="translate(4.144 24.047)" fill="#4f4f4f"/>
          <rect id="Rectángulo_1564" data-name="Rectángulo 1564" width="39.9" height="14.306" rx="3.369" transform="translate(22.141 78.945)" fill="#e8eaef"/>
          <text id="CVV2-2" data-name="CVV2" transform="translate(27.389 77.194)" font-size="13.067" font-family="BalooTamma2-Medium, 'Baloo Tamma \32 '" font-weight="500"><tspan x="0.315" y="14">CVV2</tspan></text>
        </g>
        <g id="Grupo_3174" data-name="Grupo 3174" transform="translate(6.653 26.304)">
          <g id="Grupo_3173" data-name="Grupo 3173">
            <g id="Grupo_3168" data-name="Grupo 3168" transform="translate(0 1.103)">
              <path id="Trazado_6745" data-name="Trazado 6745" d="M106.71,256.689a.592.592,0,1,1-.592-.593A.592.592,0,0,1,106.71,256.689Z" transform="translate(-105.526 -256.096)" fill="#fff"/>
              <path id="Trazado_6746" data-name="Trazado 6746" d="M109.04,256.689a.592.592,0,1,1-.592-.593A.591.591,0,0,1,109.04,256.689Z" transform="translate(-105.801 -256.096)" fill="#fff"/>
              <path id="Trazado_6747" data-name="Trazado 6747" d="M111.253,256.689a.592.592,0,1,1-.593-.593A.591.591,0,0,1,111.253,256.689Z" transform="translate(-106.063 -256.096)" fill="#fff"/>
              <path id="Trazado_6748" data-name="Trazado 6748" d="M113.5,256.689a.592.592,0,1,1-.593-.593A.591.591,0,0,1,113.5,256.689Z" transform="translate(-106.329 -256.096)" fill="#fff"/>
              <path id="Trazado_6749" data-name="Trazado 6749" d="M115.717,256.689a.593.593,0,1,1-.593-.593A.592.592,0,0,1,115.717,256.689Z" transform="translate(-106.59 -256.096)" fill="#fff"/>
            </g>
            <g id="Grupo_3170" data-name="Grupo 3170" transform="translate(63.748 0.114)">
              <g id="Grupo_3169" data-name="Grupo 3169">
                <path id="Trazado_6750" data-name="Trazado 6750" d="M182.768,257.421h-4.95v-2.447h4.95Zm-4.626-.325h4.3v-1.8h-4.3Z" transform="translate(-177.818 -254.974)" fill="#fff"/>
              </g>
              <rect id="Rectángulo_1565" data-name="Rectángulo 1565" width="0.584" height="1.143" transform="translate(4.787 0.645)" fill="#fff"/>
              <rect id="Rectángulo_1566" data-name="Rectángulo 1566" width="2.795" height="1.407" transform="translate(0.476 0.503)" fill="#fff"/>
            </g>
            <g id="Grupo_3171" data-name="Grupo 3171" transform="translate(12.496)">
              <path id="Trazado_6751" data-name="Trazado 6751" d="M122.111,258.125a.317.317,0,1,1,.008-.448A.316.316,0,0,1,122.111,258.125Z" transform="translate(-119.919 -255.168)" fill="#fff"/>
              <path id="Trazado_6752" data-name="Trazado 6752" d="M122.442,257.175l.227-.215a1.19,1.19,0,0,0-1.678-.032c-.024.025-.049.053-.071.079l.217.226a.871.871,0,0,1,1.306-.058Z" transform="translate(-119.841 -255.052)" fill="#fff"/>
              <path id="Trazado_6753" data-name="Trazado 6753" d="M122.894,256.582l.224-.217a1.906,1.906,0,0,0-2.689-.05c-.026.025-.051.052-.075.079l.215.224c.023-.026.048-.053.076-.079A1.6,1.6,0,0,1,122.894,256.582Z" transform="translate(-119.775 -254.956)" fill="#fff"/>
              <path id="Trazado_6754" data-name="Trazado 6754" d="M123.412,255.9l.224-.215a2.733,2.733,0,0,0-3.861-.075c-.026.025-.049.051-.078.078l.218.225q.037-.04.077-.077A2.42,2.42,0,0,1,123.412,255.9Z" transform="translate(-119.697 -254.845)" fill="#fff"/>
            </g>
            <g id="Grupo_3172" data-name="Grupo 3172" transform="translate(31.297 0.194)">
              <path id="Trazado_6755" data-name="Trazado 6755" d="M141.973,257.311h-.318v-1.75a1.7,1.7,0,0,1-.3.19,2.376,2.376,0,0,1-.334.142v-.265a2.008,2.008,0,0,0,.466-.263,1.065,1.065,0,0,0,.282-.3h.206Z" transform="translate(-141.018 -255.065)" fill="#fff"/>
              <path id="Trazado_6756" data-name="Trazado 6756" d="M144.691,257.047v.264h-1.712a.444.444,0,0,1,.036-.19,1.01,1.01,0,0,1,.21-.3,3.217,3.217,0,0,1,.416-.339,3.28,3.28,0,0,0,.571-.474.528.528,0,0,0,.148-.33.34.34,0,0,0-.136-.275.529.529,0,0,0-.351-.113.541.541,0,0,0-.368.12.411.411,0,0,0-.14.33l-.328-.029a.651.651,0,0,1,.254-.481.95.95,0,0,1,.587-.166.9.9,0,0,1,.591.178.552.552,0,0,1,.219.443.6.6,0,0,1-.064.265,1.04,1.04,0,0,1-.211.273,5.033,5.033,0,0,1-.491.393c-.19.139-.314.234-.369.281a1.011,1.011,0,0,0-.133.15Z" transform="translate(-141.25 -255.065)" fill="#fff"/>
              <path id="Trazado_6757" data-name="Trazado 6757" d="M145.508,256.087v-.313h.362v.313Zm0,1.308v-.312h.362v.312Z" transform="translate(-141.549 -255.149)" fill="#fff"/>
              <path id="Trazado_6758" data-name="Trazado 6758" d="M146.449,256.209a1.78,1.78,0,0,1,.094-.64.746.746,0,0,1,.751-.5.87.87,0,0,1,.365.071.7.7,0,0,1,.262.21,1.054,1.054,0,0,1,.159.333,1.914,1.914,0,0,1,.059.529,1.764,1.764,0,0,1-.1.635.78.78,0,0,1-.28.375.8.8,0,0,1-.47.13.761.761,0,0,1-.589-.231A1.325,1.325,0,0,1,146.449,256.209Zm.328,0a1.239,1.239,0,0,0,.148.732.463.463,0,0,0,.737,0,1.887,1.887,0,0,0,0-1.466.46.46,0,0,0-.372-.183.427.427,0,0,0-.349.161A1.257,1.257,0,0,0,146.777,256.209Z" transform="translate(-141.66 -255.065)" fill="#fff"/>
              <path id="Trazado_6759" data-name="Trazado 6759" d="M148.734,256.209a1.8,1.8,0,0,1,.094-.64.777.777,0,0,1,.281-.372.792.792,0,0,1,.468-.131.887.887,0,0,1,.367.071.672.672,0,0,1,.259.21,1.076,1.076,0,0,1,.161.333,1.886,1.886,0,0,1,.058.529,1.768,1.768,0,0,1-.093.635.816.816,0,0,1-.28.375.8.8,0,0,1-.472.13.76.76,0,0,1-.588-.231A1.33,1.33,0,0,1,148.734,256.209Zm.326,0a1.244,1.244,0,0,0,.149.732.463.463,0,0,0,.737,0,1.866,1.866,0,0,0,0-1.466.461.461,0,0,0-.371-.183.427.427,0,0,0-.351.161A1.257,1.257,0,0,0,149.06,256.209Z" transform="translate(-141.93 -255.065)" fill="#fff"/>
            </g>
          </g>
        </g>
        <path id="Trazado_6760" data-name="Trazado 6760" d="M180.112,236.4a11.4,11.4,0,0,0-11.389-11.388H109.37A11.4,11.4,0,0,0,97.981,236.4v87.249Z" transform="translate(-97.981 -225.015)" fill="#fff" opacity="0.23"/>
      </g>
    </g>
  </g>
</svg>
