<svg xmlns="http://www.w3.org/2000/svg" xmlns:xlink="http://www.w3.org/1999/xlink" width="190.568" height="37.332" viewBox="0 0 190.568 37.332">
  <defs>
    <clipPath id="clip-path">
      <path id="Trazado_5669" data-name="Trazado 5669" d="M94.843,91.825a16.7,16.7,0,1,0,10.94-4.088,16.7,16.7,0,0,0-10.94,4.088" transform="translate(-89.089 -87.737)" fill="none"/>
    </clipPath>
  </defs>
  <g id="Grupo_2656" data-name="Grupo 2656" transform="translate(-86.18 -84.705)">
    <g id="Grupo_1833" data-name="Grupo 1833" transform="translate(86.18 84.705)">
      <path id="Trazado_5608" data-name="Trazado 5608" d="M92.611,89.275a18.666,18.666,0,1,0,26.332,1.86,18.666,18.666,0,0,0-26.332-1.86" transform="translate(-86.18 -84.705)" fill="#47327a"/>
      <g id="Grupo_1832" data-name="Grupo 1832" transform="translate(1.966 2.049)">
        <g id="Grupo_1831" data-name="Grupo 1831" clip-path="url(#clip-path)">
          <path id="Trazado_5609" data-name="Trazado 5609" d="M106.473,84.132a2.054,2.054,0,0,0,.337-1.737.926.926,0,0,0-.235.3,2.24,2.24,0,0,0-.187,1.393,3.564,3.564,0,0,1-.6-1.589,1.893,1.893,0,0,1,1.307-1.862,2.087,2.087,0,0,1,.7,1.6,1.952,1.952,0,0,1-.5,1.112,4.172,4.172,0,0,1-.829.781" transform="translate(-94.504 -85.434)" fill="#ee8500" fill-rule="evenodd"/>
          <path id="Trazado_5610" data-name="Trazado 5610" d="M119.555,80.635a2,2,0,0,1,1.268,1.4,3.078,3.078,0,0,1-.555,2.051,1.982,1.982,0,0,0-.432-1.7,2.083,2.083,0,0,0,.33,1.743,4.8,4.8,0,0,1-.86-.814,1.939,1.939,0,0,1-.47-1.2,1.759,1.759,0,0,1,.234-.846,2.444,2.444,0,0,1,.486-.633" transform="translate(-98.734 -85.434)" fill="#ee8500" fill-rule="evenodd"/>
          <path id="Trazado_5611" data-name="Trazado 5611" d="M100.84,85.651a1.52,1.52,0,0,0-.923-.993,1.459,1.459,0,0,0,.845,1.018c-.863-.066-1.625-.352-1.808-1.143a1.96,1.96,0,0,1,.015-.86c1.388-.171,1.866.74,1.87,1.979" transform="translate(-92.275 -86.412)" fill="#ee8500" fill-rule="evenodd"/>
          <path id="Trazado_5612" data-name="Trazado 5612" d="M127.726,83.67c.3,1.355-.631,1.939-1.792,2.009a1.517,1.517,0,0,0,.846-1.016,1.44,1.44,0,0,0-.916.978c-.039-1.208.513-2.161,1.862-1.971" transform="translate(-101.013 -86.411)" fill="#ee8500" fill-rule="evenodd"/>
          <path id="Trazado_5613" data-name="Trazado 5613" d="M117.4,84.919a2.561,2.561,0,0,1,1.62,1.87,2.941,2.941,0,0,1-.211,1.472,6.678,6.678,0,0,1-.588,1.158,2.613,2.613,0,0,0-.391-2.253,2.564,2.564,0,0,0,.258,2.223,5.077,5.077,0,0,1-1.057-1.041,2.467,2.467,0,0,1-.579-1.512,2.251,2.251,0,0,1,.315-1.1,3.36,3.36,0,0,1,.633-.815" transform="translate(-97.96 -86.823)" fill="#ee8500" fill-rule="evenodd"/>
          <path id="Trazado_5614" data-name="Trazado 5614" d="M113.319,86.067a3.546,3.546,0,0,1,.272,1.424,2.062,2.062,0,0,1-.477,1.235A4.428,4.428,0,0,1,110.9,89.94c-.008-.021.024-.034.032-.039a2.551,2.551,0,0,0,1.189-1.886,2.52,2.52,0,0,0-1.322,1.823,4.08,4.08,0,0,1,.289-2.677,2.565,2.565,0,0,1,2.231-1.094" transform="translate(-96.097 -87.196)" fill="#ee8500" fill-rule="evenodd"/>
          <path id="Trazado_5615" data-name="Trazado 5615" d="M94.513,86.331A1.472,1.472,0,0,1,95.75,87.9a3.513,3.513,0,0,1-.267,1.033,1.572,1.572,0,0,0-.485-1.3,1.566,1.566,0,0,0,.391,1.307c-.526-.3-1.272-.749-1.267-1.571a1.834,1.834,0,0,1,.391-1.043" transform="translate(-90.721 -87.281)" fill="#ee8500" fill-rule="evenodd"/>
          <path id="Trazado_5616" data-name="Trazado 5616" d="M97.807,86.576c1.937.244,3.23,1.293,3.208,3.45a8.338,8.338,0,0,1-.274,1.926,3.394,3.394,0,0,0-1.448-2.7,3.451,3.451,0,0,0,1.268,2.731A5.787,5.787,0,0,1,97.8,90.159a2.748,2.748,0,0,1-.516-1.776,4.572,4.572,0,0,1,.508-1.784c.007-.007,0-.021.016-.023" transform="translate(-91.745 -87.361)" fill="#ee8500" fill-rule="evenodd"/>
          <path id="Trazado_5617" data-name="Trazado 5617" d="M128.013,86.576a4.365,4.365,0,0,1,.533,1.777,2.827,2.827,0,0,1-.5,1.792,5.82,5.82,0,0,1-2.771,1.837c-.014-.034.033-.041.047-.053a4.536,4.536,0,0,0,.83-1.057,2.714,2.714,0,0,0,.375-1.612,3.365,3.365,0,0,0-1.439,2.683,5.471,5.471,0,0,1,.117-3.732,3.485,3.485,0,0,1,2.778-1.629c.014,0,.018-.007.03-.007" transform="translate(-100.675 -87.361)" fill="#ee8500" fill-rule="evenodd"/>
          <path id="Trazado_5618" data-name="Trazado 5618" d="M134.049,89.853a6.4,6.4,0,0,1,.336,2.581,3.711,3.711,0,0,1-.922,2.058,7.638,7.638,0,0,1-4.023,1.964c-.009-.026.046-.045.078-.07a4.445,4.445,0,0,0,2.073-3.288,4.461,4.461,0,0,0-2.379,3.288,7.433,7.433,0,0,1,.689-4.7,4.09,4.09,0,0,1,3.177-1.784,7.282,7.282,0,0,1,.971-.055" transform="translate(-102.069 -88.423)" fill="#ee8500" fill-rule="evenodd"/>
          <path id="Trazado_5619" data-name="Trazado 5619" d="M105.6,89.923h.016a3.214,3.214,0,0,1,.876,2.089,2.142,2.142,0,0,1-.172.813,4.932,4.932,0,0,1-1.9,2.042,2.963,2.963,0,0,0,.618-2.456,2.743,2.743,0,0,0-.751,2.378,4.421,4.421,0,0,1-.626-2.974,2.9,2.9,0,0,1,1.94-1.893" transform="translate(-93.789 -88.446)" fill="#ee8500" fill-rule="evenodd"/>
          <path id="Trazado_5620" data-name="Trazado 5620" d="M89.25,95.139a1.884,1.884,0,0,1,1.443.951,2.983,2.983,0,0,1-.051,2,1.848,1.848,0,0,0-.685-1.476,1.842,1.842,0,0,0,.574,1.489,3.049,3.049,0,0,1-1.407-1.061,1.521,1.521,0,0,1-.214-.972,2.455,2.455,0,0,1,.339-.929" transform="translate(-89.028 -90.137)" fill="#ee8500" fill-rule="evenodd"/>
          <path id="Trazado_5621" data-name="Trazado 5621" d="M137.544,97.34c-.01-.031.032-.045.049-.061a1.9,1.9,0,0,0,.555-1.512,1.867,1.867,0,0,0-.72,1.565,3.074,3.074,0,0,1-.07-2.1,1.9,1.9,0,0,1,1.495-1.035c.007,0,.023-.011.031-.008.061.034.089.14.125.213a2.481,2.481,0,0,1,.243.742,1.678,1.678,0,0,1-.211,1.057,3.314,3.314,0,0,1-1.5,1.135" transform="translate(-104.689 -89.83)" fill="#ee8500" fill-rule="evenodd"/>
          <path id="Trazado_5622" data-name="Trazado 5622" d="M100.319,95.528h.016a3.506,3.506,0,0,1,2.356,2.237,3.962,3.962,0,0,1-.078,2.012,9.244,9.244,0,0,1-.658,1.636,3.434,3.434,0,0,0-.79-2.951,2.681,2.681,0,0,0-.134.807,4.025,4.025,0,0,0,.744,2.136,7.762,7.762,0,0,1-1.6-1.354,3.2,3.2,0,0,1-.885-2.067,3.922,3.922,0,0,1,1.033-2.456" transform="translate(-92.395 -90.263)" fill="#ee8500" fill-rule="evenodd"/>
          <path id="Trazado_5623" data-name="Trazado 5623" d="M107.025,96.21a3.616,3.616,0,0,1,1.3,2.034,3.187,3.187,0,0,1-.751,2.489,7.747,7.747,0,0,1-.994,1.088c-.016.014-.035.047-.063.039a4.107,4.107,0,0,0,.462-1.307,2.689,2.689,0,0,0-.172-1.51,3.13,3.13,0,0,0-.439,2.747c-.014.018-.037-.031-.054-.055a7.086,7.086,0,0,1-.751-1.274,3.577,3.577,0,0,1-.384-1.745,2.768,2.768,0,0,1,1.181-2.058,3.629,3.629,0,0,1,.666-.447" transform="translate(-94.304 -90.484)" fill="#ee8500" fill-rule="evenodd"/>
          <path id="Trazado_5624" data-name="Trazado 5624" d="M90.783,98.965c1.868-.043,2.94.839,3.177,2.5a6.574,6.574,0,0,1,.024,1.706,2.95,2.95,0,0,0-1.581-2.114,3,3,0,0,0,1.424,2.169c-1.532-.347-3.042-.937-3.248-2.591a3.908,3.908,0,0,1,.2-1.643c0-.011,0-.023.008-.024" transform="translate(-89.565 -91.377)" fill="#ee8500" fill-rule="evenodd"/>
          <path id="Trazado_5625" data-name="Trazado 5625" d="M135.176,98.965a4.144,4.144,0,0,1,.195,1.636,2.319,2.319,0,0,1-.6,1.354,4.878,4.878,0,0,1-2.644,1.268c-.016-.018.072-.06.11-.086a2.89,2.89,0,0,0,1.314-2.075,2.887,2.887,0,0,0-1.58,2.114,4.871,4.871,0,0,1,.453-2.99,2.914,2.914,0,0,1,2.755-1.22" transform="translate(-102.978 -91.377)" fill="#ee8500" fill-rule="evenodd"/>
          <path id="Trazado_5626" data-name="Trazado 5626" d="M141.068,99.826a2.374,2.374,0,0,1-1.135,1.879,3.549,3.549,0,0,1-2.489.03,2.242,2.242,0,0,0,1.754-1.008,2.07,2.07,0,0,0-1.512.586c-.1.093-.2.2-.305.3,0,0-.009.051-.03.025a5.265,5.265,0,0,1,.791-1.41,2.025,2.025,0,0,1,1.44-.783,2.833,2.833,0,0,1,1.487.375" transform="translate(-104.738 -91.534)" fill="#ee8500" fill-rule="evenodd"/>
          <path id="Trazado_5627" data-name="Trazado 5627" d="M98.355,102.906a1.821,1.821,0,0,0-1.056-1.19,1.735,1.735,0,0,0,.97,1.236c-.988-.114-1.9-.449-2.1-1.385a2.431,2.431,0,0,1,.039-1.033.538.538,0,0,1,.118-.008c1.541-.089,2.066.926,2.034,2.38" transform="translate(-91.371 -91.882)" fill="#ee8500" fill-rule="evenodd"/>
          <path id="Trazado_5628" data-name="Trazado 5628" d="M130.342,100.531a3.185,3.185,0,0,1,.078.619c.014,1.239-1.011,1.662-2.143,1.807a1.843,1.843,0,0,0,.977-1.244,1.77,1.77,0,0,0-1.065,1.2c-.034-1.335.411-2.312,1.629-2.4a3.465,3.465,0,0,1,.524.016" transform="translate(-101.767 -91.879)" fill="#ee8500" fill-rule="evenodd"/>
          <path id="Trazado_5629" data-name="Trazado 5629" d="M116.262,101.154a1.582,1.582,0,0,1,1.088,1.425,2.928,2.928,0,0,1-.486,1.416,1.633,1.633,0,0,0-.36-1.393,1.731,1.731,0,0,0,.274,1.44,3.838,3.838,0,0,1-.735-.7,1.567,1.567,0,0,1-.36-1.063,1.891,1.891,0,0,1,.579-1.12" transform="translate(-97.711 -92.087)" fill="#ee8500" fill-rule="evenodd"/>
          <path id="Trazado_5630" data-name="Trazado 5630" d="M110.272,102.706c.007,0,.007.008.016.008a2.981,2.981,0,0,1,.274,1.033,1.606,1.606,0,0,1-.313,1.018,3.454,3.454,0,0,1-1.627,1.033c-.022-.018.039-.042.062-.061a1.947,1.947,0,0,0,.774-1.47,1.87,1.87,0,0,0-.915,1.454,2.986,2.986,0,0,1,.1-2.1,1.992,1.992,0,0,1,1.627-.916" transform="translate(-95.352 -92.591)" fill="#ee8500" fill-rule="evenodd"/>
          <path id="Trazado_5631" data-name="Trazado 5631" d="M90.855,106.172a5.8,5.8,0,0,0-1.987-.376,3.607,3.607,0,0,0-1.855.51,3.529,3.529,0,0,0,1.862.532,5.7,5.7,0,0,0,2.011-.36c.007.028-.044.057-.078.086a11.025,11.025,0,0,1-1.683,1.229,5.341,5.341,0,0,1-2.316.767,3.644,3.644,0,0,1-2.372-.689,6.794,6.794,0,0,1-1.526-1.573,4.193,4.193,0,0,1,6.05-1.534,10.817,10.817,0,0,1,1.815,1.315c.03.026.084.063.078.094" transform="translate(-87.086 -93.027)" fill="#ee8500" fill-rule="evenodd"/>
          <path id="Trazado_5632" data-name="Trazado 5632" d="M140.876,106.29a6.622,6.622,0,0,1-1.527,1.581,3.607,3.607,0,0,1-2.378.689,6.075,6.075,0,0,1-3.24-1.393,8.458,8.458,0,0,1-.807-.649c-.007-.007-.043-.018-.023-.039a5.708,5.708,0,0,0,2.012.36,3.667,3.667,0,0,0,1.862-.524,3.5,3.5,0,0,0-1.854-.518,5.9,5.9,0,0,0-2,.376c-.011-.023.026-.032.032-.039a9.719,9.719,0,0,1,1.731-1.291,5.136,5.136,0,0,1,2.362-.784,3.707,3.707,0,0,1,2.308.7,6.758,6.758,0,0,1,1.518,1.535" transform="translate(-103.293 -93.028)" fill="#ee8500" fill-rule="evenodd"/>
          <path id="Trazado_5633" data-name="Trazado 5633" d="M104.514,104.118c1.184-.06,1.632.771,1.526,1.933a1.4,1.4,0,0,0-.8-.924,1.36,1.36,0,0,0,.751.979c-.767-.13-1.541-.455-1.588-1.308a1.923,1.923,0,0,1,.093-.657.022.022,0,0,1,.016-.024" transform="translate(-94.054 -93.047)" fill="#ee8500" fill-rule="evenodd"/>
          <path id="Trazado_5634" data-name="Trazado 5634" d="M122.723,104.118a1.873,1.873,0,0,1,.084.807c-.11.768-.837,1.042-1.571,1.189a1.412,1.412,0,0,0,.75-.978,1.3,1.3,0,0,0-.789.924c-.13-1.062.265-1.883,1.3-1.933a1.669,1.669,0,0,1,.227-.008" transform="translate(-99.493 -93.048)" fill="#ee8500" fill-rule="evenodd"/>
          <path id="Trazado_5635" data-name="Trazado 5635" d="M109.272,129.52c.087-1.32.095-2.705.156-4.047.043-.9.078-1.817.088-2.77.014-1.425.078-2.835.078-4.312,0-1,.036-1.984-.008-2.989-.021-.5-.021-.982-.064-1.448a4.5,4.5,0,0,1,0-.72c.02-.214.089-.419.119-.633.03-.239.03-.484.047-.713a2.647,2.647,0,0,1,.117-.633c.174-.542.689-.834.766-1.495.026-.214.038-.451.055-.7.036-.474.14-.9.2-1.329a4.573,4.573,0,0,1-.132-.51c-.039-.221-.078-.578.227-.516a1.2,1.2,0,0,1,.633.51,1.615,1.615,0,0,1,.289.844c.013.174-.017.337-.007.5a3.881,3.881,0,0,0,.335,1.432c.607.529,1.607.1,2.357.008.124-.016.257,0,.375-.032a2.063,2.063,0,0,0,.336-.139,5.729,5.729,0,0,1,.666-.275c.124-.039.264-.049.377-.094a1.24,1.24,0,0,0,.242-.211,4.056,4.056,0,0,1,.492-.4,1.368,1.368,0,0,0,.259-.189c.2-.218.294-.62.727-.617.118,0,.3.018.336.109s-.065.245-.124.328c-.073.1-.143.184-.2.258-.282.357-.491.744-.789,1.065a4.619,4.619,0,0,1-.368.328c-.041.035-.064.084-.1.126a1.554,1.554,0,0,1-.61.32,3.458,3.458,0,0,0-.633.291,5.285,5.285,0,0,0-.97.877,8.917,8.917,0,0,1-1.527,1.26,5.7,5.7,0,0,0-.547.375,1.853,1.853,0,0,0-.43,1.393c0,.3,0,.589.023.868s.068.559.1.822c.073.557.118,1.118.164,1.675.237,2.8.412,5.46.579,8.217.067,1.118.139,2.225.226,3.334-1.007-.041-1.947-.057-2.9-.1-1.622-.076-3.1.08-4.8.1.184-2.227.258-4.371.439-6.614.089-1.1.133-2.2.226-3.294s.157-2.176.3-3.255a12.012,12.012,0,0,0,.133-1.651,2.077,2.077,0,0,0-.4-1.465,3.76,3.76,0,0,0-.548-.382,10.948,10.948,0,0,1-1.541-1.252c-.153-.153-.3-.32-.462-.469a3.728,3.728,0,0,0-.5-.432,3.6,3.6,0,0,0-.641-.289,1.758,1.758,0,0,1-.618-.313c-.04-.041-.062-.095-.1-.133s-.092-.067-.133-.1a3.81,3.81,0,0,1-.649-.744c-.118-.168-.241-.368-.384-.548-.081-.1-.379-.413-.337-.578s.452-.136.579-.071c.243.126.337.428.54.61a1.628,1.628,0,0,0,.2.133,2.709,2.709,0,0,1,.368.291,2.535,2.535,0,0,0,.345.3.2.2,0,0,0,.054.023c.171.055.343.083.5.141.232.084.438.189.673.289a.823.823,0,0,0,.234.086c.19.02.376.026.572.064.6.115,1.6.417,2.089-.032a1.334,1.334,0,0,0,.189-.453,4.214,4.214,0,0,0,.164-.978c.011-.176-.018-.347-.008-.524a1.61,1.61,0,0,1,.564-1.141.92.92,0,0,1,.383-.213c.294-.044.241.343.2.541-.017.084-.034.172-.055.25a1.842,1.842,0,0,0-.071.228,1.905,1.905,0,0,0,.047.329c.049.322.123.628.149.977.017.218.033.469.055.7.067.69.57.94.76,1.5a2.579,2.579,0,0,1,.124.625c.018.229.019.468.047.7s.093.419.118.635a3.939,3.939,0,0,1,.007.727c-.1,1.385-.078,2.931-.078,4.422,0,1.86.057,3.781.118,5.619.058,1.8.12,3.744.195,5.58" transform="translate(-92.694 -93.884)" fill="#ee8500" fill-rule="evenodd"/>
          <path id="Trazado_5636" data-name="Trazado 5636" d="M106.354,110c-.041-.178-.088-.347-.133-.524s-.048-.359-.079-.557c-.039-.257-.134-.522-.172-.814-.012-.1-.014-.243.024-.28.088-.086.295.013.369.07a1.108,1.108,0,0,1,.328.611c.02.089.016.178.032.28a1.92,1.92,0,0,0,.1.3,1.759,1.759,0,0,1,.055.336,2.406,2.406,0,0,0,.093.314,1.492,1.492,0,0,0,.18.461,10.737,10.737,0,0,1-1.893-.266,2.956,2.956,0,0,1-.407-.891c-.045-.174-.078-.355-.118-.532s-.108-.338-.149-.5c-.036-.145-.024-.27-.054-.405-.024-.1-.111-.234-.064-.384a.194.194,0,0,1,.243-.118.62.62,0,0,1,.368.305,2.082,2.082,0,0,1,.087.3c.028.1.044.2.078.3a4.415,4.415,0,0,0,.243.478c.082.164.148.331.22.5.1.242.315.482.407.76a.953.953,0,0,0,.03.133c.04.067.153.083.212.133" transform="translate(-94.071 -94.011)" fill="#ee8500" fill-rule="evenodd"/>
          <path id="Trazado_5637" data-name="Trazado 5637" d="M104.444,110.03a1.039,1.039,0,0,1-.524-.155,4.372,4.372,0,0,0-1.064-.369.935.935,0,0,1-.189-.25,4.5,4.5,0,0,1-.446-1c-.074-.216-.257-.5-.148-.727.117-.243.453-.053.555.086a3.385,3.385,0,0,1,.211.406,8.24,8.24,0,0,1,.682,1.167,5.44,5.44,0,0,1,.923.844" transform="translate(-93.289 -94.116)" fill="#ee8500" fill-rule="evenodd"/>
          <path id="Trazado_5638" data-name="Trazado 5638" d="M133.348,110.738a4.031,4.031,0,0,1-.994.821,2.708,2.708,0,0,1-1.393.406,3.083,3.083,0,0,1-1.831-.68,6.855,6.855,0,0,1-1.276-1.229,4.312,4.312,0,0,0,1.237.446,2.6,2.6,0,0,0,1.44-.157,3.016,3.016,0,0,0-2.614-.491c-.013-.018.08-.062.118-.087a5.053,5.053,0,0,1,2.542-.947,2.469,2.469,0,0,1,1.754.6,4.3,4.3,0,0,1,1.016,1.315" transform="translate(-101.659 -94.572)" fill="#ee8500" fill-rule="evenodd"/>
          <path id="Trazado_5639" data-name="Trazado 5639" d="M100.062,113.018a3.477,3.477,0,0,0-2.348,1.934,3.433,3.433,0,0,0,2.465-1.69c.008-.011.047-.068.054-.047a5.946,5.946,0,0,1-1.486,3.177,2.935,2.935,0,0,1-1.589.743,5.015,5.015,0,0,1-2.018-.228c-.064-2.269,1-3.56,2.981-3.85a8.436,8.436,0,0,1,1.941-.039" transform="translate(-91.05 -95.922)" fill="#ee8500" fill-rule="evenodd"/>
          <path id="Trazado_5640" data-name="Trazado 5640" d="M130.032,116.907a4.857,4.857,0,0,1-2.019.22,2.829,2.829,0,0,1-1.588-.744,5.878,5.878,0,0,1-1.487-3.169c.013-.021.039.032.055.054a3.415,3.415,0,0,0,2.456,1.683,3.4,3.4,0,0,0-2.339-1.926,7.16,7.16,0,0,1,2.458.141c1.623.442,2.529,1.65,2.464,3.74" transform="translate(-100.713 -95.921)" fill="#ee8500" fill-rule="evenodd"/>
          <path id="Trazado_5641" data-name="Trazado 5641" d="M136.109,116.393a3.227,3.227,0,0,1-1.229.282c-1.351-.014-1.875-1.2-2.255-2.245.02-.015.055.034.078.061a2.125,2.125,0,0,0,1.63.846,2.141,2.141,0,0,0-1.614-1.049,4.547,4.547,0,0,1,.829-.111,2.173,2.173,0,0,1,2.56,2.214" transform="translate(-103.206 -96.308)" fill="#ee8500" fill-rule="evenodd"/>
          <path id="Trazado_5642" data-name="Trazado 5642" d="M123.066,114.252a2.443,2.443,0,0,0-.187,2,2.249,2.249,0,0,0,.352-1.948c.022-.011.033.022.04.03a4.712,4.712,0,0,1,.516.963,2.638,2.638,0,0,1,.228,1.3,2.352,2.352,0,0,1-1.393,1.761,2.8,2.8,0,0,1-.72-.891,1.921,1.921,0,0,1-.179-1.3,3.137,3.137,0,0,1,.906-1.51c.143-.143.292-.279.439-.407" transform="translate(-99.656 -96.334)" fill="#ee8500" fill-rule="evenodd"/>
          <path id="Trazado_5643" data-name="Trazado 5643" d="M111.577,82.193a2.587,2.587,0,0,0-1.127,2.075,5.694,5.694,0,0,1-.29-1.653,2.522,2.522,0,0,1,2.4-2.629,3.687,3.687,0,0,1,.47,1.377,2.247,2.247,0,0,1-.337,1.456,4.675,4.675,0,0,1-2.136,1.541c-.007,0-.007,0-.009.007a2.766,2.766,0,0,0,1.026-2.175" transform="translate(-95.921 -85.224)" fill="#ee8500" fill-rule="evenodd"/>
          <path id="Trazado_5644" data-name="Trazado 5644" d="M116.25,81.808a1.834,1.834,0,0,0-.369,1.612,2.931,2.931,0,0,1-.586-1.909,1.911,1.911,0,0,1,1.189-1.385,1.854,1.854,0,0,1,.649,1.837,3.239,3.239,0,0,1-1.16,1.512,2,2,0,0,0,.276-1.667" transform="translate(-97.58 -85.269)" fill="#ee8500" fill-rule="evenodd"/>
          <path id="Trazado_5645" data-name="Trazado 5645" d="M103.6,86.053a2.494,2.494,0,0,0-.047,2.175c-.007.01-.074-.057-.1-.086a6.239,6.239,0,0,1-.658-.844,2.8,2.8,0,0,1-.485-1.237,2.487,2.487,0,0,1,1.151-2.231,3.411,3.411,0,0,1,.907.822,2,2,0,0,1,.422,1.3,2.824,2.824,0,0,1-.4,1.307,6.4,6.4,0,0,1-.7,1.018c0,.013-.007,0-.007-.008s.007,0,.007-.008a3.436,3.436,0,0,0,.212-1.149,2.107,2.107,0,0,0-.3-1.057" transform="translate(-93.373 -86.47)" fill="#ee8500" fill-rule="evenodd"/>
          <path id="Trazado_5646" data-name="Trazado 5646" d="M122.819,86.053a2.52,2.52,0,0,0-.084,2.214c-.02,0-.039-.021-.049-.031a5.9,5.9,0,0,1-.649-.938,3.039,3.039,0,0,1-.414-1.276,1.983,1.983,0,0,1,.407-1.346,3.622,3.622,0,0,1,.908-.846,2.575,2.575,0,0,1,1.182,1.956,2.612,2.612,0,0,1-.43,1.4,6.14,6.14,0,0,1-.83,1.057c-.011,0,0-.006,0-.016a3.461,3.461,0,0,0,.236-1.149,2.074,2.074,0,0,0-.276-1.026" transform="translate(-99.637 -86.47)" fill="#ee8500" fill-rule="evenodd"/>
          <path id="Trazado_5647" data-name="Trazado 5647" d="M108.176,87.226a.663.663,0,0,0-.18.219,2.317,2.317,0,0,0-.188,1.589c-.027.008-.047-.05-.071-.086a3.116,3.116,0,0,1-.641-2.02,2.149,2.149,0,0,1,1.283-1.6,2.083,2.083,0,0,1,.791,2.05,3.616,3.616,0,0,1-1.252,1.72,2.276,2.276,0,0,0,.258-1.87" transform="translate(-94.924 -86.955)" fill="#ee8500" fill-rule="evenodd"/>
          <path id="Trazado_5648" data-name="Trazado 5648" d="M131.833,87.646a1.489,1.489,0,0,0-.478,1.3,3.228,3.228,0,0,1-.282-1.158,1.477,1.477,0,0,1,1.237-1.456,1.685,1.685,0,0,1,.391,1.159c-.064.752-.735,1.143-1.243,1.455-.008,0-.008,0-.008.008a1.663,1.663,0,0,0,.383-1.307" transform="translate(-102.702 -87.281)" fill="#ee8500" fill-rule="evenodd"/>
          <path id="Trazado_5649" data-name="Trazado 5649" d="M115.6,90.27a1.27,1.27,0,0,0,.134,1.11,2.365,2.365,0,0,1-.518-.484,1.231,1.231,0,0,1-.3-.876,1.461,1.461,0,0,1,.468-.885,1.261,1.261,0,0,1,.821.963,2.074,2.074,0,0,1-.4,1.3,1.318,1.318,0,0,0-.2-1.126" transform="translate(-97.46 -88.19)" fill="#ee8500" fill-rule="evenodd"/>
          <path id="Trazado_5650" data-name="Trazado 5650" d="M91.031,89.853c2.835-.026,4.5,1.307,4.836,3.873a10.827,10.827,0,0,1,.008,2.661,4.559,4.559,0,0,0-2.387-3.3,4.487,4.487,0,0,0,2.16,3.357c.011,0,0,.008-.007.008s0-.007-.008-.008a7.473,7.473,0,0,1-4.022-1.971A3.542,3.542,0,0,1,90.7,92.4a6.271,6.271,0,0,1,.336-2.542" transform="translate(-89.603 -88.423)" fill="#ee8500" fill-rule="evenodd"/>
          <path id="Trazado_5651" data-name="Trazado 5651" d="M120.608,89.923a2.891,2.891,0,0,1,1.939,1.87,4.456,4.456,0,0,1-.609,3,3.293,3.293,0,0,0-.439-2.027,1.41,1.41,0,0,0-.33-.351,2.916,2.916,0,0,0,.627,2.442c0,.006,0,.006.008.006s-.008,0-.016,0a6.788,6.788,0,0,1-1.346-1.149,2.651,2.651,0,0,1-.727-1.745,3.173,3.173,0,0,1,.893-2.042" transform="translate(-99.02 -88.446)" fill="#ee8500" fill-rule="evenodd"/>
          <path id="Trazado_5652" data-name="Trazado 5652" d="M113.634,92.891a1.72,1.72,0,0,0-.118,1.5c-.018.011-.047-.036-.07-.064a3.742,3.742,0,0,1-.447-.658,1.826,1.826,0,0,1-.258-1.008,1.805,1.805,0,0,1,.876-1.3,1.763,1.763,0,0,1,.844,1.292,2.507,2.507,0,0,1-.844,1.76c0,.007-.008.009-.008.017a1.854,1.854,0,0,0,.024-1.535" transform="translate(-96.757 -88.911)" fill="#ee8500" fill-rule="evenodd"/>
          <path id="Trazado_5653" data-name="Trazado 5653" d="M109.406,92.063a2.353,2.353,0,0,1,1.706,1.379,3.654,3.654,0,0,1-.3,2.481,2.285,2.285,0,0,0-.689-1.933,1.877,1.877,0,0,0,.087,1.112,2.929,2.929,0,0,0,.485.822c0,.011-.007,0-.016,0a3.849,3.849,0,0,1-1.659-1.51,2.323,2.323,0,0,1,.383-2.35" transform="translate(-95.495 -89.14)" fill="#ee8500" fill-rule="evenodd"/>
          <path id="Trazado_5654" data-name="Trazado 5654" d="M116.875,94.03a1.286,1.286,0,0,0-.416.586,2.61,2.61,0,0,0-.14,1.088,3.111,3.111,0,0,1-.416-2.143,2.1,2.1,0,0,1,1.387-1.3,2.176,2.176,0,0,1,.617,1.551,1.92,1.92,0,0,1-.547,1.166,4.594,4.594,0,0,1-.946.783c-.01.011,0,0,0-.008a2.044,2.044,0,0,0,.461-1.721" transform="translate(-97.761 -89.204)" fill="#ee8500" fill-rule="evenodd"/>
          <path id="Trazado_5655" data-name="Trazado 5655" d="M124.782,98.47a.834.834,0,0,0-.227.243,3.566,3.566,0,0,0-.564,2.692,7.562,7.562,0,0,1-.664-1.628,4.026,4.026,0,0,1-.078-2,3.458,3.458,0,0,1,2.362-2.253,3.8,3.8,0,0,1,1.034,2.489,2.679,2.679,0,0,1-.2.962,5.773,5.773,0,0,1-2.278,2.417c-.007,0-.007,0-.007.008a3.54,3.54,0,0,0,.617-2.935" transform="translate(-100.135 -90.263)" fill="#ee8500" fill-rule="evenodd"/>
          <path id="Trazado_5656" data-name="Trazado 5656" d="M118.655,96.558a3.236,3.236,0,0,1,2.169,2.012,4.895,4.895,0,0,1-.61,3.31,3.077,3.077,0,0,0-.885-2.607,3.175,3.175,0,0,0,.743,2.685c0,.006,0,.006.008.008a5.337,5.337,0,0,1-2.16-2.216,2.655,2.655,0,0,1-.064-1.814,3.976,3.976,0,0,1,.8-1.377" transform="translate(-98.375 -90.597)" fill="#ee8500" fill-rule="evenodd"/>
          <path id="Trazado_5657" data-name="Trazado 5657" d="M113.18,98.909a2.691,2.691,0,0,0-1.11,2.2,4.387,4.387,0,0,1-.118-3.036,2.9,2.9,0,0,1,2.183-1.5,3.737,3.737,0,0,1,.541,1.393,2.306,2.306,0,0,1-.305,1.548,4.8,4.8,0,0,1-2.183,1.682c-.007,0-.007,0-.007.008a2.865,2.865,0,0,0,1-2.292" transform="translate(-96.43 -90.601)" fill="#ee8500" fill-rule="evenodd"/>
          <path id="Trazado_5658" data-name="Trazado 5658" d="M88.23,101.281a1.084,1.084,0,0,0,.272.368,2.388,2.388,0,0,0,1.371.589,3.349,3.349,0,0,1-2.351-.036,2.221,2.221,0,0,1-1.061-1.754,2.7,2.7,0,0,1,1.128-.36,1.8,1.8,0,0,1,1.157.3,3.71,3.71,0,0,1,1.208,1.761c0,.006,0,.006.007.006a2.266,2.266,0,0,0-1.731-.876" transform="translate(-88.237 -91.74)" fill="#ee8500" fill-rule="evenodd"/>
          <path id="Trazado_5659" data-name="Trazado 5659" d="M113.153,105.263a1.92,1.92,0,0,0,.039,1.721c-.026.016-.053-.034-.078-.061a4.851,4.851,0,0,1-.525-.674,2.3,2.3,0,0,1-.384-.977,1.943,1.943,0,0,1,.924-1.754,2.74,2.74,0,0,1,.7.633,1.586,1.586,0,0,1,.328,1,3.064,3.064,0,0,1-.853,1.8c0,.007-.008.008-.008.016s0-.008,0-.016a2.01,2.01,0,0,0-.139-1.69" transform="translate(-96.581 -92.854)" fill="#ee8500" fill-rule="evenodd"/>
          <path id="Trazado_5660" data-name="Trazado 5660" d="M118.592,105.845a1.675,1.675,0,0,0-.772,1.345,2.711,2.711,0,0,1,.108-1.886,1.743,1.743,0,0,1,1.463-.814,2.083,2.083,0,0,1,.25.916,1.464,1.464,0,0,1-.273.891,2.877,2.877,0,0,1-1.447.908c-.007,0-.007,0-.008.008a1.784,1.784,0,0,0,.68-1.368" transform="translate(-98.367 -93.169)" fill="#ee8500" fill-rule="evenodd"/>
          <path id="Trazado_5661" data-name="Trazado 5661" d="M102.612,105.717a2.273,2.273,0,0,1-1.315.424c-.614-.043-.885-.48-1.119-.916a1.453,1.453,0,0,1,1.135-.493c.611.043.985.557,1.3.908a1.5,1.5,0,0,0-1.206-.164,1.335,1.335,0,0,0,1.206.242" transform="translate(-92.685 -93.246)" fill="#ee8500" fill-rule="evenodd"/>
          <path id="Trazado_5662" data-name="Trazado 5662" d="M126.41,105.225a1.35,1.35,0,0,1-1.119.916,2.415,2.415,0,0,1-1.315-.416,1.438,1.438,0,0,0,1.213-.242,1.374,1.374,0,0,0-1.2.164,1.976,1.976,0,0,1,1.283-.916,1.425,1.425,0,0,1,1.135.493" transform="translate(-100.401 -93.246)" fill="#ee8500" fill-rule="evenodd"/>
          <path id="Trazado_5663" data-name="Trazado 5663" d="M97.293,106.4a1.761,1.761,0,0,0,1.556.461,2.833,2.833,0,0,1-1.963.344,1.843,1.843,0,0,1-1.166-1.291,1.991,1.991,0,0,1,1.369-.524,1.686,1.686,0,0,1,1.057.5,4.042,4.042,0,0,1,.7.861c0,.006,0,.008.007.008s-.006,0-.016,0a1.834,1.834,0,0,0-1.541-.359" transform="translate(-91.239 -93.461)" fill="#ee8500" fill-rule="evenodd"/>
          <path id="Trazado_5664" data-name="Trazado 5664" d="M130.647,106.075a2.023,2.023,0,0,1-1.314,1.416,3.222,3.222,0,0,1-2.137-.391,2.02,2.02,0,0,0,1.729-.5,2.032,2.032,0,0,0-1.706.383c-.007,0-.007,0-.007.008s0-.006,0-.016a4.836,4.836,0,0,1,.758-.938,1.813,1.813,0,0,1,1.368-.541,2.4,2.4,0,0,1,1.308.58" transform="translate(-101.445 -93.494)" fill="#ee8500" fill-rule="evenodd"/>
          <path id="Trazado_5665" data-name="Trazado 5665" d="M118.832,110.193c-.022-.031.018-.049.03-.07a1.282,1.282,0,0,0,.11-.282,2.83,2.83,0,0,0,.117-.406,2.183,2.183,0,0,1,.055-.337,2.814,2.814,0,0,0,.1-.3c.011-.053,0-.081.008-.155a1.181,1.181,0,0,1,.328-.729c.071-.061.277-.184.382-.1s.01.451-.014.563c-.041.191-.089.357-.119.532-.032.2-.032.4-.078.57s-.1.336-.139.51c.068-.008.138-.081.211-.11a3.369,3.369,0,0,1,.438-.891c.059-.135.095-.271.156-.4a4.991,4.991,0,0,0,.353-.751c.019-.068.042-.139.063-.212a1.385,1.385,0,0,1,.055-.219c.061-.141.3-.385.516-.3.183.075.081.312.039.47s-.036.336-.095.507c-.154.441-.19.994-.383,1.4-.074.155-.174.28-.235.424a4.108,4.108,0,0,0,.446-.432,2.466,2.466,0,0,1,.492-.4,7.563,7.563,0,0,1,.68-1.174,2.817,2.817,0,0,1,.227-.424c.1-.122.41-.3.533-.07.114.206-.06.49-.125.672a6.565,6.565,0,0,1-.352.885,2.136,2.136,0,0,1-.125.18c-.061.092-.084.2-.172.241a3.654,3.654,0,0,1-.383.1,6.521,6.521,0,0,0-.69.282,1.092,1.092,0,0,1-.516.147h-.022a11.4,11.4,0,0,1-1.893.266" transform="translate(-98.731 -94.013)" fill="#ee8500" fill-rule="evenodd"/>
          <path id="Trazado_5666" data-name="Trazado 5666" d="M91.585,110.673a4.532,4.532,0,0,1,1-1.047,2.45,2.45,0,0,1,1.573-.471,3.394,3.394,0,0,1,1.534.5,7.106,7.106,0,0,1,1.166.844,4.153,4.153,0,0,0-1.346-.218,2.318,2.318,0,0,0-1.206.359,2.324,2.324,0,0,0,1.245.33,3.92,3.92,0,0,0,1.322-.26c.01-.008.02,0,.008,0a7.068,7.068,0,0,1-1.166.893,3.432,3.432,0,0,1-1.526.533,2.429,2.429,0,0,1-1.581-.43,4.072,4.072,0,0,1-1.025-1.034" transform="translate(-89.899 -94.681)" fill="#ee8500" fill-rule="evenodd"/>
          <path id="Trazado_5667" data-name="Trazado 5667" d="M89.837,116.387a2.3,2.3,0,0,1,.986-1.894,3.553,3.553,0,0,1,2.4-.212,2.21,2.21,0,0,0-1.62,1.058,2.23,2.23,0,0,0,1.706-.916v-.008a1.01,1.01,0,0,1-.086.266,3.561,3.561,0,0,1-1.041,1.62,1.844,1.844,0,0,1-1.135.375,2.972,2.972,0,0,1-1.213-.289" transform="translate(-89.332 -96.308)" fill="#ee8500" fill-rule="evenodd"/>
          <path id="Trazado_5668" data-name="Trazado 5668" d="M103.412,114.262c0-.008.008,0,.008,0a5.034,5.034,0,0,1,.9.955,2.307,2.307,0,0,1,.493,1.354,2.218,2.218,0,0,1-.61,1.456,1.779,1.779,0,0,1-.337.336,2.372,2.372,0,0,1-1.4-1.753,2.644,2.644,0,0,1,.226-1.315,4.881,4.881,0,0,1,.563-.994,2.278,2.278,0,0,0,.345,1.956,2.319,2.319,0,0,0-.188-1.995" transform="translate(-93.422 -96.336)" fill="#ee8500" fill-rule="evenodd"/>
        </g>
      </g>
    </g>
    <g id="Grupo_1834" data-name="Grupo 1834" transform="translate(139.191 89.802)">
      <path id="Trazado_5670" data-name="Trazado 5670" d="M312.279,95.084a9.988,9.988,0,0,0-5.045-1.545,19.33,19.33,0,0,0-3.227-.257h-7.261v.455a.587.587,0,0,0-.072.276v24.952a.585.585,0,0,0,.072.276v.482h5.407V98.155a.6.6,0,0,1,.205-.09h1.494c4.325,0,6.334,1.477,6.334,5.21a7.817,7.817,0,0,1-.189,1.789,4.359,4.359,0,0,1-1.085,1.389c-1.087.847-2.945.953-4.663.953a.589.589,0,0,0-.51.882l2.767,4.816c1.393,2.835,2.945,5.96,3.233,6.4a.467.467,0,0,0,.393.212h5.17a.335.335,0,0,0,.283-.515l-4.114-7.829a.3.3,0,0,1,.122-.433c3.049-1.5,4.03-4.013,4.154-7.669a10.379,10.379,0,0,0-.553-3.871,7.942,7.942,0,0,0-2.915-4.319" transform="translate(-207.442 -92.583)" fill="#ee8500"/>
      <path id="Trazado_5671" data-name="Trazado 5671" d="M217.024,93.283h-4.466a.471.471,0,0,0-.47.47v25.5a.471.471,0,0,0,.47.47h4.466a.47.47,0,0,0,.47-.47v-25.5a.47.47,0,0,0-.47-.47" transform="translate(-180.016 -92.584)" fill="#ee8500"/>
      <path id="Trazado_5672" data-name="Trazado 5672" d="M190.727,93.283h-4.636a.47.47,0,0,0-.426.272l-7.294,15.731a.47.47,0,0,1-.852,0L170.16,93.554a.47.47,0,0,0-.426-.271H165.1a.47.47,0,0,0-.47.47v25.5a.47.47,0,0,0,.47.47h4.466a.47.47,0,0,0,.47-.47V107.231a.47.47,0,0,1,.881-.23c1.219,2.191,3.281,6.043,4.015,7.417a.953.953,0,0,0,.842.5h4.283a.953.953,0,0,0,.842-.5c.734-1.372,2.8-5.224,4.015-7.414a.47.47,0,0,1,.881.229v12.019a.47.47,0,0,0,.47.47h4.467a.471.471,0,0,0,.47-.47v-25.5a.471.471,0,0,0-.47-.47" transform="translate(-164.627 -92.584)" fill="#ee8500"/>
      <path id="Trazado_5673" data-name="Trazado 5673" d="M247.094,93.283h-4.466a.471.471,0,0,0-.47.47v12.314a.47.47,0,0,1-.886.219l-6.7-12.752a.469.469,0,0,0-.416-.251H229.5a.47.47,0,0,0-.47.47v25.5a.47.47,0,0,0,.47.47h4.466a.47.47,0,0,0,.47-.47V107.209a.47.47,0,0,1,.885-.223l6.7,12.488a.47.47,0,0,0,.414.248h4.655a.47.47,0,0,0,.47-.47v-25.5a.47.47,0,0,0-.47-.47" transform="translate(-185.509 -92.584)" fill="#ee8500"/>
      <path id="Trazado_5674" data-name="Trazado 5674" d="M281.283,93.283H264.844a.47.47,0,0,0-.47.47v25.5a.47.47,0,0,0,.47.47h16.438a.47.47,0,0,0,.47-.47V115.41a.47.47,0,0,0-.47-.47H270.25a.47.47,0,0,1-.47-.47V111.2a.47.47,0,0,1,.47-.47h7.969a.47.47,0,0,0,.47-.47v-3.725a.47.47,0,0,0-.47-.47H270.25a.47.47,0,0,1-.47-.47V98.536a.47.47,0,0,1,.47-.47h11.032a.47.47,0,0,0,.47-.47V93.753a.47.47,0,0,0-.47-.47" transform="translate(-196.969 -92.584)" fill="#ee8500"/>
      <path id="Trazado_5675" data-name="Trazado 5675" d="M341.546,92.248a13.569,13.569,0,1,0,13.595,13.569,13.343,13.343,0,0,0-13.595-13.569m0,22.278c-4.789,0-8.033-3.771-8.033-8.709s3.244-8.71,8.033-8.71,8.033,3.772,8.033,8.71-3.244,8.709-8.033,8.709" transform="translate(-217.584 -92.248)" fill="#ee8500"/>
    </g>
  </g>
</svg>
