<svg xmlns="http://www.w3.org/2000/svg" width="38.93" height="46.092" viewBox="0 0 38.93 46.092">
  <g id="Grupo_1832" data-name="Grupo 1832" transform="translate(-266.963 -146)">
    <g id="Grupo_725" data-name="Grupo 725" transform="translate(-802.67 -996.98)">
      <path id="Trazado_1486" data-name="Trazado 1486" d="M1071.154,1161.047a18.089,18.089,0,1,1,18.067,18.111h-.03a18.02,18.02,0,0,1-18.037-18Zm15.758-11.405a13.4,13.4,0,1,0,.218,0Z" fill="#1b5e9b"/>
      <path id="Trazado_1487" data-name="Trazado 1487" d="M1093.244,1160.363a10.7,10.7,0,0,1-.466,3.812c-.28,1.014-.655,2-1.015,2.992-.061.164-.252.385-.4.4-1.151.093-2.3.14-3.356.2.115-2.034.218-3.991.35-5.951.011-.179.165-.469.3-.5C1090.158,1160.977,1091.671,1160.682,1093.244,1160.363Z" fill="#1b5e9b"/>
      <path id="Trazado_1488" data-name="Trazado 1488" d="M1082.073,1163.637l5.7-2.2.183.163c-.065,1.148-.1,2.3-.206,3.442-.07.76-.224,1.512-.333,2.269a.52.52,0,0,1-.51.529h-.031c-1.213.12-2.422.28-3.627.46-.42.063-.56-.1-.606-.474C1082.465,1166.5,1082.281,1165.172,1082.073,1163.637Z" fill="#1b5e9b"/>
      <path id="Trazado_1489" data-name="Trazado 1489" d="M1087.594,1156.142c.112,1.574.21,3.035.322,4.494a.489.489,0,0,1-.381.578l-.021,0c-1.86.608-3.711,1.234-5.639,1.878-.229-.98-.495-2.05-.714-3.132a.7.7,0,0,1,.264-.506A17.669,17.669,0,0,1,1087.594,1156.142Z" fill="#1b5e9b"/>
      <path id="Trazado_1490" data-name="Trazado 1490" d="M1088.373,1160.879l-.546-4.786a10.2,10.2,0,0,1,4.165-.617,1.082,1.082,0,0,1,.712.574,8.826,8.826,0,0,1,.586,3.822.479.479,0,0,1-.309.344C1091.459,1160.451,1089.932,1160.659,1088.373,1160.879Z" fill="#1b5e9b"/>
      <path id="Trazado_1491" data-name="Trazado 1491" d="M1081.016,1159.221c-.14-.873-.29-1.639-.363-2.414a.877.877,0,0,1,.318-.655,8.986,8.986,0,0,1,4.679-1.815c1.07-.094,1.477.21,1.724,1.17.092.357,0,.523-.359.634A18.676,18.676,0,0,0,1081.016,1159.221Z" fill="#1b5e9b"/>
      <path id="Trazado_1492" data-name="Trazado 1492" d="M1087.186,1168.3a7.733,7.733,0,0,1-1.8,3.731c-1.088,1.08-2.49,1.173-4.046.269a3.335,3.335,0,0,0,1.344-2.851.6.6,0,0,1,.544-.646l.034,0c1.12-.174,2.245-.359,3.37-.529A2.964,2.964,0,0,1,1087.186,1168.3Z" fill="#1b5e9b"/>
      <path id="Trazado_1493" data-name="Trazado 1493" d="M1079.086,1170.455a15.688,15.688,0,0,1-.972-2.329,2.17,2.17,0,0,1,.36-1.383,7.816,7.816,0,0,1,3.195-2.762c.141,1.09.276,2.1.393,3.109.053.449.238,1,.049,1.33s-.806.338-1.17.585C1080.343,1169.405,1079.8,1169.89,1079.086,1170.455Z" fill="#1b5e9b"/>
      <path id="Trazado_1494" data-name="Trazado 1494" d="M1093.467,1160.515c1.18-.22,1.63.02,1.87,1.093a8.887,8.887,0,0,1-.455,5.239.607.607,0,0,1-.359.353c-.77.131-1.546.217-2.462.337A19.28,19.28,0,0,0,1093.467,1160.515Z" fill="#1b5e9b"/>
      <path id="Trazado_1495" data-name="Trazado 1495" d="M1077.255,1168.472c-1.734-3.625-.158-9.629,3.146-11.82.1.745.185,1.47.294,2.2a1.1,1.1,0,0,1-.387,1.032,9.793,9.793,0,0,0-3.164,6.223A17.337,17.337,0,0,0,1077.255,1168.472Z" fill="#1b5e9b"/>
      <path id="Trazado_1496" data-name="Trazado 1496" d="M1087.574,1174.166a12.336,12.336,0,0,0,5.2-3.026,9.749,9.749,0,0,0,2.189-3.353.9.9,0,0,1,.743-.63c.406-.074.8-.184,1.207-.274.527-.118.712.042.58.56a2.5,2.5,0,0,1-.386.84,13.446,13.446,0,0,1-8.06,5.7c-.362.079-.731.126-1.1.183A3.254,3.254,0,0,1,1087.574,1174.166Z" fill="#1b5e9b"/>
      <path id="Trazado_1497" data-name="Trazado 1497" d="M1075.808,1165.127a9.458,9.458,0,0,1-.007-4.388,15.4,15.4,0,0,1,2.909-6.052,1.81,1.81,0,0,1,.375-.411c.317-.2.659-.37.99-.552.082.341.177.678.244,1.021a2.014,2.014,0,0,1-.869,2.1C1076.919,1158.985,1075.961,1161.875,1075.808,1165.127Z" fill="#1b5e9b"/>
      <path id="Trazado_1498" data-name="Trazado 1498" d="M1085.168,1173.044c1.68-1.268,2.144-3.062,2.628-4.864l3.528-.266C1090.6,1170.363,1087.6,1172.9,1085.168,1173.044Z" fill="#1b5e9b"/>
      <path id="Trazado_1499" data-name="Trazado 1499" d="M1086.315,1173.633a9.639,9.639,0,0,0,5.339-5.289.879.879,0,0,1,.82-.6c.692-.053,1.376-.21,2.072-.321C1094.075,1170.083,1089.949,1173.2,1086.315,1173.633Z" fill="#1b5e9b"/>
      <path id="Trazado_1500" data-name="Trazado 1500" d="M1077.934,1166.262a9.113,9.113,0,0,1,2.911-6.294c.232,1.2.449,2.24.618,3.29.019.118-.2.323-.359.412A10.072,10.072,0,0,0,1077.934,1166.262Z" fill="#1b5e9b"/>
      <path id="Trazado_1501" data-name="Trazado 1501" d="M1082.066,1169.169a2.845,2.845,0,0,1-.658,2.24c-.3.314-.63.548-1.125.192-.51-.368-.42-.75-.171-1.165A3.283,3.283,0,0,1,1082.066,1169.169Z" fill="#1b5e9b"/>
    </g>
    <g id="Grupo_728" data-name="Grupo 728" transform="translate(-802.67 -996.98)">
      <g id="Grupo_726" data-name="Grupo 726">
        <path id="Trazado_2220" data-name="Trazado 2220" d="M1074.611,1185.234a1.535,1.535,0,0,0,.092.534,1.232,1.232,0,0,0,.27.432,1.272,1.272,0,0,0,.431.289,1.487,1.487,0,0,0,.576.1,1.729,1.729,0,0,0,.635-.1,2.123,2.123,0,0,0,.423-.218c.114-.078.209-.15.288-.214a.364.364,0,0,1,.222-.095.267.267,0,0,1,.192.087.342.342,0,0,1,.087.252.463.463,0,0,1-.161.3,1.745,1.745,0,0,1-.427.31,2.94,2.94,0,0,1-.6.239,2.369,2.369,0,0,1-.671.1,2.2,2.2,0,0,1-.959-.192,1.89,1.89,0,0,1-.663-.516,2.142,2.142,0,0,1-.383-.741,3.107,3.107,0,0,1-.122-.87,2.707,2.707,0,0,1,.144-.882,2.324,2.324,0,0,1,.409-.742,1.946,1.946,0,0,1,.654-.507,1.99,1.99,0,0,1,.876-.187,1.829,1.829,0,0,1,.846.192,1.927,1.927,0,0,1,.627.5,2.281,2.281,0,0,1,.388.709,2.493,2.493,0,0,1,.135.808.452.452,0,0,1-.087.3.438.438,0,0,1-.34.1Zm2.545-.575a1.685,1.685,0,0,0-.074-.487,1.411,1.411,0,0,0-.222-.441,1.135,1.135,0,0,0-.933-.449,1.2,1.2,0,0,0-.6.1,1.181,1.181,0,0,0-.4.319,1.316,1.316,0,0,0-.23.45,2.043,2.043,0,0,0-.083.5Z" fill="#243a5d"/>
      </g>
      <g id="Grupo_727" data-name="Grupo 727">
        <path id="Trazado_2221" data-name="Trazado 2221" d="M1089.137,1185.234a1.513,1.513,0,0,0,.092.534,1.214,1.214,0,0,0,.269.432,1.293,1.293,0,0,0,.432.29,1.5,1.5,0,0,0,.575.1,1.731,1.731,0,0,0,.636-.1,2.123,2.123,0,0,0,.423-.218c.113-.078.209-.15.288-.214a.362.362,0,0,1,.222-.095.267.267,0,0,1,.192.087.342.342,0,0,1,.087.252.463.463,0,0,1-.161.3,1.752,1.752,0,0,1-.428.31,2.908,2.908,0,0,1-.6.239,2.369,2.369,0,0,1-.671.1,2.2,2.2,0,0,1-.959-.192,1.872,1.872,0,0,1-.663-.516,2.109,2.109,0,0,1-.383-.741,3.107,3.107,0,0,1-.122-.87,2.707,2.707,0,0,1,.144-.882,2.305,2.305,0,0,1,.409-.742,1.937,1.937,0,0,1,.654-.507,1.986,1.986,0,0,1,.876-.187,1.822,1.822,0,0,1,.845.192,1.921,1.921,0,0,1,.628.5,2.281,2.281,0,0,1,.388.709,2.523,2.523,0,0,1,.135.808.452.452,0,0,1-.087.3.44.44,0,0,1-.34.1Zm2.545-.575a1.685,1.685,0,0,0-.074-.487,1.435,1.435,0,0,0-.223-.441,1.131,1.131,0,0,0-.932-.449,1.2,1.2,0,0,0-.6.1,1.187,1.187,0,0,0-.4.319,1.335,1.335,0,0,0-.231.45,2,2,0,0,0-.082.5Z" fill="#243a5d"/>
      </g>
      <path id="Trazado_2222" data-name="Trazado 2222" d="M1078.438,1184.068a2.286,2.286,0,0,1,.392-.731,1.907,1.907,0,0,1,.633-.509,2.02,2.02,0,0,1,1.711,0,1.923,1.923,0,0,1,.632.509,2.286,2.286,0,0,1,.392.731,2.833,2.833,0,0,1,0,1.716,2.282,2.282,0,0,1-.392.732,1.923,1.923,0,0,1-.632.509,2.031,2.031,0,0,1-1.711,0,1.907,1.907,0,0,1-.633-.509,2.282,2.282,0,0,1-.392-.732,2.856,2.856,0,0,1,0-1.716Zm.689,1.43a1.643,1.643,0,0,0,.215.525,1.223,1.223,0,0,0,.391.387,1.223,1.223,0,0,0,1.174,0,1.232,1.232,0,0,0,.387-.387,1.665,1.665,0,0,0,.215-.525,2.547,2.547,0,0,0,0-1.143,1.657,1.657,0,0,0-.215-.525,1.236,1.236,0,0,0-.387-.388,1.223,1.223,0,0,0-1.174,0,1.227,1.227,0,0,0-.391.388,1.634,1.634,0,0,0-.215.525,2.547,2.547,0,0,0,0,1.143Z" fill="#243a5d"/>
      <path id="Trazado_2223" data-name="Trazado 2223" d="M1082.823,1184.639a2.175,2.175,0,0,1,.356-1.21,1.849,1.849,0,0,1,1.566-.776,2.048,2.048,0,0,1,.9.175,1.9,1.9,0,0,1,.615.509,2.247,2.247,0,0,1,.383.731,2.917,2.917,0,0,1,0,1.716,2.243,2.243,0,0,1-.383.732,1.9,1.9,0,0,1-.615.509,1.752,1.752,0,0,1-.825.189,1.462,1.462,0,0,1-.417-.056,1.51,1.51,0,0,1-.349-.146,1.3,1.3,0,0,1-.266-.2,2.084,2.084,0,0,1-.19-.215h-.017v2.064a.423.423,0,0,1-.1.3.36.36,0,0,1-.275.11.364.364,0,0,1-.275-.107.4.4,0,0,1-.1-.294Zm.743.859a1.665,1.665,0,0,0,.215.525,1.226,1.226,0,0,0,.392.387,1.221,1.221,0,0,0,1.173,0,1.244,1.244,0,0,0,.388-.387,1.665,1.665,0,0,0,.215-.525,2.585,2.585,0,0,0,0-1.143,1.656,1.656,0,0,0-.215-.525,1.248,1.248,0,0,0-.388-.388,1.221,1.221,0,0,0-1.173,0,1.23,1.23,0,0,0-.392.388,1.656,1.656,0,0,0-.215.525,2.581,2.581,0,0,0,0,1.143Z" fill="#243a5d"/>
      <path id="Trazado_2224" data-name="Trazado 2224" d="M1069.634,1184.639a2.175,2.175,0,0,1,.356-1.21,1.849,1.849,0,0,1,1.566-.776,2.048,2.048,0,0,1,.9.175,1.9,1.9,0,0,1,.615.509,2.236,2.236,0,0,1,.383.731,2.917,2.917,0,0,1,0,1.716,2.244,2.244,0,0,1-.383.732,1.9,1.9,0,0,1-.615.509,1.749,1.749,0,0,1-.825.189,1.466,1.466,0,0,1-.417-.056,1.528,1.528,0,0,1-.349-.146,1.3,1.3,0,0,1-.266-.2,2.07,2.07,0,0,1-.19-.215h-.017v2.064a.423.423,0,0,1-.1.3.4.4,0,0,1-.55,0,.4.4,0,0,1-.1-.294Zm.743.859a1.665,1.665,0,0,0,.215.525,1.226,1.226,0,0,0,.392.387,1.223,1.223,0,0,0,1.174,0,1.242,1.242,0,0,0,.387-.387,1.665,1.665,0,0,0,.215-.525,2.585,2.585,0,0,0,0-1.143,1.656,1.656,0,0,0-.215-.525,1.246,1.246,0,0,0-.387-.388,1.223,1.223,0,0,0-1.174,0,1.23,1.23,0,0,0-.392.388,1.657,1.657,0,0,0-.215.525,2.585,2.585,0,0,0,0,1.143Z" fill="#243a5d"/>
      <path id="Trazado_2225" data-name="Trazado 2225" d="M1092.944,1184.639a2.169,2.169,0,0,1,.357-1.21,1.848,1.848,0,0,1,1.565-.776,2.052,2.052,0,0,1,.9.175,1.9,1.9,0,0,1,.615.509,2.247,2.247,0,0,1,.383.731,2.917,2.917,0,0,1,0,1.716,2.243,2.243,0,0,1-.383.732,1.9,1.9,0,0,1-.615.509,1.756,1.756,0,0,1-.826.189,1.467,1.467,0,0,1-.417-.056,1.52,1.52,0,0,1-.348-.146,1.338,1.338,0,0,1-.267-.2,2.186,2.186,0,0,1-.189-.215h-.017v2.064a.423.423,0,0,1-.1.3.361.361,0,0,1-.275.11.367.367,0,0,1-.276-.107.4.4,0,0,1-.1-.294Zm.744.859a1.643,1.643,0,0,0,.215.525,1.216,1.216,0,0,0,.391.387,1.224,1.224,0,0,0,1.174,0,1.245,1.245,0,0,0,.388-.387,1.66,1.66,0,0,0,.214-.525,2.543,2.543,0,0,0,0-1.143,1.652,1.652,0,0,0-.214-.525,1.249,1.249,0,0,0-.388-.388,1.224,1.224,0,0,0-1.174,0,1.22,1.22,0,0,0-.391.388,1.634,1.634,0,0,0-.215.525,2.547,2.547,0,0,0,0,1.143Z" fill="#3e669b"/>
      <path id="Trazado_2226" data-name="Trazado 2226" d="M1087.984,1186.813a.4.4,0,0,1-.1.294.407.407,0,0,1-.55,0,.4.4,0,0,1-.1-.294v-5.838a.4.4,0,0,1,.1-.294.407.407,0,0,1,.55,0,.4.4,0,0,1,.1.294Z" fill="#243a5d"/>
      <path id="Trazado_2227" data-name="Trazado 2227" d="M1101.305,1186.856a.314.314,0,0,1-.12.278.409.409,0,0,1-.232.084.4.4,0,0,1-.236-.084.319.319,0,0,1-.117-.278v-.311h-.017a1.638,1.638,0,0,1-.563.509,1.451,1.451,0,0,1-.684.164,1.873,1.873,0,0,1-.856-.189,1.914,1.914,0,0,1-.632-.509,2.26,2.26,0,0,1-.391-.732,2.833,2.833,0,0,1,0-1.716,2.265,2.265,0,0,1,.391-.731,1.913,1.913,0,0,1,.632-.509,1.929,1.929,0,0,1,1.623-.02,2.161,2.161,0,0,1,.628.469,2.415,2.415,0,0,1,.574,1.542Zm-3.16-1.354a1.665,1.665,0,0,0,.215.525,1.213,1.213,0,0,0,.391.387,1.224,1.224,0,0,0,1.174,0,1.231,1.231,0,0,0,.387-.387,1.665,1.665,0,0,0,.215-.525,2.542,2.542,0,0,0,0-1.143,1.656,1.656,0,0,0-.215-.525,1.236,1.236,0,0,0-.387-.388,1.224,1.224,0,0,0-1.174,0,1.217,1.217,0,0,0-.391.388,1.656,1.656,0,0,0-.215.525,2.542,2.542,0,0,0,0,1.143Z" fill="#3e669b"/>
      <path id="Trazado_2228" data-name="Trazado 2228" d="M1101.94,1183.351a1.27,1.27,0,0,1,.357-.394,1.572,1.572,0,0,1,.5-.239,2.054,2.054,0,0,1,.564-.079,2.493,2.493,0,0,1,1,.227,1.43,1.43,0,0,1,.373.254.446.446,0,0,1,.151.327.313.313,0,0,1-.086.215.331.331,0,0,1-.258.095.357.357,0,0,1-.219-.074l-.22-.159a1.549,1.549,0,0,0-.292-.159,1.173,1.173,0,0,0-.447-.073,1.1,1.1,0,0,0-.564.138.46.46,0,0,0-.236.424.4.4,0,0,0,.18.326,2.149,2.149,0,0,0,.452.248q.271.113.589.226a3.608,3.608,0,0,1,.589.268,1.62,1.62,0,0,1,.452.373.826.826,0,0,1,.18.545,1.228,1.228,0,0,1-.142.607,1.316,1.316,0,0,1-.374.428,1.625,1.625,0,0,1-.533.255,2.293,2.293,0,0,1-.619.084,2.643,2.643,0,0,1-.675-.082,2.418,2.418,0,0,1-.546-.206,1.252,1.252,0,0,1-.366-.28.466.466,0,0,1-.133-.3.337.337,0,0,1,.094-.249.3.3,0,0,1,.216-.095.426.426,0,0,1,.249.086c.08.058.174.122.284.194a2.112,2.112,0,0,0,.378.193,1.4,1.4,0,0,0,.525.086,1.013,1.013,0,0,0,.649-.188.533.533,0,0,0,.237-.415.463.463,0,0,0-.181-.369,2.075,2.075,0,0,0-.451-.276q-.272-.126-.59-.247a4.266,4.266,0,0,1-.589-.277,1.636,1.636,0,0,1-.451-.369.78.78,0,0,1-.181-.524A1.053,1.053,0,0,1,1101.94,1183.351Z" fill="#3e669b"/>
      <path id="Trazado_2229" data-name="Trazado 2229" d="M1105.5,1183.351a1.294,1.294,0,0,1,.357-.394,1.587,1.587,0,0,1,.5-.239,2.053,2.053,0,0,1,.564-.079,2.333,2.333,0,0,1,.5.06,2.307,2.307,0,0,1,.495.167,1.418,1.418,0,0,1,.374.254.451.451,0,0,1,.151.327.313.313,0,0,1-.086.215.333.333,0,0,1-.258.095.359.359,0,0,1-.22-.074l-.219-.159a1.58,1.58,0,0,0-.292-.159,1.173,1.173,0,0,0-.447-.073,1.1,1.1,0,0,0-.564.138.459.459,0,0,0-.237.424.4.4,0,0,0,.181.326,2.149,2.149,0,0,0,.452.248c.18.075.377.15.589.226a3.608,3.608,0,0,1,.589.268,1.635,1.635,0,0,1,.452.373.826.826,0,0,1,.18.545,1.228,1.228,0,0,1-.142.607,1.327,1.327,0,0,1-.374.428,1.626,1.626,0,0,1-.533.255,2.3,2.3,0,0,1-.62.084,2.641,2.641,0,0,1-.674-.082,2.448,2.448,0,0,1-.547-.206,1.261,1.261,0,0,1-.365-.28.466.466,0,0,1-.133-.3.337.337,0,0,1,.094-.249.3.3,0,0,1,.215-.095.43.43,0,0,1,.25.086c.08.058.175.122.284.194a2.081,2.081,0,0,0,.378.193,1.4,1.4,0,0,0,.525.086,1.014,1.014,0,0,0,.649-.188.532.532,0,0,0,.236-.415.466.466,0,0,0-.18-.369,2.081,2.081,0,0,0-.452-.276c-.18-.084-.377-.166-.589-.247a4.213,4.213,0,0,1-.589-.277,1.656,1.656,0,0,1-.452-.369.784.784,0,0,1-.18-.524A1.063,1.063,0,0,1,1105.5,1183.351Z" fill="#3e669b"/>
    </g>
  </g>
</svg>
