<svg id="Grupo_499" data-name="Grupo 499" xmlns="http://www.w3.org/2000/svg" width="51.675" height="51.663" viewBox="0 0 51.675 51.663">
  <path id="Trazado_1486" data-name="Trazado 1486" d="M222.892,1003.4a25.838,25.838,0,1,1,25.763,25.869A25.74,25.74,0,0,1,222.892,1003.4ZM245.4,987.109a19.256,19.256,0,1,0,19.29,19.323A19.151,19.151,0,0,0,245.4,987.109Z" transform="translate(-222.892 -977.608)" fill="#1b5e9b"/>
  <path id="Trazado_1487" data-name="Trazado 1487" d="M283,1031.857a15.25,15.25,0,0,1-.666,5.445c-.4,1.449-.935,2.86-1.45,4.274-.086.235-.359.55-.567.567-1.643.133-3.291.2-4.794.284.165-2.905.312-5.7.5-8.5.017-.255.236-.67.427-.713C278.592,1032.735,280.753,1032.313,283,1031.857Z" transform="translate(-251.447 -1007.043)" fill="#1b5e9b"/>
  <path id="Trazado_1488" data-name="Trazado 1488" d="M256.987,1038.358l8.136-3.139.262.233c-.093,1.639-.15,3.281-.294,4.916-.1,1.086-.321,2.16-.476,3.241a.742.742,0,0,1-.773.755c-1.732.172-3.459.4-5.181.658-.6.09-.8-.145-.865-.677C257.548,1042.447,257.284,1040.55,256.987,1038.358Z" transform="translate(-241.391 -1008.867)" fill="#1b5e9b"/>
  <path id="Trazado_1489" data-name="Trazado 1489" d="M263.32,1018.675c.16,2.249.3,4.335.461,6.419a.7.7,0,0,1-.575.832c-2.656.868-5.3,1.763-8.055,2.683-.327-1.4-.706-2.929-1.02-4.475a1,1,0,0,1,.378-.722A25.242,25.242,0,0,1,263.32,1018.675Z" transform="translate(-239.838 -999.89)" fill="#1b5e9b"/>
  <path id="Trazado_1490" data-name="Trazado 1490" d="M275.736,1024.256l-.78-6.835a14.572,14.572,0,0,1,5.949-.882,1.543,1.543,0,0,1,1.017.82,12.606,12.606,0,0,1,.838,5.459.689.689,0,0,1-.442.492C280.144,1023.645,277.963,1023.942,275.736,1024.256Z" transform="translate(-251.141 -998.705)" fill="#1b5e9b"/>
  <path id="Trazado_1491" data-name="Trazado 1491" d="M253.071,1019.988c-.2-1.246-.414-2.341-.519-3.448a1.252,1.252,0,0,1,.454-.935,12.838,12.838,0,0,1,6.684-2.593c1.528-.134,2.11.3,2.462,1.671.132.511,0,.747-.512.906A26.667,26.667,0,0,0,253.071,1019.988Z" transform="translate(-238.984 -996.805)" fill="#1b5e9b"/>
  <path id="Trazado_1492" data-name="Trazado 1492" d="M263.057,1056.6a11.046,11.046,0,0,1-2.564,5.329c-1.554,1.542-3.557,1.676-5.78.384,1.485-.973,1.815-2.488,1.92-4.073a.853.853,0,0,1,.826-.925c1.6-.249,3.207-.513,4.813-.756A4.306,4.306,0,0,1,263.057,1056.6Z" transform="translate(-240.157 -1020.442)" fill="#1b5e9b"/>
  <path id="Trazado_1493" data-name="Trazado 1493" d="M245.971,1052.4a22.37,22.37,0,0,1-1.388-3.327,3.1,3.1,0,0,1,.513-1.976c1-1.794,2.679-2.848,4.565-3.945.2,1.557.393,3,.561,4.441.075.642.339,1.434.07,1.9s-1.151.482-1.671.835C247.766,1050.9,246.986,1051.593,245.971,1052.4Z" transform="translate(-234.641 -1013.17)" fill="#1b5e9b"/>
  <path id="Trazado_1494" data-name="Trazado 1494" d="M290.187,1032.2c1.686-.315,2.328.029,2.671,1.561a12.684,12.684,0,0,1-.65,7.483.872.872,0,0,1-.512.505c-1.1.186-2.209.31-3.517.481A27.538,27.538,0,0,0,290.187,1032.2Z" transform="translate(-258.316 -1007.168)" fill="#1b5e9b"/>
  <path id="Trazado_1495" data-name="Trazado 1495" d="M240.736,1037.152c-2.478-5.177-.227-13.753,4.493-16.883.141,1.064.264,2.1.42,3.136a1.57,1.57,0,0,1-.553,1.474,13.99,13.99,0,0,0-4.519,8.89A24.6,24.6,0,0,0,240.736,1037.152Z" transform="translate(-232.021 -1000.755)" fill="#1b5e9b"/>
  <path id="Trazado_1496" data-name="Trazado 1496" d="M274.166,1062.555a17.608,17.608,0,0,0,7.42-4.322,13.928,13.928,0,0,0,3.127-4.789,1.292,1.292,0,0,1,1.062-.9c.58-.106,1.15-.263,1.724-.392.752-.168,1.016.06.828.8a3.534,3.534,0,0,1-.551,1.2c-2.927,4-6.52,7.067-11.513,8.147-.517.112-1.044.18-1.568.261A4.716,4.716,0,0,1,274.166,1062.555Z" transform="translate(-250.712 -1018.025)" fill="#1b5e9b"/>
  <path id="Trazado_1497" data-name="Trazado 1497" d="M236.981,1027.415a13.517,13.517,0,0,1-.009-6.269,21.984,21.984,0,0,1,4.154-8.644,2.564,2.564,0,0,1,.537-.587c.452-.293.94-.529,1.414-.788.117.486.252.968.348,1.458a2.877,2.877,0,0,1-1.242,3C238.568,1018.641,237.2,1022.769,236.981,1027.415Z" transform="translate(-230.334 -995.795)" fill="#1b5e9b"/>
  <path id="Trazado_1498" data-name="Trazado 1498" d="M266.653,1062.766c2.4-1.811,3.062-4.374,3.754-6.947l5.039-.38C274.413,1058.936,270.124,1062.561,266.653,1062.766Z" transform="translate(-246.636 -1019.838)" fill="#1b5e9b"/>
  <path id="Trazado_1499" data-name="Trazado 1499" d="M270.235,1062.772c3.708-1.365,5.983-4.149,7.626-7.555a1.258,1.258,0,0,1,1.171-.859c.989-.075,1.966-.3,2.96-.459C281.319,1057.7,275.425,1062.152,270.235,1062.772Z" transform="translate(-248.579 -1019.002)" fill="#1b5e9b"/>
  <path id="Trazado_1500" data-name="Trazado 1500" d="M244.063,1039.613c.034-3.54,1.658-6.338,4.159-8.991.331,1.709.64,3.2.882,4.7.027.168-.292.461-.513.589A14.375,14.375,0,0,0,244.063,1039.613Z" transform="translate(-234.379 -1006.372)" fill="#1b5e9b"/>
  <path id="Trazado_1501" data-name="Trazado 1501" d="M253.316,1059.357a4.064,4.064,0,0,1-.939,3.2c-.425.448-.9.783-1.607.274-.729-.526-.6-1.071-.244-1.664A4.684,4.684,0,0,1,253.316,1059.357Z" transform="translate(-237.73 -1021.964)" fill="#1b5e9b"/>
</svg>
