<svg xmlns="http://www.w3.org/2000/svg" width="164.408" height="30.732" viewBox="0 0 164.408 30.732">
  <g id="Grupo_2657" data-name="Grupo 2657" transform="translate(-114.922 -571.127)">
    <g id="Grupo_1559" data-name="Grupo 1559" transform="translate(161.821 575.715)">
      <path id="Trazado_1521" data-name="Trazado 1521" d="M546.038,590.55a8.533,8.533,0,0,0-4.311-1.32,16.506,16.506,0,0,0-2.756-.219h-6.2v.388a.5.5,0,0,0-.061.236V610.95a.5.5,0,0,0,.061.236v.412h4.619V593.173a.5.5,0,0,1,.176-.077h1.276c3.695,0,5.411,1.262,5.411,4.451a6.682,6.682,0,0,1-.162,1.529,3.732,3.732,0,0,1-.926,1.186c-.929.724-2.516.814-3.984.814a.5.5,0,0,0-.436.753l2.364,4.115c1.19,2.422,2.516,5.091,2.763,5.471a.4.4,0,0,0,.336.181h4.416a.287.287,0,0,0,.242-.44l-3.514-6.688a.255.255,0,0,1,.1-.37c2.6-1.282,3.443-3.428,3.549-6.552a8.87,8.87,0,0,0-.472-3.307,6.787,6.787,0,0,0-2.49-3.69" transform="translate(-456.479 -588.414)" fill="#fff"/>
      <path id="Trazado_1522" data-name="Trazado 1522" d="M368.5,589.012h-3.815a.4.4,0,0,0-.4.4V611.2a.4.4,0,0,0,.4.4H368.5a.4.4,0,0,0,.4-.4V589.414a.4.4,0,0,0-.4-.4" transform="translate(-336.889 -588.414)" fill="#fff"/>
      <path id="Trazado_1523" data-name="Trazado 1523" d="M292.083,589.012h-3.961a.4.4,0,0,0-.364.233l-6.231,13.438a.4.4,0,0,1-.728,0l-6.286-13.441a.4.4,0,0,0-.364-.231h-3.962a.4.4,0,0,0-.4.4V611.2a.4.4,0,0,0,.4.4H274a.4.4,0,0,0,.4-.4V600.927a.4.4,0,0,1,.752-.2c1.041,1.872,2.8,5.163,3.43,6.336a.813.813,0,0,0,.719.431h3.659a.815.815,0,0,0,.72-.43c.627-1.173,2.388-4.463,3.429-6.334a.4.4,0,0,1,.752.2V611.2a.4.4,0,0,0,.4.4h3.815a.4.4,0,0,0,.4-.4V589.414a.4.4,0,0,0-.4-.4" transform="translate(-269.786 -588.414)" fill="#fff"/>
      <path id="Trazado_1524" data-name="Trazado 1524" d="M413.451,589.012h-3.815a.4.4,0,0,0-.4.4v10.519a.4.4,0,0,1-.757.187l-5.727-10.893a.4.4,0,0,0-.355-.215H398.42a.4.4,0,0,0-.4.4V611.2a.4.4,0,0,0,.4.4h3.815a.4.4,0,0,0,.4-.4V600.908a.4.4,0,0,1,.755-.19l5.728,10.668a.4.4,0,0,0,.354.212h3.977a.4.4,0,0,0,.4-.4V589.414a.4.4,0,0,0-.4-.4" transform="translate(-360.84 -588.414)" fill="#fff"/>
      <path id="Trazado_1525" data-name="Trazado 1525" d="M482.838,589.012H468.795a.4.4,0,0,0-.4.4V611.2a.4.4,0,0,0,.4.4h14.043a.4.4,0,0,0,.4-.4v-3.282a.4.4,0,0,0-.4-.4h-9.424a.4.4,0,0,1-.4-.4v-2.8a.4.4,0,0,1,.4-.4h6.807a.4.4,0,0,0,.4-.4v-3.183a.4.4,0,0,0-.4-.4h-6.807a.4.4,0,0,1-.4-.4V593.5a.4.4,0,0,1,.4-.4h9.424a.4.4,0,0,0,.4-.4v-3.282a.4.4,0,0,0-.4-.4" transform="translate(-410.811 -588.414)" fill="#fff"/>
      <path id="Trazado_1526" data-name="Trazado 1526" d="M606.6,586.951a11.592,11.592,0,1,0,11.614,11.592A11.4,11.4,0,0,0,606.6,586.951m0,19.032c-4.091,0-6.862-3.222-6.862-7.44s2.771-7.44,6.862-7.44,6.862,3.222,6.862,7.44-2.771,7.44-6.862,7.44" transform="translate(-500.7 -586.951)" fill="#fff"/>
    </g>
    <g id="Grupo_1560" data-name="Grupo 1560" transform="translate(114.922 571.127)">
      <path id="Trazado_1527" data-name="Trazado 1527" d="M167.6,630.743a.787.787,0,0,0,.021-.2c0-.182,0-.365.007-.547,0-.073.009-.146.013-.218,0-.046.006-.091.008-.137,0-.114,0-.228.006-.342,0-.068.009-.136.014-.2,0-.046.007-.091.008-.137,0-.1,0-.2.006-.3a.912.912,0,0,1,0-.109,3.544,3.544,0,0,0,.021-.451,3.456,3.456,0,0,1,.019-.41,1.02,1.02,0,0,0,0-.137c0-.3,0-.6.008-.9,0-.068.008-.137.011-.2s.007-.119.007-.178c0-.328,0-.657.008-.985,0-.068.008-.136.012-.2s.007-.119.008-.178c0-.26,0-.52.008-.78,0-.063.008-.127.011-.191s.008-.128.008-.191q0-.882.006-1.765,0-.26,0-.52a1.892,1.892,0,0,1,.014-.286.517.517,0,0,0,0-.082q0-.191,0-.383a.447.447,0,0,0,0-.068,2.213,2.213,0,0,1-.015-.328q0-.253-.006-.506a1.943,1.943,0,0,0-.015-.259,1.071,1.071,0,0,1-.006-.136c0-.123,0-.246,0-.369a1.761,1.761,0,0,0-.017-.259.964.964,0,0,1-.008-.123c0-.087-.01-.173-.019-.259a2.364,2.364,0,0,1,0-.464c0-.023.008-.045.008-.068a1.956,1.956,0,0,1,.064-.391,2.861,2.861,0,0,0,.057-.378c.015-.155.014-.31.026-.464a2.506,2.506,0,0,1,.111-.618,1.45,1.45,0,0,1,.155-.319c.057-.088.118-.173.177-.26s.126-.179.185-.271a1.315,1.315,0,0,0,.192-.565c.014-.132.019-.264.031-.4s.014-.246.029-.368c.029-.231.068-.46.111-.689.019-.1.032-.2.05-.3a.36.36,0,0,0-.011-.162c-.01-.035-.02-.07-.031-.1a2.566,2.566,0,0,1-.091-.456.445.445,0,0,1,.028-.2.168.168,0,0,1,.17-.113.329.329,0,0,1,.094.016.768.768,0,0,1,.262.145,1.723,1.723,0,0,1,.351.417,1.4,1.4,0,0,1,.169.431,1.711,1.711,0,0,1,.042.421.811.811,0,0,1-.007.1.674.674,0,0,0,0,.231.865.865,0,0,1,.008.1,3.514,3.514,0,0,0,.246,1.076.361.361,0,0,0,.166.191.991.991,0,0,0,.454.137,2.658,2.658,0,0,0,.438-.008c.126-.016.252-.039.377-.063.17-.033.339-.072.509-.105a2.346,2.346,0,0,1,.379-.049,1.024,1.024,0,0,0,.422-.1c.147-.073.3-.136.449-.2a1.844,1.844,0,0,1,.429-.137l.027-.006a.451.451,0,0,0,.295-.157,3.848,3.848,0,0,1,.618-.5.782.782,0,0,0,.268-.268c.033-.054.068-.108.106-.159a1.016,1.016,0,0,1,.1-.115.512.512,0,0,1,.369-.154.688.688,0,0,1,.215.034.228.228,0,0,1,.038.016.122.122,0,0,1,.068.124.251.251,0,0,1-.019.079.869.869,0,0,1-.072.132c-.047.068-.1.132-.148.2-.088.117-.177.232-.262.35s-.17.248-.258.371a2.794,2.794,0,0,1-.33.4c-.039.038-.081.074-.123.109a1.708,1.708,0,0,0-.237.226.692.692,0,0,1-.274.2c-.105.044-.212.084-.318.126s-.187.072-.279.112a2.23,2.23,0,0,0-.6.38c-.11.1-.217.2-.322.3-.049.047-.093.1-.139.151-.157.172-.319.339-.492.494a7.21,7.21,0,0,1-.585.472l-.467.335c-.026.019-.054.034-.081.051l-.286.187a.936.936,0,0,0-.362.452,2.037,2.037,0,0,0-.123.489,3.869,3.869,0,0,0-.024.505c0,.15,0,.3,0,.451a1.571,1.571,0,0,0,.016.218c.014.1.023.208.036.312.015.122.031.244.046.366q.02.156.038.312.023.19.044.38c0,.036.006.073.009.109l.017.177c0,.032.008.064.009.1a1.935,1.935,0,0,0,.021.231c.007.04.006.082.009.123,0,.059.01.118.015.177,0,.014,0,.027.006.041.012.155.022.309.035.464s.028.327.043.49c0,.009,0,.018,0,.027q.017.245.035.491c0,.063.011.127.016.19,0,.009,0,.018,0,.027q.018.245.035.491c0,.064.01.127.016.191,0,.014,0,.027.005.041.012.173.023.346.034.518,0,.059.01.118.014.177,0,.014,0,.027.005.041.012.182.023.364.035.546,0,.073.011.145.017.218,0,.009,0,.018,0,.027,0,.178.027.354.034.532a2.24,2.24,0,0,0,.018.245,1.34,1.34,0,0,1,.01.164c0,.082.007.164.017.245a1.912,1.912,0,0,1,.01.191,1.622,1.622,0,0,0,.018.246.139.139,0,0,1,0,.027c0,.2.029.391.034.587,0,.077.011.155.017.232,0,.055.008.109.009.164a2.709,2.709,0,0,0,.019.286c.009.063.006.127.01.191s.012.154.017.232.008.137.01.205c0,.091.007.182.018.273s.007.164.009.246a.174.174,0,0,1-.005.041.069.069,0,0,1-.041.051.988.988,0,0,1-.212.054q-.127.026-.255.048-.3.049-.594.095c-.108.017-.217.032-.325.044-.127.015-.254.026-.381.038-.027,0-.055,0-.082.008a1.506,1.506,0,0,1-.245.02.293.293,0,0,0-.134.023Z" transform="translate(-152.327 -600.012)" fill="#fff"/>
      <path id="Trazado_1528" data-name="Trazado 1528" d="M146.081,630.738a.38.38,0,0,0-.079-.02c-.21-.008-.418-.031-.626-.056-.068-.008-.136-.017-.2-.023-.218-.02-.434-.057-.649-.093-.265-.044-.53-.093-.792-.154-.027-.006-.054-.011-.079-.02a.082.082,0,0,1-.062-.081,2.293,2.293,0,0,1,.01-.328c.007-.059.012-.118.014-.177a3.3,3.3,0,0,1,.022-.355,1.51,1.51,0,0,0,.008-.178,2.352,2.352,0,0,1,.017-.259,1.822,1.822,0,0,0,.01-.191,1.778,1.778,0,0,1,.017-.245.655.655,0,0,0,.008-.1,2.42,2.42,0,0,1,.024-.355c0-.192.029-.382.034-.573,0-.055.009-.109.014-.164,0-.014,0-.027.005-.041.012-.168.023-.337.035-.5s.024-.327.036-.491c.008-.1.017-.209.02-.314a.587.587,0,0,1,0-.082,2.566,2.566,0,0,0,.023-.369.491.491,0,0,1,0-.068,2.756,2.756,0,0,0,.024-.382.38.38,0,0,1,0-.055,2.851,2.851,0,0,0,.025-.382c0-.036.006-.073.009-.109,0-.018.007-.036.007-.054,0-.169.028-.336.036-.5,0-.059.01-.118.015-.177,0-.014,0-.027.005-.041.012-.159.019-.319.036-.477s.018-.346.043-.518c0-.009,0-.018,0-.027,0-.137.019-.273.03-.409.008-.086.008-.173.023-.259.006-.036,0-.073.008-.109s.009-.1.014-.15c0-.018.006-.036.008-.054.012-.132.023-.263.035-.395.008-.081.018-.163.028-.244.023-.176.047-.352.068-.529.015-.122.027-.244.04-.367,0-.036.009-.073.013-.109s.01-.091.012-.136c0-.087.013-.173.019-.259.016-.246.012-.492,0-.738-.021-.13-.024-.263-.053-.393a1.586,1.586,0,0,0-.12-.363.926.926,0,0,0-.331-.392c-.046-.029-.09-.062-.137-.09a10.018,10.018,0,0,1-1.1-.806,4.284,4.284,0,0,1-.348-.308c-.109-.11-.219-.219-.329-.329s-.244-.246-.369-.366c-.082-.079-.168-.154-.255-.227a1.38,1.38,0,0,0-.279-.171c-.156-.076-.319-.136-.481-.2l-.2-.079a1.144,1.144,0,0,1-.228-.124.445.445,0,0,1-.119-.111.7.7,0,0,0-.155-.154,2.241,2.241,0,0,1-.35-.345,5.424,5.424,0,0,1-.4-.54,4.821,4.821,0,0,0-.335-.45c-.041-.049-.08-.1-.117-.152a.788.788,0,0,1-.06-.107.277.277,0,0,1-.021-.065.148.148,0,0,1,.11-.19.639.639,0,0,1,.4.011.314.314,0,0,1,.115.073,1.157,1.157,0,0,1,.181.2c.038.057.079.111.119.167a.714.714,0,0,0,.207.2,2.779,2.779,0,0,1,.363.268c.062.054.122.11.18.167a.649.649,0,0,0,.406.234l.053.013a2.755,2.755,0,0,1,.553.2c.12.056.241.109.361.164a.624.624,0,0,0,.2.054c.091.009.181.02.272.027a2.346,2.346,0,0,1,.257.039c.161.032.321.069.482.1.143.027.287.055.432.068a1.9,1.9,0,0,0,.6-.021.924.924,0,0,0,.253-.1.4.4,0,0,0,.173-.188,1.087,1.087,0,0,0,.043-.1,4.231,4.231,0,0,0,.181-.757,3.813,3.813,0,0,0,.026-.491c0-.1,0-.192,0-.287a1.527,1.527,0,0,1,.394-.981,1.337,1.337,0,0,1,.368-.28.334.334,0,0,1,.171-.039.167.167,0,0,1,.155.115.488.488,0,0,1,.024.2,2.353,2.353,0,0,1-.112.534c0,.013-.008.026-.012.039a.3.3,0,0,0-.01.161c.037.2.071.4.109.606.028.148.042.3.063.447,0,.031,0,.063.005.1,0,.059.01.118.015.177a.953.953,0,0,1,.009.1,3.367,3.367,0,0,0,.032.382,1,1,0,0,0,.083.3,1.345,1.345,0,0,0,.124.228c.076.108.149.218.229.323a1.716,1.716,0,0,1,.323.717,2.82,2.82,0,0,1,.059.529,3.194,3.194,0,0,0,.077.678c.01.044.019.089.028.134a3,3,0,0,1,.056.6c0,.059-.007.118-.011.177,0,.018-.006.036-.006.055,0,.219-.033.436-.034.655a3.122,3.122,0,0,1-.019.41,1.188,1.188,0,0,0,0,.164c0,.689-.007,1.377-.007,2.066,0,.894,0,1.788.007,2.681a2.2,2.2,0,0,0,.014.287,1.18,1.18,0,0,1,.006.15c0,.251,0,.5.008.753,0,.077.009.154.013.232,0,.05.006.1.007.151,0,.2,0,.4.008.6,0,.063.008.127.011.191s.008.1.009.15c0,.15,0,.3.006.451a2.046,2.046,0,0,0,.015.273,1.011,1.011,0,0,1,.006.136c0,.146,0,.292.006.438a2.049,2.049,0,0,0,.015.273,1.067,1.067,0,0,1,.007.136c0,.132,0,.265.005.4a2.339,2.339,0,0,0,.017.328.909.909,0,0,1,.005.123q0,.212.006.424a1.686,1.686,0,0,0,.015.259.443.443,0,0,1,0,.068q0,.247.006.493c0,.018,0,.036,0,.055Z" transform="translate(-131.739 -600.007)" fill="#fff"/>
      <path id="Trazado_1529" data-name="Trazado 1529" d="M163.6,571.127c.039.01.079.02.118.032a.053.053,0,0,1,.036.038.505.505,0,0,1,.012.081,1.712,1.712,0,0,1-.038.435,1.9,1.9,0,0,1-.344.767,2.315,2.315,0,0,1-.52.5,4.006,4.006,0,0,1-.8.434c-.224.091-.454.165-.685.238a.194.194,0,0,1-.053.008.027.027,0,0,1-.02-.014.028.028,0,0,1,0-.025c.022-.023.046-.044.07-.065.077-.064.155-.127.231-.192a2.355,2.355,0,0,0,.607-.783,2.15,2.15,0,0,0,.146-.483.055.055,0,0,0,0-.014c0-.043.024-.09-.018-.128-.046-.01-.078.02-.112.04a1.8,1.8,0,0,0-.4.311,2.222,2.222,0,0,0-.32.442,3.469,3.469,0,0,0-.273.655c-.009.03-.017.061-.028.091a.066.066,0,0,1-.027.027c-.011.007-.027-.01-.033-.035s-.013-.053-.017-.08-.015-.081-.019-.122c-.012-.15-.037-.3-.038-.449,0-.1,0-.2,0-.3a2.045,2.045,0,0,1,.017-.259c.013-.094.018-.19.035-.285a3.314,3.314,0,0,1,.134-.529c.023-.064.053-.126.082-.188a.11.11,0,0,1,.1-.066c.123-.008.244-.035.368-.033a.509.509,0,0,0,.1-.005,2.572,2.572,0,0,1,.368-.023.327.327,0,0,0,.147-.023Z" transform="translate(-147.697 -571.127)" fill="#fff"/>
      <path id="Trazado_1530" data-name="Trazado 1530" d="M212.189,615.728a.152.152,0,0,1-.093.011c-.085-.016-.171-.03-.255-.048a4.77,4.77,0,0,1-1.056-.371,7.057,7.057,0,0,1-1.074-.654c-.185-.133-.366-.271-.55-.407-.136-.1-.26-.215-.389-.323a.271.271,0,0,1-.028-.03c-.009-.01-.012-.032,0-.037a.047.047,0,0,1,.025-.008.208.208,0,0,1,.04.01c.148.045.3.091.445.133a5.28,5.28,0,0,0,.67.135,4.453,4.453,0,0,0,.887.023,2.928,2.928,0,0,0,.62-.1,3.021,3.021,0,0,0,.39-.127.555.555,0,0,1,.065-.021.058.058,0,0,1,.073.044c.016.066.031.133.042.2.035.216.07.432.1.648.017.113.026.226.039.339,0,.018,0,.037.006.055a1.79,1.79,0,0,1,.023.327.341.341,0,0,0,.022.148Z" transform="translate(-181.537 -601.47)" fill="#fff"/>
      <path id="Trazado_1531" data-name="Trazado 1531" d="M131.526,625.262c.155,0,.342.008.529.014a.71.71,0,0,1,.108.018c.015,0,.029.019.023.028s-.009.017-.016.02c-.029.013-.059.024-.089.035q-.263.1-.516.218a3.566,3.566,0,0,0-.54.321,2.634,2.634,0,0,0-.763.828,1.642,1.642,0,0,0-.128.257.1.1,0,0,0-.007.039c0,.007.011.019.016.018.059-.006.118-.011.176-.023a2.8,2.8,0,0,0,.585-.188,2.466,2.466,0,0,0,.513-.312,4.072,4.072,0,0,0,.593-.584c.1-.115.186-.236.277-.356a.635.635,0,0,1,.064-.069.027.027,0,0,1,.025,0,.029.029,0,0,1,.014.021.209.209,0,0,1,0,.054,8.237,8.237,0,0,1-.467,1.514,4.18,4.18,0,0,1-.5.89,3.035,3.035,0,0,1-.415.453,2.666,2.666,0,0,1-1.5.658,3.541,3.541,0,0,1-.4.02c-.1,0-.2-.008-.3-.017-.15-.015-.3-.037-.447-.063-.193-.034-.382-.086-.572-.137a.193.193,0,0,1-.038-.015.08.08,0,0,1-.042-.052.267.267,0,0,1-.012-.067c0-.068,0-.137.005-.2,0-.046.01-.091.011-.136a3.915,3.915,0,0,1,.083-.719,3.465,3.465,0,0,1,.217-.69,2.769,2.769,0,0,1,.353-.6,2.832,2.832,0,0,1,.23-.252,2.558,2.558,0,0,1,.576-.435,3.5,3.5,0,0,1,1-.366,3.67,3.67,0,0,1,.445-.073,4.87,4.87,0,0,1,.49-.038C131.23,625.271,131.363,625.265,131.526,625.262Z" transform="translate(-123.988 -609.567)" fill="#fff"/>
      <path id="Trazado_1532" data-name="Trazado 1532" d="M196.342,628.516c0,.07,0,.147,0,.225a.644.644,0,0,1-.006.082.07.07,0,0,1-.039.053.311.311,0,0,1-.05.021c-.052.016-.1.032-.158.046a6.586,6.586,0,0,1-.684.133c-.031,0-.063.005-.1.007a.967.967,0,0,0-.109.007,1.842,1.842,0,0,1-.341.016c-.055,0-.109-.007-.164-.011-.027,0-.054-.007-.081-.009a2.64,2.64,0,0,1-.972-.259,2.516,2.516,0,0,1-.484-.307,3.029,3.029,0,0,1-.591-.641,4.635,4.635,0,0,1-.495-.912,7.146,7.146,0,0,1-.288-.854c-.046-.167-.083-.336-.123-.5a.223.223,0,0,1-.009-.108s0-.01.008-.01.021,0,.025,0a.507.507,0,0,1,.054.061c.046.063.089.127.135.189a4.161,4.161,0,0,0,.467.535,2.994,2.994,0,0,0,.545.41,2.693,2.693,0,0,0,.906.334c.027.005.054.007.081.01a.034.034,0,0,0,.035-.045c-.008-.021-.017-.043-.026-.063a2.475,2.475,0,0,0-.643-.858,3.361,3.361,0,0,0-.854-.537c-.155-.067-.31-.133-.471-.186a.218.218,0,0,1-.049-.023.028.028,0,0,1-.009-.023c0-.007.01-.014.017-.018a.1.1,0,0,1,.026-.007,1.413,1.413,0,0,1,.244-.025,2.783,2.783,0,0,0,.355-.017.34.34,0,0,1,.1,0,2.582,2.582,0,0,0,.314.015,2.711,2.711,0,0,1,.313.02c.1.014.2.019.3.032a4.2,4.2,0,0,1,.914.227,3.021,3.021,0,0,1,.925.548,2.493,2.493,0,0,1,.393.436,2.969,2.969,0,0,1,.455.988,4.514,4.514,0,0,1,.109.577C196.335,628.217,196.338,628.362,196.342,628.516Z" transform="translate(-169.404 -609.54)" fill="#fff"/>
      <path id="Trazado_1533" data-name="Trazado 1533" d="M189.374,591.32c0-.055,0-.109,0-.164a1.672,1.672,0,0,0-.069-.444.158.158,0,0,0-.025-.048c0-.006-.016-.007-.024-.006a.044.044,0,0,0-.023.013.653.653,0,0,0-.067.069,2.869,2.869,0,0,0-.28.42,3,3,0,0,0-.3.863,3.078,3.078,0,0,0-.061.625c0,.068,0,.137,0,.205s.009.136.016.2a.618.618,0,0,1,.006.163.025.025,0,0,1-.017.017.028.028,0,0,1-.024-.008.414.414,0,0,1-.037-.057,7.043,7.043,0,0,1-.4-.929,5.64,5.64,0,0,1-.191-.656c-.033-.152-.055-.3-.077-.458a3.637,3.637,0,0,1-.02-.628,2.46,2.46,0,0,1,.1-.605,2.382,2.382,0,0,1,.132-.359,2.283,2.283,0,0,1,.378-.583l.1-.112a.756.756,0,0,1,.056-.059,3.772,3.772,0,0,1,.562-.433,5.934,5.934,0,0,1,.666-.349c.054-.024.108-.048.163-.07a.342.342,0,0,1,.078-.023.1.1,0,0,1,.051.013.092.092,0,0,1,.03.027,4.889,4.889,0,0,1,.616.934,3.172,3.172,0,0,1,.217.6,2.179,2.179,0,0,1,.044.228,2.984,2.984,0,0,1,.038.394,2.552,2.552,0,0,1-.256,1.137,3.472,3.472,0,0,1-.48.746,3.794,3.794,0,0,1-.3.334c-.1.093-.2.186-.3.275-.163.139-.33.273-.5.4-.133.1-.268.189-.4.283a.014.014,0,0,1-.013,0,.047.047,0,0,1-.01-.023.061.061,0,0,1,.01-.025c.007-.012.014-.023.021-.035a4.741,4.741,0,0,0,.274-.5,3.437,3.437,0,0,0,.313-1.03.907.907,0,0,0,.008-.109c0-.077,0-.155,0-.232Z" transform="translate(-166.657 -583.04)" fill="#fff"/>
      <path id="Trazado_1534" data-name="Trazado 1534" d="M139.857,590.7a3.431,3.431,0,0,1-.072.725,4.871,4.871,0,0,1-.2.725,9.5,9.5,0,0,1-.43,1.02.15.15,0,0,1-.044.068.018.018,0,0,1-.012,0,.015.015,0,0,1-.01-.007.056.056,0,0,1-.008-.025c0-.078.005-.155.013-.232a2.574,2.574,0,0,0,0-.532c0-.032-.007-.063-.009-.1a3.165,3.165,0,0,0-.271-1.1,1.983,1.983,0,0,0-.376-.567.452.452,0,0,0-.052-.043c-.008-.007-.03,0-.035.012a.266.266,0,0,0-.016.038,2.364,2.364,0,0,0-.069.348,2.159,2.159,0,0,0-.023.354c0,.05.006.1.011.15.009.082.015.163.03.244a3.111,3.111,0,0,0,.258.79,5.7,5.7,0,0,0,.3.554,1.03,1.03,0,0,1,.055.109s-.006.015-.011.022a.014.014,0,0,1-.013,0,.563.563,0,0,1-.06-.032,8.308,8.308,0,0,1-.712-.532c-.118-.1-.236-.2-.35-.306a2.458,2.458,0,0,1-.17-.177c-.079-.089-.157-.177-.232-.269s-.148-.185-.216-.282a2.812,2.812,0,0,1-.463-1.043,1.934,1.934,0,0,1-.05-.42c0-.046,0-.091,0-.137a2.228,2.228,0,0,1,.1-.688,3.309,3.309,0,0,1,.305-.715,5.6,5.6,0,0,1,.425-.636c.033-.043.07-.084.106-.125a.062.062,0,0,1,.063-.016.392.392,0,0,1,.065.021,5.642,5.642,0,0,1,.921.478,3.14,3.14,0,0,1,.665.585,2.225,2.225,0,0,1,.282.419,2.649,2.649,0,0,1,.226.571,2.36,2.36,0,0,1,.081.622C139.857,590.616,139.857,590.648,139.857,590.7Z" transform="translate(-130.327 -583.027)" fill="#fff"/>
      <path id="Trazado_1535" data-name="Trazado 1535" d="M152.157,591.648c0,.018,0,.037,0,.055a2.361,2.361,0,0,1-.216.981,4.062,4.062,0,0,1-.479.811c-.122.165-.254.322-.385.48l-.018.02-.512.514a.079.079,0,0,1-.057.032.027.027,0,0,1-.019-.015.04.04,0,0,1,0-.027c.01-.025.021-.05.034-.075a3.734,3.734,0,0,0,.2-.464,3.58,3.58,0,0,0,.152-.581,2.891,2.891,0,0,0,.024-.709,1.948,1.948,0,0,0-.137-.6.306.306,0,0,0-.019-.036.035.035,0,0,0-.048,0l-.01.009a1.5,1.5,0,0,0-.236.383,2.486,2.486,0,0,0-.157.523,3.645,3.645,0,0,0-.065.734c0,.05.006.1.011.15,0,.023.008.045.008.068a3.03,3.03,0,0,0,.073.5.239.239,0,0,1,.005.054.026.026,0,0,1-.016.018.038.038,0,0,1-.025-.006.07.07,0,0,1-.019-.019,6.762,6.762,0,0,1-.484-.761c-.042-.081-.082-.163-.124-.244a4.749,4.749,0,0,1-.277-.655,3.256,3.256,0,0,1-.14-.584c-.014-.1-.02-.2-.028-.3a.657.657,0,0,1,0-.109,4.214,4.214,0,0,1,.063-.5,2.307,2.307,0,0,1,.307-.742,2.579,2.579,0,0,1,.413-.508,4.712,4.712,0,0,1,.811-.625.521.521,0,0,1,.1-.046.081.081,0,0,1,.052.006.161.161,0,0,1,.044.032c.055.048.11.1.163.146.033.031.066.063.1.1.065.07.129.142.193.213a3.327,3.327,0,0,1,.365.495,2.578,2.578,0,0,1,.342.96.805.805,0,0,1,.009.109c0,.073,0,.146,0,.219Z" transform="translate(-139.259 -584.08)" fill="#fff"/>
      <path id="Trazado_1536" data-name="Trazado 1536" d="M177.579,593.156a2.4,2.4,0,0,0,.184.953,3.124,3.124,0,0,0,.315.6c.07.107.143.212.213.318,0,0,0,.016-.007.023s-.008,0-.012,0a.087.087,0,0,1-.026-.009c-.02-.011-.039-.024-.058-.036a7.54,7.54,0,0,1-.75-.548,4.866,4.866,0,0,1-.45-.418,3.918,3.918,0,0,1-.563-.771,2.39,2.39,0,0,1-.267-.814c-.006-.04,0-.082-.009-.123a2.51,2.51,0,0,1,0-.423,1.81,1.81,0,0,1,.021-.19,2.735,2.735,0,0,1,.2-.665,3.684,3.684,0,0,1,.548-.879l.026-.031a.1.1,0,0,1,.123-.032c.059.024.118.048.177.074a4.184,4.184,0,0,1,.93.543,2.425,2.425,0,0,1,.66.776,2.483,2.483,0,0,1,.248.778,2.981,2.981,0,0,1,.023.573,3.286,3.286,0,0,1-.039.353,4.956,4.956,0,0,1-.274.986c-.089.239-.193.472-.3.7a.109.109,0,0,1-.023.033.028.028,0,0,1-.024,0,.029.029,0,0,1-.018-.018.4.4,0,0,1-.007-.068c0-.064,0-.128,0-.191a3.335,3.335,0,0,0-.092-.813,2.413,2.413,0,0,0-.31-.77,2.037,2.037,0,0,0-.316-.393.185.185,0,0,0-.045-.03.026.026,0,0,0-.024.007.141.141,0,0,0-.023.048A1.85,1.85,0,0,0,177.579,593.156Z" transform="translate(-158.392 -584.606)" fill="#fff"/>
      <path id="Trazado_1537" data-name="Trazado 1537" d="M198.767,617.231h-.082a2.43,2.43,0,0,0-.53.049.376.376,0,0,1-.081,0c-.006,0-.016-.01-.017-.017a.035.035,0,0,1,.007-.024.071.071,0,0,1,.021-.017c.2-.123.393-.248.6-.36a5.339,5.339,0,0,1,.531-.253,3.75,3.75,0,0,1,.827-.237,3.192,3.192,0,0,1,.571-.05,2.3,2.3,0,0,1,1.57.643c.037.034.071.07.108.1a3.617,3.617,0,0,1,.593.765c.045.074.085.151.125.228a.073.073,0,0,1-.008.078.209.209,0,0,1-.017.022l-.056.06a3.774,3.774,0,0,1-.847.665,2.8,2.8,0,0,1-.746.3,3.382,3.382,0,0,1-.446.063.4.4,0,0,1-.082,0,3.117,3.117,0,0,1-.66-.1,2.856,2.856,0,0,1-.613-.268,5.33,5.33,0,0,1-.64-.444,3.946,3.946,0,0,1-.347-.309q-.1-.1-.2-.2c-.115-.111-.213-.238-.32-.356a.231.231,0,0,1-.028-.046.014.014,0,0,1,0-.013c.006-.006.015-.014.02-.013a.455.455,0,0,1,.076.029,4.01,4.01,0,0,0,.439.191,3,3,0,0,0,.7.174,2.3,2.3,0,0,0,.368.018,2.381,2.381,0,0,0,.709-.134.441.441,0,0,0,.048-.025.032.032,0,0,0,.008-.037.146.146,0,0,0-.025-.032,1.732,1.732,0,0,0-.177-.127,2.4,2.4,0,0,0-.295-.144,2.837,2.837,0,0,0-.581-.151A3.2,3.2,0,0,0,198.767,617.231Z" transform="translate(-173.907 -603.222)" fill="#fff"/>
      <path id="Trazado_1538" data-name="Trazado 1538" d="M122.365,619.837a2.06,2.06,0,0,1-.787-.149,2.5,2.5,0,0,1-.573-.317,3.625,3.625,0,0,1-.659-.633c-.044-.053-.085-.107-.127-.161l-.032-.044a.091.091,0,0,1,0-.114c.011-.015.02-.03.031-.045a5.022,5.022,0,0,1,.331-.4c.019-.02.038-.039.056-.06a2.568,2.568,0,0,1,.436-.392,2.354,2.354,0,0,1,.573-.317,2.044,2.044,0,0,1,.707-.139c.041,0,.082,0,.123,0a2.206,2.206,0,0,1,.739.116,3.655,3.655,0,0,1,.736.328,6.23,6.23,0,0,1,.663.435c.117.088.229.181.342.273a.277.277,0,0,1,.043.052.013.013,0,0,1,0,.013c0,.006-.013.016-.018.016a.456.456,0,0,1-.08-.014,3.612,3.612,0,0,0-.4-.1,2.637,2.637,0,0,0-.379-.048c-.041,0-.082-.008-.123-.011a1.15,1.15,0,0,0-.123-.008,2.283,2.283,0,0,0-1.051.263c-.026.014-.067.022-.063.062s.035.039.059.052a1.726,1.726,0,0,0,.368.146,2.528,2.528,0,0,0,.689.092c.077,0,.154-.015.231-.019a2.718,2.718,0,0,0,.351-.051,4.106,4.106,0,0,0,.488-.132.427.427,0,0,1,.066-.016c.006,0,.014.008.02.014a.013.013,0,0,1,0,.013.141.141,0,0,1-.023.033,6.919,6.919,0,0,1-.7.564,4.447,4.447,0,0,1-.933.511,2.778,2.778,0,0,1-.648.163c-.059.008-.117.017-.176.022S122.416,619.837,122.365,619.837Z" transform="translate(-118.645 -603.746)" fill="#fff"/>
      <path id="Trazado_1539" data-name="Trazado 1539" d="M180.406,577.746a2.172,2.172,0,0,1,.232-1,3.128,3.128,0,0,1,.313-.513c.067-.092.138-.182.208-.272a.524.524,0,0,1,.055-.06.064.064,0,0,1,.064-.013l.026.008a3.973,3.973,0,0,1,.961.544,2.131,2.131,0,0,1,.794,1.257,2.871,2.871,0,0,1,.047.338,1.472,1.472,0,0,1,0,.381,2.967,2.967,0,0,1-.153.789,5.681,5.681,0,0,1-.285.739c-.046.1-.091.2-.137.3a.373.373,0,0,1-.036.057.016.016,0,0,1-.025,0,.02.02,0,0,1-.007-.011c0-.022,0-.045,0-.068a2.174,2.174,0,0,0-.014-.409.588.588,0,0,1-.005-.068,2.8,2.8,0,0,0-.246-.989,1.806,1.806,0,0,0-.322-.473.406.406,0,0,0-.064-.05.037.037,0,0,0-.048.013.43.43,0,0,0-.022.064,2.045,2.045,0,0,0-.029.585,2.226,2.226,0,0,0,.088.455,3.358,3.358,0,0,0,.455.93c.02.03.038.061.057.092a.014.014,0,0,1,0,.013c-.007,0-.017.013-.022.01a.45.45,0,0,1-.072-.038c-.143-.1-.284-.2-.418-.308a5.2,5.2,0,0,1-.541-.481,3.784,3.784,0,0,1-.555-.726,2.2,2.2,0,0,1-.282-.851C180.407,577.911,180.409,577.828,180.406,577.746Z" transform="translate(-161.42 -574.503)" fill="#fff"/>
      <path id="Trazado_1540" data-name="Trazado 1540" d="M146.459,580.039c0,.06.01.133.015.206a.134.134,0,0,1-.007.039.014.014,0,0,1-.009.009c-.008,0-.022,0-.025,0a.612.612,0,0,1-.05-.081c-.108-.216-.206-.437-.295-.662a4.222,4.222,0,0,1-.246-.881c-.009-.054-.014-.108-.02-.163,0-.032,0-.064-.008-.1a1.55,1.55,0,0,1,0-.422,3.315,3.315,0,0,1,.057-.35,2,2,0,0,1,.4-.83,2.461,2.461,0,0,1,.357-.357,3.383,3.383,0,0,1,.548-.359,3.74,3.74,0,0,1,.395-.189l.064-.024a.074.074,0,0,1,.087.022c.039.045.078.09.113.138a5.523,5.523,0,0,1,.314.464,2.552,2.552,0,0,1,.317.84,2.432,2.432,0,0,1,.041.531,1.9,1.9,0,0,1-.043.3,2.392,2.392,0,0,1-.279.71,3.239,3.239,0,0,1-.394.54,2.36,2.36,0,0,1-.2.22c-.141.123-.274.254-.424.367s-.3.225-.448.337a.512.512,0,0,1-.07.042.025.025,0,0,1-.023-.006.027.027,0,0,1,0-.025.743.743,0,0,1,.041-.071,4.559,4.559,0,0,0,.288-.512,2.606,2.606,0,0,0,.223-.658,2.066,2.066,0,0,0,.043-.489,1.886,1.886,0,0,0-.057-.378.117.117,0,0,0-.005-.012.032.032,0,0,0-.047-.01.478.478,0,0,0-.051.044,1.986,1.986,0,0,0-.372.57,2.537,2.537,0,0,0-.173.617A4.929,4.929,0,0,0,146.459,580.039Z" transform="translate(-136.848 -574.495)" fill="#fff"/>
      <path id="Trazado_1541" data-name="Trazado 1541" d="M163.721,594.358a.224.224,0,0,1,.066-.1,4.935,4.935,0,0,0,.39-.475,2.25,2.25,0,0,0,.371-.787,2.1,2.1,0,0,0,.049-.611.124.124,0,0,0-.008-.026.03.03,0,0,0-.034-.017.421.421,0,0,0-.059.032,1.823,1.823,0,0,0-.469.51,2.592,2.592,0,0,0-.3.7,3.994,3.994,0,0,0-.113.6.158.158,0,0,1-.017.05.024.024,0,0,1-.023,0,.074.074,0,0,1-.024-.031c-.035-.1-.071-.207-.1-.312a4.919,4.919,0,0,1-.127-.574,2.467,2.467,0,0,1-.042-.366.411.411,0,0,0,0-.068,1.883,1.883,0,0,1-.016-.355c0-.046.006-.091.01-.136s.009-.091.012-.136a2.284,2.284,0,0,1,.213-.816,2.037,2.037,0,0,1,.677-.791,2.908,2.908,0,0,1,.651-.344,4.572,4.572,0,0,1,.548-.172c.118-.028.131-.026.189.075a3.34,3.34,0,0,1,.444,1.2,2.285,2.285,0,0,1,.014.532,2.128,2.128,0,0,1-.15.595,2.193,2.193,0,0,1-.236.431,4.291,4.291,0,0,1-.285.35,1.049,1.049,0,0,1-.107.106,4.587,4.587,0,0,1-.725.536c-.213.125-.427.245-.649.352a.347.347,0,0,1-.141.048Z" transform="translate(-149.244 -584.618)" fill="#fff"/>
      <path id="Trazado_1542" data-name="Trazado 1542" d="M121.51,598.821c0,.085,0,.162,0,.24,0,.05-.007.1-.011.15s-.01.127-.016.191a.237.237,0,0,1-.015.051.013.013,0,0,1-.011.007c-.008,0-.021,0-.023-.007a.942.942,0,0,1-.037-.088c-.045-.124-.085-.251-.134-.373a3.28,3.28,0,0,0-.371-.683,2.07,2.07,0,0,0-.771-.66.316.316,0,0,0-.064-.023c-.006,0-.018.007-.021.013a.1.1,0,0,0-.005.04,1.82,1.82,0,0,0,.068.348,2.187,2.187,0,0,0,.393.76,3.1,3.1,0,0,0,.478.486l.275.226a.18.18,0,0,1,.03.028.032.032,0,0,1,.005.025.025.025,0,0,1-.02.013c-.072-.013-.144-.025-.214-.044-.211-.056-.422-.113-.63-.183a5.5,5.5,0,0,1-.72-.3,3.288,3.288,0,0,1-.594-.388c-.06-.049-.113-.105-.169-.159-.03-.028-.058-.058-.088-.086a.081.081,0,0,0-.076-.02l-.2.047a.589.589,0,0,1-.067.01.045.045,0,0,1-.048-.052.293.293,0,0,1,.037-.1.068.068,0,0,1,.068-.036c.036,0,.072.014.108.019a.087.087,0,0,0,.038-.006c.01,0,.006-.027-.008-.049l-.022-.035c-.014-.023-.029-.046-.043-.07a.15.15,0,0,1-.011-.144c.034-.08.065-.161.1-.239.109-.231.211-.465.331-.69.094-.177.191-.352.286-.529s.213-.371.324-.555c.021-.035.043-.07.066-.1a.082.082,0,0,1,.107-.034l.039.013a2.309,2.309,0,0,1,.945.632,2.121,2.121,0,0,1,.275.391,2.942,2.942,0,0,1,.3.818,5.579,5.579,0,0,1,.111,1.146Z" transform="translate(-117.43 -588.657)" fill="#fff"/>
      <path id="Trazado_1543" data-name="Trazado 1543" d="M208.275,595.821a.163.163,0,0,1,.045.024.363.363,0,0,1,.049.065c.088.144.178.286.263.432q.309.533.573,1.089c.084.177.161.357.242.536a.388.388,0,0,1,.014.039.1.1,0,0,1-.006.08.667.667,0,0,1-.047.083,1.8,1.8,0,0,1-.115.153,3.113,3.113,0,0,1-.776.643,4.732,4.732,0,0,1-1.107.464c-.176.049-.353.092-.53.136a.29.29,0,0,1-.067.007.027.027,0,0,1-.019-.015.03.03,0,0,1,0-.025.145.145,0,0,1,.031-.026,3.381,3.381,0,0,0,.634-.56,2.365,2.365,0,0,0,.578-1.2.439.439,0,0,0,0-.068.037.037,0,0,0-.05-.03c-.013,0-.026.009-.038.015a1.978,1.978,0,0,0-.484.33,2.384,2.384,0,0,0-.41.51,3.322,3.322,0,0,0-.3.656c-.03.086-.057.173-.087.259a.258.258,0,0,1-.025.048.013.013,0,0,1-.012.006c-.008,0-.019-.007-.022-.013a.214.214,0,0,1-.013-.052,6.588,6.588,0,0,1-.027-.9c0-.059.008-.118.014-.177,0-.032.007-.063.01-.1a3.645,3.645,0,0,1,.294-1.189,2.073,2.073,0,0,1,.426-.631,2.264,2.264,0,0,1,.286-.255,2.546,2.546,0,0,1,.618-.319A.516.516,0,0,1,208.275,595.821Z" transform="translate(-179.997 -588.661)" fill="#fff"/>
      <path id="Trazado_1544" data-name="Trazado 1544" d="M178.774,615.525c-.033,0-.07,0-.106,0a.3.3,0,0,1-.054-.009.049.049,0,0,1-.033-.053.3.3,0,0,1,.013-.039,3.436,3.436,0,0,0,.176-.5,1.187,1.187,0,0,0,.041-.228.983.983,0,0,1,.049-.226c.014-.039.027-.078.041-.116a.843.843,0,0,0,.05-.253,1.133,1.133,0,0,1,.205-.586.523.523,0,0,1,.307-.216.291.291,0,0,1,.067-.01.128.128,0,0,1,.124.089.3.3,0,0,1,.012.067.779.779,0,0,1-.012.2c-.031.142-.059.286-.093.427a3.567,3.567,0,0,0-.088.553,1.549,1.549,0,0,1-.057.295c-.03.11-.059.22-.087.33,0,.006.007.015.013.021a.015.015,0,0,0,.013,0,.2.2,0,0,0,.13-.13c.008-.026.017-.052.025-.078a.957.957,0,0,1,.1-.211c.043-.07.086-.14.13-.209a1.792,1.792,0,0,0,.2-.4,1.937,1.937,0,0,1,.173-.386c.019-.031.033-.065.051-.1a2.626,2.626,0,0,0,.26-.7.545.545,0,0,1,.118-.243.576.576,0,0,1,.147-.121.318.318,0,0,1,.184-.045.178.178,0,0,1,.181.21,1.006,1.006,0,0,1-.035.16c-.015.062-.031.123-.045.186a.72.72,0,0,0-.016.108,1.059,1.059,0,0,1-.054.267,4.744,4.744,0,0,0-.138.543c-.03.143-.061.285-.1.426a1.766,1.766,0,0,1-.216.5.635.635,0,0,0-.04.071c0,.006,0,.016.007.023s.01,0,.013,0a1.167,1.167,0,0,0,.184-.183,1.834,1.834,0,0,1,.212-.213,2.528,2.528,0,0,1,.289-.229.213.213,0,0,0,.083-.105,2.479,2.479,0,0,1,.256-.467c.113-.166.227-.331.324-.506.031-.056.057-.114.087-.171s.069-.139.109-.2a.485.485,0,0,1,.293-.211.215.215,0,0,1,.274.141.3.3,0,0,1,.014.174.974.974,0,0,1-.058.2c-.081.179-.138.367-.207.55-.03.081-.06.162-.094.242a1.846,1.846,0,0,1-.194.36,1.829,1.829,0,0,0-.1.163.27.27,0,0,1-.18.135l-.133.032a1.976,1.976,0,0,0-.339.107c-.143.061-.284.123-.426.185-.071.031-.141.063-.214.091a.654.654,0,0,1-.226.048,2.855,2.855,0,0,0-.541.074c-.161.034-.32.071-.481.1a2.948,2.948,0,0,1-.311.048A1.823,1.823,0,0,1,178.774,615.525Z" transform="translate(-160.124 -600.609)" fill="#fff"/>
      <path id="Trazado_1545" data-name="Trazado 1545" d="M143.413,630.019a2.132,2.132,0,0,1,.146-.795,4.068,4.068,0,0,1,.509-.98c.015-.022.028-.049.056-.057a.027.027,0,0,1,.022.01.037.037,0,0,1,.006.026c-.008.058-.016.117-.024.176a2.381,2.381,0,0,0,0,.667,2.289,2.289,0,0,0,.109.451,1.166,1.166,0,0,0,.159.3.475.475,0,0,0,.047.049.034.034,0,0,0,.048-.009.229.229,0,0,0,.02-.036,1.148,1.148,0,0,0,.079-.318,2.349,2.349,0,0,0,0-.478,2.381,2.381,0,0,0-.16-.635c-.034-.084-.071-.168-.106-.251a.013.013,0,0,1,0-.012.075.075,0,0,1,.024-.007.019.019,0,0,1,.012.005,4.279,4.279,0,0,1,.482.464c.1.115.2.229.285.349a3.075,3.075,0,0,1,.272.442,1.794,1.794,0,0,1,.187.611,1.9,1.9,0,0,1,.021.217,1.719,1.719,0,0,1-.141.692,2.611,2.611,0,0,1-.363.593,3.41,3.41,0,0,1-.237.265c-.019.019-.039.039-.059.057-.071.063-.1.067-.181.013a4.675,4.675,0,0,1-.548-.385,1.989,1.989,0,0,1-.464-.551,1.775,1.775,0,0,1-.17-.475A1.72,1.72,0,0,1,143.413,630.019Z" transform="translate(-135.151 -611.598)" fill="#fff"/>
      <path id="Trazado_1546" data-name="Trazado 1546" d="M186.088,628.757a2.8,2.8,0,0,0-.04-.46.938.938,0,0,1-.007-.094c0-.006.009-.016.016-.018a.03.03,0,0,1,.025.006.221.221,0,0,1,.034.042c.049.077.1.152.146.231a4.336,4.336,0,0,1,.452,1.081,2.025,2.025,0,0,1,.065.623,1.786,1.786,0,0,1-.15.635,1.862,1.862,0,0,1-.526.672,5.164,5.164,0,0,1-.524.371c-.1.062-.115.058-.2-.02a2.589,2.589,0,0,1-.569-.729,1.768,1.768,0,0,1-.2-.621,1.46,1.46,0,0,1-.018-.3c.008-.081.016-.164.031-.244a2.157,2.157,0,0,1,.248-.677,3.46,3.46,0,0,1,.36-.515,6.115,6.115,0,0,1,.446-.461c.049-.047.105-.086.159-.129,0,0,.011,0,.013,0s.012.017.01.022c-.013.039-.028.077-.044.115a3.094,3.094,0,0,0-.2.681c0,.018-.007.036-.008.054a3.406,3.406,0,0,0,0,.533.984.984,0,0,0,.086.315.044.044,0,0,0,.018.019.032.032,0,0,0,.025,0,.142.142,0,0,0,.042-.034,1.232,1.232,0,0,0,.17-.311,1.84,1.84,0,0,0,.119-.49A2.13,2.13,0,0,0,186.088,628.757Z" transform="translate(-164.39 -611.616)" fill="#fff"/>
      <path id="Trazado_1547" data-name="Trazado 1547" d="M144.66,615.163c-.011-.03-.02-.061-.033-.089s-.036-.074-.056-.11a2.6,2.6,0,0,1-.239-.682c-.022-.1-.043-.205-.066-.308-.013-.058-.03-.115-.046-.172,0-.013-.008-.026-.012-.039a1.844,1.844,0,0,1-.119-.532,1.006,1.006,0,0,0-.047-.213.982.982,0,0,1-.033-.118.256.256,0,0,1,.008-.135.171.171,0,0,1,.137-.119.253.253,0,0,1,.148.011.486.486,0,0,1,.1.05.574.574,0,0,1,.236.309c.009.031.018.061.026.092.014.053.029.106.039.159a1.521,1.521,0,0,0,.2.506,3.447,3.447,0,0,1,.223.469,2.457,2.457,0,0,0,.211.413c.02.031.037.063.057.094a1.335,1.335,0,0,1,.179.4.14.14,0,0,0,.1.1.038.038,0,0,0,.049-.033.305.305,0,0,0-.006-.054c-.02-.079-.039-.159-.062-.238a2.045,2.045,0,0,1-.065-.363,3.114,3.114,0,0,0-.075-.458c-.035-.142-.066-.284-.1-.427a.978.978,0,0,1-.015-.259.225.225,0,0,1,.009-.054.11.11,0,0,1,.061-.07.165.165,0,0,1,.107-.011.524.524,0,0,1,.315.2,1.147,1.147,0,0,1,.195.448,1.488,1.488,0,0,1,.028.2.637.637,0,0,0,.05.212,1.116,1.116,0,0,1,.093.384.775.775,0,0,0,.041.186c.033.109.066.218.1.326.019.056.043.11.064.166.006.017.012.035.017.052a.043.043,0,0,1-.025.044.261.261,0,0,1-.053.01,2.6,2.6,0,0,1-.355-.015,6.85,6.85,0,0,1-.725-.137c-.165-.038-.331-.065-.5-.091a.493.493,0,0,0-.109-.009.606.606,0,0,1-.292-.059c-.083-.036-.166-.076-.249-.112-.143-.061-.285-.122-.429-.178a1.914,1.914,0,0,0-.381-.11.281.281,0,0,1-.2-.13,3.222,3.222,0,0,1-.322-.6c-.047-.123-.093-.247-.141-.371s-.091-.229-.134-.344c-.021-.055-.036-.113-.052-.17a.339.339,0,0,1,.019-.227.2.2,0,0,1,.23-.126.453.453,0,0,1,.209.1.615.615,0,0,1,.143.164.783.783,0,0,1,.045.085,3.131,3.131,0,0,0,.3.523q.081.119.16.239a2.615,2.615,0,0,1,.25.454.239.239,0,0,0,.092.115,3.772,3.772,0,0,1,.407.344.833.833,0,0,1,.064.071,2.159,2.159,0,0,0,.233.231l.027.028h0Z" transform="translate(-134.505 -600.604)" fill="#fff"/>
      <path id="Trazado_1548" data-name="Trazado 1548" d="M157.108,581.917a2.025,2.025,0,0,1,.1-.649,2.419,2.419,0,0,1,.279-.607c.035-.054.073-.1.112-.155a.082.082,0,0,1,.086-.028l.053.014a2.981,2.981,0,0,1,.733.332,1.967,1.967,0,0,1,.363.289,1.719,1.719,0,0,1,.411.7,2.042,2.042,0,0,1,.087.689c-.006.109-.019.218-.034.326a3.919,3.919,0,0,1-.165.677c-.047.143-.092.286-.152.424a.083.083,0,0,1-.025.031.024.024,0,0,1-.023,0,.041.041,0,0,1-.01-.025c0-.032,0-.064,0-.1a2.763,2.763,0,0,0-.106-.756,1.686,1.686,0,0,0-.32-.629c-.037-.046-.081-.086-.122-.128a.115.115,0,0,0-.023-.015.035.035,0,0,0-.045.017,1.113,1.113,0,0,0-.028.134,1.526,1.526,0,0,0,0,.328,2.071,2.071,0,0,0,.268.8,2.929,2.929,0,0,0,.226.342.37.37,0,0,1,.036.058c0,.006,0,.016,0,.024s-.008,0-.012,0a.144.144,0,0,1-.038-.013,6.784,6.784,0,0,1-.7-.456,3.194,3.194,0,0,1-.406-.365,2.169,2.169,0,0,1-.431-.677,1.481,1.481,0,0,1-.1-.534Z" transform="translate(-144.877 -577.765)" fill="#fff"/>
      <path id="Trazado_1549" data-name="Trazado 1549" d="M209.18,627.831h.191a2.152,2.152,0,0,1,.912.214,1.756,1.756,0,0,1,.258.154,1.673,1.673,0,0,1,.477.52,2.294,2.294,0,0,1,.262.672,3.532,3.532,0,0,1,.064.419.122.122,0,0,1,0,.027.07.07,0,0,1-.032.057.786.786,0,0,1-.111.052c-.112.039-.224.078-.337.113a1.818,1.818,0,0,1-.442.084.55.55,0,0,0-.068.007.694.694,0,0,1-.245,0,.614.614,0,0,0-.068-.007,1.6,1.6,0,0,1-.913-.364,2.08,2.08,0,0,1-.415-.452,4.075,4.075,0,0,1-.345-.621c-.083-.182-.152-.371-.224-.558a.1.1,0,0,1-.007-.04c0-.006.009-.013.015-.018a.013.013,0,0,1,.013,0,.509.509,0,0,1,.052.043c.074.075.147.15.22.225a1.87,1.87,0,0,0,.473.346,1.633,1.633,0,0,0,.532.17c.059.008.117.015.176.021a.033.033,0,0,0,.032-.047c0-.008-.006-.017-.011-.025a1.032,1.032,0,0,0-.125-.179,1.866,1.866,0,0,0-.716-.511,4,4,0,0,0-.469-.149.275.275,0,0,1-.051-.017c-.006,0-.008-.015-.01-.023a.013.013,0,0,1,.006-.011.138.138,0,0,1,.036-.017c.049-.01.1-.02.148-.028a3.584,3.584,0,0,1,.64-.054h.082Z" transform="translate(-181.111 -611.391)" fill="#fff"/>
      <path id="Trazado_1550" data-name="Trazado 1550" d="M118.592,627.832h.178a3.528,3.528,0,0,1,.6.066l.013,0c.043.01.067.027.061.042s-.033.029-.055.034a3.253,3.253,0,0,0-.506.167,1.947,1.947,0,0,0-.572.368,1.24,1.24,0,0,0-.253.337.033.033,0,0,0,.023.042.146.146,0,0,0,.027,0c.077-.01.154-.019.23-.032a1.726,1.726,0,0,0,.77-.365,3.92,3.92,0,0,0,.359-.336.186.186,0,0,1,.073-.059c.006,0,.021.006.021.011a.124.124,0,0,1,0,.053c-.048.128-.1.256-.148.382a3.882,3.882,0,0,1-.278.563,2.748,2.748,0,0,1-.433.561,1.67,1.67,0,0,1-1.023.47l-.109.012a.815.815,0,0,1-.109.005,2.878,2.878,0,0,1-.993-.232l-.037-.017a.1.1,0,0,1-.061-.109c.014-.1.028-.208.048-.311a2.626,2.626,0,0,1,.16-.536,1.82,1.82,0,0,1,.45-.645,1.663,1.663,0,0,1,.651-.363,3.072,3.072,0,0,1,.536-.1c.09-.01.182-.007.273-.01h.109Z" transform="translate(-115.946 -611.391)" fill="#fff"/>
      <path id="Trazado_1551" data-name="Trazado 1551" d="M172.1,582.6a2.034,2.034,0,0,1,.027-.393,1.609,1.609,0,0,1,.251-.586.782.782,0,0,1,.059-.075,1.992,1.992,0,0,1,.57-.462c.113-.059.228-.114.342-.171a.218.218,0,0,1,.064-.022.1.1,0,0,1,.051.011.093.093,0,0,1,.029.028,2.945,2.945,0,0,1,.363.545,1.726,1.726,0,0,1,.171.725,1.527,1.527,0,0,1-.25.853,2.344,2.344,0,0,1-.238.317,3.473,3.473,0,0,1-.349.346,4.09,4.09,0,0,1-.472.35.236.236,0,0,1-.049.02s-.008,0-.011-.006-.005-.009,0-.012a.187.187,0,0,1,.023-.048,2.014,2.014,0,0,0,.207-.337,1.85,1.85,0,0,0,.2-.594,1.558,1.558,0,0,0,0-.409c0-.038,0-.092-.05-.1s-.061.033-.084.06a1.528,1.528,0,0,0-.339.722,1.822,1.822,0,0,0-.037.339,1.645,1.645,0,0,0,0,.273.07.07,0,0,1,0,.014c0,.015-.014.033-.023.029a.065.065,0,0,1-.031-.022c-.026-.048-.051-.1-.073-.146-.071-.163-.144-.325-.2-.494-.039-.117-.071-.235-.1-.355A1.583,1.583,0,0,1,172.1,582.6Z" transform="translate(-155.524 -578.063)" fill="#fff"/>
      <path id="Trazado_1552" data-name="Trazado 1552" d="M196.845,610.7a2.193,2.193,0,0,0,.778-.13,1.421,1.421,0,0,0,.326-.17.58.58,0,0,0,.121-.11.034.034,0,0,0-.018-.054l-.013-.005a1.277,1.277,0,0,0-.406-.03,2.839,2.839,0,0,0-.336.059,2.151,2.151,0,0,0-.574.251c-.038.024-.079.045-.118.067a.014.014,0,0,1-.013,0c0-.007-.012-.016-.01-.023a.1.1,0,0,1,.015-.037,4.375,4.375,0,0,1,.658-.8,2.153,2.153,0,0,1,.382-.287,1.579,1.579,0,0,1,.645-.209,1.612,1.612,0,0,1,.489.029,1.572,1.572,0,0,1,.507.2c.112.07.222.143.333.215a.6.6,0,0,1,.055.041c.059.048.068.074.042.141a2.687,2.687,0,0,1-.371.682,1.521,1.521,0,0,1-.972.586c-.081.014-.163.022-.244.028a.983.983,0,0,1-.15,0,3.154,3.154,0,0,1-.878-.2c-.141-.054-.278-.114-.417-.172a.229.229,0,0,1-.047-.027.027.027,0,0,1-.006-.023.03.03,0,0,1,.019-.015.362.362,0,0,1,.055,0Z" transform="translate(-172.905 -598.166)" fill="#fff"/>
      <path id="Trazado_1553" data-name="Trazado 1553" d="M156.158,605.119c0-.037,0-.073,0-.109a2.223,2.223,0,0,1,.121-.7,1.41,1.41,0,0,1,.472-.657,1.866,1.866,0,0,1,.67-.33,2.276,2.276,0,0,1,.4-.077.1.1,0,0,1,.041,0,.105.105,0,0,1,.046.026.232.232,0,0,1,.033.059,3.468,3.468,0,0,1,.156.452,1.746,1.746,0,0,1,.061.609,1.46,1.46,0,0,1-.269.736,1.894,1.894,0,0,1-.478.465,3.11,3.11,0,0,1-.548.307l-.416.175a.249.249,0,0,1-.052.012s-.011,0-.011-.006,0-.018,0-.024a.18.18,0,0,1,.028-.03c.082-.079.165-.157.245-.239a1.622,1.622,0,0,0,.415-.743c.019-.075.028-.152.04-.229a.229.229,0,0,0,0-.054.032.032,0,0,0-.032-.02.176.176,0,0,0-.038.014,1.245,1.245,0,0,0-.335.3,1.729,1.729,0,0,0-.273.5,3,3,0,0,0-.1.368.184.184,0,0,1-.019.05c0,.005-.015.007-.023.009a.014.014,0,0,1-.011-.007.431.431,0,0,1-.024-.063,3.876,3.876,0,0,1-.086-.512c-.01-.1-.007-.191-.009-.287Z" transform="translate(-144.201 -593.934)" fill="#fff"/>
      <path id="Trazado_1554" data-name="Trazado 1554" d="M165.021,607.3a1.75,1.75,0,0,0,.08.619c.022.074.053.145.079.218a.319.319,0,0,1,.012.052.012.012,0,0,1-.006.011.045.045,0,0,1-.024,0,.049.049,0,0,1-.022-.016c-.108-.123-.216-.247-.316-.377a3.439,3.439,0,0,1-.385-.628,1.718,1.718,0,0,1-.155-.55,1.411,1.411,0,0,1,.2-.917,2.156,2.156,0,0,1,.463-.535c.049-.041.1-.084.145-.125a.084.084,0,0,1,.1-.008.332.332,0,0,1,.035.021,2.671,2.671,0,0,1,.435.372,1.605,1.605,0,0,1,.4.749c.018.089.026.18.039.27a.145.145,0,0,1,0,.027,2.261,2.261,0,0,1-.146.706,2.491,2.491,0,0,1-.193.377c-.126.2-.272.388-.415.576a.053.053,0,0,1-.021.017.044.044,0,0,1-.024,0,.013.013,0,0,1-.006-.011.373.373,0,0,1,.009-.054,1.982,1.982,0,0,0,.064-.335,1.852,1.852,0,0,0,.019-.3,1.929,1.929,0,0,0-.1-.576,1.588,1.588,0,0,0-.069-.148.148.148,0,0,0-.026-.031.036.036,0,0,0-.049,0,.412.412,0,0,0-.037.057,1,1,0,0,0-.089.37C165.018,607.2,165.021,607.262,165.021,607.3Z" transform="translate(-149.965 -595.204)" fill="#fff"/>
      <path id="Trazado_1555" data-name="Trazado 1555" d="M114.922,615.591c0-.018,0-.036,0-.055.014-.131.028-.262.043-.393.02-.167.039-.335.063-.5.03-.2.066-.4.1-.606,0-.022.009-.045.014-.067a.058.058,0,0,1,.08-.048l.051.019a3.391,3.391,0,0,0,.724.2,2.473,2.473,0,0,0,.421.041c.109,0,.219,0,.328,0a3.923,3.923,0,0,0,.826-.1,5.31,5.31,0,0,0,.62-.168c.043-.014.087-.026.131-.039.012,0,.032.007.032.017s0,.02-.005.025c-.043.041-.085.082-.13.12-.24.2-.484.4-.74.584a8.575,8.575,0,0,1-.828.53,6.031,6.031,0,0,1-.728.346,4.487,4.487,0,0,1-.839.241c-.036.006-.072.01-.108.013a.053.053,0,0,1-.055-.05c0-.036,0-.073,0-.109Z" transform="translate(-114.922 -601.48)" fill="#fff"/>
      <path id="Trazado_1556" data-name="Trazado 1556" d="M131.609,610.339a1.38,1.38,0,0,1,.216.007s.007.005.008.009a.022.022,0,0,1,0,.013.02.02,0,0,1-.007.011.246.246,0,0,1-.034.022,3.736,3.736,0,0,1-.8.284,2.055,2.055,0,0,1-.667.036,1.346,1.346,0,0,1-.806-.368,1.94,1.94,0,0,1-.4-.581c-.033-.07-.063-.142-.092-.214s-.021-.1.037-.142.124-.093.189-.135a1.776,1.776,0,0,1,.475-.237,1.543,1.543,0,0,1,.485-.073,1.363,1.363,0,0,1,.687.2,2.135,2.135,0,0,1,.376.294,3.331,3.331,0,0,1,.368.4c.072.1.14.2.209.3a.072.072,0,0,1,.009.039s-.012.014-.019.014a.166.166,0,0,1-.084-.042,1.939,1.939,0,0,0-.6-.262,1.4,1.4,0,0,0-.42-.045,1.085,1.085,0,0,0-.2.034.037.037,0,0,0-.017.056.808.808,0,0,0,.2.159,1.538,1.538,0,0,0,.5.179A1.751,1.751,0,0,0,131.609,610.339Z" transform="translate(-124.927 -597.999)" fill="#fff"/>
      <path id="Trazado_1557" data-name="Trazado 1557" d="M198.556,600.489a1.776,1.776,0,0,1,.016-.232c.012-.1.019-.2.036-.3a2.388,2.388,0,0,1,.181-.6,1.51,1.51,0,0,1,.344-.472,1.219,1.219,0,0,1,.326-.222,1.581,1.581,0,0,1,.525-.143c.036,0,.072-.009.108-.014a.984.984,0,0,1,.219,0c.059.006.118.013.177.02a.1.1,0,0,1,.092.085c0,.009,0,.018.006.027a2.449,2.449,0,0,1,.052.571,1.379,1.379,0,0,1-.719,1.2,2.7,2.7,0,0,1-.765.288c-.12.026-.241.048-.362.071a.3.3,0,0,1-.068,0,.024.024,0,0,1-.017-.039c.046-.037.092-.075.141-.107a2.523,2.523,0,0,0,.276-.224,1.442,1.442,0,0,0,.222-.277,1.191,1.191,0,0,0,.159-.361.462.462,0,0,0,.009-.067.026.026,0,0,0-.029-.022.981.981,0,0,0-.22.108,1.341,1.341,0,0,0-.39.378,2.3,2.3,0,0,0-.234.432.922.922,0,0,1-.044.084.014.014,0,0,1-.012.005c-.008,0-.018-.007-.021-.013a.1.1,0,0,1-.009-.039C198.555,600.58,198.556,600.534,198.556,600.489Z" transform="translate(-174.308 -590.563)" fill="#fff"/>
      <path id="Trazado_1558" data-name="Trazado 1558" d="M130.229,598.57a1.679,1.679,0,0,1,.581.079,1.356,1.356,0,0,1,.828.69,2.27,2.27,0,0,1,.221.687c.021.121.023.245.038.367a2.042,2.042,0,0,1,.013.259.225.225,0,0,1-.006.054.028.028,0,0,1-.018.017.027.027,0,0,1-.023-.008c-.021-.04-.043-.08-.06-.122a1.874,1.874,0,0,0-.254-.436,1.328,1.328,0,0,0-.514-.419c-.017-.007-.034-.013-.051-.019s-.031.009-.03.02a.428.428,0,0,0,.008.068,1.2,1.2,0,0,0,.112.293,1.439,1.439,0,0,0,.346.419,3.158,3.158,0,0,0,.264.195.762.762,0,0,1,.076.057.027.027,0,0,1,.006.024.028.028,0,0,1-.018.017.113.113,0,0,1-.041,0c-.171-.026-.341-.059-.509-.1a2.621,2.621,0,0,1-.5-.177,1.671,1.671,0,0,1-.431-.287,1.344,1.344,0,0,1-.375-.611,1.781,1.781,0,0,1-.047-.732c.009-.072.021-.144.034-.216a.282.282,0,0,1,.019-.065.078.078,0,0,1,.061-.049.469.469,0,0,1,.068-.007Z" transform="translate(-125.504 -590.612)" fill="#fff"/>
      <path id="Trazado_1559" data-name="Trazado 1559" d="M176.075,608.792a2.3,2.3,0,0,1,.058-.542,1.357,1.357,0,0,1,.769-.985,2.307,2.307,0,0,1,.629-.177l.041,0a.107.107,0,0,1,.112.061c.01.02.022.04.031.061a2.014,2.014,0,0,1,.145.469,1.957,1.957,0,0,1,.027.217,1.389,1.389,0,0,1-.133.663,1.209,1.209,0,0,1-.16.254,1.726,1.726,0,0,1-.291.287,2.491,2.491,0,0,1-.357.228,4.5,4.5,0,0,1-.538.235.085.085,0,0,1-.066.007.027.027,0,0,1-.012-.021.127.127,0,0,1,.046-.065,3.017,3.017,0,0,0,.255-.3,1.34,1.34,0,0,0,.26-.652.616.616,0,0,0,0-.1.039.039,0,0,0-.061-.029,1.033,1.033,0,0,0-.1.072,1.394,1.394,0,0,0-.406.607,1.928,1.928,0,0,0-.077.276c-.011.053-.022.107-.035.16a.021.021,0,0,1-.04.005.244.244,0,0,1-.017-.052,3.6,3.6,0,0,1-.073-.444C176.076,608.947,176.078,608.869,176.075,608.792Z" transform="translate(-158.345 -596.659)" fill="#fff"/>
      <path id="Trazado_1560" data-name="Trazado 1560" d="M167.047,580.232a1.532,1.532,0,0,1-.209.789,3.487,3.487,0,0,1-.534.707s-.016,0-.024,0,0-.007-.006-.011a.036.036,0,0,1,0-.014c0-.013.006-.027.011-.039a1.886,1.886,0,0,0,.1-.507c0-.018,0-.036.007-.055s.005-.027.006-.041a1.246,1.246,0,0,0-.106-.612.033.033,0,0,0-.056,0,.271.271,0,0,0-.024.033.726.726,0,0,0-.042.086,1.407,1.407,0,0,0-.089.371,1.78,1.78,0,0,0,0,.408,2.462,2.462,0,0,0,.048.268c.008.035.014.071.02.107a.012.012,0,0,1-.007.011c-.008,0-.02.006-.024,0a1.3,1.3,0,0,1-.092-.1,3.8,3.8,0,0,1-.361-.547,2.208,2.208,0,0,1-.191-.482,1.282,1.282,0,0,1,.095-.93,1.329,1.329,0,0,1,.229-.322,4.092,4.092,0,0,1,.365-.329.358.358,0,0,1,.057-.037.07.07,0,0,1,.078,0c.044.032.088.065.129.1a2.58,2.58,0,0,1,.354.36A1.269,1.269,0,0,1,167.047,580.232Z" transform="translate(-150.785 -576.7)" fill="#fff"/>
      <path id="Trazado_1561" data-name="Trazado 1561" d="M175.111,573.458c0-.023,0-.046.006-.068a1.641,1.641,0,0,0,.016-.409,2.672,2.672,0,0,0-.152-.789,1.353,1.353,0,0,0-.212-.38.228.228,0,0,0-.03-.027.032.032,0,0,0-.037.006.4.4,0,0,0-.037.072,1.612,1.612,0,0,0-.046.172,1.527,1.527,0,0,0-.032.556c.015.09.018.181.034.271a2.746,2.746,0,0,0,.123.448,3.4,3.4,0,0,0,.183.412s-.006.015-.01.022-.01,0-.013,0a.2.2,0,0,1-.036-.019c-.022-.016-.044-.032-.066-.049a4.259,4.259,0,0,1-.612-.584c-.089-.1-.177-.208-.258-.319a3.069,3.069,0,0,1-.283-.451,2.1,2.1,0,0,1-.2-.6.605.605,0,0,1-.009-.163.066.066,0,0,1,.061-.063.715.715,0,0,1,.123,0c.2.027.406.055.609.086.275.043.548.093.82.154.222.05.443.107.665.161l.039.012a.073.073,0,0,1,.055.083c-.008.059-.015.118-.027.176a3.9,3.9,0,0,1-.281.841,6.727,6.727,0,0,1-.336.642c-.021.035-.046.067-.07.1a.013.013,0,0,1-.012,0c-.006,0-.016-.012-.015-.018,0-.041.012-.081.018-.122s.017-.108.026-.162Z" transform="translate(-156.474 -571.392)" fill="#fff"/>
      <path id="Trazado_1562" data-name="Trazado 1562" d="M172.837,602.276a1.59,1.59,0,0,0-.062-.519,1.054,1.054,0,0,0-.174-.353.416.416,0,0,0-.048-.047.026.026,0,0,0-.037.006.218.218,0,0,0-.021.05c-.012.067-.023.134-.03.2a.458.458,0,0,0,0,.1,1.889,1.889,0,0,0,.2.705c.023.044.047.088.069.133a.025.025,0,0,1-.006.023.033.033,0,0,1-.024,0,.067.067,0,0,1-.024-.013,3.554,3.554,0,0,1-.536-.505,1.726,1.726,0,0,1-.329-.563,1.244,1.244,0,0,1,.125-1.1,2.9,2.9,0,0,1,.307-.4.074.074,0,0,1,.1-.018q.093.044.183.092a1.739,1.739,0,0,1,.4.3,1.222,1.222,0,0,1,.349.653,1.487,1.487,0,0,1,.008.476,2.006,2.006,0,0,1-.172.574c-.063.137-.134.269-.2.4a.343.343,0,0,1-.04.054.015.015,0,0,1-.012,0c-.007,0-.018-.009-.019-.015a.279.279,0,0,1-.005-.054C172.837,602.4,172.837,602.334,172.837,602.276Z" transform="translate(-155.266 -591.602)" fill="#fff"/>
      <path id="Trazado_1563" data-name="Trazado 1563" d="M200.542,586.192a2.443,2.443,0,0,1,.017-.388.276.276,0,0,0,0-.041,6.065,6.065,0,0,1,.081-.842,5.688,5.688,0,0,1,.262-1.059c.043-.124.069-.121.158-.047s.153.13.226.2c.263.245.53.486.778.747a.47.47,0,0,1,.041.054.048.048,0,0,1,0,.052.74.74,0,0,1-.076.077,2.8,2.8,0,0,0-.459.485,4.28,4.28,0,0,0-.552.939,6.887,6.887,0,0,0-.291.823,1.06,1.06,0,0,1-.062.194s-.008.008-.011.007a.076.076,0,0,1-.023-.01.019.019,0,0,1-.005-.012c-.011-.095-.021-.19-.034-.284-.023-.167-.02-.336-.035-.5C200.546,586.449,200.543,586.318,200.542,586.192Z" transform="translate(-175.718 -580.1)" fill="#fff"/>
      <path id="Trazado_1564" data-name="Trazado 1564" d="M131.15,586.23c0,.155,0,.31,0,.465a1.787,1.787,0,0,1-.018.273,1.124,1.124,0,0,0-.009.15,1.742,1.742,0,0,1-.033.257.026.026,0,0,1-.018.016.033.033,0,0,1-.022-.011.064.064,0,0,1-.011-.025q-.022-.072-.042-.144a6.084,6.084,0,0,0-.267-.761,4.441,4.441,0,0,0-.643-1.093,2.314,2.314,0,0,0-.378-.393c-.011-.008-.021-.018-.03-.028-.1-.1-.1-.1-.006-.2.161-.161.322-.324.487-.48.126-.119.258-.231.388-.346.044-.039.088-.079.133-.118a.209.209,0,0,1,.035-.021.046.046,0,0,1,.05.01.321.321,0,0,1,.033.059c.03.081.06.163.085.245a4.848,4.848,0,0,1,.19.867c.013.109.029.217.043.325,0,.032,0,.063.006.1s0,.046,0,.068a6.131,6.131,0,0,1,.028.751c0,.014,0,.027,0,.041Z" transform="translate(-125.343 -580.1)" fill="#fff"/>
      <path id="Trazado_1565" data-name="Trazado 1565" d="M116.131,608.6c-.023,0-.039-.019-.037-.03a.571.571,0,0,1,.01-.08c.036-.151.072-.3.112-.451q.116-.435.255-.865c.014-.043.031-.086.049-.127a.067.067,0,0,1,.08-.036.511.511,0,0,1,.052.016,5.738,5.738,0,0,1,.742.347c.252.138.492.295.729.456.2.136.392.282.579.434.145.118.286.24.429.36a.174.174,0,0,1,.034.042.029.029,0,0,1,0,.026.032.032,0,0,1-.023.011.226.226,0,0,1-.053-.01l-.156-.051a5,5,0,0,0-.944-.216,4.744,4.744,0,0,0-.666-.049c-.1,0-.2.011-.3.021s-.217.028-.324.048a2.937,2.937,0,0,0-.409.11c-.043.015-.086.029-.13.042A.08.08,0,0,1,116.131,608.6Z" transform="translate(-115.754 -596.604)" fill="#fff"/>
      <path id="Trazado_1566" data-name="Trazado 1566" d="M210.649,608.378a3.41,3.41,0,0,0-.353.018c-.155.013-.308.034-.461.059a4.963,4.963,0,0,0-.586.135c-.109.032-.218.067-.327.1a.356.356,0,0,1-.066.013c-.005,0-.013-.009-.018-.015a.012.012,0,0,1,0-.012l.1-.093a7.991,7.991,0,0,1,.8-.646q.306-.219.628-.414a6.587,6.587,0,0,1,.939-.473.952.952,0,0,1,.13-.039.046.046,0,0,1,.047.021.275.275,0,0,1,.03.061c.024.069.048.138.07.208.109.358.215.716.3,1.08.012.049.023.1.031.147.012.068-.009.088-.07.068l-.09-.03a2.793,2.793,0,0,0-.637-.153A2.486,2.486,0,0,0,210.649,608.378Z" transform="translate(-181.608 -596.605)" fill="#fff"/>
      <path id="Trazado_1567" data-name="Trazado 1567" d="M127.386,591.52c-.037,0-.077-.013-.117-.022a10.9,10.9,0,0,1-1.351-.395,7.087,7.087,0,0,1-.826-.363c-.081-.042-.16-.088-.239-.133a.358.358,0,0,1-.064-.051.045.045,0,0,1-.009-.051.29.29,0,0,1,.032-.06c.117-.157.234-.315.355-.469s.242-.3.364-.444c.029-.035.062-.066.095-.1a.039.039,0,0,1,.059.01c.029.062.058.123.084.187a3.1,3.1,0,0,0,.309.547,3.411,3.411,0,0,0,.468.552l.058.058a5.968,5.968,0,0,0,.595.524l.2.162c.014.011.021.031.013.036A.041.041,0,0,1,127.386,591.52Z" transform="translate(-121.919 -584.119)" fill="#fff"/>
      <path id="Trazado_1568" data-name="Trazado 1568" d="M204.33,590.542a.125.125,0,0,1-.017.035.185.185,0,0,1-.043.033,4.947,4.947,0,0,1-.509.265,9.512,9.512,0,0,1-1.02.39c-.322.1-.647.186-.976.263a.092.092,0,0,1-.066,0c-.006,0-.013-.018-.011-.021a.259.259,0,0,1,.044-.05c.086-.068.172-.135.259-.2a5.816,5.816,0,0,0,.754-.712,3.439,3.439,0,0,0,.628-1c.054-.13.074-.137.165-.03.239.281.468.57.688.866q.045.06.088.122A.193.193,0,0,1,204.33,590.542Z" transform="translate(-176.532 -584.131)" fill="#fff"/>
      <path id="Trazado_1569" data-name="Trazado 1569" d="M190.453,608.215a1.256,1.256,0,0,0-.556.119c-.037.017-.075.034-.113.049-.007,0-.017,0-.025,0s-.01-.026,0-.037c.03-.04.06-.081.092-.118a2.6,2.6,0,0,1,.462-.443,1.212,1.212,0,0,1,.567-.221,1.074,1.074,0,0,1,.484.061,1.368,1.368,0,0,1,.441.269c.038.033.073.069.108.1a.071.071,0,0,1,.011.088c-.027.052-.054.106-.084.156-.041.066-.085.129-.128.194a1.065,1.065,0,0,1-.269.269.94.94,0,0,1-.415.167,1.445,1.445,0,0,1-.7-.068,2.75,2.75,0,0,1-.423-.19q-.072-.04-.142-.082c-.006,0-.009-.014-.012-.022s.015-.021.03-.02a.54.54,0,0,1,.068,0,1.134,1.134,0,0,0,.38,0,2.049,2.049,0,0,0,.215-.039.976.976,0,0,0,.227-.093.314.314,0,0,0,.046-.03.052.052,0,0,0,.026-.045.047.047,0,0,0-.034-.038.381.381,0,0,0-.133-.029C190.535,608.214,190.494,608.215,190.453,608.215Z" transform="translate(-168.055 -596.992)" fill="#fff"/>
      <path id="Trazado_1570" data-name="Trazado 1570" d="M140.485,608.512l.163-.018c.036,0,.072-.005.109-.005,0,0,.011.011.015.018s0,.009,0,.012a.1.1,0,0,1-.02.018,2.842,2.842,0,0,1-.489.243,1.557,1.557,0,0,1-.52.107,1.013,1.013,0,0,1-.679-.206,1.617,1.617,0,0,1-.186-.18,1.93,1.93,0,0,1-.269-.411l-.005-.013a.074.074,0,0,1,.015-.088,1.527,1.527,0,0,1,.565-.374,1.073,1.073,0,0,1,.659-.017,1.28,1.28,0,0,1,.455.243c.05.04.1.082.146.124a.343.343,0,0,1,.03.028c.1.109.195.217.291.326a.217.217,0,0,1,.025.047.015.015,0,0,1,0,.012s-.008.008-.011.007a.436.436,0,0,1-.064-.021,1.962,1.962,0,0,0-.4-.133,1.327,1.327,0,0,0-.422-.009.314.314,0,0,0-.079.022.063.063,0,0,0-.028.026c-.008.012,0,.035.019.047a.8.8,0,0,0,.068.046.925.925,0,0,0,.268.1A1.811,1.811,0,0,0,140.485,608.512Z" transform="translate(-131.729 -596.993)" fill="#fff"/>
      <path id="Trazado_1571" data-name="Trazado 1571" d="M149.112,607.718c0,.059,0,.132,0,.2a.212.212,0,0,1-.012.052.013.013,0,0,1-.01.007c-.008,0-.021,0-.025,0a.236.236,0,0,1-.028-.046c-.028-.057-.056-.115-.084-.172a1.408,1.408,0,0,0-.2-.293.9.9,0,0,0-.28-.215.282.282,0,0,0-.038-.014.03.03,0,0,0-.038.028.494.494,0,0,0,.013.081,1.022,1.022,0,0,0,.226.4,1.777,1.777,0,0,0,.3.255.528.528,0,0,1,.061.054s0,.009,0,.013-.005.008-.009.009a.13.13,0,0,1-.04,0,2.506,2.506,0,0,1-.724-.238,1.48,1.48,0,0,1-.242-.154,1.055,1.055,0,0,1-.359-.521,1.252,1.252,0,0,1-.035-.568c.011-.072.028-.143.044-.214a.659.659,0,0,1,.024-.078.09.09,0,0,1,.081-.063,1.035,1.035,0,0,1,.164,0,1.729,1.729,0,0,1,.415.082,1.063,1.063,0,0,1,.58.474,1.342,1.342,0,0,1,.123.274A1.767,1.767,0,0,1,149.112,607.718Z" transform="translate(-138.106 -596.059)" fill="#fff"/>
      <path id="Trazado_1572" data-name="Trazado 1572" d="M183.529,607.7a1.77,1.77,0,0,1,.107-.657,1.256,1.256,0,0,1,.156-.3,1.076,1.076,0,0,1,.553-.4,1.173,1.173,0,0,1,.334-.067c.041,0,.081-.01.122-.014a.8.8,0,0,1,.1,0,.1.1,0,0,1,.095.066.4.4,0,0,1,.018.052,1.662,1.662,0,0,1,.058.555,1.056,1.056,0,0,1-.43.792,1.767,1.767,0,0,1-.32.183,2.85,2.85,0,0,1-.638.2c-.014,0-.033-.009-.031-.019a.066.066,0,0,1,.009-.024.175.175,0,0,1,.03-.028c.018-.014.037-.027.056-.04a1.414,1.414,0,0,0,.267-.234,1.019,1.019,0,0,0,.241-.454.117.117,0,0,0,0-.027c0-.011-.019-.028-.028-.025a.238.238,0,0,0-.052.016.992.992,0,0,0-.334.277,1.753,1.753,0,0,0-.215.38.673.673,0,0,1-.038.072.014.014,0,0,1-.012,0c-.008,0-.02,0-.022-.01a.151.151,0,0,1-.015-.052C183.532,607.855,183.531,607.777,183.529,607.7Z" transform="translate(-163.637 -596.067)" fill="#fff"/>
      <path id="Trazado_1573" data-name="Trazado 1573" d="M170.677,575.6a1.213,1.213,0,0,0,.113.516c.015.033.03.066.043.1,0,0-.007.015-.012.021a.013.013,0,0,1-.013,0,1.257,1.257,0,0,1-.122-.087,2.4,2.4,0,0,1-.389-.419,1.265,1.265,0,0,1-.179-.367,1.079,1.079,0,0,1-.043-.269.927.927,0,0,1,.038-.27,1,1,0,0,1,.177-.366c.053-.068.107-.136.161-.2a.364.364,0,0,1,.049-.047.059.059,0,0,1,.052-.011.147.147,0,0,1,.039.013,1.635,1.635,0,0,1,.443.316.979.979,0,0,1,.269.64,1.261,1.261,0,0,1-.057.431,2.2,2.2,0,0,1-.184.44l-.093.167c-.008.014-.028.023-.034.015a.087.087,0,0,1-.017-.034.149.149,0,0,1,0-.041.384.384,0,0,1,0-.041,1,1,0,0,0,0-.353,1.9,1.9,0,0,0-.035-.2.779.779,0,0,0-.087-.2.234.234,0,0,0-.036-.04.035.035,0,0,0-.048.009.411.411,0,0,0-.04.158C170.674,575.52,170.677,575.561,170.677,575.6Z" transform="translate(-154.085 -573.307)" fill="#fff"/>
      <path id="Trazado_1574" data-name="Trazado 1574" d="M141.67,577.585c0,.028,0,.041,0,.055a2.321,2.321,0,0,0-.017.314,1.993,1.993,0,0,1-.019.245c-.016.1-.023.208-.037.312a7.9,7.9,0,0,1-.153.792.314.314,0,0,1-.023.063c0,.005-.015.006-.023.007a.014.014,0,0,1-.01-.007.187.187,0,0,1-.014-.038c-.019-.108-.036-.216-.056-.323a4.127,4.127,0,0,0-.28-.913,2.529,2.529,0,0,0-.19-.348,2.1,2.1,0,0,0-.217-.3.077.077,0,0,1-.02-.035.047.047,0,0,1,.008-.037.626.626,0,0,1,.088-.064c.106-.063.212-.125.32-.185.148-.081.3-.16.446-.24a.526.526,0,0,1,.076-.028.043.043,0,0,1,.045.024.5.5,0,0,1,.024.078c.012.076.024.153.031.23C141.657,577.326,141.645,577.464,141.67,577.585Z" transform="translate(-133.16 -575.195)" fill="#fff"/>
      <path id="Trazado_1575" data-name="Trazado 1575" d="M191.472,576.905a.216.216,0,0,1,.041.007c.034.014.066.03.1.046.237.117.465.25.694.38a.706.706,0,0,1,.068.045.06.06,0,0,1,.018.093c-.01.015-.022.029-.034.043a2.917,2.917,0,0,0-.479.868,4.637,4.637,0,0,0-.226.954.094.094,0,0,1-.02.063.026.026,0,0,1-.024,0,.038.038,0,0,1-.017-.02c-.009-.026-.018-.052-.025-.078a5.24,5.24,0,0,1-.143-.723c-.014-.117-.029-.235-.043-.352a.976.976,0,0,1-.006-.109c0-.241,0-.482,0-.724a3.03,3.03,0,0,1,.043-.393.3.3,0,0,1,.024-.078C191.446,576.92,191.461,576.913,191.472,576.905Z" transform="translate(-169.209 -575.23)" fill="#fff"/>
      <path id="Trazado_1576" data-name="Trazado 1576" d="M136.687,579.776c.007,0,.017.007.021.014a.22.22,0,0,1,.023.049c.014.044.025.088.037.131a2.649,2.649,0,0,0,.324.689,4.143,4.143,0,0,0,.41.527c.086.094.169.191.258.282a.123.123,0,0,1,.019.035.017.017,0,0,1,0,.013s-.007.008-.01.008a.213.213,0,0,1-.053-.01c-.135-.053-.271-.106-.405-.163s-.249-.111-.372-.17a5.685,5.685,0,0,1-.834-.492c-.092-.065-.179-.139-.268-.211a.2.2,0,0,1-.043-.052.043.043,0,0,1,0-.038.142.142,0,0,1,.038-.038c.077-.057.153-.115.231-.169q.257-.181.516-.358a.691.691,0,0,1,.083-.046A.07.07,0,0,1,136.687,579.776Z" transform="translate(-129.737 -577.268)" fill="#fff"/>
      <path id="Trazado_1577" data-name="Trazado 1577" d="M192.9,581.522c0-.008-.011-.018-.009-.023a.106.106,0,0,1,.024-.032,3.978,3.978,0,0,0,.693-.86,2.859,2.859,0,0,0,.327-.735.683.683,0,0,1,.029-.076.044.044,0,0,1,.047-.018.66.66,0,0,1,.084.045q.209.143.417.287c.1.068.193.139.288.209.029.022.057.046.083.07a.044.044,0,0,1,0,.062,2.614,2.614,0,0,1-.29.228,5.824,5.824,0,0,1-.618.378,9.792,9.792,0,0,1-.97.442c-.026.01-.051.019-.077.027A.075.075,0,0,1,192.9,581.522Z" transform="translate(-170.287 -577.267)" fill="#fff"/>
      <path id="Trazado_1578" data-name="Trazado 1578" d="M157.267,571.8c0,.02-.005.047-.011.074a2.068,2.068,0,0,1-.146.44,2.739,2.739,0,0,1-.392.606,5.685,5.685,0,0,1-.406.424c-.059.057-.124.107-.187.159a.026.026,0,0,1-.024,0,.031.031,0,0,1-.007-.024.066.066,0,0,1,.01-.025,2.39,2.39,0,0,0,.275-.853,1.574,1.574,0,0,0-.02-.57c-.03-.123-.028-.15.109-.177q.342-.068.686-.119a.481.481,0,0,1,.054,0,.056.056,0,0,1,.056.05Z" transform="translate(-144.157 -571.552)" fill="#fff"/>
      <path id="Trazado_1579" data-name="Trazado 1579" d="M154.268,572.417c.049,0,.066.021.059.037a.9.9,0,0,1-.04.086,1.785,1.785,0,0,0-.192.609,2.551,2.551,0,0,0-.019.491c0,.081.021.163.031.244,0,.018,0,.036,0,.054a.014.014,0,0,1-.008.011c-.008,0-.019,0-.025,0a.108.108,0,0,1-.029-.028,4.858,4.858,0,0,1-.428-.777,2.667,2.667,0,0,1-.126-.375.778.778,0,0,1-.017-.094.064.064,0,0,1,.038-.066.573.573,0,0,1,.064-.024c.044-.013.088-.024.132-.035.15-.038.3-.075.451-.112C154.209,572.426,154.255,572.419,154.268,572.417Z" transform="translate(-142.301 -572.043)" fill="#fff"/>
      <path id="Trazado_1580" data-name="Trazado 1580" d="M186.4,574.561c-.018,0-.008,0,0,0l.243.09a.118.118,0,0,1,.074.091c.015.067.028.134.046.2s.047.147.07.221a.078.078,0,0,1,0,.039.024.024,0,0,1-.021.011.147.147,0,0,1-.043-.032,5.645,5.645,0,0,1-.351-.47,1.215,1.215,0,0,1-.064-.119C186.344,574.583,186.359,574.561,186.4,574.561Z" transform="translate(-165.64 -573.565)" fill="#fff"/>
      <path id="Trazado_1581" data-name="Trazado 1581" d="M147.576,575.2s-.01-.005-.01-.008a.2.2,0,0,1,0-.052c.032-.123.065-.245.1-.368,0-.017.01-.035.015-.052a.114.114,0,0,1,.061-.07,1.111,1.111,0,0,1,.267-.1.028.028,0,0,1,.023.011.038.038,0,0,1,0,.025.062.062,0,0,1-.009.025,4.839,4.839,0,0,1-.408.561.158.158,0,0,1-.031.026S147.58,575.2,147.576,575.2Z" transform="translate(-138.101 -573.56)" fill="#fff"/>
      <path id="Trazado_1582" data-name="Trazado 1582" d="M188.74,575.657a.147.147,0,0,1-.016.038,1.589,1.589,0,0,1-.2.2.029.029,0,0,1-.025,0c-.006,0-.009-.013-.012-.021a.021.021,0,0,1,0-.013l.075-.231a.145.145,0,0,1,.012-.024.063.063,0,0,1,.057-.028.152.152,0,0,1,.085.038A.144.144,0,0,1,188.74,575.657Z" transform="translate(-167.16 -574.293)" fill="#fff"/>
      <path id="Trazado_1583" data-name="Trazado 1583" d="M146.463,575.89a.044.044,0,0,1-.008.011.02.02,0,0,1-.013,0,.023.023,0,0,1-.012,0,1.437,1.437,0,0,1-.2-.2.1.1,0,0,1-.007-.012.047.047,0,0,1,.01-.061.482.482,0,0,1,.072-.036.053.053,0,0,1,.059.022.06.06,0,0,1,.008.011l.088.255A.038.038,0,0,1,146.463,575.89Z" transform="translate(-137.145 -574.293)" fill="#fff"/>
      <path id="Trazado_1584" data-name="Trazado 1584" d="M164.854,604.726l-.006,0,0-.006Z" transform="translate(-150.373 -594.982)" fill="#fff"/>
    </g>
  </g>
</svg>
