<?xml version="1.0" encoding="UTF-8"?>
<svg width="32px" height="25px" viewBox="0 0 32 25" version="1.1" xmlns="http://www.w3.org/2000/svg" xmlns:xlink="http://www.w3.org/1999/xlink">
    <!-- Generator: Sketch 53.1 (72631) - https://sketchapp.com -->
    <title>icono_realizar_pago_tarjeta</title>
    <desc>Created with Sketch.</desc>
    <g id="Page-1" stroke="none" stroke-width="1" fill="none" fill-rule="evenodd">
        <g id="icono_realizar_pago_tarjeta" transform="translate(0.000000, 1.000000)" stroke="#303053">
            <polyline id="Trazado_3374" points="7.90892308 14.7405128 7.90892308 19.3944615 31.1803077 19.3944615 31.1803077 4.76717949 7.90892308 4.76717949 7.90892308 12.7458462"></polyline>
            <path d="M13.2283077,16.736 C13.2679186,16.1958087 13.070523,15.665115 12.6875245,15.2821165 C12.3045261,14.8991181 11.7738323,14.7017224 11.233641,14.7413333 L11.233641,9.42194872 C11.782976,9.50032803 12.3371606,9.31554648 12.729533,8.92317406 C13.1219055,8.53080164 13.306687,7.97661703 13.2283077,7.42728205 L26.526359,7.42728205 C26.4867481,7.96747332 26.6841437,8.49816708 27.0671422,8.88116553 C27.4501406,9.26416399 27.9808344,9.46155963 28.5210256,9.42194872 L28.5210256,14.7413333 C27.4194017,14.7413333 26.526359,15.634376 26.526359,16.736 L13.2283077,16.736 Z" id="Trazado_3375"></path>
            <path d="M13.9487179,11.8974359 L15.5897436,11.8974359" id="Línea_165"></path>
            <path d="M24.6153846,11.8974359 L26.2564103,11.8974359" id="Línea_166"></path>
            <circle id="Elipse_84" cx="19.6923077" cy="11.8966154" r="2.46153846"></circle>
            <path d="M9.02564103,14.3589744 L4.1025641,14.3589744" id="Línea_167"></path>
            <path d="M8.20512821,6.97435897 L4.92307692,6.97435897" id="Línea_168"></path>
            <path d="M3.28205128,6.97435897 L1.64102564,6.97435897" id="Línea_169"></path>
            <path d="M5.74358974,11.0769231 L0,11.0769231" id="Línea_170"></path>
            <path d="M23.7948718,0.41025641 L18.8717949,0.41025641" id="Línea_171"></path>
            <path d="M22.1538462,23.3846154 L12.3076923,23.3846154" id="Línea_172"></path>
            <path d="M17.2307692,0.41025641 L15.5897436,0.41025641" id="Línea_173"></path>
            <path d="M14.7692308,0.41025641 L13.1282051,0.41025641" id="Línea_174"></path>
            <path d="M12.3076923,0.41025641 L10.6666667,0.41025641" id="Línea_175"></path>
        </g>
    </g>
</svg>