<svg xmlns="http://www.w3.org/2000/svg" width="44.298" height="36" viewBox="0 0 44.298 36">
  <g id="Grupo_445" data-name="Grupo 445" transform="translate(-280.187 -183.918)">
    <rect id="Rectángulo_338" data-name="Rectángulo 338" width="10.614" height="2.317" transform="translate(297.972 204.969)" fill="#303053"/>
    <path id="Trazado_1440" data-name="Trazado 1440" d="M322.889,209.261a2.974,2.974,0,0,0,.167-.948v-14.4a3.026,3.026,0,0,0-3.022-3.022h-4.319a84.937,84.937,0,0,0-6.946-5.3,9.452,9.452,0,0,0-5.371-1.669H280.187v13.958h4.45c1.111,3.333,4.27,5.45,8.5,5.691v4.746a2.976,2.976,0,0,0,.167.948H281.144v2.234h43.34v-2.234Zm-1.748-15.351v1.377H306.157l-1.867-1.958a.942.942,0,0,0-.271-.2l-.659-.324h12.007c.021,0,4.667,0,4.667,0A1.108,1.108,0,0,1,321.141,193.91ZM286.294,196.7l-.171-.742H282.1V185.833h21.3a7.541,7.541,0,0,1,4.286,1.332c1.333.916,3.145,2.214,5.03,3.722H299.573s-.33,0-.33,0a.958.958,0,0,0-.422,1.817l4.2,2.066,4.723,4.955c.17.187.021.471-.041.572a2.915,2.915,0,0,1-2.089.922,4.324,4.324,0,0,1-3.05-1.386l-2.369-2.4a.958.958,0,0,0-.681-.285h-3.791c-4.756,0-6.7-2.9-6.915-5.387a.957.957,0,0,0-1.907.167,7.7,7.7,0,0,0,6.239,6.848v2.864C291.1,201.494,287.213,200.68,286.294,196.7Zm8.762,11.61v-9.272c.221.011.437.026.667.026h3.391l2.092,2.119a6.19,6.19,0,0,0,4.338,1.953h.111a4.862,4.862,0,0,0,3.5-1.59.952.952,0,0,0,.063-.077,2.512,2.512,0,0,0,.291-2.51h11.627v9.352a1.1,1.1,0,0,1-.544.948h-25A1.1,1.1,0,0,1,295.057,208.313Z" fill="#303053"/>
    <path id="Trazado_1441" data-name="Trazado 1441" d="M288.339,239.3l1.128-1.129-2.834-2.833h38.86v-1.6H282.779Z" transform="translate(-1.008 -19.387)" fill="#303053"/>
  </g>
</svg>
