<svg xmlns="http://www.w3.org/2000/svg" width="36.5" height="30.5" viewBox="0 0 36.5 30.5">
  <g id="Grupo_667" data-name="Grupo 667" transform="translate(-288.25 -52.424)">
    <ellipse id="Elipse_83" data-name="Elipse 83" cx="10.5" cy="3.5" rx="10.5" ry="3.5" transform="translate(303 53.174)" fill="none" stroke="#303053" stroke-miterlimit="10" stroke-width="1.5"/>
    <path id="Trazado_1928" data-name="Trazado 1928" d="M330.485,58v3.777c0,2.085-4.734,3.777-10.574,3.777a28.5,28.5,0,0,1-3.364-.195" transform="translate(-6.779 -1.203)" fill="none" stroke="#303053" stroke-linecap="round" stroke-miterlimit="10" stroke-width="1.5"/>
    <path id="Trazado_1929" data-name="Trazado 1929" d="M330.233,65a2.019,2.019,0,0,1,.882,1.512v.755c0,2.086-4.734,3.777-10.574,3.777q-.721,0-1.417-.033" transform="translate(-7.41 -2.916)" fill="none" stroke="#303053" stroke-linecap="round" stroke-miterlimit="10" stroke-width="1.5"/>
    <path id="Trazado_1930" data-name="Trazado 1930" d="M330.427,70a2.019,2.019,0,0,1,.882,1.512v.755c0,2.086-4.734,3.777-10.574,3.777q-.414,0-.818-.011" transform="translate(-7.604 -4.139)" fill="none" stroke="#303053" stroke-linecap="round" stroke-miterlimit="10" stroke-width="1.5"/>
    <path id="Trazado_1931" data-name="Trazado 1931" d="M330.274,75a2.019,2.019,0,0,1,.882,1.512v.755c0,2.086-4.734,3.777-10.574,3.777q-.656,0-1.291-.028" transform="translate(-7.451 -5.363)" fill="none" stroke="#303053" stroke-linecap="round" stroke-miterlimit="10" stroke-width="1.5"/>
    <path id="Trazado_1932" data-name="Trazado 1932" d="M329.648,80a2.019,2.019,0,0,1,.882,1.512v.755c0,2.086-4.734,3.777-10.574,3.777a28.648,28.648,0,0,1-3.224-.178" transform="translate(-6.824 -6.586)" fill="none" stroke="#303053" stroke-linecap="round" stroke-miterlimit="10" stroke-width="1.5"/>
    <circle id="Elipse_84" data-name="Elipse 84" cx="10.5" cy="10.5" r="10.5" transform="translate(289 61.174)" fill="none" stroke="#303053" stroke-miterlimit="10" stroke-width="1.5"/>
    <line id="Línea_110" data-name="Línea 110" y2="2" transform="translate(303 57.174)" fill="none" stroke="#303053" stroke-linecap="round" stroke-miterlimit="10" stroke-width="1.5"/>
    <g id="Grupo_668" data-name="Grupo 668" transform="translate(138.61 -191.286) rotate(45)">
      <rect id="Rectángulo_452" data-name="Rectángulo 452" width="2" height="14" rx="1" transform="translate(298 65.174)" fill="#303053"/>
      <rect id="Rectángulo_453" data-name="Rectángulo 453" width="2" height="14" rx="1" transform="translate(306 71.174) rotate(90)" fill="#303053"/>
    </g>
  </g>
</svg>
