<svg xmlns="http://www.w3.org/2000/svg" width="48" height="31" viewBox="0 0 48 31">
  <g id="Grupo_459" data-name="Grupo 459" transform="translate(0 1)">
    <path id="Trazado_1459" data-name="Trazado 1459" d="M368,232h3s2.25,3,5,3h4" transform="translate(-368 -217)" fill="none" stroke="rgba(48,48,83,0.89)" stroke-miterlimit="10" stroke-width="2"/>
    <path id="Trazado_1460" data-name="Trazado 1460" d="M392,224l-4-5c-1.3-1.414-2.036-2-4-2H368" transform="translate(-368 -217)" fill="none" stroke="rgba(48,48,83,0.89)" stroke-miterlimit="10" stroke-width="2"/>
    <path id="Trazado_1461" data-name="Trazado 1461" d="M381,221l8,8c1.842,1.842-2.746,4.706-5.49,2.51L381,229h-3a3.723,3.723,0,0,1-4-4" transform="translate(-368 -217)" fill="none" stroke="rgba(48,48,83,0.89)" stroke-miterlimit="10" stroke-width="2"/>
    <path id="Trazado_1462" data-name="Trazado 1462" d="M384,224h31v22H380V229" transform="translate(-368 -217)" fill="none" stroke="rgba(48,48,83,0.89)" stroke-miterlimit="10" stroke-width="2"/>
    <path id="Trazado_1463" data-name="Trazado 1463" d="M384,242" transform="translate(-368 -217)" fill="none" stroke="rgba(48,48,83,0.89)" stroke-miterlimit="10" stroke-width="2"/>
    <path id="Trazado_1464" data-name="Trazado 1464" d="M384,234v5a3,3,0,0,1,3,3h21a3,3,0,0,1,3-3v-8a3,3,0,0,1-3-3H391" transform="translate(-368 -217)" fill="none" stroke="rgba(48,48,83,0.89)" stroke-miterlimit="10" stroke-width="2"/>
    <line id="Línea_35" data-name="Línea 35" x2="2" transform="translate(21 18.667)" fill="none" stroke="rgba(48,48,83,0.89)" stroke-miterlimit="10" stroke-width="2"/>
    <line id="Línea_36" data-name="Línea 36" x2="2" transform="translate(37 18.667)" fill="none" stroke="rgba(48,48,83,0.89)" stroke-miterlimit="10" stroke-width="2"/>
    <circle id="Elipse_8" data-name="Elipse 8" cx="4" cy="4" r="4" transform="translate(26 14.667)" fill="none" stroke="rgba(48,48,83,0.89)" stroke-miterlimit="10" stroke-width="2"/>
  </g>
</svg>
