<svg xmlns="http://www.w3.org/2000/svg" width="39.682" height="34.076" viewBox="0 0 39.682 34.076">
  <g id="Grupo_4345" data-name="Grupo 4345" transform="matrix(0.966, -0.259, 0.259, 0.966, 1.102, 7.734)">
    <path id="Trazado_2961" data-name="Trazado 2961" d="M25.628,10.39v-9A1.385,1.385,0,0,0,24.242,0H1.385A1.385,1.385,0,0,0,0,1.385V15.238a1.385,1.385,0,0,0,1.385,1.385H4.848" transform="translate(0)" fill="none" stroke="#784eeb" stroke-miterlimit="10" stroke-width="1.8"/>
    <line id="Línea_172" data-name="Línea 172" x1="24.504" transform="translate(0.681 3.451)" fill="none" stroke="#784eeb" stroke-miterlimit="10" stroke-width="1.8"/>
    <line id="Línea_173" data-name="Línea 173" x1="24.504" transform="translate(0.681 7.535)" fill="none" stroke="#784eeb" stroke-miterlimit="10" stroke-width="1.8"/>
    <rect id="Rectángulo_532" data-name="Rectángulo 532" width="24.504" height="16.336" rx="2" transform="translate(6.807 11.619)" fill="none" stroke="#784eeb" stroke-miterlimit="10" stroke-width="1.8"/>
    <line id="Línea_174" data-name="Línea 174" x2="4.084" transform="translate(8.849 22.85)" fill="none" stroke="#784eeb" stroke-miterlimit="10" stroke-width="1.8"/>
    <line id="Línea_175" data-name="Línea 175" x2="4.084" transform="translate(13.954 22.85)" fill="none" stroke="#784eeb" stroke-miterlimit="10" stroke-width="1.8"/>
    <line id="Línea_176" data-name="Línea 176" x2="4.084" transform="translate(20.079 22.85)" fill="none" stroke="#784eeb" stroke-miterlimit="10" stroke-width="1.8"/>
    <path id="Trazado_2962" data-name="Trazado 2962" d="M5.541,2.424A2.424,2.424,0,0,1,3.117,4.848H2.424A2.424,2.424,0,0,1,0,2.424H0A2.424,2.424,0,0,1,2.424,0h.693A2.424,2.424,0,0,1,5.541,2.424Z" transform="translate(22.857 15.238)" fill="none" stroke="#784eeb" stroke-miterlimit="10" stroke-width="1.8"/>
  </g>
</svg>
