<svg xmlns="http://www.w3.org/2000/svg" width="48" height="37" viewBox="0 0 48 37">
  <g id="Grupo_458" data-name="Grupo 458" transform="translate(0 1)">
    <path id="Trazado_1457" data-name="Trazado 1457" d="M380,317v7h35V302H380v12" transform="translate(-368 -295.485)" fill="none" stroke="rgba(48,48,83,0.89)" stroke-miterlimit="10" stroke-width="2"/>
    <path id="Trazado_1458" data-name="Trazado 1458" d="M388,320a2.8,2.8,0,0,0-3-3v-8a2.652,2.652,0,0,0,3-3h20a2.8,2.8,0,0,0,3,3v8a3,3,0,0,0-3,3Z" transform="translate(-368 -295.485)" fill="none" stroke="rgba(48,48,83,0.89)" stroke-miterlimit="10" stroke-width="2"/>
    <line id="Línea_24" data-name="Línea 24" x2="2" transform="translate(21 18)" fill="none" stroke="rgba(48,48,83,0.89)" stroke-miterlimit="10" stroke-width="2"/>
    <line id="Línea_25" data-name="Línea 25" x2="2" transform="translate(37 18)" fill="none" stroke="rgba(48,48,83,0.89)" stroke-miterlimit="10" stroke-width="2"/>
    <circle id="Elipse_7" data-name="Elipse 7" cx="4" cy="4" r="4" transform="translate(26 14)" fill="none" stroke="rgba(48,48,83,0.89)" stroke-miterlimit="10" stroke-width="2"/>
    <line id="Línea_26" data-name="Línea 26" x1="8" transform="translate(6 22)" fill="none" stroke="rgba(48,48,83,0.89)" stroke-miterlimit="10" stroke-width="2"/>
    <line id="Línea_27" data-name="Línea 27" x1="5" transform="translate(7 10)" fill="none" stroke="rgba(48,48,83,0.89)" stroke-miterlimit="10" stroke-width="2"/>
    <line id="Línea_28" data-name="Línea 28" x1="2" transform="translate(3 10)" fill="none" stroke="rgba(48,48,83,0.89)" stroke-miterlimit="10" stroke-width="2"/>
    <line id="Línea_29" data-name="Línea 29" x1="9" transform="translate(0 16)" fill="none" stroke="rgba(48,48,83,0.89)" stroke-miterlimit="10" stroke-width="2"/>
    <line id="Línea_30" data-name="Línea 30" x1="8" transform="translate(28 0)" fill="none" stroke="rgba(48,48,83,0.89)" stroke-miterlimit="10" stroke-width="2"/>
    <line id="Línea_31" data-name="Línea 31" x1="14" transform="translate(19 35)" fill="none" stroke="rgba(48,48,83,0.89)" stroke-miterlimit="10" stroke-width="2"/>
    <line id="Línea_32" data-name="Línea 32" x1="2" transform="translate(24 0)" fill="none" stroke="rgba(48,48,83,0.89)" stroke-miterlimit="10" stroke-width="2"/>
    <line id="Línea_33" data-name="Línea 33" x1="2" transform="translate(20 0)" fill="none" stroke="rgba(48,48,83,0.89)" stroke-miterlimit="10" stroke-width="2"/>
    <line id="Línea_34" data-name="Línea 34" x1="2" transform="translate(16 0)" fill="none" stroke="rgba(48,48,83,0.89)" stroke-miterlimit="10" stroke-width="2"/>
  </g>
</svg>
