<svg xmlns="http://www.w3.org/2000/svg" width="26.959" height="26.961" viewBox="0 0 26.959 26.961">
  <path id="Trazado_1477" data-name="Trazado 1477" d="M424.249,75.13l-5.557-5.556a2.606,2.606,0,0,0-3.686,0l-1.69,1.69-3.422,3.423L399.734,84.847l-1.682,10.924,10.924-1.682,9.7-9.7,3.422-3.423,2.148-2.148A2.61,2.61,0,0,0,424.249,75.13Zm-12.458-.023,6.925,6.924-.739.739-6.924-6.925Zm-5.2,17.228a2.348,2.348,0,0,0,.2.22,2.156,2.156,0,0,0,.222.179l-4.594.707-2.03-2.03.7-4.578a2.345,2.345,0,0,0,.192.216,2.188,2.188,0,0,0,1.554.631c.062,0,.124-.013.185-.018a2.207,2.207,0,0,0,.047.634,3.325,3.325,0,0,0,2.488,2.487,2.18,2.18,0,0,0,.489.055c.033,0,.066-.008.1-.01A2.17,2.17,0,0,0,406.589,92.334Zm3.3-15.33,1.469,1.469-7.673,7.673a1.143,1.143,0,0,1-1.588.071,1.2,1.2,0,0,1-.1-.111,1.08,1.08,0,0,1-.087-1.124ZM406.768,89.4a1.146,1.146,0,0,1-.955.242,2.146,2.146,0,0,1-1.606-1.607,1.157,1.157,0,0,1,.325-1.061l7.666-7.666,2.324,2.324-7.682,7.682C406.813,89.34,406.793,89.371,406.768,89.4Zm2.093,2.488a1.1,1.1,0,0,1-1.25-.162,1.414,1.414,0,0,1-.1-.112,1.117,1.117,0,0,1,.074-1.372c.038-.034.082-.06.118-.1l7.666-7.666,1.45,1.45ZM419.544,81.2l-6.924-6.924.7-.7,6.924,6.924Zm3.546-3.546-1.69,1.69-6.924-6.924,1.69-1.69a.99.99,0,0,1,1.368,0l5.556,5.556A.968.968,0,0,1,423.09,77.657Z" transform="translate(-398.052 -68.81)" fill="#303053"/>
</svg>
