<svg xmlns="http://www.w3.org/2000/svg" width="58.069" height="46.844" viewBox="0 0 58.069 46.844">
  <g id="Grupo_1835" data-name="Grupo 1835" transform="translate(-34.931 -377)">
    <g id="Grupo_1580" data-name="Grupo 1580">
      <g id="Grupo_498" data-name="Grupo 498" transform="matrix(0.966, 0.259, -0.259, 0.966, 42.556, 386.653)">
        <path id="Trazado_1484" data-name="Trazado 1484" d="M33.463,14.758,26.949,1.552A2.779,2.779,0,0,0,23.224.287L1.551,10.977A2.785,2.785,0,0,0,.287,14.7L6.8,27.909a2.78,2.78,0,0,0,3.725,1.264L32.2,18.483A2.785,2.785,0,0,0,33.463,14.758ZM2.351,12.6,24.024,1.91a.972.972,0,0,1,1.3.442l1.238,2.51L3.147,16.412,1.909,13.9A.974.974,0,0,1,2.351,12.6ZM31.4,16.86,9.725,27.55a.986.986,0,0,1-1.3-.442l-3.9-7.914L27.937,7.644l3.9,7.915A.973.973,0,0,1,31.4,16.86Z" transform="translate(0)" fill="#303053"/>
        <rect id="Rectángulo_353" data-name="Rectángulo 353" width="10.445" height="1.877" transform="matrix(0.897, -0.442, 0.442, 0.897, 9.137, 22.426)" fill="#303053"/>
      </g>
      <text id="z" transform="translate(71 387)" fill="#303053" font-size="15" font-family="BalooTamma2-SemiBold, 'Baloo Tamma 2'" font-weight="600"><tspan x="0" y="16">z</tspan></text>
      <text id="z-2" data-name="z" transform="translate(79 377)" fill="#303053" font-size="19" font-family="BalooTamma2-SemiBold, 'Baloo Tamma 2'" font-weight="600"><tspan x="0" y="20">z</tspan></text>
    </g>
  </g>
</svg>
