<svg xmlns="http://www.w3.org/2000/svg" width="38.57" height="35" viewBox="0 0 38.57 35">
  <g id="Grupo_934" data-name="Grupo 934" transform="translate(-208 -50)">
    <path id="Trazado_2961" data-name="Trazado 2961" d="M238.838,63.1V52.613A1.612,1.612,0,0,0,237.225,51H210.613A1.612,1.612,0,0,0,209,52.613V68.741a1.612,1.612,0,0,0,1.613,1.613h4.032" transform="translate(0 0)" fill="none" stroke="#4e5bee" stroke-miterlimit="10" stroke-width="2"/>
    <line id="Línea_172" data-name="Línea 172" x1="29" transform="translate(209.57 55)" fill="none" stroke="#4e5bee" stroke-miterlimit="10" stroke-width="2"/>
    <line id="Línea_173" data-name="Línea 173" x1="29" transform="translate(209.57 60)" fill="none" stroke="#4e5bee" stroke-miterlimit="10" stroke-width="2"/>
    <rect id="Rectángulo_532" data-name="Rectángulo 532" width="29" height="20" rx="2" transform="translate(216.57 64)" fill="none" stroke="#4e5bee" stroke-miterlimit="10" stroke-width="2"/>
    <line id="Línea_174" data-name="Línea 174" x2="4" transform="translate(219.57 78)" fill="none" stroke="#4e5bee" stroke-miterlimit="10" stroke-width="2"/>
    <line id="Línea_175" data-name="Línea 175" x2="5" transform="translate(225.57 78)" fill="none" stroke="#4e5bee" stroke-miterlimit="10" stroke-width="2"/>
    <line id="Línea_176" data-name="Línea 176" x2="4" transform="translate(232.57 78)" fill="none" stroke="#4e5bee" stroke-miterlimit="10" stroke-width="2"/>
    <path id="Trazado_2962" data-name="Trazado 2962" d="M248.451,75.822a2.822,2.822,0,0,1-2.822,2.822h-.806A2.822,2.822,0,0,1,242,75.822h0A2.822,2.822,0,0,1,244.822,73h.806a2.822,2.822,0,0,1,2.822,2.822Z" transform="translate(-6.388 -4.259)" fill="none" stroke="#4e5bee" stroke-miterlimit="10" stroke-width="2"/>
  </g>
</svg>
