<svg xmlns="http://www.w3.org/2000/svg" width="21.2" height="33.2" viewBox="0 0 21.2 33.2">
  <g id="Grupo_563" data-name="Grupo 563" transform="translate(-216.4 -128.4)">
    <path id="Trazado_1694" data-name="Trazado 1694" d="M234,166.276v-2.069s2.069-1.552,2.069-3.448V158" transform="translate(-5.276 -9)" fill="none" stroke="#303053" stroke-miterlimit="10" stroke-width="1.2"/>
    <path id="Trazado_1695" data-name="Trazado 1695" d="M223.828,146l-3.448,2.759A3.144,3.144,0,0,0,219,151.517v11.034" transform="translate(-0.621 -5.276)" fill="none" stroke="#303053" stroke-miterlimit="10" stroke-width="1.2"/>
    <rect id="Rectángulo_356" data-name="Rectángulo 356" width="13" height="4" transform="translate(217 157)" fill="none" stroke="#303053" stroke-miterlimit="10" stroke-width="1.2"/>
    <path id="Trazado_1696" data-name="Trazado 1696" d="M223,154.386l5.517-5.517c1.27-1.27,3.245,1.894,1.731,3.786l-1.731,1.731v2.069a2.568,2.568,0,0,1-2.759,2.759" transform="translate(-1.862 -6.075)" fill="none" stroke="#303053" stroke-miterlimit="10" stroke-width="1.2"/>
    <path id="Trazado_1697" data-name="Trazado 1697" d="M226,145.552V130.379A1.379,1.379,0,0,1,227.379,129h11.034a1.379,1.379,0,0,1,1.379,1.379v17.241A1.379,1.379,0,0,1,238.414,149h-8.966" transform="translate(-2.793)" fill="none" stroke="#303053" stroke-miterlimit="10" stroke-width="1.2"/>
    <line id="Línea_77" data-name="Línea 77" y2="20" transform="translate(233 129)" fill="none" stroke="#303053" stroke-miterlimit="10" stroke-width="1.2"/>
  </g>
</svg>
