<svg xmlns="http://www.w3.org/2000/svg" width="31.25" height="31.25" viewBox="0 0 31.25 31.25">
  <g id="Grupo_515" data-name="Grupo 515" transform="translate(0.1 0.1)">
    <g id="Grupo_500" data-name="Grupo 500" transform="translate(0 10.552)">
      <g id="Grupo_499" data-name="Grupo 499">
        <path id="Trazado_1492" data-name="Trazado 1492" d="M2697.944,1816.753a.606.606,0,0,0-.606.606v4.184a3.036,3.036,0,0,1-3.033,3.032h-6.547a.606.606,0,0,0-.606.606v1.206l-1.448-1.448a.606.606,0,0,0-.556-.364h-3.94a3.036,3.036,0,0,1-3.032-3.032V1812.2a3.036,3.036,0,0,1,3.032-3.032h6.125a.606.606,0,1,0,0-1.213h-6.125a4.25,4.25,0,0,0-4.245,4.245v9.339a4.25,4.25,0,0,0,4.245,4.245h3.63l2.49,2.491a.607.607,0,0,0,1.036-.428v-2.062h5.941a4.25,4.25,0,0,0,4.245-4.245v-4.184A.606.606,0,0,0,2697.944,1816.753Z" transform="translate(-2676.961 -1807.959)" fill="#303053" stroke="#303053" stroke-width="0.2"/>
      </g>
    </g>
    <g id="Grupo_502" data-name="Grupo 502" transform="translate(11.886 0)">
      <g id="Grupo_501" data-name="Grupo 501">
        <path id="Trazado_1493" data-name="Trazado 1493" d="M2883.311,1633.959h-1.535a8.814,8.814,0,0,0,0,17.629h1.535a8.82,8.82,0,0,0,2.237-.287l2.267,2.266a.607.607,0,0,0,1.035-.429v-3.509a8.906,8.906,0,0,0,2.317-2.856,8.72,8.72,0,0,0,.958-4A8.824,8.824,0,0,0,2883.311,1633.959Zm4.568,14.89a.608.608,0,0,0-.242.485v2.341l-1.484-1.483a.606.606,0,0,0-.607-.151,7.612,7.612,0,0,1-2.236.334h-1.535a7.6,7.6,0,0,1,0-15.2h1.535a7.6,7.6,0,0,1,4.568,13.677Z" transform="translate(-2872.961 -1633.959)" fill="#303053" stroke="#303053" stroke-width="0.2"/>
      </g>
    </g>
    <g id="Grupo_504" data-name="Grupo 504" transform="translate(19.071 4.249)">
      <g id="Grupo_503" data-name="Grupo 503">
        <path id="Trazado_1494" data-name="Trazado 1494" d="M2996.552,1706.409a2.568,2.568,0,0,0-5.129.181.606.606,0,0,0,1.213,0,1.355,1.355,0,1,1,1.653,1.322,1.147,1.147,0,0,0-.9,1.125v1.457a.606.606,0,1,0,1.213,0v-1.408A2.555,2.555,0,0,0,2996.552,1706.409Z" transform="translate(-2991.423 -1704.022)" fill="#303053" stroke="#303053" stroke-width="0.2"/>
      </g>
    </g>
    <g id="Grupo_506" data-name="Grupo 506" transform="translate(21.031 12.513)">
      <g id="Grupo_505" data-name="Grupo 505">
        <path id="Trazado_1495" data-name="Trazado 1495" d="M3024.8,1840.467a.607.607,0,1,0,.178.429A.611.611,0,0,0,3024.8,1840.467Z" transform="translate(-3023.761 -1840.289)" fill="#303053" stroke="#303053" stroke-width="0.2"/>
      </g>
    </g>
    <g id="Grupo_508" data-name="Grupo 508" transform="translate(3.275 18.8)">
      <g id="Grupo_507" data-name="Grupo 507">
        <path id="Trazado_1496" data-name="Trazado 1496" d="M2744.364,1943.959h-12.8a.607.607,0,0,0,0,1.213h12.8a.607.607,0,0,0,0-1.213Z" transform="translate(-2730.961 -1943.959)" fill="#303053" stroke="#303053" stroke-width="0.2"/>
      </g>
    </g>
    <g id="Grupo_510" data-name="Grupo 510" transform="translate(16.071 22.196)">
      <g id="Grupo_509" data-name="Grupo 509">
        <path id="Trazado_1497" data-name="Trazado 1497" d="M2943,2000.137a.606.606,0,1,0,.178.429A.611.611,0,0,0,2943,2000.137Z" transform="translate(-2941.961 -1999.959)" fill="#303053" stroke="#303053" stroke-width="0.2"/>
      </g>
    </g>
    <g id="Grupo_512" data-name="Grupo 512" transform="translate(3.275 22.196)">
      <g id="Grupo_511" data-name="Grupo 511">
        <path id="Trazado_1498" data-name="Trazado 1498" d="M2741.978,1999.959h-10.41a.606.606,0,0,0,0,1.213h10.41a.606.606,0,0,0,0-1.213Z" transform="translate(-2730.961 -1999.959)" fill="#303053" stroke="#303053" stroke-width="0.2"/>
      </g>
    </g>
    <g id="Grupo_514" data-name="Grupo 514" transform="translate(3.275 15.403)">
      <g id="Grupo_513" data-name="Grupo 513">
        <path id="Trazado_1499" data-name="Trazado 1499" d="M2740.422,1887.959h-8.854a.607.607,0,0,0,0,1.213h8.854a.607.607,0,0,0,0-1.213Z" transform="translate(-2730.961 -1887.959)" fill="#303053" stroke="#303053" stroke-width="0.2"/>
      </g>
    </g>
  </g>
</svg>
