<svg xmlns="http://www.w3.org/2000/svg" width="19.648" height="22.256" viewBox="0 0 19.648 22.256">
  <g id="Grupo_475" data-name="Grupo 475" transform="translate(0 0)">
    <g id="Grupo_472" data-name="Grupo 472" transform="translate(0 3.196)">
      <g id="Grupo_471" data-name="Grupo 471">
        <path id="Trazado_1478" data-name="Trazado 1478" d="M515.332,816.179a.869.869,0,0,0-.621,1.624,8.085,8.085,0,1,1-5.775,0,.869.869,0,1,0-.621-1.624,9.824,9.824,0,1,0,7.017,0Z" transform="translate(-502 -816.122)" fill="#303053"/>
      </g>
    </g>
    <g id="Grupo_474" data-name="Grupo 474" transform="translate(8.954 0)">
      <g id="Grupo_473" data-name="Grupo 473" transform="translate(0)">
        <path id="Trazado_1479" data-name="Trazado 1479" d="M527.711,807.256a.869.869,0,0,0-.869.87v8.513a.869.869,0,0,0,1.739,0v-8.513A.87.87,0,0,0,527.711,807.256Z" transform="translate(-526.842 -807.256)" fill="#303053"/>
      </g>
    </g>
  </g>
</svg>
