<svg xmlns="http://www.w3.org/2000/svg" width="45.807" height="37.089" viewBox="0 0 45.807 37.089">
  <g id="Grupo_454" data-name="Grupo 454" transform="translate(0 0)">
    <path id="Trazado_1450" data-name="Trazado 1450" d="M534.265,194.283a6.812,6.812,0,1,0-6.812-6.812A6.82,6.82,0,0,0,534.265,194.283Zm0-11.8a4.989,4.989,0,1,1-4.988,4.989A4.989,4.989,0,0,1,534.265,182.483Z" transform="translate(-510.886 -180.659)" fill="#303053"/>
    <path id="Trazado_1452" data-name="Trazado 1452" d="M544.77,216.736c-.695-.707-6.811-6.927-7.431-7.5-3.715-3.4-8.956-2.835-12.6-.8l-3.467-3.454a5.587,5.587,0,0,0-4.877-1.618,5.942,5.942,0,0,0-4.28,3.57,1.075,1.075,0,0,0,.212,1.22l4.474,4.474h-1.266a1,1,0,0,1-.708-.293l-6.294-6.305a5.591,5.591,0,0,0-4.878-1.618,5.943,5.943,0,0,0-4.28,3.571,1.075,1.075,0,0,0,.212,1.22l11.1,11.106a5.132,5.132,0,0,0,3.654,1.514h14.5a3.129,3.129,0,0,1,2.174.873l4.255,4.075a1.074,1.074,0,0,0,.744.3,1.091,1.091,0,0,0,.784-.339l7.99-8.512A1.076,1.076,0,0,0,544.77,216.736Zm-8.8,7.739L532.5,221.15a5.271,5.271,0,0,0-3.661-1.47h-14.5a3,3,0,0,1-2.134-.884l-10.528-10.537a3.283,3.283,0,0,1,5.337-.7l6.3,6.306a3.132,3.132,0,0,0,2.228.922h3.416l2.11,2.11a1.075,1.075,0,1,0,1.52-1.52l-8.166-8.166a3.283,3.283,0,0,1,5.339-.7l4.065,4.049a1.075,1.075,0,0,0,1.348.136c4.232-2.779,8.523-1.881,10.719.131.436.4,4.428,4.448,6.626,6.682Z" transform="translate(-499.272 -189.987)" fill="#303053"/>
  </g>
</svg>
