<svg xmlns="http://www.w3.org/2000/svg" width="42.059" height="27.334" viewBox="0 0 42.059 27.334">
  <g id="Grupo_4870" data-name="Grupo 4870" transform="translate(-368 -216)">
    <path id="Trazado_2949" data-name="Trazado 2949" d="M368,232h2.621s1.966,2.621,4.368,2.621h3.494" transform="translate(0 -1.896)" fill="none" stroke="#784eeb" stroke-miterlimit="10" stroke-width="2"/>
    <path id="Trazado_2950" data-name="Trazado 2950" d="M388.966,223.115l-3.494-4.368c-1.133-1.235-1.779-1.747-3.494-1.747H368" transform="translate(0 0)" fill="none" stroke="#784eeb" stroke-miterlimit="10" stroke-width="2"/>
    <path id="Trazado_2951" data-name="Trazado 2951" d="M380.115,221l6.989,6.989c1.609,1.609-2.4,4.111-4.8,2.193l-2.193-2.193h-2.621A3.252,3.252,0,0,1,374,224.494" transform="translate(-0.758 -0.506)" fill="none" stroke="#784eeb" stroke-miterlimit="10" stroke-width="2"/>
    <path id="Trazado_2952" data-name="Trazado 2952" d="M383.494,224h27.081v19.219H380V228.368" transform="translate(-1.517 -0.885)" fill="none" stroke="#784eeb" stroke-miterlimit="10" stroke-width="2"/>
    <path id="Trazado_2953" data-name="Trazado 2953" d="M384,242" transform="translate(-2.023 -3.16)" fill="none" stroke="#784eeb" stroke-miterlimit="10" stroke-width="2"/>
    <path id="Trazado_2954" data-name="Trazado 2954" d="M384,233.242v4.368a2.621,2.621,0,0,1,2.621,2.621h18.345a2.621,2.621,0,0,1,2.621-2.621v-6.989A2.621,2.621,0,0,1,404.966,228H390.115" transform="translate(-2.023 -1.391)" fill="none" stroke="#784eeb" stroke-miterlimit="10" stroke-width="2"/>
    <line id="Línea_147" data-name="Línea 147" x2="2" transform="translate(386.029 233.167)" fill="none" stroke="#784eeb" stroke-miterlimit="10" stroke-width="2"/>
    <line id="Línea_148" data-name="Línea 148" x2="2" transform="translate(400.029 233.167)" fill="none" stroke="#784eeb" stroke-miterlimit="10" stroke-width="2"/>
    <circle id="Elipse_89" data-name="Elipse 89" cx="3.5" cy="3.5" r="3.5" transform="translate(391.029 229.167)" fill="none" stroke="#784eeb" stroke-miterlimit="10" stroke-width="2"/>
  </g>
</svg>
