<svg xmlns="http://www.w3.org/2000/svg" width="33.767" height="24.53" viewBox="0 0 33.767 24.53">
  <g id="Grupo_4808" data-name="Grupo 4808" transform="translate(0 -0.001)">
    <path id="Trazado_9992" data-name="Trazado 9992" d="M348.2,432.692H344.78v1.6H348.2a1.218,1.218,0,0,1,1.216,1.217v1.364H344.78v2.86h4.635v9.34a1.216,1.216,0,0,1-1.216,1.214H325.388a1.216,1.216,0,0,1-1.215-1.214V445.7h-1.6v3.382a2.823,2.823,0,0,0,2.82,2.82H348.2a2.823,2.823,0,0,0,2.821-2.82V435.514A2.824,2.824,0,0,0,348.2,432.692Z" transform="translate(-317.252 -427.368)" fill="#5970e2"/>
    <path id="Trazado_9993" data-name="Trazado 9993" d="M332.564,417.148H309.857a2.816,2.816,0,0,0-2.813,2.812v13.505a2.816,2.816,0,0,0,2.813,2.813h22.707a2.814,2.814,0,0,0,2.81-2.813V419.96A2.814,2.814,0,0,0,332.564,417.148Zm-22.707,1.6h22.707a1.208,1.208,0,0,1,1.205,1.207v1.346H308.649V419.96A1.209,1.209,0,0,1,309.857,418.753Zm22.707,15.921H309.857a1.21,1.21,0,0,1-1.209-1.208v-9.312H333.77v9.312A1.208,1.208,0,0,1,332.564,434.673ZM311.133,430.6h1.915v1.594h-1.915Zm3.034,0h1.912v1.594h-1.912Zm3.035,0h1.912v1.594H317.2Zm3.029,0h1.917v1.594h-1.917Z" transform="translate(-307.044 -417.147)" fill="#5970e2"/>
  </g>
</svg>
