<svg xmlns="http://www.w3.org/2000/svg" width="42.161" height="36.617" viewBox="0 0 42.161 36.617">
  <g id="Grupo_444" data-name="Grupo 444" transform="translate(-207.586 -291)">
    <path id="Trazado_1434" data-name="Trazado 1434" d="M239.206,300h-7.7c-2.646,0-3.928,1.47-5.13,2.565s-9.558,8.551-9.558,8.551" transform="translate(-1.134 -1.159)" fill="none" stroke="#303053" stroke-linecap="round" stroke-linejoin="round" stroke-width="2"/>
    <path id="Trazado_1435" data-name="Trazado 1435" d="M228,322.589l2.565-2.565c2.85,0,5.359-.228,7.7-2.565.891-.891,3.152-3.2,3.152-3.2" transform="translate(-2.754 -3.226)" fill="none" stroke="#303053" stroke-linecap="round" stroke-linejoin="round" stroke-width="2"/>
    <rect id="Rectángulo_337" data-name="Rectángulo 337" width="7.256" height="18.139" transform="translate(209 313.377) rotate(-45)" fill="none" stroke="#303053" stroke-linecap="round" stroke-linejoin="round" stroke-width="2"/>
    <line id="Línea_21" data-name="Línea 21" x2="2" y2="2" transform="translate(214.333 313)" fill="none" stroke="#303053" stroke-linecap="round" stroke-linejoin="round" stroke-width="2"/>
    <path id="Trazado_1436" data-name="Trazado 1436" d="M250,315.087v2.565h4.275V292H250v2.565" transform="translate(-5.942)" fill="none" stroke="#303053" stroke-linecap="round" stroke-linejoin="round" stroke-width="2"/>
    <path id="Trazado_1437" data-name="Trazado 1437" d="M232.42,306h9.406c1.8,0,2.565.534,2.565,1.71,0,2.138-2.218,3.42-4.275,3.42h-2.329a1.722,1.722,0,0,0-1.51.92,6.318,6.318,0,0,1-5.567,3.355H229" transform="translate(-2.899 -2.029)" fill="none" stroke="#303053" stroke-linecap="round" stroke-linejoin="round" stroke-width="2"/>
    <path id="Trazado_1438" data-name="Trazado 1438" d="M240.055,304.841a7.7,7.7,0,0,1,12.779-4.881" transform="translate(-4.501 -0.87)" fill="none" stroke="#303053" stroke-linecap="round" stroke-linejoin="round" stroke-width="2"/>
    <path id="Trazado_1439" data-name="Trazado 1439" d="M253.046,313.46A7.7,7.7,0,0,1,241.514,312" transform="translate(-4.712 -2.898)" fill="none" stroke="#303053" stroke-linecap="round" stroke-linejoin="round" stroke-width="2"/>
  </g>
</svg>
