<svg xmlns="http://www.w3.org/2000/svg" width="42.414" height="44.178" viewBox="0 0 42.414 44.178">
  <g id="Grupo_544" data-name="Grupo 544" transform="translate(-368.586 -48.055)">
    <path id="Trazado_1570" data-name="Trazado 1570" d="M385,86.442a2.16,2.16,0,0,1,1.818-.909h12.727c1.01,0,6.566-5.572,7.273-6.364a48.6,48.6,0,0,0,4.545-7.273,3.638,3.638,0,0,0-3.636-.909c-1.607.374-2.553,1.527-3.636,3.636l-4.167,2.164" transform="translate(-1.364 -1.988)" fill="none" stroke="#303053" stroke-linejoin="round" stroke-width="2"/>
    <path id="Trazado_1571" data-name="Trazado 1571" d="M389.727,80.364H397c3.636,0,3.636-4.545,0-4.545h-4.8c-.757,0-2.177-1.818-3.378-1.818h-4.545a6.357,6.357,0,0,0-3.636,1.818L377,79.455" transform="translate(-0.636 -2.273)" fill="none" stroke="#303053" stroke-linejoin="round" stroke-width="2"/>
    <rect id="Rectángulo_398" data-name="Rectángulo 398" width="6.428" height="15.428" transform="translate(370 79.909) rotate(-45)" fill="none" stroke="#303053" stroke-linejoin="round" stroke-width="2"/>
    <line id="Línea_60" data-name="Línea 60" x2="1" y2="2" transform="translate(375 79.909)" fill="none" stroke="#303053" stroke-linejoin="round" stroke-width="2"/>
    <path id="Trazado_1572" data-name="Trazado 1572" d="M408.059,70.032a6.968,6.968,0,0,0,.123-1.326c0-4.757-2.983-9.065-8.182-12.705" transform="translate(-2.727 -0.636)" fill="none" stroke="#303053" stroke-miterlimit="10" stroke-width="2"/>
    <path id="Trazado_1573" data-name="Trazado 1573" d="M394.182,56c-5.2,3.64-8.182,7.948-8.182,12.705a6.119,6.119,0,0,0,1.121,3.66" transform="translate(-1.455 -0.636)" fill="none" stroke="#303053" stroke-miterlimit="10" stroke-width="2"/>
    <path id="Trazado_1574" data-name="Trazado 1574" d="M399.293,55.364c-.235.361-1.66.548-2.273.548a4.488,4.488,0,0,1-2.273-.548s-2.633-4.884-2.526-5.075c.954-1.712,2.94-1.382,4.8-.911a12.327,12.327,0,0,0,4.214.527C401.281,50.6,399.293,55.364,399.293,55.364Z" transform="translate(-2.02 0)" fill="none" stroke="#303053" stroke-miterlimit="10" stroke-width="2"/>
  </g>
</svg>
