<svg xmlns="http://www.w3.org/2000/svg" width="34.678" height="28.412" viewBox="0 0 34.678 28.412">
  <g id="Grupo_4351" data-name="Grupo 4351" transform="translate(-393.129 -290.539)">
    <path id="Trazado_7575" data-name="Trazado 7575" d="M417.13,297.6a10.707,10.707,0,0,0-2.066.2v-2.082h-.072a2.317,2.317,0,0,0,.072-.57c0-3-5.651-4.612-10.968-4.612s-10.968,1.616-10.968,4.612a2.315,2.315,0,0,0,.072.57h-.072v4.493a2.3,2.3,0,0,0,.05.465h-.05v4.493a2.293,2.293,0,0,0,.05.464h-.05v4.493c0,3,5.651,4.612,10.968,4.612a25.851,25.851,0,0,0,4.292-.355A10.671,10.671,0,1,0,417.13,297.6Zm0,19.737a9.131,9.131,0,0,1-9.061-9.061c0-.144.015-.284.022-.426a8.978,8.978,0,0,1,.878-3.484A9.063,9.063,0,0,1,413.449,300a9.241,9.241,0,0,1,3.681-.789,9.061,9.061,0,1,1,0,18.122ZM404.1,308.169c-5.709,0-9.353-1.775-9.353-3v-2.465c2.058,1.388,5.78,2.119,9.353,2.119a26.46,26.46,0,0,0,3-.171,10.594,10.594,0,0,0-.634,3.4C405.721,308.127,404.934,308.169,404.1,308.169Zm3.81-5.245a24.318,24.318,0,0,1-3.81.288c-5.709,0-9.353-1.775-9.353-3v-2.57c2.058,1.388,5.78,2.119,9.353,2.119s7.294-.731,9.353-2.119v.622A10.718,10.718,0,0,0,407.907,302.924Zm-3.81-10.769c5.709,0,9.353,1.775,9.353,3s-3.644,3-9.353,3-9.353-1.775-9.353-3S398.387,292.155,404.1,292.155Zm0,20.971c-5.709,0-9.353-1.775-9.353-3v-2.464c2.058,1.388,5.78,2.119,9.353,2.119.819,0,1.646-.039,2.459-.115a10.58,10.58,0,0,0,.963,3.224A24.64,24.64,0,0,1,404.1,313.126Z" fill="#784eeb"/>
    <path id="Trazado_7576" data-name="Trazado 7576" d="M438.591,320.24V317.6c.638.13,1.045.456,1.1.915l1.335-.172a2.573,2.573,0,0,0-2.44-2.1V315.6h-1.346v.642a3.263,3.263,0,0,0-1.393.549,2.481,2.481,0,0,0-.968,1.345,2.123,2.123,0,0,0-.079.48,2.06,2.06,0,0,0,.166.954,2.662,2.662,0,0,0,.88,1.1,4.015,4.015,0,0,0,1.393.647v2.637c-.638-.13-1.046-.456-1.1-.915l-.336.043-1,.129a2.157,2.157,0,0,0,.427,1.031,2.958,2.958,0,0,0,2.012,1.073v.637h1.346v-.641a2.664,2.664,0,0,0,2.44-2.373C441.1,322.21,440.645,320.789,438.591,320.24Zm-2.442-1.529a1.307,1.307,0,0,1,1.1-1.084v2.287C436.159,319.507,436.144,318.815,436.149,318.711Zm2.442,5.224v-2.287c1.087.406,1.1,1.1,1.1,1.2A1.306,1.306,0,0,1,438.591,323.934Z" transform="translate(-20.789 -12.504)" fill="#784eeb"/>
    <path id="Trazado_7577" data-name="Trazado 7577" d="M433.476,310.8a7.536,7.536,0,0,0-2.066.293c-.049.014-.1.023-.147.038a7.626,7.626,0,0,0-5.331,6.511c-.024.243-.038.49-.038.739a7.581,7.581,0,1,0,7.581-7.581Zm0,13.816a6.2,6.2,0,0,1-4.152-1.6,6.276,6.276,0,0,1-1.077-1.255,6.186,6.186,0,0,1-.978-2.835c-.016-.181-.028-.363-.028-.549a6.235,6.235,0,1,1,6.236,6.235Z" transform="translate(-16.346 -10.11)" fill="#784eeb"/>
  </g>
</svg>
