<svg xmlns="http://www.w3.org/2000/svg" width="18.874" height="27.969" viewBox="0 0 18.874 27.969">
  <g id="Grupo_532" data-name="Grupo 532" transform="translate(-267.913 -651.25)">
    <g id="Grupo_504" data-name="Grupo 504" transform="translate(268.277 652)">
      <line id="Línea_53" data-name="Línea 53" y2="5" transform="translate(14.073 19.11)" fill="none" stroke="#fff" stroke-linejoin="round" stroke-width="1.5"/>
      <path id="Trazado_1512" data-name="Trazado 1512" d="M161.633,249,157,251.9v1.158" transform="translate(-146.19 -225.835)" fill="none" stroke="#fff" stroke-linejoin="round" stroke-width="1.5"/>
      <line id="Línea_54" data-name="Línea 54" y2="5" transform="translate(4.073 19.11)" fill="none" stroke="#fff" stroke-linejoin="round" stroke-width="1.5"/>
      <path id="Trazado_1513" data-name="Trazado 1513" d="M166.317,249.212V246.9a1.528,1.528,0,0,0-.579-1.158L164,244" transform="translate(-149.136 -223.731)" fill="none" stroke="#fff" stroke-linejoin="round" stroke-width="1.5"/>
      <path id="Trazado_1514" data-name="Trazado 1514" d="M140,249.212V246.9a1.528,1.528,0,0,1,.579-1.158L142.317,244" transform="translate(-139.035 -223.731)" fill="none" stroke="#fff" stroke-linejoin="round" stroke-width="1.5"/>
      <path id="Trazado_1515" data-name="Trazado 1515" d="M143,249l4.633,2.9v1.158" transform="translate(-140.297 -225.835)" fill="none" stroke="#fff" stroke-linejoin="round" stroke-width="1.5"/>
      <path id="Trazado_1516" data-name="Trazado 1516" d="M155.741,228v3.475a6.971,6.971,0,0,1-.579,2.9,24.836,24.836,0,0,1-2.317,2.317,4.171,4.171,0,0,1-2.9,1.158h-1.158a4.171,4.171,0,0,1-2.9-1.158,24.763,24.763,0,0,1-2.317-2.317,6.962,6.962,0,0,1-.579-2.9V228" transform="translate(-140.297 -216.997)" fill="none" stroke="#fff" stroke-linejoin="round" stroke-width="1.5"/>
      <path id="Trazado_1517" data-name="Trazado 1517" d="M151,214.212V209h3.475v5.212" transform="translate(-143.664 -209)" fill="none" stroke="#fff" stroke-linejoin="round" stroke-width="1.5"/>
      <line id="Línea_55" data-name="Línea 55" x1="6" transform="translate(0.073 10.11)" fill="none" stroke="#fff" stroke-linejoin="round" stroke-width="1.5"/>
      <line id="Línea_56" data-name="Línea 56" x1="6" transform="translate(12.073 10.11)" fill="none" stroke="#fff" stroke-linejoin="round" stroke-width="1.5"/>
      <path id="Trazado_1518" data-name="Trazado 1518" d="M160,212.9V210c2.26,1.26,4.054,2.871,4.054,5.791v1.158l1.158.579v1.158" transform="translate(-147.452 -209.421)" fill="none" stroke="#fff" stroke-linejoin="round" stroke-width="1.5"/>
      <path id="Trazado_1519" data-name="Trazado 1519" d="M144.212,212.9V210c-2.317,1.26-4.054,2.871-4.054,5.791v1.158l-1.158.579v1.158" transform="translate(-138.614 -209.421)" fill="none" stroke="#fff" stroke-linejoin="round" stroke-width="1.5"/>
      <ellipse id="Elipse_13" data-name="Elipse 13" cx="2" cy="2.5" rx="2" ry="2.5" transform="translate(7.073 6.11)" fill="none" stroke="#fff" stroke-linejoin="round" stroke-width="1.5"/>
    </g>
  </g>
</svg>
