<svg xmlns="http://www.w3.org/2000/svg" width="28.097" height="38.929" viewBox="0 0 28.097 38.929">
  <g id="Grupo_4771" data-name="Grupo 4771" transform="translate(-4.527 -406.382)">
    <g id="Grupo_4770" data-name="Grupo 4770" transform="translate(11.431 406.704)">
      <g id="Grupo_3784" data-name="Grupo 3784" transform="translate(0 0)">
        <path id="Trazado_8467" data-name="Trazado 8467" d="M100.437,772.215C97,775,92.083,775.259,92.083,775.259c0,12,8.354,14.506,8.354,14.506s8.354-2.5,8.354-14.506C108.791,775.259,103.869,775,100.437,772.215Z" transform="translate(-92.083 -772.215)" fill="#303053" stroke="#fff" stroke-width="0.5"/>
      </g>
      <path id="Trazado_8468" data-name="Trazado 8468" d="M131.363,807.885a17.517,17.517,0,0,1-4.536-1.782l-.433-.25-.433.25a17.508,17.508,0,0,1-4.536,1.782c-.17.042-.343.083-.514.121l-.767.17.1.78a13.1,13.1,0,0,0,3.227,7.514,10.226,10.226,0,0,0,2.508,1.98l.42.233.42-.233a10.231,10.231,0,0,0,2.509-1.979,13.1,13.1,0,0,0,3.227-7.514l.1-.78-.767-.17C131.706,807.968,131.533,807.927,131.363,807.885Z" transform="translate(-118.039 -803.331)" fill="#fff" stroke="#fff" stroke-width="0.5"/>
      <path id="Trazado_8469" data-name="Trazado 8469" d="M162.067,853.067,159,856.132l-1.323-1.323-1.343,1.343L159,858.818l1.247-1.247.1-.1,3.065-3.065Z" transform="translate(-151.519 -847.006)" fill="#303053" stroke="#fff" stroke-width="0.5"/>
    </g>
    <path id="Trazado_10184" data-name="Trazado 10184" d="M328.487,808.813a1.689,1.689,0,0,0-1.328-.565H304.831l-.56-3.237a.638.638,0,0,0-.628-.53h-2.115a.638.638,0,0,0,0,1.277h1.578l2.587,14.971.486,2.821a.639.639,0,0,0,.629.53h3.467a1.461,1.461,0,0,0-.687,1.222,1.492,1.492,0,1,0,2.984,0,1.461,1.461,0,0,0-.687-1.222h8.2a1.467,1.467,0,0,0-.682,1.222,1.5,1.5,0,1,0,2.991,0,1.468,1.468,0,0,0-.683-1.222h3.594a.638.638,0,1,0,0-1.276H307.345l-.267-1.545h18.705c1.367,0,1.916-1.346,2.013-2.058l1.167-8.452A2.651,2.651,0,0,0,328.487,808.813Zm-12.652,3.431H312.2v-2.72h3.639Zm1.276-2.72h3.639v2.72h-3.639Zm-1.276,4v2.7H312.2v-2.7Zm-4.915,2.7h-4.712l-.466-2.7h5.178Zm-4.491,1.276h4.491v2.482h-4.063Zm5.768,0h3.639v2.482H312.2Zm4.915,0h3.639v2.482h-3.639Zm0-1.276v-2.7h3.639v2.7Zm4.916-2.7h5.266l-.374,2.7h-4.892Zm5.5-3.87a1.436,1.436,0,0,1,.175.923l-.231,1.67h-5.441v-2.72h5.132A.427.427,0,0,1,327.525,809.651Zm-16.6-.127v2.72h-5.249a.573.573,0,0,0-.145.029l-.475-2.75Zm14.863,10.457h-3.756V817.5h4.716l-.211,1.526C326.531,819.034,326.383,819.981,325.783,819.981Z" transform="translate(-296.362 -381.486)" fill="#303053"/>
  </g>
</svg>
