<svg xmlns="http://www.w3.org/2000/svg" width="38.464" height="34.957" viewBox="0 0 38.464 34.957">
  <g id="Grupo_4871" data-name="Grupo 4871" transform="translate(-208 -50)">
    <path id="Trazado_2947" data-name="Trazado 2947" d="M238.7,63.042V52.606A1.605,1.605,0,0,0,237.1,51H210.606A1.605,1.605,0,0,0,209,52.606V68.661a1.605,1.605,0,0,0,1.606,1.606h4.014" fill="none" stroke="#784eeb" stroke-miterlimit="10" stroke-width="2"/>
    <line id="Línea_141" data-name="Línea 141" x1="29" transform="translate(209.464 54.957)" fill="none" stroke="#784eeb" stroke-miterlimit="10" stroke-width="2"/>
    <line id="Línea_142" data-name="Línea 142" x1="29" transform="translate(209.464 59.957)" fill="none" stroke="#784eeb" stroke-miterlimit="10" stroke-width="2"/>
    <rect id="Rectángulo_520" data-name="Rectángulo 520" width="29" height="19" rx="2" transform="translate(216.464 64.957)" fill="none" stroke="#784eeb" stroke-miterlimit="10" stroke-width="2"/>
    <line id="Línea_143" data-name="Línea 143" x2="4" transform="translate(219.464 77.957)" fill="none" stroke="#784eeb" stroke-miterlimit="10" stroke-width="2"/>
    <line id="Línea_144" data-name="Línea 144" x2="4" transform="translate(225.464 77.957)" fill="none" stroke="#784eeb" stroke-miterlimit="10" stroke-width="2"/>
    <line id="Línea_145" data-name="Línea 145" x2="4" transform="translate(232.464 77.957)" fill="none" stroke="#784eeb" stroke-miterlimit="10" stroke-width="2"/>
    <line id="Línea_146" data-name="Línea 146" x2="4" transform="translate(238.464 77.957)" fill="none" stroke="#784eeb" stroke-miterlimit="10" stroke-width="2"/>
    <path id="Trazado_2948" data-name="Trazado 2948" d="M248.422,75.81a2.81,2.81,0,0,1-2.81,2.81h-.8A2.81,2.81,0,0,1,242,75.81h0A2.81,2.81,0,0,1,244.81,73h.8a2.81,2.81,0,0,1,2.81,2.81Z" transform="translate(-6.508 -4.339)" fill="none" stroke="#784eeb" stroke-miterlimit="10" stroke-width="2"/>
  </g>
</svg>
