<svg xmlns="http://www.w3.org/2000/svg" width="38.457" height="36.291" viewBox="0 0 38.457 36.291">
  <g id="Grupo_4346" data-name="Grupo 4346" transform="translate(-105.266 -222.244) rotate(30)">
    <path id="Trazado_7565" data-name="Trazado 7565" d="M234,167.045v-2.261s2.261-1.7,2.261-3.769V158" transform="translate(-4.186 -7.141)" fill="none" stroke="#784eeb" stroke-miterlimit="10" stroke-width="2"/>
    <path id="Trazado_7566" data-name="Trazado 7566" d="M224.276,146l-3.769,3.015A3.436,3.436,0,0,0,219,152.03v12.06" transform="translate(-0.492 -4.186)" fill="none" stroke="#784eeb" stroke-miterlimit="10" stroke-width="2"/>
    <rect id="Rectángulo_1495" data-name="Rectángulo 1495" width="14" height="3" transform="translate(217.43 160.337)" fill="none" stroke="#784eeb" stroke-miterlimit="10" stroke-width="2"/>
    <path id="Trazado_7567" data-name="Trazado 7567" d="M223,154.926l6.03-6.03c1.388-1.388,3.546,2.07,1.892,4.138l-1.892,1.892v2.261a2.806,2.806,0,0,1-3.015,3.015" transform="translate(-1.477 -4.82)" fill="none" stroke="#784eeb" stroke-miterlimit="10" stroke-width="2"/>
    <path id="Trazado_7568" data-name="Trazado 7568" d="M226,147.091V130.508A1.507,1.507,0,0,1,227.508,129h12.06a1.507,1.507,0,0,1,1.508,1.508v18.844a1.507,1.507,0,0,1-1.508,1.508h-9.8" transform="translate(-2.216)" fill="none" stroke="#784eeb" stroke-miterlimit="10" stroke-width="2"/>
    <line id="Línea_233" data-name="Línea 233" y2="22" transform="translate(235.43 129.337)" fill="none" stroke="#784eeb" stroke-miterlimit="10" stroke-width="2"/>
  </g>
</svg>
