<svg xmlns="http://www.w3.org/2000/svg" width="30.294" height="30.295" viewBox="0 0 30.294 30.295">
  <g id="security_system" data-name="security system" transform="translate(-190 -159.999)">
    <path id="Trazado_3380" data-name="Trazado 3380" d="M202.128,162.186h-9.467a.476.476,0,0,0-.474.474v2.84a.475.475,0,0,0,.474.473h9.467a.473.473,0,0,0,.473-.473v-2.84A.474.474,0,0,0,202.128,162.186Zm-.474,2.84h-8.52v-1.893h8.52Z" transform="translate(1.126 1.126)" fill="#303053"/>
    <g id="Grupo_1114" data-name="Grupo 1114" transform="translate(194.26 168.519)">
      <circle id="Elipse_85" data-name="Elipse 85" cx="0.947" cy="0.947" r="0.947" fill="#303053"/>
      <circle id="Elipse_86" data-name="Elipse 86" cx="0.947" cy="0.947" r="0.947" transform="translate(3.314)" fill="#303053"/>
      <circle id="Elipse_87" data-name="Elipse 87" cx="0.947" cy="0.947" r="0.947" transform="translate(6.627)" fill="#303053"/>
      <circle id="Elipse_88" data-name="Elipse 88" cx="0.947" cy="0.947" r="0.947" transform="translate(0 3.313)" fill="#303053"/>
      <circle id="Elipse_89" data-name="Elipse 89" cx="0.947" cy="0.947" r="0.947" transform="translate(3.314 3.313)" fill="#303053"/>
      <circle id="Elipse_90" data-name="Elipse 90" cx="0.947" cy="0.947" r="0.947" transform="translate(6.627 3.313)" fill="#303053"/>
      <circle id="Elipse_91" data-name="Elipse 91" cx="0.947" cy="0.947" r="0.947" transform="translate(0 6.627)" fill="#303053"/>
      <circle id="Elipse_92" data-name="Elipse 92" cx="0.947" cy="0.947" r="0.947" transform="translate(3.314 6.627)" fill="#303053"/>
    </g>
    <path id="Trazado_3381" data-name="Trazado 3381" d="M216.512,179.474a5.5,5.5,0,0,1-1.5-2.124,8.463,8.463,0,0,0-1.8-2.716l-1.677-1.707c-.918-.882-1.763-1.571-2.958-1.068a8.566,8.566,0,0,0-.869.417l-.006,0-1.887,1.071-.024.012h0l-.018.012c-.45.311-1.148.707-1.55.935l-3.935-4.109a1.856,1.856,0,0,0-1.3-.6,1.9,1.9,0,0,0-1.331.492,1.866,1.866,0,0,0-.1,2.633l5.608,5.845c-.3-.053-.62-.106-.921-.141A1.962,1.962,0,0,0,200.021,180c-.147,1.059.7,1.987,2.081,2.266l.342.065a25.64,25.64,0,0,1,8.222,2.961.446.446,0,0,0,.23.062.474.474,0,0,0,.233-.888,26.4,26.4,0,0,0-8.511-3.064l-.33-.065c-.7-.142-1.418-.577-1.325-1.2a1.031,1.031,0,0,1,1.183-.757,19.354,19.354,0,0,1,2.337.473.47.47,0,0,0,.467-.78l-6.692-6.986a.908.908,0,0,1,.055-1.289.887.887,0,0,1,.65-.241.9.9,0,0,1,.639.3l4.2,4.375,1.577,1.642a.458.458,0,0,0,.339.145.465.465,0,0,0,.329-.13.475.475,0,0,0,.015-.668l-1.151-1.2c.317-.177.719-.415,1.074-.639l1.291,1.35a.476.476,0,0,0,.816-.332.462.462,0,0,0-.13-.326l-1.142-1.189,1.041-.592,1.213,1.266a.474.474,0,0,0,.669.015.474.474,0,0,0,.014-.673l-1.022-1.065c.07-.035.144-.065.221-.1.562-.239.977-.05,1.924.866l1.656,1.684a7.508,7.508,0,0,1,1.616,2.443,6.437,6.437,0,0,0,1.7,2.428.475.475,0,0,0,.662-.68Z" transform="translate(3.64 4.944)" fill="#303053"/>
    <path id="Trazado_3382" data-name="Trazado 3382" d="M204.673,160H192.366A2.367,2.367,0,0,0,190,162.365v15.621a2.367,2.367,0,0,0,2.366,2.366h9.444l-.906-.947h-8.539a1.421,1.421,0,0,1-1.419-1.419V162.365a1.424,1.424,0,0,1,1.419-1.419h12.307a1.425,1.425,0,0,1,1.421,1.419v12.983l.947.988v-13.97A2.37,2.37,0,0,0,204.673,160Z" transform="translate(0)" fill="#303053"/>
  </g>
</svg>
