<svg xmlns="http://www.w3.org/2000/svg" width="34.627" height="24.609" viewBox="0 0 34.627 24.609">
  <g id="Grupo_4352" data-name="Grupo 4352" transform="translate(-64.268 -296.139)">
    <path id="Trazado_7571" data-name="Trazado 7571" d="M64.267,296.138v18.907H98.895V296.138Zm32.933,5.13a3.565,3.565,0,0,1-3.493-3.435H97.2Zm-15.264-3.435a7.716,7.716,0,1,1-.709,0Zm-9.333,7.7a8.98,8.98,0,0,0,4.579,7.818H70.717a4.828,4.828,0,0,0-4.755-4.7v-6.122a4.828,4.828,0,0,0,4.755-4.7h6.267A8.974,8.974,0,0,0,72.6,305.531Zm17.956,0a8.973,8.973,0,0,0-4.382-7.7h6.267a4.829,4.829,0,0,0,4.755,4.7v6.122a4.828,4.828,0,0,0-4.755,4.7H85.98A8.979,8.979,0,0,0,90.559,305.531Zm-21.1-7.7a3.564,3.564,0,0,1-3.492,3.435v-3.435Zm-3.492,12.082a3.565,3.565,0,0,1,3.492,3.435H65.963Zm27.744,3.435a3.565,3.565,0,0,1,3.493-3.435v3.435Z" fill="#784eeb"/>
    <rect id="Rect치ngulo_1496" data-name="Rect치ngulo 1496" width="34.523" height="1.696" transform="translate(64.287 316.201)" fill="#784eeb"/>
    <rect id="Rect치ngulo_1497" data-name="Rect치ngulo 1497" width="34.523" height="1.696" transform="translate(64.287 319.052)" fill="#784eeb"/>
    <path id="Trazado_7572" data-name="Trazado 7572" d="M117.565,313.8a1.193,1.193,0,1,0-1.193-1.192A1.193,1.193,0,0,0,117.565,313.8Z" transform="translate(-23.923 -7.012)" fill="#784eeb"/>
    <path id="Trazado_7573" data-name="Trazado 7573" d="M72.965,311.41a1.193,1.193,0,1,0,1.193,1.194A1.194,1.194,0,0,0,72.965,311.41Z" transform="translate(-3.446 -7.012)" fill="#784eeb"/>
    <path id="Trazado_7574" data-name="Trazado 7574" d="M93.755,301.911h-1.7v1.007a3.248,3.248,0,0,0-3.12,3.093,3.346,3.346,0,0,0,3.12,3.018v2.8a1.877,1.877,0,0,1-1.444-1.262l-1.657.355a3.627,3.627,0,0,0,3.1,2.644v1.013h1.7v-1.007a3.248,3.248,0,0,0,3.12-3.093,3.345,3.345,0,0,0-3.12-3.018v-2.8a1.876,1.876,0,0,1,1.444,1.262l1.657-.355a3.626,3.626,0,0,0-3.1-2.644Zm-3.12,4.1c0-.541.4-1.149,1.425-1.368v2.651C91.13,307.059,90.635,306.469,90.635,306.011Zm4.548,4.464c0,.542-.4,1.149-1.425,1.369v-2.651C94.687,309.428,95.183,310.018,95.183,310.476Z" transform="translate(-11.328 -2.651)" fill="#784eeb"/>
  </g>
</svg>
