<svg xmlns="http://www.w3.org/2000/svg" width="42.92" height="37.258" viewBox="0 0 42.92 37.258">
  <g id="Grupo_666" data-name="Grupo 666" transform="translate(-167.681 -395.619)">
    <path id="Trazado_1926" data-name="Trazado 1926" d="M199.267,414.544a16.821,16.821,0,0,0,11.332-15.8l-.042-.934h-8.32l-.106.858a4.219,4.219,0,0,1-1.531,3.087v-6.138H177.683v6.138a4.218,4.218,0,0,1-1.531-3.087l-.107-.858h-8.32l-.042.934a16.821,16.821,0,0,0,11.332,15.8,1.624,1.624,0,0,1,1.076,1.708,1.767,1.767,0,0,1-1.458,1.644,3.094,3.094,0,0,1-2.761-1.245l-1.644,1.06a5.081,5.081,0,0,0,4.105,2.167,3.479,3.479,0,0,0,.688-.065,3.672,3.672,0,0,0,3.019-3.819,11.411,11.411,0,0,0,4.581,2.194v6.532h-3.067v3.058h-2.711v5.1h16.593v-5.1h-2.711v-3.058H191.66v-6.532a11.411,11.411,0,0,0,4.581-2.194,3.672,3.672,0,0,0,3.019,3.819,3.44,3.44,0,0,0,.688.065,5.082,5.082,0,0,0,4.106-2.167l-1.645-1.059a3.084,3.084,0,0,1-2.761,1.244,1.766,1.766,0,0,1-1.458-1.644A1.624,1.624,0,0,1,199.267,414.544Zm1.332-7.527v-3.062a5.465,5.465,0,0,0,3.325-4.186h4.688a14.731,14.731,0,0,1-9.391,12.691A11.389,11.389,0,0,0,200.6,407.017Zm-30.939-7.248h4.7a5.464,5.464,0,0,0,3.325,4.186v3.062a11.386,11.386,0,0,0,1.379,5.443A14.564,14.564,0,0,1,169.66,399.769Zm25.821,31.152H182.8v-1.187h12.68Zm-2.71-3.143h-7.26v-1.1h7.26Zm-3.067-3.058h-1.126v-6.273c.188.009.373.029.563.029s.375-.02.563-.029Zm-.563-8.2a9.513,9.513,0,0,1-9.5-9.5v-9.441h19v9.441A9.513,9.513,0,0,1,189.141,416.519Z" fill="#303053"/>
    <path id="Trazado_1927" data-name="Trazado 1927" d="M213.284,402.2a.7.7,0,0,0-.7.7v6.694a6.653,6.653,0,0,1-6.436,6.836.7.7,0,1,0,0,1.4,8.05,8.05,0,0,0,7.833-8.233v-6.694A.7.7,0,0,0,213.284,402.2Z" transform="translate(-17.008 -2.962)" fill="#303053"/>
  </g>
</svg>
