<svg id="Grupo_674" data-name="Grupo 674" xmlns="http://www.w3.org/2000/svg" width="33.414" height="31.258" viewBox="0 0 33.414 31.258">
  <g id="Grupo_671" data-name="Grupo 671">
    <path id="Trazado_1935" data-name="Trazado 1935" d="M237.847,911.092h14.364v30.056H228.167V920.7Z" transform="translate(-227.566 -910.491)" fill="#fff"/>
    <path id="Trazado_1936" data-name="Trazado 1936" d="M251.414,940.35H226.167V919.3h1.2v19.846h22.842V910.294H236.449v-1.2h14.965Z" transform="translate(-226.167 -909.092)" fill="#303053"/>
    <path id="Trazado_1937" data-name="Trazado 1937" d="M236.176,911.092V919.1h-8.009Z" transform="translate(-227.566 -910.491)" fill="#303053"/>
    <path id="Trazado_1938" data-name="Trazado 1938" d="M256.415,969.05H240.286a.451.451,0,0,1,0-.9h16.129a.451.451,0,0,1,0,.9Z" transform="translate(-235.727 -950.398)" fill="#303053"/>
    <path id="Trazado_1939" data-name="Trazado 1939" d="M256.415,960.562H240.286a.451.451,0,0,1,0-.9h16.129a.451.451,0,0,1,0,.9Z" transform="translate(-235.727 -944.461)" fill="#303053"/>
    <path id="Trazado_1940" data-name="Trazado 1940" d="M256.415,952.072H240.286a.451.451,0,1,1,0-.9h16.129a.451.451,0,1,1,0,.9Z" transform="translate(-235.727 -938.523)" fill="#303053"/>
    <path id="Trazado_1941" data-name="Trazado 1941" d="M256.415,977.541H240.286a.451.451,0,0,1,0-.9h16.129a.451.451,0,0,1,0,.9Z" transform="translate(-235.727 -956.337)" fill="#303053"/>
    <path id="Trazado_1942" data-name="Trazado 1942" d="M248.38,986.031h-8.094a.451.451,0,1,1,0-.9h8.094a.451.451,0,1,1,0,.9Z" transform="translate(-235.727 -962.275)" fill="#303053"/>
  </g>
  <g id="Grupo_673" data-name="Grupo 673" transform="translate(17.384 15.228)">
    <path id="Trazado_1943" data-name="Trazado 1943" d="M300.036,967.773a8.015,8.015,0,1,1-8.015-8.015A8.015,8.015,0,0,1,300.036,967.773Z" transform="translate(-284.006 -959.758)" fill="#fff"/>
    <path id="Trazado_1944" data-name="Trazado 1944" d="M301.631,970.571a6.813,6.813,0,1,1-6.812-6.813A6.813,6.813,0,0,1,301.631,970.571Z" transform="translate(-286.804 -962.556)" fill="#303053"/>
    <g id="Grupo_672" data-name="Grupo 672" transform="translate(3.929 4.587)">
      <path id="Trazado_1945" data-name="Trazado 1945" d="M299.609,981.849l-2.352-3.157h0a.9.9,0,0,1,.184-1.262h0a.9.9,0,0,1,1.262.184h0l1.629,2.187,3.292-4.418a.9.9,0,0,1,1.262-.184h0a.9.9,0,0,1,.184,1.262h0l-4.016,5.388a.9.9,0,0,1-.723.363h0a.9.9,0,0,1-.723-.363Z" transform="translate(-297.078 -975.021)" fill="#fff"/>
    </g>
  </g>
</svg>
