<svg id="Grupo_464" data-name="Grupo 464" xmlns="http://www.w3.org/2000/svg" width="27.454" height="30.344" viewBox="0 0 27.454 30.344">
  <path id="Trazado_1468" data-name="Trazado 1468" d="M184.844,553.192a1.515,1.515,0,0,0-1.514,1.514v5.428a1.516,1.516,0,0,0,1.514,1.514h4.478a1.516,1.516,0,0,0,1.515-1.514v-5.428a1.516,1.516,0,0,0-1.515-1.514Zm4.024,6.487H185.3v-4.518h3.569Z" transform="translate(-182.2 -534.481)" fill="#3eb9fd"/>
  <path id="Trazado_1469" data-name="Trazado 1469" d="M201.505,547.018a1.517,1.517,0,0,0-1.516,1.515v8.752a1.516,1.516,0,0,0,1.516,1.514h4.477a1.515,1.515,0,0,0,1.513-1.514v-8.752a1.516,1.516,0,0,0-1.513-1.515Zm4.021,9.812h-3.568v-7.843h3.568Z" transform="translate(-189.888 -531.632)" fill="#3eb9fd"/>
  <path id="Trazado_1470" data-name="Trazado 1470" d="M222.642,539.656h-4.478a1.515,1.515,0,0,0-1.513,1.515v12.717a1.515,1.515,0,0,0,1.513,1.514h4.478a1.515,1.515,0,0,0,1.513-1.514V541.171A1.515,1.515,0,0,0,222.642,539.656Zm-.456,13.777H218.62V541.625h3.566Z" transform="translate(-197.576 -528.235)" fill="#3eb9fd"/>
  <path id="Trazado_1471" data-name="Trazado 1471" d="M207.919,571.137H182.688a.984.984,0,1,0,0,1.969h25.231a.984.984,0,0,0,0-1.969Z" transform="translate(-181.45 -542.762)" fill="#3eb9fd"/>
  <path id="Trazado_1472" data-name="Trazado 1472" d="M182.217,535.924a.984.984,0,0,0,.7-.288l8.1-8.1,4.193,4.192a.986.986,0,0,0,1.393,0l9.919-9.919v3.825a.984.984,0,1,0,1.969,0v-6.2a.992.992,0,0,0-.019-.2c0-.025-.015-.048-.022-.073a1.012,1.012,0,0,0-.034-.111c-.012-.029-.029-.054-.043-.081a1,1,0,0,0-.048-.088,1.044,1.044,0,0,0-.1-.12c-.009-.009-.015-.02-.024-.029s-.018-.013-.026-.022a1.06,1.06,0,0,0-.124-.1.855.855,0,0,0-.075-.041.952.952,0,0,0-.1-.05c-.028-.012-.058-.018-.086-.027s-.064-.022-.1-.029a1.027,1.027,0,0,0-.141-.014c-.017,0-.033,0-.051,0h-6.2a.984.984,0,0,0,0,1.969h3.825L195.9,529.64l-4.193-4.192a1.013,1.013,0,0,0-1.393,0l-8.8,8.8a.984.984,0,0,0,.7,1.681Z" transform="translate(-181.232 -518.449)" fill="#3eb9fd"/>
</svg>
