<svg xmlns="http://www.w3.org/2000/svg" width="32.164" height="27.939" viewBox="0 0 32.164 27.939">
  <g id="Grupo_1838" data-name="Grupo 1838" transform="translate(-49 -499.868)">
    <path id="Trazado_1486" data-name="Trazado 1486" d="M425.286,195.684h-6.893v-2.259a3,3,0,0,0-3-3h-6.369a3,3,0,0,0-3,3v2.259h-6.893a3.005,3.005,0,0,0-3,3v16.677a3,3,0,0,0,3,3h26.16a3,3,0,0,0,3-3V198.685A3.005,3.005,0,0,0,425.286,195.684Zm-18.639,1.823h11.118V216.54H406.647Zm-1.823,19.034h-1.947V197.507h1.947Zm14.764-19.034h1.947V216.54h-1.947Zm-11.746-4.082a1.18,1.18,0,0,1,1.179-1.178h6.369a1.18,1.18,0,0,1,1.18,1.178v2.259h-8.728Zm-9.9,21.938V198.685a1.18,1.18,0,0,1,1.179-1.178h1.929V216.54h-1.929A1.18,1.18,0,0,1,397.947,215.362Zm28.519,0a1.18,1.18,0,0,1-1.18,1.178h-1.928V197.507h1.928a1.18,1.18,0,0,1,1.18,1.178Z" transform="translate(-347.124 309.444)" fill="#303053"/>
  </g>
</svg>
