<svg id="Grupo_4382" data-name="Grupo 4382" xmlns="http://www.w3.org/2000/svg" width="25.394" height="28.068" viewBox="0 0 25.394 28.068">
  <path id="Trazado_9873" data-name="Trazado 9873" d="M184.73,553.192a1.4,1.4,0,0,0-1.4,1.4v5.021a1.4,1.4,0,0,0,1.4,1.4h4.142a1.4,1.4,0,0,0,1.4-1.4v-5.021a1.4,1.4,0,0,0-1.4-1.4Zm3.722,6h-3.3v-4.179h3.3Z" transform="translate(-182.285 -535.885)" fill="#784eeb"/>
  <path id="Trazado_9874" data-name="Trazado 9874" d="M201.391,547.018a1.4,1.4,0,0,0-1.4,1.4v8.1a1.4,1.4,0,0,0,1.4,1.4h4.141a1.4,1.4,0,0,0,1.4-1.4v-8.1a1.4,1.4,0,0,0-1.4-1.4Zm3.72,9.076h-3.3v-7.255h3.3Z" transform="translate(-190.645 -532.786)" fill="#784eeb"/>
  <path id="Trazado_9875" data-name="Trazado 9875" d="M222.192,539.656H218.05a1.4,1.4,0,0,0-1.4,1.4V552.82a1.4,1.4,0,0,0,1.4,1.4h4.142a1.4,1.4,0,0,0,1.4-1.4V541.057A1.4,1.4,0,0,0,222.192,539.656ZM221.77,552.4h-3.3V541.477h3.3Z" transform="translate(-199.007 -529.092)" fill="#784eeb"/>
  <path id="Trazado_9876" data-name="Trazado 9876" d="M205.952,571.137H182.614a.911.911,0,1,0,0,1.821h23.338a.911.911,0,0,0,0-1.821Z" transform="translate(-181.469 -544.891)" fill="#784eeb"/>
  <path id="Trazado_9877" data-name="Trazado 9877" d="M182.143,534.613a.91.91,0,0,0,.644-.267l7.491-7.492,3.878,3.878a.912.912,0,0,0,1.288,0l9.174-9.174V525.1a.911.911,0,1,0,1.821,0v-5.736a.919.919,0,0,0-.018-.18c0-.023-.013-.045-.02-.067a.933.933,0,0,0-.032-.1c-.011-.026-.026-.05-.039-.075s-.027-.055-.044-.082a.97.97,0,0,0-.091-.111c-.008-.008-.014-.018-.022-.027s-.016-.012-.024-.02a.981.981,0,0,0-.115-.093.781.781,0,0,0-.07-.038.858.858,0,0,0-.088-.046c-.026-.011-.053-.016-.08-.025s-.059-.02-.091-.027a.961.961,0,0,0-.13-.013c-.016,0-.031,0-.047,0h-5.737a.911.911,0,1,0,0,1.821h3.538l-8.53,8.53-3.878-3.878a.937.937,0,0,0-1.288,0l-8.135,8.136a.911.911,0,0,0,.644,1.555Z" transform="translate(-181.232 -518.449)" fill="#784eeb"/>
</svg>
