<svg xmlns="http://www.w3.org/2000/svg" width="39.617" height="26.028" viewBox="0 0 39.617 26.028">
  <path id="Trazado_10190" data-name="Trazado 10190" d="M527.586,415.079l-3.418-8.966a.762.762,0,0,0-.991-.437l-4.572,1.811c-4.857-1.695-7.515-2.562-7.9-2.578-.634-.043-7.073.6-8.042.821a.747.747,0,0,0-.134.043c-.131.056-.425.186-1.833,1.537h-2.451l-4.724-1.988a.762.762,0,0,0-1,.409l-3.885,9.325a.761.761,0,0,0,.364.974l3.688,1.835,1.4,2.3c.013.022.032.038.047.058l-.268.72-.013.037a2.778,2.778,0,0,0,1.441,3.552,2.322,2.322,0,0,0,.847.159,2.4,2.4,0,0,0,.717-.116,2.666,2.666,0,0,0,1.564,2.284,2.369,2.369,0,0,0,.934.191,2.462,2.462,0,0,0,.919-.187,2.667,2.667,0,0,0,1.485,2.027,2.4,2.4,0,0,0,1.006.22,2.562,2.562,0,0,0,1.227-.319,2.42,2.42,0,0,0,1.056,1.3,2.294,2.294,0,0,0,1.146.306,2.65,2.65,0,0,0,2.3-1.452l2.314,1.109a2.575,2.575,0,0,0,1.135.268,2.346,2.346,0,0,0,.814-.144,2.1,2.1,0,0,0,1.4-1.815,2.846,2.846,0,0,0,.633.074,2.5,2.5,0,0,0,2.291-1.389.743.743,0,0,1,1.085-1.012,2.559,2.559,0,0,0,.886-.157,2.444,2.444,0,0,0,1.41-1.345,2.566,2.566,0,0,0,.2-1.157c.084.008.168.015.252.015a2.549,2.549,0,0,0,.889-.161,2.63,2.63,0,0,0,1.51-1.456,2.881,2.881,0,0,0-.888-3.383l.276-.252,4.5-2.1A.76.76,0,0,0,527.586,415.079Zm-31.82,8.24a1.5,1.5,0,0,1-.679-1.918l.384-1.031a1.458,1.458,0,0,1,1.292-1.073,1.019,1.019,0,0,1,.373.07,1.425,1.425,0,0,1,.756,1.582c-.013.033-.031.063-.043.1l-.647,1.725a1.331,1.331,0,0,1-1.063.617A1.026,1.026,0,0,1,495.766,423.319Zm3.164,2.342a1.58,1.58,0,0,1-.656-2.032l.114-.3a3.116,3.116,0,0,0,.273-.572l.377-1.015c0-.012.009-.024.013-.037a3.3,3.3,0,0,0,.1-.38,1.485,1.485,0,0,1,1.272-.908,1.074,1.074,0,0,1,.423.087,1.536,1.536,0,0,1,.709,1.843c-.017.038-.038.073-.054.112l-1.019,2.63a1.415,1.415,0,0,1-1.13.66A1.074,1.074,0,0,1,498.93,425.661Zm3.834,2.146a1.1,1.1,0,0,1-.462-.1,1.613,1.613,0,0,1-.631-2.065,3.191,3.191,0,0,0,.257-.525l.8-2.123c.028-.076.051-.152.073-.228a1.523,1.523,0,0,1,1.293-.894,1.1,1.1,0,0,1,.462.1,1.622,1.622,0,0,1,.621,2.1l-.222.572c-.051.082-.1.164-.146.252-.013.027-.026.054-.037.081l-.651,1.561a3.09,3.09,0,0,0-.214.631A1.451,1.451,0,0,1,502.764,427.807Zm3.429,1.284a.98.98,0,0,1-.494-.132,1.3,1.3,0,0,1-.562-1.3,3.342,3.342,0,0,0,.216-.441l.769-1.982a1.32,1.32,0,0,1,1.038-.586.978.978,0,0,1,.495.133,1.434,1.434,0,0,1,.39,1.886l-.379.909a.76.76,0,0,0-.06.1.728.728,0,0,0-.058.186l-.169.405A1.386,1.386,0,0,1,506.193,429.091Zm15.711-7.913a1.121,1.121,0,0,1-.639.625,1.045,1.045,0,0,1-.815-.039l-6.818-3.947a.772.772,0,0,0-.762,1.344l5.491,3.185.046.024a1.266,1.266,0,0,1,.649,1.566.935.935,0,0,1-.539.514,1.108,1.108,0,0,1-.861-.053l-1.568-.91c-.053-.035-.1-.07-.161-.1l-3.657-2.13a.768.768,0,0,0-.766,1.332l3.73,2.164a1.331,1.331,0,0,1,.469,1.632,1.1,1.1,0,0,1-1.445.42l-1.044-.644a2.651,2.651,0,0,0-.472-.318l-1.867-1.194a.792.792,0,0,0-.82,1.353l2.272,1.4a.931.931,0,0,1,.271,1,.632.632,0,0,1-.372.348.96.96,0,0,1-.755-.066l-2.378-1.14.141-.337a2.711,2.711,0,0,0-.927-3.555,2.3,2.3,0,0,0-1.147-.307,2.407,2.407,0,0,0-.534.067,2.75,2.75,0,0,0-1.527-2.627,2.4,2.4,0,0,0-1.007-.22,1.671,1.671,0,0,1-2.734-1.264,2.372,2.372,0,0,0-.934-.191,2.548,2.548,0,0,0-1.416.452,2.494,2.494,0,0,0-1.4-1.41,2.326,2.326,0,0,0-.847-.16,2.544,2.544,0,0,0-1.763.747l-1.122-1.851a.761.761,0,0,0-.312-.287l-3.248-1.616,3.318-7.963,4.162,1.751a.764.764,0,0,0,.295.06h1.065l-.5.509a2.529,2.529,0,0,0-.3,3.325,2.7,2.7,0,0,0,3.7.564,24.479,24.479,0,0,0,2.72-1.862l2.891.252,13.6,7.842a.427.427,0,0,0,.044.023A1.321,1.321,0,0,1,521.9,421.178Zm.041-4.369a.768.768,0,0,0-.191.127l-.709.645-12.763-7.362a.76.76,0,0,0-.314-.1l-3.373-.295c-.022,0-.044,0-.066,0a.767.767,0,0,0-.508.194,20.112,20.112,0,0,1-2.718,1.893c-.745.4-1.369.355-1.71-.124a1.019,1.019,0,0,1,.124-1.349A41.465,41.465,0,0,1,503.1,407.2c1.176-.219,6.847-.755,7.518-.765.569.119,4.389,1.41,7.757,2.588a.763.763,0,0,0,.532-.011l4.119-1.631,2.891,7.584Z" transform="translate(-488.299 -404.618)" fill="#784eeb" stroke="#784eeb" stroke-width="0.5"/>
</svg>
