<svg xmlns="http://www.w3.org/2000/svg" width="20.857" height="21.864" viewBox="0 0 20.857 21.864">
  <g id="Grupo_2667" data-name="Grupo 2667" transform="translate(0.1 0.107)">
    <path id="Trazado_6719" data-name="Trazado 6719" d="M71.189,735.891c-3.9,3.108-9.284,3.627-10.135,3.691a.127.127,0,0,0-.115.129c.055,14.262,9.68,17.6,10.3,17.8a.092.092,0,0,0,.062,0c.617-.2,10.243-3.541,10.3-17.8a.127.127,0,0,0-.115-.129c-.85-.064-6.239-.584-10.134-3.691A.125.125,0,0,0,71.189,735.891Zm4.372,17.146a15.008,15.008,0,0,1-3.678,2.9l-.542.3a.154.154,0,0,1-.148,0l-.542-.3a15.007,15.007,0,0,1-3.677-2.9,19.207,19.207,0,0,1-4.731-11.016l-.123-1.005a.152.152,0,0,1,.118-.167l.989-.22c.251-.055.5-.115.754-.177a25.678,25.678,0,0,0,6.65-2.613l.559-.323a.151.151,0,0,1,.152,0l.559.323a25.682,25.682,0,0,0,6.651,2.613c.249.062.5.122.753.177l.989.22a.152.152,0,0,1,.118.167l-.123,1.005A19.21,19.21,0,0,1,75.562,753.037Z" transform="translate(-60.94 -735.863)" fill="#303053" stroke="#303053" stroke-width="0.2"/>
    <path id="Trazado_6720" data-name="Trazado 6720" d="M78.806,750.043l-3.023,3.023-1.305-1.305-1.325,1.325,2.63,2.63,1.23-1.23.095-.095,3.023-3.023Z" transform="translate(-66.313 -742.102)" fill="#303053" stroke="#303053" stroke-width="0.2"/>
  </g>
</svg>
