<svg xmlns="http://www.w3.org/2000/svg" width="28" height="22.762" viewBox="0 0 28 22.762">
  <g id="Grupo_4475" data-name="Grupo 4475" transform="translate(1 1)">
    <path id="Trazado_9913" data-name="Trazado 9913" d="M66.522,148.261h4.522a3.957,3.957,0,1,0-1.2-7.725,3.951,3.951,0,0,0-3.883-4.71,3.937,3.937,0,0,0-2.584.964,5.651,5.651,0,0,0-10.72,3.573,3.955,3.955,0,0,0,.3,7.9h4.522" transform="translate(-49 -133.001)" fill="none" stroke="#784eeb" stroke-miterlimit="10" stroke-width="2"/>
    <path id="Trazado_9914" data-name="Trazado 9914" d="M55.46,146.012c.1-.008.2-.011.305-.011a3.941,3.941,0,0,1,2.09.6" transform="translate(-51.809 -138.653)" fill="none" stroke="#784eeb" stroke-miterlimit="10" stroke-width="2"/>
    <path id="Trazado_9915" data-name="Trazado 9915" d="M74.445,139.7a5.6,5.6,0,0,1,.287,1.3" transform="translate(-60.063 -135.914)" fill="none" stroke="#784eeb" stroke-miterlimit="10" stroke-width="2"/>
    <path id="Trazado_9916" data-name="Trazado 9916" d="M85.493,146.333A3.919,3.919,0,0,1,85,147.619" transform="translate(-64.652 -138.798)" fill="none" stroke="#784eeb" stroke-miterlimit="10" stroke-width="2"/>
    <line id="Línea_393" data-name="Línea 393" y2="11" transform="translate(11 9.001)" fill="none" stroke="#784eeb" stroke-miterlimit="10" stroke-width="2"/>
    <line id="Línea_394" data-name="Línea 394" y2="10" transform="translate(15 10.001)" fill="none" stroke="#784eeb" stroke-miterlimit="10" stroke-width="2"/>
    <path id="Trazado_9917" data-name="Trazado 9917" d="M68.522,151.261,66.261,149,64,151.261" transform="translate(-55.522 -139.957)" fill="none" stroke="#784eeb" stroke-miterlimit="10" stroke-width="2"/>
    <path id="Trazado_9918" data-name="Trazado 9918" d="M76.522,165l-2.261,2.261L72,165" transform="translate(-59 -146.914)" fill="none" stroke="#784eeb" stroke-miterlimit="10" stroke-width="2"/>
  </g>
</svg>
