<svg xmlns="http://www.w3.org/2000/svg" width="33.569" height="29.302" viewBox="0 0 33.569 29.302">
  <g id="Grupo_4769" data-name="Grupo 4769" transform="translate(-172.619 -176.899)">
    <path id="Trazado_10067" data-name="Trazado 10067" d="M205.9,191.578l-6.479-13.136a2.764,2.764,0,0,0-3.7-1.258l-21.558,10.632a2.77,2.77,0,0,0-1.258,3.705l6.479,13.136a2.765,2.765,0,0,0,3.7,1.257l21.558-10.632A2.77,2.77,0,0,0,205.9,191.578Zm-30.946-2.147L196.515,178.8a.966.966,0,0,1,1.295.44l1.231,2.5-23.292,11.488-1.231-2.5A.968.968,0,0,1,174.957,189.431Zm28.892,4.238L182.291,204.3a.98.98,0,0,1-1.294-.44l-3.883-7.872L200.406,184.5l3.883,7.872A.968.968,0,0,1,203.849,193.669Z" transform="translate(0 0)" fill="#404040"/>
    <rect id="Rectángulo_1705" data-name="Rectángulo 1705" width="10.389" height="1.867" transform="matrix(0.897, -0.442, 0.442, 0.897, 181.707, 199.206)" fill="#404040"/>
  </g>
</svg>
