<svg xmlns="http://www.w3.org/2000/svg" width="26.442" height="26.442" viewBox="0 0 26.442 26.442">
  <path id="Trazado_6701" data-name="Trazado 6701" d="M71.008,114.991A12.971,12.971,0,1,0,83.98,127.962,12.985,12.985,0,0,0,71.008,114.991Zm-7.642,22.2c.885-.369,1.984-.786,3.34-1.265,1.561-.552,1.708-1.06,1.708-2.27V132.32a.515.515,0,0,0-.149-.363,7.047,7.047,0,0,1-.659-2.448.5.5,0,0,0-.2-.364.471.471,0,0,0-.4-.075,1.974,1.974,0,0,1-.943-1.381,2.1,2.1,0,0,1,.046-1.479.073.073,0,0,1,.072-.036.521.521,0,0,0,.379-.165c.162-.173.162-.19.106-1.034-.046-.695-.122-1.857-.123-2.743,0-1.523.233-1.922.334-2.023a.077.077,0,0,1,.067-.03,5.823,5.823,0,0,0,2.307-.544,5.193,5.193,0,0,1,2.062-.493c1.689,0,2.078.407,2.311.789a.519.519,0,0,0,.443.249c.727,0,1.4.252,1.4,2.076,0,.53-.058,1.439-.1,2.169-.089,1.4-.089,1.4.087,1.584a.543.543,0,0,0,.388.165c.1.041.325.593.109,1.516a2.154,2.154,0,0,1-.9,1.385.52.52,0,0,0-.643.435,7.023,7.023,0,0,1-.659,2.448.517.517,0,0,0-.149.363v1.333c0,1.209.148,1.718,1.708,2.27,1.358.48,2.457.9,3.34,1.265a11.959,11.959,0,0,1-15.284,0Zm16.127-.769c-.97-.421-2.227-.9-3.838-1.474-1.015-.359-1.015-.377-1.015-1.291V132.5a7.381,7.381,0,0,0,.741-2.457,1.519,1.519,0,0,0,.272-.132,3.238,3.238,0,0,0,1.308-1.984,2.982,2.982,0,0,0-.275-2.365,1.14,1.14,0,0,0-.332-.287c.012-.218.03-.51.047-.782.047-.745.106-1.672.106-2.235,0-2.36-1.115-3.011-2.157-3.1-.571-.742-1.478-1.049-3.035-1.049a6.192,6.192,0,0,0-2.447.568,4.918,4.918,0,0,1-1.922.47,1.112,1.112,0,0,0-.8.334c-.442.443-.639,1.293-.637,2.757,0,.919.078,2.1.125,2.811,0,.082.01.157.015.225a1.132,1.132,0,0,0-.349.3,2.9,2.9,0,0,0-.244,2.359,3.243,3.243,0,0,0,1.308,1.985,1.543,1.543,0,0,0,.273.132,7.354,7.354,0,0,0,.741,2.457v1.156c0,.915,0,.932-1.016,1.291-1.606.568-2.863,1.051-3.837,1.474a11.984,11.984,0,1,1,16.97,0Z" transform="translate(-57.788 -114.741)" fill="#303053" stroke="#303053" stroke-width="0.5"/>
</svg>
