<svg id="Grupo_466" data-name="Grupo 466" xmlns="http://www.w3.org/2000/svg" width="32" height="33.613" viewBox="0 0 32 33.613">
  <g id="Grupo_465" data-name="Grupo 465">
    <path id="Trazado_1473" data-name="Trazado 1473" d="M108.083,772.215c-6.574,5.333-16,5.83-16,5.83,0,22.987,16,27.783,16,27.783s16-4.8,16-27.783C124.083,778.045,114.657,777.548,108.083,772.215Z" transform="translate(-92.083 -772.215)" fill="#4e5bee"/>
  </g>
  <path id="Trazado_1474" data-name="Trazado 1474" d="M141.632,809.745a33.551,33.551,0,0,1-8.688-3.413l-.83-.479-.83.479a33.546,33.546,0,0,1-8.688,3.413c-.325.081-.656.159-.985.232l-1.468.326.182,1.493c.721,5.9,2.8,10.746,6.18,14.392a19.591,19.591,0,0,0,4.8,3.791l.8.446.8-.446a19.6,19.6,0,0,0,4.8-3.791c3.38-3.646,5.46-8.489,6.18-14.392l.182-1.493-1.468-.326C142.289,809.9,141.957,809.826,141.632,809.745Z" transform="translate(-116.114 -801.023)" fill="#fff"/>
  <path id="Trazado_1475" data-name="Trazado 1475" d="M167.312,853.067l-5.87,5.87-2.535-2.535-2.572,2.572,5.107,5.107,2.388-2.388.184-.184,5.87-5.87Z" transform="translate(-147.11 -841.458)" fill="#4e5bee"/>
</svg>
