<svg xmlns="http://www.w3.org/2000/svg" width="32.46" height="32.583" viewBox="0 0 32.46 32.583">
  <path id="Trazado_10191" data-name="Trazado 10191" d="M1122.918,799.62h-4.408v21.873l2.2,4.445,2.145-4.2.049-17.832h1.12v-1.46h-1.116Zm-1.1,1.1v1.736h-2.218v-1.736Zm0,20.647-.484.945h-1.25l-.484-.945V803.912h2.218Zm-19.181-7.062.776.773-3.071,3.072-1.8-1.8.773-.775,1.024,1.022Zm17.5-19.967H1098.6a3.889,3.889,0,0,0-3.885,3.884v21.514h-3.153v3.3a3.888,3.888,0,0,0,3.883,3.883h18.384a3.889,3.889,0,0,0,3.886-3.883V798.948h6.307v-.73A3.889,3.889,0,0,0,1120.145,794.334Zm-24.694,31.123a2.425,2.425,0,0,1-2.422-2.423v-1.843h16.923v1.843a3.865,3.865,0,0,0,.85,2.423Zm20.81-27.24v24.817a2.425,2.425,0,0,1-4.849,0v-3.3h-15.23V798.218a2.426,2.426,0,0,1,2.424-2.423h18.506A3.861,3.861,0,0,0,1116.26,798.218Zm1.573-.73a2.424,2.424,0,0,1,4.622,0Zm-5.616,3.411h-13.28v-1.46h13.28Zm0,4.046h-13.28v-1.461h13.28Zm0,4.045h-13.28v-1.46h13.28Zm0,4.043h-13.28v-1.46h13.28Zm-7.521,2.584h7.531v1.46H1104.7Z" transform="translate(-1091.567 -794.334)" fill="#784eeb"/>
</svg>
