<svg xmlns="http://www.w3.org/2000/svg" width="28.923" height="29.797" viewBox="0 0 28.923 29.797">
  <g id="Grupo_1115" data-name="Grupo 1115" transform="translate(-285.239 -124.732)">
    <path id="Trazado_3383" data-name="Trazado 3383" d="M296.6,137.933l-.457.457c-.5.505-.654,1.175-.332,1.5l.581.581c.321.321.991.171,1.5-.334l.457-.458a1.4,1.4,0,0,0,.476-1.271l-.452-1.447a1.355,1.355,0,0,1,.516-1.313c.486-.486,1.174-.654,1.5-.333l.582.581c.321.321.172.991-.333,1.5l-.457.458" transform="translate(-4.077 -4.081)" fill="none" stroke="#303053" stroke-miterlimit="10" stroke-width="1.2"/>
    <line id="Línea_176" data-name="Línea 176" y1="1.372" x2="1.371" transform="translate(296.599 130.15)" fill="none" stroke="#303053" stroke-miterlimit="10" stroke-width="1.2"/>
    <line id="Línea_177" data-name="Línea 177" x1="1.371" y2="1.372" transform="translate(290.658 136.096)" fill="none" stroke="#303053" stroke-miterlimit="10" stroke-width="1.2"/>
    <ellipse id="Elipse_93" data-name="Elipse 93" cx="7.113" cy="4.523" rx="7.113" ry="4.523" transform="translate(286.088 135.644) rotate(-45.027)" fill="none" stroke="#303053" stroke-miterlimit="10" stroke-width="1.2"/>
    <path id="Trazado_3384" data-name="Trazado 3384" d="M291.667,141.218l1.828,1.827c1.767,1.765,5.45.944,8.226-1.835s3.595-6.463,1.828-8.228l-1.828-1.827" transform="translate(-2.38 -2.378)" fill="none" stroke="#303053" stroke-miterlimit="10" stroke-width="1.2"/>
    <path id="Trazado_3385" data-name="Trazado 3385" d="M324.533,151.809l-.3-.49c-.329-.541-.875-.811-1.219-.6l-.624.378c-.345.209-.357.818-.029,1.36l.3.49a1.241,1.241,0,0,0,1,.678l1.342-.085c.335-.021.705.2,1.022.721s.316,1.15-.029,1.359l-.624.378c-.345.209-.891-.06-1.219-.6l-.3-.49" transform="translate(-15.372 -10.692)" fill="none" stroke="#303053" stroke-miterlimit="10" stroke-width="1.2"/>
    <line id="Línea_178" data-name="Línea 178" x2="0.893" y2="1.471" transform="translate(310.308 145.116)" fill="none" stroke="#303053" stroke-miterlimit="10" stroke-width="1.2"/>
    <line id="Línea_179" data-name="Línea 179" x1="0.893" y1="1.471" transform="translate(306.44 138.744)" fill="none" stroke="#303053" stroke-miterlimit="10" stroke-width="1.2"/>
    <path id="Trazado_3386" data-name="Trazado 3386" d="M318.771,153.156c-1.807-2.978-1.737-6.324.158-7.475s4.9.331,6.705,3.309,1.737,6.325-.158,7.475S320.579,156.134,318.771,153.156Z" transform="translate(-13.382 -8.408)" fill="none" stroke="#303053" stroke-miterlimit="10" stroke-width="1.2"/>
    <path id="Trazado_3387" data-name="Trazado 3387" d="M317.47,145.971l-1.961,1.19c-1.895,1.151-1.965,4.5-.158,7.475s4.81,4.459,6.7,3.309l1.961-1.19" transform="translate(-11.924 -8.698)" fill="none" stroke="#303053" stroke-miterlimit="10" stroke-width="1.2"/>
    <path id="Trazado_3388" data-name="Trazado 3388" d="M298.921,162.821l-.5.177c-.549.2-.892.638-.767.987l.225.633c.125.349.671.473,1.219.277l.5-.178a1.14,1.14,0,0,0,.8-.771l.171-1.225c.043-.306.311-.6.839-.787s1.094-.072,1.219.278l.226.632c.124.349-.219.791-.767.987l-.5.177" transform="translate(-4.924 -15.469)" fill="none" stroke="#303053" stroke-miterlimit="10" stroke-width="1.2"/>
    <line id="Línea_180" data-name="Línea 180" y1="0.532" x2="1.49" transform="translate(297.812 146.526)" fill="none" stroke="#303053" stroke-miterlimit="10" stroke-width="1.2"/>
    <line id="Línea_181" data-name="Línea 181" x1="1.49" y2="0.532" transform="translate(291.356 148.833)" fill="none" stroke="#303053" stroke-miterlimit="10" stroke-width="1.2"/>
    <ellipse id="Elipse_94" data-name="Elipse 94" cx="5.801" cy="3.692" rx="5.801" ry="3.692" transform="translate(288.624 146.421) rotate(-19.663)" fill="none" stroke="#303053" stroke-miterlimit="10" stroke-width="1.2"/>
    <path id="Trazado_3389" data-name="Trazado 3389" d="M292.676,165.082l.71,1.986c.686,1.92,3.688,2.6,6.705,1.524s4.907-3.508,4.221-5.428l-.71-1.986" transform="translate(-2.81 -15.184)" fill="none" stroke="#303053" stroke-miterlimit="10" stroke-width="1.2"/>
  </g>
</svg>
