<svg xmlns="http://www.w3.org/2000/svg" width="24.247" height="20.998" viewBox="0 0 24.247 20.998">
  <path id="Trazado_1563" data-name="Trazado 1563" d="M418.941,414.138a.661.661,0,0,0,.08-.123c0-.008.009-.015.013-.023a.646.646,0,0,0,.047-.157c0-.013,0-.025,0-.037a.64.64,0,0,0,0-.14c0-.01,0-.02,0-.03a.637.637,0,0,0-.047-.162.145.145,0,0,0-.016-.031.611.611,0,0,0-.035-.067l-4.332-6.672a.65.65,0,0,0-.26-.228.657.657,0,0,0-.287-.069H399.832a.673.673,0,0,0-.134.016.585.585,0,0,0-.087.027l-.038.014a.624.624,0,0,0-.089.048l-.023.016a.64.64,0,0,0-.087.072.819.819,0,0,0-.067.071.511.511,0,0,0-.03.052l-4.332,6.655a.715.715,0,0,0-.036.069c0,.007-.009.012-.012.019a.725.725,0,0,0-.049.173c0,.01,0,.02,0,.03a.642.642,0,0,0,0,.141c0,.013,0,.025,0,.037a.649.649,0,0,0,.047.157c0,.008.009.015.013.024a.636.636,0,0,0,.08.123c0,.006.007.013.013.019l11.39,12.914a.643.643,0,0,0,.5.315c.021,0,.041.008.062.008a.667.667,0,0,0,.6-.342l11.374-12.9C418.933,414.152,418.936,414.144,418.941,414.138Zm-19.332-5.533,1.321,4.463H396.7Zm11.546,5.774-4.188,10.559-4.189-10.559Zm-8.011-1.311,3.823-4.941,3.823,4.941Zm11.183-4.473,2.9,4.473H413Zm-2.466,3.711-3.559-4.6h4.92Zm-6.23-4.6-3.559,4.6-1.361-4.6Zm-4.271,6.672,3.6,9.089-8.017-9.089Zm7.609,9.089,3.6-9.089h4.412Z" transform="translate(-394.842 -406.397)" fill="#fff"/>
</svg>
