<svg xmlns="http://www.w3.org/2000/svg" width="41.957" height="33" viewBox="0 0 41.957 33">
  <g id="Grupo_4347" data-name="Grupo 4347" transform="translate(-368 -294)">
    <path id="Trazado_7563" data-name="Trazado 7563" d="M380,315.071v6.1h30.5V302H380v10.457" transform="translate(-1.543 -0.9)" fill="none" stroke="#784eeb" stroke-miterlimit="10" stroke-width="2"/>
    <path id="Trazado_7564" data-name="Trazado 7564" d="M387.614,318.2A2.442,2.442,0,0,0,385,315.586v-6.971A2.311,2.311,0,0,0,387.614,306h17.429a2.442,2.442,0,0,0,2.614,2.614v6.971a2.614,2.614,0,0,0-2.614,2.614Z" transform="translate(-2.186 -1.414)" fill="none" stroke="#784eeb" stroke-miterlimit="10" stroke-width="2"/>
    <line id="Línea_222" data-name="Línea 222" x2="2" transform="translate(386 311)" fill="none" stroke="#784eeb" stroke-miterlimit="10" stroke-width="2"/>
    <line id="Línea_223" data-name="Línea 223" x2="2" transform="translate(400 311)" fill="none" stroke="#784eeb" stroke-miterlimit="10" stroke-width="2"/>
    <circle id="Elipse_517" data-name="Elipse 517" cx="3.5" cy="3.5" r="3.5" transform="translate(391 307)" fill="none" stroke="#784eeb" stroke-miterlimit="10" stroke-width="2"/>
    <line id="Línea_224" data-name="Línea 224" x1="7" transform="translate(373 314)" fill="none" stroke="#784eeb" stroke-miterlimit="10" stroke-width="2"/>
    <line id="Línea_225" data-name="Línea 225" x1="4" transform="translate(374 304)" fill="none" stroke="#784eeb" stroke-miterlimit="10" stroke-width="2"/>
    <line id="Línea_226" data-name="Línea 226" x1="1" transform="translate(371 304)" fill="none" stroke="#784eeb" stroke-miterlimit="10" stroke-width="2"/>
    <line id="Línea_227" data-name="Línea 227" x1="8" transform="translate(368 309)" fill="none" stroke="#784eeb" stroke-miterlimit="10" stroke-width="2"/>
    <line id="Línea_228" data-name="Línea 228" x1="7" transform="translate(392 295)" fill="none" stroke="#784eeb" stroke-miterlimit="10" stroke-width="2"/>
    <line id="Línea_229" data-name="Línea 229" x1="12" transform="translate(385 326)" fill="none" stroke="#784eeb" stroke-miterlimit="10" stroke-width="2"/>
    <line id="Línea_230" data-name="Línea 230" x1="2" transform="translate(389 295)" fill="none" stroke="#784eeb" stroke-miterlimit="10" stroke-width="2"/>
    <line id="Línea_231" data-name="Línea 231" x1="2" transform="translate(385 295)" fill="none" stroke="#784eeb" stroke-miterlimit="10" stroke-width="2"/>
    <line id="Línea_232" data-name="Línea 232" x1="2" transform="translate(382 295)" fill="none" stroke="#784eeb" stroke-miterlimit="10" stroke-width="2"/>
  </g>
</svg>
