<svg xmlns="http://www.w3.org/2000/svg" width="33.111" height="29.756" viewBox="0 0 33.111 29.756">
  <g id="Grupo_4343" data-name="Grupo 4343" transform="translate(0.9 0.9)">
    <path id="Trazado_2961" data-name="Trazado 2961" d="M234.627,61.39v-9A1.385,1.385,0,0,0,233.242,51H210.385A1.385,1.385,0,0,0,209,52.385V66.238a1.385,1.385,0,0,0,1.385,1.385h3.463" transform="translate(-209 -51.001)" fill="none" stroke="#784eeb" stroke-miterlimit="10" stroke-width="1.8"/>
    <line id="Línea_172" data-name="Línea 172" x1="24.504" transform="translate(0.681 3.45)" fill="none" stroke="#784eeb" stroke-miterlimit="10" stroke-width="1.8"/>
    <line id="Línea_173" data-name="Línea 173" x1="24.504" transform="translate(0.681 7.534)" fill="none" stroke="#784eeb" stroke-miterlimit="10" stroke-width="1.8"/>
    <rect id="Rectángulo_532" data-name="Rectángulo 532" width="24.504" height="16.336" rx="2" transform="translate(6.807 11.618)" fill="none" stroke="#784eeb" stroke-miterlimit="10" stroke-width="1.8"/>
    <line id="Línea_174" data-name="Línea 174" x2="4.084" transform="translate(8.849 22.849)" fill="none" stroke="#784eeb" stroke-miterlimit="10" stroke-width="1.8"/>
    <line id="Línea_175" data-name="Línea 175" x2="4.084" transform="translate(13.954 22.849)" fill="none" stroke="#784eeb" stroke-miterlimit="10" stroke-width="1.8"/>
    <line id="Línea_176" data-name="Línea 176" x2="4.084" transform="translate(20.079 22.849)" fill="none" stroke="#784eeb" stroke-miterlimit="10" stroke-width="1.8"/>
    <path id="Trazado_2962" data-name="Trazado 2962" d="M247.541,75.424a2.424,2.424,0,0,1-2.424,2.424h-.693A2.424,2.424,0,0,1,242,75.424h0A2.424,2.424,0,0,1,244.424,73h.693a2.424,2.424,0,0,1,2.424,2.424Z" transform="translate(-219.143 -57.763)" fill="none" stroke="#784eeb" stroke-miterlimit="10" stroke-width="1.8"/>
  </g>
</svg>
