<svg xmlns="http://www.w3.org/2000/svg" width="31.395" height="31.514" viewBox="0 0 31.395 31.514">
  <g id="Grupo_4774" data-name="Grupo 4774" transform="translate(0.106 0.1)">
    <path id="Trazado_8732" data-name="Trazado 8732" d="M943.428,1537.539a10.642,10.642,0,0,1-6.437-2.14l-2.985.8.8-2.984a10.643,10.643,0,0,1-2.14-6.439,10.763,10.763,0,1,1,10.763,10.763Zm-6.15-3.547.253.2a9.378,9.378,0,0,0,5.9,2.06,9.478,9.478,0,1,0-9.478-9.478,9.38,9.38,0,0,0,2.061,5.9l.2.254-.39,1.454Z" transform="translate(-923.002 -1516.012)" fill="#282d33" stroke="#303053" stroke-width="0.2"/>
    <path id="Trazado_8733" data-name="Trazado 8733" d="M920.983,1565.773c-4.048,0-8.647-2.314-12.468-6.314-4.065-4.037-6.217-8.734-5.894-12.876l.016-.2.128-.156a13.177,13.177,0,0,1,.886-.992,12.469,12.469,0,0,1,2.139-1.708l.53-.335.348.521a61.771,61.771,0,0,0,3.78,5.067l.334.4-.329.408a.951.951,0,0,1-.217.2l-1.633,1.086a.354.354,0,0,0-.133.232.924.924,0,0,0,.175.683c.451.644,2.283,2.7,3.72,4.218,1.481,1.4,3.565,3.258,4.2,3.7a.928.928,0,0,0,.686.175.356.356,0,0,0,.228-.127l.425-.64q.334-.5.668-1a.947.947,0,0,1,.2-.214l.408-.327.4.333a61.812,61.812,0,0,0,5.065,3.778l.521.348-.334.53a12.438,12.438,0,0,1-1.707,2.138c-.284.284-.608.575-.99.889l-.156.128-.2.016C921.516,1565.763,921.251,1565.773,920.983,1565.773Zm-17.094-18.89c-.209,3.717,1.8,7.96,5.544,11.676,3.756,3.93,8.239,6.122,12.046,5.915.281-.237.524-.458.739-.673a11.158,11.158,0,0,0,1.183-1.4c-1.378-.941-2.752-1.967-4.1-3.057l-.327.492-.423.636a1.6,1.6,0,0,1-1.059.682,2.2,2.2,0,0,1-1.667-.386c-.788-.553-3.065-2.615-4.356-3.834l-.026-.026c-1.227-1.3-3.3-3.589-3.85-4.375a2.2,2.2,0,0,1-.386-1.665,1.607,1.607,0,0,1,.689-1.062l1.121-.745c-1.092-1.349-2.117-2.724-3.058-4.1a11.111,11.111,0,0,0-1.4,1.182C904.344,1546.359,904.128,1546.6,903.889,1546.883Zm15.284,11.528.4.5Zm.466.425h0Zm-10.111-10.114-.006,0Z" transform="translate(-902.589 -1534.459)" fill="#282d33" stroke="#303053" stroke-width="0.2"/>
    <g id="Grupo_4324" data-name="Grupo 4324" transform="translate(15.559 4.752)">
      <path id="Trazado_8734" data-name="Trazado 8734" d="M954.356,1537.026l-3.339-3.114,3.34-3.111.876.94-2.331,2.172,2.331,2.173Z" transform="translate(-951.017 -1530.801)" fill="#282d33" stroke="#303053" stroke-width="0.2"/>
      <rect id="Rect치ngulo_1646" data-name="Rect치ngulo 1646" width="7.051" height="1.285" transform="translate(1.245 2.47)" fill="#282d33" stroke="#303053" stroke-width="0.2"/>
    </g>
    <g id="Grupo_4325" data-name="Grupo 4325" transform="translate(16.502 9.892)">
      <path id="Trazado_8735" data-name="Trazado 8735" d="M967.525,1553.026l-.876-.94,2.331-2.172-2.331-2.173.877-.94,3.339,3.113Z" transform="translate(-962.569 -1546.801)" fill="#282d33" stroke="#303053" stroke-width="0.2"/>
      <rect id="Rect치ngulo_1647" data-name="Rect치ngulo 1647" width="7.051" height="1.285" transform="translate(0 2.47)" fill="#282d33" stroke="#303053" stroke-width="0.2"/>
    </g>
  </g>
</svg>
