<svg xmlns="http://www.w3.org/2000/svg" width="35.492" height="32.598" viewBox="0 0 35.492 32.598">
  <g id="Grupo_4817" data-name="Grupo 4817" transform="translate(0 0)">
    <g id="Grupo_4809" data-name="Grupo 4809" transform="translate(8.986 9.957)">
      <path id="Trazado_9994" data-name="Trazado 9994" d="M204.365,338.384H188.894a2.255,2.255,0,0,1-2.252-2.252V327.58a2.255,2.255,0,0,1,2.252-2.252h15.471a2.255,2.255,0,0,1,2.252,2.252v8.552A2.255,2.255,0,0,1,204.365,338.384ZM188.894,326.6a.978.978,0,0,0-.977.977v8.552a.978.978,0,0,0,.977.977h15.471a.978.978,0,0,0,.977-.977V327.58a.978.978,0,0,0-.977-.977Z" transform="translate(-186.536 -325.222)" fill="#e26def"/>
      <path id="Trazado_9995" data-name="Trazado 9995" d="M204.221,338.347H188.75a2.361,2.361,0,0,1-2.358-2.358v-8.552a2.361,2.361,0,0,1,2.358-2.358h15.471a2.361,2.361,0,0,1,2.358,2.358v8.552A2.361,2.361,0,0,1,204.221,338.347ZM188.75,325.291a2.148,2.148,0,0,0-2.146,2.146v8.552a2.148,2.148,0,0,0,2.146,2.146h15.471a2.148,2.148,0,0,0,2.146-2.146v-8.552a2.148,2.148,0,0,0-2.146-2.146Zm15.471,11.781H188.75a1.085,1.085,0,0,1-1.083-1.083v-8.552a1.085,1.085,0,0,1,1.083-1.083h15.471a1.085,1.085,0,0,1,1.083,1.083v8.552A1.085,1.085,0,0,1,204.221,337.072ZM188.75,326.566a.872.872,0,0,0-.871.871v8.552a.872.872,0,0,0,.871.871h15.471a.872.872,0,0,0,.871-.871v-8.552a.872.872,0,0,0-.871-.871Z" transform="translate(-186.392 -325.078)" fill="#e26def"/>
    </g>
    <g id="Grupo_4810" data-name="Grupo 4810" transform="translate(11.113 16.782)">
      <path id="Trazado_9996" data-name="Trazado 9996" d="M199.18,344.533h-6.592a.942.942,0,0,1-.941-.941v-1.262a.942.942,0,0,1,.941-.941h6.592a.942.942,0,0,1,.941.941v1.262A.942.942,0,0,1,199.18,344.533Zm-6.258-1.275h5.925v-.6h-5.925Z" transform="translate(-191.541 -341.282)" fill="#e26def"/>
      <path id="Trazado_9997" data-name="Trazado 9997" d="M199.036,344.5h-6.592a1.049,1.049,0,0,1-1.048-1.048v-1.262a1.049,1.049,0,0,1,1.048-1.048h6.592a1.049,1.049,0,0,1,1.048,1.048v1.262A1.049,1.049,0,0,1,199.036,344.5Zm-6.592-3.145a.836.836,0,0,0-.835.835v1.262a.836.836,0,0,0,.835.835h6.592a.836.836,0,0,0,.835-.835v-1.262a.836.836,0,0,0-.835-.835Zm6.364,1.87h-6.137v-.807h6.137Zm-5.925-.212H198.6v-.383h-5.712Z" transform="translate(-191.397 -341.138)" fill="#e26def"/>
    </g>
    <g id="Grupo_4811" data-name="Grupo 4811" transform="translate(8.986 12.107)">
      <path id="Trazado_9998" data-name="Trazado 9998" d="M205.98,331.663h-18.7a.638.638,0,1,1,0-1.275h18.7a.638.638,0,1,1,0,1.275Z" transform="translate(-186.536 -330.282)" fill="#e26def"/>
      <path id="Trazado_9999" data-name="Trazado 9999" d="M205.836,331.625h-18.7a.744.744,0,1,1,0-1.487h18.7a.744.744,0,1,1,0,1.487Zm-18.7-1.275a.531.531,0,1,0,0,1.063h18.7a.531.531,0,0,0,0-1.063Z" transform="translate(-186.392 -330.138)" fill="#e26def"/>
    </g>
    <g id="Grupo_4812" data-name="Grupo 4812" transform="translate(20.697 16.782)">
      <path id="Trazado_10000" data-name="Trazado 10000" d="M219.7,342.663h-4.862a.638.638,0,0,1,0-1.275H219.7a.638.638,0,0,1,0,1.275Z" transform="translate(-214.091 -341.282)" fill="#e26def"/>
      <path id="Trazado_10001" data-name="Trazado 10001" d="M219.553,342.626h-4.862a.744.744,0,1,1,0-1.488h4.862a.744.744,0,1,1,0,1.488Zm-4.862-1.275a.531.531,0,0,0,0,1.063h4.862a.531.531,0,1,0,0-1.062Z" transform="translate(-213.947 -341.138)" fill="#e26def"/>
    </g>
    <g id="Grupo_4813" data-name="Grupo 4813" transform="translate(8.986 14.912)">
      <path id="Trazado_10002" data-name="Trazado 10002" d="M205.98,338.263h-18.7a.638.638,0,1,1,0-1.275h18.7a.638.638,0,1,1,0,1.275Z" transform="translate(-186.536 -336.882)" fill="#e26def"/>
      <path id="Trazado_10003" data-name="Trazado 10003" d="M205.836,338.226h-18.7a.744.744,0,1,1,0-1.488h18.7a.744.744,0,0,1,0,1.488Zm-18.7-1.275a.531.531,0,1,0,0,1.063h18.7a.531.531,0,1,0,0-1.062Z" transform="translate(-186.392 -336.738)" fill="#e26def"/>
    </g>
    <g id="Grupo_4814" data-name="Grupo 4814" transform="translate(20.697 18.652)">
      <path id="Trazado_10004" data-name="Trazado 10004" d="M216.658,347.063h-1.823a.637.637,0,1,1,0-1.275h1.823a.637.637,0,1,1,0,1.275Z" transform="translate(-214.091 -345.682)" fill="#e26def"/>
      <path id="Trazado_10005" data-name="Trazado 10005" d="M216.514,347.026h-1.823a.744.744,0,1,1,0-1.487h1.823a.744.744,0,1,1,0,1.487Zm-1.823-1.275a.531.531,0,0,0,0,1.063h1.823a.531.531,0,0,0,0-1.063Z" transform="translate(-213.947 -345.538)" fill="#e26def"/>
    </g>
    <g id="Grupo_4815" data-name="Grupo 4815" transform="translate(0 14.681)">
      <path id="Trazado_10006" data-name="Trazado 10006" d="M166.137,342.475a.638.638,0,0,1-.555-.951l2.678-4.755a.638.638,0,0,1,1.029-.115l3.622,4.009a.637.637,0,1,1-.946.855l-3.029-3.352-2.243,3.984A.637.637,0,0,1,166.137,342.475Z" transform="translate(-165.393 -336.338)" fill="#e26def"/>
      <path id="Trazado_10007" data-name="Trazado 10007" d="M165.993,342.437a.744.744,0,0,1-.648-1.109l2.678-4.755a.748.748,0,0,1,.566-.374.739.739,0,0,1,.635.241l3.622,4.009a.744.744,0,1,1-1.1,1l-2.93-3.242-2.171,3.855A.745.745,0,0,1,165.993,342.437Zm2.676-6.03a.524.524,0,0,0-.46.27l-2.678,4.755a.531.531,0,0,0,.2.723.545.545,0,0,0,.723-.2l2.316-4.112L171.9,341.3a.531.531,0,1,0,.788-.712l-3.622-4.009A.531.531,0,0,0,168.669,336.407Z" transform="translate(-165.249 -336.194)" fill="#e26def"/>
    </g>
    <g id="Grupo_4816" data-name="Grupo 4816" transform="translate(2.671 0)">
      <path id="Trazado_10008" data-name="Trazado 10008" d="M188.233,334.285a16.336,16.336,0,0,1-3.254-.329,16.079,16.079,0,0,1-10.274-6.924,16.52,16.52,0,0,1-2.9-9.831.638.638,0,1,1,1.273.067,15.242,15.242,0,0,0,2.692,9.061,14.907,14.907,0,1,0-1.222-14.237.637.637,0,0,1-1.167-.512,16.185,16.185,0,1,1,14.854,22.706Z" transform="translate(-171.678 -301.794)" fill="#e26def"/>
      <path id="Trazado_10009" data-name="Trazado 10009" d="M188.09,334.248h0a16.486,16.486,0,0,1-3.275-.331,16.185,16.185,0,0,1-10.341-6.97,16.623,16.623,0,0,1-2.92-9.895.738.738,0,0,1,.245-.514.768.768,0,0,1,.536-.19.745.745,0,0,1,.7.782,15.135,15.135,0,0,0,2.675,9,14.8,14.8,0,1,0-1.213-14.136.744.744,0,1,1-1.362-.6,16.291,16.291,0,1,1,14.952,22.855ZM172.3,316.559a.532.532,0,0,0-.53.5,16.409,16.409,0,0,0,2.885,9.767,15.975,15.975,0,0,0,10.206,6.879,16.29,16.29,0,0,0,3.233.327,16.083,16.083,0,1,0-14.757-22.557.531.531,0,1,0,.973.427,15.022,15.022,0,1,1,1.231,14.338,15.346,15.346,0,0,1-2.71-9.125.532.532,0,0,0-.5-.558Z" transform="translate(-171.535 -301.651)" fill="#e26def"/>
    </g>
  </g>
</svg>
