<svg xmlns="http://www.w3.org/2000/svg" width="35.27" height="22.592" viewBox="0 0 35.27 22.592">
  <g id="Grupo_1116" data-name="Grupo 1116" transform="translate(-368 -216.4)">
    <path id="Trazado_3390" data-name="Trazado 3390" d="M368,232h2.213s1.66,2.213,3.688,2.213h2.951" transform="translate(0 -3.935)" fill="none" stroke="#303053" stroke-miterlimit="10" stroke-width="1.2"/>
    <path id="Trazado_3391" data-name="Trazado 3391" d="M385.7,222.164l-2.951-3.688A3.362,3.362,0,0,0,379.8,217H368" fill="none" stroke="#303053" stroke-miterlimit="10" stroke-width="1.2"/>
    <path id="Trazado_3392" data-name="Trazado 3392" d="M379.164,221l5.9,5.9c1.359,1.359-2.026,3.471-4.05,1.852l-1.852-1.852h-2.213A2.746,2.746,0,0,1,374,223.951" transform="translate(-1.574 -1.049)" fill="none" stroke="#303053" stroke-miterlimit="10" stroke-width="1.2"/>
    <path id="Trazado_3393" data-name="Trazado 3393" d="M382.951,224h22.867v16.228H380v-12.54" transform="translate(-3.148 -1.836)" fill="none" stroke="#303053" stroke-miterlimit="10" stroke-width="1.2"/>
    <path id="Trazado_3394" data-name="Trazado 3394" d="M384,242" transform="translate(-4.197 -6.559)" fill="none" stroke="#303053" stroke-miterlimit="10" stroke-width="1.2"/>
    <path id="Trazado_3395" data-name="Trazado 3395" d="M384,232.426v3.688a2.213,2.213,0,0,1,2.213,2.213H401.7a2.213,2.213,0,0,1,2.213-2.213v-5.9A2.213,2.213,0,0,1,401.7,228h-12.54" transform="translate(-4.197 -2.886)" fill="none" stroke="#303053" stroke-miterlimit="10" stroke-width="1.2"/>
    <line id="Línea_182" data-name="Línea 182" x2="1" transform="translate(383.67 230.392)" fill="none" stroke="#303053" stroke-miterlimit="10" stroke-width="1.2"/>
    <line id="Línea_183" data-name="Línea 183" x2="1" transform="translate(395.67 230.392)" fill="none" stroke="#303053" stroke-miterlimit="10" stroke-width="1.2"/>
    <ellipse id="Elipse_95" data-name="Elipse 95" cx="2.5" cy="3" rx="2.5" ry="3" transform="translate(387.67 227.392)" fill="none" stroke="#303053" stroke-miterlimit="10" stroke-width="1.2"/>
  </g>
</svg>
