<svg xmlns="http://www.w3.org/2000/svg" width="55" height="43" viewBox="0 0 55 43">
  <g id="Grupo_1839" data-name="Grupo 1839" transform="translate(-64 -111)">
    <text id="_" data-name="**" transform="translate(81 115)" fill="rgba(26,26,64,0.9)" font-size="22" font-family="BalooTamma2-Bold, 'Baloo Tamma 2'" font-weight="700"><tspan x="0" y="24">**</tspan></text>
    <g id="Grupo_482" data-name="Grupo 482" transform="translate(-434.667 -1011.498)">
      <g id="Grupo_477" data-name="Grupo 477" transform="translate(511.421 1125.458)">
        <g id="Grupo_476" data-name="Grupo 476">
          <path id="Trazado_1481" data-name="Trazado 1481" d="M548.485,1133.068a11.137,11.137,0,0,0-13.385-2.1.741.741,0,1,0,.72,1.3,9.636,9.636,0,1,1-3.861,3.86.741.741,0,1,0-1.3-.715c-.045.083-.126.237-.2.395h0a11.12,11.12,0,1,0,18.029-2.731Z" transform="translate(-529.308 -1129.61)" fill="#303053"/>
        </g>
      </g>
      <g id="Grupo_479" data-name="Grupo 479" transform="translate(498.667 1122.498)">
        <g id="Grupo_478" data-name="Grupo 478" transform="translate(0 0)">
          <path id="Trazado_1482" data-name="Trazado 1482" d="M532.5,1126.616a14.085,14.085,0,0,0-21.367,18.222l-2.31,2.309a2.224,2.224,0,0,0-2.531.435l-6.534,6.535a3.706,3.706,0,1,0,5.241,5.241l6.535-6.534a2.225,2.225,0,0,0,.435-2.532l2.31-2.31a14.085,14.085,0,0,0,18.222-21.367Zm-22.015,25.16-6.535,6.535a2.223,2.223,0,0,1-3.144-3.145l6.535-6.535a.742.742,0,0,1,1.048,0l2.1,2.1A.742.742,0,0,1,510.481,1151.776Zm.524-2.621-1.049-1.048,2.111-2.11c.165.184.336.364.51.538s.354.345.538.51Zm20.443-3.669a12.6,12.6,0,1,1,0-17.822A12.582,12.582,0,0,1,531.448,1145.487Z" transform="translate(-498.667 -1122.498)" fill="#303053"/>
        </g>
      </g>
      <g id="Grupo_481" data-name="Grupo 481" transform="translate(514.457 1128.496)">
        <g id="Grupo_480" data-name="Grupo 480" transform="translate(0 0)">
          <path id="Trazado_1483" data-name="Trazado 1483" d="M537.887,1137.144a.2.2,0,0,0-.018-.019.742.742,0,0,0-1.049,1.048l.02.019a.741.741,0,0,0,1.047-1.048Z" transform="translate(-536.604 -1136.908)" fill="#303053"/>
        </g>
      </g>
    </g>
    <text id="_2" data-name="**" transform="translate(100 120)" fill="rgba(26,26,64,0.9)" font-size="16" font-family="BalooTamma2-Bold, 'Baloo Tamma 2'" font-weight="700"><tspan x="0" y="17">**</tspan></text>
  </g>
</svg>
