<svg xmlns="http://www.w3.org/2000/svg" width="23.352" height="31.464" viewBox="0 0 23.352 31.464">
  <g id="Grupo_497" data-name="Grupo 497" transform="translate(0 0)">
    <g id="surface1" transform="translate(0 0)">
      <path id="Trazado_1488" data-name="Trazado 1488" d="M2742.859,871.427v-2.889a9.218,9.218,0,1,0-18.436,0v2.889a3.078,3.078,0,0,0-2.458,3.011v3.489a.615.615,0,1,0,1.229,0v-3.489a1.846,1.846,0,0,1,1.844-1.844h17.207a1.846,1.846,0,0,1,1.844,1.844v13.274a1.847,1.847,0,0,1-1.229,1.738v-3.7a.615.615,0,1,0-1.229,0v3.81h-16.592a1.846,1.846,0,0,1-1.844-1.844v-4.855a.615.615,0,0,0-1.229,0v4.855a3.076,3.076,0,0,0,3.073,3.073h17.207a3.076,3.076,0,0,0,3.073-3.073V874.438A3.078,3.078,0,0,0,2742.859,871.427Zm-13.888-.062v-2.827a4.671,4.671,0,0,1,9.341,0v2.827Zm10.57,0v-2.827a5.9,5.9,0,0,0-11.8,0v2.827h-2.089v-2.827a7.989,7.989,0,0,1,15.978,0v2.827Z" transform="translate(-2721.965 -859.321)" fill="#303053"/>
      <path id="Trazado_1489" data-name="Trazado 1489" d="M2722.58,1193.038a.615.615,0,1,0-.434-.18A.618.618,0,0,0,2722.58,1193.038Z" transform="translate(-2721.965 -1171.377)" fill="#303053"/>
      <path id="Trazado_1490" data-name="Trazado 1490" d="M2861.4,1146.425a1.846,1.846,0,0,0,1.844-1.844v-3.263a3.319,3.319,0,1,0-3.687-.01v3.274A1.845,1.845,0,0,0,2861.4,1146.425Zm-2.082-7.871a2.089,2.089,0,1,1,3.032,1.864.614.614,0,0,0-.337.548v3.615a.615.615,0,1,1-1.229,0v-3.624a.615.615,0,0,0-.333-.546A2.083,2.083,0,0,1,2859.323,1138.553Z" transform="translate(-2849.729 -1118.279)" fill="#303053"/>
      <path id="Trazado_1491" data-name="Trazado 1491" d="M3042.58,1239.55a.614.614,0,1,0-.435-.18A.618.618,0,0,0,3042.58,1239.55Z" transform="translate(-3022.301 -1215.03)" fill="#303053"/>
    </g>
  </g>
</svg>
