<svg xmlns="http://www.w3.org/2000/svg" width="18.913" height="18.913" viewBox="0 0 18.913 18.913">
  <path id="Trazado_4900" data-name="Trazado 4900" d="M76.5,67.044a9.456,9.456,0,0,0-7.661,15h0l-.822,3.374,3.1-1.14A9.457,9.457,0,1,0,76.5,67.044Zm.141,16.672a1.732,1.732,0,0,1-.125-3.459,1.731,1.731,0,0,1,.125,3.459Zm1.224-4.339-2.783.1c-.537-2.888,2.57-4.209,2.513-5.8A1.286,1.286,0,0,0,76.1,72.4a2.751,2.751,0,0,0-1.929,1.047l-1.8-1.506a5.145,5.145,0,0,1,3.858-2.07c2.438-.088,4.314.969,4.4,3.47C80.725,75.964,77.516,76.865,77.866,79.377Z" transform="translate(-67.044 -67.044)" fill="#784eeb"/>
</svg>
