<svg xmlns="http://www.w3.org/2000/svg" width="19.98" height="17.303" viewBox="0 0 19.98 17.303">
  <path id="Trazado_9869" data-name="Trazado 9869" d="M414.7,412.776a.543.543,0,0,0,.066-.1c0-.007.007-.012.01-.019a.535.535,0,0,0,.039-.129c0-.01,0-.02,0-.031a.525.525,0,0,0,0-.116c0-.008,0-.017,0-.025a.523.523,0,0,0-.039-.133.119.119,0,0,0-.013-.026.5.5,0,0,0-.029-.055l-3.57-5.5a.536.536,0,0,0-.215-.188.542.542,0,0,0-.237-.057H398.954a.548.548,0,0,0-.11.013.477.477,0,0,0-.071.022l-.032.012a.509.509,0,0,0-.073.039l-.019.013a.525.525,0,0,0-.072.059.677.677,0,0,0-.056.059.417.417,0,0,0-.025.043l-3.57,5.484a.6.6,0,0,0-.029.057c0,.006-.007.01-.01.016a.6.6,0,0,0-.041.142c0,.008,0,.016,0,.025a.53.53,0,0,0,0,.116c0,.01,0,.02,0,.03a.536.536,0,0,0,.039.129c0,.007.007.013.011.019a.524.524,0,0,0,.066.1c0,.005.006.011.01.016l9.386,10.641a.51.51,0,0,0,.359.253c.018,0,.036.005.054.007s.034.007.051.007a.549.549,0,0,0,.492-.282l9.373-10.626S414.7,412.781,414.7,412.776Zm-15.93-4.559,1.089,3.677h-3.482Zm9.514,4.758-3.451,8.7-3.452-8.7Zm-6.6-1.08,3.15-4.071,3.15,4.071Zm9.215-3.686,2.393,3.686h-3.484Zm-2.032,3.058-2.932-3.79h4.054Zm-5.134-3.79-2.933,3.79-1.122-3.79Zm-3.52,5.5,2.97,7.489-6.606-7.489Zm6.27,7.489,2.971-7.489h3.635Z" transform="translate(-394.842 -406.396)" fill="#303053"/>
</svg>
