<?xml version="1.0" encoding="UTF-8"?>
<svg width="27px" height="27px" viewBox="0 0 27 27" version="1.1" xmlns="http://www.w3.org/2000/svg" xmlns:xlink="http://www.w3.org/1999/xlink">
    <title>icono_header_quien_eres_blanco</title>
    <g id="Page-1" stroke="none" stroke-width="1" fill="none" fill-rule="evenodd">
        <g id="icono_header_quien_eres_blanco" transform="translate(0.251000, 0.251000)" fill="#FFFFFF" fill-rule="nonzero" stroke="#E7E7EA" stroke-width="0.5">
            <path d="M12.97,0 C5.80644469,0.000552274714 -0.000368176046,5.80811131 0,12.9716666 C0.000368176046,20.1352219 5.80777798,25.942 12.9713333,25.942 C20.1348886,25.942 25.942,20.1345553 25.942,12.971 C25.9342829,5.81012309 20.1308775,0.00716499497 12.97,0 L12.97,0 Z M5.32799998,22.2 C6.21299998,21.831 7.31199998,21.414 8.66799998,20.935 C10.229,20.383 10.376,19.875 10.376,18.665 L10.376,17.329 C10.3761818,17.1930786 10.3226231,17.0625966 10.227,16.966 C9.86115511,16.1965467 9.63787613,15.3671279 9.56799998,14.518 C9.55726317,14.3734076 9.48428984,14.2405962 9.36799998,14.154 C9.25290496,14.0697138 9.10581109,14.0421337 8.96799998,14.079 C8.46457918,13.7811216 8.11919431,13.275314 8.02499998,12.698 C7.86038234,12.2157475 7.87673137,11.6900904 8.07099998,11.219 C8.08561739,11.193656 8.11395434,11.1794875 8.14299998,11.183 C8.28668051,11.1826131 8.42382305,11.1229073 8.52199998,11.018 C8.68399998,10.845 8.68399998,10.828 8.62799998,9.984 C8.58199998,9.289 8.50599998,8.127 8.50499998,7.241 C8.50499998,5.718 8.73799998,5.319 8.83899998,5.218 C8.85482242,5.19731242 8.88003026,5.18602532 8.90599998,5.188 C9.70416354,5.16675169 10.4894294,4.9815828 11.213,4.644 C11.8591172,4.3396155 12.5610775,4.17178504 13.275,4.151 C14.964,4.151 15.353,4.558 15.586,4.94 C15.6801518,5.09456225 15.8480192,5.18891657 16.029,5.189 C16.756,5.189 17.429,5.441 17.429,7.265 C17.429,7.795 17.371,8.704 17.329,9.434 C17.24,10.834 17.24,10.834 17.416,11.018 C17.517829,11.1230167 17.6577215,11.182507 17.804,11.183 C17.904,11.224 18.129,11.776 17.913,12.699 C17.8089591,13.2619181 17.4851216,13.760268 17.013,14.084 C16.8692607,14.0476127 16.716824,14.0743174 16.5940142,14.1574003 C16.4712043,14.2404832 16.3897028,14.3720414 16.37,14.519 C16.3006505,15.3682196 16.0773464,16.1977318 15.711,16.967 C15.615561,17.0637184 15.5620347,17.1941212 15.562,17.33 L15.562,18.663 C15.562,19.872 15.71,20.381 17.27,20.933 C18.628,21.413 19.727,21.833 20.61,22.198 C16.1799783,25.878296 9.75602167,25.878296 5.32599998,22.198 L5.32799998,22.2 Z M21.455,21.431 C20.485,21.01 19.228,20.531 17.617,19.957 C16.602,19.598 16.602,19.58 16.602,18.666 L16.602,17.509 C16.9905768,16.7395526 17.2413667,15.9079859 17.343,15.052 C17.4378308,15.017155 17.5289486,14.972936 17.615,14.92 C18.2866894,14.4483396 18.7542036,13.7392048 18.923,12.936 C19.1636769,12.1436784 19.0640581,11.286957 18.648,10.571 C18.5569655,10.4547341 18.4442099,10.3572616 18.316,10.284 C18.328,10.066 18.346,9.774 18.363,9.502 C18.41,8.757 18.469,7.83 18.469,7.267 C18.469,4.907 17.354,4.256 16.312,4.167 C15.741,3.425 14.834,3.118 13.277,3.118 C12.4310919,3.13815109 11.5982898,3.33146192 10.83,3.686 C10.2277901,3.97125765 9.57389162,4.13115998 8.90799998,4.156 C8.60712931,4.15452049 8.31850014,4.27502317 8.10799998,4.49 C7.66599998,4.933 7.46899998,5.783 7.47099998,7.247 C7.47099998,8.166 7.54899998,9.347 7.59599998,10.058 C7.59599998,10.14 7.60599998,10.215 7.61099998,10.283 C7.47535179,10.3580477 7.35656395,10.4601576 7.26199998,10.583 C6.84816115,11.2986157 6.75939283,12.1568307 7.01799998,12.942 C7.18703198,13.7453751 7.65446559,14.4547449 8.32599998,14.927 C8.41244522,14.9798568 8.50388668,15.0240703 8.59899998,15.059 C8.70008416,15.9151003 8.95090241,16.7467609 9.33999998,17.516 L9.33999998,18.672 C9.33999998,19.587 9.33999998,19.604 8.32399998,19.963 C6.71799998,20.531 5.46099998,21.014 4.48699998,21.437 C-0.184072065,16.7537415 -0.177486908,9.17157006 4.50171296,4.49643234 C9.18091283,-0.17870538 16.7630871,-0.17870538 21.442287,4.49643234 C26.1214869,9.17157006 26.128072,16.7537415 21.457,21.437 L21.455,21.431 Z" id="Trazado_9868"></path>
        </g>
    </g>
</svg>