<?xml version="1.0" encoding="UTF-8"?>
<svg width="30px" height="41px" viewBox="0 0 30 41" version="1.1" xmlns="http://www.w3.org/2000/svg" xmlns:xlink="http://www.w3.org/1999/xlink">
    <!-- Generator: Sketch 53.1 (72631) - https://sketchapp.com -->
    <title>icono_credito_cosumo</title>
    <desc>Created with Sketch.</desc>
    <g id="Page-1" stroke="none" stroke-width="1" fill="none" fill-rule="evenodd">
        <g id="icono_credito_cosumo" transform="translate(1.000000, 1.000000)" stroke="#784EEB" stroke-width="2">
            <g id="Grupo_4358" transform="translate(0.000000, 0.365000)">
                <path d="M20.476,7.525 C21.494,6.012 23.146,2.899 23.599,2.305 C23.808,2.031 23.849,1.828 23.691,1.632 C23.533,1.436 23.175,1.414 22.782,1.532 C21.8824701,1.6626898 20.9643639,1.55155063 20.122,1.21 C18.078,0.62 15.129,-0.222 13.942,1.935 C13.827,2.144 13.906,2.259 14.135,2.511 C14.6,3.027 16.184,6.041 17.175,7.527" id="Trazado_2965"></path>
                <path d="M6.606,7.522 L8.343,7.522 C8.943,7.522 9.48,7.231 10.431,6.112 C11.2977682,4.98378441 12.6160361,4.29284534 14.037,4.222 L14.863,4.222" id="Trazado_2966"></path>
                <path d="M16.514,7.525 L21.468,7.525 C22.593,7.525 23.977,8.125 23.945,9.176 C23.845,12.315 23.824,17.433 22.294,17.433 L13.121,17.433 C11.366,17.433 9.721,15.782 8.845,15.782 L6.606,15.782" id="Trazado_2967"></path>
                <rect id="Rectángulo_533" x="0" y="5.874" width="6.606" height="10.734"></rect>
                <path d="M3.303,8.351 L3.303,10.002" id="Línea_177"></path>
                <path d="M21.95,17.433 C24.305,20.841 27.25,25.071 27.25,28.993 C27.1977554,33.9719496 23.1467237,37.9806965 18.1675,37.9806965 C13.1882763,37.9806965 9.13724455,33.9719496 9.085,28.993 C9.085,25.071 12.029,20.842 14.385,17.433" id="Trazado_2968"></path>
                <path d="M15.688,28.993 L15.688,29.819 C15.688,30.7308221 16.4271779,31.47 17.339,31.47 L18.988,31.47 C19.8998221,31.47 20.639,30.7308221 20.639,29.819 L20.639,29.357 C20.6387246,28.6461712 20.183508,28.0153136 19.509,27.791 L16.809,26.891 C16.1385891,26.6634348 15.6877149,26.0339807 15.688,25.326 L15.688,24.864 C15.688,23.9521779 16.4271779,23.213 17.339,23.213 L18.988,23.213 C19.8998221,23.213 20.639,23.9521779 20.639,24.864 L20.639,25.69" id="Trazado_2969"></path>
                <path d="M18.165,23.213 L18.165,20.736" id="Línea_178"></path>
                <path d="M18.165,31.47 L18.165,33.947" id="Línea_179"></path>
            </g>
        </g>
    </g>
</svg>