<svg xmlns="http://www.w3.org/2000/svg" width="38.5" height="29" viewBox="0 0 38.5 29">
  <g id="Grupo_1111" data-name="Grupo 1111" transform="translate(-368.085 -294.862)">
    <path id="Trazado_3374" data-name="Trazado 3374" d="M380,314.155v5.672h28.362V302H380v9.724" transform="translate(-2.276 -1.328)" fill="none" stroke="#303053" stroke-miterlimit="10" stroke-width="1"/>
    <path id="Trazado_3375" data-name="Trazado 3375" d="M387.431,317.345A2.271,2.271,0,0,0,385,314.914v-6.483A2.149,2.149,0,0,0,387.431,306h16.207a2.271,2.271,0,0,0,2.431,2.431v6.483a2.431,2.431,0,0,0-2.431,2.431Z" transform="translate(-3.224 -2.086)" fill="none" stroke="#303053" stroke-miterlimit="10" stroke-width="1"/>
    <line id="Línea_165" data-name="Línea 165" x2="2" transform="translate(385.085 309.362)" fill="none" stroke="#303053" stroke-miterlimit="10" stroke-width="1"/>
    <line id="Línea_166" data-name="Línea 166" x2="2" transform="translate(398.085 309.362)" fill="none" stroke="#303053" stroke-miterlimit="10" stroke-width="1"/>
    <circle id="Elipse_84" data-name="Elipse 84" cx="3" cy="3" r="3" transform="translate(389.085 306.361)" fill="none" stroke="#303053" stroke-miterlimit="10" stroke-width="1"/>
    <line id="Línea_167" data-name="Línea 167" x1="6" transform="translate(373.085 312.362)" fill="none" stroke="#303053" stroke-miterlimit="10" stroke-width="1"/>
    <line id="Línea_168" data-name="Línea 168" x1="4" transform="translate(374.085 303.362)" fill="none" stroke="#303053" stroke-miterlimit="10" stroke-width="1"/>
    <line id="Línea_169" data-name="Línea 169" x1="2" transform="translate(370.085 303.362)" fill="none" stroke="#303053" stroke-miterlimit="10" stroke-width="1"/>
    <line id="Línea_170" data-name="Línea 170" x1="7" transform="translate(368.085 308.362)" fill="none" stroke="#303053" stroke-miterlimit="10" stroke-width="1"/>
    <line id="Línea_171" data-name="Línea 171" x1="6" transform="translate(391.085 295.362)" fill="none" stroke="#303053" stroke-miterlimit="10" stroke-width="1"/>
    <line id="Línea_172" data-name="Línea 172" x1="12" transform="translate(383.085 323.362)" fill="none" stroke="#303053" stroke-miterlimit="10" stroke-width="1"/>
    <line id="Línea_173" data-name="Línea 173" x1="2" transform="translate(387.085 295.362)" fill="none" stroke="#303053" stroke-miterlimit="10" stroke-width="1"/>
    <line id="Línea_174" data-name="Línea 174" x1="2" transform="translate(384.085 295.362)" fill="none" stroke="#303053" stroke-miterlimit="10" stroke-width="1"/>
    <line id="Línea_175" data-name="Línea 175" x1="2" transform="translate(381.085 295.362)" fill="none" stroke="#303053" stroke-miterlimit="10" stroke-width="1"/>
  </g>
</svg>
