<svg id="Grupo_4381" data-name="Grupo 4381" xmlns="http://www.w3.org/2000/svg" width="33.767" height="27.667" viewBox="0 0 33.767 27.667">
  <path id="Trazado_9870" data-name="Trazado 9870" d="M416.5,297.415a10.424,10.424,0,0,0-2.011.2v-2.028h-.07a2.254,2.254,0,0,0,.07-.555c0-2.917-5.5-4.491-10.68-4.491s-10.68,1.574-10.68,4.491a2.254,2.254,0,0,0,.07.555h-.07v4.375a2.24,2.24,0,0,0,.049.452h-.049v4.375a2.231,2.231,0,0,0,.049.452h-.049v4.375c0,2.918,5.5,4.491,10.68,4.491a25.174,25.174,0,0,0,4.179-.345,10.392,10.392,0,1,0,8.512-16.346Zm0,19.219a8.891,8.891,0,0,1-8.824-8.823c0-.14.014-.277.021-.415a8.742,8.742,0,0,1,.855-3.392,8.825,8.825,0,0,1,4.364-4.247,9,9,0,0,1,3.584-.768,8.823,8.823,0,1,1,0,17.647Zm-12.692-8.928c-5.56,0-9.107-1.728-9.107-2.918v-2.4c2,1.352,5.628,2.064,9.107,2.064a25.771,25.771,0,0,0,2.924-.166,10.317,10.317,0,0,0-.618,3.313C405.391,307.665,404.625,307.706,403.809,307.706Zm3.71-5.107a23.674,23.674,0,0,1-3.71.28c-5.56,0-9.107-1.728-9.107-2.918v-2.5c2,1.352,5.628,2.064,9.107,2.064s7.1-.712,9.107-2.064v.606A10.437,10.437,0,0,0,407.519,302.6Zm-3.71-10.486c5.559,0,9.107,1.728,9.107,2.918s-3.548,2.919-9.107,2.919-9.107-1.728-9.107-2.919S398.249,292.113,403.809,292.113Zm0,20.421c-5.56,0-9.107-1.729-9.107-2.919v-2.4c2,1.352,5.628,2.064,9.107,2.064.8,0,1.6-.038,2.394-.112a10.3,10.3,0,0,0,.938,3.139A23.992,23.992,0,0,1,403.809,312.534Z" transform="translate(-393.129 -290.54)" fill="#5970e2"/>
  <path id="Trazado_9871" data-name="Trazado 9871" d="M438.492,320.118v-2.568c.621.127,1.018.444,1.076.891l1.3-.167a2.506,2.506,0,0,0-2.376-2.049V315.6h-1.31v.625a3.177,3.177,0,0,0-1.356.535,2.415,2.415,0,0,0-.942,1.309,2.068,2.068,0,0,0-.077.467,2.007,2.007,0,0,0,.162.929,2.591,2.591,0,0,0,.857,1.071,3.909,3.909,0,0,0,1.356.63v2.568c-.621-.127-1.018-.444-1.076-.891l-.327.042-.973.125a2.1,2.1,0,0,0,.416,1,2.881,2.881,0,0,0,1.959,1.045v.62h1.31v-.624a2.594,2.594,0,0,0,2.376-2.311C440.932,322.037,440.492,320.653,438.492,320.118Zm-2.378-1.489a1.273,1.273,0,0,1,1.068-1.056V319.8C436.123,319.4,436.109,318.731,436.114,318.629Zm2.378,5.087v-2.227c1.058.4,1.073,1.069,1.068,1.171A1.272,1.272,0,0,1,438.492,323.716Z" transform="translate(-414.465 -303.373)" fill="#5970e2"/>
  <path id="Trazado_9872" data-name="Trazado 9872" d="M433.277,310.8a7.338,7.338,0,0,0-2.012.285c-.047.013-.1.022-.143.037a7.426,7.426,0,0,0-5.191,6.34c-.023.237-.037.477-.037.72a7.382,7.382,0,1,0,7.382-7.382Zm0,13.453a6.04,6.04,0,0,1-4.043-1.555,6.113,6.113,0,0,1-1.049-1.222,6.025,6.025,0,0,1-.952-2.761c-.016-.176-.027-.354-.027-.534a6.072,6.072,0,1,1,6.072,6.072Z" transform="translate(-409.906 -300.916)" fill="#5970e2"/>
</svg>
