<svg xmlns="http://www.w3.org/2000/svg" width="25.453" height="32.43" viewBox="0 0 25.453 32.43">
  <g id="Grupo_526" data-name="Grupo 526" transform="translate(0 0)">
    <path id="Trazado_1565" data-name="Trazado 1565" d="M426.708,522.982a7.156,7.156,0,1,0-7.156,7.156A7.164,7.164,0,0,0,426.708,522.982Zm-7.156,5.693a5.693,5.693,0,1,1,5.693-5.693A5.7,5.7,0,0,1,419.552,528.675Z" transform="translate(-406.824 -510.797)" fill="#303053"/>
    <path id="Trazado_1566" data-name="Trazado 1566" d="M425.867,534.3,422,522.877l2.549-.653-1.748-3.946,2.75-3.019-3.528-2.4.6-4-4.188-.131-1.732-3.673-3.518,2.132-3.518-2.132-1.732,3.673-4.188.131.6,4-3.529,2.4,2.75,3.019-1.748,3.946,2.549.654-3.878,11.45a.94.94,0,0,0,1.327,1.108l3.538-1.808,2.071,3.4a.942.942,0,0,0,.8.451.94.94,0,0,0,.9-.657l2.853-8.754,1.2,1.452,1.2-1.452,2.845,8.728a.939.939,0,0,0,.777.674.9.9,0,0,0,.127.009.94.94,0,0,0,.8-.451l2.072-3.4,3.537,1.807a.939.939,0,0,0,1.321-1.131Zm-17.772,1-2.187-3.593-3.6,1.84,3.49-10.3.05.013.587,4.287,4.015-1.329.433.524Zm2.847-10.79-3.3,1.09-.483-3.518-3.3-.846L405.3,518l-2.256-2.477,2.895-1.966-.5-3.286,3.437-.108,1.421-3.014,2.887,1.749,2.887-1.749,1.421,3.014,3.437.108-.5,3.286,2.895,1.966L421.074,518l1.434,3.238-3.3.846-.482,3.518-3.3-1.09-2.245,2.717Zm9.524,7.2-2.186,3.592-2.79-8.562.433-.525,4.015,1.329.587-4.287.051-.013,3.49,10.3Z" transform="translate(-400.458 -505.053)" fill="#303053"/>
  </g>
</svg>
