<svg xmlns="http://www.w3.org/2000/svg" width="25.67" height="25.667" viewBox="0 0 25.67 25.667">
  <g id="handover_of_keys" data-name="handover of keys" transform="translate(-10 -70)">
    <g id="Grupo_1112" data-name="Grupo 1112" transform="translate(10 70)">
      <path id="Trazado_3376" data-name="Trazado 3376" d="M35.667,78.931a.4.4,0,0,0-.168-.323l-11.662-8.3a1.786,1.786,0,0,0-2,0l-11.664,8.3A.4.4,0,0,0,10,78.94v3.139a.416.416,0,0,0,.411.4h1.525V94.643a1.021,1.021,0,0,0,1.02,1.024H32.714a1.015,1.015,0,0,0,.73-.3,1,1,0,0,0,.3-.721V82.479l1.526,0a.4.4,0,0,0,.4-.4Zm-2.331,2.747a.4.4,0,0,0-.4.4V94.646a.215.215,0,0,1-.06.158.222.222,0,0,1-.16.065H12.956a.224.224,0,0,1-.218-.226V82.084a.406.406,0,0,0-.4-.407H10.8V79.142l11.5-8.178a.953.953,0,0,1,1.07,0l11.5,8.178,0,2.532Z" transform="translate(-10 -70)" fill="#303053"/>
      <path id="Trazado_3377" data-name="Trazado 3377" d="M24.2,71.534a.218.218,0,0,1,.213-.214l4.315,0a.21.21,0,0,1,.21.2v3.834l.8.575V71.52a1.008,1.008,0,0,0-1.01-1.006l-4.318,0a1.01,1.01,0,0,0-1,.938l.787.56Z" transform="translate(-6.198 -69.854)" fill="#303053"/>
    </g>
    <g id="Grupo_1113" data-name="Grupo 1113" transform="translate(15.552 77.221)">
      <path id="Trazado_3378" data-name="Trazado 3378" d="M27.513,77a4.689,4.689,0,0,0-7.451,5.534l-5.62,5.618a.411.411,0,0,0-.116.284v2.028a.4.4,0,0,0,.4.4h2.028a.406.406,0,0,0,.381-.276l.485-1.5,1.244-.263a.414.414,0,0,0,.291-.252l.445-1.163.913-.186a.4.4,0,0,0,.21-.113L22.787,85a.389.389,0,0,0,.09-.158,4.765,4.765,0,0,0,1.312.189A4.7,4.7,0,0,0,27.513,77ZM20.235,86.47l-1.009.205a.4.4,0,0,0-.3.248l-.447,1.168-1.253.266a.41.41,0,0,0-.3.268l-.466,1.44H15.128V88.6L20.51,83.22a4.866,4.866,0,0,0,.352.431,4.751,4.751,0,0,0,1.249.893Zm6.713-3.386a3.9,3.9,0,1,1,0-5.514A3.879,3.879,0,0,1,26.948,83.084Z" transform="translate(-14.326 -75.626)" fill="#303053"/>
      <path id="Trazado_3379" data-name="Trazado 3379" d="M21.646,77.867a1.835,1.835,0,1,0,2.6,0A1.875,1.875,0,0,0,21.646,77.867Zm2.025,2.027a1.057,1.057,0,0,1-1.458,0,1.037,1.037,0,0,1,0-1.462,1.026,1.026,0,0,1,1.458,0A1.03,1.03,0,0,1,23.671,79.894Z" transform="translate(-12.403 -75.139)" fill="#303053"/>
    </g>
  </g>
</svg>
