<svg xmlns="http://www.w3.org/2000/svg" width="24.293" height="31.674" viewBox="0 0 24.293 31.674">
  <g id="Grupo_4872" data-name="Grupo 4872" transform="translate(-513.523 -1188.572)">
    <g id="Grupo_4755" data-name="Grupo 4755" transform="translate(517.926 1188.572)">
      <path id="Trazado_10178" data-name="Trazado 10178" d="M547.069,1215.616h-3.405v-1.435h2.688v-24.172H529.333v2.526H527.9v-3.244a.718.718,0,0,1,.718-.718h18.454a.718.718,0,0,1,.718.718V1214.9a.717.717,0,0,1-.718.717Z" transform="translate(-527.897 -1188.572)" fill="#784eeb"/>
    </g>
    <path id="Trazado_10179" data-name="Trazado 10179" d="M534.2,1204.029l-4.653-4.654a.719.719,0,0,0-.508-.21h-14.8a.717.717,0,0,0-.718.718v26.994a.717.717,0,0,0,.718.718h19.453a.718.718,0,0,0,.718-.718v-22.339A.718.718,0,0,0,534.2,1204.029Zm-1.225,22.129H514.958V1200.6h13.364v3.937a.718.718,0,0,0,.718.718h3.935Zm-7.306-20.9h-8.039v-1.436h8.039Zm0,3.544h-8.039v-1.435h8.039Zm-8.039,2.11h12.462v1.436H517.631Zm0,3.546h12.462v1.436H517.631Zm0,3.545h12.462v1.435H517.631Zm0,3.547h12.462v1.435H517.631Z" transform="translate(0 -7.347)" fill="#784eeb"/>
  </g>
</svg>
